<?xml version="1.0" encoding="utf-8" standalone="no"?>
<!DOCTYPE svg PUBLIC "-//W3C//DTD SVG 1.1//EN"
  "http://www.w3.org/Graphics/SVG/1.1/DTD/svg11.dtd">
<svg xmlns:xlink="http://www.w3.org/1999/xlink" width="206.637012pt" height="138.241353pt" viewBox="0 0 206.637012 138.241353" xmlns="http://www.w3.org/2000/svg" version="1.1">
 <metadata>
  <rdf:RDF xmlns:dc="http://purl.org/dc/elements/1.1/" xmlns:cc="http://creativecommons.org/ns#" xmlns:rdf="http://www.w3.org/1999/02/22-rdf-syntax-ns#">
   <cc:Work>
    <dc:type rdf:resource="http://purl.org/dc/dcmitype/StillImage"/>
    <dc:date>2022-03-29T16:18:13.146755</dc:date>
    <dc:format>image/svg+xml</dc:format>
    <dc:creator>
     <cc:Agent>
      <dc:title>Matplotlib v3.5.1, https://matplotlib.org/</dc:title>
     </cc:Agent>
    </dc:creator>
   </cc:Work>
  </rdf:RDF>
 </metadata>
 <defs>
  <style type="text/css">*{stroke-linejoin: round; stroke-linecap: butt}</style>
 </defs>
 <g id="figure_1">
  <g id="patch_1">
   <path d="M 0 138.241353 
L 206.637012 138.241353 
L 206.637012 -0 
L 0 -0 
L 0 138.241353 
z
" style="fill: none"/>
  </g>
  <g id="axes_1">
   <g id="patch_2">
    <path d="M 32.037012 102.33 
L 199.437012 102.33 
L 199.437012 7.2 
L 32.037012 7.2 
z
" style="fill: #ffffff"/>
   </g>
   <g id="PolyCollection_1">
    <path d="M 49.601923 80.408909 
L 39.646103 80.408909 
L 39.646103 80.408909 
L 39.646103 80.408909 
L 39.646103 80.408909 
L 39.646103 80.408909 
L 39.646103 80.408909 
L 39.646103 80.408909 
L 39.646103 80.408909 
L 39.646103 80.408909 
L 39.646103 80.408909 
L 39.646103 80.408909 
L 39.646103 80.408909 
L 39.646103 80.408909 
L 39.646103 80.408909 
L 39.646103 80.408909 
L 39.646103 80.408909 
L 39.646103 80.408909 
L 39.646103 80.408909 
L 39.646103 80.408909 
L 39.646103 80.408909 
L 39.646103 80.408909 
L 39.646103 80.408909 
L 39.646103 80.408909 
L 39.646103 80.408909 
L 39.646103 80.408909 
L 39.646103 80.408909 
L 39.646103 80.408909 
L 39.646103 80.408909 
L 39.646103 80.408909 
L 39.646103 80.408909 
L 39.646103 80.408909 
L 39.646103 80.408909 
L 39.646103 80.408909 
L 39.646103 80.408909 
L 39.646103 80.408909 
L 39.646103 80.408909 
L 39.646103 80.408909 
L 39.646103 80.408909 
L 39.646103 80.408909 
L 39.646103 80.408909 
L 39.646103 80.408909 
L 39.646103 80.408909 
L 39.646103 80.408909 
L 39.646103 80.408909 
L 39.646103 80.408909 
L 39.646103 80.408909 
L 39.646103 80.408909 
L 39.646103 80.408909 
L 39.646103 80.408909 
L 39.646103 80.408909 
L 39.646103 80.408909 
L 39.646103 80.408909 
L 39.646103 80.408909 
L 39.646103 80.408909 
L 39.646103 80.408909 
L 39.646103 80.408909 
L 39.646103 80.408909 
L 39.646103 80.408909 
L 39.646103 80.408909 
L 39.646103 80.408909 
L 39.646103 80.408909 
L 39.646103 80.408909 
L 39.646103 80.408909 
L 39.646103 80.408909 
L 39.646103 80.408909 
L 39.646103 80.408909 
L 39.646103 80.408909 
L 39.646103 80.408909 
L 39.646103 80.408909 
L 39.646103 80.408909 
L 39.646103 80.408909 
L 39.646103 80.408909 
L 39.646103 80.408909 
L 39.646103 80.408909 
L 39.646103 80.408909 
L 39.646103 80.408909 
L 39.646103 80.408909 
L 39.646103 80.408909 
L 39.646103 80.408909 
L 39.646103 80.408909 
L 39.646103 80.408909 
L 39.646103 80.408909 
L 39.646103 80.408909 
L 39.646103 80.408909 
L 39.646103 80.408909 
L 39.646103 80.408909 
L 39.646103 80.408909 
L 39.646103 80.408909 
L 39.646103 80.408909 
L 39.646103 80.408909 
L 39.646103 80.408909 
L 39.646103 80.408909 
L 39.646103 80.408909 
L 39.646103 80.408909 
L 39.646103 80.408909 
L 39.646103 80.408909 
L 39.646103 80.408909 
L 39.646103 80.408909 
L 39.646103 80.408909 
L 39.646103 80.408909 
L 49.601923 80.408909 
L 49.601923 80.408909 
L 49.601923 80.408909 
L 49.601923 80.408909 
L 49.601923 80.408909 
L 49.601923 80.408909 
L 49.601923 80.408909 
L 49.601923 80.408909 
L 49.601923 80.408909 
L 49.601923 80.408909 
L 49.601923 80.408909 
L 49.601923 80.408909 
L 49.601923 80.408909 
L 49.601923 80.408909 
L 49.601923 80.408909 
L 49.601923 80.408909 
L 49.601923 80.408909 
L 49.601923 80.408909 
L 49.601923 80.408909 
L 49.601923 80.408909 
L 49.601923 80.408909 
L 49.601923 80.408909 
L 49.601923 80.408909 
L 49.601923 80.408909 
L 49.601923 80.408909 
L 49.601923 80.408909 
L 49.601923 80.408909 
L 49.601923 80.408909 
L 49.601923 80.408909 
L 49.601923 80.408909 
L 49.601923 80.408909 
L 49.601923 80.408909 
L 49.601923 80.408909 
L 49.601923 80.408909 
L 49.601923 80.408909 
L 49.601923 80.408909 
L 49.601923 80.408909 
L 49.601923 80.408909 
L 49.601923 80.408909 
L 49.601923 80.408909 
L 49.601923 80.408909 
L 49.601923 80.408909 
L 49.601923 80.408909 
L 49.601923 80.408909 
L 49.601923 80.408909 
L 49.601923 80.408909 
L 49.601923 80.408909 
L 49.601923 80.408909 
L 49.601923 80.408909 
L 49.601923 80.408909 
L 49.601923 80.408909 
L 49.601923 80.408909 
L 49.601923 80.408909 
L 49.601923 80.408909 
L 49.601923 80.408909 
L 49.601923 80.408909 
L 49.601923 80.408909 
L 49.601923 80.408909 
L 49.601923 80.408909 
L 49.601923 80.408909 
L 49.601923 80.408909 
L 49.601923 80.408909 
L 49.601923 80.408909 
L 49.601923 80.408909 
L 49.601923 80.408909 
L 49.601923 80.408909 
L 49.601923 80.408909 
L 49.601923 80.408909 
L 49.601923 80.408909 
L 49.601923 80.408909 
L 49.601923 80.408909 
L 49.601923 80.408909 
L 49.601923 80.408909 
L 49.601923 80.408909 
L 49.601923 80.408909 
L 49.601923 80.408909 
L 49.601923 80.408909 
L 49.601923 80.408909 
L 49.601923 80.408909 
L 49.601923 80.408909 
L 49.601923 80.408909 
L 49.601923 80.408909 
L 49.601923 80.408909 
L 49.601923 80.408909 
L 49.601923 80.408909 
L 49.601923 80.408909 
L 49.601923 80.408909 
L 49.601923 80.408909 
L 49.601923 80.408909 
L 49.601923 80.408909 
L 49.601923 80.408909 
L 49.601923 80.408909 
L 49.601923 80.408909 
L 49.601923 80.408909 
L 49.601923 80.408909 
L 49.601923 80.408909 
L 49.601923 80.408909 
L 49.601923 80.408909 
L 49.601923 80.408909 
L 49.601923 80.408909 
L 49.601923 80.408909 
z
" clip-path="url(#p3a1d4ac1a9)" style="fill: #ff0000; fill-opacity: 0.3"/>
   </g>
   <g id="PolyCollection_2">
    <path d="M 73.780967 94.661322 
L 72.357458 94.661322 
L 72.351752 94.307629 
L 72.351101 93.953936 
L 72.354689 93.600242 
L 72.361409 93.246549 
L 72.369888 92.892856 
L 72.378516 92.539163 
L 72.385487 92.185469 
L 72.388846 91.831776 
L 72.38653 91.478083 
L 72.376423 91.124389 
L 72.356397 90.770696 
L 72.324369 90.417003 
L 72.278342 90.063309 
L 72.216462 89.709616 
L 72.137068 89.355923 
L 72.038754 89.002229 
L 71.920426 88.648536 
L 71.781372 88.294843 
L 71.621331 87.941149 
L 71.440558 87.587456 
L 71.239885 87.233763 
L 71.020778 86.88007 
L 70.78537 86.526376 
L 70.536469 86.172683 
L 70.277549 85.81899 
L 70.012695 85.465296 
L 69.746525 85.111603 
L 69.484061 84.75791 
L 69.230584 84.404216 
L 68.99145 84.050523 
L 68.771888 83.69683 
L 68.576793 83.343136 
L 68.410513 82.989443 
L 68.276657 82.63575 
L 68.177923 82.282056 
L 68.115965 81.928363 
L 68.091303 81.57467 
L 68.103282 81.220977 
L 68.150092 80.867283 
L 68.228825 80.51359 
L 68.335596 80.159897 
L 68.465699 79.806203 
L 68.613796 79.45251 
L 68.77413 79.098817 
L 68.940755 78.745123 
L 69.107752 78.39143 
L 69.269456 78.037737 
L 69.420643 77.684043 
L 69.556704 77.33035 
L 69.673782 76.976657 
L 69.768866 76.622963 
L 69.839856 76.26927 
L 69.885582 75.915577 
L 69.905789 75.561884 
L 69.901087 75.20819 
L 69.872865 74.854497 
L 69.823188 74.500804 
L 69.754668 74.14711 
L 69.67032 73.793417 
L 69.573414 73.439724 
L 69.467321 73.08603 
L 69.355372 72.732337 
L 69.240724 72.378644 
L 69.126245 72.02495 
L 69.014424 71.671257 
L 68.907312 71.317564 
L 68.806485 70.963871 
L 68.713045 70.610177 
L 68.627642 70.256484 
L 68.550528 69.902791 
L 68.481625 69.549097 
L 68.420608 69.195404 
L 68.366992 68.841711 
L 68.320216 68.488017 
L 68.279716 68.134324 
L 68.244993 67.780631 
L 68.215644 67.426937 
L 68.191395 67.073244 
L 68.172099 66.719551 
L 68.157729 66.365857 
L 68.148356 66.012164 
L 68.144126 65.658471 
L 68.145235 65.304778 
L 68.151918 64.951084 
L 68.164435 64.597391 
L 68.183086 64.243698 
L 68.208221 63.890004 
L 68.240267 63.536311 
L 68.279752 63.182618 
L 68.327327 62.828924 
L 68.383774 62.475231 
L 68.450002 62.121538 
L 68.527016 61.767844 
L 68.61587 61.414151 
L 68.717593 61.060458 
L 68.833105 60.706764 
L 68.963116 60.353071 
L 69.108034 59.999378 
L 69.267873 59.645685 
L 76.870552 59.645685 
L 76.870552 59.645685 
L 77.030391 59.999378 
L 77.175309 60.353071 
L 77.30532 60.706764 
L 77.420832 61.060458 
L 77.522555 61.414151 
L 77.611408 61.767844 
L 77.688423 62.121538 
L 77.754651 62.475231 
L 77.811098 62.828924 
L 77.858673 63.182618 
L 77.898158 63.536311 
L 77.930204 63.890004 
L 77.955339 64.243698 
L 77.97399 64.597391 
L 77.986507 64.951084 
L 77.993189 65.304778 
L 77.994299 65.658471 
L 77.990069 66.012164 
L 77.980696 66.365857 
L 77.966326 66.719551 
L 77.94703 67.073244 
L 77.922781 67.426937 
L 77.893432 67.780631 
L 77.858709 68.134324 
L 77.818209 68.488017 
L 77.771433 68.841711 
L 77.717817 69.195404 
L 77.6568 69.549097 
L 77.587897 69.902791 
L 77.510783 70.256484 
L 77.42538 70.610177 
L 77.331939 70.963871 
L 77.231113 71.317564 
L 77.124001 71.671257 
L 77.01218 72.02495 
L 76.897701 72.378644 
L 76.783053 72.732337 
L 76.671104 73.08603 
L 76.565011 73.439724 
L 76.468105 73.793417 
L 76.383757 74.14711 
L 76.315237 74.500804 
L 76.26556 74.854497 
L 76.237338 75.20819 
L 76.232636 75.561884 
L 76.252843 75.915577 
L 76.298569 76.26927 
L 76.369559 76.622963 
L 76.464643 76.976657 
L 76.581721 77.33035 
L 76.717782 77.684043 
L 76.868969 78.037737 
L 77.030673 78.39143 
L 77.19767 78.745123 
L 77.364295 79.098817 
L 77.524629 79.45251 
L 77.672726 79.806203 
L 77.802829 80.159897 
L 77.9096 80.51359 
L 77.988333 80.867283 
L 78.035143 81.220977 
L 78.047122 81.57467 
L 78.02246 81.928363 
L 77.960502 82.282056 
L 77.861768 82.63575 
L 77.727912 82.989443 
L 77.561632 83.343136 
L 77.366537 83.69683 
L 77.146975 84.050523 
L 76.907841 84.404216 
L 76.654364 84.75791 
L 76.3919 85.111603 
L 76.12573 85.465296 
L 75.860876 85.81899 
L 75.601956 86.172683 
L 75.353055 86.526376 
L 75.117646 86.88007 
L 74.89854 87.233763 
L 74.697867 87.587456 
L 74.517093 87.941149 
L 74.357053 88.294843 
L 74.217999 88.648536 
L 74.099671 89.002229 
L 74.001357 89.355923 
L 73.921963 89.709616 
L 73.860083 90.063309 
L 73.814056 90.417003 
L 73.782028 90.770696 
L 73.762002 91.124389 
L 73.751895 91.478083 
L 73.749579 91.831776 
L 73.752938 92.185469 
L 73.759909 92.539163 
L 73.768537 92.892856 
L 73.777015 93.246549 
L 73.783736 93.600242 
L 73.787324 93.953936 
L 73.786672 94.307629 
L 73.780967 94.661322 
z
" clip-path="url(#p3a1d4ac1a9)" style="fill: #ff0000; fill-opacity: 0.3"/>
   </g>
   <g id="PolyCollection_3">
    <path d="M 102.94334 96.560923 
L 100.085484 96.560923 
L 100.058551 96.025903 
L 100.040408 95.490883 
L 100.030862 94.955862 
L 100.029448 94.420842 
L 100.035431 93.885822 
L 100.047834 93.350801 
L 100.065462 92.815781 
L 100.086949 92.280761 
L 100.110798 91.74574 
L 100.135434 91.21072 
L 100.159262 90.6757 
L 100.180718 90.140679 
L 100.198321 89.605659 
L 100.21073 89.070639 
L 100.216777 88.535618 
L 100.215515 88.000598 
L 100.206238 87.465577 
L 100.188503 86.930557 
L 100.162144 86.395537 
L 100.127263 85.860516 
L 100.084229 85.325496 
L 100.033652 84.790476 
L 99.976361 84.255455 
L 99.913364 83.720435 
L 99.845809 83.185415 
L 99.774942 82.650394 
L 99.70205 82.115374 
L 99.628419 81.580354 
L 99.555281 81.045333 
L 99.483767 80.510313 
L 99.414867 79.975293 
L 99.349391 79.440272 
L 99.287945 78.905252 
L 99.23091 78.370232 
L 99.178438 77.835211 
L 99.130449 77.300191 
L 99.086654 76.765171 
L 99.046572 76.23015 
L 99.009568 75.69513 
L 98.974894 75.16011 
L 98.94174 74.625089 
L 98.909276 74.090069 
L 98.876709 73.555048 
L 98.84333 73.020028 
L 98.808549 72.485008 
L 98.771936 71.949987 
L 98.733234 71.414967 
L 98.692377 70.879947 
L 98.64948 70.344926 
L 98.604829 69.809906 
L 98.558845 69.274886 
L 98.512049 68.739865 
L 98.465014 68.204845 
L 98.418309 67.669825 
L 98.372447 67.134804 
L 98.327829 66.599784 
L 98.284699 66.064764 
L 98.2431 65.529743 
L 98.202854 64.994723 
L 98.163545 64.459703 
L 98.124523 63.924682 
L 98.084931 63.389662 
L 98.043739 62.854642 
L 97.999799 62.319621 
L 97.951917 61.784601 
L 97.898926 61.249581 
L 97.839776 60.71456 
L 97.773616 60.17954 
L 97.699881 59.64452 
L 97.618366 59.109499 
L 97.529284 58.574479 
L 97.433317 58.039458 
L 97.331633 57.504438 
L 97.225889 56.969418 
L 97.118206 56.434397 
L 97.01112 55.899377 
L 96.907506 55.364357 
L 96.810489 54.829336 
L 96.723331 54.294316 
L 96.649313 53.759296 
L 96.591604 53.224275 
L 96.55314 52.689255 
L 96.536502 52.154235 
L 96.543809 51.619214 
L 96.576628 51.084194 
L 96.63591 50.549174 
L 96.721947 50.014153 
L 96.834355 49.479133 
L 96.972091 48.944113 
L 97.133491 48.409092 
L 97.316329 47.874072 
L 97.517906 47.339052 
L 97.735143 46.804031 
L 97.964695 46.269011 
L 98.203061 45.733991 
L 98.446702 45.19897 
L 98.692148 44.66395 
L 98.936097 44.12893 
L 99.175501 43.593909 
L 103.853323 43.593909 
L 103.853323 43.593909 
L 104.092727 44.12893 
L 104.336676 44.66395 
L 104.582122 45.19897 
L 104.825763 45.733991 
L 105.064129 46.269011 
L 105.293681 46.804031 
L 105.510918 47.339052 
L 105.712495 47.874072 
L 105.895333 48.409092 
L 106.056733 48.944113 
L 106.194469 49.479133 
L 106.306878 50.014153 
L 106.392914 50.549174 
L 106.452196 51.084194 
L 106.485015 51.619214 
L 106.492322 52.154235 
L 106.475684 52.689255 
L 106.437221 53.224275 
L 106.379512 53.759296 
L 106.305493 54.294316 
L 106.218335 54.829336 
L 106.121318 55.364357 
L 106.017704 55.899377 
L 105.910618 56.434397 
L 105.802936 56.969418 
L 105.697192 57.504438 
L 105.595507 58.039458 
L 105.49954 58.574479 
L 105.410458 59.109499 
L 105.328943 59.64452 
L 105.255208 60.17954 
L 105.189049 60.71456 
L 105.129898 61.249581 
L 105.076907 61.784601 
L 105.029025 62.319621 
L 104.985085 62.854642 
L 104.943893 63.389662 
L 104.904301 63.924682 
L 104.86528 64.459703 
L 104.82597 64.994723 
L 104.785724 65.529743 
L 104.744125 66.064764 
L 104.700995 66.599784 
L 104.656377 67.134804 
L 104.610515 67.669825 
L 104.56381 68.204845 
L 104.516775 68.739865 
L 104.469979 69.274886 
L 104.423995 69.809906 
L 104.379344 70.344926 
L 104.336448 70.879947 
L 104.295591 71.414967 
L 104.256889 71.949987 
L 104.220275 72.485008 
L 104.185494 73.020028 
L 104.152115 73.555048 
L 104.119549 74.090069 
L 104.087085 74.625089 
L 104.05393 75.16011 
L 104.019257 75.69513 
L 103.982253 76.23015 
L 103.94217 76.765171 
L 103.898375 77.300191 
L 103.850387 77.835211 
L 103.797914 78.370232 
L 103.74088 78.905252 
L 103.679433 79.440272 
L 103.613957 79.975293 
L 103.545057 80.510313 
L 103.473543 81.045333 
L 103.400405 81.580354 
L 103.326774 82.115374 
L 103.253883 82.650394 
L 103.183015 83.185415 
L 103.115461 83.720435 
L 103.052463 84.255455 
L 102.995172 84.790476 
L 102.944595 85.325496 
L 102.901561 85.860516 
L 102.866681 86.395537 
L 102.840321 86.930557 
L 102.822587 87.465577 
L 102.813309 88.000598 
L 102.812047 88.535618 
L 102.818095 89.070639 
L 102.830503 89.605659 
L 102.848107 90.140679 
L 102.869562 90.6757 
L 102.89339 91.21072 
L 102.918026 91.74574 
L 102.941875 92.280761 
L 102.963362 92.815781 
L 102.980991 93.350801 
L 102.993393 93.885822 
L 102.999377 94.420842 
L 102.997962 94.955862 
L 102.988417 95.490883 
L 102.970273 96.025903 
L 102.94334 96.560923 
z
" clip-path="url(#p3a1d4ac1a9)" style="fill: #ff0000; fill-opacity: 0.3"/>
   </g>
   <g id="PolyCollection_4">
    <path d="M 120.445181 97.33902 
L 115.862394 97.33902 
L 115.714187 96.650056 
L 115.562628 95.961092 
L 115.408241 95.272128 
L 115.251631 94.583164 
L 115.093489 93.8942 
L 114.934591 93.205236 
L 114.775805 92.516273 
L 114.618087 91.827309 
L 114.462476 91.138345 
L 114.31009 90.449381 
L 114.162114 89.760417 
L 114.019789 89.071453 
L 113.884394 88.382489 
L 113.757225 87.693525 
L 113.639577 87.004561 
L 113.532719 86.315598 
L 113.437865 85.626634 
L 113.356154 84.93767 
L 113.288619 84.248706 
L 113.236161 83.559742 
L 113.199532 82.870778 
L 113.179309 82.181814 
L 113.175877 81.49285 
L 113.189419 80.803886 
L 113.219906 80.114923 
L 113.267091 79.425959 
L 113.330518 78.736995 
L 113.409521 78.048031 
L 113.503244 77.359067 
L 113.610651 76.670103 
L 113.730555 75.981139 
L 113.861634 75.292175 
L 114.002468 74.603211 
L 114.151561 73.914248 
L 114.307374 73.225284 
L 114.468356 72.53632 
L 114.63297 71.847356 
L 114.799726 71.158392 
L 114.9672 70.469428 
L 115.134057 69.780464 
L 115.299073 69.0915 
L 115.461143 68.402536 
L 115.619293 67.713573 
L 115.772689 67.024609 
L 115.92063 66.335645 
L 116.062555 65.646681 
L 116.19803 64.957717 
L 116.326741 64.268753 
L 116.448485 63.579789 
L 116.563151 62.890825 
L 116.670712 62.201862 
L 116.771201 61.512898 
L 116.864704 60.823934 
L 116.951338 60.13497 
L 117.031237 59.446006 
L 117.104542 58.757042 
L 117.171384 58.068078 
L 117.231878 57.379114 
L 117.286113 56.69015 
L 117.334145 56.001187 
L 117.375995 55.312223 
L 117.411646 54.623259 
L 117.441044 53.934295 
L 117.464105 53.245331 
L 117.480711 52.556367 
L 117.490727 51.867403 
L 117.494002 51.178439 
L 117.490384 50.489475 
L 117.479727 49.800512 
L 117.461907 49.111548 
L 117.436831 48.422584 
L 117.404453 47.73362 
L 117.364785 47.044656 
L 117.317909 46.355692 
L 117.263988 45.666728 
L 117.203278 44.977764 
L 117.136134 44.2888 
L 117.063016 43.599837 
L 116.984495 42.910873 
L 116.901252 42.221909 
L 116.814073 41.532945 
L 116.723852 40.843981 
L 116.631575 40.155017 
L 116.538311 39.466053 
L 116.445199 38.777089 
L 116.353429 38.088126 
L 116.264221 37.399162 
L 116.178806 36.710198 
L 116.098402 36.021234 
L 116.024189 35.33227 
L 115.957285 34.643306 
L 115.898722 33.954342 
L 115.849425 33.265378 
L 115.810191 32.576414 
L 115.78167 31.887451 
L 115.764351 31.198487 
L 115.758555 30.509523 
L 115.764421 29.820559 
L 115.78191 29.131595 
L 120.525664 29.131595 
L 120.525664 29.131595 
L 120.543153 29.820559 
L 120.549019 30.509523 
L 120.543223 31.198487 
L 120.525905 31.887451 
L 120.497384 32.576414 
L 120.458149 33.265378 
L 120.408853 33.954342 
L 120.35029 34.643306 
L 120.283385 35.33227 
L 120.209172 36.021234 
L 120.128769 36.710198 
L 120.043354 37.399162 
L 119.954146 38.088126 
L 119.862375 38.777089 
L 119.769263 39.466053 
L 119.675999 40.155017 
L 119.583722 40.843981 
L 119.493501 41.532945 
L 119.406323 42.221909 
L 119.323079 42.910873 
L 119.244558 43.599837 
L 119.171441 44.2888 
L 119.104297 44.977764 
L 119.043587 45.666728 
L 118.989666 46.355692 
L 118.942789 47.044656 
L 118.903121 47.73362 
L 118.870743 48.422584 
L 118.845668 49.111548 
L 118.827847 49.800512 
L 118.817191 50.489475 
L 118.813572 51.178439 
L 118.816848 51.867403 
L 118.826864 52.556367 
L 118.84347 53.245331 
L 118.86653 53.934295 
L 118.895929 54.623259 
L 118.93158 55.312223 
L 118.973429 56.001187 
L 119.021461 56.69015 
L 119.075696 57.379114 
L 119.136191 58.068078 
L 119.203033 58.757042 
L 119.276337 59.446006 
L 119.356237 60.13497 
L 119.44287 60.823934 
L 119.536373 61.512898 
L 119.636863 62.201862 
L 119.744423 62.890825 
L 119.85909 63.579789 
L 119.980833 64.268753 
L 120.109545 64.957717 
L 120.24502 65.646681 
L 120.386944 66.335645 
L 120.534886 67.024609 
L 120.688281 67.713573 
L 120.846432 68.402536 
L 121.008501 69.0915 
L 121.173517 69.780464 
L 121.340375 70.469428 
L 121.507848 71.158392 
L 121.674604 71.847356 
L 121.839219 72.53632 
L 122.0002 73.225284 
L 122.156013 73.914248 
L 122.305106 74.603211 
L 122.44594 75.292175 
L 122.57702 75.981139 
L 122.696923 76.670103 
L 122.804331 77.359067 
L 122.898054 78.048031 
L 122.977057 78.736995 
L 123.040483 79.425959 
L 123.087669 80.114923 
L 123.118155 80.803886 
L 123.131697 81.49285 
L 123.128265 82.181814 
L 123.108042 82.870778 
L 123.071413 83.559742 
L 123.018956 84.248706 
L 122.95142 84.93767 
L 122.869709 85.626634 
L 122.774856 86.315598 
L 122.667998 87.004561 
L 122.55035 87.693525 
L 122.423181 88.382489 
L 122.287785 89.071453 
L 122.14546 89.760417 
L 121.997485 90.449381 
L 121.845099 91.138345 
L 121.689488 91.827309 
L 121.531769 92.516273 
L 121.372984 93.205236 
L 121.214086 93.8942 
L 121.055943 94.583164 
L 120.899334 95.272128 
L 120.744947 95.961092 
L 120.593388 96.650056 
L 120.445181 97.33902 
z
" clip-path="url(#p3a1d4ac1a9)" style="fill: #ff0000; fill-opacity: 0.3"/>
   </g>
   <g id="PolyCollection_5">
    <path d="M 130.758655 97.004961 
L 129.160568 97.004961 
L 129.117749 96.541896 
L 129.075336 96.078832 
L 129.033051 95.615767 
L 128.99049 95.152702 
L 128.94713 94.689637 
L 128.902339 94.226572 
L 128.855391 93.763507 
L 128.805492 93.300442 
L 128.751806 92.837377 
L 128.693486 92.374312 
L 128.629712 91.911247 
L 128.55972 91.448183 
L 128.482845 90.985118 
L 128.398549 90.522053 
L 128.306455 90.058988 
L 128.206365 89.595923 
L 128.098282 89.132858 
L 127.982414 88.669793 
L 127.859174 88.206728 
L 127.729169 87.743663 
L 127.593181 87.280598 
L 127.452135 86.817533 
L 127.307069 86.354469 
L 127.159091 85.891404 
L 127.00934 85.428339 
L 126.858945 84.965274 
L 126.70899 84.502209 
L 126.560487 84.039144 
L 126.414355 83.576079 
L 126.271412 83.113014 
L 126.132379 82.649949 
L 125.997892 82.186884 
L 125.868532 81.723819 
L 125.744851 81.260755 
L 125.627412 80.79769 
L 125.516826 80.334625 
L 125.413786 79.87156 
L 125.319096 79.408495 
L 125.233683 78.94543 
L 125.158607 78.482365 
L 125.095044 78.0193 
L 125.044264 77.556235 
L 125.007583 77.09317 
L 124.986314 76.630106 
L 124.981702 76.167041 
L 124.994856 75.703976 
L 125.02668 75.240911 
L 125.077806 74.777846 
L 125.148541 74.314781 
L 125.238824 73.851716 
L 125.348194 73.388651 
L 125.475787 72.925586 
L 125.62034 72.462521 
L 125.78022 71.999456 
L 125.953463 71.536392 
L 126.137835 71.073327 
L 126.330894 70.610262 
L 126.530063 70.147197 
L 126.7327 69.684132 
L 126.936175 69.221067 
L 127.137927 68.758002 
L 127.33553 68.294937 
L 127.526731 67.831872 
L 127.709492 67.368807 
L 127.882007 66.905742 
L 128.042719 66.442678 
L 128.190319 65.979613 
L 128.32374 65.516548 
L 128.442143 65.053483 
L 128.544904 64.590418 
L 128.631592 64.127353 
L 128.701954 63.664288 
L 128.755899 63.201223 
L 128.793486 62.738158 
L 128.814918 62.275093 
L 128.82054 61.812029 
L 128.810843 61.348964 
L 128.786469 60.885899 
L 128.748225 60.422834 
L 128.697089 59.959769 
L 128.634225 59.496704 
L 128.560993 59.033639 
L 128.478945 58.570574 
L 128.389829 58.107509 
L 128.295574 57.644444 
L 128.198273 57.181379 
L 128.100146 56.718315 
L 128.003509 56.25525 
L 127.910717 55.792185 
L 127.824112 55.32912 
L 127.745957 54.866055 
L 127.678375 54.40299 
L 127.623282 53.939925 
L 127.582326 53.47686 
L 127.556834 53.013795 
L 127.547763 52.55073 
L 127.555672 52.087665 
L 127.580701 51.624601 
L 127.622568 51.161536 
L 132.296656 51.161536 
L 132.296656 51.161536 
L 132.338523 51.624601 
L 132.363551 52.087665 
L 132.37146 52.55073 
L 132.36239 53.013795 
L 132.336897 53.47686 
L 132.295942 53.939925 
L 132.240849 54.40299 
L 132.173267 54.866055 
L 132.095112 55.32912 
L 132.008506 55.792185 
L 131.915714 56.25525 
L 131.819077 56.718315 
L 131.720951 57.181379 
L 131.623649 57.644444 
L 131.529395 58.107509 
L 131.440279 58.570574 
L 131.358231 59.033639 
L 131.284998 59.496704 
L 131.222135 59.959769 
L 131.170999 60.422834 
L 131.132754 60.885899 
L 131.108381 61.348964 
L 131.098683 61.812029 
L 131.104306 62.275093 
L 131.125738 62.738158 
L 131.163325 63.201223 
L 131.21727 63.664288 
L 131.287632 64.127353 
L 131.37432 64.590418 
L 131.477081 65.053483 
L 131.595484 65.516548 
L 131.728904 65.979613 
L 131.876504 66.442678 
L 132.037216 66.905742 
L 132.209732 67.368807 
L 132.392492 67.831872 
L 132.583693 68.294937 
L 132.781296 68.758002 
L 132.983049 69.221067 
L 133.186523 69.684132 
L 133.389161 70.147197 
L 133.58833 70.610262 
L 133.781389 71.073327 
L 133.965761 71.536392 
L 134.139004 71.999456 
L 134.298883 72.462521 
L 134.443436 72.925586 
L 134.571029 73.388651 
L 134.6804 73.851716 
L 134.770682 74.314781 
L 134.841418 74.777846 
L 134.892544 75.240911 
L 134.924367 75.703976 
L 134.937522 76.167041 
L 134.93291 76.630106 
L 134.911641 77.09317 
L 134.87496 77.556235 
L 134.824179 78.0193 
L 134.760617 78.482365 
L 134.685541 78.94543 
L 134.600128 79.408495 
L 134.505437 79.87156 
L 134.402397 80.334625 
L 134.291811 80.79769 
L 134.174372 81.260755 
L 134.050691 81.723819 
L 133.921331 82.186884 
L 133.786845 82.649949 
L 133.647811 83.113014 
L 133.504868 83.576079 
L 133.358736 84.039144 
L 133.210233 84.502209 
L 133.060279 84.965274 
L 132.909883 85.428339 
L 132.760132 85.891404 
L 132.612154 86.354469 
L 132.467089 86.817533 
L 132.326043 87.280598 
L 132.190055 87.743663 
L 132.06005 88.206728 
L 131.93681 88.669793 
L 131.820941 89.132858 
L 131.712858 89.595923 
L 131.612769 90.058988 
L 131.520674 90.522053 
L 131.436379 90.985118 
L 131.359504 91.448183 
L 131.289512 91.911247 
L 131.225737 92.374312 
L 131.167418 92.837377 
L 131.113732 93.300442 
L 131.063833 93.763507 
L 131.016885 94.226572 
L 130.972093 94.689637 
L 130.928734 95.152702 
L 130.886173 95.615767 
L 130.843887 96.078832 
L 130.801474 96.541896 
L 130.758655 97.004961 
z
" clip-path="url(#p3a1d4ac1a9)" style="fill: #ff0000; fill-opacity: 0.3"/>
   </g>
   <g id="PolyCollection_6">
    <path d="M 151.311298 97.515763 
L 141.886676 97.515763 
L 141.805672 97.004241 
L 141.738882 96.492719 
L 141.686779 95.981197 
L 141.649688 95.469675 
L 141.627781 94.958154 
L 141.621077 94.446632 
L 141.629444 93.93511 
L 141.652605 93.423588 
L 141.690144 92.912066 
L 141.741512 92.400544 
L 141.806047 91.889022 
L 141.882975 91.377501 
L 141.971436 90.865979 
L 142.070491 90.354457 
L 142.179139 89.842935 
L 142.296336 89.331413 
L 142.421008 88.819891 
L 142.552065 88.308369 
L 142.688421 87.796848 
L 142.829 87.285326 
L 142.972753 86.773804 
L 143.118667 86.262282 
L 143.265778 85.75076 
L 143.413171 85.239238 
L 143.559994 84.727717 
L 143.705459 84.216195 
L 143.848845 83.704673 
L 143.989502 83.193151 
L 144.126848 82.681629 
L 144.260373 82.170107 
L 144.389633 81.658585 
L 144.514251 81.147064 
L 144.633912 80.635542 
L 144.748359 80.12402 
L 144.85739 79.612498 
L 144.960854 79.100976 
L 145.058647 78.589454 
L 145.150704 78.077932 
L 145.236998 77.566411 
L 145.317533 77.054889 
L 145.392344 76.543367 
L 145.461484 76.031845 
L 145.525032 75.520323 
L 145.583076 75.008801 
L 145.635722 74.497279 
L 145.68308 73.985758 
L 145.725269 73.474236 
L 145.762407 72.962714 
L 145.794615 72.451192 
L 145.822012 71.93967 
L 145.84471 71.428148 
L 145.862821 70.916627 
L 145.876445 70.405105 
L 145.885678 69.893583 
L 145.89061 69.382061 
L 145.89132 68.870539 
L 145.887885 68.359017 
L 145.880374 67.847495 
L 145.868854 67.335974 
L 145.853391 66.824452 
L 145.83405 66.31293 
L 145.810903 65.801408 
L 145.784027 65.289886 
L 145.75351 64.778364 
L 145.719455 64.266842 
L 145.681982 63.755321 
L 145.641231 63.243799 
L 145.597369 62.732277 
L 145.550588 62.220755 
L 145.50111 61.709233 
L 145.449191 61.197711 
L 145.39512 60.68619 
L 145.339219 60.174668 
L 145.281846 59.663146 
L 145.223392 59.151624 
L 145.16428 58.640102 
L 145.104962 58.12858 
L 145.045917 57.617058 
L 144.987642 57.105537 
L 144.930655 56.594015 
L 144.87548 56.082493 
L 144.822647 55.570971 
L 144.772683 55.059449 
L 144.726105 54.547927 
L 144.683409 54.036405 
L 144.645069 53.524884 
L 144.611525 53.013362 
L 144.583177 52.50184 
L 144.560378 51.990318 
L 144.54343 51.478796 
L 144.532576 50.967274 
L 144.527998 50.455752 
L 144.529815 49.944231 
L 144.538077 49.432709 
L 144.552767 48.921187 
L 144.573799 48.409665 
L 144.601024 47.898143 
L 144.634226 47.386621 
L 144.673131 46.8751 
L 148.524843 46.8751 
L 148.524843 46.8751 
L 148.563748 47.386621 
L 148.59695 47.898143 
L 148.624175 48.409665 
L 148.645207 48.921187 
L 148.659897 49.432709 
L 148.668159 49.944231 
L 148.669976 50.455752 
L 148.665398 50.967274 
L 148.654544 51.478796 
L 148.637596 51.990318 
L 148.614797 52.50184 
L 148.586448 53.013362 
L 148.552904 53.524884 
L 148.514565 54.036405 
L 148.471869 54.547927 
L 148.42529 55.059449 
L 148.375327 55.570971 
L 148.322494 56.082493 
L 148.267319 56.594015 
L 148.210332 57.105537 
L 148.152057 57.617058 
L 148.093012 58.12858 
L 148.033694 58.640102 
L 147.974582 59.151624 
L 147.916128 59.663146 
L 147.858755 60.174668 
L 147.802854 60.68619 
L 147.748783 61.197711 
L 147.696864 61.709233 
L 147.647386 62.220755 
L 147.600605 62.732277 
L 147.556742 63.243799 
L 147.515992 63.755321 
L 147.478519 64.266842 
L 147.444464 64.778364 
L 147.413947 65.289886 
L 147.387071 65.801408 
L 147.363924 66.31293 
L 147.344583 66.824452 
L 147.32912 67.335974 
L 147.3176 67.847495 
L 147.310089 68.359017 
L 147.306654 68.870539 
L 147.307364 69.382061 
L 147.312296 69.893583 
L 147.321529 70.405105 
L 147.335153 70.916627 
L 147.353263 71.428148 
L 147.375962 71.93967 
L 147.403359 72.451192 
L 147.435567 72.962714 
L 147.472705 73.474236 
L 147.514893 73.985758 
L 147.562252 74.497279 
L 147.614897 75.008801 
L 147.672942 75.520323 
L 147.736489 76.031845 
L 147.80563 76.543367 
L 147.88044 77.054889 
L 147.960976 77.566411 
L 148.04727 78.077932 
L 148.139327 78.589454 
L 148.237119 79.100976 
L 148.340584 79.612498 
L 148.449615 80.12402 
L 148.564062 80.635542 
L 148.683723 81.147064 
L 148.808341 81.658585 
L 148.937601 82.170107 
L 149.071126 82.681629 
L 149.208472 83.193151 
L 149.349129 83.704673 
L 149.492515 84.216195 
L 149.63798 84.727717 
L 149.784803 85.239238 
L 149.932196 85.75076 
L 150.079306 86.262282 
L 150.225221 86.773804 
L 150.368974 87.285326 
L 150.509553 87.796848 
L 150.645908 88.308369 
L 150.776966 88.819891 
L 150.901638 89.331413 
L 151.018835 89.842935 
L 151.127483 90.354457 
L 151.226537 90.865979 
L 151.314999 91.377501 
L 151.391927 91.889022 
L 151.456461 92.400544 
L 151.50783 92.912066 
L 151.545368 93.423588 
L 151.568529 93.93511 
L 151.576897 94.446632 
L 151.570193 94.958154 
L 151.548286 95.469675 
L 151.511195 95.981197 
L 151.459092 96.492719 
L 151.392302 97.004241 
L 151.311298 97.515763 
z
" clip-path="url(#p3a1d4ac1a9)" style="fill: #ff0000; fill-opacity: 0.3"/>
   </g>
   <g id="PolyCollection_7">
    <path d="M 162.905306 97.856142 
L 153.904316 97.856142 
L 153.743165 97.291033 
L 153.613412 96.725925 
L 153.516944 96.160816 
L 153.45475 95.595707 
L 153.426902 95.030599 
L 153.432578 94.46549 
L 153.470129 93.900381 
L 153.537169 93.335272 
L 153.630708 92.770164 
L 153.74729 92.205055 
L 153.883148 91.639946 
L 154.034354 91.074837 
L 154.196966 90.509729 
L 154.367148 89.94462 
L 154.541278 89.379511 
L 154.71603 88.814402 
L 154.888426 88.249294 
L 155.055867 87.684185 
L 155.216137 87.119076 
L 155.367397 86.553967 
L 155.508158 85.988859 
L 155.637242 85.42375 
L 155.753752 84.858641 
L 155.857024 84.293532 
L 155.946595 83.728424 
L 156.022171 83.163315 
L 156.083601 82.598206 
L 156.13086 82.033097 
L 156.164043 81.467989 
L 156.183362 80.90288 
L 156.189149 80.337771 
L 156.181873 79.772662 
L 156.162148 79.207554 
L 156.130754 78.642445 
L 156.088655 78.077336 
L 156.037016 77.512227 
L 155.977215 76.947119 
L 155.910848 76.38201 
L 155.839733 75.816901 
L 155.765899 75.251792 
L 155.69156 74.686684 
L 155.619081 74.121575 
L 155.550934 73.556466 
L 155.48963 72.991357 
L 155.437653 72.426249 
L 155.397376 71.86114 
L 155.370978 71.296031 
L 155.360357 70.730922 
L 155.367054 70.165814 
L 155.392174 69.600705 
L 155.436341 69.035596 
L 155.499652 68.470487 
L 155.581671 67.905379 
L 155.68143 67.34027 
L 155.797467 66.775161 
L 155.927881 66.210052 
L 156.070405 65.644944 
L 156.222498 65.079835 
L 156.381442 64.514726 
L 156.544449 63.949617 
L 156.708761 63.384509 
L 156.871745 62.8194 
L 157.030979 62.254291 
L 157.184313 61.689182 
L 157.329927 61.124074 
L 157.466355 60.558965 
L 157.592498 59.993856 
L 157.707621 59.428747 
L 157.811327 58.863639 
L 157.903528 58.29853 
L 157.984399 57.733421 
L 158.054334 57.168313 
L 158.113893 56.603204 
L 158.163757 56.038095 
L 158.204681 55.472986 
L 158.237454 54.907878 
L 158.26287 54.342769 
L 158.2817 53.77766 
L 158.294675 53.212551 
L 158.302475 52.647443 
L 158.305729 52.082334 
L 158.305013 51.517225 
L 158.300854 50.952116 
L 158.293745 50.387008 
L 158.284148 49.821899 
L 158.272506 49.25679 
L 158.259254 48.691681 
L 158.244822 48.126573 
L 158.229644 47.561464 
L 158.214153 46.996355 
L 158.198784 46.431246 
L 158.183967 45.866138 
L 158.170119 45.301029 
L 158.157636 44.73592 
L 158.146878 44.170811 
L 158.138161 43.605703 
L 158.131746 43.040594 
L 158.127826 42.475485 
L 158.126522 41.910376 
L 158.683101 41.910376 
L 158.683101 41.910376 
L 158.681797 42.475485 
L 158.677877 43.040594 
L 158.671462 43.605703 
L 158.662745 44.170811 
L 158.651987 44.73592 
L 158.639503 45.301029 
L 158.625656 45.866138 
L 158.610839 46.431246 
L 158.59547 46.996355 
L 158.579979 47.561464 
L 158.564801 48.126573 
L 158.550369 48.691681 
L 158.537117 49.25679 
L 158.525475 49.821899 
L 158.515878 50.387008 
L 158.508769 50.952116 
L 158.50461 51.517225 
L 158.503894 52.082334 
L 158.507148 52.647443 
L 158.514948 53.212551 
L 158.527923 53.77766 
L 158.546752 54.342769 
L 158.572169 54.907878 
L 158.604942 55.472986 
L 158.645866 56.038095 
L 158.69573 56.603204 
L 158.755289 57.168313 
L 158.825224 57.733421 
L 158.906095 58.29853 
L 158.998296 58.863639 
L 159.102002 59.428747 
L 159.217125 59.993856 
L 159.343268 60.558965 
L 159.479696 61.124074 
L 159.62531 61.689182 
L 159.778644 62.254291 
L 159.937877 62.8194 
L 160.100862 63.384509 
L 160.265174 63.949617 
L 160.428181 64.514726 
L 160.587125 65.079835 
L 160.739218 65.644944 
L 160.881742 66.210052 
L 161.012156 66.775161 
L 161.128193 67.34027 
L 161.227952 67.905379 
L 161.309971 68.470487 
L 161.373282 69.035596 
L 161.417449 69.600705 
L 161.442569 70.165814 
L 161.449265 70.730922 
L 161.438645 71.296031 
L 161.412247 71.86114 
L 161.37197 72.426249 
L 161.319993 72.991357 
L 161.258689 73.556466 
L 161.190541 74.121575 
L 161.118063 74.686684 
L 161.043724 75.251792 
L 160.96989 75.816901 
L 160.898775 76.38201 
L 160.832408 76.947119 
L 160.772606 77.512227 
L 160.720968 78.077336 
L 160.678869 78.642445 
L 160.647475 79.207554 
L 160.62775 79.772662 
L 160.620474 80.337771 
L 160.626261 80.90288 
L 160.64558 81.467989 
L 160.678763 82.033097 
L 160.726022 82.598206 
L 160.787452 83.163315 
L 160.863027 83.728424 
L 160.952599 84.293532 
L 161.055871 84.858641 
L 161.172381 85.42375 
L 161.301465 85.988859 
L 161.442226 86.553967 
L 161.593486 87.119076 
L 161.753756 87.684185 
L 161.921197 88.249294 
L 162.093593 88.814402 
L 162.268345 89.379511 
L 162.442475 89.94462 
L 162.612657 90.509729 
L 162.775268 91.074837 
L 162.926475 91.639946 
L 163.062333 92.205055 
L 163.178915 92.770164 
L 163.272454 93.335272 
L 163.339494 93.900381 
L 163.377045 94.46549 
L 163.382721 95.030599 
L 163.354873 95.595707 
L 163.292679 96.160816 
L 163.196211 96.725925 
L 163.066458 97.291033 
L 162.905306 97.856142 
z
" clip-path="url(#p3a1d4ac1a9)" style="fill: #ff0000; fill-opacity: 0.3"/>
   </g>
   <g id="PolyCollection_8">
    <path d="M 179.790869 97.888211 
L 170.297504 97.888211 
L 170.22707 97.37214 
L 170.169062 96.856068 
L 170.123819 96.339996 
L 170.091562 95.823925 
L 170.072388 95.307853 
L 170.066277 94.791781 
L 170.073084 94.27571 
L 170.092549 93.759638 
L 170.124296 93.243566 
L 170.167844 92.727495 
L 170.22261 92.211423 
L 170.287923 91.695351 
L 170.36303 91.17928 
L 170.44711 90.663208 
L 170.539286 90.147137 
L 170.638636 89.631065 
L 170.744207 89.114993 
L 170.85503 88.598922 
L 170.970129 88.08285 
L 171.088534 87.566778 
L 171.209298 87.050707 
L 171.3315 86.534635 
L 171.45426 86.018563 
L 171.576746 85.502492 
L 171.698184 84.98642 
L 171.81786 84.470348 
L 171.93513 83.954277 
L 172.049418 83.438205 
L 172.160223 82.922133 
L 172.267119 82.406062 
L 172.369752 81.88999 
L 172.467841 81.373918 
L 172.561176 80.857847 
L 172.64961 80.341775 
L 172.733061 79.825703 
L 172.811504 79.309632 
L 172.884961 78.79356 
L 172.953504 78.277489 
L 173.017241 77.761417 
L 173.076314 77.245345 
L 173.13089 76.729274 
L 173.181155 76.213202 
L 173.227311 75.69713 
L 173.269567 75.181059 
L 173.308132 74.664987 
L 173.343217 74.148915 
L 173.375024 73.632844 
L 173.403746 73.116772 
L 173.42956 72.6007 
L 173.452632 72.084629 
L 173.473107 71.568557 
L 173.491113 71.052485 
L 173.506759 70.536414 
L 173.520136 70.020342 
L 173.531315 69.50427 
L 173.540351 68.988199 
L 173.547286 68.472127 
L 173.552145 67.956056 
L 173.554945 67.439984 
L 173.555694 66.923912 
L 173.554396 66.407841 
L 173.55105 65.891769 
L 173.545658 65.375697 
L 173.538226 64.859626 
L 173.528767 64.343554 
L 173.517304 63.827482 
L 173.503871 63.311411 
L 173.488519 62.795339 
L 173.471315 62.279267 
L 173.452347 61.763196 
L 173.431722 61.247124 
L 173.409569 60.731052 
L 173.38604 60.214981 
L 173.361308 59.698909 
L 173.335572 59.182837 
L 173.309049 58.666766 
L 173.28198 58.150694 
L 173.254621 57.634622 
L 173.22725 57.118551 
L 173.200156 56.602479 
L 173.173641 56.086408 
L 173.148018 55.570336 
L 173.123602 55.054264 
L 173.100714 54.538193 
L 173.079671 54.022121 
L 173.060783 53.506049 
L 173.044354 52.989978 
L 173.030671 52.473906 
L 173.020007 51.957834 
L 173.012612 51.441763 
L 173.008711 50.925691 
L 173.008501 50.409619 
L 173.012151 49.893548 
L 173.019794 49.377476 
L 173.031528 48.861404 
L 173.047415 48.345333 
L 173.067477 47.829261 
L 173.091701 47.313189 
L 173.12003 46.797118 
L 176.968343 46.797118 
L 176.968343 46.797118 
L 176.996673 47.313189 
L 177.020896 47.829261 
L 177.040958 48.345333 
L 177.056845 48.861404 
L 177.068579 49.377476 
L 177.076222 49.893548 
L 177.079872 50.409619 
L 177.079663 50.925691 
L 177.075761 51.441763 
L 177.068366 51.957834 
L 177.057702 52.473906 
L 177.044019 52.989978 
L 177.02759 53.506049 
L 177.008703 54.022121 
L 176.987659 54.538193 
L 176.964771 55.054264 
L 176.940355 55.570336 
L 176.914732 56.086408 
L 176.888218 56.602479 
L 176.861123 57.118551 
L 176.833752 57.634622 
L 176.806393 58.150694 
L 176.779324 58.666766 
L 176.752801 59.182837 
L 176.727065 59.698909 
L 176.702334 60.214981 
L 176.678804 60.731052 
L 176.656651 61.247124 
L 176.636026 61.763196 
L 176.617058 62.279267 
L 176.599854 62.795339 
L 176.584502 63.311411 
L 176.571069 63.827482 
L 176.559606 64.343554 
L 176.550147 64.859626 
L 176.542715 65.375697 
L 176.537324 65.891769 
L 176.533978 66.407841 
L 176.532679 66.923912 
L 176.533428 67.439984 
L 176.536228 67.956056 
L 176.541087 68.472127 
L 176.548022 68.988199 
L 176.557059 69.50427 
L 176.568238 70.020342 
L 176.581614 70.536414 
L 176.59726 71.052485 
L 176.615266 71.568557 
L 176.635741 72.084629 
L 176.658813 72.6007 
L 176.684628 73.116772 
L 176.713349 73.632844 
L 176.745156 74.148915 
L 176.780241 74.664987 
L 176.818806 75.181059 
L 176.861062 75.69713 
L 176.907218 76.213202 
L 176.957483 76.729274 
L 177.012059 77.245345 
L 177.071132 77.761417 
L 177.134869 78.277489 
L 177.203412 78.79356 
L 177.27687 79.309632 
L 177.355312 79.825703 
L 177.438763 80.341775 
L 177.527198 80.857847 
L 177.620532 81.373918 
L 177.718621 81.88999 
L 177.821254 82.406062 
L 177.92815 82.922133 
L 178.038955 83.438205 
L 178.153243 83.954277 
L 178.270513 84.470348 
L 178.390189 84.98642 
L 178.511627 85.502492 
L 178.634113 86.018563 
L 178.756873 86.534635 
L 178.879075 87.050707 
L 178.999839 87.566778 
L 179.118245 88.08285 
L 179.233343 88.598922 
L 179.344166 89.114993 
L 179.449737 89.631065 
L 179.549087 90.147137 
L 179.641263 90.663208 
L 179.725343 91.17928 
L 179.80045 91.695351 
L 179.865763 92.211423 
L 179.920529 92.727495 
L 179.964077 93.243566 
L 179.995825 93.759638 
L 180.015289 94.27571 
L 180.022097 94.791781 
L 180.015985 95.307853 
L 179.996811 95.823925 
L 179.964554 96.339996 
L 179.919311 96.856068 
L 179.861304 97.37214 
L 179.790869 97.888211 
z
" clip-path="url(#p3a1d4ac1a9)" style="fill: #ff0000; fill-opacity: 0.3"/>
   </g>
   <g id="PolyCollection_9">
    <path d="M 191.699067 98.005909 
L 182.000955 98.005909 
L 181.944065 97.132355 
L 181.903443 96.258802 
L 181.879408 95.385248 
L 181.872101 94.511694 
L 181.881492 93.63814 
L 181.907379 92.764587 
L 181.94939 91.891033 
L 182.006999 91.017479 
L 182.079529 90.143926 
L 182.16617 89.270372 
L 182.265989 88.396818 
L 182.377952 87.523264 
L 182.500939 86.649711 
L 182.633762 85.776157 
L 182.775184 84.902603 
L 182.923939 84.02905 
L 183.078749 83.155496 
L 183.238339 82.281942 
L 183.401459 81.408388 
L 183.566893 80.534835 
L 183.733475 79.661281 
L 183.900099 78.787727 
L 184.065732 77.914174 
L 184.229414 77.04062 
L 184.390272 76.167066 
L 184.547518 75.293512 
L 184.700454 74.419959 
L 184.848471 73.546405 
L 184.991046 72.672851 
L 185.127744 71.799298 
L 185.25821 70.925744 
L 185.382168 70.05219 
L 185.49941 69.178636 
L 185.609799 68.305083 
L 185.713252 67.431529 
L 185.809743 66.557975 
L 185.89929 65.684421 
L 185.981953 64.810868 
L 186.057823 63.937314 
L 186.127022 63.06376 
L 186.189693 62.190207 
L 186.245996 61.316653 
L 186.296104 60.443099 
L 186.340201 59.569545 
L 186.378473 58.695992 
L 186.411113 57.822438 
L 186.438311 56.948884 
L 186.46026 56.075331 
L 186.477147 55.201777 
L 186.48916 54.328223 
L 186.496481 53.454669 
L 186.49929 52.581116 
L 186.497766 51.707562 
L 186.492086 50.834008 
L 186.482426 49.960455 
L 186.468962 49.086901 
L 186.451873 48.213347 
L 186.431341 47.339793 
L 186.407551 46.46624 
L 186.380696 45.592686 
L 186.350971 44.719132 
L 186.318584 43.845579 
L 186.283746 42.972025 
L 186.24668 42.098471 
L 186.207615 41.224917 
L 186.166792 40.351364 
L 186.124458 39.47781 
L 186.080867 38.604256 
L 186.036284 37.730702 
L 185.990977 36.857149 
L 185.94522 35.983595 
L 185.899292 35.110041 
L 185.853473 34.236488 
L 185.808045 33.362934 
L 185.76329 32.48938 
L 185.719485 31.615826 
L 185.676906 30.742273 
L 185.635823 29.868719 
L 185.596497 28.995165 
L 185.559182 28.121612 
L 185.524121 27.248058 
L 185.491545 26.374504 
L 185.461673 25.50095 
L 185.434707 24.627397 
L 185.410835 23.753843 
L 185.390227 22.880289 
L 185.373032 22.006736 
L 185.359383 21.133182 
L 185.349388 20.259628 
L 185.343136 19.386074 
L 185.340689 18.512521 
L 185.342088 17.638967 
L 185.347346 16.765413 
L 185.356453 15.89186 
L 185.36937 15.018306 
L 185.386033 14.144752 
L 185.40635 13.271198 
L 185.430204 12.397645 
L 185.45745 11.524091 
L 188.242572 11.524091 
L 188.242572 11.524091 
L 188.269819 12.397645 
L 188.293672 13.271198 
L 188.31399 14.144752 
L 188.330652 15.018306 
L 188.343569 15.89186 
L 188.352676 16.765413 
L 188.357935 17.638967 
L 188.359333 18.512521 
L 188.356887 19.386074 
L 188.350634 20.259628 
L 188.340639 21.133182 
L 188.32699 22.006736 
L 188.309796 22.880289 
L 188.289187 23.753843 
L 188.265315 24.627397 
L 188.238349 25.50095 
L 188.208477 26.374504 
L 188.175902 27.248058 
L 188.140841 28.121612 
L 188.103526 28.995165 
L 188.0642 29.868719 
L 188.023116 30.742273 
L 187.980537 31.615826 
L 187.936733 32.48938 
L 187.891977 33.362934 
L 187.846549 34.236488 
L 187.80073 35.110041 
L 187.754802 35.983595 
L 187.709046 36.857149 
L 187.663738 37.730702 
L 187.619155 38.604256 
L 187.575565 39.47781 
L 187.53323 40.351364 
L 187.492407 41.224917 
L 187.453343 42.098471 
L 187.416276 42.972025 
L 187.381439 43.845579 
L 187.349051 44.719132 
L 187.319327 45.592686 
L 187.292471 46.46624 
L 187.268681 47.339793 
L 187.248149 48.213347 
L 187.23106 49.086901 
L 187.217596 49.960455 
L 187.207936 50.834008 
L 187.202256 51.707562 
L 187.200732 52.581116 
L 187.203542 53.454669 
L 187.210862 54.328223 
L 187.222875 55.201777 
L 187.239762 56.075331 
L 187.261711 56.948884 
L 187.288909 57.822438 
L 187.321549 58.695992 
L 187.359821 59.569545 
L 187.403918 60.443099 
L 187.454026 61.316653 
L 187.510329 62.190207 
L 187.573 63.06376 
L 187.642199 63.937314 
L 187.71807 64.810868 
L 187.800732 65.684421 
L 187.890279 66.557975 
L 187.98677 67.431529 
L 188.090223 68.305083 
L 188.200612 69.178636 
L 188.317855 70.05219 
L 188.441812 70.925744 
L 188.572278 71.799298 
L 188.708976 72.672851 
L 188.851552 73.546405 
L 188.999568 74.419959 
L 189.152504 75.293512 
L 189.30975 76.167066 
L 189.470608 77.04062 
L 189.63429 77.914174 
L 189.799923 78.787727 
L 189.966548 79.661281 
L 190.133129 80.534835 
L 190.298563 81.408388 
L 190.461683 82.281942 
L 190.621274 83.155496 
L 190.776083 84.02905 
L 190.924838 84.902603 
L 191.06626 85.776157 
L 191.199083 86.649711 
L 191.32207 87.523264 
L 191.434034 88.396818 
L 191.533853 89.270372 
L 191.620493 90.143926 
L 191.693023 91.017479 
L 191.750632 91.891033 
L 191.792644 92.764587 
L 191.81853 93.63814 
L 191.827921 94.511694 
L 191.820614 95.385248 
L 191.796579 96.258802 
L 191.755958 97.132355 
L 191.699067 98.005909 
z
" clip-path="url(#p3a1d4ac1a9)" style="fill: #ff0000; fill-opacity: 0.3"/>
   </g>
   <g id="matplotlib.axis_1">
    <g id="xtick_1">
     <g id="line2d_1">
      <defs>
       <path id="mf1b9abb38a" d="M 0 0 
L 0 3.5 
" style="stroke: #000000; stroke-width: 0.8"/>
      </defs>
      <g>
       <use xlink:href="#mf1b9abb38a" x="44.624013" y="102.33" style="stroke: #000000; stroke-width: 0.8"/>
      </g>
     </g>
     <g id="text_1">
      <!-- $\mathrm{1}$ -->
      <g transform="translate(42.133345 116.248498)scale(0.1 -0.1)">
       <defs>
        <path id="CMR17-31" d="M 1702 4083 
C 1702 4217 1696 4224 1606 4224 
C 1357 3927 979 3833 621 3820 
C 602 3820 570 3820 563 3808 
C 557 3795 557 3782 557 3648 
C 755 3648 1088 3686 1344 3839 
L 1344 467 
C 1344 243 1331 166 781 166 
L 589 166 
L 589 0 
C 896 6 1216 12 1523 12 
C 1830 12 2150 6 2458 0 
L 2458 166 
L 2266 166 
C 1715 166 1702 236 1702 467 
L 1702 4083 
z
" transform="scale(0.015625)"/>
       </defs>
       <use xlink:href="#CMR17-31" transform="scale(0.996264)"/>
      </g>
     </g>
    </g>
    <g id="xtick_2">
     <g id="line2d_2">
      <g>
       <use xlink:href="#mf1b9abb38a" x="73.069212" y="102.33" style="stroke: #000000; stroke-width: 0.8"/>
      </g>
     </g>
     <g id="text_2">
      <!-- $\mathrm{2}$ -->
      <g transform="translate(70.578545 116.248498)scale(0.1 -0.1)">
       <defs>
        <path id="CMR17-32" d="M 2669 990 
L 2554 990 
C 2490 537 2438 460 2413 422 
C 2381 371 1920 371 1830 371 
L 602 371 
C 832 620 1280 1073 1824 1596 
C 2214 1966 2669 2400 2669 3033 
C 2669 3788 2067 4224 1395 4224 
C 691 4224 262 3603 262 3027 
C 262 2777 448 2745 525 2745 
C 589 2745 781 2783 781 3007 
C 781 3206 614 3264 525 3264 
C 486 3264 448 3257 422 3244 
C 544 3788 915 4057 1306 4057 
C 1862 4057 2227 3616 2227 3033 
C 2227 2477 1901 1998 1536 1583 
L 262 147 
L 262 0 
L 2515 0 
L 2669 990 
z
" transform="scale(0.015625)"/>
       </defs>
       <use xlink:href="#CMR17-32" transform="scale(0.996264)"/>
      </g>
     </g>
    </g>
    <g id="xtick_3">
     <g id="line2d_3">
      <g>
       <use xlink:href="#mf1b9abb38a" x="101.514412" y="102.33" style="stroke: #000000; stroke-width: 0.8"/>
      </g>
     </g>
     <g id="text_3">
      <!-- $\mathrm{4}$ -->
      <g transform="translate(99.023745 116.248498)scale(0.1 -0.1)">
       <defs>
        <path id="CMR17-34" d="M 2150 4147 
C 2150 4281 2144 4288 2029 4288 
L 128 1254 
L 128 1088 
L 1779 1088 
L 1779 460 
C 1779 230 1766 166 1318 166 
L 1197 166 
L 1197 0 
C 1402 12 1747 12 1965 12 
C 2182 12 2528 12 2733 0 
L 2733 166 
L 2611 166 
C 2163 166 2150 230 2150 460 
L 2150 1088 
L 2803 1088 
L 2803 1254 
L 2150 1254 
L 2150 4147 
z
M 1798 3723 
L 1798 1254 
L 256 1254 
L 1798 3723 
z
" transform="scale(0.015625)"/>
       </defs>
       <use xlink:href="#CMR17-34" transform="scale(0.996264)"/>
      </g>
     </g>
    </g>
    <g id="xtick_4">
     <g id="line2d_4">
      <g>
       <use xlink:href="#mf1b9abb38a" x="118.153787" y="102.33" style="stroke: #000000; stroke-width: 0.8"/>
      </g>
     </g>
     <g id="text_4">
      <!-- $\mathrm{}$ -->
      <g transform="translate(118.153787 116.248498)scale(0.1 -0.1)"/>
     </g>
    </g>
    <g id="xtick_5">
     <g id="line2d_5">
      <g>
       <use xlink:href="#mf1b9abb38a" x="129.959612" y="102.33" style="stroke: #000000; stroke-width: 0.8"/>
      </g>
     </g>
     <g id="text_5">
      <!-- $\mathrm{8}$ -->
      <g transform="translate(127.468944 116.248498)scale(0.1 -0.1)">
       <defs>
        <path id="CMR17-38" d="M 1741 2289 
C 2144 2494 2554 2803 2554 3298 
C 2554 3884 1990 4224 1472 4224 
C 890 4224 378 3800 378 3215 
C 378 3054 416 2777 666 2533 
C 730 2469 998 2276 1171 2154 
C 883 2006 211 1652 211 945 
C 211 282 838 -128 1459 -128 
C 2144 -128 2720 366 2720 1022 
C 2720 1607 2330 1877 2074 2051 
L 1741 2289 
z
M 902 2855 
C 851 2887 595 3086 595 3388 
C 595 3781 998 4076 1459 4076 
C 1965 4076 2336 3716 2336 3298 
C 2336 2700 1670 2359 1638 2359 
C 1632 2359 1626 2359 1574 2398 
L 902 2855 
z
M 2080 1536 
C 2176 1466 2483 1253 2483 861 
C 2483 385 2010 25 1472 25 
C 890 25 448 443 448 951 
C 448 1459 838 1884 1280 2083 
L 2080 1536 
z
" transform="scale(0.015625)"/>
       </defs>
       <use xlink:href="#CMR17-38" transform="scale(0.996264)"/>
      </g>
     </g>
    </g>
    <g id="xtick_6">
     <g id="line2d_6">
      <g>
       <use xlink:href="#mf1b9abb38a" x="146.598987" y="102.33" style="stroke: #000000; stroke-width: 0.8"/>
      </g>
     </g>
     <g id="text_6">
      <!-- $\mathrm{}$ -->
      <g transform="translate(146.598987 116.248498)scale(0.1 -0.1)"/>
     </g>
    </g>
    <g id="xtick_7">
     <g id="line2d_7">
      <g>
       <use xlink:href="#mf1b9abb38a" x="158.404811" y="102.33" style="stroke: #000000; stroke-width: 0.8"/>
      </g>
     </g>
     <g id="text_7">
      <!-- $\mathrm{16}$ -->
      <g transform="translate(153.423476 116.248498)scale(0.1 -0.1)">
       <defs>
        <path id="CMR17-36" d="M 678 2198 
C 678 3712 1395 4076 1811 4076 
C 1946 4076 2272 4049 2400 3782 
C 2298 3782 2106 3782 2106 3558 
C 2106 3385 2246 3328 2336 3328 
C 2394 3328 2566 3353 2566 3571 
C 2566 3987 2246 4224 1805 4224 
C 1043 4224 243 3411 243 2011 
C 243 257 966 -128 1478 -128 
C 2099 -128 2688 431 2688 1295 
C 2688 2101 2170 2688 1517 2688 
C 1126 2688 838 2430 678 1979 
L 678 2198 
z
M 1478 25 
C 691 25 691 1212 691 1450 
C 691 1914 909 2585 1504 2585 
C 1613 2585 1926 2585 2138 2140 
C 2253 1889 2253 1624 2253 1302 
C 2253 954 2253 696 2118 438 
C 1978 173 1773 25 1478 25 
z
" transform="scale(0.015625)"/>
       </defs>
       <use xlink:href="#CMR17-31" transform="scale(0.996264)"/>
       <use xlink:href="#CMR17-36" transform="translate(45.690477 0)scale(0.996264)"/>
      </g>
     </g>
    </g>
    <g id="xtick_8">
     <g id="line2d_8">
      <g>
       <use xlink:href="#mf1b9abb38a" x="175.044187" y="102.33" style="stroke: #000000; stroke-width: 0.8"/>
      </g>
     </g>
     <g id="text_8">
      <!-- $\mathrm{}$ -->
      <g transform="translate(175.044187 116.248498)scale(0.1 -0.1)"/>
     </g>
    </g>
    <g id="xtick_9">
     <g id="line2d_9">
      <g>
       <use xlink:href="#mf1b9abb38a" x="186.850011" y="102.33" style="stroke: #000000; stroke-width: 0.8"/>
      </g>
     </g>
     <g id="text_9">
      <!-- $\mathrm{32}$ -->
      <g transform="translate(181.868676 116.248498)scale(0.1 -0.1)">
       <defs>
        <path id="CMR17-33" d="M 1414 2176 
C 1984 2176 2234 1673 2234 1094 
C 2234 322 1824 25 1453 25 
C 1114 25 563 193 390 691 
C 422 678 454 678 486 678 
C 640 678 755 780 755 947 
C 755 1132 614 1216 486 1216 
C 378 1216 211 1164 211 927 
C 211 335 787 -128 1466 -128 
C 2176 -128 2720 432 2720 1087 
C 2720 1718 2208 2176 1600 2246 
C 2086 2347 2554 2776 2554 3353 
C 2554 3856 2048 4224 1472 4224 
C 890 4224 378 3862 378 3347 
C 378 3123 544 3084 627 3084 
C 762 3084 877 3167 877 3334 
C 877 3500 762 3584 627 3584 
C 602 3584 570 3584 544 3571 
C 730 3999 1235 4076 1459 4076 
C 1683 4076 2106 3966 2106 3347 
C 2106 3167 2080 2851 1862 2574 
C 1670 2329 1453 2316 1242 2297 
C 1210 2297 1062 2284 1037 2284 
C 992 2278 966 2272 966 2227 
C 966 2182 973 2176 1101 2176 
L 1414 2176 
z
" transform="scale(0.015625)"/>
       </defs>
       <use xlink:href="#CMR17-33" transform="scale(0.996264)"/>
       <use xlink:href="#CMR17-32" transform="translate(45.690477 0)scale(0.996264)"/>
      </g>
     </g>
    </g>
    <g id="text_10">
     <!-- $\mathrm{Number\: of\: threads}$ -->
     <g transform="translate(75.443631 129.104175)scale(0.1 -0.1)">
      <defs>
       <path id="CMR17-4e" d="M 1312 4275 
C 1267 4345 1261 4352 1139 4352 
L 326 4352 
L 326 4185 
L 448 4185 
C 704 4185 819 4153 838 4147 
L 838 624 
C 838 465 838 166 326 166 
L 326 0 
C 474 12 742 12 902 12 
C 1062 12 1331 12 1478 0 
L 1478 166 
C 966 166 966 465 966 624 
L 966 4057 
C 1011 4019 1011 4007 1056 3943 
L 3430 76 
C 3475 0 3494 0 3526 0 
C 3590 0 3590 19 3590 140 
L 3590 3726 
C 3590 3885 3590 4185 4102 4185 
L 4102 4352 
C 3955 4339 3686 4339 3526 4339 
C 3366 4339 3098 4339 2950 4352 
L 2950 4185 
C 3462 4185 3462 3885 3462 3726 
L 3462 777 
L 1312 4275 
z
" transform="scale(0.015625)"/>
       <path id="CMR17-75" d="M 1882 2745 
L 1882 2579 
C 2259 2579 2317 2540 2317 2229 
L 2317 1053 
C 2317 510 2029 38 1555 38 
C 1030 38 986 355 986 691 
L 986 2816 
L 211 2745 
L 211 2579 
C 467 2579 640 2579 646 2320 
L 646 1079 
C 646 646 646 368 813 187 
C 896 103 1056 -64 1517 -64 
C 2061 -64 2272 400 2323 536 
L 2330 536 
L 2330 -64 
L 3091 -13 
L 3091 154 
C 2714 154 2656 193 2656 503 
L 2656 2816 
L 1882 2745 
z
" transform="scale(0.015625)"/>
       <path id="CMR17-6d" d="M 4326 1954 
C 4326 2276 4269 2816 3507 2816 
C 3072 2816 2771 2520 2656 2173 
L 2650 2173 
C 2573 2700 2195 2816 1837 2816 
C 1331 2816 1069 2424 973 2166 
L 966 2166 
L 966 2816 
L 211 2745 
L 211 2578 
C 589 2578 646 2540 646 2231 
L 646 443 
C 646 198 621 166 211 166 
L 211 0 
C 365 12 646 12 813 12 
C 979 12 1267 12 1421 0 
L 1421 166 
C 1011 166 986 192 986 443 
L 986 1678 
C 986 2269 1344 2713 1792 2713 
C 2266 2713 2317 2289 2317 1980 
L 2317 443 
C 2317 198 2291 166 1882 166 
L 1882 0 
C 2035 12 2317 12 2483 12 
C 2650 12 2938 12 3091 0 
L 3091 166 
C 2682 166 2656 192 2656 443 
L 2656 1678 
C 2656 2269 3014 2713 3462 2713 
C 3936 2713 3987 2289 3987 1980 
L 3987 443 
C 3987 198 3962 166 3552 166 
L 3552 0 
C 3706 12 3987 12 4154 12 
C 4320 12 4608 12 4762 0 
L 4762 166 
C 4352 166 4326 192 4326 443 
L 4326 1954 
z
" transform="scale(0.015625)"/>
       <path id="CMR17-62" d="M 960 4416 
L 198 4345 
L 198 4179 
C 576 4179 634 4141 634 3843 
L 634 -13 
L 749 -13 
L 934 445 
C 1120 141 1395 -64 1766 -64 
C 2406 -64 3053 503 3053 1382 
C 3053 2209 2477 2816 1830 2816 
C 1434 2816 1152 2603 960 2351 
L 960 4416 
z
M 973 2022 
C 973 2138 973 2157 1062 2293 
C 1312 2681 1670 2713 1792 2713 
C 1984 2713 2643 2610 2643 1388 
C 2643 109 1888 38 1734 38 
C 1536 38 1248 115 1043 490 
C 973 613 973 626 973 742 
L 973 2022 
z
" transform="scale(0.015625)"/>
       <path id="CMR17-65" d="M 2438 1503 
C 2464 1529 2464 1542 2464 1606 
C 2464 2251 2118 2816 1389 2816 
C 710 2816 173 2175 173 1394 
C 173 554 781 -64 1459 -64 
C 2176 -64 2458 619 2458 755 
C 2458 800 2419 800 2406 800 
C 2362 800 2355 787 2330 709 
C 2189 270 1837 51 1504 51 
C 1229 51 954 206 781 490 
C 582 819 582 1200 582 1503 
L 2438 1503 
z
M 589 1600 
C 634 2511 1126 2713 1382 2713 
C 1818 2713 2112 2308 2118 1600 
L 589 1600 
z
" transform="scale(0.015625)"/>
       <path id="CMR17-72" d="M 960 1517 
C 960 2134 1222 2713 1702 2713 
C 1747 2713 1792 2707 1837 2687 
C 1837 2687 1696 2642 1696 2475 
C 1696 2321 1818 2257 1914 2257 
C 1990 2257 2131 2302 2131 2482 
C 2131 2687 1926 2816 1709 2816 
C 1222 2816 1011 2340 947 2115 
L 941 2115 
L 941 2816 
L 198 2745 
L 198 2578 
C 576 2578 634 2540 634 2231 
L 634 443 
C 634 198 608 166 198 166 
L 198 0 
C 352 12 646 12 813 12 
C 998 12 1325 12 1498 0 
L 1498 166 
C 1037 166 960 166 960 455 
L 960 1517 
z
" transform="scale(0.015625)"/>
       <path id="CMR17-6f" d="M 2758 1356 
C 2758 2176 2163 2816 1466 2816 
C 768 2816 173 2176 173 1356 
C 173 550 768 -64 1466 -64 
C 2163 -64 2758 550 2758 1356 
z
M 1466 51 
C 1165 51 909 230 762 480 
C 602 768 582 1126 582 1408 
C 582 1676 595 2009 762 2297 
C 890 2508 1139 2713 1466 2713 
C 1754 2713 1997 2553 2150 2329 
C 2349 2028 2349 1606 2349 1408 
C 2349 1158 2336 774 2163 467 
C 1984 172 1709 51 1466 51 
z
" transform="scale(0.015625)"/>
       <path id="CMR17-66" d="M 979 2585 
L 1709 2585 
L 1709 2752 
L 966 2752 
L 966 3539 
C 966 4076 1235 4377 1510 4377 
C 1594 4377 1690 4363 1754 4339 
C 1702 4326 1568 4281 1568 4121 
C 1568 3955 1696 3904 1786 3904 
C 1875 3904 2003 3955 2003 4121 
C 2003 4353 1773 4480 1517 4480 
C 1152 4480 653 4211 653 3526 
L 653 2752 
L 141 2752 
L 141 2585 
L 653 2585 
L 653 441 
C 653 198 627 166 218 166 
L 218 0 
C 371 12 666 12 832 12 
C 1018 12 1344 12 1517 0 
L 1517 166 
C 1056 166 979 166 979 454 
L 979 2585 
z
" transform="scale(0.015625)"/>
       <path id="CMR17-74" d="M 966 2585 
L 1862 2585 
L 1862 2752 
L 966 2752 
L 966 3968 
L 851 3968 
C 838 3292 614 2700 70 2687 
L 70 2585 
L 627 2585 
L 627 778 
C 627 655 627 -64 1370 -64 
C 1747 -64 1965 308 1965 784 
L 1965 1151 
L 1850 1151 
L 1850 790 
C 1850 347 1677 51 1408 51 
C 1222 51 966 179 966 765 
L 966 2585 
z
" transform="scale(0.015625)"/>
       <path id="CMR17-68" d="M 2656 1954 
C 2656 2282 2592 2816 1837 2816 
C 1312 2816 1056 2392 979 2179 
L 973 2179 
L 973 4416 
L 211 4345 
L 211 4179 
C 589 4179 646 4141 646 3843 
L 646 443 
C 646 198 621 166 211 166 
L 211 0 
C 365 12 646 12 813 12 
C 979 12 1267 12 1421 0 
L 1421 166 
C 1011 166 986 192 986 443 
L 986 1678 
C 986 2269 1344 2713 1792 2713 
C 2266 2713 2317 2289 2317 1980 
L 2317 443 
C 2317 198 2291 166 1882 166 
L 1882 0 
C 2035 12 2317 12 2483 12 
C 2650 12 2938 12 3091 0 
L 3091 166 
C 2682 166 2656 192 2656 443 
L 2656 1954 
z
" transform="scale(0.015625)"/>
       <path id="CMR17-61" d="M 2304 1656 
C 2304 2048 2304 2275 2035 2534 
C 1798 2751 1523 2816 1306 2816 
C 800 2816 435 2408 435 1977 
C 435 1740 627 1728 666 1728 
C 749 1728 896 1779 896 1958 
C 896 2118 774 2188 666 2188 
C 640 2188 608 2182 589 2176 
C 723 2594 1069 2713 1293 2713 
C 1613 2713 1965 2421 1965 1875 
L 1965 1632 
C 1587 1619 1133 1568 774 1373 
C 371 1147 256 822 256 576 
C 256 77 832 -64 1171 -64 
C 1523 -64 1850 135 1990 505 
C 2003 219 2182 -39 2464 -39 
C 2598 -39 2938 51 2938 563 
L 2938 926 
L 2822 926 
L 2822 557 
C 2822 161 2650 109 2566 109 
C 2304 109 2304 446 2304 732 
L 2304 1656 
z
M 1965 887 
C 1965 323 1568 38 1216 38 
C 896 38 646 278 646 576 
C 646 771 730 1114 1101 1322 
C 1408 1497 1760 1523 1965 1536 
L 1965 887 
z
" transform="scale(0.015625)"/>
       <path id="CMR17-64" d="M 1869 4345 
L 1869 4179 
C 2246 4179 2304 4141 2304 3843 
L 2304 2371 
C 2278 2403 2016 2816 1498 2816 
C 845 2816 211 2228 211 1376 
C 211 529 806 -64 1434 -64 
C 1978 -64 2259 361 2291 406 
L 2291 -64 
L 3066 -13 
L 3066 154 
C 2688 154 2630 193 2630 503 
L 2630 4416 
L 1869 4345 
z
M 2291 762 
C 2291 568 2176 393 2029 264 
C 1811 70 1594 38 1472 38 
C 1286 38 621 135 621 1369 
C 621 2636 1363 2713 1530 2713 
C 1824 2713 2061 2545 2208 2313 
C 2291 2177 2291 2157 2291 2041 
L 2291 762 
z
" transform="scale(0.015625)"/>
       <path id="CMR17-73" d="M 1978 2688 
C 1978 2803 1971 2809 1933 2809 
C 1907 2809 1901 2803 1824 2707 
C 1805 2681 1747 2617 1728 2592 
C 1523 2809 1235 2816 1126 2816 
C 416 2816 160 2444 160 2073 
C 160 1497 813 1363 998 1324 
C 1402 1241 1542 1216 1677 1100 
C 1760 1024 1901 883 1901 652 
C 1901 384 1747 38 1158 38 
C 602 38 403 460 288 1024 
C 269 1113 269 1120 218 1120 
C 166 1120 160 1113 160 985 
L 160 64 
C 160 -52 166 -58 205 -58 
C 237 -58 243 -52 275 0 
C 314 57 410 211 448 275 
C 576 102 800 -64 1158 -64 
C 1792 -64 2131 281 2131 780 
C 2131 1107 1958 1280 1875 1356 
C 1683 1555 1459 1600 1190 1651 
C 838 1728 390 1817 390 2208 
C 390 2374 480 2726 1126 2726 
C 1811 2726 1850 2086 1862 1881 
C 1869 1849 1901 1843 1920 1843 
C 1978 1843 1978 1862 1978 1971 
L 1978 2688 
z
" transform="scale(0.015625)"/>
      </defs>
      <use xlink:href="#CMR17-4e" transform="scale(0.996264)"/>
      <use xlink:href="#CMR17-75" transform="translate(69.07243 0)scale(0.996264)"/>
      <use xlink:href="#CMR17-6d" transform="translate(119.9678 0)scale(0.996264)"/>
      <use xlink:href="#CMR17-62" transform="translate(194.284936 0)scale(0.996264)"/>
      <use xlink:href="#CMR17-65" transform="translate(247.782744 0)scale(0.996264)"/>
      <use xlink:href="#CMR17-72" transform="translate(288.268404 0)scale(0.996264)"/>
      <use xlink:href="#CMR17-6f" transform="translate(345.688379 0)scale(0.996264)"/>
      <use xlink:href="#CMR17-66" transform="translate(391.378856 0)scale(0.996264)"/>
      <use xlink:href="#CMR17-74" transform="translate(446.897088 0)scale(0.996264)"/>
      <use xlink:href="#CMR17-68" transform="translate(482.177856 0)scale(0.996264)"/>
      <use xlink:href="#CMR17-72" transform="translate(533.073226 0)scale(0.996264)"/>
      <use xlink:href="#CMR17-65" transform="translate(568.353994 0)scale(0.996264)"/>
      <use xlink:href="#CMR17-61" transform="translate(608.839654 0)scale(0.996264)"/>
      <use xlink:href="#CMR17-64" transform="translate(654.530131 0)scale(0.996264)"/>
      <use xlink:href="#CMR17-73" transform="translate(705.425501 0)scale(0.996264)"/>
     </g>
    </g>
   </g>
   <g id="matplotlib.axis_2">
    <g id="ytick_1">
     <g id="line2d_10">
      <defs>
       <path id="m53786a8c83" d="M 0 0 
L -3.5 0 
" style="stroke: #000000; stroke-width: 0.8"/>
      </defs>
      <g>
       <use xlink:href="#m53786a8c83" x="32.037012" y="98.478526" style="stroke: #000000; stroke-width: 0.8"/>
      </g>
     </g>
     <g id="text_11">
      <!-- $\mathdefault{0}$ -->
      <g transform="translate(20.055677 101.937776)scale(0.1 -0.1)">
       <defs>
        <path id="CMR17-30" d="M 2688 2038 
C 2688 2430 2682 3099 2413 3613 
C 2176 4063 1798 4224 1466 4224 
C 1158 4224 768 4082 525 3620 
C 269 3137 243 2539 243 2038 
C 243 1671 250 1112 448 623 
C 723 -39 1216 -128 1466 -128 
C 1760 -128 2208 -7 2470 604 
C 2662 1048 2688 1568 2688 2038 
z
M 1466 -26 
C 1056 -26 813 328 723 816 
C 653 1196 653 1749 653 2109 
C 653 2604 653 3015 736 3407 
C 858 3954 1216 4121 1466 4121 
C 1728 4121 2067 3947 2189 3420 
C 2272 3054 2278 2623 2278 2109 
C 2278 1691 2278 1176 2202 797 
C 2067 96 1690 -26 1466 -26 
z
" transform="scale(0.015625)"/>
       </defs>
       <use xlink:href="#CMR17-30" transform="scale(0.996264)"/>
      </g>
     </g>
    </g>
    <g id="ytick_2">
     <g id="line2d_11">
      <g>
       <use xlink:href="#m53786a8c83" x="32.037012" y="62.339292" style="stroke: #000000; stroke-width: 0.8"/>
      </g>
     </g>
     <g id="text_12">
      <!-- $\mathdefault{2}$ -->
      <g transform="translate(20.055677 65.798541)scale(0.1 -0.1)">
       <use xlink:href="#CMR17-32" transform="scale(0.996264)"/>
      </g>
     </g>
    </g>
    <g id="ytick_3">
     <g id="line2d_12">
      <g>
       <use xlink:href="#m53786a8c83" x="32.037012" y="26.200057" style="stroke: #000000; stroke-width: 0.8"/>
      </g>
     </g>
     <g id="text_13">
      <!-- $\mathdefault{4}$ -->
      <g transform="translate(20.055677 29.659306)scale(0.1 -0.1)">
       <use xlink:href="#CMR17-34" transform="scale(0.996264)"/>
      </g>
     </g>
    </g>
    <g id="text_14">
     <!-- $\mathrm{Speed{\mbox{-}}up}$ -->
     <g transform="translate(14.118498 74.828692)rotate(-90)scale(0.1 -0.1)">
      <defs>
       <path id="CMR17-53" d="M 2803 4351 
C 2803 4467 2797 4473 2758 4473 
C 2720 4473 2707 4447 2682 4390 
L 2490 3965 
C 2246 4320 1875 4480 1472 4480 
C 819 4480 294 3958 294 3301 
C 294 3101 339 2817 557 2546 
C 794 2250 1018 2198 1530 2063 
C 1722 2011 2042 1927 2106 1901 
C 2470 1747 2662 1360 2662 999 
C 2662 534 2336 38 1779 38 
C 1094 38 454 425 410 1328 
C 403 1431 397 1437 352 1437 
C 301 1437 294 1431 294 1302 
L 294 0 
C 294 -116 301 -122 339 -122 
C 384 -122 397 -90 486 109 
C 493 128 493 141 614 386 
C 934 -39 1472 -128 1779 -128 
C 2477 -128 2970 457 2970 1141 
C 2970 1476 2848 1734 2778 1850 
C 2509 2263 2221 2340 1914 2417 
C 1869 2437 1856 2437 1498 2527 
C 1152 2617 1005 2662 845 2836 
C 666 3036 602 3243 602 3449 
C 602 3868 934 4326 1478 4326 
C 2157 4326 2579 3842 2675 3036 
C 2694 2920 2701 2914 2746 2914 
C 2803 2914 2803 2933 2803 3043 
L 2803 4351 
z
" transform="scale(0.015625)"/>
       <path id="CMR17-70" d="M 1408 -1114 
C 998 -1114 973 -1088 973 -834 
L 973 380 
C 1158 109 1427 -64 1766 -64 
C 2406 -64 3053 503 3053 1382 
C 3053 2196 2496 2816 1837 2816 
C 1453 2816 1139 2603 960 2345 
L 960 2816 
L 198 2745 
L 198 2577 
C 576 2577 634 2539 634 2228 
L 634 -834 
C 634 -1081 608 -1114 198 -1114 
L 198 -1280 
C 352 -1268 634 -1268 800 -1268 
C 966 -1268 1254 -1268 1408 -1280 
L 1408 -1114 
z
M 973 2015 
C 973 2106 973 2241 1222 2481 
C 1254 2506 1472 2700 1792 2700 
C 2259 2700 2643 2112 2643 1376 
C 2643 639 2234 38 1728 38 
C 1498 38 1248 148 1056 451 
C 973 594 973 632 973 736 
L 973 2015 
z
" transform="scale(0.015625)"/>
       <path id="CMSS17-2d" d="M 1664 1216 
L 1664 1587 
L 64 1587 
L 64 1216 
L 1664 1216 
z
" transform="scale(0.015625)"/>
      </defs>
      <use xlink:href="#CMR17-53" transform="scale(0.996264)"/>
      <use xlink:href="#CMR17-70" transform="translate(50.89537 0)scale(0.996264)"/>
      <use xlink:href="#CMR17-65" transform="translate(104.393178 0)scale(0.996264)"/>
      <use xlink:href="#CMR17-65" transform="translate(144.878839 0)scale(0.996264)"/>
      <use xlink:href="#CMR17-64" transform="translate(185.364499 0)scale(0.996264)"/>
      <use xlink:href="#CMSS17-2d" transform="translate(236.259869 0)scale(0.996264)"/>
      <use xlink:href="#CMR17-75" transform="translate(267.488982 0)scale(0.996264)"/>
      <use xlink:href="#CMR17-70" transform="translate(318.384352 0)scale(0.996264)"/>
     </g>
    </g>
   </g>
   <g id="LineCollection_1">
    <path d="M 42.135058 80.408909 
L 47.112968 80.408909 
" clip-path="url(#p3a1d4ac1a9)" style="fill: none; stroke: #000000; stroke-width: 1.5"/>
    <path d="M 70.580258 59.645685 
L 75.558167 59.645685 
" clip-path="url(#p3a1d4ac1a9)" style="fill: none; stroke: #000000; stroke-width: 1.5"/>
    <path d="M 99.025457 43.593909 
L 104.003367 43.593909 
" clip-path="url(#p3a1d4ac1a9)" style="fill: none; stroke: #000000; stroke-width: 1.5"/>
    <path d="M 115.664832 29.131595 
L 120.642742 29.131595 
" clip-path="url(#p3a1d4ac1a9)" style="fill: none; stroke: #000000; stroke-width: 1.5"/>
    <path d="M 127.470657 51.161536 
L 132.448567 51.161536 
" clip-path="url(#p3a1d4ac1a9)" style="fill: none; stroke: #000000; stroke-width: 1.5"/>
    <path d="M 144.110032 46.8751 
L 149.087942 46.8751 
" clip-path="url(#p3a1d4ac1a9)" style="fill: none; stroke: #000000; stroke-width: 1.5"/>
    <path d="M 155.915856 41.910376 
L 160.893766 41.910376 
" clip-path="url(#p3a1d4ac1a9)" style="fill: none; stroke: #000000; stroke-width: 1.5"/>
    <path d="M 172.555232 46.797118 
L 177.533142 46.797118 
" clip-path="url(#p3a1d4ac1a9)" style="fill: none; stroke: #000000; stroke-width: 1.5"/>
    <path d="M 184.361056 11.524091 
L 189.338966 11.524091 
" clip-path="url(#p3a1d4ac1a9)" style="fill: none; stroke: #000000; stroke-width: 1.5"/>
   </g>
   <g id="LineCollection_2">
    <path d="M 42.135058 80.408909 
L 47.112968 80.408909 
" clip-path="url(#p3a1d4ac1a9)" style="fill: none; stroke: #000000; stroke-width: 1.5"/>
    <path d="M 70.580258 94.661322 
L 75.558167 94.661322 
" clip-path="url(#p3a1d4ac1a9)" style="fill: none; stroke: #000000; stroke-width: 1.5"/>
    <path d="M 99.025457 96.560923 
L 104.003367 96.560923 
" clip-path="url(#p3a1d4ac1a9)" style="fill: none; stroke: #000000; stroke-width: 1.5"/>
    <path d="M 115.664832 97.33902 
L 120.642742 97.33902 
" clip-path="url(#p3a1d4ac1a9)" style="fill: none; stroke: #000000; stroke-width: 1.5"/>
    <path d="M 127.470657 97.004961 
L 132.448567 97.004961 
" clip-path="url(#p3a1d4ac1a9)" style="fill: none; stroke: #000000; stroke-width: 1.5"/>
    <path d="M 144.110032 97.515763 
L 149.087942 97.515763 
" clip-path="url(#p3a1d4ac1a9)" style="fill: none; stroke: #000000; stroke-width: 1.5"/>
    <path d="M 155.915856 97.856142 
L 160.893766 97.856142 
" clip-path="url(#p3a1d4ac1a9)" style="fill: none; stroke: #000000; stroke-width: 1.5"/>
    <path d="M 172.555232 97.888211 
L 177.533142 97.888211 
" clip-path="url(#p3a1d4ac1a9)" style="fill: none; stroke: #000000; stroke-width: 1.5"/>
    <path d="M 184.361056 98.005909 
L 189.338966 98.005909 
" clip-path="url(#p3a1d4ac1a9)" style="fill: none; stroke: #000000; stroke-width: 1.5"/>
   </g>
   <g id="LineCollection_3">
    <path d="M 44.624013 80.408909 
L 44.624013 80.408909 
" clip-path="url(#p3a1d4ac1a9)" style="fill: none; stroke: #000000; stroke-width: 1.5"/>
    <path d="M 73.069212 94.661322 
L 73.069212 59.645685 
" clip-path="url(#p3a1d4ac1a9)" style="fill: none; stroke: #000000; stroke-width: 1.5"/>
    <path d="M 101.514412 96.560923 
L 101.514412 43.593909 
" clip-path="url(#p3a1d4ac1a9)" style="fill: none; stroke: #000000; stroke-width: 1.5"/>
    <path d="M 118.153787 97.33902 
L 118.153787 29.131595 
" clip-path="url(#p3a1d4ac1a9)" style="fill: none; stroke: #000000; stroke-width: 1.5"/>
    <path d="M 129.959612 97.004961 
L 129.959612 51.161536 
" clip-path="url(#p3a1d4ac1a9)" style="fill: none; stroke: #000000; stroke-width: 1.5"/>
    <path d="M 146.598987 97.515763 
L 146.598987 46.8751 
" clip-path="url(#p3a1d4ac1a9)" style="fill: none; stroke: #000000; stroke-width: 1.5"/>
    <path d="M 158.404811 97.856142 
L 158.404811 41.910376 
" clip-path="url(#p3a1d4ac1a9)" style="fill: none; stroke: #000000; stroke-width: 1.5"/>
    <path d="M 175.044187 97.888211 
L 175.044187 46.797118 
" clip-path="url(#p3a1d4ac1a9)" style="fill: none; stroke: #000000; stroke-width: 1.5"/>
    <path d="M 186.850011 98.005909 
L 186.850011 11.524091 
" clip-path="url(#p3a1d4ac1a9)" style="fill: none; stroke: #000000; stroke-width: 1.5"/>
   </g>
   <g id="LineCollection_4">
    <path d="M 42.135058 80.408909 
L 47.112968 80.408909 
" clip-path="url(#p3a1d4ac1a9)" style="fill: none; stroke: #000000; stroke-width: 1.5"/>
    <path d="M 70.580258 71.377589 
L 75.558167 71.377589 
" clip-path="url(#p3a1d4ac1a9)" style="fill: none; stroke: #000000; stroke-width: 1.5"/>
    <path d="M 99.025457 61.819715 
L 104.003367 61.819715 
" clip-path="url(#p3a1d4ac1a9)" style="fill: none; stroke: #000000; stroke-width: 1.5"/>
    <path d="M 115.664832 79.155139 
L 120.642742 79.155139 
" clip-path="url(#p3a1d4ac1a9)" style="fill: none; stroke: #000000; stroke-width: 1.5"/>
    <path d="M 127.470657 74.642514 
L 132.448567 74.642514 
" clip-path="url(#p3a1d4ac1a9)" style="fill: none; stroke: #000000; stroke-width: 1.5"/>
    <path d="M 144.110032 94.106841 
L 149.087942 94.106841 
" clip-path="url(#p3a1d4ac1a9)" style="fill: none; stroke: #000000; stroke-width: 1.5"/>
    <path d="M 155.915856 88.688401 
L 160.893766 88.688401 
" clip-path="url(#p3a1d4ac1a9)" style="fill: none; stroke: #000000; stroke-width: 1.5"/>
    <path d="M 172.555232 92.604892 
L 177.533142 92.604892 
" clip-path="url(#p3a1d4ac1a9)" style="fill: none; stroke: #000000; stroke-width: 1.5"/>
    <path d="M 184.361056 95.992228 
L 189.338966 95.992228 
" clip-path="url(#p3a1d4ac1a9)" style="fill: none; stroke: #000000; stroke-width: 1.5"/>
   </g>
   <g id="line2d_13">
    <path d="M 32.037012 80.408909 
L 199.437012 80.408909 
" clip-path="url(#p3a1d4ac1a9)" style="fill: none; stroke-dasharray: 3.7,1.6; stroke-dashoffset: 0; stroke: #000000"/>
   </g>
   <g id="patch_3">
    <path d="M 32.037012 102.33 
L 32.037012 7.2 
" style="fill: none; stroke: #000000; stroke-width: 0.8; stroke-linejoin: miter; stroke-linecap: square"/>
   </g>
   <g id="patch_4">
    <path d="M 199.437012 102.33 
L 199.437012 7.2 
" style="fill: none; stroke: #000000; stroke-width: 0.8; stroke-linejoin: miter; stroke-linecap: square"/>
   </g>
   <g id="patch_5">
    <path d="M 32.037012 102.33 
L 199.437012 102.33 
" style="fill: none; stroke: #000000; stroke-width: 0.8; stroke-linejoin: miter; stroke-linecap: square"/>
   </g>
   <g id="patch_6">
    <path d="M 32.037012 7.2 
L 199.437012 7.2 
" style="fill: none; stroke: #000000; stroke-width: 0.8; stroke-linejoin: miter; stroke-linecap: square"/>
   </g>
  </g>
 </g>
 <defs>
  <clipPath id="p3a1d4ac1a9">
   <rect x="32.037012" y="7.2" width="167.4" height="95.13"/>
  </clipPath>
 </defs>
</svg>
