<?xml version="1.0" encoding="utf-8" standalone="no"?>
<!DOCTYPE svg PUBLIC "-//W3C//DTD SVG 1.1//EN"
  "http://www.w3.org/Graphics/SVG/1.1/DTD/svg11.dtd">
<svg xmlns:xlink="http://www.w3.org/1999/xlink" width="211.618347pt" height="138.241353pt" viewBox="0 0 211.618347 138.241353" xmlns="http://www.w3.org/2000/svg" version="1.1">
 <metadata>
  <rdf:RDF xmlns:dc="http://purl.org/dc/elements/1.1/" xmlns:cc="http://creativecommons.org/ns#" xmlns:rdf="http://www.w3.org/1999/02/22-rdf-syntax-ns#">
   <cc:Work>
    <dc:type rdf:resource="http://purl.org/dc/dcmitype/StillImage"/>
    <dc:date>2022-03-29T16:18:12.922914</dc:date>
    <dc:format>image/svg+xml</dc:format>
    <dc:creator>
     <cc:Agent>
      <dc:title>Matplotlib v3.5.1, https://matplotlib.org/</dc:title>
     </cc:Agent>
    </dc:creator>
   </cc:Work>
  </rdf:RDF>
 </metadata>
 <defs>
  <style type="text/css">*{stroke-linejoin: round; stroke-linecap: butt}</style>
 </defs>
 <g id="figure_1">
  <g id="patch_1">
   <path d="M 0 138.241353 
L 211.618347 138.241353 
L 211.618347 -0 
L 0 -0 
L 0 138.241353 
z
" style="fill: none"/>
  </g>
  <g id="axes_1">
   <g id="patch_2">
    <path d="M 37.018347 102.33 
L 204.418347 102.33 
L 204.418347 7.2 
L 37.018347 7.2 
z
" style="fill: #ffffff"/>
   </g>
   <g id="PolyCollection_1">
    <path d="M 54.583258 96.696806 
L 44.627438 96.696806 
L 44.627438 96.696806 
L 44.627438 96.696806 
L 44.627438 96.696806 
L 44.627438 96.696806 
L 44.627438 96.696806 
L 44.627438 96.696806 
L 44.627438 96.696806 
L 44.627438 96.696806 
L 44.627438 96.696806 
L 44.627438 96.696806 
L 44.627438 96.696806 
L 44.627438 96.696806 
L 44.627438 96.696806 
L 44.627438 96.696806 
L 44.627438 96.696806 
L 44.627438 96.696806 
L 44.627438 96.696806 
L 44.627438 96.696806 
L 44.627438 96.696806 
L 44.627438 96.696806 
L 44.627438 96.696806 
L 44.627438 96.696806 
L 44.627438 96.696806 
L 44.627438 96.696806 
L 44.627438 96.696806 
L 44.627438 96.696806 
L 44.627438 96.696806 
L 44.627438 96.696806 
L 44.627438 96.696806 
L 44.627438 96.696806 
L 44.627438 96.696806 
L 44.627438 96.696806 
L 44.627438 96.696806 
L 44.627438 96.696806 
L 44.627438 96.696806 
L 44.627438 96.696806 
L 44.627438 96.696806 
L 44.627438 96.696806 
L 44.627438 96.696806 
L 44.627438 96.696806 
L 44.627438 96.696806 
L 44.627438 96.696806 
L 44.627438 96.696806 
L 44.627438 96.696806 
L 44.627438 96.696806 
L 44.627438 96.696806 
L 44.627438 96.696806 
L 44.627438 96.696806 
L 44.627438 96.696806 
L 44.627438 96.696806 
L 44.627438 96.696806 
L 44.627438 96.696806 
L 44.627438 96.696806 
L 44.627438 96.696806 
L 44.627438 96.696806 
L 44.627438 96.696806 
L 44.627438 96.696806 
L 44.627438 96.696806 
L 44.627438 96.696806 
L 44.627438 96.696806 
L 44.627438 96.696806 
L 44.627438 96.696806 
L 44.627438 96.696806 
L 44.627438 96.696806 
L 44.627438 96.696806 
L 44.627438 96.696806 
L 44.627438 96.696806 
L 44.627438 96.696806 
L 44.627438 96.696806 
L 44.627438 96.696806 
L 44.627438 96.696806 
L 44.627438 96.696806 
L 44.627438 96.696806 
L 44.627438 96.696806 
L 44.627438 96.696806 
L 44.627438 96.696806 
L 44.627438 96.696806 
L 44.627438 96.696806 
L 44.627438 96.696806 
L 44.627438 96.696806 
L 44.627438 96.696806 
L 44.627438 96.696806 
L 44.627438 96.696806 
L 44.627438 96.696806 
L 44.627438 96.696806 
L 44.627438 96.696806 
L 44.627438 96.696806 
L 44.627438 96.696806 
L 44.627438 96.696806 
L 44.627438 96.696806 
L 44.627438 96.696806 
L 44.627438 96.696806 
L 44.627438 96.696806 
L 44.627438 96.696806 
L 44.627438 96.696806 
L 44.627438 96.696806 
L 44.627438 96.696806 
L 44.627438 96.696806 
L 44.627438 96.696806 
L 54.583258 96.696806 
L 54.583258 96.696806 
L 54.583258 96.696806 
L 54.583258 96.696806 
L 54.583258 96.696806 
L 54.583258 96.696806 
L 54.583258 96.696806 
L 54.583258 96.696806 
L 54.583258 96.696806 
L 54.583258 96.696806 
L 54.583258 96.696806 
L 54.583258 96.696806 
L 54.583258 96.696806 
L 54.583258 96.696806 
L 54.583258 96.696806 
L 54.583258 96.696806 
L 54.583258 96.696806 
L 54.583258 96.696806 
L 54.583258 96.696806 
L 54.583258 96.696806 
L 54.583258 96.696806 
L 54.583258 96.696806 
L 54.583258 96.696806 
L 54.583258 96.696806 
L 54.583258 96.696806 
L 54.583258 96.696806 
L 54.583258 96.696806 
L 54.583258 96.696806 
L 54.583258 96.696806 
L 54.583258 96.696806 
L 54.583258 96.696806 
L 54.583258 96.696806 
L 54.583258 96.696806 
L 54.583258 96.696806 
L 54.583258 96.696806 
L 54.583258 96.696806 
L 54.583258 96.696806 
L 54.583258 96.696806 
L 54.583258 96.696806 
L 54.583258 96.696806 
L 54.583258 96.696806 
L 54.583258 96.696806 
L 54.583258 96.696806 
L 54.583258 96.696806 
L 54.583258 96.696806 
L 54.583258 96.696806 
L 54.583258 96.696806 
L 54.583258 96.696806 
L 54.583258 96.696806 
L 54.583258 96.696806 
L 54.583258 96.696806 
L 54.583258 96.696806 
L 54.583258 96.696806 
L 54.583258 96.696806 
L 54.583258 96.696806 
L 54.583258 96.696806 
L 54.583258 96.696806 
L 54.583258 96.696806 
L 54.583258 96.696806 
L 54.583258 96.696806 
L 54.583258 96.696806 
L 54.583258 96.696806 
L 54.583258 96.696806 
L 54.583258 96.696806 
L 54.583258 96.696806 
L 54.583258 96.696806 
L 54.583258 96.696806 
L 54.583258 96.696806 
L 54.583258 96.696806 
L 54.583258 96.696806 
L 54.583258 96.696806 
L 54.583258 96.696806 
L 54.583258 96.696806 
L 54.583258 96.696806 
L 54.583258 96.696806 
L 54.583258 96.696806 
L 54.583258 96.696806 
L 54.583258 96.696806 
L 54.583258 96.696806 
L 54.583258 96.696806 
L 54.583258 96.696806 
L 54.583258 96.696806 
L 54.583258 96.696806 
L 54.583258 96.696806 
L 54.583258 96.696806 
L 54.583258 96.696806 
L 54.583258 96.696806 
L 54.583258 96.696806 
L 54.583258 96.696806 
L 54.583258 96.696806 
L 54.583258 96.696806 
L 54.583258 96.696806 
L 54.583258 96.696806 
L 54.583258 96.696806 
L 54.583258 96.696806 
L 54.583258 96.696806 
L 54.583258 96.696806 
L 54.583258 96.696806 
L 54.583258 96.696806 
L 54.583258 96.696806 
L 54.583258 96.696806 
z
" clip-path="url(#p1e764a4e86)" style="fill: #ff0000; fill-opacity: 0.3"/>
   </g>
   <g id="PolyCollection_2">
    <path d="M 79.193479 96.262397 
L 76.907617 96.262397 
L 76.820268 96.158179 
L 76.743521 96.053961 
L 76.679832 95.949742 
L 76.631186 95.845524 
L 76.59896 95.741305 
L 76.583846 95.637087 
L 76.585796 95.532869 
L 76.604039 95.42865 
L 76.637125 95.324432 
L 76.683026 95.220214 
L 76.739256 95.115995 
L 76.803018 95.011777 
L 76.871352 94.907558 
L 76.941286 94.80334 
L 77.009963 94.699122 
L 77.074756 94.594903 
L 77.133359 94.490685 
L 77.183846 94.386466 
L 77.224715 94.282248 
L 77.254906 94.17803 
L 77.273796 94.073811 
L 77.281185 93.969593 
L 77.277264 93.865375 
L 77.262565 93.761156 
L 77.237912 93.656938 
L 77.204351 93.552719 
L 77.163081 93.448501 
L 77.115379 93.344283 
L 77.062521 93.240064 
L 77.005708 93.135846 
L 76.946 93.031627 
L 76.884259 92.927409 
L 76.821094 92.823191 
L 76.756836 92.718972 
L 76.691514 92.614754 
L 76.624854 92.510536 
L 76.556285 92.406317 
L 76.484972 92.302099 
L 76.409851 92.19788 
L 76.329689 92.093662 
L 76.243157 91.989444 
L 76.148913 91.885225 
L 76.045704 91.781007 
L 75.932466 91.676788 
L 75.808436 91.57257 
L 75.673244 91.468352 
L 75.526997 91.364133 
L 75.370326 91.259915 
L 75.204403 91.155697 
L 75.030911 91.051478 
L 74.851974 90.94726 
L 74.670046 90.843041 
L 74.487776 90.738823 
L 74.307856 90.634605 
L 74.132885 90.530386 
L 73.96525 90.426168 
L 73.807052 90.321949 
L 73.660099 90.217731 
L 73.525937 90.113513 
L 73.405954 90.009294 
L 73.301505 89.905076 
L 73.214063 89.800858 
L 73.145346 89.696639 
L 73.097405 89.592421 
L 73.072638 89.488202 
L 73.073716 89.383984 
L 73.103422 89.279766 
L 73.164403 89.175547 
L 73.258864 89.071329 
L 73.388243 88.96711 
L 73.552905 88.862892 
L 73.7519 88.758674 
L 73.982818 88.654455 
L 74.241779 88.550237 
L 74.523552 88.446018 
L 74.821805 88.3418 
L 75.129463 88.237582 
L 75.439127 88.133363 
L 75.743523 88.029145 
L 76.035923 87.924927 
L 76.31051 87.820708 
L 76.562645 87.71649 
L 76.789027 87.612271 
L 76.987745 87.508053 
L 77.158216 87.403835 
L 77.301051 87.299616 
L 77.417846 87.195398 
L 77.510955 87.091179 
L 77.583245 86.986961 
L 77.637861 86.882743 
L 77.678027 86.778524 
L 77.706873 86.674306 
L 77.72731 86.570088 
L 77.741934 86.465869 
L 77.752971 86.361651 
L 77.76225 86.257432 
L 77.771199 86.153214 
L 77.780855 86.048996 
L 77.791898 85.944777 
L 78.309197 85.944777 
L 78.309197 85.944777 
L 78.32024 86.048996 
L 78.329897 86.153214 
L 78.338845 86.257432 
L 78.348125 86.361651 
L 78.359162 86.465869 
L 78.373785 86.570088 
L 78.394222 86.674306 
L 78.423069 86.778524 
L 78.463234 86.882743 
L 78.517851 86.986961 
L 78.59014 87.091179 
L 78.68325 87.195398 
L 78.800045 87.299616 
L 78.942879 87.403835 
L 79.11335 87.508053 
L 79.312068 87.612271 
L 79.538451 87.71649 
L 79.790585 87.820708 
L 80.065172 87.924927 
L 80.357573 88.029145 
L 80.661969 88.133363 
L 80.971633 88.237582 
L 81.279291 88.3418 
L 81.577544 88.446018 
L 81.859316 88.550237 
L 82.118277 88.654455 
L 82.349195 88.758674 
L 82.54819 88.862892 
L 82.712853 88.96711 
L 82.842232 89.071329 
L 82.936693 89.175547 
L 82.997673 89.279766 
L 83.02738 89.383984 
L 83.028458 89.488202 
L 83.00369 89.592421 
L 82.955749 89.696639 
L 82.887033 89.800858 
L 82.799591 89.905076 
L 82.695142 90.009294 
L 82.575158 90.113513 
L 82.440997 90.217731 
L 82.294043 90.321949 
L 82.135846 90.426168 
L 81.96821 90.530386 
L 81.793239 90.634605 
L 81.61332 90.738823 
L 81.43105 90.843041 
L 81.249122 90.94726 
L 81.070185 91.051478 
L 80.896693 91.155697 
L 80.73077 91.259915 
L 80.574099 91.364133 
L 80.427851 91.468352 
L 80.29266 91.57257 
L 80.168629 91.676788 
L 80.055392 91.781007 
L 79.952182 91.885225 
L 79.857938 91.989444 
L 79.771406 92.093662 
L 79.691245 92.19788 
L 79.616123 92.302099 
L 79.54481 92.406317 
L 79.476242 92.510536 
L 79.409581 92.614754 
L 79.34426 92.718972 
L 79.280002 92.823191 
L 79.216837 92.927409 
L 79.155095 93.031627 
L 79.095388 93.135846 
L 79.038575 93.240064 
L 78.985716 93.344283 
L 78.938014 93.448501 
L 78.896745 93.552719 
L 78.863184 93.656938 
L 78.838531 93.761156 
L 78.823832 93.865375 
L 78.81991 93.969593 
L 78.8273 94.073811 
L 78.846189 94.17803 
L 78.87638 94.282248 
L 78.91725 94.386466 
L 78.967737 94.490685 
L 79.026339 94.594903 
L 79.091133 94.699122 
L 79.159809 94.80334 
L 79.229743 94.907558 
L 79.298078 95.011777 
L 79.36184 95.115995 
L 79.41807 95.220214 
L 79.46397 95.324432 
L 79.497057 95.42865 
L 79.515299 95.532869 
L 79.51725 95.637087 
L 79.502135 95.741305 
L 79.46991 95.845524 
L 79.421263 95.949742 
L 79.357575 96.053961 
L 79.280828 96.158179 
L 79.193479 96.262397 
z
" clip-path="url(#p1e764a4e86)" style="fill: #ff0000; fill-opacity: 0.3"/>
   </g>
   <g id="PolyCollection_3">
    <path d="M 106.919478 93.284446 
L 106.072017 93.284446 
L 105.993726 92.915726 
L 105.898687 92.547006 
L 105.779418 92.178286 
L 105.627861 91.809566 
L 105.437066 91.440846 
L 105.203195 91.072126 
L 104.927399 90.703406 
L 104.617012 90.334686 
L 104.285572 89.965966 
L 103.951385 89.597246 
L 103.634752 89.228526 
L 103.354397 88.859806 
L 103.123952 88.491086 
L 102.949454 88.122366 
L 102.828553 87.753646 
L 102.751669 87.384926 
L 102.704753 87.016206 
L 102.672893 86.647486 
L 102.643794 86.278766 
L 102.61033 85.910046 
L 102.571658 85.541326 
L 102.532815 85.172606 
L 102.503047 84.803886 
L 102.493344 84.435166 
L 102.513739 84.066446 
L 102.570914 83.697726 
L 102.666529 83.329006 
L 102.79652 82.960286 
L 102.951372 82.591566 
L 103.11714 82.222846 
L 103.276876 81.854126 
L 103.412149 81.485406 
L 103.504509 81.116686 
L 103.536968 80.747966 
L 103.495739 80.379246 
L 103.372441 80.010526 
L 103.166687 79.641806 
L 102.88859 79.273086 
L 102.560313 78.904366 
L 102.2157 78.535646 
L 101.897307 78.166926 
L 101.650837 77.798206 
L 101.517837 77.429486 
L 101.528281 77.060766 
L 101.694878 76.692046 
L 102.010658 76.323326 
L 102.450459 75.954606 
L 102.975888 75.585886 
L 103.542382 75.217166 
L 104.106586 74.848446 
L 104.632382 74.479726 
L 105.094541 74.111006 
L 105.479727 73.742286 
L 105.785283 73.373566 
L 106.01662 73.004846 
L 106.184123 72.636126 
L 106.300291 72.267406 
L 106.377541 71.898686 
L 106.426836 71.529966 
L 106.457034 71.161246 
L 106.474798 70.792526 
L 106.484832 70.423806 
L 106.490275 70.055086 
L 106.493108 69.686366 
L 106.494524 69.317646 
L 106.495202 68.948926 
L 106.495514 68.580206 
L 106.495652 68.211486 
L 106.49571 67.842766 
L 106.495733 67.474046 
L 106.495742 67.105326 
L 106.495746 66.736606 
L 106.495747 66.367886 
L 106.495747 65.999166 
L 106.495747 65.630446 
L 106.495747 65.261726 
L 106.495745 64.893006 
L 106.495741 64.524286 
L 106.495732 64.155566 
L 106.495711 63.786846 
L 106.495664 63.418126 
L 106.495566 63.049406 
L 106.495368 62.680686 
L 106.494989 62.311966 
L 106.494299 61.943246 
L 106.493102 61.574526 
L 106.491125 61.205806 
L 106.488024 60.837086 
L 106.483407 60.468366 
L 106.476889 60.099646 
L 106.468188 59.730926 
L 106.45723 59.362206 
L 106.444265 58.993486 
L 106.42994 58.624766 
L 106.415301 58.256046 
L 106.401698 57.887326 
L 106.390596 57.518606 
L 106.383314 57.149886 
L 106.380777 56.781166 
L 106.610718 56.781166 
L 106.610718 56.781166 
L 106.60818 57.149886 
L 106.600899 57.518606 
L 106.589796 57.887326 
L 106.576194 58.256046 
L 106.561555 58.624766 
L 106.54723 58.993486 
L 106.534265 59.362206 
L 106.523307 59.730926 
L 106.514606 60.099646 
L 106.508088 60.468366 
L 106.503471 60.837086 
L 106.50037 61.205806 
L 106.498393 61.574526 
L 106.497196 61.943246 
L 106.496506 62.311966 
L 106.496127 62.680686 
L 106.495929 63.049406 
L 106.495831 63.418126 
L 106.495784 63.786846 
L 106.495763 64.155566 
L 106.495753 64.524286 
L 106.49575 64.893006 
L 106.495748 65.261726 
L 106.495748 65.630446 
L 106.495748 65.999166 
L 106.495748 66.367886 
L 106.495749 66.736606 
L 106.495753 67.105326 
L 106.495762 67.474046 
L 106.495785 67.842766 
L 106.495843 68.211486 
L 106.495981 68.580206 
L 106.496292 68.948926 
L 106.496971 69.317646 
L 106.498387 69.686366 
L 106.50122 70.055086 
L 106.506662 70.423806 
L 106.516697 70.792526 
L 106.534461 71.161246 
L 106.564659 71.529966 
L 106.613953 71.898686 
L 106.691204 72.267406 
L 106.807372 72.636126 
L 106.974875 73.004846 
L 107.206212 73.373566 
L 107.511767 73.742286 
L 107.896954 74.111006 
L 108.359113 74.479726 
L 108.884909 74.848446 
L 109.449113 75.217166 
L 110.015607 75.585886 
L 110.541036 75.954606 
L 110.980837 76.323326 
L 111.296617 76.692046 
L 111.463214 77.060766 
L 111.473657 77.429486 
L 111.340658 77.798206 
L 111.094187 78.166926 
L 110.775795 78.535646 
L 110.431181 78.904366 
L 110.102904 79.273086 
L 109.824808 79.641806 
L 109.619054 80.010526 
L 109.495756 80.379246 
L 109.454527 80.747966 
L 109.486985 81.116686 
L 109.579346 81.485406 
L 109.714619 81.854126 
L 109.874354 82.222846 
L 110.040122 82.591566 
L 110.194975 82.960286 
L 110.324966 83.329006 
L 110.42058 83.697726 
L 110.477756 84.066446 
L 110.498151 84.435166 
L 110.488448 84.803886 
L 110.45868 85.172606 
L 110.419836 85.541326 
L 110.381165 85.910046 
L 110.347701 86.278766 
L 110.318602 86.647486 
L 110.286742 87.016206 
L 110.239826 87.384926 
L 110.162942 87.753646 
L 110.042041 88.122366 
L 109.867543 88.491086 
L 109.637098 88.859806 
L 109.356743 89.228526 
L 109.04011 89.597246 
L 108.705923 89.965966 
L 108.374483 90.334686 
L 108.064096 90.703406 
L 107.7883 91.072126 
L 107.554429 91.440846 
L 107.363634 91.809566 
L 107.212077 92.178286 
L 107.092808 92.547006 
L 106.997769 92.915726 
L 106.919478 93.284446 
z
" clip-path="url(#p1e764a4e86)" style="fill: #ff0000; fill-opacity: 0.3"/>
   </g>
   <g id="PolyCollection_4">
    <path d="M 124.501838 93.156856 
L 121.768407 93.156856 
L 121.739335 92.737354 
L 121.726966 92.317851 
L 121.725313 91.898348 
L 121.726599 91.478846 
L 121.722058 91.059343 
L 121.702872 90.639841 
L 121.66109 90.220338 
L 121.590425 89.800836 
L 121.486795 89.381333 
L 121.348582 88.961831 
L 121.176569 88.542328 
L 120.973648 88.122826 
L 120.744344 87.703323 
L 120.494292 87.28382 
L 120.229765 86.864318 
L 119.957317 86.444815 
L 119.683587 86.025313 
L 119.415245 85.60581 
L 119.159024 85.186308 
L 118.921758 84.766805 
L 118.710334 84.347303 
L 118.531506 83.9278 
L 118.391538 83.508298 
L 118.295704 83.088795 
L 118.247719 82.669292 
L 118.249192 82.24979 
L 118.299223 81.830287 
L 118.394222 81.410785 
L 118.528035 80.991282 
L 118.692355 80.57178 
L 118.877404 80.152277 
L 119.072795 79.732775 
L 119.268447 79.313272 
L 119.455441 78.89377 
L 119.626685 78.474267 
L 119.777296 78.054764 
L 119.904647 77.635262 
L 120.008072 77.215759 
L 120.088282 76.796257 
L 120.146591 76.376754 
L 120.184093 75.957252 
L 120.200951 75.537749 
L 120.195939 75.118247 
L 120.166374 74.698744 
L 120.108478 74.279242 
L 120.01817 73.859739 
L 119.892174 73.440236 
L 119.729283 73.020734 
L 119.531539 72.601231 
L 119.305101 72.181729 
L 119.06059 71.762226 
L 118.812769 71.342724 
L 118.579538 70.923221 
L 118.380326 70.503719 
L 118.234091 70.084216 
L 118.157213 69.664714 
L 118.16159 69.245211 
L 118.253251 68.825708 
L 118.431668 68.406206 
L 118.689877 67.986703 
L 119.015365 67.567201 
L 119.391554 67.147698 
L 119.799635 66.728196 
L 120.220484 66.308693 
L 120.636377 65.889191 
L 121.032328 65.469688 
L 121.396922 65.050186 
L 121.722624 64.630683 
L 122.005629 64.21118 
L 122.245364 63.791678 
L 122.443781 63.372175 
L 122.604576 62.952673 
L 122.732441 62.53317 
L 122.832441 62.113668 
L 122.909529 61.694165 
L 122.968232 61.274663 
L 123.012476 60.85516 
L 123.045526 60.435658 
L 123.070003 60.016155 
L 123.087955 59.596652 
L 123.100942 59.17715 
L 123.110127 58.757647 
L 123.116364 58.338145 
L 123.120267 57.918642 
L 123.122271 57.49914 
L 123.122679 57.079637 
L 123.121708 56.660135 
L 123.119519 56.240632 
L 123.116253 55.82113 
L 123.112058 55.401627 
L 123.107111 54.982124 
L 123.10163 54.562622 
L 123.095884 54.143119 
L 123.090188 53.723617 
L 123.084881 53.304114 
L 123.080306 52.884612 
L 123.076779 52.465109 
L 123.074552 52.045607 
L 123.073793 51.626104 
L 123.196452 51.626104 
L 123.196452 51.626104 
L 123.195693 52.045607 
L 123.193466 52.465109 
L 123.189939 52.884612 
L 123.185364 53.304114 
L 123.180057 53.723617 
L 123.174361 54.143119 
L 123.168615 54.562622 
L 123.163134 54.982124 
L 123.158187 55.401627 
L 123.153992 55.82113 
L 123.150726 56.240632 
L 123.148537 56.660135 
L 123.147566 57.079637 
L 123.147974 57.49914 
L 123.149978 57.918642 
L 123.153881 58.338145 
L 123.160118 58.757647 
L 123.169303 59.17715 
L 123.18229 59.596652 
L 123.200242 60.016155 
L 123.224719 60.435658 
L 123.257769 60.85516 
L 123.302013 61.274663 
L 123.360716 61.694165 
L 123.437804 62.113668 
L 123.537804 62.53317 
L 123.665669 62.952673 
L 123.826464 63.372175 
L 124.024881 63.791678 
L 124.264616 64.21118 
L 124.547621 64.630683 
L 124.873323 65.050186 
L 125.237917 65.469688 
L 125.633868 65.889191 
L 126.049761 66.308693 
L 126.47061 66.728196 
L 126.878691 67.147698 
L 127.25488 67.567201 
L 127.580368 67.986703 
L 127.838577 68.406206 
L 128.016994 68.825708 
L 128.108655 69.245211 
L 128.113032 69.664714 
L 128.036154 70.084216 
L 127.889919 70.503719 
L 127.690707 70.923221 
L 127.457476 71.342724 
L 127.209655 71.762226 
L 126.965144 72.181729 
L 126.738706 72.601231 
L 126.540962 73.020734 
L 126.378071 73.440236 
L 126.252075 73.859739 
L 126.161767 74.279242 
L 126.103871 74.698744 
L 126.074306 75.118247 
L 126.069294 75.537749 
L 126.086152 75.957252 
L 126.123654 76.376754 
L 126.181963 76.796257 
L 126.262173 77.215759 
L 126.365598 77.635262 
L 126.492949 78.054764 
L 126.64356 78.474267 
L 126.814804 78.89377 
L 127.001798 79.313272 
L 127.19745 79.732775 
L 127.392841 80.152277 
L 127.57789 80.57178 
L 127.74221 80.991282 
L 127.876023 81.410785 
L 127.971022 81.830287 
L 128.021053 82.24979 
L 128.022526 82.669292 
L 127.974541 83.088795 
L 127.878707 83.508298 
L 127.738739 83.9278 
L 127.559911 84.347303 
L 127.348487 84.766805 
L 127.111221 85.186308 
L 126.855 85.60581 
L 126.586658 86.025313 
L 126.312928 86.444815 
L 126.04048 86.864318 
L 125.775953 87.28382 
L 125.525901 87.703323 
L 125.296597 88.122826 
L 125.093676 88.542328 
L 124.921663 88.961831 
L 124.78345 89.381333 
L 124.67982 89.800836 
L 124.609155 90.220338 
L 124.567373 90.639841 
L 124.548187 91.059343 
L 124.543646 91.478846 
L 124.544932 91.898348 
L 124.543279 92.317851 
L 124.53091 92.737354 
L 124.501838 93.156856 
z
" clip-path="url(#p1e764a4e86)" style="fill: #ff0000; fill-opacity: 0.3"/>
   </g>
   <g id="PolyCollection_5">
    <path d="M 135.335519 91.821475 
L 134.546375 91.821475 
L 134.461308 91.371312 
L 134.356581 90.92115 
L 134.228699 90.470988 
L 134.074672 90.020825 
L 133.892495 89.570663 
L 133.681604 89.1205 
L 133.443238 88.670338 
L 133.180624 88.220176 
L 132.898924 87.770013 
L 132.604926 87.319851 
L 132.306491 86.869689 
L 132.011824 86.419526 
L 131.728674 85.969364 
L 131.463577 85.519201 
L 131.221288 85.069039 
L 131.004465 84.618877 
L 130.81369 84.168714 
L 130.647779 83.718552 
L 130.504352 83.26839 
L 130.380521 82.818227 
L 130.273598 82.368065 
L 130.181675 81.917902 
L 130.104013 81.46774 
L 130.041171 81.017578 
L 129.994898 80.567415 
L 129.967828 80.117253 
L 129.963037 79.667091 
L 129.983556 79.216928 
L 130.031893 78.766766 
L 130.109631 78.316603 
L 130.217115 77.866441 
L 130.353259 77.416279 
L 130.515476 76.966116 
L 130.699732 76.515954 
L 130.900714 76.065792 
L 131.11212 75.615629 
L 131.327035 75.165467 
L 131.538366 74.715305 
L 131.739289 74.265142 
L 131.923653 73.81498 
L 132.086288 73.364817 
L 132.223179 72.914655 
L 132.331495 72.464493 
L 132.409494 72.01433 
L 132.456331 71.564168 
L 132.47184 71.114006 
L 132.456342 70.663843 
L 132.410533 70.213681 
L 132.335467 69.763518 
L 132.232659 69.313356 
L 132.104257 68.863194 
L 131.953271 68.413031 
L 131.783801 67.962869 
L 131.601211 67.512707 
L 131.412224 67.062544 
L 131.224884 66.612382 
L 131.048358 66.162219 
L 130.892578 65.712057 
L 130.767696 65.261895 
L 130.683392 64.811732 
L 130.648077 64.36157 
L 130.668082 63.911408 
L 130.746919 63.461245 
L 130.884748 63.011083 
L 131.078144 62.56092 
L 131.320227 62.110758 
L 131.60118 61.660596 
L 131.9091 61.210433 
L 132.231075 60.760271 
L 132.554347 60.310109 
L 132.867398 59.859946 
L 133.160816 59.409784 
L 133.427843 58.959621 
L 133.664556 58.509459 
L 133.869709 58.059297 
L 134.044298 57.609134 
L 134.190951 57.158972 
L 134.313264 56.70881 
L 134.415175 56.258647 
L 134.500465 55.808485 
L 134.572413 55.358322 
L 134.633628 54.90816 
L 134.686014 54.457998 
L 134.730865 54.007835 
L 134.769 53.557673 
L 134.800936 53.107511 
L 134.827042 52.657348 
L 134.847658 52.207186 
L 134.863182 51.757023 
L 134.874107 51.306861 
L 134.881032 50.856699 
L 134.884646 50.406536 
L 134.885698 49.956374 
L 134.884958 49.506212 
L 134.883178 49.056049 
L 134.881051 48.605887 
L 134.879176 48.155724 
L 134.878029 47.705562 
L 134.877943 47.2554 
L 135.003952 47.2554 
L 135.003952 47.2554 
L 135.003866 47.705562 
L 135.002718 48.155724 
L 135.000843 48.605887 
L 134.998716 49.056049 
L 134.996936 49.506212 
L 134.996197 49.956374 
L 134.997248 50.406536 
L 135.000862 50.856699 
L 135.007787 51.306861 
L 135.018712 51.757023 
L 135.034236 52.207186 
L 135.054852 52.657348 
L 135.080958 53.107511 
L 135.112894 53.557673 
L 135.151029 54.007835 
L 135.19588 54.457998 
L 135.248267 54.90816 
L 135.309481 55.358322 
L 135.381429 55.808485 
L 135.466719 56.258647 
L 135.56863 56.70881 
L 135.690943 57.158972 
L 135.837596 57.609134 
L 136.012185 58.059297 
L 136.217338 58.509459 
L 136.454051 58.959621 
L 136.721078 59.409784 
L 137.014496 59.859946 
L 137.327547 60.310109 
L 137.650819 60.760271 
L 137.972794 61.210433 
L 138.280714 61.660596 
L 138.561667 62.110758 
L 138.80375 62.56092 
L 138.997146 63.011083 
L 139.134975 63.461245 
L 139.213812 63.911408 
L 139.233817 64.36157 
L 139.198503 64.811732 
L 139.114198 65.261895 
L 138.989316 65.712057 
L 138.833536 66.162219 
L 138.65701 66.612382 
L 138.46967 67.062544 
L 138.280683 67.512707 
L 138.098093 67.962869 
L 137.928623 68.413031 
L 137.777637 68.863194 
L 137.649235 69.313356 
L 137.546427 69.763518 
L 137.471361 70.213681 
L 137.425552 70.663843 
L 137.410054 71.114006 
L 137.425563 71.564168 
L 137.4724 72.01433 
L 137.550399 72.464493 
L 137.658716 72.914655 
L 137.795606 73.364817 
L 137.958241 73.81498 
L 138.142605 74.265142 
L 138.343529 74.715305 
L 138.554859 75.165467 
L 138.769774 75.615629 
L 138.98118 76.065792 
L 139.182162 76.515954 
L 139.366418 76.966116 
L 139.528635 77.416279 
L 139.664779 77.866441 
L 139.772263 78.316603 
L 139.850001 78.766766 
L 139.898339 79.216928 
L 139.918857 79.667091 
L 139.914066 80.117253 
L 139.886996 80.567415 
L 139.840723 81.017578 
L 139.777881 81.46774 
L 139.700219 81.917902 
L 139.608296 82.368065 
L 139.501373 82.818227 
L 139.377543 83.26839 
L 139.234115 83.718552 
L 139.068204 84.168714 
L 138.877429 84.618877 
L 138.660606 85.069039 
L 138.418317 85.519201 
L 138.15322 85.969364 
L 137.87007 86.419526 
L 137.575403 86.869689 
L 137.276969 87.319851 
L 136.982971 87.770013 
L 136.70127 88.220176 
L 136.438656 88.670338 
L 136.20029 89.1205 
L 135.989399 89.570663 
L 135.807222 90.020825 
L 135.653195 90.470988 
L 135.525313 90.92115 
L 135.420586 91.371312 
L 135.335519 91.821475 
z
" clip-path="url(#p1e764a4e86)" style="fill: #ff0000; fill-opacity: 0.3"/>
   </g>
   <g id="PolyCollection_6">
    <path d="M 153.719256 92.973506 
L 149.441389 92.973506 
L 149.304119 92.417962 
L 149.173497 91.862418 
L 149.048868 91.306873 
L 148.928932 90.751329 
L 148.811866 90.195785 
L 148.695487 89.64024 
L 148.577465 89.084696 
L 148.455553 88.529152 
L 148.32782 87.973607 
L 148.192875 87.418063 
L 148.050054 86.862519 
L 147.899571 86.306974 
L 147.742602 85.75143 
L 147.581308 85.195886 
L 147.418781 84.640341 
L 147.25892 84.084797 
L 147.106245 83.529253 
L 146.965639 82.973708 
L 146.842061 82.418164 
L 146.74023 81.86262 
L 146.664309 81.307075 
L 146.617621 80.751531 
L 146.602412 80.195987 
L 146.61969 79.640442 
L 146.669145 79.084898 
L 146.749178 78.529354 
L 146.857008 77.973809 
L 146.988876 77.418265 
L 147.1403 76.862721 
L 147.306377 76.307177 
L 147.482083 75.751632 
L 147.662562 75.196088 
L 147.843361 74.640544 
L 148.020609 74.084999 
L 148.191121 73.529455 
L 148.352425 72.973911 
L 148.502729 72.418366 
L 148.640834 71.862822 
L 148.766018 71.307278 
L 148.877903 70.751733 
L 148.976336 70.196189 
L 149.061278 69.640645 
L 149.132742 69.0851 
L 149.190748 68.529556 
L 149.23532 67.974012 
L 149.266509 67.418467 
L 149.284435 66.862923 
L 149.289331 66.307379 
L 149.281596 65.751834 
L 149.261835 65.19629 
L 149.230886 64.640746 
L 149.189836 64.085201 
L 149.140024 63.529657 
L 149.083032 62.974113 
L 149.020668 62.418568 
L 148.954956 61.863024 
L 148.888112 61.30748 
L 148.822522 60.751935 
L 148.760719 60.196391 
L 148.705344 59.640847 
L 148.659095 59.085302 
L 148.624653 58.529758 
L 148.604585 57.974214 
L 148.60123 57.41867 
L 148.616559 56.863125 
L 148.652037 56.307581 
L 148.708492 55.752037 
L 148.785997 55.196492 
L 148.883801 54.640948 
L 149.000309 54.085404 
L 149.133115 53.529859 
L 149.279102 52.974315 
L 149.434602 52.418771 
L 149.595589 51.863226 
L 149.757912 51.307682 
L 149.917533 50.752138 
L 150.070752 50.196593 
L 150.2144 49.641049 
L 150.345995 49.085505 
L 150.463829 48.52996 
L 150.567009 47.974416 
L 150.655427 47.418872 
L 150.729689 46.863327 
L 150.790998 46.307783 
L 150.841006 45.752239 
L 150.881659 45.196694 
L 150.915034 44.64115 
L 150.943195 44.085606 
L 150.968063 43.530061 
L 150.991318 42.974517 
L 151.014332 42.418973 
L 151.038131 41.863428 
L 151.063393 41.307884 
L 151.090466 40.75234 
L 151.119408 40.196795 
L 151.150037 39.641251 
L 151.181995 39.085707 
L 151.214808 38.530163 
L 151.24794 37.974618 
L 151.912705 37.974618 
L 151.912705 37.974618 
L 151.945836 38.530163 
L 151.978649 39.085707 
L 152.010608 39.641251 
L 152.041237 40.196795 
L 152.070178 40.75234 
L 152.097251 41.307884 
L 152.122514 41.863428 
L 152.146313 42.418973 
L 152.169326 42.974517 
L 152.192581 43.530061 
L 152.217449 44.085606 
L 152.24561 44.64115 
L 152.278986 45.196694 
L 152.319638 45.752239 
L 152.369646 46.307783 
L 152.430955 46.863327 
L 152.505218 47.418872 
L 152.593636 47.974416 
L 152.696815 48.52996 
L 152.814649 49.085505 
L 152.946244 49.641049 
L 153.089893 50.196593 
L 153.243111 50.752138 
L 153.402732 51.307682 
L 153.565056 51.863226 
L 153.726042 52.418771 
L 153.881542 52.974315 
L 154.02753 53.529859 
L 154.160335 54.085404 
L 154.276843 54.640948 
L 154.374648 55.196492 
L 154.452152 55.752037 
L 154.508607 56.307581 
L 154.544086 56.863125 
L 154.559415 57.41867 
L 154.556059 57.974214 
L 154.535992 58.529758 
L 154.501549 59.085302 
L 154.4553 59.640847 
L 154.399926 60.196391 
L 154.338123 60.751935 
L 154.272533 61.30748 
L 154.205688 61.863024 
L 154.139976 62.418568 
L 154.077613 62.974113 
L 154.02062 63.529657 
L 153.970808 64.085201 
L 153.929759 64.640746 
L 153.89881 65.19629 
L 153.879049 65.751834 
L 153.871314 66.307379 
L 153.87621 66.862923 
L 153.894135 67.418467 
L 153.925325 67.974012 
L 153.969897 68.529556 
L 154.027902 69.0851 
L 154.099366 69.640645 
L 154.184309 70.196189 
L 154.282741 70.751733 
L 154.394627 71.307278 
L 154.519811 71.862822 
L 154.657916 72.418366 
L 154.808219 72.973911 
L 154.969523 73.529455 
L 155.140035 74.084999 
L 155.317284 74.640544 
L 155.498083 75.196088 
L 155.678561 75.751632 
L 155.854267 76.307177 
L 156.020344 76.862721 
L 156.171769 77.418265 
L 156.303636 77.973809 
L 156.411467 78.529354 
L 156.491499 79.084898 
L 156.540955 79.640442 
L 156.558232 80.195987 
L 156.543024 80.751531 
L 156.496336 81.307075 
L 156.420415 81.86262 
L 156.318583 82.418164 
L 156.195005 82.973708 
L 156.054399 83.529253 
L 155.901724 84.084797 
L 155.741864 84.640341 
L 155.579336 85.195886 
L 155.418042 85.75143 
L 155.261073 86.306974 
L 155.110591 86.862519 
L 154.96777 87.418063 
L 154.832824 87.973607 
L 154.705091 88.529152 
L 154.583179 89.084696 
L 154.465158 89.64024 
L 154.348778 90.195785 
L 154.231712 90.751329 
L 154.111777 91.306873 
L 153.987147 91.862418 
L 153.856525 92.417962 
L 153.719256 92.973506 
z
" clip-path="url(#p1e764a4e86)" style="fill: #ff0000; fill-opacity: 0.3"/>
   </g>
   <g id="PolyCollection_7">
    <path d="M 165.168226 95.375447 
L 161.604068 95.375447 
L 161.423034 94.719584 
L 161.240277 94.06372 
L 161.057584 93.407857 
L 160.876583 92.751993 
L 160.698674 92.09613 
L 160.524973 91.440266 
L 160.356279 90.784403 
L 160.193069 90.128539 
L 160.035521 89.472675 
L 159.88356 88.816812 
L 159.736931 88.160948 
L 159.595296 87.505085 
L 159.45833 86.849221 
L 159.325833 86.193358 
L 159.197829 85.537494 
L 159.07465 84.881631 
L 158.956999 84.225767 
L 158.845971 83.569904 
L 158.74305 82.91404 
L 158.650058 82.258177 
L 158.569068 81.602313 
L 158.502287 80.94645 
L 158.451915 80.290586 
L 158.41999 79.634723 
L 158.408237 78.978859 
L 158.417926 78.322996 
L 158.449764 77.667132 
L 158.503818 77.011269 
L 158.579483 76.355405 
L 158.675497 75.699541 
L 158.790003 75.043678 
L 158.920644 74.387814 
L 159.064697 73.731951 
L 159.219213 73.076087 
L 159.381174 72.420224 
L 159.547636 71.76436 
L 159.715855 71.108497 
L 159.883388 70.452633 
L 160.048156 69.79677 
L 160.208484 69.140906 
L 160.363094 68.485043 
L 160.51108 67.829179 
L 160.651853 67.173316 
L 160.785077 66.517452 
L 160.910589 65.861589 
L 161.028329 65.205725 
L 161.138268 64.549862 
L 161.240354 63.893998 
L 161.334469 63.238135 
L 161.42041 62.582271 
L 161.497874 61.926408 
L 161.566471 61.270544 
L 161.625744 60.61468 
L 161.675192 59.958817 
L 161.714309 59.302953 
L 161.742615 58.64709 
L 161.759692 57.991226 
L 161.765221 57.335363 
L 161.759004 56.679499 
L 161.741005 56.023636 
L 161.711368 55.367772 
L 161.670455 54.711909 
L 161.618872 54.056045 
L 161.5575 53.400182 
L 161.487524 52.744318 
L 161.410456 52.088455 
L 161.328153 51.432591 
L 161.24281 50.776728 
L 161.156945 50.120864 
L 161.073346 49.465001 
L 160.995003 48.809137 
L 160.925002 48.153274 
L 160.866398 47.49741 
L 160.822069 46.841547 
L 160.794561 46.185683 
L 160.785935 45.529819 
L 160.797629 44.873956 
L 160.830351 44.218092 
L 160.88401 43.562229 
L 160.957699 42.906365 
L 161.049725 42.250502 
L 161.157694 41.594638 
L 161.278648 40.938775 
L 161.409229 40.282911 
L 161.545875 39.627048 
L 161.685015 38.971184 
L 161.82327 38.315321 
L 161.957614 37.659457 
L 162.085514 37.003594 
L 162.205025 36.34773 
L 162.314829 35.691867 
L 162.414236 35.036003 
L 162.503144 34.38014 
L 162.581951 33.724276 
L 162.651459 33.068413 
L 162.712751 32.412549 
L 162.76707 31.756685 
L 162.815705 31.100822 
L 162.85989 30.444958 
L 163.912404 30.444958 
L 163.912404 30.444958 
L 163.956589 31.100822 
L 164.005223 31.756685 
L 164.059542 32.412549 
L 164.120834 33.068413 
L 164.190342 33.724276 
L 164.26915 34.38014 
L 164.358057 35.036003 
L 164.457465 35.691867 
L 164.567268 36.34773 
L 164.686779 37.003594 
L 164.81468 37.659457 
L 164.949024 38.315321 
L 165.087278 38.971184 
L 165.226419 39.627048 
L 165.363064 40.282911 
L 165.493645 40.938775 
L 165.614599 41.594638 
L 165.722569 42.250502 
L 165.814594 42.906365 
L 165.888283 43.562229 
L 165.941943 44.218092 
L 165.974665 44.873956 
L 165.986359 45.529819 
L 165.977732 46.185683 
L 165.950224 46.841547 
L 165.905895 47.49741 
L 165.847291 48.153274 
L 165.77729 48.809137 
L 165.698948 49.465001 
L 165.615349 50.120864 
L 165.529483 50.776728 
L 165.44414 51.432591 
L 165.361837 52.088455 
L 165.28477 52.744318 
L 165.214793 53.400182 
L 165.153421 54.056045 
L 165.101838 54.711909 
L 165.060925 55.367772 
L 165.031289 56.023636 
L 165.013289 56.679499 
L 165.007073 57.335363 
L 165.012601 57.991226 
L 165.029679 58.64709 
L 165.057985 59.302953 
L 165.097102 59.958817 
L 165.14655 60.61468 
L 165.205822 61.270544 
L 165.27442 61.926408 
L 165.351884 62.582271 
L 165.437824 63.238135 
L 165.53194 63.893998 
L 165.634025 64.549862 
L 165.743964 65.205725 
L 165.861704 65.861589 
L 165.987217 66.517452 
L 166.12044 67.173316 
L 166.261214 67.829179 
L 166.409199 68.485043 
L 166.563809 69.140906 
L 166.724137 69.79677 
L 166.888905 70.452633 
L 167.056438 71.108497 
L 167.224657 71.76436 
L 167.39112 72.420224 
L 167.553081 73.076087 
L 167.707597 73.731951 
L 167.851649 74.387814 
L 167.982291 75.043678 
L 168.096796 75.699541 
L 168.19281 76.355405 
L 168.268475 77.011269 
L 168.322529 77.667132 
L 168.354367 78.322996 
L 168.364057 78.978859 
L 168.352303 79.634723 
L 168.320378 80.290586 
L 168.270006 80.94645 
L 168.203225 81.602313 
L 168.122235 82.258177 
L 168.029243 82.91404 
L 167.926323 83.569904 
L 167.815295 84.225767 
L 167.697643 84.881631 
L 167.574465 85.537494 
L 167.446461 86.193358 
L 167.313963 86.849221 
L 167.176997 87.505085 
L 167.035362 88.160948 
L 166.888734 88.816812 
L 166.736772 89.472675 
L 166.579224 90.128539 
L 166.416015 90.784403 
L 166.247321 91.440266 
L 166.073619 92.09613 
L 165.89571 92.751993 
L 165.714709 93.407857 
L 165.532016 94.06372 
L 165.349259 94.719584 
L 165.168226 95.375447 
z
" clip-path="url(#p1e764a4e86)" style="fill: #ff0000; fill-opacity: 0.3"/>
   </g>
   <g id="PolyCollection_8">
    <path d="M 183.564256 94.298882 
L 176.486788 94.298882 
L 176.241624 93.565482 
L 176.016014 92.832082 
L 175.812921 92.098682 
L 175.634353 91.365282 
L 175.481332 90.631882 
L 175.353935 89.898483 
L 175.251398 89.165083 
L 175.172271 88.431683 
L 175.114606 87.698283 
L 175.07616 86.964883 
L 175.054586 86.231483 
L 175.047612 85.498083 
L 175.053182 84.764684 
L 175.069564 84.031284 
L 175.095413 83.297884 
L 175.129799 82.564484 
L 175.172195 81.831084 
L 175.222441 81.097684 
L 175.280676 80.364284 
L 175.347262 79.630885 
L 175.422685 78.897485 
L 175.507456 78.164085 
L 175.602007 77.430685 
L 175.706591 76.697285 
L 175.821197 75.963885 
L 175.94548 75.230485 
L 176.078718 74.497086 
L 176.219796 73.763686 
L 176.367225 73.030286 
L 176.519193 72.296886 
L 176.673644 71.563486 
L 176.828379 70.830086 
L 176.981164 70.096686 
L 177.129849 69.363287 
L 177.272466 68.629887 
L 177.407305 67.896487 
L 177.532969 67.163087 
L 177.648388 66.429687 
L 177.752802 65.696287 
L 177.845713 64.962887 
L 177.926821 64.229488 
L 177.995947 63.496088 
L 178.052957 62.762688 
L 178.097708 62.029288 
L 178.130014 61.295888 
L 178.149645 60.562488 
L 178.156372 59.829088 
L 178.150035 59.095689 
L 178.130651 58.362289 
L 178.09854 57.628889 
L 178.054447 56.895489 
L 177.999658 56.162089 
L 177.936087 55.428689 
L 177.866305 54.695289 
L 177.793522 53.96189 
L 177.721495 53.22849 
L 177.654373 52.49509 
L 177.596484 51.76169 
L 177.55208 51.02829 
L 177.525063 50.29489 
L 177.518709 49.56149 
L 177.535436 48.828091 
L 177.576611 48.094691 
L 177.642447 47.361291 
L 177.731973 46.627891 
L 177.843104 45.894491 
L 177.972783 45.161091 
L 178.117198 44.427691 
L 178.27204 43.694292 
L 178.432784 42.960892 
L 178.594962 42.227492 
L 178.754413 41.494092 
L 178.907476 40.760692 
L 179.051135 40.027292 
L 179.183087 39.293892 
L 179.301757 38.560493 
L 179.406255 37.827093 
L 179.496289 37.093693 
L 179.572057 36.360293 
L 179.634124 35.626893 
L 179.683302 34.893493 
L 179.720548 34.160093 
L 179.746885 33.426694 
L 179.763344 32.693294 
L 179.77094 31.959894 
L 179.770665 31.226494 
L 179.763505 30.493094 
L 179.750463 29.759694 
L 179.732581 29.026294 
L 179.710969 28.292895 
L 179.686809 27.559495 
L 179.661352 26.826095 
L 179.635899 26.092695 
L 179.611759 25.359295 
L 179.590204 24.625895 
L 179.572403 23.892495 
L 179.559368 23.159096 
L 179.551893 22.425696 
L 179.550507 21.692296 
L 180.500537 21.692296 
L 180.500537 21.692296 
L 180.499151 22.425696 
L 180.491675 23.159096 
L 180.47864 23.892495 
L 180.46084 24.625895 
L 180.439284 25.359295 
L 180.415145 26.092695 
L 180.389692 26.826095 
L 180.364235 27.559495 
L 180.340075 28.292895 
L 180.318462 29.026294 
L 180.300581 29.759694 
L 180.287538 30.493094 
L 180.280379 31.226494 
L 180.280104 31.959894 
L 180.2877 32.693294 
L 180.304159 33.426694 
L 180.330496 34.160093 
L 180.367742 34.893493 
L 180.41692 35.626893 
L 180.478987 36.360293 
L 180.554755 37.093693 
L 180.644789 37.827093 
L 180.749287 38.560493 
L 180.867957 39.293892 
L 180.999909 40.027292 
L 181.143568 40.760692 
L 181.296631 41.494092 
L 181.456082 42.227492 
L 181.61826 42.960892 
L 181.779004 43.694292 
L 181.933846 44.427691 
L 182.078261 45.161091 
L 182.20794 45.894491 
L 182.31907 46.627891 
L 182.408597 47.361291 
L 182.474432 48.094691 
L 182.515608 48.828091 
L 182.532334 49.56149 
L 182.525981 50.29489 
L 182.498963 51.02829 
L 182.45456 51.76169 
L 182.396671 52.49509 
L 182.329549 53.22849 
L 182.257522 53.96189 
L 182.184739 54.695289 
L 182.114957 55.428689 
L 182.051385 56.162089 
L 181.996597 56.895489 
L 181.952504 57.628889 
L 181.920392 58.362289 
L 181.901009 59.095689 
L 181.894672 59.829088 
L 181.901398 60.562488 
L 181.92103 61.295888 
L 181.953336 62.029288 
L 181.998087 62.762688 
L 182.055097 63.496088 
L 182.124222 64.229488 
L 182.20533 64.962887 
L 182.298241 65.696287 
L 182.402655 66.429687 
L 182.518075 67.163087 
L 182.643739 67.896487 
L 182.778578 68.629887 
L 182.921194 69.363287 
L 183.06988 70.096686 
L 183.222665 70.830086 
L 183.377399 71.563486 
L 183.531851 72.296886 
L 183.683819 73.030286 
L 183.831248 73.763686 
L 183.972326 74.497086 
L 184.105564 75.230485 
L 184.229847 75.963885 
L 184.344453 76.697285 
L 184.449037 77.430685 
L 184.543588 78.164085 
L 184.628359 78.897485 
L 184.703782 79.630885 
L 184.770368 80.364284 
L 184.828603 81.097684 
L 184.878848 81.831084 
L 184.921245 82.564484 
L 184.955631 83.297884 
L 184.98148 84.031284 
L 184.997862 84.764684 
L 185.003432 85.498083 
L 184.996457 86.231483 
L 184.974883 86.964883 
L 184.936437 87.698283 
L 184.878773 88.431683 
L 184.799646 89.165083 
L 184.697109 89.898483 
L 184.569712 90.631882 
L 184.416691 91.365282 
L 184.238123 92.098682 
L 184.035029 92.832082 
L 183.809419 93.565482 
L 183.564256 94.298882 
z
" clip-path="url(#p1e764a4e86)" style="fill: #ff0000; fill-opacity: 0.3"/>
   </g>
   <g id="PolyCollection_9">
    <path d="M 194.277245 98.005909 
L 189.385448 98.005909 
L 189.003357 97.132355 
L 188.623491 96.258802 
L 188.25948 95.385248 
L 187.924561 94.511694 
L 187.630349 93.63814 
L 187.385691 92.764587 
L 187.195799 91.891033 
L 187.061755 91.017479 
L 186.980478 90.143926 
L 186.945156 89.270372 
L 186.946078 88.396818 
L 186.97176 87.523264 
L 187.010214 86.649711 
L 187.050207 85.776157 
L 187.082359 84.902603 
L 187.09996 84.02905 
L 187.099442 83.155496 
L 187.080468 82.281942 
L 187.045672 81.408388 
L 187.000114 80.534835 
L 186.950537 79.661281 
L 186.904549 78.787727 
L 186.86983 77.914174 
L 186.853436 77.04062 
L 186.861283 76.167066 
L 186.897779 75.293512 
L 186.965628 74.419959 
L 187.065723 73.546405 
L 187.197105 72.672851 
L 187.356949 71.799298 
L 187.54057 70.925744 
L 187.741485 70.05219 
L 187.951576 69.178636 
L 188.161408 68.305083 
L 188.360756 67.431529 
L 188.539334 66.557975 
L 188.687697 65.684421 
L 188.798229 64.810868 
L 188.866081 63.937314 
L 188.889948 63.06376 
L 188.872515 62.190207 
L 188.820515 61.316653 
L 188.744314 60.443099 
L 188.65706 59.569545 
L 188.573464 58.695992 
L 188.508359 57.822438 
L 188.475203 56.948884 
L 188.484718 56.075331 
L 188.543847 55.201777 
L 188.655153 54.328223 
L 188.816731 53.454669 
L 189.022633 52.581116 
L 189.263711 51.707562 
L 189.528754 50.834008 
L 189.80574 49.960455 
L 190.083029 49.086901 
L 190.350357 48.213347 
L 190.599521 47.339793 
L 190.824735 46.46624 
L 191.022657 45.592686 
L 191.192153 44.719132 
L 191.333893 43.845579 
L 191.449863 42.972025 
L 191.542868 42.098471 
L 191.616105 41.224917 
L 191.672819 40.351364 
L 191.716067 39.47781 
L 191.748577 38.604256 
L 191.772682 37.730702 
L 191.790318 36.857149 
L 191.803044 35.983595 
L 191.812093 35.110041 
L 191.818419 34.236488 
L 191.822745 33.362934 
L 191.825605 32.48938 
L 191.827377 31.615826 
L 191.828304 30.742273 
L 191.828516 29.868719 
L 191.828035 28.995165 
L 191.826784 28.121612 
L 191.824583 27.248058 
L 191.821154 26.374504 
L 191.816125 25.50095 
L 191.809042 24.627397 
L 191.799399 23.753843 
L 191.786675 22.880289 
L 191.770401 22.006736 
L 191.750233 21.133182 
L 191.726036 20.259628 
L 191.697978 19.386074 
L 191.666591 18.512521 
L 191.632816 17.638967 
L 191.597991 16.765413 
L 191.563794 15.89186 
L 191.532118 15.018306 
L 191.504911 14.144752 
L 191.483975 13.271198 
L 191.470775 12.397645 
L 191.466264 11.524091 
L 192.196428 11.524091 
L 192.196428 11.524091 
L 192.191918 12.397645 
L 192.178717 13.271198 
L 192.157782 14.144752 
L 192.130574 15.018306 
L 192.098899 15.89186 
L 192.064701 16.765413 
L 192.029877 17.638967 
L 191.996101 18.512521 
L 191.964715 19.386074 
L 191.936656 20.259628 
L 191.91246 21.133182 
L 191.892291 22.006736 
L 191.876017 22.880289 
L 191.863294 23.753843 
L 191.853651 24.627397 
L 191.846568 25.50095 
L 191.841539 26.374504 
L 191.83811 27.248058 
L 191.835909 28.121612 
L 191.834657 28.995165 
L 191.834177 29.868719 
L 191.834389 30.742273 
L 191.835316 31.615826 
L 191.837087 32.48938 
L 191.839948 33.362934 
L 191.844274 34.236488 
L 191.8506 35.110041 
L 191.859649 35.983595 
L 191.872375 36.857149 
L 191.890011 37.730702 
L 191.914116 38.604256 
L 191.946626 39.47781 
L 191.989874 40.351364 
L 192.046588 41.224917 
L 192.119825 42.098471 
L 192.21283 42.972025 
L 192.3288 43.845579 
L 192.47054 44.719132 
L 192.640036 45.592686 
L 192.837958 46.46624 
L 193.063172 47.339793 
L 193.312336 48.213347 
L 193.579664 49.086901 
L 193.856953 49.960455 
L 194.133939 50.834008 
L 194.398982 51.707562 
L 194.640059 52.581116 
L 194.845961 53.454669 
L 195.00754 54.328223 
L 195.118846 55.201777 
L 195.177975 56.075331 
L 195.18749 56.948884 
L 195.154333 57.822438 
L 195.089229 58.695992 
L 195.005633 59.569545 
L 194.918379 60.443099 
L 194.842178 61.316653 
L 194.790178 62.190207 
L 194.772745 63.06376 
L 194.796611 63.937314 
L 194.864464 64.810868 
L 194.974996 65.684421 
L 195.123359 66.557975 
L 195.301937 67.431529 
L 195.501284 68.305083 
L 195.711116 69.178636 
L 195.921207 70.05219 
L 196.122123 70.925744 
L 196.305744 71.799298 
L 196.465588 72.672851 
L 196.59697 73.546405 
L 196.697065 74.419959 
L 196.764914 75.293512 
L 196.80141 76.167066 
L 196.809256 77.04062 
L 196.792863 77.914174 
L 196.758143 78.787727 
L 196.712156 79.661281 
L 196.662579 80.534835 
L 196.617021 81.408388 
L 196.582225 82.281942 
L 196.563251 83.155496 
L 196.562733 84.02905 
L 196.580334 84.902603 
L 196.612486 85.776157 
L 196.652479 86.649711 
L 196.690933 87.523264 
L 196.716614 88.396818 
L 196.717537 89.270372 
L 196.682215 90.143926 
L 196.600938 91.017479 
L 196.466894 91.891033 
L 196.277002 92.764587 
L 196.032344 93.63814 
L 195.738132 94.511694 
L 195.403213 95.385248 
L 195.039201 96.258802 
L 194.659336 97.132355 
L 194.277245 98.005909 
z
" clip-path="url(#p1e764a4e86)" style="fill: #ff0000; fill-opacity: 0.3"/>
   </g>
   <g id="matplotlib.axis_1">
    <g id="xtick_1">
     <g id="line2d_1">
      <defs>
       <path id="me449b39119" d="M 0 0 
L 0 3.5 
" style="stroke: #000000; stroke-width: 0.8"/>
      </defs>
      <g>
       <use xlink:href="#me449b39119" x="49.605348" y="102.33" style="stroke: #000000; stroke-width: 0.8"/>
      </g>
     </g>
     <g id="text_1">
      <!-- $\mathrm{1}$ -->
      <g transform="translate(47.11468 116.248498)scale(0.1 -0.1)">
       <defs>
        <path id="CMR17-31" d="M 1702 4083 
C 1702 4217 1696 4224 1606 4224 
C 1357 3927 979 3833 621 3820 
C 602 3820 570 3820 563 3808 
C 557 3795 557 3782 557 3648 
C 755 3648 1088 3686 1344 3839 
L 1344 467 
C 1344 243 1331 166 781 166 
L 589 166 
L 589 0 
C 896 6 1216 12 1523 12 
C 1830 12 2150 6 2458 0 
L 2458 166 
L 2266 166 
C 1715 166 1702 236 1702 467 
L 1702 4083 
z
" transform="scale(0.015625)"/>
       </defs>
       <use xlink:href="#CMR17-31" transform="scale(0.996264)"/>
      </g>
     </g>
    </g>
    <g id="xtick_2">
     <g id="line2d_2">
      <g>
       <use xlink:href="#me449b39119" x="78.050548" y="102.33" style="stroke: #000000; stroke-width: 0.8"/>
      </g>
     </g>
     <g id="text_2">
      <!-- $\mathrm{2}$ -->
      <g transform="translate(75.55988 116.248498)scale(0.1 -0.1)">
       <defs>
        <path id="CMR17-32" d="M 2669 990 
L 2554 990 
C 2490 537 2438 460 2413 422 
C 2381 371 1920 371 1830 371 
L 602 371 
C 832 620 1280 1073 1824 1596 
C 2214 1966 2669 2400 2669 3033 
C 2669 3788 2067 4224 1395 4224 
C 691 4224 262 3603 262 3027 
C 262 2777 448 2745 525 2745 
C 589 2745 781 2783 781 3007 
C 781 3206 614 3264 525 3264 
C 486 3264 448 3257 422 3244 
C 544 3788 915 4057 1306 4057 
C 1862 4057 2227 3616 2227 3033 
C 2227 2477 1901 1998 1536 1583 
L 262 147 
L 262 0 
L 2515 0 
L 2669 990 
z
" transform="scale(0.015625)"/>
       </defs>
       <use xlink:href="#CMR17-32" transform="scale(0.996264)"/>
      </g>
     </g>
    </g>
    <g id="xtick_3">
     <g id="line2d_3">
      <g>
       <use xlink:href="#me449b39119" x="106.495747" y="102.33" style="stroke: #000000; stroke-width: 0.8"/>
      </g>
     </g>
     <g id="text_3">
      <!-- $\mathrm{4}$ -->
      <g transform="translate(104.00508 116.248498)scale(0.1 -0.1)">
       <defs>
        <path id="CMR17-34" d="M 2150 4147 
C 2150 4281 2144 4288 2029 4288 
L 128 1254 
L 128 1088 
L 1779 1088 
L 1779 460 
C 1779 230 1766 166 1318 166 
L 1197 166 
L 1197 0 
C 1402 12 1747 12 1965 12 
C 2182 12 2528 12 2733 0 
L 2733 166 
L 2611 166 
C 2163 166 2150 230 2150 460 
L 2150 1088 
L 2803 1088 
L 2803 1254 
L 2150 1254 
L 2150 4147 
z
M 1798 3723 
L 1798 1254 
L 256 1254 
L 1798 3723 
z
" transform="scale(0.015625)"/>
       </defs>
       <use xlink:href="#CMR17-34" transform="scale(0.996264)"/>
      </g>
     </g>
    </g>
    <g id="xtick_4">
     <g id="line2d_4">
      <g>
       <use xlink:href="#me449b39119" x="123.135123" y="102.33" style="stroke: #000000; stroke-width: 0.8"/>
      </g>
     </g>
     <g id="text_4">
      <!-- $\mathrm{}$ -->
      <g transform="translate(123.135123 116.248498)scale(0.1 -0.1)"/>
     </g>
    </g>
    <g id="xtick_5">
     <g id="line2d_5">
      <g>
       <use xlink:href="#me449b39119" x="134.940947" y="102.33" style="stroke: #000000; stroke-width: 0.8"/>
      </g>
     </g>
     <g id="text_5">
      <!-- $\mathrm{8}$ -->
      <g transform="translate(132.450279 116.248498)scale(0.1 -0.1)">
       <defs>
        <path id="CMR17-38" d="M 1741 2289 
C 2144 2494 2554 2803 2554 3298 
C 2554 3884 1990 4224 1472 4224 
C 890 4224 378 3800 378 3215 
C 378 3054 416 2777 666 2533 
C 730 2469 998 2276 1171 2154 
C 883 2006 211 1652 211 945 
C 211 282 838 -128 1459 -128 
C 2144 -128 2720 366 2720 1022 
C 2720 1607 2330 1877 2074 2051 
L 1741 2289 
z
M 902 2855 
C 851 2887 595 3086 595 3388 
C 595 3781 998 4076 1459 4076 
C 1965 4076 2336 3716 2336 3298 
C 2336 2700 1670 2359 1638 2359 
C 1632 2359 1626 2359 1574 2398 
L 902 2855 
z
M 2080 1536 
C 2176 1466 2483 1253 2483 861 
C 2483 385 2010 25 1472 25 
C 890 25 448 443 448 951 
C 448 1459 838 1884 1280 2083 
L 2080 1536 
z
" transform="scale(0.015625)"/>
       </defs>
       <use xlink:href="#CMR17-38" transform="scale(0.996264)"/>
      </g>
     </g>
    </g>
    <g id="xtick_6">
     <g id="line2d_6">
      <g>
       <use xlink:href="#me449b39119" x="151.580322" y="102.33" style="stroke: #000000; stroke-width: 0.8"/>
      </g>
     </g>
     <g id="text_6">
      <!-- $\mathrm{}$ -->
      <g transform="translate(151.580322 116.248498)scale(0.1 -0.1)"/>
     </g>
    </g>
    <g id="xtick_7">
     <g id="line2d_7">
      <g>
       <use xlink:href="#me449b39119" x="163.386147" y="102.33" style="stroke: #000000; stroke-width: 0.8"/>
      </g>
     </g>
     <g id="text_7">
      <!-- $\mathrm{16}$ -->
      <g transform="translate(158.404811 116.248498)scale(0.1 -0.1)">
       <defs>
        <path id="CMR17-36" d="M 678 2198 
C 678 3712 1395 4076 1811 4076 
C 1946 4076 2272 4049 2400 3782 
C 2298 3782 2106 3782 2106 3558 
C 2106 3385 2246 3328 2336 3328 
C 2394 3328 2566 3353 2566 3571 
C 2566 3987 2246 4224 1805 4224 
C 1043 4224 243 3411 243 2011 
C 243 257 966 -128 1478 -128 
C 2099 -128 2688 431 2688 1295 
C 2688 2101 2170 2688 1517 2688 
C 1126 2688 838 2430 678 1979 
L 678 2198 
z
M 1478 25 
C 691 25 691 1212 691 1450 
C 691 1914 909 2585 1504 2585 
C 1613 2585 1926 2585 2138 2140 
C 2253 1889 2253 1624 2253 1302 
C 2253 954 2253 696 2118 438 
C 1978 173 1773 25 1478 25 
z
" transform="scale(0.015625)"/>
       </defs>
       <use xlink:href="#CMR17-31" transform="scale(0.996264)"/>
       <use xlink:href="#CMR17-36" transform="translate(45.690477 0)scale(0.996264)"/>
      </g>
     </g>
    </g>
    <g id="xtick_8">
     <g id="line2d_8">
      <g>
       <use xlink:href="#me449b39119" x="180.025522" y="102.33" style="stroke: #000000; stroke-width: 0.8"/>
      </g>
     </g>
     <g id="text_8">
      <!-- $\mathrm{}$ -->
      <g transform="translate(180.025522 116.248498)scale(0.1 -0.1)"/>
     </g>
    </g>
    <g id="xtick_9">
     <g id="line2d_9">
      <g>
       <use xlink:href="#me449b39119" x="191.831346" y="102.33" style="stroke: #000000; stroke-width: 0.8"/>
      </g>
     </g>
     <g id="text_9">
      <!-- $\mathrm{32}$ -->
      <g transform="translate(186.850011 116.248498)scale(0.1 -0.1)">
       <defs>
        <path id="CMR17-33" d="M 1414 2176 
C 1984 2176 2234 1673 2234 1094 
C 2234 322 1824 25 1453 25 
C 1114 25 563 193 390 691 
C 422 678 454 678 486 678 
C 640 678 755 780 755 947 
C 755 1132 614 1216 486 1216 
C 378 1216 211 1164 211 927 
C 211 335 787 -128 1466 -128 
C 2176 -128 2720 432 2720 1087 
C 2720 1718 2208 2176 1600 2246 
C 2086 2347 2554 2776 2554 3353 
C 2554 3856 2048 4224 1472 4224 
C 890 4224 378 3862 378 3347 
C 378 3123 544 3084 627 3084 
C 762 3084 877 3167 877 3334 
C 877 3500 762 3584 627 3584 
C 602 3584 570 3584 544 3571 
C 730 3999 1235 4076 1459 4076 
C 1683 4076 2106 3966 2106 3347 
C 2106 3167 2080 2851 1862 2574 
C 1670 2329 1453 2316 1242 2297 
C 1210 2297 1062 2284 1037 2284 
C 992 2278 966 2272 966 2227 
C 966 2182 973 2176 1101 2176 
L 1414 2176 
z
" transform="scale(0.015625)"/>
       </defs>
       <use xlink:href="#CMR17-33" transform="scale(0.996264)"/>
       <use xlink:href="#CMR17-32" transform="translate(45.690477 0)scale(0.996264)"/>
      </g>
     </g>
    </g>
    <g id="text_10">
     <!-- $\mathrm{Number\: of\: threads}$ -->
     <g transform="translate(80.424966 129.104175)scale(0.1 -0.1)">
      <defs>
       <path id="CMR17-4e" d="M 1312 4275 
C 1267 4345 1261 4352 1139 4352 
L 326 4352 
L 326 4185 
L 448 4185 
C 704 4185 819 4153 838 4147 
L 838 624 
C 838 465 838 166 326 166 
L 326 0 
C 474 12 742 12 902 12 
C 1062 12 1331 12 1478 0 
L 1478 166 
C 966 166 966 465 966 624 
L 966 4057 
C 1011 4019 1011 4007 1056 3943 
L 3430 76 
C 3475 0 3494 0 3526 0 
C 3590 0 3590 19 3590 140 
L 3590 3726 
C 3590 3885 3590 4185 4102 4185 
L 4102 4352 
C 3955 4339 3686 4339 3526 4339 
C 3366 4339 3098 4339 2950 4352 
L 2950 4185 
C 3462 4185 3462 3885 3462 3726 
L 3462 777 
L 1312 4275 
z
" transform="scale(0.015625)"/>
       <path id="CMR17-75" d="M 1882 2745 
L 1882 2579 
C 2259 2579 2317 2540 2317 2229 
L 2317 1053 
C 2317 510 2029 38 1555 38 
C 1030 38 986 355 986 691 
L 986 2816 
L 211 2745 
L 211 2579 
C 467 2579 640 2579 646 2320 
L 646 1079 
C 646 646 646 368 813 187 
C 896 103 1056 -64 1517 -64 
C 2061 -64 2272 400 2323 536 
L 2330 536 
L 2330 -64 
L 3091 -13 
L 3091 154 
C 2714 154 2656 193 2656 503 
L 2656 2816 
L 1882 2745 
z
" transform="scale(0.015625)"/>
       <path id="CMR17-6d" d="M 4326 1954 
C 4326 2276 4269 2816 3507 2816 
C 3072 2816 2771 2520 2656 2173 
L 2650 2173 
C 2573 2700 2195 2816 1837 2816 
C 1331 2816 1069 2424 973 2166 
L 966 2166 
L 966 2816 
L 211 2745 
L 211 2578 
C 589 2578 646 2540 646 2231 
L 646 443 
C 646 198 621 166 211 166 
L 211 0 
C 365 12 646 12 813 12 
C 979 12 1267 12 1421 0 
L 1421 166 
C 1011 166 986 192 986 443 
L 986 1678 
C 986 2269 1344 2713 1792 2713 
C 2266 2713 2317 2289 2317 1980 
L 2317 443 
C 2317 198 2291 166 1882 166 
L 1882 0 
C 2035 12 2317 12 2483 12 
C 2650 12 2938 12 3091 0 
L 3091 166 
C 2682 166 2656 192 2656 443 
L 2656 1678 
C 2656 2269 3014 2713 3462 2713 
C 3936 2713 3987 2289 3987 1980 
L 3987 443 
C 3987 198 3962 166 3552 166 
L 3552 0 
C 3706 12 3987 12 4154 12 
C 4320 12 4608 12 4762 0 
L 4762 166 
C 4352 166 4326 192 4326 443 
L 4326 1954 
z
" transform="scale(0.015625)"/>
       <path id="CMR17-62" d="M 960 4416 
L 198 4345 
L 198 4179 
C 576 4179 634 4141 634 3843 
L 634 -13 
L 749 -13 
L 934 445 
C 1120 141 1395 -64 1766 -64 
C 2406 -64 3053 503 3053 1382 
C 3053 2209 2477 2816 1830 2816 
C 1434 2816 1152 2603 960 2351 
L 960 4416 
z
M 973 2022 
C 973 2138 973 2157 1062 2293 
C 1312 2681 1670 2713 1792 2713 
C 1984 2713 2643 2610 2643 1388 
C 2643 109 1888 38 1734 38 
C 1536 38 1248 115 1043 490 
C 973 613 973 626 973 742 
L 973 2022 
z
" transform="scale(0.015625)"/>
       <path id="CMR17-65" d="M 2438 1503 
C 2464 1529 2464 1542 2464 1606 
C 2464 2251 2118 2816 1389 2816 
C 710 2816 173 2175 173 1394 
C 173 554 781 -64 1459 -64 
C 2176 -64 2458 619 2458 755 
C 2458 800 2419 800 2406 800 
C 2362 800 2355 787 2330 709 
C 2189 270 1837 51 1504 51 
C 1229 51 954 206 781 490 
C 582 819 582 1200 582 1503 
L 2438 1503 
z
M 589 1600 
C 634 2511 1126 2713 1382 2713 
C 1818 2713 2112 2308 2118 1600 
L 589 1600 
z
" transform="scale(0.015625)"/>
       <path id="CMR17-72" d="M 960 1517 
C 960 2134 1222 2713 1702 2713 
C 1747 2713 1792 2707 1837 2687 
C 1837 2687 1696 2642 1696 2475 
C 1696 2321 1818 2257 1914 2257 
C 1990 2257 2131 2302 2131 2482 
C 2131 2687 1926 2816 1709 2816 
C 1222 2816 1011 2340 947 2115 
L 941 2115 
L 941 2816 
L 198 2745 
L 198 2578 
C 576 2578 634 2540 634 2231 
L 634 443 
C 634 198 608 166 198 166 
L 198 0 
C 352 12 646 12 813 12 
C 998 12 1325 12 1498 0 
L 1498 166 
C 1037 166 960 166 960 455 
L 960 1517 
z
" transform="scale(0.015625)"/>
       <path id="CMR17-6f" d="M 2758 1356 
C 2758 2176 2163 2816 1466 2816 
C 768 2816 173 2176 173 1356 
C 173 550 768 -64 1466 -64 
C 2163 -64 2758 550 2758 1356 
z
M 1466 51 
C 1165 51 909 230 762 480 
C 602 768 582 1126 582 1408 
C 582 1676 595 2009 762 2297 
C 890 2508 1139 2713 1466 2713 
C 1754 2713 1997 2553 2150 2329 
C 2349 2028 2349 1606 2349 1408 
C 2349 1158 2336 774 2163 467 
C 1984 172 1709 51 1466 51 
z
" transform="scale(0.015625)"/>
       <path id="CMR17-66" d="M 979 2585 
L 1709 2585 
L 1709 2752 
L 966 2752 
L 966 3539 
C 966 4076 1235 4377 1510 4377 
C 1594 4377 1690 4363 1754 4339 
C 1702 4326 1568 4281 1568 4121 
C 1568 3955 1696 3904 1786 3904 
C 1875 3904 2003 3955 2003 4121 
C 2003 4353 1773 4480 1517 4480 
C 1152 4480 653 4211 653 3526 
L 653 2752 
L 141 2752 
L 141 2585 
L 653 2585 
L 653 441 
C 653 198 627 166 218 166 
L 218 0 
C 371 12 666 12 832 12 
C 1018 12 1344 12 1517 0 
L 1517 166 
C 1056 166 979 166 979 454 
L 979 2585 
z
" transform="scale(0.015625)"/>
       <path id="CMR17-74" d="M 966 2585 
L 1862 2585 
L 1862 2752 
L 966 2752 
L 966 3968 
L 851 3968 
C 838 3292 614 2700 70 2687 
L 70 2585 
L 627 2585 
L 627 778 
C 627 655 627 -64 1370 -64 
C 1747 -64 1965 308 1965 784 
L 1965 1151 
L 1850 1151 
L 1850 790 
C 1850 347 1677 51 1408 51 
C 1222 51 966 179 966 765 
L 966 2585 
z
" transform="scale(0.015625)"/>
       <path id="CMR17-68" d="M 2656 1954 
C 2656 2282 2592 2816 1837 2816 
C 1312 2816 1056 2392 979 2179 
L 973 2179 
L 973 4416 
L 211 4345 
L 211 4179 
C 589 4179 646 4141 646 3843 
L 646 443 
C 646 198 621 166 211 166 
L 211 0 
C 365 12 646 12 813 12 
C 979 12 1267 12 1421 0 
L 1421 166 
C 1011 166 986 192 986 443 
L 986 1678 
C 986 2269 1344 2713 1792 2713 
C 2266 2713 2317 2289 2317 1980 
L 2317 443 
C 2317 198 2291 166 1882 166 
L 1882 0 
C 2035 12 2317 12 2483 12 
C 2650 12 2938 12 3091 0 
L 3091 166 
C 2682 166 2656 192 2656 443 
L 2656 1954 
z
" transform="scale(0.015625)"/>
       <path id="CMR17-61" d="M 2304 1656 
C 2304 2048 2304 2275 2035 2534 
C 1798 2751 1523 2816 1306 2816 
C 800 2816 435 2408 435 1977 
C 435 1740 627 1728 666 1728 
C 749 1728 896 1779 896 1958 
C 896 2118 774 2188 666 2188 
C 640 2188 608 2182 589 2176 
C 723 2594 1069 2713 1293 2713 
C 1613 2713 1965 2421 1965 1875 
L 1965 1632 
C 1587 1619 1133 1568 774 1373 
C 371 1147 256 822 256 576 
C 256 77 832 -64 1171 -64 
C 1523 -64 1850 135 1990 505 
C 2003 219 2182 -39 2464 -39 
C 2598 -39 2938 51 2938 563 
L 2938 926 
L 2822 926 
L 2822 557 
C 2822 161 2650 109 2566 109 
C 2304 109 2304 446 2304 732 
L 2304 1656 
z
M 1965 887 
C 1965 323 1568 38 1216 38 
C 896 38 646 278 646 576 
C 646 771 730 1114 1101 1322 
C 1408 1497 1760 1523 1965 1536 
L 1965 887 
z
" transform="scale(0.015625)"/>
       <path id="CMR17-64" d="M 1869 4345 
L 1869 4179 
C 2246 4179 2304 4141 2304 3843 
L 2304 2371 
C 2278 2403 2016 2816 1498 2816 
C 845 2816 211 2228 211 1376 
C 211 529 806 -64 1434 -64 
C 1978 -64 2259 361 2291 406 
L 2291 -64 
L 3066 -13 
L 3066 154 
C 2688 154 2630 193 2630 503 
L 2630 4416 
L 1869 4345 
z
M 2291 762 
C 2291 568 2176 393 2029 264 
C 1811 70 1594 38 1472 38 
C 1286 38 621 135 621 1369 
C 621 2636 1363 2713 1530 2713 
C 1824 2713 2061 2545 2208 2313 
C 2291 2177 2291 2157 2291 2041 
L 2291 762 
z
" transform="scale(0.015625)"/>
       <path id="CMR17-73" d="M 1978 2688 
C 1978 2803 1971 2809 1933 2809 
C 1907 2809 1901 2803 1824 2707 
C 1805 2681 1747 2617 1728 2592 
C 1523 2809 1235 2816 1126 2816 
C 416 2816 160 2444 160 2073 
C 160 1497 813 1363 998 1324 
C 1402 1241 1542 1216 1677 1100 
C 1760 1024 1901 883 1901 652 
C 1901 384 1747 38 1158 38 
C 602 38 403 460 288 1024 
C 269 1113 269 1120 218 1120 
C 166 1120 160 1113 160 985 
L 160 64 
C 160 -52 166 -58 205 -58 
C 237 -58 243 -52 275 0 
C 314 57 410 211 448 275 
C 576 102 800 -64 1158 -64 
C 1792 -64 2131 281 2131 780 
C 2131 1107 1958 1280 1875 1356 
C 1683 1555 1459 1600 1190 1651 
C 838 1728 390 1817 390 2208 
C 390 2374 480 2726 1126 2726 
C 1811 2726 1850 2086 1862 1881 
C 1869 1849 1901 1843 1920 1843 
C 1978 1843 1978 1862 1978 1971 
L 1978 2688 
z
" transform="scale(0.015625)"/>
      </defs>
      <use xlink:href="#CMR17-4e" transform="scale(0.996264)"/>
      <use xlink:href="#CMR17-75" transform="translate(69.07243 0)scale(0.996264)"/>
      <use xlink:href="#CMR17-6d" transform="translate(119.9678 0)scale(0.996264)"/>
      <use xlink:href="#CMR17-62" transform="translate(194.284936 0)scale(0.996264)"/>
      <use xlink:href="#CMR17-65" transform="translate(247.782744 0)scale(0.996264)"/>
      <use xlink:href="#CMR17-72" transform="translate(288.268404 0)scale(0.996264)"/>
      <use xlink:href="#CMR17-6f" transform="translate(345.688379 0)scale(0.996264)"/>
      <use xlink:href="#CMR17-66" transform="translate(391.378856 0)scale(0.996264)"/>
      <use xlink:href="#CMR17-74" transform="translate(446.897088 0)scale(0.996264)"/>
      <use xlink:href="#CMR17-68" transform="translate(482.177856 0)scale(0.996264)"/>
      <use xlink:href="#CMR17-72" transform="translate(533.073226 0)scale(0.996264)"/>
      <use xlink:href="#CMR17-65" transform="translate(568.353994 0)scale(0.996264)"/>
      <use xlink:href="#CMR17-61" transform="translate(608.839654 0)scale(0.996264)"/>
      <use xlink:href="#CMR17-64" transform="translate(654.530131 0)scale(0.996264)"/>
      <use xlink:href="#CMR17-73" transform="translate(705.425501 0)scale(0.996264)"/>
     </g>
    </g>
   </g>
   <g id="matplotlib.axis_2">
    <g id="ytick_1">
     <g id="line2d_10">
      <defs>
       <path id="mbf09869e71" d="M 0 0 
L -3.5 0 
" style="stroke: #000000; stroke-width: 0.8"/>
      </defs>
      <g>
       <use xlink:href="#mbf09869e71" x="37.018347" y="59.159331" style="stroke: #000000; stroke-width: 0.8"/>
      </g>
     </g>
     <g id="text_11">
      <!-- $\mathdefault{5}$ -->
      <g transform="translate(25.037012 62.618581)scale(0.1 -0.1)">
       <defs>
        <path id="CMR17-35" d="M 730 3750 
C 794 3724 1056 3641 1325 3641 
C 1920 3641 2246 3961 2432 4140 
C 2432 4191 2432 4224 2394 4224 
C 2387 4224 2374 4224 2323 4198 
C 2099 4102 1837 4032 1517 4032 
C 1325 4032 1037 4055 723 4191 
C 653 4224 640 4224 634 4224 
C 602 4224 595 4217 595 4090 
L 595 2231 
C 595 2113 595 2080 659 2080 
C 691 2080 704 2093 736 2139 
C 941 2435 1222 2560 1542 2560 
C 1766 2560 2246 2415 2246 1293 
C 2246 1087 2246 716 2054 422 
C 1894 159 1645 25 1370 25 
C 947 25 518 319 403 812 
C 429 806 480 793 506 793 
C 589 793 749 838 749 1036 
C 749 1209 627 1280 506 1280 
C 358 1280 262 1190 262 1011 
C 262 454 704 -128 1382 -128 
C 2042 -128 2669 441 2669 1267 
C 2669 2054 2170 2662 1549 2662 
C 1222 2662 947 2540 730 2304 
L 730 3750 
z
" transform="scale(0.015625)"/>
       </defs>
       <use xlink:href="#CMR17-35" transform="scale(0.996264)"/>
      </g>
     </g>
    </g>
    <g id="ytick_2">
     <g id="line2d_11">
      <g>
       <use xlink:href="#mbf09869e71" x="37.018347" y="12.237488" style="stroke: #000000; stroke-width: 0.8"/>
      </g>
     </g>
     <g id="text_12">
      <!-- $\mathdefault{10}$ -->
      <g transform="translate(20.055677 15.696737)scale(0.1 -0.1)">
       <defs>
        <path id="CMR17-30" d="M 2688 2038 
C 2688 2430 2682 3099 2413 3613 
C 2176 4063 1798 4224 1466 4224 
C 1158 4224 768 4082 525 3620 
C 269 3137 243 2539 243 2038 
C 243 1671 250 1112 448 623 
C 723 -39 1216 -128 1466 -128 
C 1760 -128 2208 -7 2470 604 
C 2662 1048 2688 1568 2688 2038 
z
M 1466 -26 
C 1056 -26 813 328 723 816 
C 653 1196 653 1749 653 2109 
C 653 2604 653 3015 736 3407 
C 858 3954 1216 4121 1466 4121 
C 1728 4121 2067 3947 2189 3420 
C 2272 3054 2278 2623 2278 2109 
C 2278 1691 2278 1176 2202 797 
C 2067 96 1690 -26 1466 -26 
z
" transform="scale(0.015625)"/>
       </defs>
       <use xlink:href="#CMR17-31" transform="scale(0.996264)"/>
       <use xlink:href="#CMR17-30" transform="translate(45.690477 0)scale(0.996264)"/>
      </g>
     </g>
    </g>
    <g id="text_13">
     <!-- $\mathrm{Speed{\mbox{-}}up}$ -->
     <g transform="translate(14.118498 74.828692)rotate(-90)scale(0.1 -0.1)">
      <defs>
       <path id="CMR17-53" d="M 2803 4351 
C 2803 4467 2797 4473 2758 4473 
C 2720 4473 2707 4447 2682 4390 
L 2490 3965 
C 2246 4320 1875 4480 1472 4480 
C 819 4480 294 3958 294 3301 
C 294 3101 339 2817 557 2546 
C 794 2250 1018 2198 1530 2063 
C 1722 2011 2042 1927 2106 1901 
C 2470 1747 2662 1360 2662 999 
C 2662 534 2336 38 1779 38 
C 1094 38 454 425 410 1328 
C 403 1431 397 1437 352 1437 
C 301 1437 294 1431 294 1302 
L 294 0 
C 294 -116 301 -122 339 -122 
C 384 -122 397 -90 486 109 
C 493 128 493 141 614 386 
C 934 -39 1472 -128 1779 -128 
C 2477 -128 2970 457 2970 1141 
C 2970 1476 2848 1734 2778 1850 
C 2509 2263 2221 2340 1914 2417 
C 1869 2437 1856 2437 1498 2527 
C 1152 2617 1005 2662 845 2836 
C 666 3036 602 3243 602 3449 
C 602 3868 934 4326 1478 4326 
C 2157 4326 2579 3842 2675 3036 
C 2694 2920 2701 2914 2746 2914 
C 2803 2914 2803 2933 2803 3043 
L 2803 4351 
z
" transform="scale(0.015625)"/>
       <path id="CMR17-70" d="M 1408 -1114 
C 998 -1114 973 -1088 973 -834 
L 973 380 
C 1158 109 1427 -64 1766 -64 
C 2406 -64 3053 503 3053 1382 
C 3053 2196 2496 2816 1837 2816 
C 1453 2816 1139 2603 960 2345 
L 960 2816 
L 198 2745 
L 198 2577 
C 576 2577 634 2539 634 2228 
L 634 -834 
C 634 -1081 608 -1114 198 -1114 
L 198 -1280 
C 352 -1268 634 -1268 800 -1268 
C 966 -1268 1254 -1268 1408 -1280 
L 1408 -1114 
z
M 973 2015 
C 973 2106 973 2241 1222 2481 
C 1254 2506 1472 2700 1792 2700 
C 2259 2700 2643 2112 2643 1376 
C 2643 639 2234 38 1728 38 
C 1498 38 1248 148 1056 451 
C 973 594 973 632 973 736 
L 973 2015 
z
" transform="scale(0.015625)"/>
       <path id="CMSS17-2d" d="M 1664 1216 
L 1664 1587 
L 64 1587 
L 64 1216 
L 1664 1216 
z
" transform="scale(0.015625)"/>
      </defs>
      <use xlink:href="#CMR17-53" transform="scale(0.996264)"/>
      <use xlink:href="#CMR17-70" transform="translate(50.89537 0)scale(0.996264)"/>
      <use xlink:href="#CMR17-65" transform="translate(104.393178 0)scale(0.996264)"/>
      <use xlink:href="#CMR17-65" transform="translate(144.878839 0)scale(0.996264)"/>
      <use xlink:href="#CMR17-64" transform="translate(185.364499 0)scale(0.996264)"/>
      <use xlink:href="#CMSS17-2d" transform="translate(236.259869 0)scale(0.996264)"/>
      <use xlink:href="#CMR17-75" transform="translate(267.488982 0)scale(0.996264)"/>
      <use xlink:href="#CMR17-70" transform="translate(318.384352 0)scale(0.996264)"/>
     </g>
    </g>
   </g>
   <g id="LineCollection_1">
    <path d="M 47.116393 96.696806 
L 52.094303 96.696806 
" clip-path="url(#p1e764a4e86)" style="fill: none; stroke: #000000; stroke-width: 1.5"/>
    <path d="M 75.561593 85.944777 
L 80.539503 85.944777 
" clip-path="url(#p1e764a4e86)" style="fill: none; stroke: #000000; stroke-width: 1.5"/>
    <path d="M 104.006792 56.781166 
L 108.984702 56.781166 
" clip-path="url(#p1e764a4e86)" style="fill: none; stroke: #000000; stroke-width: 1.5"/>
    <path d="M 120.646168 51.626104 
L 125.624077 51.626104 
" clip-path="url(#p1e764a4e86)" style="fill: none; stroke: #000000; stroke-width: 1.5"/>
    <path d="M 132.451992 47.2554 
L 137.429902 47.2554 
" clip-path="url(#p1e764a4e86)" style="fill: none; stroke: #000000; stroke-width: 1.5"/>
    <path d="M 149.091367 37.974618 
L 154.069277 37.974618 
" clip-path="url(#p1e764a4e86)" style="fill: none; stroke: #000000; stroke-width: 1.5"/>
    <path d="M 160.897192 30.444958 
L 165.875102 30.444958 
" clip-path="url(#p1e764a4e86)" style="fill: none; stroke: #000000; stroke-width: 1.5"/>
    <path d="M 177.536567 21.692296 
L 182.514477 21.692296 
" clip-path="url(#p1e764a4e86)" style="fill: none; stroke: #000000; stroke-width: 1.5"/>
    <path d="M 189.342391 11.524091 
L 194.320301 11.524091 
" clip-path="url(#p1e764a4e86)" style="fill: none; stroke: #000000; stroke-width: 1.5"/>
   </g>
   <g id="LineCollection_2">
    <path d="M 47.116393 96.696806 
L 52.094303 96.696806 
" clip-path="url(#p1e764a4e86)" style="fill: none; stroke: #000000; stroke-width: 1.5"/>
    <path d="M 75.561593 96.262397 
L 80.539503 96.262397 
" clip-path="url(#p1e764a4e86)" style="fill: none; stroke: #000000; stroke-width: 1.5"/>
    <path d="M 104.006792 93.284446 
L 108.984702 93.284446 
" clip-path="url(#p1e764a4e86)" style="fill: none; stroke: #000000; stroke-width: 1.5"/>
    <path d="M 120.646168 93.156856 
L 125.624077 93.156856 
" clip-path="url(#p1e764a4e86)" style="fill: none; stroke: #000000; stroke-width: 1.5"/>
    <path d="M 132.451992 91.821475 
L 137.429902 91.821475 
" clip-path="url(#p1e764a4e86)" style="fill: none; stroke: #000000; stroke-width: 1.5"/>
    <path d="M 149.091367 92.973506 
L 154.069277 92.973506 
" clip-path="url(#p1e764a4e86)" style="fill: none; stroke: #000000; stroke-width: 1.5"/>
    <path d="M 160.897192 95.375447 
L 165.875102 95.375447 
" clip-path="url(#p1e764a4e86)" style="fill: none; stroke: #000000; stroke-width: 1.5"/>
    <path d="M 177.536567 94.298882 
L 182.514477 94.298882 
" clip-path="url(#p1e764a4e86)" style="fill: none; stroke: #000000; stroke-width: 1.5"/>
    <path d="M 189.342391 98.005909 
L 194.320301 98.005909 
" clip-path="url(#p1e764a4e86)" style="fill: none; stroke: #000000; stroke-width: 1.5"/>
   </g>
   <g id="LineCollection_3">
    <path d="M 49.605348 96.696806 
L 49.605348 96.696806 
" clip-path="url(#p1e764a4e86)" style="fill: none; stroke: #000000; stroke-width: 1.5"/>
    <path d="M 78.050548 96.262397 
L 78.050548 85.944777 
" clip-path="url(#p1e764a4e86)" style="fill: none; stroke: #000000; stroke-width: 1.5"/>
    <path d="M 106.495747 93.284446 
L 106.495747 56.781166 
" clip-path="url(#p1e764a4e86)" style="fill: none; stroke: #000000; stroke-width: 1.5"/>
    <path d="M 123.135123 93.156856 
L 123.135123 51.626104 
" clip-path="url(#p1e764a4e86)" style="fill: none; stroke: #000000; stroke-width: 1.5"/>
    <path d="M 134.940947 91.821475 
L 134.940947 47.2554 
" clip-path="url(#p1e764a4e86)" style="fill: none; stroke: #000000; stroke-width: 1.5"/>
    <path d="M 151.580322 92.973506 
L 151.580322 37.974618 
" clip-path="url(#p1e764a4e86)" style="fill: none; stroke: #000000; stroke-width: 1.5"/>
    <path d="M 163.386147 95.375447 
L 163.386147 30.444958 
" clip-path="url(#p1e764a4e86)" style="fill: none; stroke: #000000; stroke-width: 1.5"/>
    <path d="M 180.025522 94.298882 
L 180.025522 21.692296 
" clip-path="url(#p1e764a4e86)" style="fill: none; stroke: #000000; stroke-width: 1.5"/>
    <path d="M 191.831346 98.005909 
L 191.831346 11.524091 
" clip-path="url(#p1e764a4e86)" style="fill: none; stroke: #000000; stroke-width: 1.5"/>
   </g>
   <g id="LineCollection_4">
    <path d="M 47.116393 96.696806 
L 52.094303 96.696806 
" clip-path="url(#p1e764a4e86)" style="fill: none; stroke: #000000; stroke-width: 1.5"/>
    <path d="M 75.561593 90.072409 
L 80.539503 90.072409 
" clip-path="url(#p1e764a4e86)" style="fill: none; stroke: #000000; stroke-width: 1.5"/>
    <path d="M 104.006792 82.655486 
L 108.984702 82.655486 
" clip-path="url(#p1e764a4e86)" style="fill: none; stroke: #000000; stroke-width: 1.5"/>
    <path d="M 120.646168 79.556551 
L 125.624077 79.556551 
" clip-path="url(#p1e764a4e86)" style="fill: none; stroke: #000000; stroke-width: 1.5"/>
    <path d="M 132.451992 76.231724 
L 137.429902 76.231724 
" clip-path="url(#p1e764a4e86)" style="fill: none; stroke: #000000; stroke-width: 1.5"/>
    <path d="M 149.091367 77.54932 
L 154.069277 77.54932 
" clip-path="url(#p1e764a4e86)" style="fill: none; stroke: #000000; stroke-width: 1.5"/>
    <path d="M 160.897192 76.532983 
L 165.875102 76.532983 
" clip-path="url(#p1e764a4e86)" style="fill: none; stroke: #000000; stroke-width: 1.5"/>
    <path d="M 177.536567 76.117231 
L 182.514477 76.117231 
" clip-path="url(#p1e764a4e86)" style="fill: none; stroke: #000000; stroke-width: 1.5"/>
    <path d="M 189.342391 76.825835 
L 194.320301 76.825835 
" clip-path="url(#p1e764a4e86)" style="fill: none; stroke: #000000; stroke-width: 1.5"/>
   </g>
   <g id="line2d_12">
    <path d="M 37.018347 96.696806 
L 204.418347 96.696806 
" clip-path="url(#p1e764a4e86)" style="fill: none; stroke-dasharray: 3.7,1.6; stroke-dashoffset: 0; stroke: #000000"/>
   </g>
   <g id="patch_3">
    <path d="M 37.018347 102.33 
L 37.018347 7.2 
" style="fill: none; stroke: #000000; stroke-width: 0.8; stroke-linejoin: miter; stroke-linecap: square"/>
   </g>
   <g id="patch_4">
    <path d="M 204.418347 102.33 
L 204.418347 7.2 
" style="fill: none; stroke: #000000; stroke-width: 0.8; stroke-linejoin: miter; stroke-linecap: square"/>
   </g>
   <g id="patch_5">
    <path d="M 37.018347 102.33 
L 204.418347 102.33 
" style="fill: none; stroke: #000000; stroke-width: 0.8; stroke-linejoin: miter; stroke-linecap: square"/>
   </g>
   <g id="patch_6">
    <path d="M 37.018347 7.2 
L 204.418347 7.2 
" style="fill: none; stroke: #000000; stroke-width: 0.8; stroke-linejoin: miter; stroke-linecap: square"/>
   </g>
  </g>
 </g>
 <defs>
  <clipPath id="p1e764a4e86">
   <rect x="37.018347" y="7.2" width="167.4" height="95.13"/>
  </clipPath>
 </defs>
</svg>
