<?xml version="1.0" encoding="utf-8" standalone="no"?>
<!DOCTYPE svg PUBLIC "-//W3C//DTD SVG 1.1//EN"
  "http://www.w3.org/Graphics/SVG/1.1/DTD/svg11.dtd">
<svg xmlns:xlink="http://www.w3.org/1999/xlink" width="485.637012pt" height="138.975677pt" viewBox="0 0 485.637012 138.975677" xmlns="http://www.w3.org/2000/svg" version="1.1">
 <metadata>
  <rdf:RDF xmlns:dc="http://purl.org/dc/elements/1.1/" xmlns:cc="http://creativecommons.org/ns#" xmlns:rdf="http://www.w3.org/1999/02/22-rdf-syntax-ns#">
   <cc:Work>
    <dc:type rdf:resource="http://purl.org/dc/dcmitype/StillImage"/>
    <dc:date>2022-03-29T16:08:33.734596</dc:date>
    <dc:format>image/svg+xml</dc:format>
    <dc:creator>
     <cc:Agent>
      <dc:title>Matplotlib v3.5.1, https://matplotlib.org/</dc:title>
     </cc:Agent>
    </dc:creator>
   </cc:Work>
  </rdf:RDF>
 </metadata>
 <defs>
  <style type="text/css">*{stroke-linejoin: round; stroke-linecap: butt}</style>
 </defs>
 <g id="figure_1">
  <g id="patch_1">
   <path d="M 0 138.975677 
L 485.637012 138.975677 
L 485.637012 0 
L 0 0 
L 0 138.975677 
z
" style="fill: none"/>
  </g>
  <g id="axes_1">
   <g id="patch_2">
    <path d="M 32.037012 115.92 
L 478.437012 115.92 
L 478.437012 7.2 
L 32.037012 7.2 
z
" style="fill: #ffffff"/>
   </g>
   <g id="PolyCollection_1">
    <path d="M 116.948819 110.978182 
L 81.357372 110.978182 
L 77.306953 109.979835 
L 72.990534 108.981488 
L 68.591562 107.98314 
L 64.329582 106.984793 
L 60.43915 105.986446 
L 57.143351 104.988099 
L 54.626016 103.989752 
L 53.007423 102.991405 
L 52.327921 101.993058 
L 52.542499 100.994711 
L 53.527211 99.996364 
L 55.096135 98.998017 
L 57.025706 97.999669 
L 59.082265 97.001322 
L 61.048617 96.002975 
L 62.746173 95.004628 
L 64.050475 94.006281 
L 64.899208 93.007934 
L 65.29287 92.009587 
L 65.289024 91.01124 
L 64.991411 90.012893 
L 64.535441 89.014545 
L 64.071643 88.016198 
L 63.748752 87.017851 
L 63.698069 86.019504 
L 64.020649 85.021157 
L 64.778541 84.02281 
L 65.990878 83.024463 
L 67.635009 82.026116 
L 69.652269 81.027769 
L 71.957385 80.029421 
L 74.450066 79.031074 
L 77.027066 78.032727 
L 79.593005 77.03438 
L 82.068516 76.036033 
L 84.394859 75.037686 
L 86.534805 74.039339 
L 88.470361 73.040992 
L 90.198391 72.042645 
L 91.725449 71.044298 
L 93.063019 70.04595 
L 94.223978 69.047603 
L 95.220593 68.049256 
L 96.063891 67.050909 
L 96.763956 66.052562 
L 97.33061 65.054215 
L 97.774038 64.055868 
L 98.10512 63.057521 
L 98.33546 62.059174 
L 98.477219 61.060826 
L 98.542938 60.062479 
L 98.545465 59.064132 
L 98.498019 58.065785 
L 98.414307 57.067438 
L 98.308529 56.069091 
L 98.195135 55.070744 
L 98.088229 54.072397 
L 98.000658 53.07405 
L 97.942912 52.075702 
L 97.922088 51.077355 
L 97.941161 50.079008 
L 97.998786 49.080661 
L 98.089689 48.082314 
L 98.205629 47.083967 
L 98.336714 46.08562 
L 98.472834 45.087273 
L 98.604938 44.088926 
L 98.725946 43.090579 
L 98.831213 42.092231 
L 98.918533 41.093884 
L 98.987797 40.095537 
L 99.040442 39.09719 
L 99.078836 38.098843 
L 99.105721 37.100496 
L 99.123786 36.102149 
L 99.135376 35.103802 
L 99.142347 34.105455 
L 99.146001 33.107107 
L 99.147077 32.10876 
L 99.145738 31.110413 
L 99.14154 30.112066 
L 99.133354 29.113719 
L 99.119259 28.115372 
L 99.096426 27.117025 
L 99.061053 26.118678 
L 99.008416 25.120331 
L 98.933129 24.121983 
L 98.829672 23.123636 
L 98.693225 22.125289 
L 98.520767 21.126942 
L 98.312298 20.128595 
L 98.071957 19.130248 
L 97.808744 18.131901 
L 97.536559 17.133554 
L 97.273347 16.135207 
L 97.039338 15.13686 
L 96.854556 14.138512 
L 96.736022 13.140165 
L 96.695167 12.141818 
L 101.611025 12.141818 
L 101.611025 12.141818 
L 101.57017 13.140165 
L 101.451635 14.138512 
L 101.266854 15.13686 
L 101.032845 16.135207 
L 100.769633 17.133554 
L 100.497448 18.131901 
L 100.234235 19.130248 
L 99.993893 20.128595 
L 99.785424 21.126942 
L 99.612967 22.125289 
L 99.47652 23.123636 
L 99.373062 24.121983 
L 99.297775 25.120331 
L 99.245139 26.118678 
L 99.209766 27.117025 
L 99.186933 28.115372 
L 99.172838 29.113719 
L 99.164652 30.112066 
L 99.160454 31.110413 
L 99.159115 32.10876 
L 99.160191 33.107107 
L 99.163845 34.105455 
L 99.170816 35.103802 
L 99.182406 36.102149 
L 99.20047 37.100496 
L 99.227356 38.098843 
L 99.26575 39.09719 
L 99.318395 40.095537 
L 99.387659 41.093884 
L 99.474979 42.092231 
L 99.580246 43.090579 
L 99.701254 44.088926 
L 99.833357 45.087273 
L 99.969478 46.08562 
L 100.100563 47.083967 
L 100.216502 48.082314 
L 100.307406 49.080661 
L 100.36503 50.079008 
L 100.384104 51.077355 
L 100.363279 52.075702 
L 100.305533 53.07405 
L 100.217962 54.072397 
L 100.111057 55.070744 
L 99.997663 56.069091 
L 99.891885 57.067438 
L 99.808173 58.065785 
L 99.760727 59.064132 
L 99.763254 60.062479 
L 99.828972 61.060826 
L 99.970732 62.059174 
L 100.201072 63.057521 
L 100.532154 64.055868 
L 100.975581 65.054215 
L 101.542235 66.052562 
L 102.2423 67.050909 
L 103.085598 68.049256 
L 104.082213 69.047603 
L 105.243173 70.04595 
L 106.580743 71.044298 
L 108.107801 72.042645 
L 109.83583 73.040992 
L 111.771387 74.039339 
L 113.911333 75.037686 
L 116.237675 76.036033 
L 118.713187 77.03438 
L 121.279125 78.032727 
L 123.856126 79.031074 
L 126.348807 80.029421 
L 128.653923 81.027769 
L 130.671183 82.026116 
L 132.315313 83.024463 
L 133.527651 84.02281 
L 134.285543 85.021157 
L 134.608123 86.019504 
L 134.55744 87.017851 
L 134.234548 88.016198 
L 133.770751 89.014545 
L 133.314781 90.012893 
L 133.017168 91.01124 
L 133.013322 92.009587 
L 133.406984 93.007934 
L 134.255716 94.006281 
L 135.560019 95.004628 
L 137.257574 96.002975 
L 139.223926 97.001322 
L 141.280486 97.999669 
L 143.210057 98.998017 
L 144.778981 99.996364 
L 145.763692 100.994711 
L 145.978271 101.993058 
L 145.298769 102.991405 
L 143.680176 103.989752 
L 141.162841 104.988099 
L 137.867042 105.986446 
L 133.976609 106.984793 
L 129.714629 107.98314 
L 125.315658 108.981488 
L 120.999239 109.979835 
L 116.948819 110.978182 
z
" clip-path="url(#p299d788645)" style="fill: #ff0000; fill-opacity: 0.3"/>
   </g>
   <g id="PolyCollection_2">
    <path d="M 248.117542 110.978182 
L 158.300538 110.978182 
L 156.982759 110.256361 
L 156.383865 109.53454 
L 156.495874 108.812719 
L 157.270727 108.090898 
L 158.625922 107.369077 
L 160.453159 106.647256 
L 162.628853 105.925435 
L 165.025193 105.203614 
L 167.520512 104.481794 
L 170.007888 103.759973 
L 172.401295 103.038152 
L 174.638961 102.316331 
L 176.684003 101.59451 
L 178.522689 100.872689 
L 180.160901 100.150868 
L 181.619438 99.429047 
L 182.928821 98.707226 
L 184.124156 97.985405 
L 185.240509 97.263584 
L 186.309104 96.541763 
L 187.35452 95.819943 
L 188.392961 95.098122 
L 189.431584 94.376301 
L 190.468787 93.65448 
L 191.495333 92.932659 
L 192.49612 92.210838 
L 193.452383 91.489017 
L 194.344119 90.767196 
L 195.152485 90.045375 
L 195.861955 89.323554 
L 196.462054 88.601733 
L 196.948511 87.879912 
L 197.323752 87.158091 
L 197.596708 86.436271 
L 197.781989 85.71445 
L 197.898522 84.992629 
L 197.967824 84.270808 
L 198.012076 83.548987 
L 198.052228 82.827166 
L 198.106301 82.105345 
L 198.188056 81.383524 
L 198.306153 80.661703 
L 198.463833 79.939882 
L 198.659134 79.218061 
L 198.885558 78.49624 
L 199.133072 77.77442 
L 199.389311 77.052599 
L 199.640801 76.330778 
L 199.874105 75.608957 
L 200.076753 74.887136 
L 200.237933 74.165315 
L 200.348919 73.443494 
L 200.403289 72.721673 
L 200.396991 71.999852 
L 200.328337 71.278031 
L 200.197989 70.55621 
L 200.008977 69.834389 
L 199.766761 69.112569 
L 199.479289 68.390748 
L 199.157013 67.668927 
L 198.812787 66.947106 
L 198.461581 66.225285 
L 198.119963 65.503464 
L 197.805352 64.781643 
L 197.535059 64.059822 
L 197.325198 63.338001 
L 197.189549 62.61618 
L 197.138521 61.894359 
L 197.178301 61.172538 
L 197.310326 60.450718 
L 197.531118 59.728897 
L 197.832535 59.007076 
L 198.202406 58.285255 
L 198.625486 57.563434 
L 199.084628 56.841613 
L 199.562054 56.119792 
L 200.040579 55.397971 
L 200.50469 54.67615 
L 200.941365 53.954329 
L 201.340597 53.232508 
L 201.695594 52.510687 
L 202.002697 51.788866 
L 202.261049 51.067046 
L 202.472114 50.345225 
L 202.639106 49.623404 
L 202.766421 48.901583 
L 202.859114 48.179762 
L 202.922475 47.457941 
L 202.961715 46.73612 
L 202.981758 46.014299 
L 202.98713 45.292478 
L 202.981913 44.570657 
L 202.96974 43.848836 
L 202.953803 43.127015 
L 202.936863 42.405195 
L 202.921247 41.683374 
L 202.908834 40.961553 
L 202.901032 40.239732 
L 202.898758 39.517911 
L 203.519322 39.517911 
L 203.519322 39.517911 
L 203.517048 40.239732 
L 203.509245 40.961553 
L 203.496833 41.683374 
L 203.481217 42.405195 
L 203.464277 43.127015 
L 203.44834 43.848836 
L 203.436166 44.570657 
L 203.43095 45.292478 
L 203.436322 46.014299 
L 203.456365 46.73612 
L 203.495605 47.457941 
L 203.558966 48.179762 
L 203.651659 48.901583 
L 203.778973 49.623404 
L 203.945966 50.345225 
L 204.15703 51.067046 
L 204.415383 51.788866 
L 204.722485 52.510687 
L 205.077483 53.232508 
L 205.476715 53.954329 
L 205.91339 54.67615 
L 206.377501 55.397971 
L 206.856026 56.119792 
L 207.333452 56.841613 
L 207.792594 57.563434 
L 208.215674 58.285255 
L 208.585545 59.007076 
L 208.886962 59.728897 
L 209.107754 60.450718 
L 209.239778 61.172538 
L 209.279559 61.894359 
L 209.228531 62.61618 
L 209.092882 63.338001 
L 208.88302 64.059822 
L 208.612728 64.781643 
L 208.298117 65.503464 
L 207.956499 66.225285 
L 207.605292 66.947106 
L 207.261067 67.668927 
L 206.938791 68.390748 
L 206.651319 69.112569 
L 206.409103 69.834389 
L 206.220091 70.55621 
L 206.089743 71.278031 
L 206.021088 71.999852 
L 206.014791 72.721673 
L 206.069161 73.443494 
L 206.180147 74.165315 
L 206.341327 74.887136 
L 206.543975 75.608957 
L 206.777279 76.330778 
L 207.028769 77.052599 
L 207.285008 77.77442 
L 207.532522 78.49624 
L 207.758946 79.218061 
L 207.954247 79.939882 
L 208.111927 80.661703 
L 208.230024 81.383524 
L 208.311779 82.105345 
L 208.365852 82.827166 
L 208.406004 83.548987 
L 208.450256 84.270808 
L 208.519558 84.992629 
L 208.636091 85.71445 
L 208.821372 86.436271 
L 209.094328 87.158091 
L 209.469569 87.879912 
L 209.956026 88.601733 
L 210.556125 89.323554 
L 211.265595 90.045375 
L 212.073961 90.767196 
L 212.965697 91.489017 
L 213.92196 92.210838 
L 214.922747 92.932659 
L 215.949293 93.65448 
L 216.986496 94.376301 
L 218.025118 95.098122 
L 219.06356 95.819943 
L 220.108976 96.541763 
L 221.177571 97.263584 
L 222.293924 97.985405 
L 223.489259 98.707226 
L 224.798642 99.429047 
L 226.257179 100.150868 
L 227.895391 100.872689 
L 229.734077 101.59451 
L 231.779119 102.316331 
L 234.016785 103.038152 
L 236.410192 103.759973 
L 238.897568 104.481794 
L 241.392887 105.203614 
L 243.789227 105.925435 
L 245.96492 106.647256 
L 247.792158 107.369077 
L 249.147353 108.090898 
L 249.922205 108.812719 
L 250.034215 109.53454 
L 249.435321 110.256361 
L 248.117542 110.978182 
z
" clip-path="url(#p299d788645)" style="fill: #ff0000; fill-opacity: 0.3"/>
   </g>
   <g id="PolyCollection_3">
    <path d="M 314.939505 110.978182 
L 299.590463 110.978182 
L 298.971016 110.755107 
L 298.293358 110.532033 
L 297.505161 110.308959 
L 296.550178 110.085884 
L 295.375825 109.86281 
L 293.941095 109.639736 
L 292.22356 109.416661 
L 290.224287 109.193587 
L 287.969796 108.970513 
L 285.510666 108.747438 
L 282.916906 108.524364 
L 280.270743 108.30129 
L 277.657896 108.078215 
L 275.158618 107.855141 
L 272.839835 107.632067 
L 270.749493 107.408992 
L 268.913844 107.185918 
L 267.337863 106.962844 
L 266.00847 106.739769 
L 264.899721 106.516695 
L 263.978872 106.293621 
L 263.212159 106.070546 
L 262.569372 105.847472 
L 262.026715 105.624398 
L 261.567938 105.401323 
L 261.184194 105.178249 
L 260.873258 104.955175 
L 260.63874 104.7321 
L 260.489595 104.509026 
L 260.439809 104.285952 
L 260.507766 104.062877 
L 260.714629 103.839803 
L 261.081251 103.616729 
L 261.623603 103.393654 
L 262.347397 103.17058 
L 263.243159 102.947506 
L 264.283334 102.724431 
L 265.422841 102.501357 
L 266.603815 102.278283 
L 267.764283 102.055208 
L 268.849379 101.832134 
L 269.822838 101.60906 
L 270.67613 101.385985 
L 271.432916 101.162911 
L 272.147396 100.939837 
L 272.896507 100.716762 
L 273.767291 100.493688 
L 274.841892 100.270614 
L 276.18316 100.047539 
L 277.823676 99.824465 
L 279.760161 99.601391 
L 281.954035 99.378316 
L 284.337558 99.155242 
L 286.823929 98.932168 
L 289.319113 98.709093 
L 291.733174 98.486019 
L 293.989313 98.262945 
L 296.029602 98.03987 
L 297.817243 97.816796 
L 299.335847 97.593722 
L 300.586664 97.370647 
L 301.584777 97.147573 
L 302.355112 96.924499 
L 302.92885 96.701424 
L 303.340427 96.47835 
L 303.625138 96.255276 
L 303.817162 96.032201 
L 303.947852 95.809127 
L 304.044195 95.586053 
L 304.127496 95.362978 
L 304.212374 95.139904 
L 304.306269 94.91683 
L 304.409599 94.693756 
L 304.516619 94.470681 
L 304.616962 94.247607 
L 304.697692 94.024533 
L 304.745634 93.801458 
L 304.749689 93.578384 
L 304.702839 93.35531 
L 304.603586 93.132235 
L 304.45665 92.909161 
L 304.272806 92.686087 
L 304.067896 92.463012 
L 303.861117 92.239938 
L 303.672804 92.016864 
L 303.522022 91.793789 
L 303.424293 91.570715 
L 303.389831 91.347641 
L 303.422528 91.124566 
L 303.519877 90.901492 
L 303.673795 90.678418 
L 303.872203 90.455343 
L 304.10103 90.232269 
L 304.346271 90.009195 
L 304.595746 89.78612 
L 304.840262 89.563046 
L 305.074062 89.339972 
L 305.294594 89.116897 
L 305.501746 88.893823 
L 309.028222 88.893823 
L 309.028222 88.893823 
L 309.235374 89.116897 
L 309.455906 89.339972 
L 309.689706 89.563046 
L 309.934222 89.78612 
L 310.183697 90.009195 
L 310.428938 90.232269 
L 310.657765 90.455343 
L 310.856173 90.678418 
L 311.010091 90.901492 
L 311.10744 91.124566 
L 311.140137 91.347641 
L 311.105675 91.570715 
L 311.007946 91.793789 
L 310.857164 92.016864 
L 310.668851 92.239938 
L 310.462072 92.463012 
L 310.257162 92.686087 
L 310.073318 92.909161 
L 309.926382 93.132235 
L 309.827129 93.35531 
L 309.780279 93.578384 
L 309.784334 93.801458 
L 309.832276 94.024533 
L 309.913006 94.247607 
L 310.013349 94.470681 
L 310.120369 94.693756 
L 310.223699 94.91683 
L 310.317594 95.139904 
L 310.402472 95.362978 
L 310.485773 95.586053 
L 310.582116 95.809127 
L 310.712806 96.032201 
L 310.90483 96.255276 
L 311.189541 96.47835 
L 311.601118 96.701424 
L 312.174855 96.924499 
L 312.945191 97.147573 
L 313.943304 97.370647 
L 315.194121 97.593722 
L 316.712725 97.816796 
L 318.500366 98.03987 
L 320.540655 98.262945 
L 322.796794 98.486019 
L 325.210855 98.709093 
L 327.706039 98.932168 
L 330.19241 99.155242 
L 332.575933 99.378316 
L 334.769807 99.601391 
L 336.706292 99.824465 
L 338.346808 100.047539 
L 339.688076 100.270614 
L 340.762677 100.493688 
L 341.633461 100.716762 
L 342.382572 100.939837 
L 343.097052 101.162911 
L 343.853838 101.385985 
L 344.70713 101.60906 
L 345.680589 101.832134 
L 346.765685 102.055208 
L 347.926153 102.278283 
L 349.107127 102.501357 
L 350.246634 102.724431 
L 351.286809 102.947506 
L 352.182571 103.17058 
L 352.906365 103.393654 
L 353.448717 103.616729 
L 353.815339 103.839803 
L 354.022202 104.062877 
L 354.090159 104.285952 
L 354.040372 104.509026 
L 353.891228 104.7321 
L 353.65671 104.955175 
L 353.345774 105.178249 
L 352.96203 105.401323 
L 352.503253 105.624398 
L 351.960596 105.847472 
L 351.317809 106.070546 
L 350.551096 106.293621 
L 349.630247 106.516695 
L 348.521498 106.739769 
L 347.192105 106.962844 
L 345.616124 107.185918 
L 343.780475 107.408992 
L 341.690133 107.632067 
L 339.37135 107.855141 
L 336.872072 108.078215 
L 334.259225 108.30129 
L 331.613062 108.524364 
L 329.019302 108.747438 
L 326.560172 108.970513 
L 324.305681 109.193587 
L 322.306408 109.416661 
L 320.588873 109.639736 
L 319.154143 109.86281 
L 317.97979 110.085884 
L 317.024807 110.308959 
L 316.23661 110.532033 
L 315.558952 110.755107 
L 314.939505 110.978182 
z
" clip-path="url(#p299d788645)" style="fill: #ff0000; fill-opacity: 0.3"/>
   </g>
   <g id="PolyCollection_4">
    <path d="M 439.355144 110.978182 
L 383.286712 110.978182 
L 379.867018 110.170964 
L 376.547269 109.363746 
L 373.436304 108.556529 
L 370.643147 107.749311 
L 368.270831 106.942093 
L 366.410303 106.134876 
L 365.13489 105.327658 
L 364.495753 104.52044 
L 364.518691 103.713223 
L 365.202509 102.906005 
L 366.51907 102.098787 
L 368.414983 101.29157 
L 370.814792 100.484352 
L 373.625396 99.677134 
L 376.741376 98.869917 
L 380.050812 98.062699 
L 383.441177 97.255481 
L 386.804901 96.448263 
L 390.04422 95.641046 
L 393.07504 94.833828 
L 395.829615 94.02661 
L 398.257994 93.219393 
L 400.32829 92.412175 
L 402.025918 91.604957 
L 403.352055 90.79774 
L 404.32156 89.990522 
L 404.960633 89.183304 
L 405.304403 88.376087 
L 405.394611 87.568869 
L 405.277453 86.761651 
L 405.001602 85.954434 
L 404.616386 85.147216 
L 404.170055 84.339998 
L 403.708133 83.53278 
L 403.271819 82.725563 
L 402.896499 81.918345 
L 402.610432 81.111127 
L 402.433732 80.30391 
L 402.377761 79.496692 
L 402.445037 78.689474 
L 402.629725 77.882257 
L 402.918711 77.075039 
L 403.293196 76.267821 
L 403.730684 75.460604 
L 404.207167 74.653386 
L 404.699288 73.846168 
L 405.186271 73.038951 
L 405.651408 72.231733 
L 406.082981 71.424515 
L 406.474534 70.617297 
L 406.824523 69.81008 
L 407.135442 69.002862 
L 407.412565 68.195644 
L 407.662502 67.388427 
L 407.891782 66.581209 
L 408.105627 65.773991 
L 408.307078 64.966774 
L 408.496541 64.159556 
L 408.67179 63.352338 
L 408.828382 62.545121 
L 408.960405 61.737903 
L 409.061434 60.930685 
L 409.125573 60.123468 
L 409.148445 59.31625 
L 409.128016 58.509032 
L 409.065166 57.701815 
L 408.963947 56.894597 
L 408.831503 56.087379 
L 408.677669 55.280161 
L 408.514271 54.472944 
L 408.354221 53.665726 
L 408.210473 52.858508 
L 408.094958 52.051291 
L 408.017588 51.244073 
L 407.985442 50.436855 
L 408.002207 49.629638 
L 408.06793 48.82242 
L 408.179096 48.015202 
L 408.329041 47.207985 
L 408.508614 46.400767 
L 408.707054 45.593549 
L 408.91296 44.786332 
L 409.115265 43.979114 
L 409.304121 43.171896 
L 409.471621 42.364678 
L 409.612288 41.557461 
L 409.723318 40.750243 
L 409.804574 39.943025 
L 409.858343 39.135808 
L 409.888915 38.32859 
L 409.902022 37.521372 
L 409.904222 36.714155 
L 409.902257 35.906937 
L 409.902481 35.099719 
L 409.910362 34.292502 
L 409.930128 33.485284 
L 409.964544 32.678066 
L 410.014848 31.870849 
L 410.080813 31.063631 
L 412.561043 31.063631 
L 412.561043 31.063631 
L 412.627008 31.870849 
L 412.677312 32.678066 
L 412.711728 33.485284 
L 412.731494 34.292502 
L 412.739375 35.099719 
L 412.739599 35.906937 
L 412.737634 36.714155 
L 412.739834 37.521372 
L 412.752941 38.32859 
L 412.783513 39.135808 
L 412.837283 39.943025 
L 412.918538 40.750243 
L 413.029569 41.557461 
L 413.170235 42.364678 
L 413.337735 43.171896 
L 413.526591 43.979114 
L 413.728896 44.786332 
L 413.934802 45.593549 
L 414.133242 46.400767 
L 414.312815 47.207985 
L 414.46276 48.015202 
L 414.573927 48.82242 
L 414.639649 49.629638 
L 414.656414 50.436855 
L 414.624268 51.244073 
L 414.546898 52.051291 
L 414.431383 52.858508 
L 414.287635 53.665726 
L 414.127585 54.472944 
L 413.964187 55.280161 
L 413.810353 56.087379 
L 413.67791 56.894597 
L 413.57669 57.701815 
L 413.51384 58.509032 
L 413.493411 59.31625 
L 413.516283 60.123468 
L 413.580422 60.930685 
L 413.681451 61.737903 
L 413.813474 62.545121 
L 413.970066 63.352338 
L 414.145315 64.159556 
L 414.334778 64.966774 
L 414.536229 65.773991 
L 414.750075 66.581209 
L 414.979354 67.388427 
L 415.229291 68.195644 
L 415.506414 69.002862 
L 415.817333 69.81008 
L 416.167322 70.617297 
L 416.558875 71.424515 
L 416.990448 72.231733 
L 417.455586 73.038951 
L 417.942568 73.846168 
L 418.434689 74.653386 
L 418.911172 75.460604 
L 419.34866 76.267821 
L 419.723145 77.075039 
L 420.012131 77.882257 
L 420.196819 78.689474 
L 420.264095 79.496692 
L 420.208124 80.30391 
L 420.031424 81.111127 
L 419.745357 81.918345 
L 419.370037 82.725563 
L 418.933723 83.53278 
L 418.471801 84.339998 
L 418.02547 85.147216 
L 417.640254 85.954434 
L 417.364403 86.761651 
L 417.247245 87.568869 
L 417.337453 88.376087 
L 417.681223 89.183304 
L 418.320296 89.990522 
L 419.289801 90.79774 
L 420.615938 91.604957 
L 422.313566 92.412175 
L 424.383862 93.219393 
L 426.812241 94.02661 
L 429.566816 94.833828 
L 432.597636 95.641046 
L 435.836956 96.448263 
L 439.200679 97.255481 
L 442.591044 98.062699 
L 445.90048 98.869917 
L 449.01646 99.677134 
L 451.827064 100.484352 
L 454.226873 101.29157 
L 456.122786 102.098787 
L 457.439347 102.906005 
L 458.123165 103.713223 
L 458.146103 104.52044 
L 457.506966 105.327658 
L 456.231553 106.134876 
L 454.371025 106.942093 
L 451.998709 107.749311 
L 449.205552 108.556529 
L 446.094587 109.363746 
L 442.774838 110.170964 
L 439.355144 110.978182 
z
" clip-path="url(#p299d788645)" style="fill: #ff0000; fill-opacity: 0.3"/>
   </g>
   <g id="matplotlib.axis_1">
    <g id="xtick_1">
     <g id="line2d_1">
      <defs>
       <path id="mb016f5c4df" d="M 0 0 
L 0 3.5 
" style="stroke: #000000; stroke-width: 0.8"/>
      </defs>
      <g>
       <use xlink:href="#mb016f5c4df" x="99.153096" y="115.92" style="stroke: #000000; stroke-width: 0.8"/>
      </g>
     </g>
     <g id="text_1">
      <!-- $\mathrm{Liu{\mbox{-}}Sun}$ -->
      <g transform="translate(81.925988 129.838498)scale(0.1 -0.1)">
       <defs>
        <path id="CMR17-4c" d="M 3469 1612 
L 3354 1612 
C 3302 981 3219 166 2125 166 
L 1530 166 
C 1274 166 1261 198 1261 414 
L 1261 3892 
C 1261 4121 1274 4185 1760 4185 
L 1901 4185 
L 1901 4352 
C 1638 4339 1331 4339 1069 4339 
C 870 4339 512 4339 326 4352 
L 326 4185 
C 768 4185 838 4185 838 3898 
L 838 453 
C 838 166 768 166 326 166 
L 326 0 
L 3315 0 
L 3469 1612 
z
" transform="scale(0.015625)"/>
        <path id="CMR17-69" d="M 992 3961 
C 992 4102 877 4224 730 4224 
C 589 4224 467 4108 467 3961 
C 467 3820 582 3699 730 3699 
C 870 3699 992 3814 992 3961 
z
M 243 2745 
L 243 2579 
C 602 2579 653 2540 653 2231 
L 653 443 
C 653 198 627 166 218 166 
L 218 0 
C 371 12 646 12 806 12 
C 960 12 1222 12 1370 0 
L 1370 166 
C 992 166 979 205 979 436 
L 979 2816 
L 243 2745 
z
" transform="scale(0.015625)"/>
        <path id="CMR17-75" d="M 1882 2745 
L 1882 2579 
C 2259 2579 2317 2540 2317 2229 
L 2317 1053 
C 2317 510 2029 38 1555 38 
C 1030 38 986 355 986 691 
L 986 2816 
L 211 2745 
L 211 2579 
C 467 2579 640 2579 646 2320 
L 646 1079 
C 646 646 646 368 813 187 
C 896 103 1056 -64 1517 -64 
C 2061 -64 2272 400 2323 536 
L 2330 536 
L 2330 -64 
L 3091 -13 
L 3091 154 
C 2714 154 2656 193 2656 503 
L 2656 2816 
L 1882 2745 
z
" transform="scale(0.015625)"/>
        <path id="CMSS17-2d" d="M 1664 1216 
L 1664 1587 
L 64 1587 
L 64 1216 
L 1664 1216 
z
" transform="scale(0.015625)"/>
        <path id="CMR17-53" d="M 2803 4351 
C 2803 4467 2797 4473 2758 4473 
C 2720 4473 2707 4447 2682 4390 
L 2490 3965 
C 2246 4320 1875 4480 1472 4480 
C 819 4480 294 3958 294 3301 
C 294 3101 339 2817 557 2546 
C 794 2250 1018 2198 1530 2063 
C 1722 2011 2042 1927 2106 1901 
C 2470 1747 2662 1360 2662 999 
C 2662 534 2336 38 1779 38 
C 1094 38 454 425 410 1328 
C 403 1431 397 1437 352 1437 
C 301 1437 294 1431 294 1302 
L 294 0 
C 294 -116 301 -122 339 -122 
C 384 -122 397 -90 486 109 
C 493 128 493 141 614 386 
C 934 -39 1472 -128 1779 -128 
C 2477 -128 2970 457 2970 1141 
C 2970 1476 2848 1734 2778 1850 
C 2509 2263 2221 2340 1914 2417 
C 1869 2437 1856 2437 1498 2527 
C 1152 2617 1005 2662 845 2836 
C 666 3036 602 3243 602 3449 
C 602 3868 934 4326 1478 4326 
C 2157 4326 2579 3842 2675 3036 
C 2694 2920 2701 2914 2746 2914 
C 2803 2914 2803 2933 2803 3043 
L 2803 4351 
z
" transform="scale(0.015625)"/>
        <path id="CMR17-6e" d="M 2656 1954 
C 2656 2282 2592 2816 1837 2816 
C 1331 2816 1069 2424 973 2166 
L 966 2166 
L 966 2816 
L 211 2745 
L 211 2578 
C 589 2578 646 2540 646 2231 
L 646 443 
C 646 198 621 166 211 166 
L 211 0 
C 365 12 646 12 813 12 
C 979 12 1267 12 1421 0 
L 1421 166 
C 1011 166 986 192 986 443 
L 986 1678 
C 986 2269 1344 2713 1792 2713 
C 2266 2713 2317 2289 2317 1980 
L 2317 443 
C 2317 198 2291 166 1882 166 
L 1882 0 
C 2035 12 2317 12 2483 12 
C 2650 12 2938 12 3091 0 
L 3091 166 
C 2682 166 2656 192 2656 443 
L 2656 1954 
z
" transform="scale(0.015625)"/>
       </defs>
       <use xlink:href="#CMR17-4c" transform="scale(0.996264)"/>
       <use xlink:href="#CMR17-69" transform="translate(57.381408 0)scale(0.996264)"/>
       <use xlink:href="#CMR17-75" transform="translate(82.252466 0)scale(0.996264)"/>
       <use xlink:href="#CMSS17-2d" transform="translate(133.147836 0)scale(0.996264)"/>
       <use xlink:href="#CMR17-53" transform="translate(164.376949 0)scale(0.996264)"/>
       <use xlink:href="#CMR17-75" transform="translate(215.272319 0)scale(0.996264)"/>
       <use xlink:href="#CMR17-6e" transform="translate(266.167688 0)scale(0.996264)"/>
      </g>
     </g>
    </g>
    <g id="xtick_2">
     <g id="line2d_2">
      <g>
       <use xlink:href="#mb016f5c4df" x="203.20904" y="115.92" style="stroke: #000000; stroke-width: 0.8"/>
      </g>
     </g>
     <g id="text_2">
      <!-- $\mathrm{P{\mbox{-}}PPR}$ -->
      <g transform="translate(187.711575 129.838498)scale(0.1 -0.1)">
       <defs>
        <path id="CMR17-50" d="M 1267 2048 
L 2291 2048 
C 3117 2048 3718 2583 3718 3187 
C 3718 3791 3130 4352 2291 4352 
L 333 4352 
L 333 4185 
C 774 4185 845 4185 845 3899 
L 845 453 
C 845 166 774 166 333 166 
L 333 0 
C 518 12 858 12 1056 12 
C 1254 12 1594 12 1779 0 
L 1779 166 
C 1338 166 1267 166 1267 453 
L 1267 2048 
z
M 1254 2182 
L 1254 3937 
C 1254 4153 1267 4185 1523 4185 
L 2170 4185 
C 2995 4185 3232 3715 3232 3187 
C 3232 2608 2950 2182 2170 2182 
L 1254 2182 
z
" transform="scale(0.015625)"/>
        <path id="CMR17-52" d="M 2509 2156 
C 3117 2278 3629 2689 3629 3203 
C 3629 3806 2950 4352 2054 4352 
L 333 4352 
L 333 4185 
C 774 4185 845 4185 845 3896 
L 845 428 
C 845 140 774 140 333 140 
L 333 -26 
C 518 -13 851 -13 1050 -13 
C 1248 -13 1581 -13 1766 -26 
L 1766 140 
C 1325 140 1254 140 1254 428 
L 1254 2112 
L 2003 2112 
C 2368 2112 2573 1964 2662 1881 
C 2918 1632 2918 1459 2918 1024 
C 2918 595 2918 377 3110 160 
C 3354 -103 3680 -128 3821 -128 
C 4294 -128 4365 403 4365 512 
C 4365 550 4365 595 4307 595 
C 4256 595 4250 556 4250 531 
C 4218 115 4032 -26 3834 -26 
C 3482 -26 3443 377 3405 768 
C 3386 902 3373 998 3360 1139 
C 3322 1459 3270 1926 2509 2156 
z
M 1984 2214 
L 1254 2214 
L 1254 3935 
C 1254 4153 1267 4185 1523 4185 
L 1990 4185 
C 2522 4185 3142 3999 3142 3203 
C 3142 2374 2464 2214 1984 2214 
z
" transform="scale(0.015625)"/>
       </defs>
       <use xlink:href="#CMR17-50" transform="scale(0.996264)"/>
       <use xlink:href="#CMSS17-2d" transform="translate(62.586301 0)scale(0.996264)"/>
       <use xlink:href="#CMR17-50" transform="translate(93.815413 0)scale(0.996264)"/>
       <use xlink:href="#CMR17-50" transform="translate(156.401714 0)scale(0.996264)"/>
       <use xlink:href="#CMR17-52" transform="translate(218.988014 0)scale(0.996264)"/>
      </g>
     </g>
    </g>
    <g id="xtick_3">
     <g id="line2d_3">
      <g>
       <use xlink:href="#mb016f5c4df" x="307.264984" y="115.92" style="stroke: #000000; stroke-width: 0.8"/>
      </g>
     </g>
     <g id="text_3">
      <!-- $\mathrm{Strandmark{\mbox{-}}Kahl}$ -->
      <g transform="translate(269.185454 129.838498)scale(0.1 -0.1)">
       <defs>
        <path id="CMR17-74" d="M 966 2585 
L 1862 2585 
L 1862 2752 
L 966 2752 
L 966 3968 
L 851 3968 
C 838 3292 614 2700 70 2687 
L 70 2585 
L 627 2585 
L 627 778 
C 627 655 627 -64 1370 -64 
C 1747 -64 1965 308 1965 784 
L 1965 1151 
L 1850 1151 
L 1850 790 
C 1850 347 1677 51 1408 51 
C 1222 51 966 179 966 765 
L 966 2585 
z
" transform="scale(0.015625)"/>
        <path id="CMR17-72" d="M 960 1517 
C 960 2134 1222 2713 1702 2713 
C 1747 2713 1792 2707 1837 2687 
C 1837 2687 1696 2642 1696 2475 
C 1696 2321 1818 2257 1914 2257 
C 1990 2257 2131 2302 2131 2482 
C 2131 2687 1926 2816 1709 2816 
C 1222 2816 1011 2340 947 2115 
L 941 2115 
L 941 2816 
L 198 2745 
L 198 2578 
C 576 2578 634 2540 634 2231 
L 634 443 
C 634 198 608 166 198 166 
L 198 0 
C 352 12 646 12 813 12 
C 998 12 1325 12 1498 0 
L 1498 166 
C 1037 166 960 166 960 455 
L 960 1517 
z
" transform="scale(0.015625)"/>
        <path id="CMR17-61" d="M 2304 1656 
C 2304 2048 2304 2275 2035 2534 
C 1798 2751 1523 2816 1306 2816 
C 800 2816 435 2408 435 1977 
C 435 1740 627 1728 666 1728 
C 749 1728 896 1779 896 1958 
C 896 2118 774 2188 666 2188 
C 640 2188 608 2182 589 2176 
C 723 2594 1069 2713 1293 2713 
C 1613 2713 1965 2421 1965 1875 
L 1965 1632 
C 1587 1619 1133 1568 774 1373 
C 371 1147 256 822 256 576 
C 256 77 832 -64 1171 -64 
C 1523 -64 1850 135 1990 505 
C 2003 219 2182 -39 2464 -39 
C 2598 -39 2938 51 2938 563 
L 2938 926 
L 2822 926 
L 2822 557 
C 2822 161 2650 109 2566 109 
C 2304 109 2304 446 2304 732 
L 2304 1656 
z
M 1965 887 
C 1965 323 1568 38 1216 38 
C 896 38 646 278 646 576 
C 646 771 730 1114 1101 1322 
C 1408 1497 1760 1523 1965 1536 
L 1965 887 
z
" transform="scale(0.015625)"/>
        <path id="CMR17-64" d="M 1869 4345 
L 1869 4179 
C 2246 4179 2304 4141 2304 3843 
L 2304 2371 
C 2278 2403 2016 2816 1498 2816 
C 845 2816 211 2228 211 1376 
C 211 529 806 -64 1434 -64 
C 1978 -64 2259 361 2291 406 
L 2291 -64 
L 3066 -13 
L 3066 154 
C 2688 154 2630 193 2630 503 
L 2630 4416 
L 1869 4345 
z
M 2291 762 
C 2291 568 2176 393 2029 264 
C 1811 70 1594 38 1472 38 
C 1286 38 621 135 621 1369 
C 621 2636 1363 2713 1530 2713 
C 1824 2713 2061 2545 2208 2313 
C 2291 2177 2291 2157 2291 2041 
L 2291 762 
z
" transform="scale(0.015625)"/>
        <path id="CMR17-6d" d="M 4326 1954 
C 4326 2276 4269 2816 3507 2816 
C 3072 2816 2771 2520 2656 2173 
L 2650 2173 
C 2573 2700 2195 2816 1837 2816 
C 1331 2816 1069 2424 973 2166 
L 966 2166 
L 966 2816 
L 211 2745 
L 211 2578 
C 589 2578 646 2540 646 2231 
L 646 443 
C 646 198 621 166 211 166 
L 211 0 
C 365 12 646 12 813 12 
C 979 12 1267 12 1421 0 
L 1421 166 
C 1011 166 986 192 986 443 
L 986 1678 
C 986 2269 1344 2713 1792 2713 
C 2266 2713 2317 2289 2317 1980 
L 2317 443 
C 2317 198 2291 166 1882 166 
L 1882 0 
C 2035 12 2317 12 2483 12 
C 2650 12 2938 12 3091 0 
L 3091 166 
C 2682 166 2656 192 2656 443 
L 2656 1678 
C 2656 2269 3014 2713 3462 2713 
C 3936 2713 3987 2289 3987 1980 
L 3987 443 
C 3987 198 3962 166 3552 166 
L 3552 0 
C 3706 12 3987 12 4154 12 
C 4320 12 4608 12 4762 0 
L 4762 166 
C 4352 166 4326 192 4326 443 
L 4326 1954 
z
" transform="scale(0.015625)"/>
        <path id="CMR17-6b" d="M 1670 1679 
C 1664 1692 1632 1730 1632 1749 
C 1632 1762 2086 2175 2144 2226 
C 2509 2532 2739 2563 2906 2570 
L 2906 2735 
C 2867 2735 2854 2735 2848 2729 
L 2534 2722 
C 2355 2722 2080 2722 1907 2735 
L 1907 2570 
C 1997 2563 2061 2513 2061 2423 
C 2061 2296 1933 2175 1926 2175 
L 960 1298 
L 960 4416 
L 198 4345 
L 198 4179 
C 576 4179 634 4141 634 3835 
L 634 439 
C 634 198 608 166 198 166 
L 198 0 
C 352 12 634 12 794 12 
C 954 12 1235 12 1389 0 
L 1389 166 
C 979 166 954 191 954 439 
L 954 1139 
L 1395 1540 
L 2042 586 
C 2118 471 2182 382 2182 299 
C 2182 185 2067 166 1990 166 
L 1990 0 
C 2144 12 2419 12 2579 12 
C 2694 12 2931 6 3040 0 
L 3040 166 
C 2739 166 2669 223 2477 503 
L 1670 1679 
z
" transform="scale(0.015625)"/>
        <path id="CMR17-4b" d="M 2362 2669 
L 3469 3771 
C 3699 3994 3942 4172 4301 4185 
L 4301 4352 
C 4173 4345 4013 4339 3885 4339 
C 3712 4339 3411 4339 3245 4352 
L 3245 4185 
C 3411 4172 3437 4057 3437 4013 
C 3437 3968 3411 3898 3386 3860 
L 1261 1739 
L 1261 3898 
C 1261 4185 1331 4185 1773 4185 
L 1773 4352 
C 1587 4339 1248 4339 1050 4339 
C 851 4339 512 4339 326 4352 
L 326 4185 
C 768 4185 838 4185 838 3898 
L 838 453 
C 838 166 768 166 326 166 
L 326 0 
C 512 12 851 12 1050 12 
C 1248 12 1587 12 1773 0 
L 1773 166 
C 1331 166 1261 166 1261 453 
L 1261 1580 
L 2080 2389 
L 3290 542 
C 3328 478 3373 395 3373 332 
C 3373 166 3194 166 3110 166 
L 3110 0 
C 3315 12 3610 12 3821 12 
C 3974 12 4237 12 4384 0 
L 4384 166 
C 4077 166 3981 204 3789 497 
L 2362 2669 
z
" transform="scale(0.015625)"/>
        <path id="CMR17-68" d="M 2656 1954 
C 2656 2282 2592 2816 1837 2816 
C 1312 2816 1056 2392 979 2179 
L 973 2179 
L 973 4416 
L 211 4345 
L 211 4179 
C 589 4179 646 4141 646 3843 
L 646 443 
C 646 198 621 166 211 166 
L 211 0 
C 365 12 646 12 813 12 
C 979 12 1267 12 1421 0 
L 1421 166 
C 1011 166 986 192 986 443 
L 986 1678 
C 986 2269 1344 2713 1792 2713 
C 2266 2713 2317 2289 2317 1980 
L 2317 443 
C 2317 198 2291 166 1882 166 
L 1882 0 
C 2035 12 2317 12 2483 12 
C 2650 12 2938 12 3091 0 
L 3091 166 
C 2682 166 2656 192 2656 443 
L 2656 1954 
z
" transform="scale(0.015625)"/>
        <path id="CMR17-6c" d="M 979 4416 
L 218 4345 
L 218 4179 
C 595 4179 653 4141 653 3835 
L 653 439 
C 653 198 627 166 218 166 
L 218 0 
C 371 12 653 12 813 12 
C 979 12 1261 12 1414 0 
L 1414 166 
C 1005 166 979 191 979 439 
L 979 4416 
z
" transform="scale(0.015625)"/>
       </defs>
       <use xlink:href="#CMR17-53" transform="scale(0.996264)"/>
       <use xlink:href="#CMR17-74" transform="translate(50.89537 0)scale(0.996264)"/>
       <use xlink:href="#CMR17-72" transform="translate(86.176138 0)scale(0.996264)"/>
       <use xlink:href="#CMR17-61" transform="translate(121.456905 0)scale(0.996264)"/>
       <use xlink:href="#CMR17-6e" transform="translate(167.147382 0)scale(0.996264)"/>
       <use xlink:href="#CMR17-64" transform="translate(218.042752 0)scale(0.996264)"/>
       <use xlink:href="#CMR17-6d" transform="translate(268.938122 0)scale(0.996264)"/>
       <use xlink:href="#CMR17-61" transform="translate(345.857712 0)scale(0.996264)"/>
       <use xlink:href="#CMR17-72" transform="translate(391.548189 0)scale(0.996264)"/>
       <use xlink:href="#CMR17-6b" transform="translate(426.828957 0)scale(0.996264)"/>
       <use xlink:href="#CMSS17-2d" transform="translate(475.121873 0)scale(0.996264)"/>
       <use xlink:href="#CMR17-4b" transform="translate(506.350985 0)scale(0.996264)"/>
       <use xlink:href="#CMR17-61" transform="translate(578.025763 0)scale(0.996264)"/>
       <use xlink:href="#CMR17-68" transform="translate(623.71624 0)scale(0.996264)"/>
       <use xlink:href="#CMR17-6c" transform="translate(674.61161 0)scale(0.996264)"/>
      </g>
     </g>
    </g>
    <g id="xtick_4">
     <g id="line2d_4">
      <g>
       <use xlink:href="#mb016f5c4df" x="411.320928" y="115.92" style="stroke: #000000; stroke-width: 0.8"/>
      </g>
     </g>
     <g id="text_4">
      <!-- $\mathrm{P{\mbox{-}}ARD}$ -->
      <g transform="translate(395.062432 129.838498)scale(0.1 -0.1)">
       <defs>
        <path id="CMR17-41" d="M 2323 4441 
C 2291 4524 2278 4544 2214 4544 
C 2150 4544 2138 4524 2106 4441 
L 749 580 
C 627 236 371 166 147 166 
L 147 0 
C 262 12 518 12 640 12 
C 800 12 1056 12 1210 0 
L 1210 166 
C 909 179 864 382 864 459 
C 864 516 877 548 890 586 
L 1229 1536 
L 2906 1536 
L 3290 453 
C 3322 376 3322 363 3322 338 
C 3322 166 3046 166 2925 166 
L 2925 0 
C 3110 12 3443 12 3642 12 
C 3808 12 4128 12 4282 0 
L 4282 166 
C 3942 166 3827 166 3744 402 
L 2323 4441 
z
M 2067 3924 
L 2848 1702 
L 1286 1702 
L 2067 3924 
z
" transform="scale(0.015625)"/>
        <path id="CMR17-44" d="M 333 4352 
L 333 4185 
C 774 4185 845 4185 845 3898 
L 845 453 
C 845 166 774 166 333 166 
L 333 0 
L 2368 0 
C 3398 0 4224 943 4224 2140 
C 4224 3344 3411 4352 2368 4352 
L 333 4352 
z
M 1523 166 
C 1267 166 1254 198 1254 414 
L 1254 3936 
C 1254 4153 1267 4185 1523 4185 
L 2240 4185 
C 2771 4185 3750 3873 3750 2140 
C 3750 1242 3488 879 3366 707 
C 3213 510 2848 166 2240 166 
L 1523 166 
z
" transform="scale(0.015625)"/>
       </defs>
       <use xlink:href="#CMR17-50" transform="scale(0.996264)"/>
       <use xlink:href="#CMSS17-2d" transform="translate(62.586301 0)scale(0.996264)"/>
       <use xlink:href="#CMR17-41" transform="translate(93.815413 0)scale(0.996264)"/>
       <use xlink:href="#CMR17-52" transform="translate(162.887843 0)scale(0.996264)"/>
       <use xlink:href="#CMR17-44" transform="translate(230.678945 0)scale(0.996264)"/>
      </g>
     </g>
    </g>
   </g>
   <g id="matplotlib.axis_2">
    <g id="ytick_1">
     <g id="line2d_5">
      <defs>
       <path id="m53adeb5ab0" d="M 0 0 
L -3.5 0 
" style="stroke: #000000; stroke-width: 0.8"/>
      </defs>
      <g>
       <use xlink:href="#m53adeb5ab0" x="32.037012" y="110.978182" style="stroke: #000000; stroke-width: 0.8"/>
      </g>
     </g>
     <g id="text_5">
      <!-- $\mathdefault{0}$ -->
      <g transform="translate(20.055677 114.437431)scale(0.1 -0.1)">
       <defs>
        <path id="CMR17-30" d="M 2688 2038 
C 2688 2430 2682 3099 2413 3613 
C 2176 4063 1798 4224 1466 4224 
C 1158 4224 768 4082 525 3620 
C 269 3137 243 2539 243 2038 
C 243 1671 250 1112 448 623 
C 723 -39 1216 -128 1466 -128 
C 1760 -128 2208 -7 2470 604 
C 2662 1048 2688 1568 2688 2038 
z
M 1466 -26 
C 1056 -26 813 328 723 816 
C 653 1196 653 1749 653 2109 
C 653 2604 653 3015 736 3407 
C 858 3954 1216 4121 1466 4121 
C 1728 4121 2067 3947 2189 3420 
C 2272 3054 2278 2623 2278 2109 
C 2278 1691 2278 1176 2202 797 
C 2067 96 1690 -26 1466 -26 
z
" transform="scale(0.015625)"/>
       </defs>
       <use xlink:href="#CMR17-30" transform="scale(0.996264)"/>
      </g>
     </g>
    </g>
    <g id="ytick_2">
     <g id="line2d_6">
      <g>
       <use xlink:href="#m53adeb5ab0" x="32.037012" y="73.245779" style="stroke: #000000; stroke-width: 0.8"/>
      </g>
     </g>
     <g id="text_6">
      <!-- $\mathdefault{2}$ -->
      <g transform="translate(20.055677 76.705028)scale(0.1 -0.1)">
       <defs>
        <path id="CMR17-32" d="M 2669 990 
L 2554 990 
C 2490 537 2438 460 2413 422 
C 2381 371 1920 371 1830 371 
L 602 371 
C 832 620 1280 1073 1824 1596 
C 2214 1966 2669 2400 2669 3033 
C 2669 3788 2067 4224 1395 4224 
C 691 4224 262 3603 262 3027 
C 262 2777 448 2745 525 2745 
C 589 2745 781 2783 781 3007 
C 781 3206 614 3264 525 3264 
C 486 3264 448 3257 422 3244 
C 544 3788 915 4057 1306 4057 
C 1862 4057 2227 3616 2227 3033 
C 2227 2477 1901 1998 1536 1583 
L 262 147 
L 262 0 
L 2515 0 
L 2669 990 
z
" transform="scale(0.015625)"/>
       </defs>
       <use xlink:href="#CMR17-32" transform="scale(0.996264)"/>
      </g>
     </g>
    </g>
    <g id="ytick_3">
     <g id="line2d_7">
      <g>
       <use xlink:href="#m53adeb5ab0" x="32.037012" y="35.513377" style="stroke: #000000; stroke-width: 0.8"/>
      </g>
     </g>
     <g id="text_7">
      <!-- $\mathdefault{4}$ -->
      <g transform="translate(20.055677 38.972626)scale(0.1 -0.1)">
       <defs>
        <path id="CMR17-34" d="M 2150 4147 
C 2150 4281 2144 4288 2029 4288 
L 128 1254 
L 128 1088 
L 1779 1088 
L 1779 460 
C 1779 230 1766 166 1318 166 
L 1197 166 
L 1197 0 
C 1402 12 1747 12 1965 12 
C 2182 12 2528 12 2733 0 
L 2733 166 
L 2611 166 
C 2163 166 2150 230 2150 460 
L 2150 1088 
L 2803 1088 
L 2803 1254 
L 2150 1254 
L 2150 4147 
z
M 1798 3723 
L 1798 1254 
L 256 1254 
L 1798 3723 
z
" transform="scale(0.015625)"/>
       </defs>
       <use xlink:href="#CMR17-34" transform="scale(0.996264)"/>
      </g>
     </g>
    </g>
    <g id="text_8">
     <!-- $\mathrm{Speed{\mbox{-}}up}$ -->
     <g transform="translate(14.118498 81.623692)rotate(-90)scale(0.1 -0.1)">
      <defs>
       <path id="CMR17-70" d="M 1408 -1114 
C 998 -1114 973 -1088 973 -834 
L 973 380 
C 1158 109 1427 -64 1766 -64 
C 2406 -64 3053 503 3053 1382 
C 3053 2196 2496 2816 1837 2816 
C 1453 2816 1139 2603 960 2345 
L 960 2816 
L 198 2745 
L 198 2577 
C 576 2577 634 2539 634 2228 
L 634 -834 
C 634 -1081 608 -1114 198 -1114 
L 198 -1280 
C 352 -1268 634 -1268 800 -1268 
C 966 -1268 1254 -1268 1408 -1280 
L 1408 -1114 
z
M 973 2015 
C 973 2106 973 2241 1222 2481 
C 1254 2506 1472 2700 1792 2700 
C 2259 2700 2643 2112 2643 1376 
C 2643 639 2234 38 1728 38 
C 1498 38 1248 148 1056 451 
C 973 594 973 632 973 736 
L 973 2015 
z
" transform="scale(0.015625)"/>
       <path id="CMR17-65" d="M 2438 1503 
C 2464 1529 2464 1542 2464 1606 
C 2464 2251 2118 2816 1389 2816 
C 710 2816 173 2175 173 1394 
C 173 554 781 -64 1459 -64 
C 2176 -64 2458 619 2458 755 
C 2458 800 2419 800 2406 800 
C 2362 800 2355 787 2330 709 
C 2189 270 1837 51 1504 51 
C 1229 51 954 206 781 490 
C 582 819 582 1200 582 1503 
L 2438 1503 
z
M 589 1600 
C 634 2511 1126 2713 1382 2713 
C 1818 2713 2112 2308 2118 1600 
L 589 1600 
z
" transform="scale(0.015625)"/>
      </defs>
      <use xlink:href="#CMR17-53" transform="scale(0.996264)"/>
      <use xlink:href="#CMR17-70" transform="translate(50.89537 0)scale(0.996264)"/>
      <use xlink:href="#CMR17-65" transform="translate(104.393178 0)scale(0.996264)"/>
      <use xlink:href="#CMR17-65" transform="translate(144.878839 0)scale(0.996264)"/>
      <use xlink:href="#CMR17-64" transform="translate(185.364499 0)scale(0.996264)"/>
      <use xlink:href="#CMSS17-2d" transform="translate(236.259869 0)scale(0.996264)"/>
      <use xlink:href="#CMR17-75" transform="translate(267.488982 0)scale(0.996264)"/>
      <use xlink:href="#CMR17-70" transform="translate(318.384352 0)scale(0.996264)"/>
     </g>
    </g>
   </g>
   <g id="line2d_8">
    <defs>
     <path id="m1fe4b2983f" d="M 0 1.25 
C 0.331504 1.25 0.649475 1.118292 0.883883 0.883883 
C 1.118292 0.649475 1.25 0.331504 1.25 0 
C 1.25 -0.331504 1.118292 -0.649475 0.883883 -0.883883 
C 0.649475 -1.118292 0.331504 -1.25 0 -1.25 
C -0.331504 -1.25 -0.649475 -1.118292 -0.883883 -0.883883 
C -1.118292 -0.649475 -1.25 -0.331504 -1.25 0 
C -1.25 0.331504 -1.118292 0.649475 -0.883883 0.883883 
C -0.649475 1.118292 -0.331504 1.25 0 1.25 
z
" style="stroke: #ff0000; stroke-opacity: 0.3"/>
    </defs>
    <g clip-path="url(#p299d788645)">
     <use xlink:href="#m1fe4b2983f" x="106.005009" y="93.157098" style="fill: #ff0000; fill-opacity: 0.3; stroke: #ff0000; stroke-opacity: 0.3"/>
     <use xlink:href="#m1fe4b2983f" x="98.477552" y="100.338584" style="fill: #ff0000; fill-opacity: 0.3; stroke: #ff0000; stroke-opacity: 0.3"/>
     <use xlink:href="#m1fe4b2983f" x="94.641644" y="93.157098" style="fill: #ff0000; fill-opacity: 0.3; stroke: #ff0000; stroke-opacity: 0.3"/>
     <use xlink:href="#m1fe4b2983f" x="88.448671" y="100.338692" style="fill: #ff0000; fill-opacity: 0.3; stroke: #ff0000; stroke-opacity: 0.3"/>
     <use xlink:href="#m1fe4b2983f" x="105.641048" y="93.157098" style="fill: #ff0000; fill-opacity: 0.3; stroke: #ff0000; stroke-opacity: 0.3"/>
     <use xlink:href="#m1fe4b2983f" x="101.040862" y="100.338584" style="fill: #ff0000; fill-opacity: 0.3; stroke: #ff0000; stroke-opacity: 0.3"/>
     <use xlink:href="#m1fe4b2983f" x="100.299125" y="93.149332" style="fill: #ff0000; fill-opacity: 0.3; stroke: #ff0000; stroke-opacity: 0.3"/>
     <use xlink:href="#m1fe4b2983f" x="80.146847" y="100.338692" style="fill: #ff0000; fill-opacity: 0.3; stroke: #ff0000; stroke-opacity: 0.3"/>
     <use xlink:href="#m1fe4b2983f" x="95.636636" y="100.157569" style="fill: #ff0000; fill-opacity: 0.3; stroke: #ff0000; stroke-opacity: 0.3"/>
     <use xlink:href="#m1fe4b2983f" x="90.672827" y="105.023669" style="fill: #ff0000; fill-opacity: 0.3; stroke: #ff0000; stroke-opacity: 0.3"/>
     <use xlink:href="#m1fe4b2983f" x="86.90311" y="101.674527" style="fill: #ff0000; fill-opacity: 0.3; stroke: #ff0000; stroke-opacity: 0.3"/>
     <use xlink:href="#m1fe4b2983f" x="93.526893" y="105.023669" style="fill: #ff0000; fill-opacity: 0.3; stroke: #ff0000; stroke-opacity: 0.3"/>
     <use xlink:href="#m1fe4b2983f" x="111.01593" y="102.328177" style="fill: #ff0000; fill-opacity: 0.3; stroke: #ff0000; stroke-opacity: 0.3"/>
     <use xlink:href="#m1fe4b2983f" x="76.643056" y="103.994144" style="fill: #ff0000; fill-opacity: 0.3; stroke: #ff0000; stroke-opacity: 0.3"/>
     <use xlink:href="#m1fe4b2983f" x="110.859543" y="104.716655" style="fill: #ff0000; fill-opacity: 0.3; stroke: #ff0000; stroke-opacity: 0.3"/>
     <use xlink:href="#m1fe4b2983f" x="92.385606" y="81.185151" style="fill: #ff0000; fill-opacity: 0.3; stroke: #ff0000; stroke-opacity: 0.3"/>
     <use xlink:href="#m1fe4b2983f" x="94.266488" y="106.471667" style="fill: #ff0000; fill-opacity: 0.3; stroke: #ff0000; stroke-opacity: 0.3"/>
     <use xlink:href="#m1fe4b2983f" x="102.079046" y="106.83928" style="fill: #ff0000; fill-opacity: 0.3; stroke: #ff0000; stroke-opacity: 0.3"/>
     <use xlink:href="#m1fe4b2983f" x="108.817658" y="70.410735" style="fill: #ff0000; fill-opacity: 0.3; stroke: #ff0000; stroke-opacity: 0.3"/>
     <use xlink:href="#m1fe4b2983f" x="112.009628" y="73.952517" style="fill: #ff0000; fill-opacity: 0.3; stroke: #ff0000; stroke-opacity: 0.3"/>
     <use xlink:href="#m1fe4b2983f" x="79.640172" y="106.471667" style="fill: #ff0000; fill-opacity: 0.3; stroke: #ff0000; stroke-opacity: 0.3"/>
     <use xlink:href="#m1fe4b2983f" x="110.607502" y="110.978182" style="fill: #ff0000; fill-opacity: 0.3; stroke: #ff0000; stroke-opacity: 0.3"/>
     <use xlink:href="#m1fe4b2983f" x="94.665918" y="103.937396" style="fill: #ff0000; fill-opacity: 0.3; stroke: #ff0000; stroke-opacity: 0.3"/>
     <use xlink:href="#m1fe4b2983f" x="110.97413" y="74.195578" style="fill: #ff0000; fill-opacity: 0.3; stroke: #ff0000; stroke-opacity: 0.3"/>
     <use xlink:href="#m1fe4b2983f" x="79.53931" y="82.63314" style="fill: #ff0000; fill-opacity: 0.3; stroke: #ff0000; stroke-opacity: 0.3"/>
     <use xlink:href="#m1fe4b2983f" x="91.691709" y="104.323162" style="fill: #ff0000; fill-opacity: 0.3; stroke: #ff0000; stroke-opacity: 0.3"/>
     <use xlink:href="#m1fe4b2983f" x="102.913619" y="84.210253" style="fill: #ff0000; fill-opacity: 0.3; stroke: #ff0000; stroke-opacity: 0.3"/>
     <use xlink:href="#m1fe4b2983f" x="97.431887" y="105.532815" style="fill: #ff0000; fill-opacity: 0.3; stroke: #ff0000; stroke-opacity: 0.3"/>
     <use xlink:href="#m1fe4b2983f" x="86.552756" y="105.532815" style="fill: #ff0000; fill-opacity: 0.3; stroke: #ff0000; stroke-opacity: 0.3"/>
     <use xlink:href="#m1fe4b2983f" x="100.918705" y="98.805812" style="fill: #ff0000; fill-opacity: 0.3; stroke: #ff0000; stroke-opacity: 0.3"/>
     <use xlink:href="#m1fe4b2983f" x="82.108563" y="80.755223" style="fill: #ff0000; fill-opacity: 0.3; stroke: #ff0000; stroke-opacity: 0.3"/>
     <use xlink:href="#m1fe4b2983f" x="86.239898" y="79.601454" style="fill: #ff0000; fill-opacity: 0.3; stroke: #ff0000; stroke-opacity: 0.3"/>
     <use xlink:href="#m1fe4b2983f" x="95.443519" y="82.64751" style="fill: #ff0000; fill-opacity: 0.3; stroke: #ff0000; stroke-opacity: 0.3"/>
     <use xlink:href="#m1fe4b2983f" x="86.545789" y="80.755223" style="fill: #ff0000; fill-opacity: 0.3; stroke: #ff0000; stroke-opacity: 0.3"/>
     <use xlink:href="#m1fe4b2983f" x="94.120389" y="80.755223" style="fill: #ff0000; fill-opacity: 0.3; stroke: #ff0000; stroke-opacity: 0.3"/>
     <use xlink:href="#m1fe4b2983f" x="93.599282" y="98.805812" style="fill: #ff0000; fill-opacity: 0.3; stroke: #ff0000; stroke-opacity: 0.3"/>
     <use xlink:href="#m1fe4b2983f" x="110.246505" y="102.945601" style="fill: #ff0000; fill-opacity: 0.3; stroke: #ff0000; stroke-opacity: 0.3"/>
     <use xlink:href="#m1fe4b2983f" x="113.407692" y="102.945601" style="fill: #ff0000; fill-opacity: 0.3; stroke: #ff0000; stroke-opacity: 0.3"/>
     <use xlink:href="#m1fe4b2983f" x="111.402618" y="102.945601" style="fill: #ff0000; fill-opacity: 0.3; stroke: #ff0000; stroke-opacity: 0.3"/>
     <use xlink:href="#m1fe4b2983f" x="100.26254" y="102.945601" style="fill: #ff0000; fill-opacity: 0.3; stroke: #ff0000; stroke-opacity: 0.3"/>
     <use xlink:href="#m1fe4b2983f" x="112.477438" y="102.945601" style="fill: #ff0000; fill-opacity: 0.3; stroke: #ff0000; stroke-opacity: 0.3"/>
     <use xlink:href="#m1fe4b2983f" x="101.129209" y="102.945601" style="fill: #ff0000; fill-opacity: 0.3; stroke: #ff0000; stroke-opacity: 0.3"/>
     <use xlink:href="#m1fe4b2983f" x="100.545627" y="93.895102" style="fill: #ff0000; fill-opacity: 0.3; stroke: #ff0000; stroke-opacity: 0.3"/>
     <use xlink:href="#m1fe4b2983f" x="102.907087" y="93.895102" style="fill: #ff0000; fill-opacity: 0.3; stroke: #ff0000; stroke-opacity: 0.3"/>
     <use xlink:href="#m1fe4b2983f" x="94.837273" y="87.066032" style="fill: #ff0000; fill-opacity: 0.3; stroke: #ff0000; stroke-opacity: 0.3"/>
     <use xlink:href="#m1fe4b2983f" x="96.173881" y="87.066032" style="fill: #ff0000; fill-opacity: 0.3; stroke: #ff0000; stroke-opacity: 0.3"/>
     <use xlink:href="#m1fe4b2983f" x="112.007361" y="87.066032" style="fill: #ff0000; fill-opacity: 0.3; stroke: #ff0000; stroke-opacity: 0.3"/>
     <use xlink:href="#m1fe4b2983f" x="108.309288" y="87.066032" style="fill: #ff0000; fill-opacity: 0.3; stroke: #ff0000; stroke-opacity: 0.3"/>
     <use xlink:href="#m1fe4b2983f" x="89.016916" y="87.066032" style="fill: #ff0000; fill-opacity: 0.3; stroke: #ff0000; stroke-opacity: 0.3"/>
     <use xlink:href="#m1fe4b2983f" x="96.438103" y="87.066032" style="fill: #ff0000; fill-opacity: 0.3; stroke: #ff0000; stroke-opacity: 0.3"/>
     <use xlink:href="#m1fe4b2983f" x="88.689767" y="87.066032" style="fill: #ff0000; fill-opacity: 0.3; stroke: #ff0000; stroke-opacity: 0.3"/>
    </g>
   </g>
   <g id="line2d_9">
    <g clip-path="url(#p299d788645)">
     <use xlink:href="#m1fe4b2983f" x="216.394334" y="107.823291" style="fill: #ff0000; fill-opacity: 0.3; stroke: #ff0000; stroke-opacity: 0.3"/>
     <use xlink:href="#m1fe4b2983f" x="201.744262" y="99.985172" style="fill: #ff0000; fill-opacity: 0.3; stroke: #ff0000; stroke-opacity: 0.3"/>
     <use xlink:href="#m1fe4b2983f" x="213.172494" y="107.823291" style="fill: #ff0000; fill-opacity: 0.3; stroke: #ff0000; stroke-opacity: 0.3"/>
     <use xlink:href="#m1fe4b2983f" x="203.975205" y="101.693256" style="fill: #ff0000; fill-opacity: 0.3; stroke: #ff0000; stroke-opacity: 0.3"/>
     <use xlink:href="#m1fe4b2983f" x="190.872206" y="107.823291" style="fill: #ff0000; fill-opacity: 0.3; stroke: #ff0000; stroke-opacity: 0.3"/>
     <use xlink:href="#m1fe4b2983f" x="210.560393" y="99.985172" style="fill: #ff0000; fill-opacity: 0.3; stroke: #ff0000; stroke-opacity: 0.3"/>
     <use xlink:href="#m1fe4b2983f" x="186.593743" y="94.605582" style="fill: #ff0000; fill-opacity: 0.3; stroke: #ff0000; stroke-opacity: 0.3"/>
     <use xlink:href="#m1fe4b2983f" x="188.916456" y="101.693256" style="fill: #ff0000; fill-opacity: 0.3; stroke: #ff0000; stroke-opacity: 0.3"/>
     <use xlink:href="#m1fe4b2983f" x="188.059545" y="106.561474" style="fill: #ff0000; fill-opacity: 0.3; stroke: #ff0000; stroke-opacity: 0.3"/>
     <use xlink:href="#m1fe4b2983f" x="190.278009" y="110.978182" style="fill: #ff0000; fill-opacity: 0.3; stroke: #ff0000; stroke-opacity: 0.3"/>
     <use xlink:href="#m1fe4b2983f" x="201.276517" y="110.978182" style="fill: #ff0000; fill-opacity: 0.3; stroke: #ff0000; stroke-opacity: 0.3"/>
     <use xlink:href="#m1fe4b2983f" x="194.629718" y="110.978182" style="fill: #ff0000; fill-opacity: 0.3; stroke: #ff0000; stroke-opacity: 0.3"/>
     <use xlink:href="#m1fe4b2983f" x="195.603905" y="110.978182" style="fill: #ff0000; fill-opacity: 0.3; stroke: #ff0000; stroke-opacity: 0.3"/>
     <use xlink:href="#m1fe4b2983f" x="217.555241" y="110.978182" style="fill: #ff0000; fill-opacity: 0.3; stroke: #ff0000; stroke-opacity: 0.3"/>
     <use xlink:href="#m1fe4b2983f" x="182.600239" y="109.999877" style="fill: #ff0000; fill-opacity: 0.3; stroke: #ff0000; stroke-opacity: 0.3"/>
     <use xlink:href="#m1fe4b2983f" x="194.938805" y="59.538614" style="fill: #ff0000; fill-opacity: 0.3; stroke: #ff0000; stroke-opacity: 0.3"/>
     <use xlink:href="#m1fe4b2983f" x="203.133707" y="110.978182" style="fill: #ff0000; fill-opacity: 0.3; stroke: #ff0000; stroke-opacity: 0.3"/>
     <use xlink:href="#m1fe4b2983f" x="209.811936" y="110.978182" style="fill: #ff0000; fill-opacity: 0.3; stroke: #ff0000; stroke-opacity: 0.3"/>
     <use xlink:href="#m1fe4b2983f" x="185.364039" y="59.56993" style="fill: #ff0000; fill-opacity: 0.3; stroke: #ff0000; stroke-opacity: 0.3"/>
     <use xlink:href="#m1fe4b2983f" x="184.962672" y="63.178902" style="fill: #ff0000; fill-opacity: 0.3; stroke: #ff0000; stroke-opacity: 0.3"/>
     <use xlink:href="#m1fe4b2983f" x="198.111246" y="110.978182" style="fill: #ff0000; fill-opacity: 0.3; stroke: #ff0000; stroke-opacity: 0.3"/>
     <use xlink:href="#m1fe4b2983f" x="197.322279" y="110.978182" style="fill: #ff0000; fill-opacity: 0.3; stroke: #ff0000; stroke-opacity: 0.3"/>
     <use xlink:href="#m1fe4b2983f" x="197.362008" y="94.226463" style="fill: #ff0000; fill-opacity: 0.3; stroke: #ff0000; stroke-opacity: 0.3"/>
     <use xlink:href="#m1fe4b2983f" x="200.216221" y="71.697624" style="fill: #ff0000; fill-opacity: 0.3; stroke: #ff0000; stroke-opacity: 0.3"/>
     <use xlink:href="#m1fe4b2983f" x="216.2081" y="80.052057" style="fill: #ff0000; fill-opacity: 0.3; stroke: #ff0000; stroke-opacity: 0.3"/>
     <use xlink:href="#m1fe4b2983f" x="210.507773" y="94.648626" style="fill: #ff0000; fill-opacity: 0.3; stroke: #ff0000; stroke-opacity: 0.3"/>
     <use xlink:href="#m1fe4b2983f" x="192.746091" y="96.713416" style="fill: #ff0000; fill-opacity: 0.3; stroke: #ff0000; stroke-opacity: 0.3"/>
     <use xlink:href="#m1fe4b2983f" x="196.464224" y="96.369681" style="fill: #ff0000; fill-opacity: 0.3; stroke: #ff0000; stroke-opacity: 0.3"/>
     <use xlink:href="#m1fe4b2983f" x="195.475489" y="96.369681" style="fill: #ff0000; fill-opacity: 0.3; stroke: #ff0000; stroke-opacity: 0.3"/>
     <use xlink:href="#m1fe4b2983f" x="183.163205" y="105.616524" style="fill: #ff0000; fill-opacity: 0.3; stroke: #ff0000; stroke-opacity: 0.3"/>
     <use xlink:href="#m1fe4b2983f" x="206.721502" y="100.070979" style="fill: #ff0000; fill-opacity: 0.3; stroke: #ff0000; stroke-opacity: 0.3"/>
     <use xlink:href="#m1fe4b2983f" x="191.728919" y="100.854811" style="fill: #ff0000; fill-opacity: 0.3; stroke: #ff0000; stroke-opacity: 0.3"/>
     <use xlink:href="#m1fe4b2983f" x="204.673147" y="104.846757" style="fill: #ff0000; fill-opacity: 0.3; stroke: #ff0000; stroke-opacity: 0.3"/>
     <use xlink:href="#m1fe4b2983f" x="196.979873" y="100.070979" style="fill: #ff0000; fill-opacity: 0.3; stroke: #ff0000; stroke-opacity: 0.3"/>
     <use xlink:href="#m1fe4b2983f" x="216.973855" y="100.070979" style="fill: #ff0000; fill-opacity: 0.3; stroke: #ff0000; stroke-opacity: 0.3"/>
     <use xlink:href="#m1fe4b2983f" x="186.585679" y="105.616524" style="fill: #ff0000; fill-opacity: 0.3; stroke: #ff0000; stroke-opacity: 0.3"/>
     <use xlink:href="#m1fe4b2983f" x="195.713767" y="110.978182" style="fill: #ff0000; fill-opacity: 0.3; stroke: #ff0000; stroke-opacity: 0.3"/>
     <use xlink:href="#m1fe4b2983f" x="192.520827" y="110.978182" style="fill: #ff0000; fill-opacity: 0.3; stroke: #ff0000; stroke-opacity: 0.3"/>
     <use xlink:href="#m1fe4b2983f" x="187.676335" y="110.978182" style="fill: #ff0000; fill-opacity: 0.3; stroke: #ff0000; stroke-opacity: 0.3"/>
     <use xlink:href="#m1fe4b2983f" x="196.508371" y="110.978182" style="fill: #ff0000; fill-opacity: 0.3; stroke: #ff0000; stroke-opacity: 0.3"/>
     <use xlink:href="#m1fe4b2983f" x="189.104566" y="110.978182" style="fill: #ff0000; fill-opacity: 0.3; stroke: #ff0000; stroke-opacity: 0.3"/>
     <use xlink:href="#m1fe4b2983f" x="199.911679" y="110.978182" style="fill: #ff0000; fill-opacity: 0.3; stroke: #ff0000; stroke-opacity: 0.3"/>
     <use xlink:href="#m1fe4b2983f" x="212.469067" y="110.978182" style="fill: #ff0000; fill-opacity: 0.3; stroke: #ff0000; stroke-opacity: 0.3"/>
     <use xlink:href="#m1fe4b2983f" x="216.092367" y="110.978182" style="fill: #ff0000; fill-opacity: 0.3; stroke: #ff0000; stroke-opacity: 0.3"/>
     <use xlink:href="#m1fe4b2983f" x="207.351956" y="109.141646" style="fill: #ff0000; fill-opacity: 0.3; stroke: #ff0000; stroke-opacity: 0.3"/>
     <use xlink:href="#m1fe4b2983f" x="199.383285" y="109.141646" style="fill: #ff0000; fill-opacity: 0.3; stroke: #ff0000; stroke-opacity: 0.3"/>
     <use xlink:href="#m1fe4b2983f" x="184.972045" y="109.141646" style="fill: #ff0000; fill-opacity: 0.3; stroke: #ff0000; stroke-opacity: 0.3"/>
     <use xlink:href="#m1fe4b2983f" x="198.070449" y="109.141646" style="fill: #ff0000; fill-opacity: 0.3; stroke: #ff0000; stroke-opacity: 0.3"/>
     <use xlink:href="#m1fe4b2983f" x="209.096899" y="109.141646" style="fill: #ff0000; fill-opacity: 0.3; stroke: #ff0000; stroke-opacity: 0.3"/>
     <use xlink:href="#m1fe4b2983f" x="216.650737" y="109.141646" style="fill: #ff0000; fill-opacity: 0.3; stroke: #ff0000; stroke-opacity: 0.3"/>
     <use xlink:href="#m1fe4b2983f" x="191.777979" y="109.141646" style="fill: #ff0000; fill-opacity: 0.3; stroke: #ff0000; stroke-opacity: 0.3"/>
    </g>
   </g>
   <g id="line2d_10">
    <g clip-path="url(#p299d788645)">
     <use xlink:href="#m1fe4b2983f" x="296.16328" y="102.160191" style="fill: #ff0000; fill-opacity: 0.3; stroke: #ff0000; stroke-opacity: 0.3"/>
     <use xlink:href="#m1fe4b2983f" x="323.728689" y="104.151781" style="fill: #ff0000; fill-opacity: 0.3; stroke: #ff0000; stroke-opacity: 0.3"/>
     <use xlink:href="#m1fe4b2983f" x="301.671268" y="102.160191" style="fill: #ff0000; fill-opacity: 0.3; stroke: #ff0000; stroke-opacity: 0.3"/>
     <use xlink:href="#m1fe4b2983f" x="297.31698" y="102.909167" style="fill: #ff0000; fill-opacity: 0.3; stroke: #ff0000; stroke-opacity: 0.3"/>
     <use xlink:href="#m1fe4b2983f" x="295.565741" y="102.160191" style="fill: #ff0000; fill-opacity: 0.3; stroke: #ff0000; stroke-opacity: 0.3"/>
     <use xlink:href="#m1fe4b2983f" x="316.581233" y="104.151781" style="fill: #ff0000; fill-opacity: 0.3; stroke: #ff0000; stroke-opacity: 0.3"/>
     <use xlink:href="#m1fe4b2983f" x="319.386153" y="97.95828" style="fill: #ff0000; fill-opacity: 0.3; stroke: #ff0000; stroke-opacity: 0.3"/>
     <use xlink:href="#m1fe4b2983f" x="320.177619" y="102.909167" style="fill: #ff0000; fill-opacity: 0.3; stroke: #ff0000; stroke-opacity: 0.3"/>
     <use xlink:href="#m1fe4b2983f" x="301.599027" y="103.837541" style="fill: #ff0000; fill-opacity: 0.3; stroke: #ff0000; stroke-opacity: 0.3"/>
     <use xlink:href="#m1fe4b2983f" x="309.377408" y="107.033883" style="fill: #ff0000; fill-opacity: 0.3; stroke: #ff0000; stroke-opacity: 0.3"/>
     <use xlink:href="#m1fe4b2983f" x="295.058777" y="103.918973" style="fill: #ff0000; fill-opacity: 0.3; stroke: #ff0000; stroke-opacity: 0.3"/>
     <use xlink:href="#m1fe4b2983f" x="295.886294" y="107.033883" style="fill: #ff0000; fill-opacity: 0.3; stroke: #ff0000; stroke-opacity: 0.3"/>
     <use xlink:href="#m1fe4b2983f" x="304.948754" y="105.879664" style="fill: #ff0000; fill-opacity: 0.3; stroke: #ff0000; stroke-opacity: 0.3"/>
     <use xlink:href="#m1fe4b2983f" x="305.26487" y="106.480963" style="fill: #ff0000; fill-opacity: 0.3; stroke: #ff0000; stroke-opacity: 0.3"/>
     <use xlink:href="#m1fe4b2983f" x="313.403147" y="105.962893" style="fill: #ff0000; fill-opacity: 0.3; stroke: #ff0000; stroke-opacity: 0.3"/>
     <use xlink:href="#m1fe4b2983f" x="295.302468" y="99.687662" style="fill: #ff0000; fill-opacity: 0.3; stroke: #ff0000; stroke-opacity: 0.3"/>
     <use xlink:href="#m1fe4b2983f" x="314.87968" y="110.978182" style="fill: #ff0000; fill-opacity: 0.3; stroke: #ff0000; stroke-opacity: 0.3"/>
     <use xlink:href="#m1fe4b2983f" x="304.807073" y="110.978182" style="fill: #ff0000; fill-opacity: 0.3; stroke: #ff0000; stroke-opacity: 0.3"/>
     <use xlink:href="#m1fe4b2983f" x="315.669699" y="98.128352" style="fill: #ff0000; fill-opacity: 0.3; stroke: #ff0000; stroke-opacity: 0.3"/>
     <use xlink:href="#m1fe4b2983f" x="297.120914" y="102.932425" style="fill: #ff0000; fill-opacity: 0.3; stroke: #ff0000; stroke-opacity: 0.3"/>
     <use xlink:href="#m1fe4b2983f" x="295.422973" y="110.978182" style="fill: #ff0000; fill-opacity: 0.3; stroke: #ff0000; stroke-opacity: 0.3"/>
     <use xlink:href="#m1fe4b2983f" x="311.688269" y="110.978182" style="fill: #ff0000; fill-opacity: 0.3; stroke: #ff0000; stroke-opacity: 0.3"/>
     <use xlink:href="#m1fe4b2983f" x="312.188913" y="107.470037" style="fill: #ff0000; fill-opacity: 0.3; stroke: #ff0000; stroke-opacity: 0.3"/>
     <use xlink:href="#m1fe4b2983f" x="289.441586" y="106.620985" style="fill: #ff0000; fill-opacity: 0.3; stroke: #ff0000; stroke-opacity: 0.3"/>
     <use xlink:href="#m1fe4b2983f" x="294.100872" y="107.144591" style="fill: #ff0000; fill-opacity: 0.3; stroke: #ff0000; stroke-opacity: 0.3"/>
     <use xlink:href="#m1fe4b2983f" x="304.185181" y="107.741965" style="fill: #ff0000; fill-opacity: 0.3; stroke: #ff0000; stroke-opacity: 0.3"/>
     <use xlink:href="#m1fe4b2983f" x="318.451444" y="94.973251" style="fill: #ff0000; fill-opacity: 0.3; stroke: #ff0000; stroke-opacity: 0.3"/>
     <use xlink:href="#m1fe4b2983f" x="299.542471" y="107.494298" style="fill: #ff0000; fill-opacity: 0.3; stroke: #ff0000; stroke-opacity: 0.3"/>
     <use xlink:href="#m1fe4b2983f" x="303.548851" y="107.494298" style="fill: #ff0000; fill-opacity: 0.3; stroke: #ff0000; stroke-opacity: 0.3"/>
     <use xlink:href="#m1fe4b2983f" x="289.999612" y="102.901722" style="fill: #ff0000; fill-opacity: 0.3; stroke: #ff0000; stroke-opacity: 0.3"/>
     <use xlink:href="#m1fe4b2983f" x="311.15719" y="105.13986" style="fill: #ff0000; fill-opacity: 0.3; stroke: #ff0000; stroke-opacity: 0.3"/>
     <use xlink:href="#m1fe4b2983f" x="314.931023" y="104.786778" style="fill: #ff0000; fill-opacity: 0.3; stroke: #ff0000; stroke-opacity: 0.3"/>
     <use xlink:href="#m1fe4b2983f" x="310.561831" y="102.236808" style="fill: #ff0000; fill-opacity: 0.3; stroke: #ff0000; stroke-opacity: 0.3"/>
     <use xlink:href="#m1fe4b2983f" x="299.989075" y="105.13986" style="fill: #ff0000; fill-opacity: 0.3; stroke: #ff0000; stroke-opacity: 0.3"/>
     <use xlink:href="#m1fe4b2983f" x="312.446061" y="105.13986" style="fill: #ff0000; fill-opacity: 0.3; stroke: #ff0000; stroke-opacity: 0.3"/>
     <use xlink:href="#m1fe4b2983f" x="323.689318" y="102.901722" style="fill: #ff0000; fill-opacity: 0.3; stroke: #ff0000; stroke-opacity: 0.3"/>
     <use xlink:href="#m1fe4b2983f" x="299.375572" y="104.874492" style="fill: #ff0000; fill-opacity: 0.3; stroke: #ff0000; stroke-opacity: 0.3"/>
     <use xlink:href="#m1fe4b2983f" x="301.969458" y="104.874492" style="fill: #ff0000; fill-opacity: 0.3; stroke: #ff0000; stroke-opacity: 0.3"/>
     <use xlink:href="#m1fe4b2983f" x="312.149211" y="104.874492" style="fill: #ff0000; fill-opacity: 0.3; stroke: #ff0000; stroke-opacity: 0.3"/>
     <use xlink:href="#m1fe4b2983f" x="306.581633" y="104.874492" style="fill: #ff0000; fill-opacity: 0.3; stroke: #ff0000; stroke-opacity: 0.3"/>
     <use xlink:href="#m1fe4b2983f" x="312.506665" y="104.874492" style="fill: #ff0000; fill-opacity: 0.3; stroke: #ff0000; stroke-opacity: 0.3"/>
     <use xlink:href="#m1fe4b2983f" x="303.490852" y="104.874492" style="fill: #ff0000; fill-opacity: 0.3; stroke: #ff0000; stroke-opacity: 0.3"/>
     <use xlink:href="#m1fe4b2983f" x="311.850567" y="108.346601" style="fill: #ff0000; fill-opacity: 0.3; stroke: #ff0000; stroke-opacity: 0.3"/>
     <use xlink:href="#m1fe4b2983f" x="311.497721" y="108.346601" style="fill: #ff0000; fill-opacity: 0.3; stroke: #ff0000; stroke-opacity: 0.3"/>
     <use xlink:href="#m1fe4b2983f" x="321.080384" y="100.216051" style="fill: #ff0000; fill-opacity: 0.3; stroke: #ff0000; stroke-opacity: 0.3"/>
     <use xlink:href="#m1fe4b2983f" x="310.724669" y="100.216051" style="fill: #ff0000; fill-opacity: 0.3; stroke: #ff0000; stroke-opacity: 0.3"/>
     <use xlink:href="#m1fe4b2983f" x="315.343518" y="100.216051" style="fill: #ff0000; fill-opacity: 0.3; stroke: #ff0000; stroke-opacity: 0.3"/>
     <use xlink:href="#m1fe4b2983f" x="291.739568" y="100.216051" style="fill: #ff0000; fill-opacity: 0.3; stroke: #ff0000; stroke-opacity: 0.3"/>
     <use xlink:href="#m1fe4b2983f" x="312.542487" y="100.216051" style="fill: #ff0000; fill-opacity: 0.3; stroke: #ff0000; stroke-opacity: 0.3"/>
     <use xlink:href="#m1fe4b2983f" x="321.970604" y="100.216051" style="fill: #ff0000; fill-opacity: 0.3; stroke: #ff0000; stroke-opacity: 0.3"/>
     <use xlink:href="#m1fe4b2983f" x="323.358383" y="100.216051" style="fill: #ff0000; fill-opacity: 0.3; stroke: #ff0000; stroke-opacity: 0.3"/>
    </g>
   </g>
   <g id="line2d_11">
    <g clip-path="url(#p299d788645)">
     <use xlink:href="#m1fe4b2983f" x="391.373335" y="104.00115" style="fill: #ff0000; fill-opacity: 0.3; stroke: #ff0000; stroke-opacity: 0.3"/>
     <use xlink:href="#m1fe4b2983f" x="420.955073" y="107.837539" style="fill: #ff0000; fill-opacity: 0.3; stroke: #ff0000; stroke-opacity: 0.3"/>
     <use xlink:href="#m1fe4b2983f" x="424.224096" y="104.00115" style="fill: #ff0000; fill-opacity: 0.3; stroke: #ff0000; stroke-opacity: 0.3"/>
     <use xlink:href="#m1fe4b2983f" x="407.585949" y="105.621295" style="fill: #ff0000; fill-opacity: 0.3; stroke: #ff0000; stroke-opacity: 0.3"/>
     <use xlink:href="#m1fe4b2983f" x="406.151418" y="104.00115" style="fill: #ff0000; fill-opacity: 0.3; stroke: #ff0000; stroke-opacity: 0.3"/>
     <use xlink:href="#m1fe4b2983f" x="422.379586" y="107.837539" style="fill: #ff0000; fill-opacity: 0.3; stroke: #ff0000; stroke-opacity: 0.3"/>
     <use xlink:href="#m1fe4b2983f" x="418.965644" y="105.130018" style="fill: #ff0000; fill-opacity: 0.3; stroke: #ff0000; stroke-opacity: 0.3"/>
     <use xlink:href="#m1fe4b2983f" x="409.486011" y="105.621295" style="fill: #ff0000; fill-opacity: 0.3; stroke: #ff0000; stroke-opacity: 0.3"/>
     <use xlink:href="#m1fe4b2983f" x="398.386909" y="101.848617" style="fill: #ff0000; fill-opacity: 0.3; stroke: #ff0000; stroke-opacity: 0.3"/>
     <use xlink:href="#m1fe4b2983f" x="398.560773" y="107.328881" style="fill: #ff0000; fill-opacity: 0.3; stroke: #ff0000; stroke-opacity: 0.3"/>
     <use xlink:href="#m1fe4b2983f" x="415.015457" y="102.712053" style="fill: #ff0000; fill-opacity: 0.3; stroke: #ff0000; stroke-opacity: 0.3"/>
     <use xlink:href="#m1fe4b2983f" x="408.622102" y="107.328881" style="fill: #ff0000; fill-opacity: 0.3; stroke: #ff0000; stroke-opacity: 0.3"/>
     <use xlink:href="#m1fe4b2983f" x="408.19345" y="106.92032" style="fill: #ff0000; fill-opacity: 0.3; stroke: #ff0000; stroke-opacity: 0.3"/>
     <use xlink:href="#m1fe4b2983f" x="394.028857" y="107.421135" style="fill: #ff0000; fill-opacity: 0.3; stroke: #ff0000; stroke-opacity: 0.3"/>
     <use xlink:href="#m1fe4b2983f" x="409.213711" y="108.080184" style="fill: #ff0000; fill-opacity: 0.3; stroke: #ff0000; stroke-opacity: 0.3"/>
     <use xlink:href="#m1fe4b2983f" x="424.573237" y="82.231061" style="fill: #ff0000; fill-opacity: 0.3; stroke: #ff0000; stroke-opacity: 0.3"/>
     <use xlink:href="#m1fe4b2983f" x="421.923571" y="110.926296" style="fill: #ff0000; fill-opacity: 0.3; stroke: #ff0000; stroke-opacity: 0.3"/>
     <use xlink:href="#m1fe4b2983f" x="423.131941" y="110.88603" style="fill: #ff0000; fill-opacity: 0.3; stroke: #ff0000; stroke-opacity: 0.3"/>
     <use xlink:href="#m1fe4b2983f" x="402.89001" y="68.034976" style="fill: #ff0000; fill-opacity: 0.3; stroke: #ff0000; stroke-opacity: 0.3"/>
     <use xlink:href="#m1fe4b2983f" x="410.109541" y="66.3147" style="fill: #ff0000; fill-opacity: 0.3; stroke: #ff0000; stroke-opacity: 0.3"/>
     <use xlink:href="#m1fe4b2983f" x="404.464311" y="110.926296" style="fill: #ff0000; fill-opacity: 0.3; stroke: #ff0000; stroke-opacity: 0.3"/>
     <use xlink:href="#m1fe4b2983f" x="393.06168" y="110.978182" style="fill: #ff0000; fill-opacity: 0.3; stroke: #ff0000; stroke-opacity: 0.3"/>
     <use xlink:href="#m1fe4b2983f" x="392.591216" y="102.717599" style="fill: #ff0000; fill-opacity: 0.3; stroke: #ff0000; stroke-opacity: 0.3"/>
     <use xlink:href="#m1fe4b2983f" x="406.415183" y="100.419043" style="fill: #ff0000; fill-opacity: 0.3; stroke: #ff0000; stroke-opacity: 0.3"/>
     <use xlink:href="#m1fe4b2983f" x="407.734176" y="104.467338" style="fill: #ff0000; fill-opacity: 0.3; stroke: #ff0000; stroke-opacity: 0.3"/>
     <use xlink:href="#m1fe4b2983f" x="415.701065" y="102.31869" style="fill: #ff0000; fill-opacity: 0.3; stroke: #ff0000; stroke-opacity: 0.3"/>
     <use xlink:href="#m1fe4b2983f" x="420.099786" y="31.063631" style="fill: #ff0000; fill-opacity: 0.3; stroke: #ff0000; stroke-opacity: 0.3"/>
     <use xlink:href="#m1fe4b2983f" x="403.047057" y="100.923407" style="fill: #ff0000; fill-opacity: 0.3; stroke: #ff0000; stroke-opacity: 0.3"/>
     <use xlink:href="#m1fe4b2983f" x="401.790945" y="100.923407" style="fill: #ff0000; fill-opacity: 0.3; stroke: #ff0000; stroke-opacity: 0.3"/>
     <use xlink:href="#m1fe4b2983f" x="402.564528" y="99.076099" style="fill: #ff0000; fill-opacity: 0.3; stroke: #ff0000; stroke-opacity: 0.3"/>
     <use xlink:href="#m1fe4b2983f" x="401.470856" y="77.509077" style="fill: #ff0000; fill-opacity: 0.3; stroke: #ff0000; stroke-opacity: 0.3"/>
     <use xlink:href="#m1fe4b2983f" x="425.812972" y="82.825066" style="fill: #ff0000; fill-opacity: 0.3; stroke: #ff0000; stroke-opacity: 0.3"/>
     <use xlink:href="#m1fe4b2983f" x="398.79308" y="79.28422" style="fill: #ff0000; fill-opacity: 0.3; stroke: #ff0000; stroke-opacity: 0.3"/>
     <use xlink:href="#m1fe4b2983f" x="401.071626" y="77.509077" style="fill: #ff0000; fill-opacity: 0.3; stroke: #ff0000; stroke-opacity: 0.3"/>
     <use xlink:href="#m1fe4b2983f" x="418.556224" y="77.509077" style="fill: #ff0000; fill-opacity: 0.3; stroke: #ff0000; stroke-opacity: 0.3"/>
     <use xlink:href="#m1fe4b2983f" x="401.715892" y="99.076099" style="fill: #ff0000; fill-opacity: 0.3; stroke: #ff0000; stroke-opacity: 0.3"/>
     <use xlink:href="#m1fe4b2983f" x="419.320444" y="106.144123" style="fill: #ff0000; fill-opacity: 0.3; stroke: #ff0000; stroke-opacity: 0.3"/>
     <use xlink:href="#m1fe4b2983f" x="400.543436" y="106.144123" style="fill: #ff0000; fill-opacity: 0.3; stroke: #ff0000; stroke-opacity: 0.3"/>
     <use xlink:href="#m1fe4b2983f" x="416.641675" y="106.144123" style="fill: #ff0000; fill-opacity: 0.3; stroke: #ff0000; stroke-opacity: 0.3"/>
     <use xlink:href="#m1fe4b2983f" x="407.002569" y="106.144123" style="fill: #ff0000; fill-opacity: 0.3; stroke: #ff0000; stroke-opacity: 0.3"/>
     <use xlink:href="#m1fe4b2983f" x="429.436644" y="106.144123" style="fill: #ff0000; fill-opacity: 0.3; stroke: #ff0000; stroke-opacity: 0.3"/>
     <use xlink:href="#m1fe4b2983f" x="421.627093" y="106.144123" style="fill: #ff0000; fill-opacity: 0.3; stroke: #ff0000; stroke-opacity: 0.3"/>
     <use xlink:href="#m1fe4b2983f" x="421.385442" y="106.08895" style="fill: #ff0000; fill-opacity: 0.3; stroke: #ff0000; stroke-opacity: 0.3"/>
     <use xlink:href="#m1fe4b2983f" x="411.511718" y="106.08895" style="fill: #ff0000; fill-opacity: 0.3; stroke: #ff0000; stroke-opacity: 0.3"/>
     <use xlink:href="#m1fe4b2983f" x="400.701755" y="100.630248" style="fill: #ff0000; fill-opacity: 0.3; stroke: #ff0000; stroke-opacity: 0.3"/>
     <use xlink:href="#m1fe4b2983f" x="397.179589" y="100.630248" style="fill: #ff0000; fill-opacity: 0.3; stroke: #ff0000; stroke-opacity: 0.3"/>
     <use xlink:href="#m1fe4b2983f" x="416.905268" y="100.630248" style="fill: #ff0000; fill-opacity: 0.3; stroke: #ff0000; stroke-opacity: 0.3"/>
     <use xlink:href="#m1fe4b2983f" x="414.888481" y="100.630248" style="fill: #ff0000; fill-opacity: 0.3; stroke: #ff0000; stroke-opacity: 0.3"/>
     <use xlink:href="#m1fe4b2983f" x="418.730201" y="100.630248" style="fill: #ff0000; fill-opacity: 0.3; stroke: #ff0000; stroke-opacity: 0.3"/>
     <use xlink:href="#m1fe4b2983f" x="399.980735" y="100.630248" style="fill: #ff0000; fill-opacity: 0.3; stroke: #ff0000; stroke-opacity: 0.3"/>
     <use xlink:href="#m1fe4b2983f" x="407.012754" y="100.630248" style="fill: #ff0000; fill-opacity: 0.3; stroke: #ff0000; stroke-opacity: 0.3"/>
    </g>
   </g>
   <g id="LineCollection_1">
    <path d="M 75.740508 12.141818 
L 122.565683 12.141818 
" clip-path="url(#p299d788645)" style="fill: none; stroke: #000000; stroke-width: 1.5"/>
    <path d="M 179.796453 39.517911 
L 226.621627 39.517911 
" clip-path="url(#p299d788645)" style="fill: none; stroke: #000000; stroke-width: 1.5"/>
    <path d="M 283.852397 88.893823 
L 330.677571 88.893823 
" clip-path="url(#p299d788645)" style="fill: none; stroke: #000000; stroke-width: 1.5"/>
    <path d="M 387.908341 31.063631 
L 434.733515 31.063631 
" clip-path="url(#p299d788645)" style="fill: none; stroke: #000000; stroke-width: 1.5"/>
   </g>
   <g id="LineCollection_2">
    <path d="M 75.740508 110.978182 
L 122.565683 110.978182 
" clip-path="url(#p299d788645)" style="fill: none; stroke: #000000; stroke-width: 1.5"/>
    <path d="M 179.796453 110.978182 
L 226.621627 110.978182 
" clip-path="url(#p299d788645)" style="fill: none; stroke: #000000; stroke-width: 1.5"/>
    <path d="M 283.852397 110.978182 
L 330.677571 110.978182 
" clip-path="url(#p299d788645)" style="fill: none; stroke: #000000; stroke-width: 1.5"/>
    <path d="M 387.908341 110.978182 
L 434.733515 110.978182 
" clip-path="url(#p299d788645)" style="fill: none; stroke: #000000; stroke-width: 1.5"/>
   </g>
   <g id="LineCollection_3">
    <path d="M 99.153096 110.978182 
L 99.153096 12.141818 
" clip-path="url(#p299d788645)" style="fill: none; stroke: #000000; stroke-width: 1.5"/>
    <path d="M 203.20904 110.978182 
L 203.20904 39.517911 
" clip-path="url(#p299d788645)" style="fill: none; stroke: #000000; stroke-width: 1.5"/>
    <path d="M 307.264984 110.978182 
L 307.264984 88.893823 
" clip-path="url(#p299d788645)" style="fill: none; stroke: #000000; stroke-width: 1.5"/>
    <path d="M 411.320928 110.978182 
L 411.320928 31.063631 
" clip-path="url(#p299d788645)" style="fill: none; stroke: #000000; stroke-width: 1.5"/>
   </g>
   <g id="LineCollection_4">
    <path d="M 75.740508 93.895102 
L 122.565683 93.895102 
" clip-path="url(#p299d788645)" style="fill: none; stroke: #000000; stroke-width: 1.5"/>
    <path d="M 179.796453 109.141646 
L 226.621627 109.141646 
" clip-path="url(#p299d788645)" style="fill: none; stroke: #000000; stroke-width: 1.5"/>
    <path d="M 283.852397 103.908098 
L 330.677571 103.908098 
" clip-path="url(#p299d788645)" style="fill: none; stroke: #000000; stroke-width: 1.5"/>
    <path d="M 387.908341 102.31869 
L 434.733515 102.31869 
" clip-path="url(#p299d788645)" style="fill: none; stroke: #000000; stroke-width: 1.5"/>
   </g>
   <g id="line2d_12">
    <path d="M 32.037012 92.111981 
L 478.437012 92.111981 
" clip-path="url(#p299d788645)" style="fill: none; stroke-dasharray: 3.7,1.6; stroke-dashoffset: 0; stroke: #000000"/>
   </g>
   <g id="patch_3">
    <path d="M 32.037012 115.92 
L 32.037012 7.2 
" style="fill: none; stroke: #000000; stroke-width: 0.8; stroke-linejoin: miter; stroke-linecap: square"/>
   </g>
   <g id="patch_4">
    <path d="M 478.437012 115.92 
L 478.437012 7.2 
" style="fill: none; stroke: #000000; stroke-width: 0.8; stroke-linejoin: miter; stroke-linecap: square"/>
   </g>
   <g id="patch_5">
    <path d="M 32.037012 115.92 
L 478.437012 115.92 
" style="fill: none; stroke: #000000; stroke-width: 0.8; stroke-linejoin: miter; stroke-linecap: square"/>
   </g>
   <g id="patch_6">
    <path d="M 32.037012 7.2 
L 478.437012 7.2 
" style="fill: none; stroke: #000000; stroke-width: 0.8; stroke-linejoin: miter; stroke-linecap: square"/>
   </g>
  </g>
 </g>
 <defs>
  <clipPath id="p299d788645">
   <rect x="32.037012" y="7.2" width="446.4" height="108.72"/>
  </clipPath>
 </defs>
</svg>
