<?xml version="1.0" encoding="utf-8" standalone="no"?>
<!DOCTYPE svg PUBLIC "-//W3C//DTD SVG 1.1//EN"
  "http://www.w3.org/Graphics/SVG/1.1/DTD/svg11.dtd">
<svg xmlns:xlink="http://www.w3.org/1999/xlink" width="211.618347pt" height="138.241353pt" viewBox="0 0 211.618347 138.241353" xmlns="http://www.w3.org/2000/svg" version="1.1">
 <metadata>
  <rdf:RDF xmlns:dc="http://purl.org/dc/elements/1.1/" xmlns:cc="http://creativecommons.org/ns#" xmlns:rdf="http://www.w3.org/1999/02/22-rdf-syntax-ns#">
   <cc:Work>
    <dc:type rdf:resource="http://purl.org/dc/dcmitype/StillImage"/>
    <dc:date>2022-03-29T16:18:13.032047</dc:date>
    <dc:format>image/svg+xml</dc:format>
    <dc:creator>
     <cc:Agent>
      <dc:title>Matplotlib v3.5.1, https://matplotlib.org/</dc:title>
     </cc:Agent>
    </dc:creator>
   </cc:Work>
  </rdf:RDF>
 </metadata>
 <defs>
  <style type="text/css">*{stroke-linejoin: round; stroke-linecap: butt}</style>
 </defs>
 <g id="figure_1">
  <g id="patch_1">
   <path d="M 0 138.241353 
L 211.618347 138.241353 
L 211.618347 -0 
L 0 -0 
L 0 138.241353 
z
" style="fill: none"/>
  </g>
  <g id="axes_1">
   <g id="patch_2">
    <path d="M 37.018347 102.33 
L 204.418347 102.33 
L 204.418347 7.2 
L 37.018347 7.2 
z
" style="fill: #ffffff"/>
   </g>
   <g id="PolyCollection_1">
    <path d="M 54.583258 98.005909 
L 44.627438 98.005909 
L 44.627438 98.005909 
L 44.627438 98.005909 
L 44.627438 98.005909 
L 44.627438 98.005909 
L 44.627438 98.005909 
L 44.627438 98.005909 
L 44.627438 98.005909 
L 44.627438 98.005909 
L 44.627438 98.005909 
L 44.627438 98.005909 
L 44.627438 98.005909 
L 44.627438 98.005909 
L 44.627438 98.005909 
L 44.627438 98.005909 
L 44.627438 98.005909 
L 44.627438 98.005909 
L 44.627438 98.005909 
L 44.627438 98.005909 
L 44.627438 98.005909 
L 44.627438 98.005909 
L 44.627438 98.005909 
L 44.627438 98.005909 
L 44.627438 98.005909 
L 44.627438 98.005909 
L 44.627438 98.005909 
L 44.627438 98.005909 
L 44.627438 98.005909 
L 44.627438 98.005909 
L 44.627438 98.005909 
L 44.627438 98.005909 
L 44.627438 98.005909 
L 44.627438 98.005909 
L 44.627438 98.005909 
L 44.627438 98.005909 
L 44.627438 98.005909 
L 44.627438 98.005909 
L 44.627438 98.005909 
L 44.627438 98.005909 
L 44.627438 98.005909 
L 44.627438 98.005909 
L 44.627438 98.005909 
L 44.627438 98.005909 
L 44.627438 98.005909 
L 44.627438 98.005909 
L 44.627438 98.005909 
L 44.627438 98.005909 
L 44.627438 98.005909 
L 44.627438 98.005909 
L 44.627438 98.005909 
L 44.627438 98.005909 
L 44.627438 98.005909 
L 44.627438 98.005909 
L 44.627438 98.005909 
L 44.627438 98.005909 
L 44.627438 98.005909 
L 44.627438 98.005909 
L 44.627438 98.005909 
L 44.627438 98.005909 
L 44.627438 98.005909 
L 44.627438 98.005909 
L 44.627438 98.005909 
L 44.627438 98.005909 
L 44.627438 98.005909 
L 44.627438 98.005909 
L 44.627438 98.005909 
L 44.627438 98.005909 
L 44.627438 98.005909 
L 44.627438 98.005909 
L 44.627438 98.005909 
L 44.627438 98.005909 
L 44.627438 98.005909 
L 44.627438 98.005909 
L 44.627438 98.005909 
L 44.627438 98.005909 
L 44.627438 98.005909 
L 44.627438 98.005909 
L 44.627438 98.005909 
L 44.627438 98.005909 
L 44.627438 98.005909 
L 44.627438 98.005909 
L 44.627438 98.005909 
L 44.627438 98.005909 
L 44.627438 98.005909 
L 44.627438 98.005909 
L 44.627438 98.005909 
L 44.627438 98.005909 
L 44.627438 98.005909 
L 44.627438 98.005909 
L 44.627438 98.005909 
L 44.627438 98.005909 
L 44.627438 98.005909 
L 44.627438 98.005909 
L 44.627438 98.005909 
L 44.627438 98.005909 
L 44.627438 98.005909 
L 44.627438 98.005909 
L 44.627438 98.005909 
L 44.627438 98.005909 
L 44.627438 98.005909 
L 54.583258 98.005909 
L 54.583258 98.005909 
L 54.583258 98.005909 
L 54.583258 98.005909 
L 54.583258 98.005909 
L 54.583258 98.005909 
L 54.583258 98.005909 
L 54.583258 98.005909 
L 54.583258 98.005909 
L 54.583258 98.005909 
L 54.583258 98.005909 
L 54.583258 98.005909 
L 54.583258 98.005909 
L 54.583258 98.005909 
L 54.583258 98.005909 
L 54.583258 98.005909 
L 54.583258 98.005909 
L 54.583258 98.005909 
L 54.583258 98.005909 
L 54.583258 98.005909 
L 54.583258 98.005909 
L 54.583258 98.005909 
L 54.583258 98.005909 
L 54.583258 98.005909 
L 54.583258 98.005909 
L 54.583258 98.005909 
L 54.583258 98.005909 
L 54.583258 98.005909 
L 54.583258 98.005909 
L 54.583258 98.005909 
L 54.583258 98.005909 
L 54.583258 98.005909 
L 54.583258 98.005909 
L 54.583258 98.005909 
L 54.583258 98.005909 
L 54.583258 98.005909 
L 54.583258 98.005909 
L 54.583258 98.005909 
L 54.583258 98.005909 
L 54.583258 98.005909 
L 54.583258 98.005909 
L 54.583258 98.005909 
L 54.583258 98.005909 
L 54.583258 98.005909 
L 54.583258 98.005909 
L 54.583258 98.005909 
L 54.583258 98.005909 
L 54.583258 98.005909 
L 54.583258 98.005909 
L 54.583258 98.005909 
L 54.583258 98.005909 
L 54.583258 98.005909 
L 54.583258 98.005909 
L 54.583258 98.005909 
L 54.583258 98.005909 
L 54.583258 98.005909 
L 54.583258 98.005909 
L 54.583258 98.005909 
L 54.583258 98.005909 
L 54.583258 98.005909 
L 54.583258 98.005909 
L 54.583258 98.005909 
L 54.583258 98.005909 
L 54.583258 98.005909 
L 54.583258 98.005909 
L 54.583258 98.005909 
L 54.583258 98.005909 
L 54.583258 98.005909 
L 54.583258 98.005909 
L 54.583258 98.005909 
L 54.583258 98.005909 
L 54.583258 98.005909 
L 54.583258 98.005909 
L 54.583258 98.005909 
L 54.583258 98.005909 
L 54.583258 98.005909 
L 54.583258 98.005909 
L 54.583258 98.005909 
L 54.583258 98.005909 
L 54.583258 98.005909 
L 54.583258 98.005909 
L 54.583258 98.005909 
L 54.583258 98.005909 
L 54.583258 98.005909 
L 54.583258 98.005909 
L 54.583258 98.005909 
L 54.583258 98.005909 
L 54.583258 98.005909 
L 54.583258 98.005909 
L 54.583258 98.005909 
L 54.583258 98.005909 
L 54.583258 98.005909 
L 54.583258 98.005909 
L 54.583258 98.005909 
L 54.583258 98.005909 
L 54.583258 98.005909 
L 54.583258 98.005909 
L 54.583258 98.005909 
L 54.583258 98.005909 
L 54.583258 98.005909 
L 54.583258 98.005909 
z
" clip-path="url(#pbccf74d2cc)" style="fill: #ff0000; fill-opacity: 0.3"/>
   </g>
   <g id="PolyCollection_2">
    <path d="M 78.756759 96.851691 
L 77.344337 96.851691 
L 77.350912 96.817307 
L 77.370933 96.782922 
L 77.403003 96.748537 
L 77.44497 96.714153 
L 77.494093 96.679768 
L 77.54724 96.645384 
L 77.601106 96.610999 
L 77.652415 96.576614 
L 77.698089 96.54223 
L 77.735389 96.507845 
L 77.762004 96.47346 
L 77.776114 96.439076 
L 77.776421 96.404691 
L 77.762177 96.370307 
L 77.733193 96.335922 
L 77.689857 96.301537 
L 77.633136 96.267153 
L 77.564561 96.232768 
L 77.486185 96.198383 
L 77.400494 96.163999 
L 77.310261 96.129614 
L 77.218356 96.09523 
L 77.127506 96.060845 
L 77.04004 96.02646 
L 76.957628 95.992076 
L 76.881077 95.957691 
L 76.810174 95.923306 
L 76.743637 95.888922 
L 76.679163 95.854537 
L 76.613573 95.820153 
L 76.543055 95.785768 
L 76.463461 95.751383 
L 76.37064 95.716999 
L 76.260772 95.682614 
L 76.130679 95.648229 
L 75.978096 95.613845 
L 75.801882 95.57946 
L 75.602182 95.545076 
L 75.380519 95.510691 
L 75.139841 95.476306 
L 74.884487 95.441922 
L 74.620107 95.407537 
L 74.353485 95.373152 
L 74.092298 95.338768 
L 73.844788 95.304383 
L 73.61936 95.269998 
L 73.424139 95.235614 
L 73.266498 95.201229 
L 73.152615 95.166845 
L 73.087086 95.13246 
L 73.072638 95.098075 
L 73.109966 95.063691 
L 73.197708 95.029306 
L 73.332547 94.994921 
L 73.509445 94.960537 
L 73.721952 94.926152 
L 73.962591 94.891768 
L 74.223266 94.857383 
L 74.49567 94.822998 
L 74.771678 94.788614 
L 75.043696 94.754229 
L 75.304959 94.719844 
L 75.549765 94.68546 
L 75.773631 94.651075 
L 75.973386 94.616691 
L 76.147172 94.582306 
L 76.294379 94.547921 
L 76.415524 94.513537 
L 76.51207 94.479152 
L 76.586234 94.444767 
L 76.640776 94.410383 
L 76.678816 94.375998 
L 76.703666 94.341614 
L 76.718709 94.307229 
L 76.727295 94.272844 
L 76.732671 94.23846 
L 76.737916 94.204075 
L 76.745869 94.16969 
L 76.759046 94.135306 
L 76.77955 94.100921 
L 76.808957 94.066537 
L 76.848227 94.032152 
L 76.897626 93.997767 
L 76.956698 93.963383 
L 77.024291 93.928998 
L 77.098651 93.894613 
L 77.177571 93.860229 
L 77.25859 93.825844 
L 77.339206 93.79146 
L 77.417098 93.757075 
L 77.490304 93.72269 
L 77.557363 93.688306 
L 77.617379 93.653921 
L 77.670029 93.619536 
L 77.715504 93.585152 
L 77.754405 93.550767 
L 77.78761 93.516383 
L 77.816135 93.481998 
L 77.841001 93.447613 
L 78.260095 93.447613 
L 78.260095 93.447613 
L 78.284961 93.481998 
L 78.313485 93.516383 
L 78.34669 93.550767 
L 78.385591 93.585152 
L 78.431067 93.619536 
L 78.483717 93.653921 
L 78.543733 93.688306 
L 78.610792 93.72269 
L 78.683998 93.757075 
L 78.761889 93.79146 
L 78.842506 93.825844 
L 78.923524 93.860229 
L 79.002445 93.894613 
L 79.076805 93.928998 
L 79.144398 93.963383 
L 79.203469 93.997767 
L 79.252868 94.032152 
L 79.292139 94.066537 
L 79.321546 94.100921 
L 79.342049 94.135306 
L 79.355227 94.16969 
L 79.363179 94.204075 
L 79.368424 94.23846 
L 79.373801 94.272844 
L 79.382387 94.307229 
L 79.397429 94.341614 
L 79.42228 94.375998 
L 79.460319 94.410383 
L 79.514862 94.444767 
L 79.589025 94.479152 
L 79.685572 94.513537 
L 79.806716 94.547921 
L 79.953924 94.582306 
L 80.127709 94.616691 
L 80.327464 94.651075 
L 80.551331 94.68546 
L 80.796136 94.719844 
L 81.0574 94.754229 
L 81.329418 94.788614 
L 81.605426 94.822998 
L 81.877829 94.857383 
L 82.138504 94.891768 
L 82.379144 94.926152 
L 82.591651 94.960537 
L 82.768548 94.994921 
L 82.903388 95.029306 
L 82.991129 95.063691 
L 83.028458 95.098075 
L 83.01401 95.13246 
L 82.948481 95.166845 
L 82.834597 95.201229 
L 82.676956 95.235614 
L 82.481735 95.269998 
L 82.256307 95.304383 
L 82.008797 95.338768 
L 81.74761 95.373152 
L 81.480988 95.407537 
L 81.216608 95.441922 
L 80.961255 95.476306 
L 80.720576 95.510691 
L 80.498914 95.545076 
L 80.299213 95.57946 
L 80.123 95.613845 
L 79.970416 95.648229 
L 79.840324 95.682614 
L 79.730455 95.716999 
L 79.637634 95.751383 
L 79.55804 95.785768 
L 79.487523 95.820153 
L 79.421933 95.854537 
L 79.357458 95.888922 
L 79.290921 95.923306 
L 79.220018 95.957691 
L 79.143467 95.992076 
L 79.061056 96.02646 
L 78.973589 96.060845 
L 78.88274 96.09523 
L 78.790835 96.129614 
L 78.700602 96.163999 
L 78.61491 96.198383 
L 78.536535 96.232768 
L 78.46796 96.267153 
L 78.411238 96.301537 
L 78.367902 96.335922 
L 78.338919 96.370307 
L 78.324674 96.404691 
L 78.324982 96.439076 
L 78.339091 96.47346 
L 78.365706 96.507845 
L 78.403006 96.54223 
L 78.448681 96.576614 
L 78.499989 96.610999 
L 78.553855 96.645384 
L 78.607003 96.679768 
L 78.656125 96.714153 
L 78.698092 96.748537 
L 78.730162 96.782922 
L 78.750183 96.817307 
L 78.756759 96.851691 
z
" clip-path="url(#pbccf74d2cc)" style="fill: #ff0000; fill-opacity: 0.3"/>
   </g>
   <g id="PolyCollection_3">
    <path d="M 107.33793 91.608379 
L 105.653565 91.608379 
L 105.533738 91.552269 
L 105.399595 91.49616 
L 105.249461 91.44005 
L 105.08182 91.383941 
L 104.89554 91.327831 
L 104.690127 91.271722 
L 104.46599 91.215612 
L 104.224672 91.159503 
L 103.969027 91.103393 
L 103.703302 91.047284 
L 103.433098 90.991174 
L 103.165197 90.935065 
L 102.907254 90.878955 
L 102.667371 90.822846 
L 102.453569 90.766736 
L 102.273238 90.710627 
L 102.132575 90.654517 
L 102.036103 90.598408 
L 101.986292 90.542298 
L 101.983342 90.486189 
L 102.025134 90.43008 
L 102.107362 90.37397 
L 102.223822 90.317861 
L 102.366831 90.261751 
L 102.527732 90.205642 
L 102.697429 90.149532 
L 102.866916 90.093423 
L 103.027751 90.037313 
L 103.172443 89.981204 
L 103.294736 89.925094 
L 103.389786 89.868985 
L 103.454237 89.812875 
L 103.486194 89.756766 
L 103.485141 89.700656 
L 103.451795 89.644547 
L 103.387938 89.588437 
L 103.296235 89.532328 
L 103.180062 89.476218 
L 103.043338 89.420109 
L 102.890391 89.363999 
L 102.725846 89.30789 
L 102.554526 89.251781 
L 102.381389 89.195671 
L 102.211464 89.139562 
L 102.049794 89.083452 
L 101.901372 89.027343 
L 101.771069 88.971233 
L 101.66353 88.915124 
L 101.583052 88.859014 
L 101.533438 88.802905 
L 101.517837 88.746795 
L 101.538572 88.690686 
L 101.59698 88.634576 
L 101.693282 88.578467 
L 101.82649 88.522357 
L 101.994378 88.466248 
L 102.193517 88.410138 
L 102.419386 88.354029 
L 102.666555 88.297919 
L 102.928922 88.24181 
L 103.199995 88.1857 
L 103.473205 88.129591 
L 103.742205 88.073481 
L 104.001153 88.017372 
L 104.244959 87.961263 
L 104.469465 87.905153 
L 104.671567 87.849044 
L 104.849265 87.792934 
L 105.001661 87.736825 
L 105.128883 87.680715 
L 105.231983 87.624606 
L 105.312786 87.568496 
L 105.373728 87.512387 
L 105.41768 87.456277 
L 105.44777 87.400168 
L 105.46721 87.344058 
L 105.479136 87.287949 
L 105.486466 87.231839 
L 105.491774 87.17573 
L 105.497198 87.11962 
L 105.504365 87.063511 
L 105.514364 87.007401 
L 105.527742 86.951292 
L 105.544544 86.895182 
L 105.564387 86.839073 
L 105.586558 86.782964 
L 105.610141 86.726854 
L 105.634148 86.670745 
L 105.657654 86.614635 
L 105.679914 86.558526 
L 105.700455 86.502416 
L 105.719132 86.446307 
L 105.73615 86.390197 
L 105.75203 86.334088 
L 105.767556 86.277978 
L 105.783679 86.221869 
L 105.801406 86.165759 
L 105.82169 86.10965 
L 105.845322 86.05354 
L 107.146173 86.05354 
L 107.146173 86.05354 
L 107.169805 86.10965 
L 107.190089 86.165759 
L 107.207816 86.221869 
L 107.223939 86.277978 
L 107.239465 86.334088 
L 107.255345 86.390197 
L 107.272362 86.446307 
L 107.29104 86.502416 
L 107.311581 86.558526 
L 107.333841 86.614635 
L 107.357347 86.670745 
L 107.381354 86.726854 
L 107.404937 86.782964 
L 107.427108 86.839073 
L 107.446951 86.895182 
L 107.463753 86.951292 
L 107.477131 87.007401 
L 107.487129 87.063511 
L 107.494297 87.11962 
L 107.499721 87.17573 
L 107.505029 87.231839 
L 107.512359 87.287949 
L 107.524285 87.344058 
L 107.543725 87.400168 
L 107.573814 87.456277 
L 107.617767 87.512387 
L 107.678709 87.568496 
L 107.759512 87.624606 
L 107.862612 87.680715 
L 107.989834 87.736825 
L 108.14223 87.792934 
L 108.319928 87.849044 
L 108.522029 87.905153 
L 108.746535 87.961263 
L 108.990342 88.017372 
L 109.24929 88.073481 
L 109.518289 88.129591 
L 109.791499 88.1857 
L 110.062573 88.24181 
L 110.324939 88.297919 
L 110.572108 88.354029 
L 110.797978 88.410138 
L 110.997117 88.466248 
L 111.165005 88.522357 
L 111.298213 88.578467 
L 111.394515 88.634576 
L 111.452923 88.690686 
L 111.473657 88.746795 
L 111.458056 88.802905 
L 111.408443 88.859014 
L 111.327965 88.915124 
L 111.220425 88.971233 
L 111.090123 89.027343 
L 110.941701 89.083452 
L 110.780031 89.139562 
L 110.610105 89.195671 
L 110.436969 89.251781 
L 110.265649 89.30789 
L 110.101103 89.363999 
L 109.948157 89.420109 
L 109.811433 89.476218 
L 109.695259 89.532328 
L 109.603557 89.588437 
L 109.5397 89.644547 
L 109.506354 89.700656 
L 109.505301 89.756766 
L 109.537258 89.812875 
L 109.601708 89.868985 
L 109.696759 89.925094 
L 109.819052 89.981204 
L 109.963743 90.037313 
L 110.124579 90.093423 
L 110.294066 90.149532 
L 110.463763 90.205642 
L 110.624663 90.261751 
L 110.767673 90.317861 
L 110.884133 90.37397 
L 110.966361 90.43008 
L 111.008153 90.486189 
L 111.005203 90.542298 
L 110.955392 90.598408 
L 110.85892 90.654517 
L 110.718257 90.710627 
L 110.537926 90.766736 
L 110.324124 90.822846 
L 110.08424 90.878955 
L 109.826298 90.935065 
L 109.558397 90.991174 
L 109.288192 91.047284 
L 109.022467 91.103393 
L 108.766823 91.159503 
L 108.525505 91.215612 
L 108.301368 91.271722 
L 108.095955 91.327831 
L 107.909675 91.383941 
L 107.742034 91.44005 
L 107.5919 91.49616 
L 107.457757 91.552269 
L 107.33793 91.608379 
z
" clip-path="url(#pbccf74d2cc)" style="fill: #ff0000; fill-opacity: 0.3"/>
   </g>
   <g id="PolyCollection_4">
    <path d="M 124.106855 91.541493 
L 122.16339 91.541493 
L 122.171577 91.405369 
L 122.195832 91.269244 
L 122.234916 91.13312 
L 122.286878 90.996996 
L 122.349215 90.860872 
L 122.419061 90.724748 
L 122.493391 90.588624 
L 122.569226 90.452499 
L 122.643802 90.316375 
L 122.714711 90.180251 
L 122.779979 90.044127 
L 122.838106 89.908003 
L 122.888046 89.771879 
L 122.929151 89.635754 
L 122.961082 89.49963 
L 122.983701 89.363506 
L 122.996957 89.227382 
L 123.000771 89.091258 
L 122.994936 88.955134 
L 122.979036 88.819009 
L 122.952388 88.682885 
L 122.91402 88.546761 
L 122.862671 88.410637 
L 122.796834 88.274513 
L 122.714825 88.138389 
L 122.614892 88.002265 
L 122.495341 87.86614 
L 122.354685 87.730016 
L 122.191807 87.593892 
L 122.006113 87.457768 
L 121.797681 87.321644 
L 121.567379 87.18552 
L 121.316951 87.049395 
L 121.049057 86.913271 
L 120.767265 86.777147 
L 120.475995 86.641023 
L 120.180406 86.504899 
L 119.886236 86.368775 
L 119.5996 86.23265 
L 119.326743 86.096526 
L 119.07377 85.960402 
L 118.846347 85.824278 
L 118.649401 85.688154 
L 118.48682 85.55203 
L 118.361187 85.415906 
L 118.273555 85.279781 
L 118.2233 85.143657 
L 118.208058 85.007533 
L 118.223774 84.871409 
L 118.264866 84.735285 
L 118.324511 84.599161 
L 118.39504 84.463036 
L 118.468418 84.326912 
L 118.536788 84.190788 
L 118.593033 84.054664 
L 118.631309 83.91854 
L 118.647519 83.782416 
L 118.639658 83.646291 
L 118.608024 83.510167 
L 118.555241 83.374043 
L 118.486105 83.237919 
L 118.407245 83.101795 
L 118.326627 82.965671 
L 118.252945 82.829547 
L 118.194944 82.693422 
L 118.160742 82.557298 
L 118.157213 82.421174 
L 118.189489 82.28505 
L 118.260621 82.148926 
L 118.37143 82.012802 
L 118.520551 81.876677 
L 118.70465 81.740553 
L 118.918786 81.604429 
L 119.156864 81.468305 
L 119.412124 81.332181 
L 119.677618 81.196057 
L 119.946623 81.059932 
L 120.212973 80.923808 
L 120.471279 80.787684 
L 120.717049 80.65156 
L 120.946725 80.515436 
L 121.157649 80.379312 
L 121.347996 80.243188 
L 121.516692 80.107063 
L 121.663344 79.970939 
L 121.788176 79.834815 
L 121.891992 79.698691 
L 121.976144 79.562567 
L 122.042504 79.426443 
L 122.093419 79.290318 
L 122.131637 79.154194 
L 122.160206 79.01807 
L 122.182331 78.881946 
L 122.201213 78.745822 
L 122.219865 78.609698 
L 122.240938 78.473573 
L 122.266565 78.337449 
L 122.298244 78.201325 
L 122.336779 78.065201 
L 123.933467 78.065201 
L 123.933467 78.065201 
L 123.972001 78.201325 
L 124.00368 78.337449 
L 124.029307 78.473573 
L 124.05038 78.609698 
L 124.069032 78.745822 
L 124.087914 78.881946 
L 124.110039 79.01807 
L 124.138608 79.154194 
L 124.176826 79.290318 
L 124.227741 79.426443 
L 124.294101 79.562567 
L 124.378253 79.698691 
L 124.482069 79.834815 
L 124.606901 79.970939 
L 124.753553 80.107063 
L 124.922249 80.243188 
L 125.112596 80.379312 
L 125.32352 80.515436 
L 125.553196 80.65156 
L 125.798966 80.787684 
L 126.057272 80.923808 
L 126.323622 81.059932 
L 126.592627 81.196057 
L 126.858121 81.332181 
L 127.113381 81.468305 
L 127.351459 81.604429 
L 127.565595 81.740553 
L 127.749694 81.876677 
L 127.898815 82.012802 
L 128.009624 82.148926 
L 128.080756 82.28505 
L 128.113032 82.421174 
L 128.109503 82.557298 
L 128.075301 82.693422 
L 128.0173 82.829547 
L 127.943618 82.965671 
L 127.863 83.101795 
L 127.78414 83.237919 
L 127.715004 83.374043 
L 127.662221 83.510167 
L 127.630587 83.646291 
L 127.622726 83.782416 
L 127.638936 83.91854 
L 127.677212 84.054664 
L 127.733457 84.190788 
L 127.801827 84.326912 
L 127.875205 84.463036 
L 127.945734 84.599161 
L 128.005379 84.735285 
L 128.046471 84.871409 
L 128.062187 85.007533 
L 128.046945 85.143657 
L 127.99669 85.279781 
L 127.909058 85.415906 
L 127.783425 85.55203 
L 127.620844 85.688154 
L 127.423898 85.824278 
L 127.196475 85.960402 
L 126.943502 86.096526 
L 126.670645 86.23265 
L 126.384009 86.368775 
L 126.089839 86.504899 
L 125.79425 86.641023 
L 125.50298 86.777147 
L 125.221188 86.913271 
L 124.953294 87.049395 
L 124.702866 87.18552 
L 124.472564 87.321644 
L 124.264132 87.457768 
L 124.078438 87.593892 
L 123.91556 87.730016 
L 123.774904 87.86614 
L 123.655353 88.002265 
L 123.55542 88.138389 
L 123.473412 88.274513 
L 123.407574 88.410637 
L 123.356225 88.546761 
L 123.317857 88.682885 
L 123.291209 88.819009 
L 123.275309 88.955134 
L 123.269474 89.091258 
L 123.273288 89.227382 
L 123.286544 89.363506 
L 123.309163 89.49963 
L 123.341094 89.635754 
L 123.382199 89.771879 
L 123.432139 89.908003 
L 123.490266 90.044127 
L 123.555534 90.180251 
L 123.626443 90.316375 
L 123.701019 90.452499 
L 123.776854 90.588624 
L 123.851184 90.724748 
L 123.92103 90.860872 
L 123.983367 90.996996 
L 124.035329 91.13312 
L 124.074413 91.269244 
L 124.098668 91.405369 
L 124.106855 91.541493 
z
" clip-path="url(#pbccf74d2cc)" style="fill: #ff0000; fill-opacity: 0.3"/>
   </g>
   <g id="PolyCollection_5">
    <path d="M 135.511902 89.575285 
L 134.369992 89.575285 
L 134.375603 89.395572 
L 134.39211 89.215859 
L 134.418556 89.036146 
L 134.453449 88.856433 
L 134.4949 88.67672 
L 134.540788 88.497007 
L 134.588936 88.317294 
L 134.637274 88.137581 
L 134.683966 87.957868 
L 134.727503 87.778155 
L 134.766739 87.598442 
L 134.800888 87.418729 
L 134.829473 87.239016 
L 134.852242 87.059303 
L 134.869066 86.87959 
L 134.879823 86.699876 
L 134.884282 86.520163 
L 134.881993 86.34045 
L 134.872195 86.160737 
L 134.853743 85.981024 
L 134.82507 85.801311 
L 134.784173 85.621598 
L 134.72865 85.441885 
L 134.655778 85.262172 
L 134.562642 85.082459 
L 134.446317 84.902746 
L 134.304092 84.723033 
L 134.133732 84.54332 
L 133.933761 84.363607 
L 133.703737 84.183894 
L 133.444503 84.004181 
L 133.158378 83.824468 
L 132.84926 83.644755 
L 132.522615 83.465042 
L 132.185346 83.285329 
L 131.845524 83.105616 
L 131.511996 82.925903 
L 131.193884 82.74619 
L 130.900023 82.566477 
L 130.638369 82.386764 
L 130.415442 82.20705 
L 130.235855 82.027337 
L 130.101984 81.847624 
L 130.013811 81.667911 
L 129.968978 81.488198 
L 129.963037 81.308485 
L 129.989878 81.128772 
L 130.042298 80.949059 
L 130.112635 80.769346 
L 130.193406 80.589633 
L 130.277882 80.40992 
L 130.360529 80.230207 
L 130.437291 80.050494 
L 130.5057 79.870781 
L 130.564802 79.691068 
L 130.614968 79.511355 
L 130.657594 79.331642 
L 130.694767 79.151929 
L 130.728937 78.972216 
L 130.762617 78.792503 
L 130.798156 78.61279 
L 130.837561 78.433077 
L 130.882392 78.253364 
L 130.933695 78.073651 
L 130.991971 77.893938 
L 131.057168 77.714224 
L 131.128698 77.534511 
L 131.205474 77.354798 
L 131.285995 77.175085 
L 131.368458 76.995372 
L 131.450931 76.815659 
L 131.53156 76.635946 
L 131.608792 76.456233 
L 131.681604 76.27652 
L 131.749685 76.096807 
L 131.813553 75.917094 
L 131.874566 75.737381 
L 131.934835 75.557668 
L 131.997019 75.377955 
L 132.064033 75.198242 
L 132.138708 75.018529 
L 132.223439 74.838816 
L 132.319874 74.659103 
L 132.42869 74.47939 
L 132.549485 74.299677 
L 132.6808 74.119964 
L 132.820273 73.940251 
L 132.964901 73.760538 
L 133.111362 73.580825 
L 133.25637 73.401112 
L 133.39699 73.221398 
L 133.530892 73.041685 
L 133.65651 72.861972 
L 133.773077 72.682259 
L 133.880568 72.502546 
L 133.979551 72.322833 
L 134.070982 72.14312 
L 134.155987 71.963407 
L 134.235654 71.783694 
L 135.64624 71.783694 
L 135.64624 71.783694 
L 135.725907 71.963407 
L 135.810912 72.14312 
L 135.902343 72.322833 
L 136.001326 72.502546 
L 136.108817 72.682259 
L 136.225384 72.861972 
L 136.351002 73.041685 
L 136.484904 73.221398 
L 136.625524 73.401112 
L 136.770532 73.580825 
L 136.916994 73.760538 
L 137.061621 73.940251 
L 137.201094 74.119964 
L 137.332409 74.299677 
L 137.453204 74.47939 
L 137.56202 74.659103 
L 137.658455 74.838816 
L 137.743186 75.018529 
L 137.817861 75.198242 
L 137.884875 75.377955 
L 137.947059 75.557668 
L 138.007328 75.737381 
L 138.068342 75.917094 
L 138.132209 76.096807 
L 138.20029 76.27652 
L 138.273102 76.456233 
L 138.350334 76.635946 
L 138.430963 76.815659 
L 138.513436 76.995372 
L 138.595899 77.175085 
L 138.67642 77.354798 
L 138.753196 77.534511 
L 138.824726 77.714224 
L 138.889923 77.893938 
L 138.948199 78.073651 
L 138.999502 78.253364 
L 139.044333 78.433077 
L 139.083738 78.61279 
L 139.119277 78.792503 
L 139.152957 78.972216 
L 139.187127 79.151929 
L 139.2243 79.331642 
L 139.266926 79.511355 
L 139.317092 79.691068 
L 139.376194 79.870781 
L 139.444603 80.050494 
L 139.521365 80.230207 
L 139.604012 80.40992 
L 139.688488 80.589633 
L 139.76926 80.769346 
L 139.839596 80.949059 
L 139.892016 81.128772 
L 139.918857 81.308485 
L 139.912916 81.488198 
L 139.868083 81.667911 
L 139.77991 81.847624 
L 139.646039 82.027337 
L 139.466452 82.20705 
L 139.243525 82.386764 
L 138.981871 82.566477 
L 138.68801 82.74619 
L 138.369898 82.925903 
L 138.03637 83.105616 
L 137.696548 83.285329 
L 137.35928 83.465042 
L 137.032634 83.644755 
L 136.723516 83.824468 
L 136.437391 84.004181 
L 136.178157 84.183894 
L 135.948133 84.363607 
L 135.748162 84.54332 
L 135.577802 84.723033 
L 135.435577 84.902746 
L 135.319252 85.082459 
L 135.226116 85.262172 
L 135.153244 85.441885 
L 135.097721 85.621598 
L 135.056824 85.801311 
L 135.028151 85.981024 
L 135.0097 86.160737 
L 134.999901 86.34045 
L 134.997612 86.520163 
L 135.002071 86.699876 
L 135.012828 86.87959 
L 135.029653 87.059303 
L 135.052421 87.239016 
L 135.081006 87.418729 
L 135.115155 87.598442 
L 135.154391 87.778155 
L 135.197928 87.957868 
L 135.24462 88.137581 
L 135.292958 88.317294 
L 135.341106 88.497007 
L 135.386995 88.67672 
L 135.428445 88.856433 
L 135.463338 89.036146 
L 135.489784 89.215859 
L 135.506291 89.395572 
L 135.511902 89.575285 
z
" clip-path="url(#pbccf74d2cc)" style="fill: #ff0000; fill-opacity: 0.3"/>
   </g>
   <g id="PolyCollection_6">
    <path d="M 152.398161 87.898113 
L 150.762484 87.898113 
L 150.767593 87.610515 
L 150.784367 87.322917 
L 150.811847 87.035318 
L 150.848565 86.74772 
L 150.892636 86.460122 
L 150.941875 86.172524 
L 150.993931 85.884926 
L 151.046421 85.597328 
L 151.097054 85.309729 
L 151.143743 85.022131 
L 151.184687 84.734533 
L 151.218427 84.446935 
L 151.243872 84.159337 
L 151.260299 83.871739 
L 151.267326 83.584141 
L 151.264876 83.296542 
L 151.253115 83.008944 
L 151.232399 82.721346 
L 151.203203 82.433748 
L 151.166072 82.14615 
L 151.121566 81.858552 
L 151.070227 81.570953 
L 151.012552 81.283355 
L 150.948985 80.995757 
L 150.879926 80.708159 
L 150.805741 80.420561 
L 150.72679 80.132963 
L 150.643451 79.845364 
L 150.556141 79.557766 
L 150.465325 79.270168 
L 150.371512 78.98257 
L 150.275227 78.694972 
L 150.176967 78.407374 
L 150.077137 78.119776 
L 149.975974 77.832177 
L 149.873479 77.544579 
L 149.769347 77.256981 
L 149.662935 76.969383 
L 149.553261 76.681785 
L 149.439052 76.394187 
L 149.318846 76.106588 
L 149.191134 75.81899 
L 149.054555 75.531392 
L 148.908107 75.243794 
L 148.751359 74.956196 
L 148.584645 74.668598 
L 148.409197 74.380999 
L 148.227214 74.093401 
L 148.041828 73.805803 
L 147.856976 73.518205 
L 147.677162 73.230607 
L 147.507142 72.943009 
L 147.35155 72.655411 
L 147.214493 72.367812 
L 147.099174 72.080214 
L 147.007569 71.792616 
L 146.940211 71.505018 
L 146.896088 71.21742 
L 146.872704 70.929822 
L 146.866268 70.642223 
L 146.872019 70.354625 
L 146.88465 70.067027 
L 146.898781 69.779429 
L 146.909449 69.491831 
L 146.912558 69.204233 
L 146.905244 68.916634 
L 146.886124 68.629036 
L 146.855415 68.341438 
L 146.814905 68.05384 
L 146.767788 67.766242 
L 146.718387 67.478644 
L 146.671789 67.191046 
L 146.633431 66.903447 
L 146.608677 66.615849 
L 146.602412 66.328251 
L 146.618702 66.040653 
L 146.660529 65.753055 
L 146.729624 65.465457 
L 146.826405 65.177858 
L 146.950017 64.89026 
L 147.098452 64.602662 
L 147.268758 64.315064 
L 147.457276 64.027466 
L 147.65992 63.739868 
L 147.872447 63.452269 
L 148.090711 63.164671 
L 148.310873 62.877073 
L 148.529571 62.589475 
L 148.744023 62.301877 
L 148.952075 62.014279 
L 149.152199 61.726681 
L 149.343446 61.439082 
L 149.525358 61.151484 
L 149.697867 60.863886 
L 149.861181 60.576288 
L 150.015671 60.28869 
L 150.161769 60.001092 
L 150.299889 59.713493 
L 150.430368 59.425895 
L 152.730276 59.425895 
L 152.730276 59.425895 
L 152.860755 59.713493 
L 152.998876 60.001092 
L 153.144973 60.28869 
L 153.299463 60.576288 
L 153.462777 60.863886 
L 153.635286 61.151484 
L 153.817198 61.439082 
L 154.008445 61.726681 
L 154.20857 62.014279 
L 154.416621 62.301877 
L 154.631073 62.589475 
L 154.849771 62.877073 
L 155.069934 63.164671 
L 155.288197 63.452269 
L 155.500724 63.739868 
L 155.703368 64.027466 
L 155.891886 64.315064 
L 156.062192 64.602662 
L 156.210628 64.89026 
L 156.334239 65.177858 
L 156.43102 65.465457 
L 156.500115 65.753055 
L 156.541942 66.040653 
L 156.558232 66.328251 
L 156.551967 66.615849 
L 156.527213 66.903447 
L 156.488855 67.191046 
L 156.442257 67.478644 
L 156.392856 67.766242 
L 156.345739 68.05384 
L 156.305229 68.341438 
L 156.27452 68.629036 
L 156.255401 68.916634 
L 156.248086 69.204233 
L 156.251195 69.491831 
L 156.261864 69.779429 
L 156.275994 70.067027 
L 156.288625 70.354625 
L 156.294377 70.642223 
L 156.287941 70.929822 
L 156.264557 71.21742 
L 156.220434 71.505018 
L 156.153075 71.792616 
L 156.061471 72.080214 
L 155.946151 72.367812 
L 155.809094 72.655411 
L 155.653502 72.943009 
L 155.483482 73.230607 
L 155.303668 73.518205 
L 155.118816 73.805803 
L 154.933431 74.093401 
L 154.751448 74.380999 
L 154.576 74.668598 
L 154.409285 74.956196 
L 154.252538 75.243794 
L 154.106089 75.531392 
L 153.969511 75.81899 
L 153.841799 76.106588 
L 153.721592 76.394187 
L 153.607384 76.681785 
L 153.49771 76.969383 
L 153.391297 77.256981 
L 153.287165 77.544579 
L 153.18467 77.832177 
L 153.083508 78.119776 
L 152.983677 78.407374 
L 152.885417 78.694972 
L 152.789132 78.98257 
L 152.695319 79.270168 
L 152.604503 79.557766 
L 152.517193 79.845364 
L 152.433854 80.132963 
L 152.354903 80.420561 
L 152.280718 80.708159 
L 152.211659 80.995757 
L 152.148093 81.283355 
L 152.090417 81.570953 
L 152.039078 81.858552 
L 151.994573 82.14615 
L 151.957441 82.433748 
L 151.928246 82.721346 
L 151.907529 83.008944 
L 151.895769 83.296542 
L 151.893318 83.584141 
L 151.900346 83.871739 
L 151.916772 84.159337 
L 151.942217 84.446935 
L 151.975957 84.734533 
L 152.016902 85.022131 
L 152.063591 85.309729 
L 152.114224 85.597328 
L 152.166713 85.884926 
L 152.218769 86.172524 
L 152.268009 86.460122 
L 152.31208 86.74772 
L 152.348798 87.035318 
L 152.376278 87.322917 
L 152.393051 87.610515 
L 152.398161 87.898113 
z
" clip-path="url(#pbccf74d2cc)" style="fill: #ff0000; fill-opacity: 0.3"/>
   </g>
   <g id="PolyCollection_7">
    <path d="M 164.372513 86.411145 
L 162.39978 86.411145 
L 162.394202 86.009888 
L 162.399267 85.608631 
L 162.414191 85.207375 
L 162.437738 84.806118 
L 162.468277 84.404861 
L 162.503847 84.003604 
L 162.542246 83.602348 
L 162.581111 83.201091 
L 162.618008 82.799834 
L 162.650509 82.398577 
L 162.676266 81.997321 
L 162.693071 81.596064 
L 162.698916 81.194807 
L 162.692034 80.79355 
L 162.670949 80.392294 
L 162.634515 79.991037 
L 162.581957 79.58978 
L 162.512908 79.188523 
L 162.427445 78.787267 
L 162.326117 78.38601 
L 162.20996 77.984753 
L 162.080499 77.583496 
L 161.939722 77.18224 
L 161.790035 76.780983 
L 161.634186 76.379726 
L 161.475156 75.978469 
L 161.316035 75.577213 
L 161.159869 75.175956 
L 161.009498 74.774699 
L 160.867396 74.373443 
L 160.735523 73.972186 
L 160.615196 73.570929 
L 160.507002 73.169672 
L 160.410759 72.768416 
L 160.325527 72.367159 
L 160.249675 71.965902 
L 160.181008 71.564645 
L 160.116939 71.163389 
L 160.054697 70.762132 
L 159.991559 70.360875 
L 159.92508 69.959618 
L 159.853312 69.558362 
L 159.774977 69.157105 
L 159.689589 68.755848 
L 159.59751 68.354591 
L 159.499919 67.953335 
L 159.398717 67.552078 
L 159.296345 67.150821 
L 159.195557 66.749564 
L 159.099149 66.348308 
L 159.009685 65.947051 
L 158.929232 65.545794 
L 158.859155 65.144537 
L 158.799972 64.743281 
L 158.751311 64.342024 
L 158.711957 63.940767 
L 158.68001 63.53951 
L 158.653123 63.138254 
L 158.628803 62.736997 
L 158.604746 62.33574 
L 158.579168 61.934483 
L 158.551097 61.533227 
L 158.52058 61.13197 
L 158.488795 60.730713 
L 158.458041 60.329456 
L 158.431605 59.9282 
L 158.413521 59.526943 
L 158.408237 59.125686 
L 158.420226 58.724429 
L 158.453585 58.323173 
L 158.511644 57.921916 
L 158.596655 57.520659 
L 158.709553 57.119403 
L 158.849837 56.718146 
L 159.015573 56.316889 
L 159.203505 55.915632 
L 159.409275 55.514376 
L 159.627713 55.113119 
L 159.853179 54.711862 
L 160.079926 54.310605 
L 160.302439 53.909349 
L 160.515743 53.508092 
L 160.715648 53.106835 
L 160.898927 52.705578 
L 161.06341 52.304322 
L 161.208012 51.903065 
L 161.332688 51.501808 
L 161.438334 51.100551 
L 161.526648 50.699295 
L 161.599959 50.298038 
L 161.661042 49.896781 
L 161.712932 49.495524 
L 161.758735 49.094268 
L 161.801466 48.693011 
L 161.843895 48.291754 
L 161.888426 47.890497 
L 161.937003 47.489241 
L 161.991043 47.087984 
L 162.051407 46.686727 
L 164.720886 46.686727 
L 164.720886 46.686727 
L 164.78125 47.087984 
L 164.83529 47.489241 
L 164.883867 47.890497 
L 164.928398 48.291754 
L 164.970827 48.693011 
L 165.013558 49.094268 
L 165.059361 49.495524 
L 165.111251 49.896781 
L 165.172335 50.298038 
L 165.245646 50.699295 
L 165.33396 51.100551 
L 165.439606 51.501808 
L 165.564281 51.903065 
L 165.708884 52.304322 
L 165.873367 52.705578 
L 166.056646 53.106835 
L 166.256551 53.508092 
L 166.469854 53.909349 
L 166.692367 54.310605 
L 166.919114 54.711862 
L 167.144581 55.113119 
L 167.363018 55.514376 
L 167.568788 55.915632 
L 167.756721 56.316889 
L 167.922457 56.718146 
L 168.062741 57.119403 
L 168.175638 57.520659 
L 168.260649 57.921916 
L 168.318709 58.323173 
L 168.352067 58.724429 
L 168.364057 59.125686 
L 168.358773 59.526943 
L 168.340689 59.9282 
L 168.314253 60.329456 
L 168.283498 60.730713 
L 168.251713 61.13197 
L 168.221196 61.533227 
L 168.193125 61.934483 
L 168.167548 62.33574 
L 168.14349 62.736997 
L 168.11917 63.138254 
L 168.092283 63.53951 
L 168.060337 63.940767 
L 168.020983 64.342024 
L 167.972321 64.743281 
L 167.913138 65.144537 
L 167.843061 65.545794 
L 167.762608 65.947051 
L 167.673144 66.348308 
L 167.576736 66.749564 
L 167.475948 67.150821 
L 167.373576 67.552078 
L 167.272374 67.953335 
L 167.174784 68.354591 
L 167.082704 68.755848 
L 166.997317 69.157105 
L 166.918981 69.558362 
L 166.847213 69.959618 
L 166.780735 70.360875 
L 166.717597 70.762132 
L 166.655355 71.163389 
L 166.591285 71.564645 
L 166.522618 71.965902 
L 166.446766 72.367159 
L 166.361534 72.768416 
L 166.265292 73.169672 
L 166.157098 73.570929 
L 166.03677 73.972186 
L 165.904897 74.373443 
L 165.762795 74.774699 
L 165.612424 75.175956 
L 165.456258 75.577213 
L 165.297137 75.978469 
L 165.138108 76.379726 
L 164.982258 76.780983 
L 164.832572 77.18224 
L 164.691795 77.583496 
L 164.562333 77.984753 
L 164.446177 78.38601 
L 164.344849 78.787267 
L 164.259385 79.188523 
L 164.190336 79.58978 
L 164.137778 79.991037 
L 164.101344 80.392294 
L 164.08026 80.79355 
L 164.073378 81.194807 
L 164.079222 81.596064 
L 164.096028 81.997321 
L 164.121784 82.398577 
L 164.154285 82.799834 
L 164.191182 83.201091 
L 164.230047 83.602348 
L 164.268446 84.003604 
L 164.304017 84.404861 
L 164.334555 84.806118 
L 164.358103 85.207375 
L 164.373026 85.608631 
L 164.378091 86.009888 
L 164.372513 86.411145 
z
" clip-path="url(#pbccf74d2cc)" style="fill: #ff0000; fill-opacity: 0.3"/>
   </g>
   <g id="PolyCollection_8">
    <path d="M 181.039348 87.446173 
L 179.011696 87.446173 
L 179.0093 86.832772 
L 179.016776 86.219371 
L 179.032789 85.60597 
L 179.055498 84.992569 
L 179.082634 84.379168 
L 179.111614 83.765767 
L 179.13966 83.152365 
L 179.163942 82.538964 
L 179.181714 81.925563 
L 179.190443 81.312162 
L 179.187924 80.698761 
L 179.172373 80.08536 
L 179.142492 79.471959 
L 179.097501 78.858558 
L 179.037144 78.245157 
L 178.961661 77.631756 
L 178.871735 77.018355 
L 178.768414 76.404954 
L 178.653022 75.791553 
L 178.527051 75.178151 
L 178.392059 74.56475 
L 178.249572 73.951349 
L 178.100997 73.337948 
L 177.947556 72.724547 
L 177.790247 72.111146 
L 177.629828 71.497745 
L 177.466837 70.884344 
L 177.301634 70.270943 
L 177.134471 69.657542 
L 176.965574 69.044141 
L 176.795248 68.43074 
L 176.623967 67.817339 
L 176.452464 67.203937 
L 176.281805 66.590536 
L 176.113431 65.977135 
L 175.949167 65.363734 
L 175.791194 64.750333 
L 175.641979 64.136932 
L 175.504171 63.523531 
L 175.380459 62.91013 
L 175.273407 62.296729 
L 175.18528 61.683328 
L 175.117869 61.069927 
L 175.072332 60.456526 
L 175.049063 59.843125 
L 175.047612 59.229723 
L 175.066648 58.616322 
L 175.103989 58.002921 
L 175.156687 57.38952 
L 175.221166 56.776119 
L 175.293417 56.162718 
L 175.369212 55.549317 
L 175.444348 54.935916 
L 175.514884 54.322515 
L 175.577374 53.709114 
L 175.629051 53.095713 
L 175.667986 52.482312 
L 175.693184 51.868911 
L 175.704623 51.255509 
L 175.703241 50.642108 
L 175.69086 50.028707 
L 175.670064 49.415306 
L 175.64404 48.801905 
L 175.616384 48.188504 
L 175.590891 47.575103 
L 175.571346 46.961702 
L 175.561307 46.348301 
L 175.563924 45.7349 
L 175.581775 45.121499 
L 175.616739 44.508098 
L 175.669917 43.894697 
L 175.741599 43.281295 
L 175.831276 42.667894 
L 175.937698 42.054493 
L 176.058981 41.441092 
L 176.192738 40.827691 
L 176.336247 40.21429 
L 176.486615 39.600889 
L 176.640963 38.987488 
L 176.796581 38.374087 
L 176.951073 37.760686 
L 177.102464 37.147285 
L 177.24927 36.533884 
L 177.390527 35.920483 
L 177.525779 35.307081 
L 177.655033 34.69368 
L 177.778676 34.080279 
L 177.89738 33.466878 
L 178.01199 32.853477 
L 178.123417 32.240076 
L 178.23253 31.626675 
L 178.340075 31.013274 
L 178.446607 30.399873 
L 178.55245 29.786472 
L 178.657685 29.173071 
L 178.76215 28.55967 
L 178.865474 27.946269 
L 178.967114 27.332867 
L 179.066407 26.719466 
L 180.984637 26.719466 
L 180.984637 26.719466 
L 181.083929 27.332867 
L 181.185569 27.946269 
L 181.288893 28.55967 
L 181.393359 29.173071 
L 181.498593 29.786472 
L 181.604437 30.399873 
L 181.710969 31.013274 
L 181.818513 31.626675 
L 181.927627 32.240076 
L 182.039053 32.853477 
L 182.153664 33.466878 
L 182.272368 34.080279 
L 182.396011 34.69368 
L 182.525264 35.307081 
L 182.660517 35.920483 
L 182.801774 36.533884 
L 182.94858 37.147285 
L 183.099971 37.760686 
L 183.254463 38.374087 
L 183.410081 38.987488 
L 183.564429 39.600889 
L 183.714797 40.21429 
L 183.858305 40.827691 
L 183.992063 41.441092 
L 184.113346 42.054493 
L 184.219768 42.667894 
L 184.309444 43.281295 
L 184.381127 43.894697 
L 184.434305 44.508098 
L 184.469269 45.121499 
L 184.487119 45.7349 
L 184.489737 46.348301 
L 184.479698 46.961702 
L 184.460152 47.575103 
L 184.43466 48.188504 
L 184.407004 48.801905 
L 184.38098 49.415306 
L 184.360184 50.028707 
L 184.347802 50.642108 
L 184.346421 51.255509 
L 184.35786 51.868911 
L 184.383058 52.482312 
L 184.421993 53.095713 
L 184.47367 53.709114 
L 184.536159 54.322515 
L 184.606696 54.935916 
L 184.681831 55.549317 
L 184.757626 56.162718 
L 184.829877 56.776119 
L 184.894357 57.38952 
L 184.947054 58.002921 
L 184.984396 58.616322 
L 185.003432 59.229723 
L 185.00198 59.843125 
L 184.978712 60.456526 
L 184.933174 61.069927 
L 184.865764 61.683328 
L 184.777637 62.296729 
L 184.670585 62.91013 
L 184.546872 63.523531 
L 184.409064 64.136932 
L 184.25985 64.750333 
L 184.101876 65.363734 
L 183.937612 65.977135 
L 183.769238 66.590536 
L 183.59858 67.203937 
L 183.427077 67.817339 
L 183.255795 68.43074 
L 183.085469 69.044141 
L 182.916573 69.657542 
L 182.749409 70.270943 
L 182.584206 70.884344 
L 182.421215 71.497745 
L 182.260796 72.111146 
L 182.103487 72.724547 
L 181.950047 73.337948 
L 181.801472 73.951349 
L 181.658985 74.56475 
L 181.523993 75.178151 
L 181.398022 75.791553 
L 181.282629 76.404954 
L 181.179309 77.018355 
L 181.089383 77.631756 
L 181.0139 78.245157 
L 180.953543 78.858558 
L 180.908552 79.471959 
L 180.878671 80.08536 
L 180.86312 80.698761 
L 180.860601 81.312162 
L 180.86933 81.925563 
L 180.887101 82.538964 
L 180.911384 83.152365 
L 180.93943 83.765767 
L 180.968409 84.379168 
L 180.995546 84.992569 
L 181.018254 85.60597 
L 181.034267 86.219371 
L 181.041743 86.832772 
L 181.039348 87.446173 
z
" clip-path="url(#pbccf74d2cc)" style="fill: #ff0000; fill-opacity: 0.3"/>
   </g>
   <g id="PolyCollection_9">
    <path d="M 192.503751 87.729733 
L 191.158942 87.729733 
L 191.092932 86.959979 
L 191.022548 86.190225 
L 190.947375 85.420471 
L 190.867036 84.650717 
L 190.781243 83.880963 
L 190.689842 83.11121 
L 190.592862 82.341456 
L 190.490543 81.571702 
L 190.383356 80.801948 
L 190.271999 80.032194 
L 190.157381 79.26244 
L 190.040569 78.492686 
L 189.922728 77.722932 
L 189.805029 76.953178 
L 189.688555 76.183424 
L 189.574187 75.41367 
L 189.462505 74.643916 
L 189.353695 73.874162 
L 189.247487 73.104408 
L 189.14313 72.334654 
L 189.03942 71.5649 
L 188.934774 70.795146 
L 188.82737 70.025392 
L 188.715328 69.255638 
L 188.59693 68.485884 
L 188.470856 67.71613 
L 188.336412 66.946376 
L 188.193721 66.176622 
L 188.043848 65.406868 
L 187.888842 64.637114 
L 187.731686 63.86736 
L 187.576129 63.097606 
L 187.426441 62.327853 
L 187.287084 61.558099 
L 187.162348 60.788345 
L 187.055977 60.018591 
L 186.970835 59.248837 
L 186.908643 58.479083 
L 186.869819 57.709329 
L 186.853436 56.939575 
L 186.857306 56.169821 
L 186.878174 55.400067 
L 186.912016 54.630313 
L 186.954377 53.860559 
L 187.000747 53.090805 
L 187.046908 52.321051 
L 187.089239 51.551297 
L 187.124933 50.781543 
L 187.152128 50.011789 
L 187.169938 49.242035 
L 187.178394 48.472281 
L 187.178318 47.702527 
L 187.171146 46.932773 
L 187.158729 46.163019 
L 187.143145 45.393265 
L 187.126531 44.623511 
L 187.11096 43.853757 
L 187.09837 43.084003 
L 187.090528 42.314249 
L 187.089047 41.544495 
L 187.095418 40.774742 
L 187.111052 40.004988 
L 187.137318 39.235234 
L 187.175557 38.46548 
L 187.22707 37.695726 
L 187.293064 36.925972 
L 187.374585 36.156218 
L 187.472416 35.386464 
L 187.586974 34.61671 
L 187.718212 33.846956 
L 187.865542 33.077202 
L 188.02779 32.307448 
L 188.203197 31.537694 
L 188.389454 30.76794 
L 188.583793 29.998186 
L 188.78311 29.228432 
L 188.984112 28.458678 
L 189.183478 27.688924 
L 189.378029 26.91917 
L 189.564872 26.149416 
L 189.741527 25.379662 
L 189.906023 24.609908 
L 190.056955 23.840154 
L 190.1935 23.0704 
L 190.315408 22.300646 
L 190.422954 21.530892 
L 190.516871 20.761138 
L 190.598271 19.991385 
L 190.668554 19.221631 
L 190.729312 18.451877 
L 190.782248 17.682123 
L 190.829089 16.912369 
L 190.871514 16.142615 
L 190.911093 15.372861 
L 190.94923 14.603107 
L 190.987127 13.833353 
L 191.025748 13.063599 
L 191.065799 12.293845 
L 191.107722 11.524091 
L 192.554971 11.524091 
L 192.554971 11.524091 
L 192.596894 12.293845 
L 192.636945 13.063599 
L 192.675566 13.833353 
L 192.713463 14.603107 
L 192.7516 15.372861 
L 192.791179 16.142615 
L 192.833604 16.912369 
L 192.880444 17.682123 
L 192.933381 18.451877 
L 192.994139 19.221631 
L 193.064421 19.991385 
L 193.145822 20.761138 
L 193.239739 21.530892 
L 193.347285 22.300646 
L 193.469193 23.0704 
L 193.605738 23.840154 
L 193.756669 24.609908 
L 193.921166 25.379662 
L 194.097821 26.149416 
L 194.284663 26.91917 
L 194.479214 27.688924 
L 194.678581 28.458678 
L 194.879582 29.228432 
L 195.0789 29.998186 
L 195.273239 30.76794 
L 195.459496 31.537694 
L 195.634902 32.307448 
L 195.797151 33.077202 
L 195.944481 33.846956 
L 196.075719 34.61671 
L 196.190277 35.386464 
L 196.288108 36.156218 
L 196.369629 36.925972 
L 196.435623 37.695726 
L 196.487135 38.46548 
L 196.525375 39.235234 
L 196.551641 40.004988 
L 196.567275 40.774742 
L 196.573645 41.544495 
L 196.572164 42.314249 
L 196.564323 43.084003 
L 196.551732 43.853757 
L 196.536162 44.623511 
L 196.519548 45.393265 
L 196.503964 46.163019 
L 196.491547 46.932773 
L 196.484375 47.702527 
L 196.484299 48.472281 
L 196.492755 49.242035 
L 196.510564 50.011789 
L 196.537759 50.781543 
L 196.573453 51.551297 
L 196.615784 52.321051 
L 196.661946 53.090805 
L 196.708315 53.860559 
L 196.750677 54.630313 
L 196.784518 55.400067 
L 196.805387 56.169821 
L 196.809256 56.939575 
L 196.792873 57.709329 
L 196.75405 58.479083 
L 196.691858 59.248837 
L 196.606716 60.018591 
L 196.500345 60.788345 
L 196.375609 61.558099 
L 196.236252 62.327853 
L 196.086564 63.097606 
L 195.931007 63.86736 
L 195.77385 64.637114 
L 195.618845 65.406868 
L 195.468971 66.176622 
L 195.32628 66.946376 
L 195.191837 67.71613 
L 195.065763 68.485884 
L 194.947365 69.255638 
L 194.835322 70.025392 
L 194.727918 70.795146 
L 194.623273 71.5649 
L 194.519562 72.334654 
L 194.415206 73.104408 
L 194.308998 73.874162 
L 194.200188 74.643916 
L 194.088506 75.41367 
L 193.974138 76.183424 
L 193.857664 76.953178 
L 193.739965 77.722932 
L 193.622124 78.492686 
L 193.505312 79.26244 
L 193.390693 80.032194 
L 193.279337 80.801948 
L 193.17215 81.571702 
L 193.069831 82.341456 
L 192.972851 83.11121 
L 192.88145 83.880963 
L 192.795656 84.650717 
L 192.715317 85.420471 
L 192.640145 86.190225 
L 192.569761 86.959979 
L 192.503751 87.729733 
z
" clip-path="url(#pbccf74d2cc)" style="fill: #ff0000; fill-opacity: 0.3"/>
   </g>
   <g id="matplotlib.axis_1">
    <g id="xtick_1">
     <g id="line2d_1">
      <defs>
       <path id="m9ad60d534f" d="M 0 0 
L 0 3.5 
" style="stroke: #000000; stroke-width: 0.8"/>
      </defs>
      <g>
       <use xlink:href="#m9ad60d534f" x="49.605348" y="102.33" style="stroke: #000000; stroke-width: 0.8"/>
      </g>
     </g>
     <g id="text_1">
      <!-- $\mathrm{1}$ -->
      <g transform="translate(47.11468 116.248498)scale(0.1 -0.1)">
       <defs>
        <path id="CMR17-31" d="M 1702 4083 
C 1702 4217 1696 4224 1606 4224 
C 1357 3927 979 3833 621 3820 
C 602 3820 570 3820 563 3808 
C 557 3795 557 3782 557 3648 
C 755 3648 1088 3686 1344 3839 
L 1344 467 
C 1344 243 1331 166 781 166 
L 589 166 
L 589 0 
C 896 6 1216 12 1523 12 
C 1830 12 2150 6 2458 0 
L 2458 166 
L 2266 166 
C 1715 166 1702 236 1702 467 
L 1702 4083 
z
" transform="scale(0.015625)"/>
       </defs>
       <use xlink:href="#CMR17-31" transform="scale(0.996264)"/>
      </g>
     </g>
    </g>
    <g id="xtick_2">
     <g id="line2d_2">
      <g>
       <use xlink:href="#m9ad60d534f" x="78.050548" y="102.33" style="stroke: #000000; stroke-width: 0.8"/>
      </g>
     </g>
     <g id="text_2">
      <!-- $\mathrm{2}$ -->
      <g transform="translate(75.55988 116.248498)scale(0.1 -0.1)">
       <defs>
        <path id="CMR17-32" d="M 2669 990 
L 2554 990 
C 2490 537 2438 460 2413 422 
C 2381 371 1920 371 1830 371 
L 602 371 
C 832 620 1280 1073 1824 1596 
C 2214 1966 2669 2400 2669 3033 
C 2669 3788 2067 4224 1395 4224 
C 691 4224 262 3603 262 3027 
C 262 2777 448 2745 525 2745 
C 589 2745 781 2783 781 3007 
C 781 3206 614 3264 525 3264 
C 486 3264 448 3257 422 3244 
C 544 3788 915 4057 1306 4057 
C 1862 4057 2227 3616 2227 3033 
C 2227 2477 1901 1998 1536 1583 
L 262 147 
L 262 0 
L 2515 0 
L 2669 990 
z
" transform="scale(0.015625)"/>
       </defs>
       <use xlink:href="#CMR17-32" transform="scale(0.996264)"/>
      </g>
     </g>
    </g>
    <g id="xtick_3">
     <g id="line2d_3">
      <g>
       <use xlink:href="#m9ad60d534f" x="106.495747" y="102.33" style="stroke: #000000; stroke-width: 0.8"/>
      </g>
     </g>
     <g id="text_3">
      <!-- $\mathrm{4}$ -->
      <g transform="translate(104.00508 116.248498)scale(0.1 -0.1)">
       <defs>
        <path id="CMR17-34" d="M 2150 4147 
C 2150 4281 2144 4288 2029 4288 
L 128 1254 
L 128 1088 
L 1779 1088 
L 1779 460 
C 1779 230 1766 166 1318 166 
L 1197 166 
L 1197 0 
C 1402 12 1747 12 1965 12 
C 2182 12 2528 12 2733 0 
L 2733 166 
L 2611 166 
C 2163 166 2150 230 2150 460 
L 2150 1088 
L 2803 1088 
L 2803 1254 
L 2150 1254 
L 2150 4147 
z
M 1798 3723 
L 1798 1254 
L 256 1254 
L 1798 3723 
z
" transform="scale(0.015625)"/>
       </defs>
       <use xlink:href="#CMR17-34" transform="scale(0.996264)"/>
      </g>
     </g>
    </g>
    <g id="xtick_4">
     <g id="line2d_4">
      <g>
       <use xlink:href="#m9ad60d534f" x="123.135123" y="102.33" style="stroke: #000000; stroke-width: 0.8"/>
      </g>
     </g>
     <g id="text_4">
      <!-- $\mathrm{}$ -->
      <g transform="translate(123.135123 116.248498)scale(0.1 -0.1)"/>
     </g>
    </g>
    <g id="xtick_5">
     <g id="line2d_5">
      <g>
       <use xlink:href="#m9ad60d534f" x="134.940947" y="102.33" style="stroke: #000000; stroke-width: 0.8"/>
      </g>
     </g>
     <g id="text_5">
      <!-- $\mathrm{8}$ -->
      <g transform="translate(132.450279 116.248498)scale(0.1 -0.1)">
       <defs>
        <path id="CMR17-38" d="M 1741 2289 
C 2144 2494 2554 2803 2554 3298 
C 2554 3884 1990 4224 1472 4224 
C 890 4224 378 3800 378 3215 
C 378 3054 416 2777 666 2533 
C 730 2469 998 2276 1171 2154 
C 883 2006 211 1652 211 945 
C 211 282 838 -128 1459 -128 
C 2144 -128 2720 366 2720 1022 
C 2720 1607 2330 1877 2074 2051 
L 1741 2289 
z
M 902 2855 
C 851 2887 595 3086 595 3388 
C 595 3781 998 4076 1459 4076 
C 1965 4076 2336 3716 2336 3298 
C 2336 2700 1670 2359 1638 2359 
C 1632 2359 1626 2359 1574 2398 
L 902 2855 
z
M 2080 1536 
C 2176 1466 2483 1253 2483 861 
C 2483 385 2010 25 1472 25 
C 890 25 448 443 448 951 
C 448 1459 838 1884 1280 2083 
L 2080 1536 
z
" transform="scale(0.015625)"/>
       </defs>
       <use xlink:href="#CMR17-38" transform="scale(0.996264)"/>
      </g>
     </g>
    </g>
    <g id="xtick_6">
     <g id="line2d_6">
      <g>
       <use xlink:href="#m9ad60d534f" x="151.580322" y="102.33" style="stroke: #000000; stroke-width: 0.8"/>
      </g>
     </g>
     <g id="text_6">
      <!-- $\mathrm{}$ -->
      <g transform="translate(151.580322 116.248498)scale(0.1 -0.1)"/>
     </g>
    </g>
    <g id="xtick_7">
     <g id="line2d_7">
      <g>
       <use xlink:href="#m9ad60d534f" x="163.386147" y="102.33" style="stroke: #000000; stroke-width: 0.8"/>
      </g>
     </g>
     <g id="text_7">
      <!-- $\mathrm{16}$ -->
      <g transform="translate(158.404811 116.248498)scale(0.1 -0.1)">
       <defs>
        <path id="CMR17-36" d="M 678 2198 
C 678 3712 1395 4076 1811 4076 
C 1946 4076 2272 4049 2400 3782 
C 2298 3782 2106 3782 2106 3558 
C 2106 3385 2246 3328 2336 3328 
C 2394 3328 2566 3353 2566 3571 
C 2566 3987 2246 4224 1805 4224 
C 1043 4224 243 3411 243 2011 
C 243 257 966 -128 1478 -128 
C 2099 -128 2688 431 2688 1295 
C 2688 2101 2170 2688 1517 2688 
C 1126 2688 838 2430 678 1979 
L 678 2198 
z
M 1478 25 
C 691 25 691 1212 691 1450 
C 691 1914 909 2585 1504 2585 
C 1613 2585 1926 2585 2138 2140 
C 2253 1889 2253 1624 2253 1302 
C 2253 954 2253 696 2118 438 
C 1978 173 1773 25 1478 25 
z
" transform="scale(0.015625)"/>
       </defs>
       <use xlink:href="#CMR17-31" transform="scale(0.996264)"/>
       <use xlink:href="#CMR17-36" transform="translate(45.690477 0)scale(0.996264)"/>
      </g>
     </g>
    </g>
    <g id="xtick_8">
     <g id="line2d_8">
      <g>
       <use xlink:href="#m9ad60d534f" x="180.025522" y="102.33" style="stroke: #000000; stroke-width: 0.8"/>
      </g>
     </g>
     <g id="text_8">
      <!-- $\mathrm{}$ -->
      <g transform="translate(180.025522 116.248498)scale(0.1 -0.1)"/>
     </g>
    </g>
    <g id="xtick_9">
     <g id="line2d_9">
      <g>
       <use xlink:href="#m9ad60d534f" x="191.831346" y="102.33" style="stroke: #000000; stroke-width: 0.8"/>
      </g>
     </g>
     <g id="text_9">
      <!-- $\mathrm{32}$ -->
      <g transform="translate(186.850011 116.248498)scale(0.1 -0.1)">
       <defs>
        <path id="CMR17-33" d="M 1414 2176 
C 1984 2176 2234 1673 2234 1094 
C 2234 322 1824 25 1453 25 
C 1114 25 563 193 390 691 
C 422 678 454 678 486 678 
C 640 678 755 780 755 947 
C 755 1132 614 1216 486 1216 
C 378 1216 211 1164 211 927 
C 211 335 787 -128 1466 -128 
C 2176 -128 2720 432 2720 1087 
C 2720 1718 2208 2176 1600 2246 
C 2086 2347 2554 2776 2554 3353 
C 2554 3856 2048 4224 1472 4224 
C 890 4224 378 3862 378 3347 
C 378 3123 544 3084 627 3084 
C 762 3084 877 3167 877 3334 
C 877 3500 762 3584 627 3584 
C 602 3584 570 3584 544 3571 
C 730 3999 1235 4076 1459 4076 
C 1683 4076 2106 3966 2106 3347 
C 2106 3167 2080 2851 1862 2574 
C 1670 2329 1453 2316 1242 2297 
C 1210 2297 1062 2284 1037 2284 
C 992 2278 966 2272 966 2227 
C 966 2182 973 2176 1101 2176 
L 1414 2176 
z
" transform="scale(0.015625)"/>
       </defs>
       <use xlink:href="#CMR17-33" transform="scale(0.996264)"/>
       <use xlink:href="#CMR17-32" transform="translate(45.690477 0)scale(0.996264)"/>
      </g>
     </g>
    </g>
    <g id="text_10">
     <!-- $\mathrm{Number\: of\: threads}$ -->
     <g transform="translate(80.424966 129.104175)scale(0.1 -0.1)">
      <defs>
       <path id="CMR17-4e" d="M 1312 4275 
C 1267 4345 1261 4352 1139 4352 
L 326 4352 
L 326 4185 
L 448 4185 
C 704 4185 819 4153 838 4147 
L 838 624 
C 838 465 838 166 326 166 
L 326 0 
C 474 12 742 12 902 12 
C 1062 12 1331 12 1478 0 
L 1478 166 
C 966 166 966 465 966 624 
L 966 4057 
C 1011 4019 1011 4007 1056 3943 
L 3430 76 
C 3475 0 3494 0 3526 0 
C 3590 0 3590 19 3590 140 
L 3590 3726 
C 3590 3885 3590 4185 4102 4185 
L 4102 4352 
C 3955 4339 3686 4339 3526 4339 
C 3366 4339 3098 4339 2950 4352 
L 2950 4185 
C 3462 4185 3462 3885 3462 3726 
L 3462 777 
L 1312 4275 
z
" transform="scale(0.015625)"/>
       <path id="CMR17-75" d="M 1882 2745 
L 1882 2579 
C 2259 2579 2317 2540 2317 2229 
L 2317 1053 
C 2317 510 2029 38 1555 38 
C 1030 38 986 355 986 691 
L 986 2816 
L 211 2745 
L 211 2579 
C 467 2579 640 2579 646 2320 
L 646 1079 
C 646 646 646 368 813 187 
C 896 103 1056 -64 1517 -64 
C 2061 -64 2272 400 2323 536 
L 2330 536 
L 2330 -64 
L 3091 -13 
L 3091 154 
C 2714 154 2656 193 2656 503 
L 2656 2816 
L 1882 2745 
z
" transform="scale(0.015625)"/>
       <path id="CMR17-6d" d="M 4326 1954 
C 4326 2276 4269 2816 3507 2816 
C 3072 2816 2771 2520 2656 2173 
L 2650 2173 
C 2573 2700 2195 2816 1837 2816 
C 1331 2816 1069 2424 973 2166 
L 966 2166 
L 966 2816 
L 211 2745 
L 211 2578 
C 589 2578 646 2540 646 2231 
L 646 443 
C 646 198 621 166 211 166 
L 211 0 
C 365 12 646 12 813 12 
C 979 12 1267 12 1421 0 
L 1421 166 
C 1011 166 986 192 986 443 
L 986 1678 
C 986 2269 1344 2713 1792 2713 
C 2266 2713 2317 2289 2317 1980 
L 2317 443 
C 2317 198 2291 166 1882 166 
L 1882 0 
C 2035 12 2317 12 2483 12 
C 2650 12 2938 12 3091 0 
L 3091 166 
C 2682 166 2656 192 2656 443 
L 2656 1678 
C 2656 2269 3014 2713 3462 2713 
C 3936 2713 3987 2289 3987 1980 
L 3987 443 
C 3987 198 3962 166 3552 166 
L 3552 0 
C 3706 12 3987 12 4154 12 
C 4320 12 4608 12 4762 0 
L 4762 166 
C 4352 166 4326 192 4326 443 
L 4326 1954 
z
" transform="scale(0.015625)"/>
       <path id="CMR17-62" d="M 960 4416 
L 198 4345 
L 198 4179 
C 576 4179 634 4141 634 3843 
L 634 -13 
L 749 -13 
L 934 445 
C 1120 141 1395 -64 1766 -64 
C 2406 -64 3053 503 3053 1382 
C 3053 2209 2477 2816 1830 2816 
C 1434 2816 1152 2603 960 2351 
L 960 4416 
z
M 973 2022 
C 973 2138 973 2157 1062 2293 
C 1312 2681 1670 2713 1792 2713 
C 1984 2713 2643 2610 2643 1388 
C 2643 109 1888 38 1734 38 
C 1536 38 1248 115 1043 490 
C 973 613 973 626 973 742 
L 973 2022 
z
" transform="scale(0.015625)"/>
       <path id="CMR17-65" d="M 2438 1503 
C 2464 1529 2464 1542 2464 1606 
C 2464 2251 2118 2816 1389 2816 
C 710 2816 173 2175 173 1394 
C 173 554 781 -64 1459 -64 
C 2176 -64 2458 619 2458 755 
C 2458 800 2419 800 2406 800 
C 2362 800 2355 787 2330 709 
C 2189 270 1837 51 1504 51 
C 1229 51 954 206 781 490 
C 582 819 582 1200 582 1503 
L 2438 1503 
z
M 589 1600 
C 634 2511 1126 2713 1382 2713 
C 1818 2713 2112 2308 2118 1600 
L 589 1600 
z
" transform="scale(0.015625)"/>
       <path id="CMR17-72" d="M 960 1517 
C 960 2134 1222 2713 1702 2713 
C 1747 2713 1792 2707 1837 2687 
C 1837 2687 1696 2642 1696 2475 
C 1696 2321 1818 2257 1914 2257 
C 1990 2257 2131 2302 2131 2482 
C 2131 2687 1926 2816 1709 2816 
C 1222 2816 1011 2340 947 2115 
L 941 2115 
L 941 2816 
L 198 2745 
L 198 2578 
C 576 2578 634 2540 634 2231 
L 634 443 
C 634 198 608 166 198 166 
L 198 0 
C 352 12 646 12 813 12 
C 998 12 1325 12 1498 0 
L 1498 166 
C 1037 166 960 166 960 455 
L 960 1517 
z
" transform="scale(0.015625)"/>
       <path id="CMR17-6f" d="M 2758 1356 
C 2758 2176 2163 2816 1466 2816 
C 768 2816 173 2176 173 1356 
C 173 550 768 -64 1466 -64 
C 2163 -64 2758 550 2758 1356 
z
M 1466 51 
C 1165 51 909 230 762 480 
C 602 768 582 1126 582 1408 
C 582 1676 595 2009 762 2297 
C 890 2508 1139 2713 1466 2713 
C 1754 2713 1997 2553 2150 2329 
C 2349 2028 2349 1606 2349 1408 
C 2349 1158 2336 774 2163 467 
C 1984 172 1709 51 1466 51 
z
" transform="scale(0.015625)"/>
       <path id="CMR17-66" d="M 979 2585 
L 1709 2585 
L 1709 2752 
L 966 2752 
L 966 3539 
C 966 4076 1235 4377 1510 4377 
C 1594 4377 1690 4363 1754 4339 
C 1702 4326 1568 4281 1568 4121 
C 1568 3955 1696 3904 1786 3904 
C 1875 3904 2003 3955 2003 4121 
C 2003 4353 1773 4480 1517 4480 
C 1152 4480 653 4211 653 3526 
L 653 2752 
L 141 2752 
L 141 2585 
L 653 2585 
L 653 441 
C 653 198 627 166 218 166 
L 218 0 
C 371 12 666 12 832 12 
C 1018 12 1344 12 1517 0 
L 1517 166 
C 1056 166 979 166 979 454 
L 979 2585 
z
" transform="scale(0.015625)"/>
       <path id="CMR17-74" d="M 966 2585 
L 1862 2585 
L 1862 2752 
L 966 2752 
L 966 3968 
L 851 3968 
C 838 3292 614 2700 70 2687 
L 70 2585 
L 627 2585 
L 627 778 
C 627 655 627 -64 1370 -64 
C 1747 -64 1965 308 1965 784 
L 1965 1151 
L 1850 1151 
L 1850 790 
C 1850 347 1677 51 1408 51 
C 1222 51 966 179 966 765 
L 966 2585 
z
" transform="scale(0.015625)"/>
       <path id="CMR17-68" d="M 2656 1954 
C 2656 2282 2592 2816 1837 2816 
C 1312 2816 1056 2392 979 2179 
L 973 2179 
L 973 4416 
L 211 4345 
L 211 4179 
C 589 4179 646 4141 646 3843 
L 646 443 
C 646 198 621 166 211 166 
L 211 0 
C 365 12 646 12 813 12 
C 979 12 1267 12 1421 0 
L 1421 166 
C 1011 166 986 192 986 443 
L 986 1678 
C 986 2269 1344 2713 1792 2713 
C 2266 2713 2317 2289 2317 1980 
L 2317 443 
C 2317 198 2291 166 1882 166 
L 1882 0 
C 2035 12 2317 12 2483 12 
C 2650 12 2938 12 3091 0 
L 3091 166 
C 2682 166 2656 192 2656 443 
L 2656 1954 
z
" transform="scale(0.015625)"/>
       <path id="CMR17-61" d="M 2304 1656 
C 2304 2048 2304 2275 2035 2534 
C 1798 2751 1523 2816 1306 2816 
C 800 2816 435 2408 435 1977 
C 435 1740 627 1728 666 1728 
C 749 1728 896 1779 896 1958 
C 896 2118 774 2188 666 2188 
C 640 2188 608 2182 589 2176 
C 723 2594 1069 2713 1293 2713 
C 1613 2713 1965 2421 1965 1875 
L 1965 1632 
C 1587 1619 1133 1568 774 1373 
C 371 1147 256 822 256 576 
C 256 77 832 -64 1171 -64 
C 1523 -64 1850 135 1990 505 
C 2003 219 2182 -39 2464 -39 
C 2598 -39 2938 51 2938 563 
L 2938 926 
L 2822 926 
L 2822 557 
C 2822 161 2650 109 2566 109 
C 2304 109 2304 446 2304 732 
L 2304 1656 
z
M 1965 887 
C 1965 323 1568 38 1216 38 
C 896 38 646 278 646 576 
C 646 771 730 1114 1101 1322 
C 1408 1497 1760 1523 1965 1536 
L 1965 887 
z
" transform="scale(0.015625)"/>
       <path id="CMR17-64" d="M 1869 4345 
L 1869 4179 
C 2246 4179 2304 4141 2304 3843 
L 2304 2371 
C 2278 2403 2016 2816 1498 2816 
C 845 2816 211 2228 211 1376 
C 211 529 806 -64 1434 -64 
C 1978 -64 2259 361 2291 406 
L 2291 -64 
L 3066 -13 
L 3066 154 
C 2688 154 2630 193 2630 503 
L 2630 4416 
L 1869 4345 
z
M 2291 762 
C 2291 568 2176 393 2029 264 
C 1811 70 1594 38 1472 38 
C 1286 38 621 135 621 1369 
C 621 2636 1363 2713 1530 2713 
C 1824 2713 2061 2545 2208 2313 
C 2291 2177 2291 2157 2291 2041 
L 2291 762 
z
" transform="scale(0.015625)"/>
       <path id="CMR17-73" d="M 1978 2688 
C 1978 2803 1971 2809 1933 2809 
C 1907 2809 1901 2803 1824 2707 
C 1805 2681 1747 2617 1728 2592 
C 1523 2809 1235 2816 1126 2816 
C 416 2816 160 2444 160 2073 
C 160 1497 813 1363 998 1324 
C 1402 1241 1542 1216 1677 1100 
C 1760 1024 1901 883 1901 652 
C 1901 384 1747 38 1158 38 
C 602 38 403 460 288 1024 
C 269 1113 269 1120 218 1120 
C 166 1120 160 1113 160 985 
L 160 64 
C 160 -52 166 -58 205 -58 
C 237 -58 243 -52 275 0 
C 314 57 410 211 448 275 
C 576 102 800 -64 1158 -64 
C 1792 -64 2131 281 2131 780 
C 2131 1107 1958 1280 1875 1356 
C 1683 1555 1459 1600 1190 1651 
C 838 1728 390 1817 390 2208 
C 390 2374 480 2726 1126 2726 
C 1811 2726 1850 2086 1862 1881 
C 1869 1849 1901 1843 1920 1843 
C 1978 1843 1978 1862 1978 1971 
L 1978 2688 
z
" transform="scale(0.015625)"/>
      </defs>
      <use xlink:href="#CMR17-4e" transform="scale(0.996264)"/>
      <use xlink:href="#CMR17-75" transform="translate(69.07243 0)scale(0.996264)"/>
      <use xlink:href="#CMR17-6d" transform="translate(119.9678 0)scale(0.996264)"/>
      <use xlink:href="#CMR17-62" transform="translate(194.284936 0)scale(0.996264)"/>
      <use xlink:href="#CMR17-65" transform="translate(247.782744 0)scale(0.996264)"/>
      <use xlink:href="#CMR17-72" transform="translate(288.268404 0)scale(0.996264)"/>
      <use xlink:href="#CMR17-6f" transform="translate(345.688379 0)scale(0.996264)"/>
      <use xlink:href="#CMR17-66" transform="translate(391.378856 0)scale(0.996264)"/>
      <use xlink:href="#CMR17-74" transform="translate(446.897088 0)scale(0.996264)"/>
      <use xlink:href="#CMR17-68" transform="translate(482.177856 0)scale(0.996264)"/>
      <use xlink:href="#CMR17-72" transform="translate(533.073226 0)scale(0.996264)"/>
      <use xlink:href="#CMR17-65" transform="translate(568.353994 0)scale(0.996264)"/>
      <use xlink:href="#CMR17-61" transform="translate(608.839654 0)scale(0.996264)"/>
      <use xlink:href="#CMR17-64" transform="translate(654.530131 0)scale(0.996264)"/>
      <use xlink:href="#CMR17-73" transform="translate(705.425501 0)scale(0.996264)"/>
     </g>
    </g>
   </g>
   <g id="matplotlib.axis_2">
    <g id="ytick_1">
     <g id="line2d_10">
      <defs>
       <path id="m5285cb2cd2" d="M 0 0 
L -3.5 0 
" style="stroke: #000000; stroke-width: 0.8"/>
      </defs>
      <g>
       <use xlink:href="#m5285cb2cd2" x="37.018347" y="57.307145" style="stroke: #000000; stroke-width: 0.8"/>
      </g>
     </g>
     <g id="text_11">
      <!-- $\mathdefault{10}$ -->
      <g transform="translate(20.055677 60.766394)scale(0.1 -0.1)">
       <defs>
        <path id="CMR17-30" d="M 2688 2038 
C 2688 2430 2682 3099 2413 3613 
C 2176 4063 1798 4224 1466 4224 
C 1158 4224 768 4082 525 3620 
C 269 3137 243 2539 243 2038 
C 243 1671 250 1112 448 623 
C 723 -39 1216 -128 1466 -128 
C 1760 -128 2208 -7 2470 604 
C 2662 1048 2688 1568 2688 2038 
z
M 1466 -26 
C 1056 -26 813 328 723 816 
C 653 1196 653 1749 653 2109 
C 653 2604 653 3015 736 3407 
C 858 3954 1216 4121 1466 4121 
C 1728 4121 2067 3947 2189 3420 
C 2272 3054 2278 2623 2278 2109 
C 2278 1691 2278 1176 2202 797 
C 2067 96 1690 -26 1466 -26 
z
" transform="scale(0.015625)"/>
       </defs>
       <use xlink:href="#CMR17-31" transform="scale(0.996264)"/>
       <use xlink:href="#CMR17-30" transform="translate(45.690477 0)scale(0.996264)"/>
      </g>
     </g>
    </g>
    <g id="ytick_2">
     <g id="line2d_11">
      <g>
       <use xlink:href="#m5285cb2cd2" x="37.018347" y="12.086295" style="stroke: #000000; stroke-width: 0.8"/>
      </g>
     </g>
     <g id="text_12">
      <!-- $\mathdefault{20}$ -->
      <g transform="translate(20.055677 15.545545)scale(0.1 -0.1)">
       <use xlink:href="#CMR17-32" transform="scale(0.996264)"/>
       <use xlink:href="#CMR17-30" transform="translate(45.690477 0)scale(0.996264)"/>
      </g>
     </g>
    </g>
    <g id="text_13">
     <!-- $\mathrm{Speed{\mbox{-}}up}$ -->
     <g transform="translate(14.118498 74.828692)rotate(-90)scale(0.1 -0.1)">
      <defs>
       <path id="CMR17-53" d="M 2803 4351 
C 2803 4467 2797 4473 2758 4473 
C 2720 4473 2707 4447 2682 4390 
L 2490 3965 
C 2246 4320 1875 4480 1472 4480 
C 819 4480 294 3958 294 3301 
C 294 3101 339 2817 557 2546 
C 794 2250 1018 2198 1530 2063 
C 1722 2011 2042 1927 2106 1901 
C 2470 1747 2662 1360 2662 999 
C 2662 534 2336 38 1779 38 
C 1094 38 454 425 410 1328 
C 403 1431 397 1437 352 1437 
C 301 1437 294 1431 294 1302 
L 294 0 
C 294 -116 301 -122 339 -122 
C 384 -122 397 -90 486 109 
C 493 128 493 141 614 386 
C 934 -39 1472 -128 1779 -128 
C 2477 -128 2970 457 2970 1141 
C 2970 1476 2848 1734 2778 1850 
C 2509 2263 2221 2340 1914 2417 
C 1869 2437 1856 2437 1498 2527 
C 1152 2617 1005 2662 845 2836 
C 666 3036 602 3243 602 3449 
C 602 3868 934 4326 1478 4326 
C 2157 4326 2579 3842 2675 3036 
C 2694 2920 2701 2914 2746 2914 
C 2803 2914 2803 2933 2803 3043 
L 2803 4351 
z
" transform="scale(0.015625)"/>
       <path id="CMR17-70" d="M 1408 -1114 
C 998 -1114 973 -1088 973 -834 
L 973 380 
C 1158 109 1427 -64 1766 -64 
C 2406 -64 3053 503 3053 1382 
C 3053 2196 2496 2816 1837 2816 
C 1453 2816 1139 2603 960 2345 
L 960 2816 
L 198 2745 
L 198 2577 
C 576 2577 634 2539 634 2228 
L 634 -834 
C 634 -1081 608 -1114 198 -1114 
L 198 -1280 
C 352 -1268 634 -1268 800 -1268 
C 966 -1268 1254 -1268 1408 -1280 
L 1408 -1114 
z
M 973 2015 
C 973 2106 973 2241 1222 2481 
C 1254 2506 1472 2700 1792 2700 
C 2259 2700 2643 2112 2643 1376 
C 2643 639 2234 38 1728 38 
C 1498 38 1248 148 1056 451 
C 973 594 973 632 973 736 
L 973 2015 
z
" transform="scale(0.015625)"/>
       <path id="CMSS17-2d" d="M 1664 1216 
L 1664 1587 
L 64 1587 
L 64 1216 
L 1664 1216 
z
" transform="scale(0.015625)"/>
      </defs>
      <use xlink:href="#CMR17-53" transform="scale(0.996264)"/>
      <use xlink:href="#CMR17-70" transform="translate(50.89537 0)scale(0.996264)"/>
      <use xlink:href="#CMR17-65" transform="translate(104.393178 0)scale(0.996264)"/>
      <use xlink:href="#CMR17-65" transform="translate(144.878839 0)scale(0.996264)"/>
      <use xlink:href="#CMR17-64" transform="translate(185.364499 0)scale(0.996264)"/>
      <use xlink:href="#CMSS17-2d" transform="translate(236.259869 0)scale(0.996264)"/>
      <use xlink:href="#CMR17-75" transform="translate(267.488982 0)scale(0.996264)"/>
      <use xlink:href="#CMR17-70" transform="translate(318.384352 0)scale(0.996264)"/>
     </g>
    </g>
   </g>
   <g id="LineCollection_1">
    <path d="M 47.116393 98.005909 
L 52.094303 98.005909 
" clip-path="url(#pbccf74d2cc)" style="fill: none; stroke: #000000; stroke-width: 1.5"/>
    <path d="M 75.561593 93.447613 
L 80.539503 93.447613 
" clip-path="url(#pbccf74d2cc)" style="fill: none; stroke: #000000; stroke-width: 1.5"/>
    <path d="M 104.006792 86.05354 
L 108.984702 86.05354 
" clip-path="url(#pbccf74d2cc)" style="fill: none; stroke: #000000; stroke-width: 1.5"/>
    <path d="M 120.646168 78.065201 
L 125.624077 78.065201 
" clip-path="url(#pbccf74d2cc)" style="fill: none; stroke: #000000; stroke-width: 1.5"/>
    <path d="M 132.451992 71.783694 
L 137.429902 71.783694 
" clip-path="url(#pbccf74d2cc)" style="fill: none; stroke: #000000; stroke-width: 1.5"/>
    <path d="M 149.091367 59.425895 
L 154.069277 59.425895 
" clip-path="url(#pbccf74d2cc)" style="fill: none; stroke: #000000; stroke-width: 1.5"/>
    <path d="M 160.897192 46.686727 
L 165.875102 46.686727 
" clip-path="url(#pbccf74d2cc)" style="fill: none; stroke: #000000; stroke-width: 1.5"/>
    <path d="M 177.536567 26.719466 
L 182.514477 26.719466 
" clip-path="url(#pbccf74d2cc)" style="fill: none; stroke: #000000; stroke-width: 1.5"/>
    <path d="M 189.342391 11.524091 
L 194.320301 11.524091 
" clip-path="url(#pbccf74d2cc)" style="fill: none; stroke: #000000; stroke-width: 1.5"/>
   </g>
   <g id="LineCollection_2">
    <path d="M 47.116393 98.005909 
L 52.094303 98.005909 
" clip-path="url(#pbccf74d2cc)" style="fill: none; stroke: #000000; stroke-width: 1.5"/>
    <path d="M 75.561593 96.851691 
L 80.539503 96.851691 
" clip-path="url(#pbccf74d2cc)" style="fill: none; stroke: #000000; stroke-width: 1.5"/>
    <path d="M 104.006792 91.608379 
L 108.984702 91.608379 
" clip-path="url(#pbccf74d2cc)" style="fill: none; stroke: #000000; stroke-width: 1.5"/>
    <path d="M 120.646168 91.541493 
L 125.624077 91.541493 
" clip-path="url(#pbccf74d2cc)" style="fill: none; stroke: #000000; stroke-width: 1.5"/>
    <path d="M 132.451992 89.575285 
L 137.429902 89.575285 
" clip-path="url(#pbccf74d2cc)" style="fill: none; stroke: #000000; stroke-width: 1.5"/>
    <path d="M 149.091367 87.898113 
L 154.069277 87.898113 
" clip-path="url(#pbccf74d2cc)" style="fill: none; stroke: #000000; stroke-width: 1.5"/>
    <path d="M 160.897192 86.411145 
L 165.875102 86.411145 
" clip-path="url(#pbccf74d2cc)" style="fill: none; stroke: #000000; stroke-width: 1.5"/>
    <path d="M 177.536567 87.446173 
L 182.514477 87.446173 
" clip-path="url(#pbccf74d2cc)" style="fill: none; stroke: #000000; stroke-width: 1.5"/>
    <path d="M 189.342391 87.729733 
L 194.320301 87.729733 
" clip-path="url(#pbccf74d2cc)" style="fill: none; stroke: #000000; stroke-width: 1.5"/>
   </g>
   <g id="LineCollection_3">
    <path d="M 49.605348 98.005909 
L 49.605348 98.005909 
" clip-path="url(#pbccf74d2cc)" style="fill: none; stroke: #000000; stroke-width: 1.5"/>
    <path d="M 78.050548 96.851691 
L 78.050548 93.447613 
" clip-path="url(#pbccf74d2cc)" style="fill: none; stroke: #000000; stroke-width: 1.5"/>
    <path d="M 106.495747 91.608379 
L 106.495747 86.05354 
" clip-path="url(#pbccf74d2cc)" style="fill: none; stroke: #000000; stroke-width: 1.5"/>
    <path d="M 123.135123 91.541493 
L 123.135123 78.065201 
" clip-path="url(#pbccf74d2cc)" style="fill: none; stroke: #000000; stroke-width: 1.5"/>
    <path d="M 134.940947 89.575285 
L 134.940947 71.783694 
" clip-path="url(#pbccf74d2cc)" style="fill: none; stroke: #000000; stroke-width: 1.5"/>
    <path d="M 151.580322 87.898113 
L 151.580322 59.425895 
" clip-path="url(#pbccf74d2cc)" style="fill: none; stroke: #000000; stroke-width: 1.5"/>
    <path d="M 163.386147 86.411145 
L 163.386147 46.686727 
" clip-path="url(#pbccf74d2cc)" style="fill: none; stroke: #000000; stroke-width: 1.5"/>
    <path d="M 180.025522 87.446173 
L 180.025522 26.719466 
" clip-path="url(#pbccf74d2cc)" style="fill: none; stroke: #000000; stroke-width: 1.5"/>
    <path d="M 191.831346 87.729733 
L 191.831346 11.524091 
" clip-path="url(#pbccf74d2cc)" style="fill: none; stroke: #000000; stroke-width: 1.5"/>
   </g>
   <g id="LineCollection_4">
    <path d="M 47.116393 98.005909 
L 52.094303 98.005909 
" clip-path="url(#pbccf74d2cc)" style="fill: none; stroke: #000000; stroke-width: 1.5"/>
    <path d="M 75.561593 95.151168 
L 80.539503 95.151168 
" clip-path="url(#pbccf74d2cc)" style="fill: none; stroke: #000000; stroke-width: 1.5"/>
    <path d="M 104.006792 89.123654 
L 108.984702 89.123654 
" clip-path="url(#pbccf74d2cc)" style="fill: none; stroke: #000000; stroke-width: 1.5"/>
    <path d="M 120.646168 83.96506 
L 125.624077 83.96506 
" clip-path="url(#pbccf74d2cc)" style="fill: none; stroke: #000000; stroke-width: 1.5"/>
    <path d="M 132.451992 79.200068 
L 137.429902 79.200068 
" clip-path="url(#pbccf74d2cc)" style="fill: none; stroke: #000000; stroke-width: 1.5"/>
    <path d="M 149.091367 69.938819 
L 154.069277 69.938819 
" clip-path="url(#pbccf74d2cc)" style="fill: none; stroke: #000000; stroke-width: 1.5"/>
    <path d="M 160.897192 64.614638 
L 165.875102 64.614638 
" clip-path="url(#pbccf74d2cc)" style="fill: none; stroke: #000000; stroke-width: 1.5"/>
    <path d="M 177.536567 55.825751 
L 182.514477 55.825751 
" clip-path="url(#pbccf74d2cc)" style="fill: none; stroke: #000000; stroke-width: 1.5"/>
    <path d="M 189.342391 49.704534 
L 194.320301 49.704534 
" clip-path="url(#pbccf74d2cc)" style="fill: none; stroke: #000000; stroke-width: 1.5"/>
   </g>
   <g id="line2d_12">
    <path d="M 37.018347 98.005909 
L 204.418347 98.005909 
" clip-path="url(#pbccf74d2cc)" style="fill: none; stroke-dasharray: 3.7,1.6; stroke-dashoffset: 0; stroke: #000000"/>
   </g>
   <g id="patch_3">
    <path d="M 37.018347 102.33 
L 37.018347 7.2 
" style="fill: none; stroke: #000000; stroke-width: 0.8; stroke-linejoin: miter; stroke-linecap: square"/>
   </g>
   <g id="patch_4">
    <path d="M 204.418347 102.33 
L 204.418347 7.2 
" style="fill: none; stroke: #000000; stroke-width: 0.8; stroke-linejoin: miter; stroke-linecap: square"/>
   </g>
   <g id="patch_5">
    <path d="M 37.018347 102.33 
L 204.418347 102.33 
" style="fill: none; stroke: #000000; stroke-width: 0.8; stroke-linejoin: miter; stroke-linecap: square"/>
   </g>
   <g id="patch_6">
    <path d="M 37.018347 7.2 
L 204.418347 7.2 
" style="fill: none; stroke: #000000; stroke-width: 0.8; stroke-linejoin: miter; stroke-linecap: square"/>
   </g>
  </g>
 </g>
 <defs>
  <clipPath id="pbccf74d2cc">
   <rect x="37.018347" y="7.2" width="167.4" height="95.13"/>
  </clipPath>
 </defs>
</svg>
