<?xml version="1.0" encoding="utf-8" standalone="no"?>
<!DOCTYPE svg PUBLIC "-//W3C//DTD SVG 1.1//EN"
  "http://www.w3.org/Graphics/SVG/1.1/DTD/svg11.dtd">
<svg xmlns:xlink="http://www.w3.org/1999/xlink" width="211.618347pt" height="138.241353pt" viewBox="0 0 211.618347 138.241353" xmlns="http://www.w3.org/2000/svg" version="1.1">
 <metadata>
  <rdf:RDF xmlns:dc="http://purl.org/dc/elements/1.1/" xmlns:cc="http://creativecommons.org/ns#" xmlns:rdf="http://www.w3.org/1999/02/22-rdf-syntax-ns#">
   <cc:Work>
    <dc:type rdf:resource="http://purl.org/dc/dcmitype/StillImage"/>
    <dc:date>2022-03-29T16:18:13.265476</dc:date>
    <dc:format>image/svg+xml</dc:format>
    <dc:creator>
     <cc:Agent>
      <dc:title>Matplotlib v3.5.1, https://matplotlib.org/</dc:title>
     </cc:Agent>
    </dc:creator>
   </cc:Work>
  </rdf:RDF>
 </metadata>
 <defs>
  <style type="text/css">*{stroke-linejoin: round; stroke-linecap: butt}</style>
 </defs>
 <g id="figure_1">
  <g id="patch_1">
   <path d="M 0 138.241353 
L 211.618347 138.241353 
L 211.618347 -0 
L 0 -0 
L 0 138.241353 
z
" style="fill: none"/>
  </g>
  <g id="axes_1">
   <g id="patch_2">
    <path d="M 37.018347 102.33 
L 204.418347 102.33 
L 204.418347 7.2 
L 37.018347 7.2 
z
" style="fill: #ffffff"/>
   </g>
   <g id="PolyCollection_1">
    <path d="M 54.583258 96.384375 
L 44.627438 96.384375 
L 44.627438 96.384375 
L 44.627438 96.384375 
L 44.627438 96.384375 
L 44.627438 96.384375 
L 44.627438 96.384375 
L 44.627438 96.384375 
L 44.627438 96.384375 
L 44.627438 96.384375 
L 44.627438 96.384375 
L 44.627438 96.384375 
L 44.627438 96.384375 
L 44.627438 96.384375 
L 44.627438 96.384375 
L 44.627438 96.384375 
L 44.627438 96.384375 
L 44.627438 96.384375 
L 44.627438 96.384375 
L 44.627438 96.384375 
L 44.627438 96.384375 
L 44.627438 96.384375 
L 44.627438 96.384375 
L 44.627438 96.384375 
L 44.627438 96.384375 
L 44.627438 96.384375 
L 44.627438 96.384375 
L 44.627438 96.384375 
L 44.627438 96.384375 
L 44.627438 96.384375 
L 44.627438 96.384375 
L 44.627438 96.384375 
L 44.627438 96.384375 
L 44.627438 96.384375 
L 44.627438 96.384375 
L 44.627438 96.384375 
L 44.627438 96.384375 
L 44.627438 96.384375 
L 44.627438 96.384375 
L 44.627438 96.384375 
L 44.627438 96.384375 
L 44.627438 96.384375 
L 44.627438 96.384375 
L 44.627438 96.384375 
L 44.627438 96.384375 
L 44.627438 96.384375 
L 44.627438 96.384375 
L 44.627438 96.384375 
L 44.627438 96.384375 
L 44.627438 96.384375 
L 44.627438 96.384375 
L 44.627438 96.384375 
L 44.627438 96.384375 
L 44.627438 96.384375 
L 44.627438 96.384375 
L 44.627438 96.384375 
L 44.627438 96.384375 
L 44.627438 96.384375 
L 44.627438 96.384375 
L 44.627438 96.384375 
L 44.627438 96.384375 
L 44.627438 96.384375 
L 44.627438 96.384375 
L 44.627438 96.384375 
L 44.627438 96.384375 
L 44.627438 96.384375 
L 44.627438 96.384375 
L 44.627438 96.384375 
L 44.627438 96.384375 
L 44.627438 96.384375 
L 44.627438 96.384375 
L 44.627438 96.384375 
L 44.627438 96.384375 
L 44.627438 96.384375 
L 44.627438 96.384375 
L 44.627438 96.384375 
L 44.627438 96.384375 
L 44.627438 96.384375 
L 44.627438 96.384375 
L 44.627438 96.384375 
L 44.627438 96.384375 
L 44.627438 96.384375 
L 44.627438 96.384375 
L 44.627438 96.384375 
L 44.627438 96.384375 
L 44.627438 96.384375 
L 44.627438 96.384375 
L 44.627438 96.384375 
L 44.627438 96.384375 
L 44.627438 96.384375 
L 44.627438 96.384375 
L 44.627438 96.384375 
L 44.627438 96.384375 
L 44.627438 96.384375 
L 44.627438 96.384375 
L 44.627438 96.384375 
L 44.627438 96.384375 
L 44.627438 96.384375 
L 44.627438 96.384375 
L 44.627438 96.384375 
L 44.627438 96.384375 
L 54.583258 96.384375 
L 54.583258 96.384375 
L 54.583258 96.384375 
L 54.583258 96.384375 
L 54.583258 96.384375 
L 54.583258 96.384375 
L 54.583258 96.384375 
L 54.583258 96.384375 
L 54.583258 96.384375 
L 54.583258 96.384375 
L 54.583258 96.384375 
L 54.583258 96.384375 
L 54.583258 96.384375 
L 54.583258 96.384375 
L 54.583258 96.384375 
L 54.583258 96.384375 
L 54.583258 96.384375 
L 54.583258 96.384375 
L 54.583258 96.384375 
L 54.583258 96.384375 
L 54.583258 96.384375 
L 54.583258 96.384375 
L 54.583258 96.384375 
L 54.583258 96.384375 
L 54.583258 96.384375 
L 54.583258 96.384375 
L 54.583258 96.384375 
L 54.583258 96.384375 
L 54.583258 96.384375 
L 54.583258 96.384375 
L 54.583258 96.384375 
L 54.583258 96.384375 
L 54.583258 96.384375 
L 54.583258 96.384375 
L 54.583258 96.384375 
L 54.583258 96.384375 
L 54.583258 96.384375 
L 54.583258 96.384375 
L 54.583258 96.384375 
L 54.583258 96.384375 
L 54.583258 96.384375 
L 54.583258 96.384375 
L 54.583258 96.384375 
L 54.583258 96.384375 
L 54.583258 96.384375 
L 54.583258 96.384375 
L 54.583258 96.384375 
L 54.583258 96.384375 
L 54.583258 96.384375 
L 54.583258 96.384375 
L 54.583258 96.384375 
L 54.583258 96.384375 
L 54.583258 96.384375 
L 54.583258 96.384375 
L 54.583258 96.384375 
L 54.583258 96.384375 
L 54.583258 96.384375 
L 54.583258 96.384375 
L 54.583258 96.384375 
L 54.583258 96.384375 
L 54.583258 96.384375 
L 54.583258 96.384375 
L 54.583258 96.384375 
L 54.583258 96.384375 
L 54.583258 96.384375 
L 54.583258 96.384375 
L 54.583258 96.384375 
L 54.583258 96.384375 
L 54.583258 96.384375 
L 54.583258 96.384375 
L 54.583258 96.384375 
L 54.583258 96.384375 
L 54.583258 96.384375 
L 54.583258 96.384375 
L 54.583258 96.384375 
L 54.583258 96.384375 
L 54.583258 96.384375 
L 54.583258 96.384375 
L 54.583258 96.384375 
L 54.583258 96.384375 
L 54.583258 96.384375 
L 54.583258 96.384375 
L 54.583258 96.384375 
L 54.583258 96.384375 
L 54.583258 96.384375 
L 54.583258 96.384375 
L 54.583258 96.384375 
L 54.583258 96.384375 
L 54.583258 96.384375 
L 54.583258 96.384375 
L 54.583258 96.384375 
L 54.583258 96.384375 
L 54.583258 96.384375 
L 54.583258 96.384375 
L 54.583258 96.384375 
L 54.583258 96.384375 
L 54.583258 96.384375 
L 54.583258 96.384375 
L 54.583258 96.384375 
L 54.583258 96.384375 
L 54.583258 96.384375 
z
" clip-path="url(#p0a3ef8414b)" style="fill: #ff0000; fill-opacity: 0.3"/>
   </g>
   <g id="PolyCollection_2">
    <path d="M 78.794306 102.139577 
L 77.306789 102.139577 
L 77.260776 101.964559 
L 77.226886 101.789541 
L 77.205675 101.614523 
L 77.196816 101.439505 
L 77.199171 101.264486 
L 77.210908 101.089468 
L 77.229638 100.91445 
L 77.25255 100.739432 
L 77.276527 100.564414 
L 77.298239 100.389395 
L 77.314237 100.214377 
L 77.321057 100.039359 
L 77.31535 99.864341 
L 77.294052 99.689323 
L 77.254605 99.514304 
L 77.195191 99.339286 
L 77.114988 99.164268 
L 77.014389 98.98925 
L 76.895157 98.814232 
L 76.760467 98.639213 
L 76.614796 98.464195 
L 76.463634 98.289177 
L 76.313013 98.114159 
L 76.168888 97.939141 
L 76.036431 97.764122 
L 75.919341 97.589104 
L 75.819288 97.414086 
L 75.735592 97.239068 
L 75.66523 97.06405 
L 75.603153 96.889031 
L 75.542911 96.714013 
L 75.477437 96.538995 
L 75.399883 96.363977 
L 75.304358 96.188959 
L 75.186485 96.01394 
L 75.043734 95.838922 
L 74.875567 95.663904 
L 74.683471 95.488886 
L 74.470948 95.313867 
L 74.243529 95.138849 
L 74.008785 94.963831 
L 73.776293 94.788813 
L 73.557429 94.613795 
L 73.364886 94.438776 
L 73.21186 94.263758 
L 73.110917 94.08874 
L 73.072638 93.913722 
L 73.104266 93.738704 
L 73.208557 93.563685 
L 73.383084 93.388667 
L 73.620129 93.213649 
L 73.90725 93.038631 
L 74.228435 92.863613 
L 74.565703 92.688594 
L 74.900929 92.513576 
L 75.21762 92.338558 
L 75.502447 92.16354 
L 75.746335 91.988522 
L 75.945018 91.813503 
L 76.099034 91.638485 
L 76.213206 91.463467 
L 76.295692 91.288449 
L 76.356753 91.113431 
L 76.407385 90.938412 
L 76.457982 90.763394 
L 76.517186 90.588376 
L 76.591042 90.413358 
L 76.68255 90.23834 
L 76.79164 90.063321 
L 76.91554 89.888303 
L 77.049435 89.713285 
L 77.18732 89.538267 
L 77.322869 89.363249 
L 77.450231 89.18823 
L 77.564618 89.013212 
L 77.662667 88.838194 
L 77.742561 88.663176 
L 77.803949 88.488158 
L 77.847727 88.313139 
L 77.875749 88.138121 
L 77.890515 87.963103 
L 77.894893 87.788085 
L 77.891864 87.613067 
L 77.88432 87.438048 
L 77.874899 87.26303 
L 77.865843 87.088012 
L 77.858906 86.912994 
L 77.855281 86.737976 
L 77.855589 86.562957 
L 77.859911 86.387939 
L 77.867869 86.212921 
L 77.878755 86.037903 
L 77.891677 85.862885 
L 77.905709 85.687866 
L 77.920018 85.512848 
L 77.933953 85.33783 
L 77.947085 85.162812 
L 77.959197 84.987794 
L 77.970249 84.812775 
L 78.130846 84.812775 
L 78.130846 84.812775 
L 78.141899 84.987794 
L 78.154011 85.162812 
L 78.167142 85.33783 
L 78.181077 85.512848 
L 78.195387 85.687866 
L 78.209419 85.862885 
L 78.22234 86.037903 
L 78.233226 86.212921 
L 78.241184 86.387939 
L 78.245506 86.562957 
L 78.245815 86.737976 
L 78.24219 86.912994 
L 78.235252 87.088012 
L 78.226197 87.26303 
L 78.216775 87.438048 
L 78.209232 87.613067 
L 78.206202 87.788085 
L 78.21058 87.963103 
L 78.225347 88.138121 
L 78.253368 88.313139 
L 78.297146 88.488158 
L 78.358535 88.663176 
L 78.438429 88.838194 
L 78.536478 89.013212 
L 78.650864 89.18823 
L 78.778226 89.363249 
L 78.913776 89.538267 
L 79.05166 89.713285 
L 79.185556 89.888303 
L 79.309455 90.063321 
L 79.418546 90.23834 
L 79.510053 90.413358 
L 79.583909 90.588376 
L 79.643113 90.763394 
L 79.693711 90.938412 
L 79.744343 91.113431 
L 79.805403 91.288449 
L 79.887889 91.463467 
L 80.002061 91.638485 
L 80.156077 91.813503 
L 80.35476 91.988522 
L 80.598648 92.16354 
L 80.883476 92.338558 
L 81.200167 92.513576 
L 81.535392 92.688594 
L 81.872661 92.863613 
L 82.193845 93.038631 
L 82.480966 93.213649 
L 82.718012 93.388667 
L 82.892538 93.563685 
L 82.99683 93.738704 
L 83.028458 93.913722 
L 82.990179 94.08874 
L 82.889235 94.263758 
L 82.73621 94.438776 
L 82.543667 94.613795 
L 82.324802 94.788813 
L 82.092311 94.963831 
L 81.857567 95.138849 
L 81.630147 95.313867 
L 81.417624 95.488886 
L 81.225528 95.663904 
L 81.057362 95.838922 
L 80.91461 96.01394 
L 80.796737 96.188959 
L 80.701213 96.363977 
L 80.623658 96.538995 
L 80.558184 96.714013 
L 80.497942 96.889031 
L 80.435866 97.06405 
L 80.365503 97.239068 
L 80.281808 97.414086 
L 80.181754 97.589104 
L 80.064664 97.764122 
L 79.932207 97.939141 
L 79.788083 98.114159 
L 79.637462 98.289177 
L 79.486299 98.464195 
L 79.340628 98.639213 
L 79.205938 98.814232 
L 79.086706 98.98925 
L 78.986107 99.164268 
L 78.905904 99.339286 
L 78.846491 99.514304 
L 78.807043 99.689323 
L 78.785746 99.864341 
L 78.780038 100.039359 
L 78.786858 100.214377 
L 78.802857 100.389395 
L 78.824569 100.564414 
L 78.848545 100.739432 
L 78.871457 100.91445 
L 78.890187 101.089468 
L 78.901924 101.264486 
L 78.904279 101.439505 
L 78.895421 101.614523 
L 78.87421 101.789541 
L 78.84032 101.964559 
L 78.794306 102.139577 
z
" clip-path="url(#p0a3ef8414b)" style="fill: #ff0000; fill-opacity: 0.3"/>
   </g>
   <g id="PolyCollection_3">
    <path d="M 108.971889 102.19934 
L 104.019606 102.19934 
L 103.897828 101.990953 
L 103.792085 101.782565 
L 103.702319 101.574178 
L 103.627662 101.365791 
L 103.566555 101.157403 
L 103.516923 100.949016 
L 103.476384 100.740628 
L 103.442477 100.532241 
L 103.412875 100.323854 
L 103.38557 100.115466 
L 103.359002 99.907079 
L 103.332143 99.698691 
L 103.304505 99.490304 
L 103.276099 99.281917 
L 103.247349 99.073529 
L 103.218972 98.865142 
L 103.191844 98.656754 
L 103.166865 98.448367 
L 103.144846 98.23998 
L 103.126409 98.031592 
L 103.111929 97.823205 
L 103.101492 97.614817 
L 103.094894 97.40643 
L 103.091655 97.198043 
L 103.091055 96.989655 
L 103.092186 96.781268 
L 103.094008 96.572881 
L 103.095417 96.364493 
L 103.095309 96.156106 
L 103.092646 95.947718 
L 103.086519 95.739331 
L 103.076201 95.530944 
L 103.061191 95.322556 
L 103.041236 95.114169 
L 103.016339 94.905781 
L 102.986741 94.697394 
L 102.952879 94.489007 
L 102.915326 94.280619 
L 102.874714 94.072232 
L 102.831645 93.863844 
L 102.786603 93.655457 
L 102.739883 93.44707 
L 102.691527 93.238682 
L 102.641305 93.030295 
L 102.588721 92.821907 
L 102.533064 92.61352 
L 102.473493 92.405133 
L 102.409164 92.196745 
L 102.339371 91.988358 
L 102.263711 91.779971 
L 102.182236 91.571583 
L 102.095591 91.363196 
L 102.00512 91.154808 
L 101.912911 90.946421 
L 101.821794 90.738034 
L 101.735262 90.529646 
L 101.657329 90.321259 
L 101.592333 90.112871 
L 101.544688 89.904484 
L 101.518609 89.696097 
L 101.517837 89.487709 
L 101.54538 89.279322 
L 101.603293 89.070934 
L 101.692527 88.862547 
L 101.812844 88.65416 
L 101.962816 88.445772 
L 102.139904 88.237385 
L 102.340605 88.028998 
L 102.560653 87.82061 
L 102.795258 87.612223 
L 103.039358 87.403835 
L 103.287869 87.195448 
L 103.535909 86.987061 
L 103.778992 86.778673 
L 104.013172 86.570286 
L 104.235145 86.361898 
L 104.442306 86.153511 
L 104.632764 85.945124 
L 104.805321 85.736736 
L 104.959435 85.528349 
L 105.095154 85.319961 
L 105.213041 85.111574 
L 105.314099 84.903187 
L 105.399685 84.694799 
L 105.471429 84.486412 
L 105.531146 84.278024 
L 105.580765 84.069637 
L 105.622244 83.86125 
L 105.657503 83.652862 
L 105.688361 83.444475 
L 105.716473 83.236088 
L 105.743294 83.0277 
L 105.770039 82.819313 
L 105.797664 82.610925 
L 105.826856 82.402538 
L 105.858044 82.194151 
L 105.891407 81.985763 
L 105.926905 81.777376 
L 105.964308 81.568988 
L 107.027187 81.568988 
L 107.027187 81.568988 
L 107.06459 81.777376 
L 107.100088 81.985763 
L 107.133451 82.194151 
L 107.164638 82.402538 
L 107.193831 82.610925 
L 107.221455 82.819313 
L 107.2482 83.0277 
L 107.275022 83.236088 
L 107.303134 83.444475 
L 107.333991 83.652862 
L 107.369251 83.86125 
L 107.41073 84.069637 
L 107.460348 84.278024 
L 107.520066 84.486412 
L 107.59181 84.694799 
L 107.677396 84.903187 
L 107.778454 85.111574 
L 107.896341 85.319961 
L 108.032059 85.528349 
L 108.186174 85.736736 
L 108.358731 85.945124 
L 108.549189 86.153511 
L 108.75635 86.361898 
L 108.978323 86.570286 
L 109.212503 86.778673 
L 109.455586 86.987061 
L 109.703626 87.195448 
L 109.952137 87.403835 
L 110.196237 87.612223 
L 110.430842 87.82061 
L 110.65089 88.028998 
L 110.851591 88.237385 
L 111.028679 88.445772 
L 111.178651 88.65416 
L 111.298968 88.862547 
L 111.388202 89.070934 
L 111.446115 89.279322 
L 111.473657 89.487709 
L 111.472886 89.696097 
L 111.446807 89.904484 
L 111.399161 90.112871 
L 111.334166 90.321259 
L 111.256233 90.529646 
L 111.169701 90.738034 
L 111.078584 90.946421 
L 110.986375 91.154808 
L 110.895904 91.363196 
L 110.809259 91.571583 
L 110.727784 91.779971 
L 110.652123 91.988358 
L 110.582331 92.196745 
L 110.518002 92.405133 
L 110.458431 92.61352 
L 110.402774 92.821907 
L 110.35019 93.030295 
L 110.299968 93.238682 
L 110.251612 93.44707 
L 110.204891 93.655457 
L 110.15985 93.863844 
L 110.11678 94.072232 
L 110.076168 94.280619 
L 110.038616 94.489007 
L 110.004754 94.697394 
L 109.975155 94.905781 
L 109.950258 95.114169 
L 109.930304 95.322556 
L 109.915294 95.530944 
L 109.904976 95.739331 
L 109.898849 95.947718 
L 109.896186 96.156106 
L 109.896077 96.364493 
L 109.897487 96.572881 
L 109.899309 96.781268 
L 109.90044 96.989655 
L 109.89984 97.198043 
L 109.8966 97.40643 
L 109.890002 97.614817 
L 109.879566 97.823205 
L 109.865085 98.031592 
L 109.846649 98.23998 
L 109.82463 98.448367 
L 109.799651 98.656754 
L 109.772522 98.865142 
L 109.744146 99.073529 
L 109.715396 99.281917 
L 109.68699 99.490304 
L 109.659352 99.698691 
L 109.632493 99.907079 
L 109.605925 100.115466 
L 109.578619 100.323854 
L 109.549018 100.532241 
L 109.515111 100.740628 
L 109.474572 100.949016 
L 109.42494 101.157403 
L 109.363833 101.365791 
L 109.289176 101.574178 
L 109.19941 101.782565 
L 109.093666 101.990953 
L 108.971889 102.19934 
z
" clip-path="url(#p0a3ef8414b)" style="fill: #ff0000; fill-opacity: 0.3"/>
   </g>
   <g id="PolyCollection_4">
    <path d="M 127.366442 102.207854 
L 118.903803 102.207854 
L 118.691324 101.895995 
L 118.521915 101.584136 
L 118.394124 101.272277 
L 118.303776 100.960418 
L 118.24461 100.648559 
L 118.20916 100.3367 
L 118.189743 100.024841 
L 118.179443 99.712982 
L 118.172944 99.401123 
L 118.167122 99.089264 
L 118.161308 98.777405 
L 118.157213 98.465546 
L 118.15852 98.153687 
L 118.170229 97.841828 
L 118.197813 97.529969 
L 118.246336 97.218111 
L 118.319618 96.906252 
L 118.419554 96.594393 
L 118.545675 96.282534 
L 118.694977 95.970675 
L 118.862039 95.658816 
L 119.039397 95.346957 
L 119.218128 95.035098 
L 119.388562 94.723239 
L 119.541056 94.41138 
L 119.666751 94.099521 
L 119.758253 93.787662 
L 119.810197 93.475803 
L 119.819664 93.163944 
L 119.786444 92.852085 
L 119.713139 92.540227 
L 119.60511 92.228368 
L 119.47026 91.916509 
L 119.318668 91.60465 
L 119.162058 91.292791 
L 119.013132 90.980932 
L 118.88477 90.669073 
L 118.789164 90.357214 
L 118.736935 90.045355 
L 118.736312 89.733496 
L 118.792465 89.421637 
L 118.907067 89.109778 
L 119.078134 88.797919 
L 119.300191 88.48606 
L 119.564726 88.174201 
L 119.860909 87.862343 
L 120.176482 87.550484 
L 120.49872 87.238625 
L 120.815374 86.926766 
L 121.115495 86.614907 
L 121.390066 86.303048 
L 121.632412 85.991189 
L 121.838375 85.67933 
L 122.006264 85.367471 
L 122.136636 85.055612 
L 122.231941 84.743753 
L 122.296096 84.431894 
L 122.334027 84.120035 
L 122.35123 83.808176 
L 122.353364 83.496317 
L 122.345912 83.184459 
L 122.333904 82.8726 
L 122.321709 82.560741 
L 122.312899 82.248882 
L 122.310174 81.937023 
L 122.315351 81.625164 
L 122.329395 81.313305 
L 122.352506 81.001446 
L 122.384227 80.689587 
L 122.423582 80.377728 
L 122.469217 80.065869 
L 122.519548 79.75401 
L 122.572885 79.442151 
L 122.627545 79.130292 
L 122.681935 78.818433 
L 122.734613 78.506575 
L 122.784319 78.194716 
L 122.829997 77.882857 
L 122.870792 77.570998 
L 122.906047 77.259139 
L 122.935294 76.94728 
L 122.958245 76.635421 
L 122.974792 76.323562 
L 122.984999 76.011703 
L 122.989105 75.699844 
L 122.98753 75.387985 
L 122.980867 75.076126 
L 122.96988 74.764267 
L 122.955489 74.452408 
L 122.938745 74.140549 
L 122.920792 73.828691 
L 122.902825 73.516832 
L 122.886026 73.204973 
L 122.871505 72.893114 
L 122.860239 72.581255 
L 122.853006 72.269396 
L 122.850345 71.957537 
L 122.85252 71.645678 
L 122.859508 71.333819 
L 123.410737 71.333819 
L 123.410737 71.333819 
L 123.417725 71.645678 
L 123.4199 71.957537 
L 123.417239 72.269396 
L 123.410006 72.581255 
L 123.39874 72.893114 
L 123.384219 73.204973 
L 123.36742 73.516832 
L 123.349453 73.828691 
L 123.3315 74.140549 
L 123.314756 74.452408 
L 123.300365 74.764267 
L 123.289378 75.076126 
L 123.282715 75.387985 
L 123.28114 75.699844 
L 123.285246 76.011703 
L 123.295453 76.323562 
L 123.312 76.635421 
L 123.334952 76.94728 
L 123.364198 77.259139 
L 123.399453 77.570998 
L 123.440248 77.882857 
L 123.485926 78.194716 
L 123.535632 78.506575 
L 123.58831 78.818433 
L 123.6427 79.130292 
L 123.69736 79.442151 
L 123.750697 79.75401 
L 123.801028 80.065869 
L 123.846663 80.377728 
L 123.886018 80.689587 
L 123.917739 81.001446 
L 123.94085 81.313305 
L 123.954894 81.625164 
L 123.960071 81.937023 
L 123.957346 82.248882 
L 123.948536 82.560741 
L 123.936341 82.8726 
L 123.924333 83.184459 
L 123.916881 83.496317 
L 123.919015 83.808176 
L 123.936218 84.120035 
L 123.974149 84.431894 
L 124.038304 84.743753 
L 124.133609 85.055612 
L 124.263981 85.367471 
L 124.43187 85.67933 
L 124.637833 85.991189 
L 124.880179 86.303048 
L 125.15475 86.614907 
L 125.454871 86.926766 
L 125.771525 87.238625 
L 126.093763 87.550484 
L 126.409336 87.862343 
L 126.705519 88.174201 
L 126.970054 88.48606 
L 127.192111 88.797919 
L 127.363178 89.109778 
L 127.47778 89.421637 
L 127.533933 89.733496 
L 127.53331 90.045355 
L 127.481081 90.357214 
L 127.385475 90.669073 
L 127.257113 90.980932 
L 127.108187 91.292791 
L 126.951577 91.60465 
L 126.799985 91.916509 
L 126.665135 92.228368 
L 126.557106 92.540227 
L 126.483801 92.852085 
L 126.450581 93.163944 
L 126.460048 93.475803 
L 126.511992 93.787662 
L 126.603494 94.099521 
L 126.729189 94.41138 
L 126.881683 94.723239 
L 127.052117 95.035098 
L 127.230848 95.346957 
L 127.408206 95.658816 
L 127.575268 95.970675 
L 127.72457 96.282534 
L 127.850691 96.594393 
L 127.950627 96.906252 
L 128.023909 97.218111 
L 128.072432 97.529969 
L 128.100016 97.841828 
L 128.111725 98.153687 
L 128.113032 98.465546 
L 128.108937 98.777405 
L 128.103123 99.089264 
L 128.097301 99.401123 
L 128.090802 99.712982 
L 128.080502 100.024841 
L 128.061085 100.3367 
L 128.025635 100.648559 
L 127.966469 100.960418 
L 127.876121 101.272277 
L 127.74833 101.584136 
L 127.578922 101.895995 
L 127.366442 102.207854 
z
" clip-path="url(#p0a3ef8414b)" style="fill: #ff0000; fill-opacity: 0.3"/>
   </g>
   <g id="PolyCollection_5">
    <path d="M 139.575044 102.214577 
L 130.30685 102.214577 
L 130.163036 101.903248 
L 130.062891 101.591919 
L 130.004307 101.28059 
L 129.983004 100.969261 
L 129.992891 100.657932 
L 130.026559 100.346603 
L 130.075872 100.035274 
L 130.132598 99.723945 
L 130.189011 99.412616 
L 130.23843 99.101287 
L 130.275634 98.789958 
L 130.297141 98.478629 
L 130.301331 98.1673 
L 130.288413 97.855971 
L 130.260257 97.544642 
L 130.220118 97.233313 
L 130.172279 96.921984 
L 130.121653 96.610655 
L 130.073373 96.299326 
L 130.032403 95.987997 
L 130.003192 95.676668 
L 129.989395 95.365339 
L 129.993656 95.05401 
L 130.01748 94.742681 
L 130.061173 94.431352 
L 130.123852 94.120023 
L 130.203523 93.808694 
L 130.297205 93.497365 
L 130.401097 93.186036 
L 130.510769 92.874707 
L 130.621379 92.563378 
L 130.727894 92.252049 
L 130.825319 91.94072 
L 130.908922 91.629391 
L 130.974453 91.318062 
L 131.018352 91.006733 
L 131.037944 90.695404 
L 131.031607 90.384074 
L 130.998918 90.072745 
L 130.940745 89.761416 
L 130.859302 89.450087 
L 130.758129 89.138758 
L 130.642004 88.827429 
L 130.51678 88.5161 
L 130.389133 88.204771 
L 130.266256 87.893442 
L 130.155486 87.582113 
L 130.063909 87.270784 
L 129.997957 86.959455 
L 129.963037 86.648126 
L 129.963225 86.336797 
L 130.00104 86.025468 
L 130.077323 85.714139 
L 130.191242 85.40281 
L 130.34039 85.091481 
L 130.520996 84.780152 
L 130.728202 84.468823 
L 130.956388 84.157494 
L 131.199513 83.846165 
L 131.45145 83.534836 
L 131.706276 83.223507 
L 131.958514 82.912178 
L 132.203317 82.600849 
L 132.436593 82.28952 
L 132.655064 81.978191 
L 132.856294 81.666862 
L 133.038672 81.355533 
L 133.201373 81.044204 
L 133.344302 80.732875 
L 133.468026 80.421546 
L 133.573695 80.110217 
L 133.662954 79.798888 
L 133.737835 79.487559 
L 133.800649 79.17623 
L 133.853854 78.864901 
L 133.899922 78.553572 
L 133.941204 78.242243 
L 133.979802 77.930914 
L 134.017454 77.619585 
L 134.055458 77.308256 
L 134.094615 76.996927 
L 134.135226 76.685597 
L 134.177124 76.374268 
L 134.219745 76.062939 
L 134.262229 75.75161 
L 134.303549 75.440281 
L 134.342634 75.128952 
L 134.378504 74.817623 
L 134.410379 74.506294 
L 134.437758 74.194965 
L 134.460476 73.883636 
L 134.478716 73.572307 
L 134.492987 73.260978 
L 134.50407 72.949649 
L 134.512946 72.63832 
L 134.520699 72.326991 
L 134.52842 72.015662 
L 134.537118 71.704333 
L 134.547637 71.393004 
L 135.334257 71.393004 
L 135.334257 71.393004 
L 135.344776 71.704333 
L 135.353474 72.015662 
L 135.361196 72.326991 
L 135.368948 72.63832 
L 135.377824 72.949649 
L 135.388907 73.260978 
L 135.403178 73.572307 
L 135.421418 73.883636 
L 135.444136 74.194965 
L 135.471515 74.506294 
L 135.50339 74.817623 
L 135.53926 75.128952 
L 135.578346 75.440281 
L 135.619665 75.75161 
L 135.662149 76.062939 
L 135.70477 76.374268 
L 135.746668 76.685597 
L 135.787279 76.996927 
L 135.826436 77.308256 
L 135.86444 77.619585 
L 135.902093 77.930914 
L 135.94069 78.242243 
L 135.981972 78.553572 
L 136.02804 78.864901 
L 136.081245 79.17623 
L 136.144059 79.487559 
L 136.21894 79.798888 
L 136.308199 80.110217 
L 136.413868 80.421546 
L 136.537592 80.732875 
L 136.680521 81.044204 
L 136.843222 81.355533 
L 137.0256 81.666862 
L 137.22683 81.978191 
L 137.445301 82.28952 
L 137.678577 82.600849 
L 137.923381 82.912178 
L 138.175618 83.223507 
L 138.430444 83.534836 
L 138.682381 83.846165 
L 138.925507 84.157494 
L 139.153692 84.468823 
L 139.360898 84.780152 
L 139.541504 85.091481 
L 139.690652 85.40281 
L 139.804571 85.714139 
L 139.880854 86.025468 
L 139.918669 86.336797 
L 139.918857 86.648126 
L 139.883938 86.959455 
L 139.817985 87.270784 
L 139.726408 87.582113 
L 139.615639 87.893442 
L 139.492761 88.204771 
L 139.365115 88.5161 
L 139.23989 88.827429 
L 139.123765 89.138758 
L 139.022592 89.450087 
L 138.941149 89.761416 
L 138.882976 90.072745 
L 138.850287 90.384074 
L 138.84395 90.695404 
L 138.863542 91.006733 
L 138.907441 91.318062 
L 138.972972 91.629391 
L 139.056575 91.94072 
L 139.154 92.252049 
L 139.260515 92.563378 
L 139.371125 92.874707 
L 139.480797 93.186036 
L 139.584689 93.497365 
L 139.678371 93.808694 
L 139.758043 94.120023 
L 139.820721 94.431352 
L 139.864414 94.742681 
L 139.888238 95.05401 
L 139.892499 95.365339 
L 139.878702 95.676668 
L 139.849491 95.987997 
L 139.808521 96.299326 
L 139.760241 96.610655 
L 139.709615 96.921984 
L 139.661777 97.233313 
L 139.621637 97.544642 
L 139.593481 97.855971 
L 139.580563 98.1673 
L 139.584753 98.478629 
L 139.60626 98.789958 
L 139.643464 99.101287 
L 139.692883 99.412616 
L 139.749296 99.723945 
L 139.806022 100.035274 
L 139.855335 100.346603 
L 139.889003 100.657932 
L 139.89889 100.969261 
L 139.877587 101.28059 
L 139.819003 101.591919 
L 139.718858 101.903248 
L 139.575044 102.214577 
z
" clip-path="url(#p0a3ef8414b)" style="fill: #ff0000; fill-opacity: 0.3"/>
   </g>
   <g id="PolyCollection_6">
    <path d="M 155.541163 102.210361 
L 147.619482 102.210361 
L 147.453509 101.883046 
L 147.311182 101.55573 
L 147.191155 101.228414 
L 147.091081 100.901099 
L 147.007914 100.573783 
L 146.938274 100.246468 
L 146.878833 99.919152 
L 146.826686 99.591836 
L 146.779656 99.264521 
L 146.736505 98.937205 
L 146.69703 98.60989 
L 146.662021 98.282574 
L 146.633096 97.955258 
L 146.612432 97.627943 
L 146.602412 97.300627 
L 146.605238 96.973311 
L 146.622552 96.645996 
L 146.655108 96.31868 
L 146.702533 95.991365 
L 146.763206 95.664049 
L 146.83428 95.336733 
L 146.91183 95.009418 
L 146.991142 94.682102 
L 147.067091 94.354787 
L 147.134586 94.027471 
L 147.189045 93.700155 
L 147.226837 93.37284 
L 147.24566 93.045524 
L 147.244819 92.718208 
L 147.225367 92.390893 
L 147.190101 92.063577 
L 147.143415 91.736262 
L 147.091008 91.408946 
L 147.039492 91.08163 
L 146.995916 90.754315 
L 146.96726 90.426999 
L 146.959939 90.099684 
L 146.979352 89.772368 
L 147.029526 89.445052 
L 147.112865 89.117737 
L 147.230034 88.790421 
L 147.379968 88.463105 
L 147.560005 88.13579 
L 147.766127 87.808474 
L 147.993265 87.481159 
L 148.235657 87.153843 
L 148.487221 86.826527 
L 148.741901 86.499212 
L 148.993982 86.171896 
L 149.238344 85.844581 
L 149.470645 85.517265 
L 149.687437 85.189949 
L 149.886213 84.862634 
L 150.065388 84.535318 
L 150.224245 84.208002 
L 150.362827 83.880687 
L 150.481823 83.553371 
L 150.582425 83.226056 
L 150.666197 82.89874 
L 150.734941 82.571424 
L 150.790577 82.244109 
L 150.835039 81.916793 
L 150.870183 81.589478 
L 150.897724 81.262162 
L 150.919179 80.934846 
L 150.935838 80.607531 
L 150.948741 80.280215 
L 150.958675 79.952899 
L 150.96618 79.625584 
L 150.971566 79.298268 
L 150.974939 78.970953 
L 150.976232 78.643637 
L 150.975242 78.316321 
L 150.971675 77.989006 
L 150.965191 77.66169 
L 150.955453 77.334375 
L 150.942175 77.007059 
L 150.925172 76.679743 
L 150.9044 76.352428 
L 150.879993 76.025112 
L 150.852289 75.697796 
L 150.821842 75.370481 
L 150.78942 75.043165 
L 150.755987 74.71585 
L 150.722673 74.388534 
L 150.690727 74.061218 
L 150.661461 73.733903 
L 150.636184 73.406587 
L 150.61614 73.079271 
L 150.602442 72.751956 
L 150.596012 72.42464 
L 150.597531 72.097325 
L 150.607409 71.770009 
L 150.625759 71.442693 
L 150.652399 71.115378 
L 150.686854 70.788062 
L 150.728394 70.460747 
L 150.776063 70.133431 
L 150.828737 69.806115 
L 152.331907 69.806115 
L 152.331907 69.806115 
L 152.384581 70.133431 
L 152.432251 70.460747 
L 152.47379 70.788062 
L 152.508246 71.115378 
L 152.534885 71.442693 
L 152.553236 71.770009 
L 152.563114 72.097325 
L 152.564633 72.42464 
L 152.558202 72.751956 
L 152.544504 73.079271 
L 152.524461 73.406587 
L 152.499184 73.733903 
L 152.469917 74.061218 
L 152.437971 74.388534 
L 152.404657 74.71585 
L 152.371225 75.043165 
L 152.338802 75.370481 
L 152.308355 75.697796 
L 152.280652 76.025112 
L 152.256245 76.352428 
L 152.235473 76.679743 
L 152.218469 77.007059 
L 152.205191 77.334375 
L 152.195453 77.66169 
L 152.188969 77.989006 
L 152.185402 78.316321 
L 152.184412 78.643637 
L 152.185705 78.970953 
L 152.189078 79.298268 
L 152.194464 79.625584 
L 152.201969 79.952899 
L 152.211903 80.280215 
L 152.224806 80.607531 
L 152.241465 80.934846 
L 152.262921 81.262162 
L 152.290462 81.589478 
L 152.325606 81.916793 
L 152.370067 82.244109 
L 152.425703 82.571424 
L 152.494448 82.89874 
L 152.57822 83.226056 
L 152.678822 83.553371 
L 152.797817 83.880687 
L 152.9364 84.208002 
L 153.095256 84.535318 
L 153.274432 84.862634 
L 153.473207 85.189949 
L 153.689999 85.517265 
L 153.9223 85.844581 
L 154.166662 86.171896 
L 154.418743 86.499212 
L 154.673423 86.826527 
L 154.924987 87.153843 
L 155.16738 87.481159 
L 155.394517 87.808474 
L 155.600639 88.13579 
L 155.780677 88.463105 
L 155.93061 88.790421 
L 156.047779 89.117737 
L 156.131118 89.445052 
L 156.181292 89.772368 
L 156.200706 90.099684 
L 156.193384 90.426999 
L 156.164728 90.754315 
L 156.121152 91.08163 
L 156.069636 91.408946 
L 156.017229 91.736262 
L 155.970543 92.063577 
L 155.935277 92.390893 
L 155.915825 92.718208 
L 155.914984 93.045524 
L 155.933808 93.37284 
L 155.971599 93.700155 
L 156.026059 94.027471 
L 156.093554 94.354787 
L 156.169502 94.682102 
L 156.248814 95.009418 
L 156.326365 95.336733 
L 156.397438 95.664049 
L 156.458112 95.991365 
L 156.505536 96.31868 
L 156.538092 96.645996 
L 156.555406 96.973311 
L 156.558232 97.300627 
L 156.548212 97.627943 
L 156.527548 97.955258 
L 156.498624 98.282574 
L 156.463614 98.60989 
L 156.424139 98.937205 
L 156.380988 99.264521 
L 156.333958 99.591836 
L 156.281811 99.919152 
L 156.22237 100.246468 
L 156.15273 100.573783 
L 156.069563 100.901099 
L 155.96949 101.228414 
L 155.849463 101.55573 
L 155.707135 101.883046 
L 155.541163 102.210361 
z
" clip-path="url(#p0a3ef8414b)" style="fill: #ff0000; fill-opacity: 0.3"/>
   </g>
   <g id="PolyCollection_7">
    <path d="M 167.228904 102.212662 
L 159.54339 102.212662 
L 159.359312 101.829706 
L 159.198837 101.44675 
L 159.061021 101.063794 
L 158.943858 100.680838 
L 158.8446 100.297882 
L 158.760156 99.914926 
L 158.687498 99.53197 
L 158.624056 99.149014 
L 158.568039 98.766058 
L 158.518654 98.383102 
L 158.476202 98.000146 
L 158.442039 97.61719 
L 158.41842 97.234234 
L 158.408237 96.851278 
L 158.414691 96.468322 
L 158.44093 96.085366 
L 158.489694 95.70241 
L 158.562991 95.319454 
L 158.661849 94.936497 
L 158.78614 94.553541 
L 158.9345 94.170585 
L 159.104338 93.787629 
L 159.291917 93.404673 
L 159.492514 93.021717 
L 159.700612 92.638761 
L 159.91014 92.255805 
L 160.114718 91.872849 
L 160.307908 91.489893 
L 160.483464 91.106937 
L 160.635564 90.723981 
L 160.759029 90.341025 
L 160.849533 89.958069 
L 160.90378 89.575113 
L 160.919676 89.192157 
L 160.896461 88.809201 
L 160.834819 88.426245 
L 160.736934 88.043289 
L 160.606506 87.660333 
L 160.44869 87.277377 
L 160.269969 86.894421 
L 160.07795 86.511464 
L 159.881085 86.128508 
L 159.688319 85.745552 
L 159.508691 85.362596 
L 159.350903 84.97964 
L 159.222888 84.596684 
L 159.131401 84.213728 
L 159.081677 83.830772 
L 159.077168 83.447816 
L 159.119386 83.06486 
L 159.207867 82.681904 
L 159.340247 82.298948 
L 159.512454 81.915992 
L 159.71899 81.533036 
L 159.953277 81.15008 
L 160.208047 80.767124 
L 160.475736 80.384168 
L 160.748862 80.001212 
L 161.020358 79.618256 
L 161.283852 79.2353 
L 161.533866 78.852344 
L 161.765962 78.469388 
L 161.976797 78.086431 
L 162.164133 77.703475 
L 162.326788 77.320519 
L 162.46455 76.937563 
L 162.578059 76.554607 
L 162.668678 76.171651 
L 162.738353 75.788695 
L 162.789466 75.405739 
L 162.824698 75.022783 
L 162.846894 74.639827 
L 162.858936 74.256871 
L 162.863625 73.873915 
L 162.863577 73.490959 
L 162.861131 73.108003 
L 162.858269 72.725047 
L 162.85656 72.342091 
L 162.857126 71.959135 
L 162.860623 71.576179 
L 162.867262 71.193223 
L 162.876841 70.810267 
L 162.888817 70.427311 
L 162.902386 70.044354 
L 162.916581 69.661398 
L 162.930386 69.278442 
L 162.942839 68.895486 
L 162.953134 68.51253 
L 162.960698 68.129574 
L 162.965256 67.746618 
L 162.966851 67.363662 
L 162.965848 66.980706 
L 162.962899 66.59775 
L 162.958887 66.214794 
L 162.954842 65.831838 
L 162.951852 65.448882 
L 162.950966 65.065926 
L 162.953107 64.68297 
L 162.958993 64.300014 
L 163.8133 64.300014 
L 163.8133 64.300014 
L 163.819187 64.68297 
L 163.821327 65.065926 
L 163.820441 65.448882 
L 163.817451 65.831838 
L 163.813406 66.214794 
L 163.809394 66.59775 
L 163.806446 66.980706 
L 163.805443 67.363662 
L 163.807038 67.746618 
L 163.811595 68.129574 
L 163.81916 68.51253 
L 163.829455 68.895486 
L 163.841908 69.278442 
L 163.855713 69.661398 
L 163.869908 70.044354 
L 163.883476 70.427311 
L 163.895452 70.810267 
L 163.905032 71.193223 
L 163.91167 71.576179 
L 163.915167 71.959135 
L 163.915733 72.342091 
L 163.914025 72.725047 
L 163.911163 73.108003 
L 163.908717 73.490959 
L 163.908669 73.873915 
L 163.913358 74.256871 
L 163.925399 74.639827 
L 163.947595 75.022783 
L 163.982827 75.405739 
L 164.03394 75.788695 
L 164.103615 76.171651 
L 164.194235 76.554607 
L 164.307744 76.937563 
L 164.445505 77.320519 
L 164.60816 77.703475 
L 164.795496 78.086431 
L 165.006331 78.469388 
L 165.238427 78.852344 
L 165.488442 79.2353 
L 165.751935 79.618256 
L 166.023431 80.001212 
L 166.296557 80.384168 
L 166.564246 80.767124 
L 166.819016 81.15008 
L 167.053303 81.533036 
L 167.259839 81.915992 
L 167.432046 82.298948 
L 167.564426 82.681904 
L 167.652907 83.06486 
L 167.695126 83.447816 
L 167.690617 83.830772 
L 167.640893 84.213728 
L 167.549406 84.596684 
L 167.42139 84.97964 
L 167.263602 85.362596 
L 167.083975 85.745552 
L 166.891209 86.128508 
L 166.694344 86.511464 
L 166.502325 86.894421 
L 166.323603 87.277377 
L 166.165787 87.660333 
L 166.035359 88.043289 
L 165.937475 88.426245 
L 165.875832 88.809201 
L 165.852617 89.192157 
L 165.868513 89.575113 
L 165.922761 89.958069 
L 166.013264 90.341025 
L 166.13673 90.723981 
L 166.288829 91.106937 
L 166.464385 91.489893 
L 166.657576 91.872849 
L 166.862154 92.255805 
L 167.071682 92.638761 
L 167.27978 93.021717 
L 167.480376 93.404673 
L 167.667956 93.787629 
L 167.837793 94.170585 
L 167.986153 94.553541 
L 168.110444 94.936497 
L 168.209302 95.319454 
L 168.282599 95.70241 
L 168.331363 96.085366 
L 168.357603 96.468322 
L 168.364057 96.851278 
L 168.353873 97.234234 
L 168.330254 97.61719 
L 168.296091 98.000146 
L 168.253639 98.383102 
L 168.204255 98.766058 
L 168.148238 99.149014 
L 168.084796 99.53197 
L 168.012138 99.914926 
L 167.927693 100.297882 
L 167.828436 100.680838 
L 167.711272 101.063794 
L 167.573456 101.44675 
L 167.412982 101.829706 
L 167.228904 102.212662 
z
" clip-path="url(#p0a3ef8414b)" style="fill: #ff0000; fill-opacity: 0.3"/>
   </g>
   <g id="PolyCollection_8">
    <path d="M 184.293489 102.214915 
L 175.757554 102.214915 
L 175.531235 101.822011 
L 175.346498 101.429107 
L 175.205984 101.036203 
L 175.110384 100.643299 
L 175.058533 100.250395 
L 175.047612 99.857491 
L 175.073422 99.464587 
L 175.130705 99.071683 
L 175.213452 98.67878 
L 175.315186 98.285876 
L 175.429192 97.892972 
L 175.54871 97.500068 
L 175.667086 97.107164 
L 175.77792 96.71426 
L 175.875219 96.321356 
L 175.953585 95.928452 
L 176.00844 95.535548 
L 176.036284 95.142644 
L 176.034971 94.74974 
L 176.003963 94.356836 
L 175.944531 93.963932 
L 175.859858 93.571028 
L 175.755015 93.178124 
L 175.636786 92.78522 
L 175.513327 92.392316 
L 175.393701 91.999412 
L 175.287291 91.606509 
L 175.203165 91.213605 
L 175.149434 90.820701 
L 175.13268 90.427797 
L 175.157495 90.034893 
L 175.226181 89.641989 
L 175.338641 89.249085 
L 175.492448 88.856181 
L 175.683111 88.463277 
L 175.904469 88.070373 
L 176.149198 87.677469 
L 176.409363 87.284565 
L 176.676976 86.891661 
L 176.944499 86.498757 
L 177.205261 86.105853 
L 177.453762 85.712949 
L 177.68585 85.320045 
L 177.898763 84.927141 
L 178.091063 84.534238 
L 178.262468 84.141334 
L 178.413615 83.74843 
L 178.545793 83.355526 
L 178.660665 82.962622 
L 178.760018 82.569718 
L 178.845554 82.176814 
L 178.918744 81.78391 
L 178.980752 81.391006 
L 179.032419 80.998102 
L 179.074307 80.605198 
L 179.106786 80.212294 
L 179.130144 79.81939 
L 179.144711 79.426486 
L 179.15096 79.033582 
L 179.1496 78.640678 
L 179.14163 78.247774 
L 179.128352 77.85487 
L 179.111351 77.461967 
L 179.092443 77.069063 
L 179.073585 76.676159 
L 179.056778 76.283255 
L 179.043954 75.890351 
L 179.036862 75.497447 
L 179.036968 75.104543 
L 179.045373 74.711639 
L 179.062749 74.318735 
L 179.089307 73.925831 
L 179.124789 73.532927 
L 179.168496 73.140023 
L 179.21933 72.747119 
L 179.275862 72.354215 
L 179.336419 71.961311 
L 179.399173 71.568407 
L 179.462237 71.175503 
L 179.523755 70.782599 
L 179.581988 70.389696 
L 179.635385 69.996792 
L 179.682645 69.603888 
L 179.722758 69.210984 
L 179.755036 68.81808 
L 179.77913 68.425176 
L 179.795035 68.032272 
L 179.803078 67.639368 
L 179.803902 67.246464 
L 179.798435 66.85356 
L 179.787849 66.460656 
L 179.773505 66.067752 
L 179.756893 65.674848 
L 179.739553 65.281944 
L 179.723 64.88904 
L 179.708641 64.496136 
L 179.697695 64.103232 
L 179.691125 63.710328 
L 179.689588 63.317425 
L 180.361456 63.317425 
L 180.361456 63.317425 
L 180.359919 63.710328 
L 180.353349 64.103232 
L 180.342402 64.496136 
L 180.328043 64.88904 
L 180.311491 65.281944 
L 180.294151 65.674848 
L 180.277538 66.067752 
L 180.263195 66.460656 
L 180.252609 66.85356 
L 180.247142 67.246464 
L 180.247966 67.639368 
L 180.256009 68.032272 
L 180.271914 68.425176 
L 180.296008 68.81808 
L 180.328286 69.210984 
L 180.368398 69.603888 
L 180.415658 69.996792 
L 180.469056 70.389696 
L 180.527288 70.782599 
L 180.588806 71.175503 
L 180.65187 71.568407 
L 180.714625 71.961311 
L 180.775182 72.354215 
L 180.831714 72.747119 
L 180.882547 73.140023 
L 180.926254 73.532927 
L 180.961737 73.925831 
L 180.988294 74.318735 
L 181.00567 74.711639 
L 181.014075 75.104543 
L 181.014182 75.497447 
L 181.00709 75.890351 
L 180.994265 76.283255 
L 180.977459 76.676159 
L 180.958601 77.069063 
L 180.939692 77.461967 
L 180.922692 77.85487 
L 180.909413 78.247774 
L 180.901443 78.640678 
L 180.900084 79.033582 
L 180.906333 79.426486 
L 180.920899 79.81939 
L 180.944258 80.212294 
L 180.976737 80.605198 
L 181.018625 80.998102 
L 181.070291 81.391006 
L 181.132299 81.78391 
L 181.20549 82.176814 
L 181.291026 82.569718 
L 181.390379 82.962622 
L 181.505251 83.355526 
L 181.637429 83.74843 
L 181.788576 84.141334 
L 181.95998 84.534238 
L 182.152281 84.927141 
L 182.365194 85.320045 
L 182.597281 85.712949 
L 182.845783 86.105853 
L 183.106545 86.498757 
L 183.374068 86.891661 
L 183.641681 87.284565 
L 183.901846 87.677469 
L 184.146574 88.070373 
L 184.367932 88.463277 
L 184.558595 88.856181 
L 184.712403 89.249085 
L 184.824862 89.641989 
L 184.893549 90.034893 
L 184.918364 90.427797 
L 184.90161 90.820701 
L 184.847879 91.213605 
L 184.763752 91.606509 
L 184.657343 91.999412 
L 184.537717 92.392316 
L 184.414258 92.78522 
L 184.296028 93.178124 
L 184.191186 93.571028 
L 184.106513 93.963932 
L 184.04708 94.356836 
L 184.016072 94.74974 
L 184.01476 95.142644 
L 184.042604 95.535548 
L 184.097459 95.928452 
L 184.175825 96.321356 
L 184.273124 96.71426 
L 184.383958 97.107164 
L 184.502334 97.500068 
L 184.621852 97.892972 
L 184.735858 98.285876 
L 184.837592 98.67878 
L 184.920339 99.071683 
L 184.977622 99.464587 
L 185.003432 99.857491 
L 184.99251 100.250395 
L 184.94066 100.643299 
L 184.84506 101.036203 
L 184.704545 101.429107 
L 184.519809 101.822011 
L 184.293489 102.214915 
z
" clip-path="url(#p0a3ef8414b)" style="fill: #ff0000; fill-opacity: 0.3"/>
   </g>
   <g id="PolyCollection_9">
    <path d="M 196.14767 102.227132 
L 187.515023 102.227132 
L 187.233673 101.355304 
L 187.028736 100.483475 
L 186.903055 99.611647 
L 186.853436 98.739818 
L 186.871464 97.86799 
L 186.94478 96.996162 
L 187.058582 96.124333 
L 187.197109 95.252505 
L 187.344962 94.380676 
L 187.488235 93.508848 
L 187.615438 92.637019 
L 187.718258 91.765191 
L 187.792149 90.893363 
L 187.836681 90.021534 
L 187.855542 89.149706 
L 187.856087 88.277877 
L 187.848375 87.406049 
L 187.843766 86.53422 
L 187.853261 85.662392 
L 187.885882 84.790564 
L 187.947406 83.918735 
L 188.039705 83.046907 
L 188.160847 82.175078 
L 188.305869 81.30325 
L 188.468049 80.431421 
L 188.640354 79.559593 
L 188.816744 78.687765 
L 188.993074 77.815936 
L 189.167451 76.944108 
L 189.340062 76.072279 
L 189.512552 75.200451 
L 189.687179 74.328622 
L 189.865925 73.456794 
L 190.049766 72.584966 
L 190.238218 71.713137 
L 190.429232 70.841309 
L 190.619403 69.96948 
L 190.804438 69.097652 
L 190.979764 68.225823 
L 191.141138 67.353995 
L 191.285163 66.482167 
L 191.409627 65.610338 
L 191.513613 64.73851 
L 191.597414 63.866681 
L 191.662287 62.994853 
L 191.710113 62.123025 
L 191.743053 61.251196 
L 191.763239 60.379368 
L 191.772573 59.507539 
L 191.772621 58.635711 
L 191.764631 57.763882 
L 191.749633 56.892054 
L 191.728592 56.020226 
L 191.702568 55.148397 
L 191.67285 54.276569 
L 191.641008 53.40474 
L 191.608859 52.532912 
L 191.578328 51.661083 
L 191.551241 50.789255 
L 191.529082 49.917427 
L 191.512771 49.045598 
L 191.502533 48.17377 
L 191.497882 47.301941 
L 191.497751 46.430113 
L 191.500732 45.558284 
L 191.505395 44.686456 
L 191.510591 43.814628 
L 191.51569 42.942799 
L 191.520683 42.070971 
L 191.526139 41.199142 
L 191.533023 40.327314 
L 191.542431 39.455485 
L 191.555297 38.583657 
L 191.572158 37.711829 
L 191.593008 36.84 
L 191.617279 35.968172 
L 191.643938 35.096343 
L 191.671659 34.224515 
L 191.699035 33.352686 
L 191.724773 32.480858 
L 191.74784 31.60903 
L 191.767539 30.737201 
L 191.78351 29.865373 
L 191.795687 28.993544 
L 191.80421 28.121716 
L 191.809338 27.249888 
L 191.811375 26.378059 
L 191.810622 25.506231 
L 191.807367 24.634402 
L 191.801898 23.762574 
L 191.794538 22.890745 
L 191.785688 22.018917 
L 191.775857 21.147089 
L 191.765672 20.27526 
L 191.755853 19.403432 
L 191.747163 18.531603 
L 191.740331 17.659775 
L 191.735964 16.787946 
L 191.734464 15.916118 
L 191.928229 15.916118 
L 191.928229 15.916118 
L 191.926729 16.787946 
L 191.922361 17.659775 
L 191.91553 18.531603 
L 191.90684 19.403432 
L 191.897021 20.27526 
L 191.886835 21.147089 
L 191.877005 22.018917 
L 191.868155 22.890745 
L 191.860795 23.762574 
L 191.855325 24.634402 
L 191.852071 25.506231 
L 191.851318 26.378059 
L 191.853355 27.249888 
L 191.858483 28.121716 
L 191.867006 28.993544 
L 191.879183 29.865373 
L 191.895154 30.737201 
L 191.914852 31.60903 
L 191.937919 32.480858 
L 191.963658 33.352686 
L 191.991033 34.224515 
L 192.018754 35.096343 
L 192.045413 35.968172 
L 192.069685 36.84 
L 192.090535 37.711829 
L 192.107395 38.583657 
L 192.120262 39.455485 
L 192.12967 40.327314 
L 192.136554 41.199142 
L 192.14201 42.070971 
L 192.147003 42.942799 
L 192.152101 43.814628 
L 192.157298 44.686456 
L 192.161961 45.558284 
L 192.164942 46.430113 
L 192.16481 47.301941 
L 192.160159 48.17377 
L 192.149921 49.045598 
L 192.133611 49.917427 
L 192.111451 50.789255 
L 192.084365 51.661083 
L 192.053834 52.532912 
L 192.021685 53.40474 
L 191.989843 54.276569 
L 191.960125 55.148397 
L 191.934101 56.020226 
L 191.91306 56.892054 
L 191.898062 57.763882 
L 191.890072 58.635711 
L 191.89012 59.507539 
L 191.899453 60.379368 
L 191.91964 61.251196 
L 191.95258 62.123025 
L 192.000406 62.994853 
L 192.065279 63.866681 
L 192.14908 64.73851 
L 192.253066 65.610338 
L 192.37753 66.482167 
L 192.521555 67.353995 
L 192.682928 68.225823 
L 192.858254 69.097652 
L 193.04329 69.96948 
L 193.233461 70.841309 
L 193.424475 71.713137 
L 193.612927 72.584966 
L 193.796768 73.456794 
L 193.975514 74.328622 
L 194.150141 75.200451 
L 194.322631 76.072279 
L 194.495241 76.944108 
L 194.669619 77.815936 
L 194.845948 78.687765 
L 195.022339 79.559593 
L 195.194644 80.431421 
L 195.356824 81.30325 
L 195.501845 82.175078 
L 195.622987 83.046907 
L 195.715287 83.918735 
L 195.77681 84.790564 
L 195.809432 85.662392 
L 195.818927 86.53422 
L 195.814318 87.406049 
L 195.806605 88.277877 
L 195.80715 89.149706 
L 195.826012 90.021534 
L 195.870544 90.893363 
L 195.944435 91.765191 
L 196.047255 92.637019 
L 196.174457 93.508848 
L 196.317731 94.380676 
L 196.465584 95.252505 
L 196.60411 96.124333 
L 196.717913 96.996162 
L 196.791229 97.86799 
L 196.809256 98.739818 
L 196.759638 99.611647 
L 196.633957 100.483475 
L 196.429019 101.355304 
L 196.14767 102.227132 
z
" clip-path="url(#p0a3ef8414b)" style="fill: #ff0000; fill-opacity: 0.3"/>
   </g>
   <g id="matplotlib.axis_1">
    <g id="xtick_1">
     <g id="line2d_1">
      <defs>
       <path id="m5c18e9f825" d="M 0 0 
L 0 3.5 
" style="stroke: #000000; stroke-width: 0.8"/>
      </defs>
      <g>
       <use xlink:href="#m5c18e9f825" x="49.605348" y="102.33" style="stroke: #000000; stroke-width: 0.8"/>
      </g>
     </g>
     <g id="text_1">
      <!-- $\mathrm{1}$ -->
      <g transform="translate(47.11468 116.248498)scale(0.1 -0.1)">
       <defs>
        <path id="CMR17-31" d="M 1702 4083 
C 1702 4217 1696 4224 1606 4224 
C 1357 3927 979 3833 621 3820 
C 602 3820 570 3820 563 3808 
C 557 3795 557 3782 557 3648 
C 755 3648 1088 3686 1344 3839 
L 1344 467 
C 1344 243 1331 166 781 166 
L 589 166 
L 589 0 
C 896 6 1216 12 1523 12 
C 1830 12 2150 6 2458 0 
L 2458 166 
L 2266 166 
C 1715 166 1702 236 1702 467 
L 1702 4083 
z
" transform="scale(0.015625)"/>
       </defs>
       <use xlink:href="#CMR17-31" transform="scale(0.996264)"/>
      </g>
     </g>
    </g>
    <g id="xtick_2">
     <g id="line2d_2">
      <g>
       <use xlink:href="#m5c18e9f825" x="78.050548" y="102.33" style="stroke: #000000; stroke-width: 0.8"/>
      </g>
     </g>
     <g id="text_2">
      <!-- $\mathrm{2}$ -->
      <g transform="translate(75.55988 116.248498)scale(0.1 -0.1)">
       <defs>
        <path id="CMR17-32" d="M 2669 990 
L 2554 990 
C 2490 537 2438 460 2413 422 
C 2381 371 1920 371 1830 371 
L 602 371 
C 832 620 1280 1073 1824 1596 
C 2214 1966 2669 2400 2669 3033 
C 2669 3788 2067 4224 1395 4224 
C 691 4224 262 3603 262 3027 
C 262 2777 448 2745 525 2745 
C 589 2745 781 2783 781 3007 
C 781 3206 614 3264 525 3264 
C 486 3264 448 3257 422 3244 
C 544 3788 915 4057 1306 4057 
C 1862 4057 2227 3616 2227 3033 
C 2227 2477 1901 1998 1536 1583 
L 262 147 
L 262 0 
L 2515 0 
L 2669 990 
z
" transform="scale(0.015625)"/>
       </defs>
       <use xlink:href="#CMR17-32" transform="scale(0.996264)"/>
      </g>
     </g>
    </g>
    <g id="xtick_3">
     <g id="line2d_3">
      <g>
       <use xlink:href="#m5c18e9f825" x="106.495747" y="102.33" style="stroke: #000000; stroke-width: 0.8"/>
      </g>
     </g>
     <g id="text_3">
      <!-- $\mathrm{4}$ -->
      <g transform="translate(104.00508 116.248498)scale(0.1 -0.1)">
       <defs>
        <path id="CMR17-34" d="M 2150 4147 
C 2150 4281 2144 4288 2029 4288 
L 128 1254 
L 128 1088 
L 1779 1088 
L 1779 460 
C 1779 230 1766 166 1318 166 
L 1197 166 
L 1197 0 
C 1402 12 1747 12 1965 12 
C 2182 12 2528 12 2733 0 
L 2733 166 
L 2611 166 
C 2163 166 2150 230 2150 460 
L 2150 1088 
L 2803 1088 
L 2803 1254 
L 2150 1254 
L 2150 4147 
z
M 1798 3723 
L 1798 1254 
L 256 1254 
L 1798 3723 
z
" transform="scale(0.015625)"/>
       </defs>
       <use xlink:href="#CMR17-34" transform="scale(0.996264)"/>
      </g>
     </g>
    </g>
    <g id="xtick_4">
     <g id="line2d_4">
      <g>
       <use xlink:href="#m5c18e9f825" x="123.135123" y="102.33" style="stroke: #000000; stroke-width: 0.8"/>
      </g>
     </g>
     <g id="text_4">
      <!-- $\mathrm{}$ -->
      <g transform="translate(123.135123 116.248498)scale(0.1 -0.1)"/>
     </g>
    </g>
    <g id="xtick_5">
     <g id="line2d_5">
      <g>
       <use xlink:href="#m5c18e9f825" x="134.940947" y="102.33" style="stroke: #000000; stroke-width: 0.8"/>
      </g>
     </g>
     <g id="text_5">
      <!-- $\mathrm{8}$ -->
      <g transform="translate(132.450279 116.248498)scale(0.1 -0.1)">
       <defs>
        <path id="CMR17-38" d="M 1741 2289 
C 2144 2494 2554 2803 2554 3298 
C 2554 3884 1990 4224 1472 4224 
C 890 4224 378 3800 378 3215 
C 378 3054 416 2777 666 2533 
C 730 2469 998 2276 1171 2154 
C 883 2006 211 1652 211 945 
C 211 282 838 -128 1459 -128 
C 2144 -128 2720 366 2720 1022 
C 2720 1607 2330 1877 2074 2051 
L 1741 2289 
z
M 902 2855 
C 851 2887 595 3086 595 3388 
C 595 3781 998 4076 1459 4076 
C 1965 4076 2336 3716 2336 3298 
C 2336 2700 1670 2359 1638 2359 
C 1632 2359 1626 2359 1574 2398 
L 902 2855 
z
M 2080 1536 
C 2176 1466 2483 1253 2483 861 
C 2483 385 2010 25 1472 25 
C 890 25 448 443 448 951 
C 448 1459 838 1884 1280 2083 
L 2080 1536 
z
" transform="scale(0.015625)"/>
       </defs>
       <use xlink:href="#CMR17-38" transform="scale(0.996264)"/>
      </g>
     </g>
    </g>
    <g id="xtick_6">
     <g id="line2d_6">
      <g>
       <use xlink:href="#m5c18e9f825" x="151.580322" y="102.33" style="stroke: #000000; stroke-width: 0.8"/>
      </g>
     </g>
     <g id="text_6">
      <!-- $\mathrm{}$ -->
      <g transform="translate(151.580322 116.248498)scale(0.1 -0.1)"/>
     </g>
    </g>
    <g id="xtick_7">
     <g id="line2d_7">
      <g>
       <use xlink:href="#m5c18e9f825" x="163.386147" y="102.33" style="stroke: #000000; stroke-width: 0.8"/>
      </g>
     </g>
     <g id="text_7">
      <!-- $\mathrm{16}$ -->
      <g transform="translate(158.404811 116.248498)scale(0.1 -0.1)">
       <defs>
        <path id="CMR17-36" d="M 678 2198 
C 678 3712 1395 4076 1811 4076 
C 1946 4076 2272 4049 2400 3782 
C 2298 3782 2106 3782 2106 3558 
C 2106 3385 2246 3328 2336 3328 
C 2394 3328 2566 3353 2566 3571 
C 2566 3987 2246 4224 1805 4224 
C 1043 4224 243 3411 243 2011 
C 243 257 966 -128 1478 -128 
C 2099 -128 2688 431 2688 1295 
C 2688 2101 2170 2688 1517 2688 
C 1126 2688 838 2430 678 1979 
L 678 2198 
z
M 1478 25 
C 691 25 691 1212 691 1450 
C 691 1914 909 2585 1504 2585 
C 1613 2585 1926 2585 2138 2140 
C 2253 1889 2253 1624 2253 1302 
C 2253 954 2253 696 2118 438 
C 1978 173 1773 25 1478 25 
z
" transform="scale(0.015625)"/>
       </defs>
       <use xlink:href="#CMR17-31" transform="scale(0.996264)"/>
       <use xlink:href="#CMR17-36" transform="translate(45.690477 0)scale(0.996264)"/>
      </g>
     </g>
    </g>
    <g id="xtick_8">
     <g id="line2d_8">
      <g>
       <use xlink:href="#m5c18e9f825" x="180.025522" y="102.33" style="stroke: #000000; stroke-width: 0.8"/>
      </g>
     </g>
     <g id="text_8">
      <!-- $\mathrm{}$ -->
      <g transform="translate(180.025522 116.248498)scale(0.1 -0.1)"/>
     </g>
    </g>
    <g id="xtick_9">
     <g id="line2d_9">
      <g>
       <use xlink:href="#m5c18e9f825" x="191.831346" y="102.33" style="stroke: #000000; stroke-width: 0.8"/>
      </g>
     </g>
     <g id="text_9">
      <!-- $\mathrm{32}$ -->
      <g transform="translate(186.850011 116.248498)scale(0.1 -0.1)">
       <defs>
        <path id="CMR17-33" d="M 1414 2176 
C 1984 2176 2234 1673 2234 1094 
C 2234 322 1824 25 1453 25 
C 1114 25 563 193 390 691 
C 422 678 454 678 486 678 
C 640 678 755 780 755 947 
C 755 1132 614 1216 486 1216 
C 378 1216 211 1164 211 927 
C 211 335 787 -128 1466 -128 
C 2176 -128 2720 432 2720 1087 
C 2720 1718 2208 2176 1600 2246 
C 2086 2347 2554 2776 2554 3353 
C 2554 3856 2048 4224 1472 4224 
C 890 4224 378 3862 378 3347 
C 378 3123 544 3084 627 3084 
C 762 3084 877 3167 877 3334 
C 877 3500 762 3584 627 3584 
C 602 3584 570 3584 544 3571 
C 730 3999 1235 4076 1459 4076 
C 1683 4076 2106 3966 2106 3347 
C 2106 3167 2080 2851 1862 2574 
C 1670 2329 1453 2316 1242 2297 
C 1210 2297 1062 2284 1037 2284 
C 992 2278 966 2272 966 2227 
C 966 2182 973 2176 1101 2176 
L 1414 2176 
z
" transform="scale(0.015625)"/>
       </defs>
       <use xlink:href="#CMR17-33" transform="scale(0.996264)"/>
       <use xlink:href="#CMR17-32" transform="translate(45.690477 0)scale(0.996264)"/>
      </g>
     </g>
    </g>
    <g id="text_10">
     <!-- $\mathrm{Number\: of\: threads}$ -->
     <g transform="translate(80.424966 129.104175)scale(0.1 -0.1)">
      <defs>
       <path id="CMR17-4e" d="M 1312 4275 
C 1267 4345 1261 4352 1139 4352 
L 326 4352 
L 326 4185 
L 448 4185 
C 704 4185 819 4153 838 4147 
L 838 624 
C 838 465 838 166 326 166 
L 326 0 
C 474 12 742 12 902 12 
C 1062 12 1331 12 1478 0 
L 1478 166 
C 966 166 966 465 966 624 
L 966 4057 
C 1011 4019 1011 4007 1056 3943 
L 3430 76 
C 3475 0 3494 0 3526 0 
C 3590 0 3590 19 3590 140 
L 3590 3726 
C 3590 3885 3590 4185 4102 4185 
L 4102 4352 
C 3955 4339 3686 4339 3526 4339 
C 3366 4339 3098 4339 2950 4352 
L 2950 4185 
C 3462 4185 3462 3885 3462 3726 
L 3462 777 
L 1312 4275 
z
" transform="scale(0.015625)"/>
       <path id="CMR17-75" d="M 1882 2745 
L 1882 2579 
C 2259 2579 2317 2540 2317 2229 
L 2317 1053 
C 2317 510 2029 38 1555 38 
C 1030 38 986 355 986 691 
L 986 2816 
L 211 2745 
L 211 2579 
C 467 2579 640 2579 646 2320 
L 646 1079 
C 646 646 646 368 813 187 
C 896 103 1056 -64 1517 -64 
C 2061 -64 2272 400 2323 536 
L 2330 536 
L 2330 -64 
L 3091 -13 
L 3091 154 
C 2714 154 2656 193 2656 503 
L 2656 2816 
L 1882 2745 
z
" transform="scale(0.015625)"/>
       <path id="CMR17-6d" d="M 4326 1954 
C 4326 2276 4269 2816 3507 2816 
C 3072 2816 2771 2520 2656 2173 
L 2650 2173 
C 2573 2700 2195 2816 1837 2816 
C 1331 2816 1069 2424 973 2166 
L 966 2166 
L 966 2816 
L 211 2745 
L 211 2578 
C 589 2578 646 2540 646 2231 
L 646 443 
C 646 198 621 166 211 166 
L 211 0 
C 365 12 646 12 813 12 
C 979 12 1267 12 1421 0 
L 1421 166 
C 1011 166 986 192 986 443 
L 986 1678 
C 986 2269 1344 2713 1792 2713 
C 2266 2713 2317 2289 2317 1980 
L 2317 443 
C 2317 198 2291 166 1882 166 
L 1882 0 
C 2035 12 2317 12 2483 12 
C 2650 12 2938 12 3091 0 
L 3091 166 
C 2682 166 2656 192 2656 443 
L 2656 1678 
C 2656 2269 3014 2713 3462 2713 
C 3936 2713 3987 2289 3987 1980 
L 3987 443 
C 3987 198 3962 166 3552 166 
L 3552 0 
C 3706 12 3987 12 4154 12 
C 4320 12 4608 12 4762 0 
L 4762 166 
C 4352 166 4326 192 4326 443 
L 4326 1954 
z
" transform="scale(0.015625)"/>
       <path id="CMR17-62" d="M 960 4416 
L 198 4345 
L 198 4179 
C 576 4179 634 4141 634 3843 
L 634 -13 
L 749 -13 
L 934 445 
C 1120 141 1395 -64 1766 -64 
C 2406 -64 3053 503 3053 1382 
C 3053 2209 2477 2816 1830 2816 
C 1434 2816 1152 2603 960 2351 
L 960 4416 
z
M 973 2022 
C 973 2138 973 2157 1062 2293 
C 1312 2681 1670 2713 1792 2713 
C 1984 2713 2643 2610 2643 1388 
C 2643 109 1888 38 1734 38 
C 1536 38 1248 115 1043 490 
C 973 613 973 626 973 742 
L 973 2022 
z
" transform="scale(0.015625)"/>
       <path id="CMR17-65" d="M 2438 1503 
C 2464 1529 2464 1542 2464 1606 
C 2464 2251 2118 2816 1389 2816 
C 710 2816 173 2175 173 1394 
C 173 554 781 -64 1459 -64 
C 2176 -64 2458 619 2458 755 
C 2458 800 2419 800 2406 800 
C 2362 800 2355 787 2330 709 
C 2189 270 1837 51 1504 51 
C 1229 51 954 206 781 490 
C 582 819 582 1200 582 1503 
L 2438 1503 
z
M 589 1600 
C 634 2511 1126 2713 1382 2713 
C 1818 2713 2112 2308 2118 1600 
L 589 1600 
z
" transform="scale(0.015625)"/>
       <path id="CMR17-72" d="M 960 1517 
C 960 2134 1222 2713 1702 2713 
C 1747 2713 1792 2707 1837 2687 
C 1837 2687 1696 2642 1696 2475 
C 1696 2321 1818 2257 1914 2257 
C 1990 2257 2131 2302 2131 2482 
C 2131 2687 1926 2816 1709 2816 
C 1222 2816 1011 2340 947 2115 
L 941 2115 
L 941 2816 
L 198 2745 
L 198 2578 
C 576 2578 634 2540 634 2231 
L 634 443 
C 634 198 608 166 198 166 
L 198 0 
C 352 12 646 12 813 12 
C 998 12 1325 12 1498 0 
L 1498 166 
C 1037 166 960 166 960 455 
L 960 1517 
z
" transform="scale(0.015625)"/>
       <path id="CMR17-6f" d="M 2758 1356 
C 2758 2176 2163 2816 1466 2816 
C 768 2816 173 2176 173 1356 
C 173 550 768 -64 1466 -64 
C 2163 -64 2758 550 2758 1356 
z
M 1466 51 
C 1165 51 909 230 762 480 
C 602 768 582 1126 582 1408 
C 582 1676 595 2009 762 2297 
C 890 2508 1139 2713 1466 2713 
C 1754 2713 1997 2553 2150 2329 
C 2349 2028 2349 1606 2349 1408 
C 2349 1158 2336 774 2163 467 
C 1984 172 1709 51 1466 51 
z
" transform="scale(0.015625)"/>
       <path id="CMR17-66" d="M 979 2585 
L 1709 2585 
L 1709 2752 
L 966 2752 
L 966 3539 
C 966 4076 1235 4377 1510 4377 
C 1594 4377 1690 4363 1754 4339 
C 1702 4326 1568 4281 1568 4121 
C 1568 3955 1696 3904 1786 3904 
C 1875 3904 2003 3955 2003 4121 
C 2003 4353 1773 4480 1517 4480 
C 1152 4480 653 4211 653 3526 
L 653 2752 
L 141 2752 
L 141 2585 
L 653 2585 
L 653 441 
C 653 198 627 166 218 166 
L 218 0 
C 371 12 666 12 832 12 
C 1018 12 1344 12 1517 0 
L 1517 166 
C 1056 166 979 166 979 454 
L 979 2585 
z
" transform="scale(0.015625)"/>
       <path id="CMR17-74" d="M 966 2585 
L 1862 2585 
L 1862 2752 
L 966 2752 
L 966 3968 
L 851 3968 
C 838 3292 614 2700 70 2687 
L 70 2585 
L 627 2585 
L 627 778 
C 627 655 627 -64 1370 -64 
C 1747 -64 1965 308 1965 784 
L 1965 1151 
L 1850 1151 
L 1850 790 
C 1850 347 1677 51 1408 51 
C 1222 51 966 179 966 765 
L 966 2585 
z
" transform="scale(0.015625)"/>
       <path id="CMR17-68" d="M 2656 1954 
C 2656 2282 2592 2816 1837 2816 
C 1312 2816 1056 2392 979 2179 
L 973 2179 
L 973 4416 
L 211 4345 
L 211 4179 
C 589 4179 646 4141 646 3843 
L 646 443 
C 646 198 621 166 211 166 
L 211 0 
C 365 12 646 12 813 12 
C 979 12 1267 12 1421 0 
L 1421 166 
C 1011 166 986 192 986 443 
L 986 1678 
C 986 2269 1344 2713 1792 2713 
C 2266 2713 2317 2289 2317 1980 
L 2317 443 
C 2317 198 2291 166 1882 166 
L 1882 0 
C 2035 12 2317 12 2483 12 
C 2650 12 2938 12 3091 0 
L 3091 166 
C 2682 166 2656 192 2656 443 
L 2656 1954 
z
" transform="scale(0.015625)"/>
       <path id="CMR17-61" d="M 2304 1656 
C 2304 2048 2304 2275 2035 2534 
C 1798 2751 1523 2816 1306 2816 
C 800 2816 435 2408 435 1977 
C 435 1740 627 1728 666 1728 
C 749 1728 896 1779 896 1958 
C 896 2118 774 2188 666 2188 
C 640 2188 608 2182 589 2176 
C 723 2594 1069 2713 1293 2713 
C 1613 2713 1965 2421 1965 1875 
L 1965 1632 
C 1587 1619 1133 1568 774 1373 
C 371 1147 256 822 256 576 
C 256 77 832 -64 1171 -64 
C 1523 -64 1850 135 1990 505 
C 2003 219 2182 -39 2464 -39 
C 2598 -39 2938 51 2938 563 
L 2938 926 
L 2822 926 
L 2822 557 
C 2822 161 2650 109 2566 109 
C 2304 109 2304 446 2304 732 
L 2304 1656 
z
M 1965 887 
C 1965 323 1568 38 1216 38 
C 896 38 646 278 646 576 
C 646 771 730 1114 1101 1322 
C 1408 1497 1760 1523 1965 1536 
L 1965 887 
z
" transform="scale(0.015625)"/>
       <path id="CMR17-64" d="M 1869 4345 
L 1869 4179 
C 2246 4179 2304 4141 2304 3843 
L 2304 2371 
C 2278 2403 2016 2816 1498 2816 
C 845 2816 211 2228 211 1376 
C 211 529 806 -64 1434 -64 
C 1978 -64 2259 361 2291 406 
L 2291 -64 
L 3066 -13 
L 3066 154 
C 2688 154 2630 193 2630 503 
L 2630 4416 
L 1869 4345 
z
M 2291 762 
C 2291 568 2176 393 2029 264 
C 1811 70 1594 38 1472 38 
C 1286 38 621 135 621 1369 
C 621 2636 1363 2713 1530 2713 
C 1824 2713 2061 2545 2208 2313 
C 2291 2177 2291 2157 2291 2041 
L 2291 762 
z
" transform="scale(0.015625)"/>
       <path id="CMR17-73" d="M 1978 2688 
C 1978 2803 1971 2809 1933 2809 
C 1907 2809 1901 2803 1824 2707 
C 1805 2681 1747 2617 1728 2592 
C 1523 2809 1235 2816 1126 2816 
C 416 2816 160 2444 160 2073 
C 160 1497 813 1363 998 1324 
C 1402 1241 1542 1216 1677 1100 
C 1760 1024 1901 883 1901 652 
C 1901 384 1747 38 1158 38 
C 602 38 403 460 288 1024 
C 269 1113 269 1120 218 1120 
C 166 1120 160 1113 160 985 
L 160 64 
C 160 -52 166 -58 205 -58 
C 237 -58 243 -52 275 0 
C 314 57 410 211 448 275 
C 576 102 800 -64 1158 -64 
C 1792 -64 2131 281 2131 780 
C 2131 1107 1958 1280 1875 1356 
C 1683 1555 1459 1600 1190 1651 
C 838 1728 390 1817 390 2208 
C 390 2374 480 2726 1126 2726 
C 1811 2726 1850 2086 1862 1881 
C 1869 1849 1901 1843 1920 1843 
C 1978 1843 1978 1862 1978 1971 
L 1978 2688 
z
" transform="scale(0.015625)"/>
      </defs>
      <use xlink:href="#CMR17-4e" transform="scale(0.996264)"/>
      <use xlink:href="#CMR17-75" transform="translate(69.07243 0)scale(0.996264)"/>
      <use xlink:href="#CMR17-6d" transform="translate(119.9678 0)scale(0.996264)"/>
      <use xlink:href="#CMR17-62" transform="translate(194.284936 0)scale(0.996264)"/>
      <use xlink:href="#CMR17-65" transform="translate(247.782744 0)scale(0.996264)"/>
      <use xlink:href="#CMR17-72" transform="translate(288.268404 0)scale(0.996264)"/>
      <use xlink:href="#CMR17-6f" transform="translate(345.688379 0)scale(0.996264)"/>
      <use xlink:href="#CMR17-66" transform="translate(391.378856 0)scale(0.996264)"/>
      <use xlink:href="#CMR17-74" transform="translate(446.897088 0)scale(0.996264)"/>
      <use xlink:href="#CMR17-68" transform="translate(482.177856 0)scale(0.996264)"/>
      <use xlink:href="#CMR17-72" transform="translate(533.073226 0)scale(0.996264)"/>
      <use xlink:href="#CMR17-65" transform="translate(568.353994 0)scale(0.996264)"/>
      <use xlink:href="#CMR17-61" transform="translate(608.839654 0)scale(0.996264)"/>
      <use xlink:href="#CMR17-64" transform="translate(654.530131 0)scale(0.996264)"/>
      <use xlink:href="#CMR17-73" transform="translate(705.425501 0)scale(0.996264)"/>
     </g>
    </g>
   </g>
   <g id="matplotlib.axis_2">
    <g id="ytick_1">
     <g id="line2d_10">
      <defs>
       <path id="ma6e5199f01" d="M 0 0 
L -3.5 0 
" style="stroke: #000000; stroke-width: 0.8"/>
      </defs>
      <g>
       <use xlink:href="#ma6e5199f01" x="37.018347" y="102.33" style="stroke: #000000; stroke-width: 0.8"/>
      </g>
     </g>
     <g id="text_11">
      <!-- $\mathdefault{0}$ -->
      <g transform="translate(25.037012 105.789249)scale(0.1 -0.1)">
       <defs>
        <path id="CMR17-30" d="M 2688 2038 
C 2688 2430 2682 3099 2413 3613 
C 2176 4063 1798 4224 1466 4224 
C 1158 4224 768 4082 525 3620 
C 269 3137 243 2539 243 2038 
C 243 1671 250 1112 448 623 
C 723 -39 1216 -128 1466 -128 
C 1760 -128 2208 -7 2470 604 
C 2662 1048 2688 1568 2688 2038 
z
M 1466 -26 
C 1056 -26 813 328 723 816 
C 653 1196 653 1749 653 2109 
C 653 2604 653 3015 736 3407 
C 858 3954 1216 4121 1466 4121 
C 1728 4121 2067 3947 2189 3420 
C 2272 3054 2278 2623 2278 2109 
C 2278 1691 2278 1176 2202 797 
C 2067 96 1690 -26 1466 -26 
z
" transform="scale(0.015625)"/>
       </defs>
       <use xlink:href="#CMR17-30" transform="scale(0.996264)"/>
      </g>
     </g>
    </g>
    <g id="ytick_2">
     <g id="line2d_11">
      <g>
       <use xlink:href="#ma6e5199f01" x="37.018347" y="72.601875" style="stroke: #000000; stroke-width: 0.8"/>
      </g>
     </g>
     <g id="text_12">
      <!-- $\mathdefault{5}$ -->
      <g transform="translate(25.037012 76.061124)scale(0.1 -0.1)">
       <defs>
        <path id="CMR17-35" d="M 730 3750 
C 794 3724 1056 3641 1325 3641 
C 1920 3641 2246 3961 2432 4140 
C 2432 4191 2432 4224 2394 4224 
C 2387 4224 2374 4224 2323 4198 
C 2099 4102 1837 4032 1517 4032 
C 1325 4032 1037 4055 723 4191 
C 653 4224 640 4224 634 4224 
C 602 4224 595 4217 595 4090 
L 595 2231 
C 595 2113 595 2080 659 2080 
C 691 2080 704 2093 736 2139 
C 941 2435 1222 2560 1542 2560 
C 1766 2560 2246 2415 2246 1293 
C 2246 1087 2246 716 2054 422 
C 1894 159 1645 25 1370 25 
C 947 25 518 319 403 812 
C 429 806 480 793 506 793 
C 589 793 749 838 749 1036 
C 749 1209 627 1280 506 1280 
C 358 1280 262 1190 262 1011 
C 262 454 704 -128 1382 -128 
C 2042 -128 2669 441 2669 1267 
C 2669 2054 2170 2662 1549 2662 
C 1222 2662 947 2540 730 2304 
L 730 3750 
z
" transform="scale(0.015625)"/>
       </defs>
       <use xlink:href="#CMR17-35" transform="scale(0.996264)"/>
      </g>
     </g>
    </g>
    <g id="ytick_3">
     <g id="line2d_12">
      <g>
       <use xlink:href="#ma6e5199f01" x="37.018347" y="42.87375" style="stroke: #000000; stroke-width: 0.8"/>
      </g>
     </g>
     <g id="text_13">
      <!-- $\mathdefault{10}$ -->
      <g transform="translate(20.055677 46.332999)scale(0.1 -0.1)">
       <use xlink:href="#CMR17-31" transform="scale(0.996264)"/>
       <use xlink:href="#CMR17-30" transform="translate(45.690477 0)scale(0.996264)"/>
      </g>
     </g>
    </g>
    <g id="ytick_4">
     <g id="line2d_13">
      <g>
       <use xlink:href="#ma6e5199f01" x="37.018347" y="13.145625" style="stroke: #000000; stroke-width: 0.8"/>
      </g>
     </g>
     <g id="text_14">
      <!-- $\mathdefault{15}$ -->
      <g transform="translate(20.055677 16.604874)scale(0.1 -0.1)">
       <use xlink:href="#CMR17-31" transform="scale(0.996264)"/>
       <use xlink:href="#CMR17-35" transform="translate(45.690477 0)scale(0.996264)"/>
      </g>
     </g>
    </g>
    <g id="text_15">
     <!-- $\mathrm{Speed{\mbox{-}}up}$ -->
     <g transform="translate(14.118498 74.828692)rotate(-90)scale(0.1 -0.1)">
      <defs>
       <path id="CMR17-53" d="M 2803 4351 
C 2803 4467 2797 4473 2758 4473 
C 2720 4473 2707 4447 2682 4390 
L 2490 3965 
C 2246 4320 1875 4480 1472 4480 
C 819 4480 294 3958 294 3301 
C 294 3101 339 2817 557 2546 
C 794 2250 1018 2198 1530 2063 
C 1722 2011 2042 1927 2106 1901 
C 2470 1747 2662 1360 2662 999 
C 2662 534 2336 38 1779 38 
C 1094 38 454 425 410 1328 
C 403 1431 397 1437 352 1437 
C 301 1437 294 1431 294 1302 
L 294 0 
C 294 -116 301 -122 339 -122 
C 384 -122 397 -90 486 109 
C 493 128 493 141 614 386 
C 934 -39 1472 -128 1779 -128 
C 2477 -128 2970 457 2970 1141 
C 2970 1476 2848 1734 2778 1850 
C 2509 2263 2221 2340 1914 2417 
C 1869 2437 1856 2437 1498 2527 
C 1152 2617 1005 2662 845 2836 
C 666 3036 602 3243 602 3449 
C 602 3868 934 4326 1478 4326 
C 2157 4326 2579 3842 2675 3036 
C 2694 2920 2701 2914 2746 2914 
C 2803 2914 2803 2933 2803 3043 
L 2803 4351 
z
" transform="scale(0.015625)"/>
       <path id="CMR17-70" d="M 1408 -1114 
C 998 -1114 973 -1088 973 -834 
L 973 380 
C 1158 109 1427 -64 1766 -64 
C 2406 -64 3053 503 3053 1382 
C 3053 2196 2496 2816 1837 2816 
C 1453 2816 1139 2603 960 2345 
L 960 2816 
L 198 2745 
L 198 2577 
C 576 2577 634 2539 634 2228 
L 634 -834 
C 634 -1081 608 -1114 198 -1114 
L 198 -1280 
C 352 -1268 634 -1268 800 -1268 
C 966 -1268 1254 -1268 1408 -1280 
L 1408 -1114 
z
M 973 2015 
C 973 2106 973 2241 1222 2481 
C 1254 2506 1472 2700 1792 2700 
C 2259 2700 2643 2112 2643 1376 
C 2643 639 2234 38 1728 38 
C 1498 38 1248 148 1056 451 
C 973 594 973 632 973 736 
L 973 2015 
z
" transform="scale(0.015625)"/>
       <path id="CMSS17-2d" d="M 1664 1216 
L 1664 1587 
L 64 1587 
L 64 1216 
L 1664 1216 
z
" transform="scale(0.015625)"/>
      </defs>
      <use xlink:href="#CMR17-53" transform="scale(0.996264)"/>
      <use xlink:href="#CMR17-70" transform="translate(50.89537 0)scale(0.996264)"/>
      <use xlink:href="#CMR17-65" transform="translate(104.393178 0)scale(0.996264)"/>
      <use xlink:href="#CMR17-65" transform="translate(144.878839 0)scale(0.996264)"/>
      <use xlink:href="#CMR17-64" transform="translate(185.364499 0)scale(0.996264)"/>
      <use xlink:href="#CMSS17-2d" transform="translate(236.259869 0)scale(0.996264)"/>
      <use xlink:href="#CMR17-75" transform="translate(267.488982 0)scale(0.996264)"/>
      <use xlink:href="#CMR17-70" transform="translate(318.384352 0)scale(0.996264)"/>
     </g>
    </g>
   </g>
   <g id="LineCollection_1">
    <path d="M 47.116393 96.384375 
L 52.094303 96.384375 
" clip-path="url(#p0a3ef8414b)" style="fill: none; stroke: #000000; stroke-width: 1.5"/>
    <path d="M 75.561593 84.812775 
L 80.539503 84.812775 
" clip-path="url(#p0a3ef8414b)" style="fill: none; stroke: #000000; stroke-width: 1.5"/>
    <path d="M 104.006792 81.568988 
L 108.984702 81.568988 
" clip-path="url(#p0a3ef8414b)" style="fill: none; stroke: #000000; stroke-width: 1.5"/>
    <path d="M 120.646168 71.333819 
L 125.624077 71.333819 
" clip-path="url(#p0a3ef8414b)" style="fill: none; stroke: #000000; stroke-width: 1.5"/>
    <path d="M 132.451992 71.393004 
L 137.429902 71.393004 
" clip-path="url(#p0a3ef8414b)" style="fill: none; stroke: #000000; stroke-width: 1.5"/>
    <path d="M 149.091367 69.806115 
L 154.069277 69.806115 
" clip-path="url(#p0a3ef8414b)" style="fill: none; stroke: #000000; stroke-width: 1.5"/>
    <path d="M 160.897192 64.300014 
L 165.875102 64.300014 
" clip-path="url(#p0a3ef8414b)" style="fill: none; stroke: #000000; stroke-width: 1.5"/>
    <path d="M 177.536567 63.317425 
L 182.514477 63.317425 
" clip-path="url(#p0a3ef8414b)" style="fill: none; stroke: #000000; stroke-width: 1.5"/>
    <path d="M 189.342391 15.916118 
L 194.320301 15.916118 
" clip-path="url(#p0a3ef8414b)" style="fill: none; stroke: #000000; stroke-width: 1.5"/>
   </g>
   <g id="LineCollection_2">
    <path d="M 47.116393 96.384375 
L 52.094303 96.384375 
" clip-path="url(#p0a3ef8414b)" style="fill: none; stroke: #000000; stroke-width: 1.5"/>
    <path d="M 75.561593 102.139577 
L 80.539503 102.139577 
" clip-path="url(#p0a3ef8414b)" style="fill: none; stroke: #000000; stroke-width: 1.5"/>
    <path d="M 104.006792 102.19934 
L 108.984702 102.19934 
" clip-path="url(#p0a3ef8414b)" style="fill: none; stroke: #000000; stroke-width: 1.5"/>
    <path d="M 120.646168 102.207854 
L 125.624077 102.207854 
" clip-path="url(#p0a3ef8414b)" style="fill: none; stroke: #000000; stroke-width: 1.5"/>
    <path d="M 132.451992 102.214577 
L 137.429902 102.214577 
" clip-path="url(#p0a3ef8414b)" style="fill: none; stroke: #000000; stroke-width: 1.5"/>
    <path d="M 149.091367 102.210361 
L 154.069277 102.210361 
" clip-path="url(#p0a3ef8414b)" style="fill: none; stroke: #000000; stroke-width: 1.5"/>
    <path d="M 160.897192 102.212662 
L 165.875102 102.212662 
" clip-path="url(#p0a3ef8414b)" style="fill: none; stroke: #000000; stroke-width: 1.5"/>
    <path d="M 177.536567 102.214915 
L 182.514477 102.214915 
" clip-path="url(#p0a3ef8414b)" style="fill: none; stroke: #000000; stroke-width: 1.5"/>
    <path d="M 189.342391 102.227132 
L 194.320301 102.227132 
" clip-path="url(#p0a3ef8414b)" style="fill: none; stroke: #000000; stroke-width: 1.5"/>
   </g>
   <g id="LineCollection_3">
    <path d="M 49.605348 96.384375 
L 49.605348 96.384375 
" clip-path="url(#p0a3ef8414b)" style="fill: none; stroke: #000000; stroke-width: 1.5"/>
    <path d="M 78.050548 102.139577 
L 78.050548 84.812775 
" clip-path="url(#p0a3ef8414b)" style="fill: none; stroke: #000000; stroke-width: 1.5"/>
    <path d="M 106.495747 102.19934 
L 106.495747 81.568988 
" clip-path="url(#p0a3ef8414b)" style="fill: none; stroke: #000000; stroke-width: 1.5"/>
    <path d="M 123.135123 102.207854 
L 123.135123 71.333819 
" clip-path="url(#p0a3ef8414b)" style="fill: none; stroke: #000000; stroke-width: 1.5"/>
    <path d="M 134.940947 102.214577 
L 134.940947 71.393004 
" clip-path="url(#p0a3ef8414b)" style="fill: none; stroke: #000000; stroke-width: 1.5"/>
    <path d="M 151.580322 102.210361 
L 151.580322 69.806115 
" clip-path="url(#p0a3ef8414b)" style="fill: none; stroke: #000000; stroke-width: 1.5"/>
    <path d="M 163.386147 102.212662 
L 163.386147 64.300014 
" clip-path="url(#p0a3ef8414b)" style="fill: none; stroke: #000000; stroke-width: 1.5"/>
    <path d="M 180.025522 102.214915 
L 180.025522 63.317425 
" clip-path="url(#p0a3ef8414b)" style="fill: none; stroke: #000000; stroke-width: 1.5"/>
    <path d="M 191.831346 102.227132 
L 191.831346 15.916118 
" clip-path="url(#p0a3ef8414b)" style="fill: none; stroke: #000000; stroke-width: 1.5"/>
   </g>
   <g id="LineCollection_4">
    <path d="M 47.116393 96.384375 
L 52.094303 96.384375 
" clip-path="url(#p0a3ef8414b)" style="fill: none; stroke: #000000; stroke-width: 1.5"/>
    <path d="M 75.561593 94.284556 
L 80.539503 94.284556 
" clip-path="url(#p0a3ef8414b)" style="fill: none; stroke: #000000; stroke-width: 1.5"/>
    <path d="M 104.006792 93.283384 
L 108.984702 93.283384 
" clip-path="url(#p0a3ef8414b)" style="fill: none; stroke: #000000; stroke-width: 1.5"/>
    <path d="M 120.646168 96.048203 
L 125.624077 96.048203 
" clip-path="url(#p0a3ef8414b)" style="fill: none; stroke: #000000; stroke-width: 1.5"/>
    <path d="M 132.451992 93.477241 
L 137.429902 93.477241 
" clip-path="url(#p0a3ef8414b)" style="fill: none; stroke: #000000; stroke-width: 1.5"/>
    <path d="M 149.091367 95.48696 
L 154.069277 95.48696 
" clip-path="url(#p0a3ef8414b)" style="fill: none; stroke: #000000; stroke-width: 1.5"/>
    <path d="M 160.897192 93.707086 
L 165.875102 93.707086 
" clip-path="url(#p0a3ef8414b)" style="fill: none; stroke: #000000; stroke-width: 1.5"/>
    <path d="M 177.536567 92.188797 
L 182.514477 92.188797 
" clip-path="url(#p0a3ef8414b)" style="fill: none; stroke: #000000; stroke-width: 1.5"/>
    <path d="M 189.342391 91.482768 
L 194.320301 91.482768 
" clip-path="url(#p0a3ef8414b)" style="fill: none; stroke: #000000; stroke-width: 1.5"/>
   </g>
   <g id="line2d_14">
    <path d="M 37.018347 96.384375 
L 204.418347 96.384375 
" clip-path="url(#p0a3ef8414b)" style="fill: none; stroke-dasharray: 3.7,1.6; stroke-dashoffset: 0; stroke: #000000"/>
   </g>
   <g id="patch_3">
    <path d="M 37.018347 102.33 
L 37.018347 7.2 
" style="fill: none; stroke: #000000; stroke-width: 0.8; stroke-linejoin: miter; stroke-linecap: square"/>
   </g>
   <g id="patch_4">
    <path d="M 204.418347 102.33 
L 204.418347 7.2 
" style="fill: none; stroke: #000000; stroke-width: 0.8; stroke-linejoin: miter; stroke-linecap: square"/>
   </g>
   <g id="patch_5">
    <path d="M 37.018347 102.33 
L 204.418347 102.33 
" style="fill: none; stroke: #000000; stroke-width: 0.8; stroke-linejoin: miter; stroke-linecap: square"/>
   </g>
   <g id="patch_6">
    <path d="M 37.018347 7.2 
L 204.418347 7.2 
" style="fill: none; stroke: #000000; stroke-width: 0.8; stroke-linejoin: miter; stroke-linecap: square"/>
   </g>
  </g>
 </g>
 <defs>
  <clipPath id="p0a3ef8414b">
   <rect x="37.018347" y="7.2" width="167.4" height="95.13"/>
  </clipPath>
 </defs>
</svg>
