<?xml version="1.0" encoding="UTF-8" standalone="no"?>
<svg
   xmlns:dc="http://purl.org/dc/elements/1.1/"
   xmlns:cc="http://creativecommons.org/ns#"
   xmlns:rdf="http://www.w3.org/1999/02/22-rdf-syntax-ns#"
   xmlns:svg="http://www.w3.org/2000/svg"
   xmlns="http://www.w3.org/2000/svg"
   viewBox="0 0 448 216"
   height="216"
   width="448"
   xml:space="preserve"
   id="svg2"
   version="1.1"><metadata
     id="metadata8"><rdf:RDF><cc:Work
         rdf:about=""><dc:format>image/svg+xml</dc:format><dc:type
           rdf:resource="http://purl.org/dc/dcmitype/StillImage" /></cc:Work></rdf:RDF></metadata><defs
     id="defs6"><clipPath
       id="clipPath18"
       clipPathUnits="userSpaceOnUse"><path
         style="clip-rule:evenodd"
         id="path16"
         d="M 0,0 H 1400 V 667.09399 H 0 Z" /></clipPath></defs><g
     transform="matrix(0.31999998,0,0,0.31999998,0,5.4e-6)"
     id="g10"><g
       id="g12"><g
         clip-path="url(#clipPath18)"
         id="g14"><g
           transform="matrix(2.9914529,0,0,2.9914529,1.4957265,1.4957265)"
           id="g20"><path
             id="path22"
             style="fill:none;stroke:#000000;stroke-width:1;stroke-linecap:butt;stroke-linejoin:miter;stroke-miterlimit:10;stroke-dasharray:none;stroke-opacity:1"
             d="M 236,21 V 31 H 116 v 3.630001" /><path
             id="path24"
             style="fill:#000000;fill-opacity:1;fill-rule:nonzero;stroke:none"
             d="m 116,39.880001 -3.5,-7 3.5,1.75 3.5,-1.75 z" /><path
             id="path26"
             style="fill:none;stroke:#000000;stroke-width:1;stroke-linecap:butt;stroke-linejoin:miter;stroke-miterlimit:10;stroke-dasharray:none;stroke-opacity:1"
             d="m 116,39.880001 -3.5,-7 3.5,1.75 3.5,-1.75 z" /></g><g
           transform="scale(2.9914529)"
           id="g28"><path
             id="path30"
             style="fill:#ffffff;fill-opacity:1;fill-rule:nonzero;stroke:none"
             d="m 179,25 h 15 v 13 h -15 z" /><text
             id="text34"
             style="font-variant:normal;font-weight:normal;font-size:11px;font-family:ArialMT;-inkscape-font-specification:ArialMT;writing-mode:lr-tb;fill:#000000;fill-opacity:1;fill-rule:nonzero;stroke:none"
             transform="translate(179.46875,35)"><tspan
               id="tspan32"
               y="0"
               x="0 7.9438477">No</tspan></text>
</g><g
           transform="matrix(2.9914529,0,0,2.9914529,1.4957265,1.4957265)"
           id="g36"><path
             id="path38"
             style="fill:none;stroke:#000000;stroke-width:1;stroke-linecap:butt;stroke-linejoin:miter;stroke-miterlimit:10;stroke-dasharray:none;stroke-opacity:1"
             d="M 235.64,24.280001 235.60001,31 H 366 v 3.630001" /><path
             id="path40"
             style="fill:#000000;fill-opacity:1;fill-rule:nonzero;stroke:none"
             d="m 366,39.880001 -3.5,-7 3.5,1.75 3.5,-1.75 z" /><path
             id="path42"
             style="fill:none;stroke:#000000;stroke-width:1;stroke-linecap:butt;stroke-linejoin:miter;stroke-miterlimit:10;stroke-dasharray:none;stroke-opacity:1"
             d="m 366,39.880001 -3.5,-7 3.5,1.75 3.5,-1.75 z" /></g><g
           transform="scale(2.9914529)"
           id="g44"><path
             id="path46"
             style="fill:#ffffff;fill-opacity:1;fill-rule:nonzero;stroke:none"
             d="m 295,25 h 17 v 13 h -17 z" /><text
             id="text50"
             style="font-variant:normal;font-weight:normal;font-size:11px;font-family:ArialMT;-inkscape-font-specification:ArialMT;writing-mode:lr-tb;fill:#000000;fill-opacity:1;fill-rule:nonzero;stroke:none"
             transform="translate(294.53125,35)"><tspan
               id="tspan48"
               y="0"
               x="0 6.3271484 12.444824">Yes</tspan></text>
</g><g
           transform="matrix(2.9914529,0,0,2.9914529,1.4957265,1.4957265)"
           id="g52"><path
             id="path54"
             style="fill:#f8cecc;fill-opacity:1;fill-rule:nonzero;stroke:none"
             d="m 379,81 h 84 c 0.3978,0 0.78043,0.07612 1.14795,0.228355 0.36755,0.152245 0.69199,0.369019 0.97333,0.650322 0.28128,0.281304 0.49804,0.605729 0.6503,0.973267 C 465.92383,83.219482 465.99997,83.602165 466,84 v 14 c -3e-5,0.39782 -0.0762,0.780502 -0.22842,1.148041 -0.15226,0.367546 -0.36902,0.691971 -0.6503,0.973269 -0.28134,0.2813 -0.60578,0.49807 -0.97333,0.65031 C 463.78043,100.92387 463.3978,100.99999 463,101 h -84 c -0.39786,-1e-5 -0.78058,-0.0761 -1.1481,-0.22838 -0.36759,-0.15224 -0.69199,-0.36901 -0.97327,-0.65031 -0.28131,-0.281298 -0.49808,-0.605723 -0.65033,-0.973269 C 376.07605,98.780502 375.99997,98.39782 376,98 V 84 c -3e-5,-0.397835 0.0761,-0.780518 0.2283,-1.148056 0.15225,-0.367538 0.36902,-0.691963 0.65033,-0.973267 0.28128,-0.281303 0.60568,-0.498077 0.97327,-0.650322 C 378.21942,81.076118 378.60214,81 379,81 Z" /><path
             id="path56"
             style="fill:none;stroke:#b85450;stroke-width:1;stroke-linecap:butt;stroke-linejoin:miter;stroke-miterlimit:10;stroke-dasharray:none;stroke-opacity:1"
             d="m 379,81 h 84 c 0.3978,0 0.78043,0.07612 1.14795,0.228355 0.36755,0.152245 0.69199,0.369019 0.97333,0.650322 0.28128,0.281304 0.49804,0.605729 0.6503,0.973267 C 465.92383,83.219482 465.99997,83.602165 466,84 v 14 c -3e-5,0.39782 -0.0762,0.780502 -0.22842,1.148041 -0.15226,0.367546 -0.36902,0.691971 -0.6503,0.973269 -0.28134,0.2813 -0.60578,0.49807 -0.97333,0.65031 C 463.78043,100.92387 463.3978,100.99999 463,101 h -84 c -0.39786,-1e-5 -0.78058,-0.0761 -1.1481,-0.22838 -0.36759,-0.15224 -0.69199,-0.36901 -0.97327,-0.65031 -0.28131,-0.281298 -0.49808,-0.605723 -0.65033,-0.973269 C 376.07605,98.780502 375.99997,98.39782 376,98 V 84 c -3e-5,-0.397835 0.0761,-0.780518 0.2283,-1.148056 0.15225,-0.367538 0.36902,-0.691963 0.65033,-0.973267 0.28128,-0.281303 0.60568,-0.498077 0.97327,-0.650322 C 378.21942,81.076118 378.60214,81 379,81 Z" /></g><g
           transform="scale(2.9914529)"
           id="g58"><text
             id="text62"
             style="font-variant:normal;font-weight:normal;font-size:12px;font-family:ArialMT;-inkscape-font-specification:ArialMT;writing-mode:lr-tb;fill:#000000;fill-opacity:1;fill-rule:nonzero;stroke:none"
             transform="translate(405.65625,95)"><tspan
               id="tspan60"
               y="0"
               x="0 8.0039062 14.677734 18.673828 21.339844 28.013672">Serial</tspan></text>
</g><g
           transform="matrix(2.9914529,0,0,2.9914529,1.4957265,1.4957265)"
           id="g64"><path
             id="path66"
             style="fill:#f8cecc;fill-opacity:1;fill-rule:nonzero;stroke:none"
             d="m 269,81 h 84 c 0.3978,0 0.78046,0.07612 1.14798,0.228355 0.36755,0.152245 0.69199,0.369019 0.9733,0.650322 0.28128,0.281304 0.49804,0.605729 0.6503,0.973267 C 355.92383,83.219482 355.99997,83.602165 356,84 v 14 c -3e-5,0.39782 -0.0762,0.780502 -0.22842,1.148041 -0.15226,0.367546 -0.36902,0.691971 -0.6503,0.973269 -0.28131,0.2813 -0.60575,0.49807 -0.9733,0.65031 C 353.78046,100.92387 353.3978,100.99999 353,101 h -84 c -0.39786,-1e-5 -0.78058,-0.0761 -1.1481,-0.22838 -0.36756,-0.15224 -0.69196,-0.36901 -0.97324,-0.65031 -0.28131,-0.281298 -0.49808,-0.605723 -0.65033,-0.973269 C 266.07608,98.780502 265.99997,98.39782 266,98 V 84 c -3e-5,-0.397835 0.0761,-0.780518 0.22833,-1.148056 0.15225,-0.367538 0.36902,-0.691963 0.65033,-0.973267 0.28128,-0.281303 0.60568,-0.498077 0.97324,-0.650322 C 268.21942,81.076118 268.60214,81 269,81 Z" /><path
             id="path68"
             style="fill:none;stroke:#b85450;stroke-width:1;stroke-linecap:butt;stroke-linejoin:miter;stroke-miterlimit:10;stroke-dasharray:none;stroke-opacity:1"
             d="m 269,81 h 84 c 0.3978,0 0.78046,0.07612 1.14798,0.228355 0.36755,0.152245 0.69199,0.369019 0.9733,0.650322 0.28128,0.281304 0.49804,0.605729 0.6503,0.973267 C 355.92383,83.219482 355.99997,83.602165 356,84 v 14 c -3e-5,0.39782 -0.0762,0.780502 -0.22842,1.148041 -0.15226,0.367546 -0.36902,0.691971 -0.6503,0.973269 -0.28131,0.2813 -0.60575,0.49807 -0.9733,0.65031 C 353.78046,100.92387 353.3978,100.99999 353,101 h -84 c -0.39786,-1e-5 -0.78058,-0.0761 -1.1481,-0.22838 -0.36756,-0.15224 -0.69196,-0.36901 -0.97324,-0.65031 -0.28131,-0.281298 -0.49808,-0.605723 -0.65033,-0.973269 C 266.07608,98.780502 265.99997,98.39782 266,98 V 84 c -3e-5,-0.397835 0.0761,-0.780518 0.22833,-1.148056 0.15225,-0.367538 0.36902,-0.691963 0.65033,-0.973267 0.28128,-0.281303 0.60568,-0.498077 0.97324,-0.650322 C 268.21942,81.076118 268.60214,81 269,81 Z" /></g><g
           transform="scale(2.9914529)"
           id="g70"><text
             id="text74"
             style="font-variant:normal;font-weight:normal;font-size:12px;font-family:ArialMT;-inkscape-font-specification:ArialMT;writing-mode:lr-tb;fill:#000000;fill-opacity:1;fill-rule:nonzero;stroke:none"
             transform="translate(284.32813,95)"><tspan
               id="tspan72"
               y="0"
               x="0 8.0039062 12 21.333984 25.330078 27.996094 34.669922 43.335938 50.009766">P-GridCut</tspan></text>
</g><g
           transform="matrix(2.9914529,0,0,2.9914529,1.4957265,1.4957265)"
           id="g76"><path
             id="path78"
             style="fill:#f8cecc;fill-opacity:1;fill-rule:nonzero;stroke:none"
             d="m 224,201 h 84 c 0.3978,0 0.78049,0.0761 1.14804,0.22835 0.36752,0.15225 0.69193,0.36903 0.97327,0.65033 0.28131,0.28129 0.49807,0.60571 0.6503,0.97326 0.15225,0.36754 0.22836,0.75022 0.22839,1.14806 v 14 c -3e-5,0.39781 -0.0761,0.78049 -0.22839,1.14803 -0.15223,0.36753 -0.36899,0.69197 -0.6503,0.97328 -0.28134,0.28129 -0.60575,0.49806 -0.97327,0.65031 C 308.78049,220.92386 308.3978,220.99998 308,221 h -84 c -0.39784,-2e-5 -0.78053,-0.0761 -1.14807,-0.22838 -0.36754,-0.15225 -0.69197,-0.36902 -0.97327,-0.65031 -0.28131,-0.28131 -0.49809,-0.60575 -0.65033,-0.97328 C 221.0761,218.78049 220.99998,218.39781 221,218 v -14 c -2e-5,-0.39784 0.0761,-0.78053 0.22833,-1.14807 0.15224,-0.36754 0.36902,-0.69196 0.65033,-0.97325 0.2813,-0.2813 0.60573,-0.49808 0.97327,-0.65033 C 223.21947,201.07611 223.60216,201 224,201 Z" /><path
             id="path80"
             style="fill:none;stroke:#b85450;stroke-width:1;stroke-linecap:butt;stroke-linejoin:miter;stroke-miterlimit:10;stroke-dasharray:none;stroke-opacity:1"
             d="m 224,201 h 84 c 0.3978,0 0.78049,0.0761 1.14804,0.22835 0.36752,0.15225 0.69193,0.36903 0.97327,0.65033 0.28131,0.28129 0.49807,0.60571 0.6503,0.97326 0.15225,0.36754 0.22836,0.75022 0.22839,1.14806 v 14 c -3e-5,0.39781 -0.0761,0.78049 -0.22839,1.14803 -0.15223,0.36753 -0.36899,0.69197 -0.6503,0.97328 -0.28134,0.28129 -0.60575,0.49806 -0.97327,0.65031 C 308.78049,220.92386 308.3978,220.99998 308,221 h -84 c -0.39784,-2e-5 -0.78053,-0.0761 -1.14807,-0.22838 -0.36754,-0.15225 -0.69197,-0.36902 -0.97327,-0.65031 -0.28131,-0.28131 -0.49809,-0.60575 -0.65033,-0.97328 C 221.0761,218.78049 220.99998,218.39781 221,218 v -14 c -2e-5,-0.39784 0.0761,-0.78053 0.22833,-1.14807 0.15224,-0.36754 0.36902,-0.69196 0.65033,-0.97325 0.2813,-0.2813 0.60573,-0.49808 0.97327,-0.65033 C 223.21947,201.07611 223.60216,201 224,201 Z" /></g><g
           transform="scale(2.9914529)"
           id="g82"><text
             id="text86"
             style="font-variant:normal;font-weight:normal;font-size:12px;font-family:ArialMT;-inkscape-font-specification:ArialMT;writing-mode:lr-tb;fill:#000000;fill-opacity:1;fill-rule:nonzero;stroke:none"
             transform="translate(245.3125,215)"><tspan
               id="tspan84"
               y="0"
               x="0 6.6738281 9.3398438 16.013672 20.009766 28.013672 34.6875">Liu-Sun</tspan></text>
</g><g
           transform="matrix(2.9914529,0,0,2.9914529,1.4957265,1.4957265)"
           id="g88"><path
             id="path90"
             style="fill:#f8cecc;fill-opacity:1;fill-rule:nonzero;stroke:none"
             d="m 114,201 h 84 c 0.39781,0 0.7805,0.0761 1.14804,0.22835 0.36754,0.15225 0.69196,0.36903 0.97328,0.65033 0.2813,0.28129 0.49806,0.60571 0.65032,0.97326 0.15223,0.36754 0.22834,0.75022 0.22836,1.14806 v 14 c -2e-5,0.39781 -0.0761,0.78049 -0.22836,1.14803 -0.15226,0.36753 -0.36902,0.69197 -0.65032,0.97328 -0.28132,0.28129 -0.60574,0.49806 -0.97328,0.65031 C 198.7805,220.92386 198.39781,220.99998 198,221 h -84 c -0.39783,-2e-5 -0.78052,-0.0761 -1.14806,-0.22838 -0.36755,-0.15225 -0.69197,-0.36902 -0.97326,-0.65031 -0.28131,-0.28131 -0.49809,-0.60575 -0.65033,-0.97328 C 111.07611,218.78049 110.99999,218.39781 111,218 v -14 c -1e-5,-0.39784 0.0761,-0.78053 0.22835,-1.14807 0.15224,-0.36754 0.36902,-0.69196 0.65033,-0.97325 0.28129,-0.2813 0.60571,-0.49808 0.97326,-0.65033 C 113.21948,201.07611 113.60217,201 114,201 Z" /><path
             id="path92"
             style="fill:none;stroke:#b85450;stroke-width:1;stroke-linecap:butt;stroke-linejoin:miter;stroke-miterlimit:10;stroke-dasharray:none;stroke-opacity:1"
             d="m 114,201 h 84 c 0.39781,0 0.7805,0.0761 1.14804,0.22835 0.36754,0.15225 0.69196,0.36903 0.97328,0.65033 0.2813,0.28129 0.49806,0.60571 0.65032,0.97326 0.15223,0.36754 0.22834,0.75022 0.22836,1.14806 v 14 c -2e-5,0.39781 -0.0761,0.78049 -0.22836,1.14803 -0.15226,0.36753 -0.36902,0.69197 -0.65032,0.97328 -0.28132,0.28129 -0.60574,0.49806 -0.97328,0.65031 C 198.7805,220.92386 198.39781,220.99998 198,221 h -84 c -0.39783,-2e-5 -0.78052,-0.0761 -1.14806,-0.22838 -0.36755,-0.15225 -0.69197,-0.36902 -0.97326,-0.65031 -0.28131,-0.28131 -0.49809,-0.60575 -0.65033,-0.97328 C 111.07611,218.78049 110.99999,218.39781 111,218 v -14 c -1e-5,-0.39784 0.0761,-0.78053 0.22835,-1.14807 0.15224,-0.36754 0.36902,-0.69196 0.65033,-0.97325 0.28129,-0.2813 0.60571,-0.49808 0.97326,-0.65033 C 113.21948,201.07611 113.60217,201 114,201 Z" /></g><g
           transform="scale(2.9914529)"
           id="g94"><text
             id="text98"
             style="font-variant:normal;font-weight:normal;font-size:12px;font-family:ArialMT;-inkscape-font-specification:ArialMT;writing-mode:lr-tb;fill:#000000;fill-opacity:1;fill-rule:nonzero;stroke:none"
             transform="translate(137.65625,215)"><tspan
               id="tspan96"
               y="0"
               x="0 8.0039062 12 20.003906 28.007812">P-PPR</tspan></text>
</g><g
           transform="matrix(2.9914529,0,0,2.9914529,1.4957265,1.4957265)"
           id="g100"><path
             id="path102"
             style="fill:#ffffff;fill-opacity:1;fill-rule:nonzero;stroke:none"
             d="m 179,1 h 114 c 0.3978,0 0.78049,0.07612 1.14801,0.2283612 0.36752,0.1522409 0.69196,0.3690137 0.97327,0.6503183 0.28128,0.2813046 0.49804,0.6057277 0.6503,0.9732697 C 295.92383,3.2194915 295.99997,3.602175 296,4 v 14 c -3e-5,0.397823 -0.0762,0.780506 -0.22842,1.148046 -0.15226,0.367545 -0.36902,0.691968 -0.6503,0.973273 -0.28131,0.281303 -0.60575,0.498075 -0.97327,0.650316 C 293.78049,20.923878 293.3978,20.999998 293,21 H 179 c -0.39784,-2e-6 -0.78052,-0.07612 -1.14806,-0.228365 -0.36753,-0.152241 -0.69197,-0.369013 -0.97326,-0.650316 -0.28131,-0.281305 -0.4981,-0.605728 -0.65033,-0.973273 C 176.07611,18.780506 175.99998,18.397823 176,18 V 4 c -2e-5,-0.397825 0.0761,-0.7805085 0.22835,-1.1480508 0.15223,-0.367542 0.36902,-0.6919651 0.65033,-0.9732697 0.28129,-0.2813046 0.60573,-0.4980774 0.97326,-0.6503183 C 178.21948,1.0761204 178.60216,1 179,1 Z" /><path
             id="path104"
             style="fill:none;stroke:#000000;stroke-width:1;stroke-linecap:butt;stroke-linejoin:miter;stroke-miterlimit:10;stroke-dasharray:none;stroke-opacity:1"
             d="m 179,1 h 114 c 0.3978,0 0.78049,0.07612 1.14801,0.2283612 0.36752,0.1522409 0.69196,0.3690137 0.97327,0.6503183 0.28128,0.2813046 0.49804,0.6057277 0.6503,0.9732697 C 295.92383,3.2194915 295.99997,3.602175 296,4 v 14 c -3e-5,0.397823 -0.0762,0.780506 -0.22842,1.148046 -0.15226,0.367545 -0.36902,0.691968 -0.6503,0.973273 -0.28131,0.281303 -0.60575,0.498075 -0.97327,0.650316 C 293.78049,20.923878 293.3978,20.999998 293,21 H 179 c -0.39784,-2e-6 -0.78052,-0.07612 -1.14806,-0.228365 -0.36753,-0.152241 -0.69197,-0.369013 -0.97326,-0.650316 -0.28131,-0.281305 -0.4981,-0.605728 -0.65033,-0.973273 C 176.07611,18.780506 175.99998,18.397823 176,18 V 4 c -2e-5,-0.397825 0.0761,-0.7805085 0.22835,-1.1480508 0.15223,-0.367542 0.36902,-0.6919651 0.65033,-0.9732697 0.28129,-0.2813046 0.60573,-0.4980774 0.97326,-0.6503183 C 178.21948,1.0761204 178.60216,1 179,1 Z" /></g><g
           transform="scale(2.9914529)"
           id="g106"><text
             id="text110"
             style="font-variant:normal;font-weight:normal;font-size:12px;font-family:ArialMT;-inkscape-font-specification:ArialMT;writing-mode:lr-tb;fill:#000000;fill-opacity:1;fill-rule:nonzero;stroke:none"
             transform="translate(207.64063,15)"><tspan
               id="tspan108"
               y="0"
               x="0 9.3339844 13.330078 15.996094 22.669922 26.003906 32.677734 36.673828 43.347656 50.021484">Grid graph</tspan></text>
</g><g
           transform="matrix(2.9914529,0,0,2.9914529,1.4957265,1.4957265)"
           id="g112"><path
             id="path114"
             style="fill:none;stroke:#000000;stroke-width:1;stroke-linecap:butt;stroke-linejoin:miter;stroke-miterlimit:10;stroke-dasharray:none;stroke-opacity:1"
             d="m 366,61 v 10 h 10 -65 v 3.629997" /><path
             id="path116"
             style="fill:#000000;fill-opacity:1;fill-rule:nonzero;stroke:none"
             d="m 311,79.879997 -3.5,-7 3.5,1.75 3.5,-1.75 z" /><path
             id="path118"
             style="fill:none;stroke:#000000;stroke-width:1;stroke-linecap:butt;stroke-linejoin:miter;stroke-miterlimit:10;stroke-dasharray:none;stroke-opacity:1"
             d="m 311,79.879997 -3.5,-7 3.5,1.75 3.5,-1.75 z" /></g><g
           transform="scale(2.9914529)"
           id="g120"><path
             id="path122"
             style="fill:#ffffff;fill-opacity:1;fill-rule:nonzero;stroke:none"
             d="m 333,66 h 15 v 13 h -15 z" /><text
             id="text126"
             style="font-variant:normal;font-weight:normal;font-size:11px;font-family:ArialMT;-inkscape-font-specification:ArialMT;writing-mode:lr-tb;fill:#000000;fill-opacity:1;fill-rule:nonzero;stroke:none"
             transform="translate(333.46875,76)"><tspan
               id="tspan124"
               y="0"
               x="0 7.9438477">No</tspan></text>
</g><g
           transform="matrix(2.9914529,0,0,2.9914529,1.4957265,1.4957265)"
           id="g128"><path
             id="path130"
             style="fill:none;stroke:#000000;stroke-width:1;stroke-linecap:butt;stroke-linejoin:miter;stroke-miterlimit:10;stroke-dasharray:none;stroke-opacity:1"
             d="m 366,61 v 10 h 10 45 v 3.629997" /><path
             id="path132"
             style="fill:#000000;fill-opacity:1;fill-rule:nonzero;stroke:none"
             d="m 421,79.879997 -3.5,-7 3.5,1.75 3.5,-1.75 z" /><path
             id="path134"
             style="fill:none;stroke:#000000;stroke-width:1;stroke-linecap:butt;stroke-linejoin:miter;stroke-miterlimit:10;stroke-dasharray:none;stroke-opacity:1"
             d="m 421,79.879997 -3.5,-7 3.5,1.75 3.5,-1.75 z" /></g><g
           transform="scale(2.9914529)"
           id="g136"><path
             id="path138"
             style="fill:#ffffff;fill-opacity:1;fill-rule:nonzero;stroke:none"
             d="m 383,66 h 17 v 13 h -17 z" /><text
             id="text142"
             style="font-variant:normal;font-weight:normal;font-size:11px;font-family:ArialMT;-inkscape-font-specification:ArialMT;writing-mode:lr-tb;fill:#000000;fill-opacity:1;fill-rule:nonzero;stroke:none"
             transform="translate(382.53125,76)"><tspan
               id="tspan140"
               y="0"
               x="0 6.3271484 12.444824">Yes</tspan></text>
</g><g
           transform="matrix(2.9914529,0,0,2.9914529,1.4957265,1.4957265)"
           id="g144"><path
             id="path146"
             style="fill:#ffffff;fill-opacity:1;fill-rule:nonzero;stroke:none"
             d="m 289,41 h 154 c 0.3978,0 0.78046,0.07612 1.14798,0.228359 0.36755,0.152241 0.69199,0.369011 0.97333,0.650318 0.28128,0.281308 0.49801,0.605729 0.65027,0.973267 C 445.92383,43.21949 445.99997,43.602177 446,44 v 14 c -3e-5,0.397823 -0.0761,0.780502 -0.22839,1.148045 -0.15226,0.367542 -0.36902,0.691967 -0.6503,0.973274 -0.28134,0.281299 -0.60578,0.498073 -0.97333,0.650314 C 443.78046,60.923874 443.3978,60.999996 443,61 H 289 c -0.39783,-4e-6 -0.78052,-0.07613 -1.14807,-0.228367 -0.36755,-0.152241 -0.69199,-0.369015 -0.97327,-0.650314 -0.28131,-0.281307 -0.49808,-0.605732 -0.65033,-0.973274 C 286.07608,58.780502 285.99997,58.397823 286,58 V 44 c -3e-5,-0.397823 0.0761,-0.78051 0.22833,-1.148056 0.15225,-0.367538 0.36902,-0.691959 0.65033,-0.973267 0.28128,-0.281307 0.60572,-0.498077 0.97327,-0.650318 C 288.21948,41.076118 288.60217,41 289,41 Z" /><path
             id="path148"
             style="fill:none;stroke:#000000;stroke-width:1;stroke-linecap:butt;stroke-linejoin:miter;stroke-miterlimit:10;stroke-dasharray:none;stroke-opacity:1"
             d="m 289,41 h 154 c 0.3978,0 0.78046,0.07612 1.14798,0.228359 0.36755,0.152241 0.69199,0.369011 0.97333,0.650318 0.28128,0.281308 0.49801,0.605729 0.65027,0.973267 C 445.92383,43.21949 445.99997,43.602177 446,44 v 14 c -3e-5,0.397823 -0.0761,0.780502 -0.22839,1.148045 -0.15226,0.367542 -0.36902,0.691967 -0.6503,0.973274 -0.28134,0.281299 -0.60578,0.498073 -0.97333,0.650314 C 443.78046,60.923874 443.3978,60.999996 443,61 H 289 c -0.39783,-4e-6 -0.78052,-0.07613 -1.14807,-0.228367 -0.36755,-0.152241 -0.69199,-0.369015 -0.97327,-0.650314 -0.28131,-0.281307 -0.49808,-0.605732 -0.65033,-0.973274 C 286.07608,58.780502 285.99997,58.397823 286,58 V 44 c -3e-5,-0.397823 0.0761,-0.78051 0.22833,-1.148056 0.15225,-0.367538 0.36902,-0.691959 0.65033,-0.973267 0.28128,-0.281307 0.60572,-0.498077 0.97327,-0.650318 C 288.21948,41.076118 288.60217,41 289,41 Z" /></g><g
           transform="scale(2.9914529)"
           id="g150"><text
             id="text154"
             style="font-variant:normal;font-weight:normal;font-size:12px;font-family:ArialMT;-inkscape-font-specification:ArialMT;writing-mode:lr-tb;fill:#000000;fill-opacity:1;fill-rule:nonzero;stroke:none"
             transform="translate(294.65625,55)"><tspan
               id="tspan152"
               y="0"
               x="0 3.3339844 10.007812 13.341797 20.015625 26.689453 33.363281 36.697266 40.03125 46.705078 53.378906 60.052734 66.052734 72.726562 76.722656 83.396484 86.730469 92.730469 96.064453 102.73828 106.07227 109.40625 115.99219 119.32617 126 129.33398 136.00781">In deg. nonzero std. ≤ 1.59</tspan></text>
</g><g
           transform="matrix(2.9914529,0,0,2.9914529,1.4957265,1.4957265)"
           id="g156"><path
             id="path158"
             style="fill:none;stroke:#000000;stroke-width:1;stroke-linecap:butt;stroke-linejoin:miter;stroke-miterlimit:10;stroke-dasharray:none;stroke-opacity:1"
             d="M 116,61 V 71 H 166 43.5 v 3.629997" /><path
             id="path160"
             style="fill:#000000;fill-opacity:1;fill-rule:nonzero;stroke:none"
             d="m 43.5,79.879997 -3.5,-7 3.5,1.75 3.5,-1.75 z" /><path
             id="path162"
             style="fill:none;stroke:#000000;stroke-width:1;stroke-linecap:butt;stroke-linejoin:miter;stroke-miterlimit:10;stroke-dasharray:none;stroke-opacity:1"
             d="m 43.5,79.879997 -3.5,-7 3.5,1.75 3.5,-1.75 z" /></g><g
           transform="scale(2.9914529)"
           id="g164"><path
             id="path166"
             style="fill:#ffffff;fill-opacity:1;fill-rule:nonzero;stroke:none"
             d="M 75,65 H 90 V 78 H 75 Z" /><text
             id="text170"
             style="font-variant:normal;font-weight:normal;font-size:11px;font-family:ArialMT;-inkscape-font-specification:ArialMT;writing-mode:lr-tb;fill:#000000;fill-opacity:1;fill-rule:nonzero;stroke:none"
             transform="translate(75.46875,75)"><tspan
               id="tspan168"
               y="0"
               x="0 7.9438477">No</tspan></text>
</g><g
           transform="matrix(2.9914529,0,0,2.9914529,1.4957265,1.4957265)"
           id="g172"><path
             id="path174"
             style="fill:none;stroke:#000000;stroke-width:1;stroke-linecap:butt;stroke-linejoin:miter;stroke-miterlimit:10;stroke-dasharray:none;stroke-opacity:1"
             d="m 116,61 v 10 h 60 v 3.629997" /><path
             id="path176"
             style="fill:#000000;fill-opacity:1;fill-rule:nonzero;stroke:none"
             d="m 176,79.879997 -3.5,-7 3.5,1.75 3.5,-1.75 z" /><path
             id="path178"
             style="fill:none;stroke:#000000;stroke-width:1;stroke-linecap:butt;stroke-linejoin:miter;stroke-miterlimit:10;stroke-dasharray:none;stroke-opacity:1"
             d="m 176,79.879997 -3.5,-7 3.5,1.75 3.5,-1.75 z" /></g><g
           transform="scale(2.9914529)"
           id="g180"><path
             id="path182"
             style="fill:#ffffff;fill-opacity:1;fill-rule:nonzero;stroke:none"
             d="m 139,66 h 17 v 13 h -17 z" /><text
             id="text186"
             style="font-variant:normal;font-weight:normal;font-size:11px;font-family:ArialMT;-inkscape-font-specification:ArialMT;writing-mode:lr-tb;fill:#000000;fill-opacity:1;fill-rule:nonzero;stroke:none"
             transform="translate(138.53125,76)"><tspan
               id="tspan184"
               y="0"
               x="0 6.3271484 12.444824">Yes</tspan></text>
</g><g
           transform="matrix(2.9914529,0,0,2.9914529,1.4957265,1.4957265)"
           id="g188"><path
             id="path190"
             style="fill:#ffffff;fill-opacity:1;fill-rule:nonzero;stroke:none"
             d="m 39,41 h 154 c 0.39781,0 0.78049,0.07612 1.14803,0.228359 0.36755,0.152241 0.69198,0.369011 0.97328,0.650318 0.28129,0.281308 0.49806,0.605729 0.65031,0.973267 C 195.92386,43.21949 195.99998,43.602177 196,44 v 14 c -2e-5,0.397823 -0.0761,0.780502 -0.22838,1.148045 -0.15225,0.367542 -0.36902,0.691967 -0.65031,0.973274 -0.2813,0.281299 -0.60573,0.498073 -0.97328,0.650314 C 193.78049,60.923874 193.39781,60.999996 193,61 H 39 c -0.397827,-4e-6 -0.780514,-0.07613 -1.148056,-0.228367 C 37.484402,60.619392 37.159977,60.402618 36.878677,60.121319 36.59737,59.840012 36.380596,59.515587 36.228359,59.148045 36.076118,58.780502 35.999996,58.397823 36,58 V 44 c -4e-6,-0.397823 0.07612,-0.78051 0.228359,-1.148056 0.152237,-0.367538 0.369011,-0.691959 0.650318,-0.973267 0.2813,-0.281307 0.605725,-0.498077 0.973267,-0.650318 C 38.219486,41.076118 38.602173,41 39,41 Z" /><path
             id="path192"
             style="fill:none;stroke:#000000;stroke-width:1;stroke-linecap:butt;stroke-linejoin:miter;stroke-miterlimit:10;stroke-dasharray:none;stroke-opacity:1"
             d="m 39,41 h 154 c 0.39781,0 0.78049,0.07612 1.14803,0.228359 0.36755,0.152241 0.69198,0.369011 0.97328,0.650318 0.28129,0.281308 0.49806,0.605729 0.65031,0.973267 C 195.92386,43.21949 195.99998,43.602177 196,44 v 14 c -2e-5,0.397823 -0.0761,0.780502 -0.22838,1.148045 -0.15225,0.367542 -0.36902,0.691967 -0.65031,0.973274 -0.2813,0.281299 -0.60573,0.498073 -0.97328,0.650314 C 193.78049,60.923874 193.39781,60.999996 193,61 H 39 c -0.397827,-4e-6 -0.780514,-0.07613 -1.148056,-0.228367 C 37.484402,60.619392 37.159977,60.402618 36.878677,60.121319 36.59737,59.840012 36.380596,59.515587 36.228359,59.148045 36.076118,58.780502 35.999996,58.397823 36,58 V 44 c -4e-6,-0.397823 0.07612,-0.78051 0.228359,-1.148056 0.152237,-0.367538 0.369011,-0.691959 0.650318,-0.973267 0.2813,-0.281307 0.605725,-0.498077 0.973267,-0.650318 C 38.219486,41.076118 38.602173,41 39,41 Z" /></g><g
           transform="scale(2.9914529)"
           id="g194"><text
             id="text198"
             style="font-variant:normal;font-weight:normal;font-size:12px;font-family:ArialMT;-inkscape-font-specification:ArialMT;writing-mode:lr-tb;fill:#000000;fill-opacity:1;fill-rule:nonzero;stroke:none"
             transform="translate(41.3125,55)"><tspan
               id="tspan196"
               y="0"
               x="0 3.3339844 10.007812 13.341797 20.015625 26.689453 33.363281 36.697266 40.03125 46.705078 53.378906 60.052734 66.052734 72.726562 76.722656 83.396484 86.730469 92.730469 96.064453 102.73828 106.07227 109.40625 115.99219 119.32617 126 129.33398 136.00781 142.68164">In deg. nonzero std. ≤ 1.531</tspan></text>
</g><g
           transform="matrix(2.9914529,0,0,2.9914529,1.4957265,1.4957265)"
           id="g200"><path
             id="path202"
             style="fill:#f8cecc;fill-opacity:1;fill-rule:nonzero;stroke:none"
             d="m 4,81 h 79 c 0.39782,0 0.780495,0.07612 1.148041,0.228355 0.367538,0.152245 0.691963,0.369019 0.973274,0.650322 0.281303,0.281304 0.49807,0.605729 0.650314,0.973267 C 85.923874,83.219482 85.999992,83.602165 86,84 v 14 c -8e-6,0.39782 -0.07613,0.780502 -0.228371,1.148041 -0.152244,0.367546 -0.369011,0.691971 -0.650314,0.973269 -0.281311,0.2813 -0.605736,0.49807 -0.973274,0.65031 C 83.780495,100.92387 83.39782,100.99999 83,101 H 4 c -0.397825,-1e-5 -0.7805085,-0.0761 -1.1480508,-0.22838 -0.367542,-0.15224 -0.6919651,-0.36901 -0.9732697,-0.65031 C 1.5973748,99.840012 1.3806021,99.515587 1.2283612,99.148041 1.0761204,98.780502 0.99999994,98.39782 1,98 V 84 c -6e-8,-0.397835 0.07612,-0.780518 0.2283612,-1.148056 C 1.3806021,82.484406 1.5973748,82.159981 1.8786795,81.878677 2.1599841,81.597374 2.4844072,81.3806 2.8519492,81.228355 3.2194915,81.076118 3.602175,81 4,81 Z" /><path
             id="path204"
             style="fill:none;stroke:#b85450;stroke-width:1;stroke-linecap:butt;stroke-linejoin:miter;stroke-miterlimit:10;stroke-dasharray:none;stroke-opacity:1"
             d="m 4,81 h 79 c 0.39782,0 0.780495,0.07612 1.148041,0.228355 0.367538,0.152245 0.691963,0.369019 0.973274,0.650322 0.281303,0.281304 0.49807,0.605729 0.650314,0.973267 C 85.923874,83.219482 85.999992,83.602165 86,84 v 14 c -8e-6,0.39782 -0.07613,0.780502 -0.228371,1.148041 -0.152244,0.367546 -0.369011,0.691971 -0.650314,0.973269 -0.281311,0.2813 -0.605736,0.49807 -0.973274,0.65031 C 83.780495,100.92387 83.39782,100.99999 83,101 H 4 c -0.397825,-1e-5 -0.7805085,-0.0761 -1.1480508,-0.22838 -0.367542,-0.15224 -0.6919651,-0.36901 -0.9732697,-0.65031 C 1.5973748,99.840012 1.3806021,99.515587 1.2283612,99.148041 1.0761204,98.780502 0.99999994,98.39782 1,98 V 84 c -6e-8,-0.397835 0.07612,-0.780518 0.2283612,-1.148056 C 1.3806021,82.484406 1.5973748,82.159981 1.8786795,81.878677 2.1599841,81.597374 2.4844072,81.3806 2.8519492,81.228355 3.2194915,81.076118 3.602175,81 4,81 Z" /></g><g
           transform="scale(2.9914529)"
           id="g206"><text
             id="text210"
             style="font-variant:normal;font-weight:normal;font-size:12px;font-family:ArialMT;-inkscape-font-specification:ArialMT;writing-mode:lr-tb;fill:#000000;fill-opacity:1;fill-rule:nonzero;stroke:none"
             transform="translate(28.15625,95)"><tspan
               id="tspan208"
               y="0"
               x="0 8.0039062 14.677734 18.673828 21.339844 28.013672">Serial</tspan></text>
</g><g
           transform="matrix(2.9914529,0,0,2.9914529,1.4957265,1.4957265)"
           id="g212"><path
             id="path214"
             style="fill:none;stroke:#000000;stroke-width:1;stroke-linecap:butt;stroke-linejoin:miter;stroke-miterlimit:10;stroke-dasharray:none;stroke-opacity:1"
             d="m 176,101 v 10 h -75 v 3.63" /><path
             id="path216"
             style="fill:#000000;fill-opacity:1;fill-rule:nonzero;stroke:none"
             d="m 101,119.88 -3.5,-7 3.5,1.75 3.5,-1.75 z" /><path
             id="path218"
             style="fill:none;stroke:#000000;stroke-width:1;stroke-linecap:butt;stroke-linejoin:miter;stroke-miterlimit:10;stroke-dasharray:none;stroke-opacity:1"
             d="m 101,119.88 -3.5,-7 3.5,1.75 3.5,-1.75 z" /></g><g
           transform="scale(2.9914529)"
           id="g220"><path
             id="path222"
             style="fill:#ffffff;fill-opacity:1;fill-rule:nonzero;stroke:none"
             d="m 140,106 h 15 v 13 h -15 z" /><text
             id="text226"
             style="font-variant:normal;font-weight:normal;font-size:11px;font-family:ArialMT;-inkscape-font-specification:ArialMT;writing-mode:lr-tb;fill:#000000;fill-opacity:1;fill-rule:nonzero;stroke:none"
             transform="translate(140.46875,116)"><tspan
               id="tspan224"
               y="0"
               x="0 7.9438477">No</tspan></text>
</g><g
           transform="matrix(2.9914529,0,0,2.9914529,1.4957265,1.4957265)"
           id="g228"><path
             id="path230"
             style="fill:none;stroke:#000000;stroke-width:1;stroke-linecap:butt;stroke-linejoin:miter;stroke-miterlimit:10;stroke-dasharray:none;stroke-opacity:1"
             d="m 176,101 v 10 h 90 v 3.63" /><path
             id="path232"
             style="fill:#000000;fill-opacity:1;fill-rule:nonzero;stroke:none"
             d="m 266,119.88 -3.5,-7 3.5,1.75 3.5,-1.75 z" /><path
             id="path234"
             style="fill:none;stroke:#000000;stroke-width:1;stroke-linecap:butt;stroke-linejoin:miter;stroke-miterlimit:10;stroke-dasharray:none;stroke-opacity:1"
             d="m 266,119.88 -3.5,-7 3.5,1.75 3.5,-1.75 z" /></g><g
           transform="scale(2.9914529)"
           id="g236"><path
             id="path238"
             style="fill:#ffffff;fill-opacity:1;fill-rule:nonzero;stroke:none"
             d="m 210,106 h 17 v 13 h -17 z" /><text
             id="text242"
             style="font-variant:normal;font-weight:normal;font-size:11px;font-family:ArialMT;-inkscape-font-specification:ArialMT;writing-mode:lr-tb;fill:#000000;fill-opacity:1;fill-rule:nonzero;stroke:none"
             transform="translate(209.53125,116)"><tspan
               id="tspan240"
               y="0"
               x="0 6.3271484 12.444824">Yes</tspan></text>
</g><g
           transform="matrix(2.9914529,0,0,2.9914529,1.4957265,1.4957265)"
           id="g244"><path
             id="path246"
             style="fill:#ffffff;fill-opacity:1;fill-rule:nonzero;stroke:none"
             d="m 109,81 h 134 c 0.39781,0 0.78049,0.07612 1.14803,0.228355 0.36753,0.152245 0.69197,0.369019 0.97328,0.650322 0.28129,0.281304 0.49806,0.605729 0.65031,0.973267 C 245.92386,83.219482 245.99998,83.602165 246,84 v 14 c -2e-5,0.39782 -0.0761,0.780502 -0.22838,1.148041 -0.15225,0.367546 -0.36902,0.691971 -0.65031,0.973269 -0.28131,0.2813 -0.60575,0.49807 -0.97328,0.65031 C 243.78049,100.92387 243.39781,100.99999 243,101 H 109 c -0.39783,-1e-5 -0.78052,-0.0761 -1.14807,-0.22838 -0.36755,-0.15224 -0.69196,-0.36901 -0.97326,-0.65031 -0.28131,-0.281298 -0.49809,-0.605723 -0.65032,-0.973269 C 106.0761,98.780502 105.99999,98.39782 106,98 V 84 c -1e-5,-0.397835 0.0761,-0.780518 0.22834,-1.148056 0.15224,-0.367538 0.36902,-0.691963 0.65033,-0.973267 0.2813,-0.281303 0.60571,-0.498077 0.97326,-0.650322 C 108.21948,81.076118 108.60217,81 109,81 Z" /><path
             id="path248"
             style="fill:none;stroke:#000000;stroke-width:1;stroke-linecap:butt;stroke-linejoin:miter;stroke-miterlimit:10;stroke-dasharray:none;stroke-opacity:1"
             d="m 109,81 h 134 c 0.39781,0 0.78049,0.07612 1.14803,0.228355 0.36753,0.152245 0.69197,0.369019 0.97328,0.650322 0.28129,0.281304 0.49806,0.605729 0.65031,0.973267 C 245.92386,83.219482 245.99998,83.602165 246,84 v 14 c -2e-5,0.39782 -0.0761,0.780502 -0.22838,1.148041 -0.15225,0.367546 -0.36902,0.691971 -0.65031,0.973269 -0.28131,0.2813 -0.60575,0.49807 -0.97328,0.65031 C 243.78049,100.92387 243.39781,100.99999 243,101 H 109 c -0.39783,-1e-5 -0.78052,-0.0761 -1.14807,-0.22838 -0.36755,-0.15224 -0.69196,-0.36901 -0.97326,-0.65031 -0.28131,-0.281298 -0.49809,-0.605723 -0.65032,-0.973269 C 106.0761,98.780502 105.99999,98.39782 106,98 V 84 c -1e-5,-0.397835 0.0761,-0.780518 0.22834,-1.148056 0.15224,-0.367538 0.36902,-0.691963 0.65033,-0.973267 0.2813,-0.281303 0.60571,-0.498077 0.97326,-0.650322 C 108.21948,81.076118 108.60217,81 109,81 Z" /></g><g
           transform="scale(2.9914529)"
           id="g250"><text
             id="text254"
             style="font-variant:normal;font-weight:normal;font-size:12px;font-family:ArialMT;-inkscape-font-specification:ArialMT;writing-mode:lr-tb;fill:#000000;fill-opacity:1;fill-rule:nonzero;stroke:none"
             transform="translate(115.65625,95)"><tspan
               id="tspan252"
               y="0"
               x="0 9.9960938 16.669922 23.34375 30.017578 33.351562 40.025391 46.699219 53.373047 57.369141 64.042969 70.716797 74.050781 80.636719 83.970703 90.644531 97.318359 100.65234 107.32617 114">Mean degree ≤ 19.804</tspan></text>
</g><g
           transform="matrix(2.9914529,0,0,2.9914529,1.4957265,1.4957265)"
           id="g256"><path
             id="path258"
             style="fill:none;stroke:#000000;stroke-width:1;stroke-linecap:butt;stroke-linejoin:miter;stroke-miterlimit:10;stroke-dasharray:none;stroke-opacity:1"
             d="m 101,141 v 10 H 46 v 3.63" /><path
             id="path260"
             style="fill:#000000;fill-opacity:1;fill-rule:nonzero;stroke:none"
             d="m 46,159.88 -3.5,-7 3.5,1.75 3.5,-1.75 z" /><path
             id="path262"
             style="fill:none;stroke:#000000;stroke-width:1;stroke-linecap:butt;stroke-linejoin:miter;stroke-miterlimit:10;stroke-dasharray:none;stroke-opacity:1"
             d="m 46,159.88 -3.5,-7 3.5,1.75 3.5,-1.75 z" /></g><g
           transform="scale(2.9914529)"
           id="g264"><path
             id="path266"
             style="fill:#ffffff;fill-opacity:1;fill-rule:nonzero;stroke:none"
             d="m 70,146 h 15 v 13 H 70 Z" /><text
             id="text270"
             style="font-variant:normal;font-weight:normal;font-size:11px;font-family:ArialMT;-inkscape-font-specification:ArialMT;writing-mode:lr-tb;fill:#000000;fill-opacity:1;fill-rule:nonzero;stroke:none"
             transform="translate(70.46875,156)"><tspan
               id="tspan268"
               y="0"
               x="0 7.9438477">No</tspan></text>
</g><g
           transform="matrix(2.9914529,0,0,2.9914529,1.4957265,1.4957265)"
           id="g272"><path
             id="path274"
             style="fill:none;stroke:#000000;stroke-width:1;stroke-linecap:butt;stroke-linejoin:miter;stroke-miterlimit:10;stroke-dasharray:none;stroke-opacity:1"
             d="m 101,141 v 10 h 110 v 3.63" /><path
             id="path276"
             style="fill:#000000;fill-opacity:1;fill-rule:nonzero;stroke:none"
             d="m 211,159.88 -3.5,-7 3.5,1.75 3.5,-1.75 z" /><path
             id="path278"
             style="fill:none;stroke:#000000;stroke-width:1;stroke-linecap:butt;stroke-linejoin:miter;stroke-miterlimit:10;stroke-dasharray:none;stroke-opacity:1"
             d="m 211,159.88 -3.5,-7 3.5,1.75 3.5,-1.75 z" /></g><g
           transform="scale(2.9914529)"
           id="g280"><path
             id="path282"
             style="fill:#ffffff;fill-opacity:1;fill-rule:nonzero;stroke:none"
             d="m 144,145 h 17 v 13 h -17 z" /><text
             id="text286"
             style="font-variant:normal;font-weight:normal;font-size:11px;font-family:ArialMT;-inkscape-font-specification:ArialMT;writing-mode:lr-tb;fill:#000000;fill-opacity:1;fill-rule:nonzero;stroke:none"
             transform="translate(143.53125,155)"><tspan
               id="tspan284"
               y="0"
               x="0 6.3271484 12.444824">Yes</tspan></text>
</g><g
           transform="matrix(2.9914529,0,0,2.9914529,1.4957265,1.4957265)"
           id="g288"><path
             id="path290"
             style="fill:#ffffff;fill-opacity:1;fill-rule:nonzero;stroke:none"
             d="m 4,121 h 194 c 0.39781,0 0.7805,0.0761 1.14804,0.22835 0.36754,0.15223 0.69196,0.36901 0.97328,0.65032 0.2813,0.2813 0.49806,0.60572 0.65032,0.97327 0.15223,0.36754 0.22834,0.75023 0.22836,1.14806 v 14 c -2e-5,0.39781 -0.0761,0.78049 -0.22836,1.14803 -0.15226,0.36753 -0.36902,0.69195 -0.65032,0.97328 -0.28132,0.28129 -0.60574,0.49806 -0.97328,0.6503 C 198.7805,140.92386 198.39781,140.99998 198,141 H 4 c -0.397825,-2e-5 -0.7805085,-0.0761 -1.1480508,-0.22839 -0.367542,-0.15224 -0.6919651,-0.36901 -0.9732697,-0.6503 C 1.5973748,139.83998 1.3806021,139.51556 1.2283612,139.14803 1.0761204,138.78049 0.99999994,138.39781 1,138 v -14 c -6e-8,-0.39783 0.07612,-0.78052 0.2283612,-1.14806 0.1522409,-0.36755 0.3690136,-0.69197 0.6503183,-0.97327 0.2813046,-0.28131 0.6057277,-0.49809 0.9732697,-0.65032 C 3.2194915,121.07612 3.602175,121 4,121 Z" /><path
             id="path292"
             style="fill:none;stroke:#000000;stroke-width:1;stroke-linecap:butt;stroke-linejoin:miter;stroke-miterlimit:10;stroke-dasharray:none;stroke-opacity:1"
             d="m 4,121 h 194 c 0.39781,0 0.7805,0.0761 1.14804,0.22835 0.36754,0.15223 0.69196,0.36901 0.97328,0.65032 0.2813,0.2813 0.49806,0.60572 0.65032,0.97327 0.15223,0.36754 0.22834,0.75023 0.22836,1.14806 v 14 c -2e-5,0.39781 -0.0761,0.78049 -0.22836,1.14803 -0.15226,0.36753 -0.36902,0.69195 -0.65032,0.97328 -0.28132,0.28129 -0.60574,0.49806 -0.97328,0.6503 C 198.7805,140.92386 198.39781,140.99998 198,141 H 4 c -0.397825,-2e-5 -0.7805085,-0.0761 -1.1480508,-0.22839 -0.367542,-0.15224 -0.6919651,-0.36901 -0.9732697,-0.6503 C 1.5973748,139.83998 1.3806021,139.51556 1.2283612,139.14803 1.0761204,138.78049 0.99999994,138.39781 1,138 v -14 c -6e-8,-0.39783 0.07612,-0.78052 0.2283612,-1.14806 0.1522409,-0.36755 0.3690136,-0.69197 0.6503183,-0.97327 0.2813046,-0.28131 0.6057277,-0.49809 0.9732697,-0.65032 C 3.2194915,121.07612 3.602175,121 4,121 Z" /></g><g
           transform="scale(2.9914529)"
           id="g294"><text
             id="text298"
             style="font-variant:normal;font-weight:normal;font-size:12px;font-family:ArialMT;-inkscape-font-specification:ArialMT;writing-mode:lr-tb;fill:#000000;fill-opacity:1;fill-rule:nonzero;stroke:none"
             transform="translate(6.96875,135)"><tspan
               id="tspan296"
               y="0"
               x="0 8.6660156 15.339844 18.673828 22.007812 28.681641 35.355469 42.029297 48.029297 54.703125 58.699219 65.373047 68.707031 75.380859 82.054688 88.728516 92.0625 95.396484 98.730469 105.4043 109.40039 115.40039 121.40039 124.73438 131.32031 134.6543 141.32812 148.00195 154.67578 161.34961 168.02344 174.69727 181.37109">No. nonzero nbor. arcs ≤ 28325491</tspan></text>
</g><g
           transform="matrix(2.9914529,0,0,2.9914529,1.4957265,1.4957265)"
           id="g300"><path
             id="path302"
             style="fill:none;stroke:#000000;stroke-width:1;stroke-linecap:butt;stroke-linejoin:miter;stroke-miterlimit:10;stroke-dasharray:none;stroke-opacity:1"
             d="m 211,181 v 10 h 55 v 3.63" /><path
             id="path304"
             style="fill:#000000;fill-opacity:1;fill-rule:nonzero;stroke:none"
             d="m 266,199.88 -3.5,-7 3.5,1.75 3.5,-1.75 z" /><path
             id="path306"
             style="fill:none;stroke:#000000;stroke-width:1;stroke-linecap:butt;stroke-linejoin:miter;stroke-miterlimit:10;stroke-dasharray:none;stroke-opacity:1"
             d="m 266,199.88 -3.5,-7 3.5,1.75 3.5,-1.75 z" /></g><g
           transform="scale(2.9914529)"
           id="g308"><path
             id="path310"
             style="fill:#ffffff;fill-opacity:1;fill-rule:nonzero;stroke:none"
             d="m 234,186 h 17 v 13 h -17 z" /><text
             id="text314"
             style="font-variant:normal;font-weight:normal;font-size:11px;font-family:ArialMT;-inkscape-font-specification:ArialMT;writing-mode:lr-tb;fill:#000000;fill-opacity:1;fill-rule:nonzero;stroke:none"
             transform="translate(233.53125,196)"><tspan
               id="tspan312"
               y="0"
               x="0 6.3271484 12.444824">Yes</tspan></text>
</g><g
           transform="matrix(2.9914529,0,0,2.9914529,1.4957265,1.4957265)"
           id="g316"><path
             id="path318"
             style="fill:none;stroke:#000000;stroke-width:1;stroke-linecap:butt;stroke-linejoin:miter;stroke-miterlimit:10;stroke-dasharray:none;stroke-opacity:1"
             d="m 211,181 v 10 h -55 v 3.63" /><path
             id="path320"
             style="fill:#000000;fill-opacity:1;fill-rule:nonzero;stroke:none"
             d="m 156,199.88 -3.5,-7 3.5,1.75 3.5,-1.75 z" /><path
             id="path322"
             style="fill:none;stroke:#000000;stroke-width:1;stroke-linecap:butt;stroke-linejoin:miter;stroke-miterlimit:10;stroke-dasharray:none;stroke-opacity:1"
             d="m 156,199.88 -3.5,-7 3.5,1.75 3.5,-1.75 z" /></g><g
           transform="scale(2.9914529)"
           id="g324"><path
             id="path326"
             style="fill:#ffffff;fill-opacity:1;fill-rule:nonzero;stroke:none"
             d="m 182,186 h 15 v 13 h -15 z" /><text
             id="text330"
             style="font-variant:normal;font-weight:normal;font-size:11px;font-family:ArialMT;-inkscape-font-specification:ArialMT;writing-mode:lr-tb;fill:#000000;fill-opacity:1;fill-rule:nonzero;stroke:none"
             transform="translate(182.46875,196)"><tspan
               id="tspan328"
               y="0"
               x="0 7.9438477">No</tspan></text>
</g><g
           transform="matrix(2.9914529,0,0,2.9914529,1.4957265,1.4957265)"
           id="g332"><path
             id="path334"
             style="fill:#ffffff;fill-opacity:1;fill-rule:nonzero;stroke:none"
             d="m 114,161 h 194 c 0.3978,0 0.78049,0.0761 1.14804,0.22836 0.36752,0.15224 0.69193,0.36901 0.97327,0.6503 0.28131,0.2813 0.49807,0.60571 0.6503,0.97325 0.15225,0.36754 0.22836,0.75025 0.22839,1.14809 v 14 c -3e-5,0.39781 -0.0761,0.78049 -0.22839,1.14803 -0.15223,0.36753 -0.36899,0.69197 -0.6503,0.97328 -0.28134,0.28129 -0.60575,0.49806 -0.97327,0.6503 C 308.78049,180.92384 308.3978,180.99998 308,181 H 114 c -0.39783,-2e-5 -0.78052,-0.0762 -1.14806,-0.22839 -0.36755,-0.15224 -0.69197,-0.36901 -0.97326,-0.6503 -0.28131,-0.28131 -0.49809,-0.60575 -0.65033,-0.97328 C 111.07611,178.78049 110.99999,178.39781 111,178 v -14 c -1e-5,-0.39784 0.0761,-0.78055 0.22835,-1.14809 0.15224,-0.36754 0.36902,-0.69195 0.65033,-0.97325 0.28129,-0.28129 0.60571,-0.49806 0.97326,-0.6503 C 113.21948,161.07613 113.60217,161 114,161 Z" /><path
             id="path336"
             style="fill:none;stroke:#000000;stroke-width:1;stroke-linecap:butt;stroke-linejoin:miter;stroke-miterlimit:10;stroke-dasharray:none;stroke-opacity:1"
             d="m 114,161 h 194 c 0.3978,0 0.78049,0.0761 1.14804,0.22836 0.36752,0.15224 0.69193,0.36901 0.97327,0.6503 0.28131,0.2813 0.49807,0.60571 0.6503,0.97325 0.15225,0.36754 0.22836,0.75025 0.22839,1.14809 v 14 c -3e-5,0.39781 -0.0761,0.78049 -0.22839,1.14803 -0.15223,0.36753 -0.36899,0.69197 -0.6503,0.97328 -0.28134,0.28129 -0.60575,0.49806 -0.97327,0.6503 C 308.78049,180.92384 308.3978,180.99998 308,181 H 114 c -0.39783,-2e-5 -0.78052,-0.0762 -1.14806,-0.22839 -0.36755,-0.15224 -0.69197,-0.36901 -0.97326,-0.6503 -0.28131,-0.28131 -0.49809,-0.60575 -0.65033,-0.97328 C 111.07611,178.78049 110.99999,178.39781 111,178 v -14 c -1e-5,-0.39784 0.0761,-0.78055 0.22835,-1.14809 0.15224,-0.36754 0.36902,-0.69195 0.65033,-0.97325 0.28129,-0.28129 0.60571,-0.49806 0.97326,-0.6503 C 113.21948,161.07613 113.60217,161 114,161 Z" /></g><g
           transform="scale(2.9914529)"
           id="g338"><text
             id="text342"
             style="font-variant:normal;font-weight:normal;font-size:12px;font-family:ArialMT;-inkscape-font-specification:ArialMT;writing-mode:lr-tb;fill:#000000;fill-opacity:1;fill-rule:nonzero;stroke:none"
             transform="translate(126.29688,175)"><tspan
               id="tspan340"
               y="0"
               x="0 3.3339844 10.007812 13.341797 19.341797 26.015625 32.689453 36.023438 39.357422 46.03125 52.705078 56.039062 59.373047 66.046875 72.720703 79.394531 85.394531 92.068359 96.064453 102.73828 106.07227 112.6582 115.99219 122.66602 129.33984 136.01367 142.6875 149.36133 156.03516 162.70898">In cap. no. nonzero ≤ 45024258</tspan></text>
</g><g
           transform="matrix(2.9914529,0,0,2.9914529,1.4957265,1.4957265)"
           id="g344"><path
             id="path346"
             style="fill:#f8cecc;fill-opacity:1;fill-rule:nonzero;stroke:none"
             d="m 224,121 h 84 c 0.3978,0 0.78049,0.0761 1.14804,0.22835 0.36752,0.15223 0.69193,0.36901 0.97327,0.65032 0.28131,0.2813 0.49807,0.60572 0.6503,0.97327 0.15225,0.36754 0.22836,0.75023 0.22839,1.14806 v 14 c -3e-5,0.39781 -0.0761,0.78049 -0.22839,1.14803 -0.15223,0.36753 -0.36899,0.69195 -0.6503,0.97328 -0.28134,0.28129 -0.60575,0.49806 -0.97327,0.6503 C 308.78049,140.92386 308.3978,140.99998 308,141 h -84 c -0.39784,-2e-5 -0.78053,-0.0761 -1.14807,-0.22839 -0.36754,-0.15224 -0.69197,-0.36901 -0.97327,-0.6503 -0.28131,-0.28133 -0.49809,-0.60575 -0.65033,-0.97328 C 221.0761,138.78049 220.99998,138.39781 221,138 v -14 c -2e-5,-0.39783 0.0761,-0.78052 0.22833,-1.14806 0.15224,-0.36755 0.36902,-0.69197 0.65033,-0.97327 0.2813,-0.28131 0.60573,-0.49809 0.97327,-0.65032 C 223.21947,121.07612 223.60216,121 224,121 Z" /><path
             id="path348"
             style="fill:none;stroke:#b85450;stroke-width:1;stroke-linecap:butt;stroke-linejoin:miter;stroke-miterlimit:10;stroke-dasharray:none;stroke-opacity:1"
             d="m 224,121 h 84 c 0.3978,0 0.78049,0.0761 1.14804,0.22835 0.36752,0.15223 0.69193,0.36901 0.97327,0.65032 0.28131,0.2813 0.49807,0.60572 0.6503,0.97327 0.15225,0.36754 0.22836,0.75023 0.22839,1.14806 v 14 c -3e-5,0.39781 -0.0761,0.78049 -0.22839,1.14803 -0.15223,0.36753 -0.36899,0.69195 -0.6503,0.97328 -0.28134,0.28129 -0.60575,0.49806 -0.97327,0.6503 C 308.78049,140.92386 308.3978,140.99998 308,141 h -84 c -0.39784,-2e-5 -0.78053,-0.0761 -1.14807,-0.22839 -0.36754,-0.15224 -0.69197,-0.36901 -0.97327,-0.6503 -0.28131,-0.28133 -0.49809,-0.60575 -0.65033,-0.97328 C 221.0761,138.78049 220.99998,138.39781 221,138 v -14 c -2e-5,-0.39783 0.0761,-0.78052 0.22833,-1.14806 0.15224,-0.36755 0.36902,-0.69197 0.65033,-0.97327 0.2813,-0.28131 0.60573,-0.49809 0.97327,-0.65032 C 223.21947,121.07612 223.60216,121 224,121 Z" /></g><g
           transform="scale(2.9914529)"
           id="g350"><text
             id="text354"
             style="font-variant:normal;font-weight:normal;font-size:12px;font-family:ArialMT;-inkscape-font-specification:ArialMT;writing-mode:lr-tb;fill:#000000;fill-opacity:1;fill-rule:nonzero;stroke:none"
             transform="translate(250.65625,135)"><tspan
               id="tspan352"
               y="0"
               x="0 8.0039062 14.677734 18.673828 21.339844 28.013672">Serial</tspan></text>
</g><g
           transform="matrix(2.9914529,0,0,2.9914529,1.4957265,1.4957265)"
           id="g356"><path
             id="path358"
             style="fill:#f8cecc;fill-opacity:1;fill-rule:nonzero;stroke:none"
             d="m 4,161 h 84 c 0.397812,0 0.780495,0.0761 1.148041,0.22836 0.367531,0.15224 0.691955,0.36901 0.973266,0.6503 0.281304,0.2813 0.498078,0.60571 0.650322,0.97325 C 90.923866,163.21945 90.999992,163.60216 91,164 v 14 c -8e-6,0.39781 -0.07613,0.78049 -0.228378,1.14803 -0.152245,0.36753 -0.369011,0.69197 -0.650315,0.97328 -0.281311,0.28129 -0.605735,0.49806 -0.973266,0.6503 C 88.780495,180.92384 88.397812,180.99998 88,181 H 4 c -0.397825,-2e-5 -0.7805085,-0.0762 -1.1480508,-0.22839 -0.367542,-0.15224 -0.6919651,-0.36901 -0.9732697,-0.6503 C 1.5973748,179.84 1.3806021,179.51556 1.2283612,179.14803 1.0761204,178.78049 0.99999994,178.39781 1,178 v -14 c -6e-8,-0.39784 0.07612,-0.78055 0.2283612,-1.14809 0.1522409,-0.36754 0.3690136,-0.69195 0.6503183,-0.97325 0.2813046,-0.28129 0.6057277,-0.49806 0.9732697,-0.6503 C 3.2194915,161.07613 3.602175,161 4,161 Z" /><path
             id="path360"
             style="fill:none;stroke:#b85450;stroke-width:1;stroke-linecap:butt;stroke-linejoin:miter;stroke-miterlimit:10;stroke-dasharray:none;stroke-opacity:1"
             d="m 4,161 h 84 c 0.397812,0 0.780495,0.0761 1.148041,0.22836 0.367531,0.15224 0.691955,0.36901 0.973266,0.6503 0.281304,0.2813 0.498078,0.60571 0.650322,0.97325 C 90.923866,163.21945 90.999992,163.60216 91,164 v 14 c -8e-6,0.39781 -0.07613,0.78049 -0.228378,1.14803 -0.152245,0.36753 -0.369011,0.69197 -0.650315,0.97328 -0.281311,0.28129 -0.605735,0.49806 -0.973266,0.6503 C 88.780495,180.92384 88.397812,180.99998 88,181 H 4 c -0.397825,-2e-5 -0.7805085,-0.0762 -1.1480508,-0.22839 -0.367542,-0.15224 -0.6919651,-0.36901 -0.9732697,-0.6503 C 1.5973748,179.84 1.3806021,179.51556 1.2283612,179.14803 1.0761204,178.78049 0.99999994,178.39781 1,178 v -14 c -6e-8,-0.39784 0.07612,-0.78055 0.2283612,-1.14809 0.1522409,-0.36754 0.3690136,-0.69195 0.6503183,-0.97325 0.2813046,-0.28129 0.6057277,-0.49806 0.9732697,-0.6503 C 3.2194915,161.07613 3.602175,161 4,161 Z" /></g><g
           transform="scale(2.9914529)"
           id="g362"><text
             id="text366"
             style="font-variant:normal;font-weight:normal;font-size:12px;font-family:ArialMT;-inkscape-font-specification:ArialMT;writing-mode:lr-tb;fill:#000000;fill-opacity:1;fill-rule:nonzero;stroke:none"
             transform="translate(27.328125,175)"><tspan
               id="tspan364"
               y="0"
               x="0 8.0039062 12 20.003906 28.669922">P-ARD</tspan></text>
</g></g></g></g></svg>