<?xml version="1.0" encoding="utf-8" standalone="no"?>
<!DOCTYPE svg PUBLIC "-//W3C//DTD SVG 1.1//EN"
  "http://www.w3.org/Graphics/SVG/1.1/DTD/svg11.dtd">
<svg xmlns:xlink="http://www.w3.org/1999/xlink" width="211.618347pt" height="138.241353pt" viewBox="0 0 211.618347 138.241353" xmlns="http://www.w3.org/2000/svg" version="1.1">
 <metadata>
  <rdf:RDF xmlns:dc="http://purl.org/dc/elements/1.1/" xmlns:cc="http://creativecommons.org/ns#" xmlns:rdf="http://www.w3.org/1999/02/22-rdf-syntax-ns#">
   <cc:Work>
    <dc:type rdf:resource="http://purl.org/dc/dcmitype/StillImage"/>
    <dc:date>2022-04-21T15:07:41.498319</dc:date>
    <dc:format>image/svg+xml</dc:format>
    <dc:creator>
     <cc:Agent>
      <dc:title>Matplotlib v3.5.1, https://matplotlib.org/</dc:title>
     </cc:Agent>
    </dc:creator>
   </cc:Work>
  </rdf:RDF>
 </metadata>
 <defs>
  <style type="text/css">*{stroke-linejoin: round; stroke-linecap: butt}</style>
 </defs>
 <g id="figure_1">
  <g id="patch_1">
   <path d="M 0 138.241353 
L 211.618347 138.241353 
L 211.618347 -0 
L 0 -0 
L 0 138.241353 
z
" style="fill: none"/>
  </g>
  <g id="axes_1">
   <g id="patch_2">
    <path d="M 37.018347 102.33 
L 204.418347 102.33 
L 204.418347 7.2 
L 37.018347 7.2 
z
" style="fill: #ffffff"/>
   </g>
   <g id="PolyCollection_1">
    <path d="M 54.583258 98.005909 
L 44.627438 98.005909 
L 44.627438 98.005909 
L 44.627438 98.005909 
L 44.627438 98.005909 
L 44.627438 98.005909 
L 44.627438 98.005909 
L 44.627438 98.005909 
L 44.627438 98.005909 
L 44.627438 98.005909 
L 44.627438 98.005909 
L 44.627438 98.005909 
L 44.627438 98.005909 
L 44.627438 98.005909 
L 44.627438 98.005909 
L 44.627438 98.005909 
L 44.627438 98.005909 
L 44.627438 98.005909 
L 44.627438 98.005909 
L 44.627438 98.005909 
L 44.627438 98.005909 
L 44.627438 98.005909 
L 44.627438 98.005909 
L 44.627438 98.005909 
L 44.627438 98.005909 
L 44.627438 98.005909 
L 44.627438 98.005909 
L 44.627438 98.005909 
L 44.627438 98.005909 
L 44.627438 98.005909 
L 44.627438 98.005909 
L 44.627438 98.005909 
L 44.627438 98.005909 
L 44.627438 98.005909 
L 44.627438 98.005909 
L 44.627438 98.005909 
L 44.627438 98.005909 
L 44.627438 98.005909 
L 44.627438 98.005909 
L 44.627438 98.005909 
L 44.627438 98.005909 
L 44.627438 98.005909 
L 44.627438 98.005909 
L 44.627438 98.005909 
L 44.627438 98.005909 
L 44.627438 98.005909 
L 44.627438 98.005909 
L 44.627438 98.005909 
L 44.627438 98.005909 
L 44.627438 98.005909 
L 44.627438 98.005909 
L 44.627438 98.005909 
L 44.627438 98.005909 
L 44.627438 98.005909 
L 44.627438 98.005909 
L 44.627438 98.005909 
L 44.627438 98.005909 
L 44.627438 98.005909 
L 44.627438 98.005909 
L 44.627438 98.005909 
L 44.627438 98.005909 
L 44.627438 98.005909 
L 44.627438 98.005909 
L 44.627438 98.005909 
L 44.627438 98.005909 
L 44.627438 98.005909 
L 44.627438 98.005909 
L 44.627438 98.005909 
L 44.627438 98.005909 
L 44.627438 98.005909 
L 44.627438 98.005909 
L 44.627438 98.005909 
L 44.627438 98.005909 
L 44.627438 98.005909 
L 44.627438 98.005909 
L 44.627438 98.005909 
L 44.627438 98.005909 
L 44.627438 98.005909 
L 44.627438 98.005909 
L 44.627438 98.005909 
L 44.627438 98.005909 
L 44.627438 98.005909 
L 44.627438 98.005909 
L 44.627438 98.005909 
L 44.627438 98.005909 
L 44.627438 98.005909 
L 44.627438 98.005909 
L 44.627438 98.005909 
L 44.627438 98.005909 
L 44.627438 98.005909 
L 44.627438 98.005909 
L 44.627438 98.005909 
L 44.627438 98.005909 
L 44.627438 98.005909 
L 44.627438 98.005909 
L 44.627438 98.005909 
L 44.627438 98.005909 
L 44.627438 98.005909 
L 44.627438 98.005909 
L 44.627438 98.005909 
L 44.627438 98.005909 
L 54.583258 98.005909 
L 54.583258 98.005909 
L 54.583258 98.005909 
L 54.583258 98.005909 
L 54.583258 98.005909 
L 54.583258 98.005909 
L 54.583258 98.005909 
L 54.583258 98.005909 
L 54.583258 98.005909 
L 54.583258 98.005909 
L 54.583258 98.005909 
L 54.583258 98.005909 
L 54.583258 98.005909 
L 54.583258 98.005909 
L 54.583258 98.005909 
L 54.583258 98.005909 
L 54.583258 98.005909 
L 54.583258 98.005909 
L 54.583258 98.005909 
L 54.583258 98.005909 
L 54.583258 98.005909 
L 54.583258 98.005909 
L 54.583258 98.005909 
L 54.583258 98.005909 
L 54.583258 98.005909 
L 54.583258 98.005909 
L 54.583258 98.005909 
L 54.583258 98.005909 
L 54.583258 98.005909 
L 54.583258 98.005909 
L 54.583258 98.005909 
L 54.583258 98.005909 
L 54.583258 98.005909 
L 54.583258 98.005909 
L 54.583258 98.005909 
L 54.583258 98.005909 
L 54.583258 98.005909 
L 54.583258 98.005909 
L 54.583258 98.005909 
L 54.583258 98.005909 
L 54.583258 98.005909 
L 54.583258 98.005909 
L 54.583258 98.005909 
L 54.583258 98.005909 
L 54.583258 98.005909 
L 54.583258 98.005909 
L 54.583258 98.005909 
L 54.583258 98.005909 
L 54.583258 98.005909 
L 54.583258 98.005909 
L 54.583258 98.005909 
L 54.583258 98.005909 
L 54.583258 98.005909 
L 54.583258 98.005909 
L 54.583258 98.005909 
L 54.583258 98.005909 
L 54.583258 98.005909 
L 54.583258 98.005909 
L 54.583258 98.005909 
L 54.583258 98.005909 
L 54.583258 98.005909 
L 54.583258 98.005909 
L 54.583258 98.005909 
L 54.583258 98.005909 
L 54.583258 98.005909 
L 54.583258 98.005909 
L 54.583258 98.005909 
L 54.583258 98.005909 
L 54.583258 98.005909 
L 54.583258 98.005909 
L 54.583258 98.005909 
L 54.583258 98.005909 
L 54.583258 98.005909 
L 54.583258 98.005909 
L 54.583258 98.005909 
L 54.583258 98.005909 
L 54.583258 98.005909 
L 54.583258 98.005909 
L 54.583258 98.005909 
L 54.583258 98.005909 
L 54.583258 98.005909 
L 54.583258 98.005909 
L 54.583258 98.005909 
L 54.583258 98.005909 
L 54.583258 98.005909 
L 54.583258 98.005909 
L 54.583258 98.005909 
L 54.583258 98.005909 
L 54.583258 98.005909 
L 54.583258 98.005909 
L 54.583258 98.005909 
L 54.583258 98.005909 
L 54.583258 98.005909 
L 54.583258 98.005909 
L 54.583258 98.005909 
L 54.583258 98.005909 
L 54.583258 98.005909 
L 54.583258 98.005909 
L 54.583258 98.005909 
L 54.583258 98.005909 
L 54.583258 98.005909 
z
" clip-path="url(#p1ebd7c028b)" style="fill: #ff0000; fill-opacity: 0.3"/>
   </g>
   <g id="PolyCollection_2">
    <path d="M 78.258367 96.851691 
L 77.842729 96.851691 
L 77.84594 96.817307 
L 77.855291 96.782922 
L 77.869915 96.748537 
L 77.888506 96.714153 
L 77.909485 96.679768 
L 77.93119 96.645384 
L 77.952025 96.610999 
L 77.970571 96.576614 
L 77.985613 96.54223 
L 77.996108 96.507845 
L 78.001102 96.47346 
L 77.999628 96.439076 
L 77.990627 96.404691 
L 77.972921 96.370307 
L 77.945267 96.335922 
L 77.906516 96.301537 
L 77.855841 96.267153 
L 77.793021 96.232768 
L 77.718711 96.198383 
L 77.634623 96.163999 
L 77.543545 96.129614 
L 77.449141 96.09523 
L 77.35553 96.060845 
L 77.266671 96.02646 
L 77.185671 95.992076 
L 77.114136 95.957691 
L 77.051722 95.923306 
L 76.996011 95.888922 
L 76.942747 95.854537 
L 76.886443 95.820153 
L 76.821208 95.785768 
L 76.74166 95.751383 
L 76.64371 95.716999 
L 76.525052 95.682614 
L 76.38526 95.648229 
L 76.225473 95.613845 
L 76.047775 95.57946 
L 75.854449 95.545076 
L 75.647328 95.510691 
L 75.427451 95.476306 
L 75.195175 95.441922 
L 74.95073 95.407537 
L 74.69512 95.373152 
L 74.43111 95.338768 
L 74.164012 95.304383 
L 73.902005 95.269998 
L 73.655832 95.235614 
L 73.437887 95.201229 
L 73.260848 95.166845 
L 73.136156 95.13246 
L 73.072638 95.098075 
L 73.075547 95.063691 
L 73.146141 95.029306 
L 73.281796 94.994921 
L 73.476531 94.960537 
L 73.721749 94.926152 
L 74.007037 94.891768 
L 74.320898 94.857383 
L 74.651379 94.822998 
L 74.986628 94.788614 
L 75.31541 94.754229 
L 75.627626 94.719844 
L 75.914824 94.68546 
L 76.170646 94.651075 
L 76.39114 94.616691 
L 76.574866 94.582306 
L 76.722744 94.547921 
L 76.837666 94.513537 
L 76.923921 94.479152 
L 76.986533 94.444767 
L 77.030631 94.410383 
L 77.060935 94.375998 
L 77.081448 94.341614 
L 77.095363 94.307229 
L 77.105166 94.272844 
L 77.112862 94.23846 
L 77.120251 94.204075 
L 77.12914 94.16969 
L 77.141441 94.135306 
L 77.159109 94.100921 
L 77.183931 94.066537 
L 77.217227 94.032152 
L 77.259537 93.997767 
L 77.310396 93.963383 
L 77.368264 93.928998 
L 77.430654 93.894613 
L 77.494445 93.860229 
L 77.556324 93.825844 
L 77.613267 93.79146 
L 77.66298 93.757075 
L 77.704184 93.72269 
L 77.736732 93.688306 
L 77.76152 93.653921 
L 77.780234 93.619536 
L 77.795001 93.585152 
L 77.808005 93.550767 
L 77.821142 93.516383 
L 77.83578 93.481998 
L 77.852633 93.447613 
L 78.248462 93.447613 
L 78.248462 93.447613 
L 78.265316 93.481998 
L 78.279953 93.516383 
L 78.29309 93.550767 
L 78.306094 93.585152 
L 78.320862 93.619536 
L 78.339576 93.653921 
L 78.364363 93.688306 
L 78.396911 93.72269 
L 78.438115 93.757075 
L 78.487828 93.79146 
L 78.544772 93.825844 
L 78.60665 93.860229 
L 78.670441 93.894613 
L 78.732832 93.928998 
L 78.7907 93.963383 
L 78.841558 93.997767 
L 78.883868 94.032152 
L 78.917164 94.066537 
L 78.941987 94.100921 
L 78.959655 94.135306 
L 78.971956 94.16969 
L 78.980844 94.204075 
L 78.988233 94.23846 
L 78.99593 94.272844 
L 79.005732 94.307229 
L 79.019648 94.341614 
L 79.040161 94.375998 
L 79.070465 94.410383 
L 79.114562 94.444767 
L 79.177175 94.479152 
L 79.263429 94.513537 
L 79.378351 94.547921 
L 79.526229 94.582306 
L 79.709955 94.616691 
L 79.93045 94.651075 
L 80.186271 94.68546 
L 80.473469 94.719844 
L 80.785686 94.754229 
L 81.114467 94.788614 
L 81.449717 94.822998 
L 81.780198 94.857383 
L 82.094058 94.891768 
L 82.379346 94.926152 
L 82.624564 94.960537 
L 82.819299 94.994921 
L 82.954955 95.029306 
L 83.025549 95.063691 
L 83.028458 95.098075 
L 82.96494 95.13246 
L 82.840247 95.166845 
L 82.663208 95.201229 
L 82.445263 95.235614 
L 82.199091 95.269998 
L 81.937083 95.304383 
L 81.669985 95.338768 
L 81.405976 95.373152 
L 81.150366 95.407537 
L 80.905921 95.441922 
L 80.673644 95.476306 
L 80.453768 95.510691 
L 80.246647 95.545076 
L 80.053321 95.57946 
L 79.875623 95.613845 
L 79.715835 95.648229 
L 79.576043 95.682614 
L 79.457386 95.716999 
L 79.359435 95.751383 
L 79.279887 95.785768 
L 79.214652 95.820153 
L 79.158348 95.854537 
L 79.105085 95.888922 
L 79.049373 95.923306 
L 78.98696 95.957691 
L 78.915424 95.992076 
L 78.834424 96.02646 
L 78.745566 96.060845 
L 78.651955 96.09523 
L 78.557551 96.129614 
L 78.466473 96.163999 
L 78.382385 96.198383 
L 78.308075 96.232768 
L 78.245254 96.267153 
L 78.194579 96.301537 
L 78.155828 96.335922 
L 78.128175 96.370307 
L 78.110468 96.404691 
L 78.101467 96.439076 
L 78.099994 96.47346 
L 78.104987 96.507845 
L 78.115482 96.54223 
L 78.130524 96.576614 
L 78.14907 96.610999 
L 78.169906 96.645384 
L 78.19161 96.679768 
L 78.21259 96.714153 
L 78.23118 96.748537 
L 78.245804 96.782922 
L 78.255155 96.817307 
L 78.258367 96.851691 
z
" clip-path="url(#p1ebd7c028b)" style="fill: #ff0000; fill-opacity: 0.3"/>
   </g>
   <g id="PolyCollection_3">
    <path d="M 107.972353 91.352534 
L 105.019142 91.352534 
L 104.820095 91.299009 
L 104.604251 91.245484 
L 104.37306 91.191959 
L 104.128976 91.138434 
L 103.875533 91.084908 
L 103.617352 91.031383 
L 103.360063 90.977858 
L 103.110119 90.924333 
L 102.874528 90.870808 
L 102.660501 90.817283 
L 102.475037 90.763757 
L 102.324498 90.710232 
L 102.214178 90.656707 
L 102.147935 90.603182 
L 102.127899 90.549657 
L 102.15429 90.496131 
L 102.225366 90.442606 
L 102.337495 90.389081 
L 102.485352 90.335556 
L 102.662219 90.282031 
L 102.860349 90.228505 
L 103.071377 90.17498 
L 103.286735 90.121455 
L 103.498032 90.06793 
L 103.697397 90.014405 
L 103.877745 89.960879 
L 104.032969 89.907354 
L 104.158068 89.853829 
L 104.249199 89.800304 
L 104.303689 89.746779 
L 104.320005 89.693253 
L 104.297707 89.639728 
L 104.237393 89.586203 
L 104.140639 89.532678 
L 104.009949 89.479153 
L 103.848702 89.425627 
L 103.661096 89.372102 
L 103.452079 89.318577 
L 103.227269 89.265052 
L 102.992838 89.211527 
L 102.755371 89.158002 
L 102.521697 89.104476 
L 102.298687 89.050951 
L 102.093028 88.997426 
L 101.910998 88.943901 
L 101.758229 88.890376 
L 101.639493 88.83685 
L 101.558517 88.783325 
L 101.517837 88.7298 
L 101.518705 88.676275 
L 101.561051 88.62275 
L 101.64351 88.569224 
L 101.763507 88.515699 
L 101.917391 88.462174 
L 102.100625 88.408649 
L 102.308 88.355124 
L 102.53388 88.301598 
L 102.772446 88.248073 
L 103.017942 88.194548 
L 103.264897 88.141023 
L 103.508322 88.087498 
L 103.743862 88.033972 
L 103.967911 87.980447 
L 104.177679 87.926922 
L 104.371213 87.873397 
L 104.547375 87.819872 
L 104.705784 87.766347 
L 104.846727 87.712821 
L 104.971053 87.659296 
L 105.080045 87.605771 
L 105.17529 87.552246 
L 105.258551 87.498721 
L 105.331646 87.445195 
L 105.396337 87.39167 
L 105.454238 87.338145 
L 105.506741 87.28462 
L 105.554964 87.231095 
L 105.59972 87.177569 
L 105.64151 87.124044 
L 105.680537 87.070519 
L 105.716741 87.016994 
L 105.749852 86.963469 
L 105.779457 86.909943 
L 105.805075 86.856418 
L 105.826241 86.802893 
L 105.842586 86.749368 
L 105.853906 86.695843 
L 105.860228 86.642317 
L 105.861843 86.588792 
L 105.859326 86.535267 
L 105.85353 86.481742 
L 105.845546 86.428217 
L 105.836652 86.374691 
L 105.828234 86.321166 
L 105.821699 86.267641 
L 105.81838 86.214116 
L 105.81945 86.160591 
L 105.825838 86.107066 
L 105.838173 86.05354 
L 107.153322 86.05354 
L 107.153322 86.05354 
L 107.165657 86.107066 
L 107.172045 86.160591 
L 107.173114 86.214116 
L 107.169796 86.267641 
L 107.163261 86.321166 
L 107.154843 86.374691 
L 107.145949 86.428217 
L 107.137965 86.481742 
L 107.132169 86.535267 
L 107.129652 86.588792 
L 107.131267 86.642317 
L 107.137589 86.695843 
L 107.148909 86.749368 
L 107.165253 86.802893 
L 107.186419 86.856418 
L 107.212038 86.909943 
L 107.241643 86.963469 
L 107.274754 87.016994 
L 107.310958 87.070519 
L 107.349985 87.124044 
L 107.391775 87.177569 
L 107.43653 87.231095 
L 107.484753 87.28462 
L 107.537257 87.338145 
L 107.595158 87.39167 
L 107.659849 87.445195 
L 107.732944 87.498721 
L 107.816205 87.552246 
L 107.91145 87.605771 
L 108.020441 87.659296 
L 108.144768 87.712821 
L 108.285711 87.766347 
L 108.44412 87.819872 
L 108.620281 87.873397 
L 108.813816 87.926922 
L 109.023584 87.980447 
L 109.247633 88.033972 
L 109.483173 88.087498 
L 109.726597 88.141023 
L 109.973553 88.194548 
L 110.219049 88.248073 
L 110.457615 88.301598 
L 110.683495 88.355124 
L 110.89087 88.408649 
L 111.074104 88.462174 
L 111.227988 88.515699 
L 111.347985 88.569224 
L 111.430444 88.62275 
L 111.47279 88.676275 
L 111.473657 88.7298 
L 111.432978 88.783325 
L 111.352002 88.83685 
L 111.233266 88.890376 
L 111.080497 88.943901 
L 110.898467 88.997426 
L 110.692808 89.050951 
L 110.469797 89.104476 
L 110.236124 89.158002 
L 109.998657 89.211527 
L 109.764226 89.265052 
L 109.539415 89.318577 
L 109.330399 89.372102 
L 109.142792 89.425627 
L 108.981546 89.479153 
L 108.850856 89.532678 
L 108.754102 89.586203 
L 108.693788 89.639728 
L 108.67149 89.693253 
L 108.687806 89.746779 
L 108.742296 89.800304 
L 108.833427 89.853829 
L 108.958525 89.907354 
L 109.11375 89.960879 
L 109.294098 90.014405 
L 109.493463 90.06793 
L 109.70476 90.121455 
L 109.920117 90.17498 
L 110.131146 90.228505 
L 110.329276 90.282031 
L 110.506143 90.335556 
L 110.654 90.389081 
L 110.766129 90.442606 
L 110.837204 90.496131 
L 110.863596 90.549657 
L 110.843559 90.603182 
L 110.777317 90.656707 
L 110.666997 90.710232 
L 110.516457 90.763757 
L 110.330994 90.817283 
L 110.116967 90.870808 
L 109.881376 90.924333 
L 109.631432 90.977858 
L 109.374143 91.031383 
L 109.115962 91.084908 
L 108.862518 91.138434 
L 108.618434 91.191959 
L 108.387244 91.245484 
L 108.1714 91.299009 
L 107.972353 91.352534 
z
" clip-path="url(#p1ebd7c028b)" style="fill: #ff0000; fill-opacity: 0.3"/>
   </g>
   <g id="PolyCollection_4">
    <path d="M 123.985521 91.541493 
L 122.284724 91.541493 
L 122.290631 91.405369 
L 122.310074 91.269244 
L 122.341872 91.13312 
L 122.384222 90.996996 
L 122.434833 90.860872 
L 122.491102 90.724748 
L 122.550296 90.588624 
L 122.60974 90.452499 
L 122.666977 90.316375 
L 122.719897 90.180251 
L 122.76682 90.044127 
L 122.806528 89.908003 
L 122.838256 89.771879 
L 122.861629 89.635754 
L 122.876577 89.49963 
L 122.883217 89.363506 
L 122.881723 89.227382 
L 122.872197 89.091258 
L 122.854548 88.955134 
L 122.828395 88.819009 
L 122.792997 88.682885 
L 122.747218 88.546761 
L 122.689547 88.410637 
L 122.61815 88.274513 
L 122.530977 88.138389 
L 122.425908 88.002265 
L 122.300928 87.86614 
L 122.154325 87.730016 
L 121.984893 87.593892 
L 121.792117 87.457768 
L 121.576334 87.321644 
L 121.338847 87.18552 
L 121.081978 87.049395 
L 120.809066 86.913271 
L 120.524392 86.777147 
L 120.233046 86.641023 
L 119.940742 86.504899 
L 119.653585 86.368775 
L 119.377812 86.23265 
L 119.119511 86.096526 
L 118.884341 85.960402 
L 118.677258 85.824278 
L 118.502253 85.688154 
L 118.36214 85.55203 
L 118.25837 85.415906 
L 118.190914 85.279781 
L 118.158214 85.143657 
L 118.157213 85.007533 
L 118.18347 84.871409 
L 118.231377 84.735285 
L 118.294446 84.599161 
L 118.365689 84.463036 
L 118.438038 84.326912 
L 118.504815 84.190788 
L 118.560186 84.054664 
L 118.59959 83.91854 
L 118.620097 83.782416 
L 118.620659 83.646291 
L 118.60223 83.510167 
L 118.567734 83.374043 
L 118.52188 83.237919 
L 118.470811 83.101795 
L 118.421643 82.965671 
L 118.381891 82.829547 
L 118.358865 82.693422 
L 118.359078 82.557298 
L 118.387714 82.421174 
L 118.448235 82.28505 
L 118.542131 82.148926 
L 118.668868 82.012802 
L 118.826012 81.876677 
L 119.009508 81.740553 
L 119.214093 81.604429 
L 119.433768 81.468305 
L 119.662285 81.332181 
L 119.893597 81.196057 
L 120.122219 81.059932 
L 120.34348 80.923808 
L 120.553662 80.787684 
L 120.750014 80.65156 
L 120.930689 80.515436 
L 121.094624 80.379312 
L 121.241385 80.243188 
L 121.371033 80.107063 
L 121.484011 79.970939 
L 121.581071 79.834815 
L 121.663244 79.698691 
L 121.731842 79.562567 
L 121.788467 79.426443 
L 121.835016 79.290318 
L 121.873668 79.154194 
L 121.906824 79.01807 
L 121.937019 78.881946 
L 121.966789 78.745822 
L 121.998515 78.609698 
L 122.034267 78.473573 
L 122.075658 78.337449 
L 122.123726 78.201325 
L 122.178874 78.065201 
L 124.091371 78.065201 
L 124.091371 78.065201 
L 124.146519 78.201325 
L 124.194587 78.337449 
L 124.235978 78.473573 
L 124.27173 78.609698 
L 124.303456 78.745822 
L 124.333226 78.881946 
L 124.363421 79.01807 
L 124.396577 79.154194 
L 124.435229 79.290318 
L 124.481778 79.426443 
L 124.538403 79.562567 
L 124.607001 79.698691 
L 124.689174 79.834815 
L 124.786234 79.970939 
L 124.899212 80.107063 
L 125.02886 80.243188 
L 125.175621 80.379312 
L 125.339556 80.515436 
L 125.520231 80.65156 
L 125.716583 80.787684 
L 125.926765 80.923808 
L 126.148027 81.059932 
L 126.376648 81.196057 
L 126.60796 81.332181 
L 126.836477 81.468305 
L 127.056152 81.604429 
L 127.260737 81.740553 
L 127.444233 81.876677 
L 127.601377 82.012802 
L 127.728114 82.148926 
L 127.82201 82.28505 
L 127.882531 82.421174 
L 127.911167 82.557298 
L 127.91138 82.693422 
L 127.888354 82.829547 
L 127.848602 82.965671 
L 127.799434 83.101795 
L 127.748365 83.237919 
L 127.702511 83.374043 
L 127.668015 83.510167 
L 127.649586 83.646291 
L 127.650148 83.782416 
L 127.670655 83.91854 
L 127.710059 84.054664 
L 127.76543 84.190788 
L 127.832207 84.326912 
L 127.904556 84.463036 
L 127.975799 84.599161 
L 128.038868 84.735285 
L 128.086775 84.871409 
L 128.113032 85.007533 
L 128.112031 85.143657 
L 128.079331 85.279781 
L 128.011875 85.415906 
L 127.908105 85.55203 
L 127.767992 85.688154 
L 127.592987 85.824278 
L 127.385904 85.960402 
L 127.150734 86.096526 
L 126.892433 86.23265 
L 126.61666 86.368775 
L 126.329503 86.504899 
L 126.037199 86.641023 
L 125.745853 86.777147 
L 125.461179 86.913271 
L 125.188267 87.049395 
L 124.931398 87.18552 
L 124.693911 87.321644 
L 124.478128 87.457768 
L 124.285352 87.593892 
L 124.11592 87.730016 
L 123.969317 87.86614 
L 123.844337 88.002265 
L 123.739268 88.138389 
L 123.652095 88.274513 
L 123.580698 88.410637 
L 123.523027 88.546761 
L 123.477248 88.682885 
L 123.44185 88.819009 
L 123.415697 88.955134 
L 123.398048 89.091258 
L 123.388522 89.227382 
L 123.387028 89.363506 
L 123.393668 89.49963 
L 123.408617 89.635754 
L 123.431989 89.771879 
L 123.463717 89.908003 
L 123.503425 90.044127 
L 123.550348 90.180251 
L 123.603268 90.316375 
L 123.660505 90.452499 
L 123.719949 90.588624 
L 123.779143 90.724748 
L 123.835412 90.860872 
L 123.886023 90.996996 
L 123.928373 91.13312 
L 123.960171 91.269244 
L 123.979614 91.405369 
L 123.985521 91.541493 
z
" clip-path="url(#p1ebd7c028b)" style="fill: #ff0000; fill-opacity: 0.3"/>
   </g>
   <g id="PolyCollection_5">
    <path d="M 135.438166 89.575285 
L 134.443728 89.575285 
L 134.446929 89.395572 
L 134.459018 89.215859 
L 134.479112 89.036146 
L 134.505884 88.856433 
L 134.537687 88.67672 
L 134.572704 88.497007 
L 134.609101 88.317294 
L 134.645176 88.137581 
L 134.679463 87.957868 
L 134.710807 87.778155 
L 134.738389 87.598442 
L 134.761696 87.418729 
L 134.780459 87.239016 
L 134.794554 87.059303 
L 134.803876 86.87959 
L 134.808216 86.699876 
L 134.807127 86.520163 
L 134.799823 86.34045 
L 134.785083 86.160737 
L 134.761208 85.981024 
L 134.726008 85.801311 
L 134.676844 85.621598 
L 134.610719 85.441885 
L 134.524421 85.262172 
L 134.414728 85.082459 
L 134.278644 84.902746 
L 134.113685 84.723033 
L 133.918169 84.54332 
L 133.691502 84.363607 
L 133.434437 84.183894 
L 133.149262 84.004181 
L 132.839902 83.824468 
L 132.511917 83.644755 
L 132.172359 83.465042 
L 131.829517 83.285329 
L 131.492523 83.105616 
L 131.170868 82.925903 
L 130.873838 82.74619 
L 130.609922 82.566477 
L 130.386236 82.386764 
L 130.20801 82.20705 
L 130.078198 82.027337 
L 129.997244 81.847624 
L 129.963037 81.667911 
L 129.971082 81.488198 
L 130.014862 81.308485 
L 130.086389 81.128772 
L 130.17687 80.949059 
L 130.277446 80.769346 
L 130.379912 80.589633 
L 130.477348 80.40992 
L 130.564596 80.230207 
L 130.638534 80.050494 
L 130.698121 79.870781 
L 130.744228 79.691068 
L 130.77929 79.511355 
L 130.806828 79.331642 
L 130.830915 79.151929 
L 130.855657 78.972216 
L 130.884746 78.792503 
L 130.921117 78.61279 
L 130.966755 78.433077 
L 131.022621 78.253364 
L 131.088698 78.073651 
L 131.16412 77.893938 
L 131.247356 77.714224 
L 131.336406 77.534511 
L 131.429002 77.354798 
L 131.522797 77.175085 
L 131.615526 76.995372 
L 131.705159 76.815659 
L 131.790034 76.635946 
L 131.868972 76.456233 
L 131.941379 76.27652 
L 132.007321 76.096807 
L 132.067549 75.917094 
L 132.123478 75.737381 
L 132.177105 75.557668 
L 132.230854 75.377955 
L 132.287365 75.198242 
L 132.349248 75.018529 
L 132.418807 74.838816 
L 132.497795 74.659103 
L 132.587213 74.47939 
L 132.687183 74.299677 
L 132.79693 74.119964 
L 132.914853 73.940251 
L 133.038704 73.760538 
L 133.165832 73.580825 
L 133.293467 73.401112 
L 133.418996 73.221398 
L 133.540212 73.041685 
L 133.655484 72.861972 
L 133.763836 72.682259 
L 133.864946 72.502546 
L 133.959046 72.322833 
L 134.046777 72.14312 
L 134.129 71.963407 
L 134.206613 71.783694 
L 135.675282 71.783694 
L 135.675282 71.783694 
L 135.752894 71.963407 
L 135.835117 72.14312 
L 135.922848 72.322833 
L 136.016948 72.502546 
L 136.118058 72.682259 
L 136.226411 72.861972 
L 136.341682 73.041685 
L 136.462898 73.221398 
L 136.588428 73.401112 
L 136.716062 73.580825 
L 136.84319 73.760538 
L 136.967041 73.940251 
L 137.084964 74.119964 
L 137.194711 74.299677 
L 137.294681 74.47939 
L 137.384099 74.659103 
L 137.463088 74.838816 
L 137.532646 75.018529 
L 137.594529 75.198242 
L 137.65104 75.377955 
L 137.704789 75.557668 
L 137.758416 75.737381 
L 137.814345 75.917094 
L 137.874573 76.096807 
L 137.940515 76.27652 
L 138.012923 76.456233 
L 138.09186 76.635946 
L 138.176735 76.815659 
L 138.266368 76.995372 
L 138.359098 77.175085 
L 138.452892 77.354798 
L 138.545488 77.534511 
L 138.634538 77.714224 
L 138.717774 77.893938 
L 138.793196 78.073651 
L 138.859273 78.253364 
L 138.915139 78.433077 
L 138.960777 78.61279 
L 138.997149 78.792503 
L 139.026237 78.972216 
L 139.05098 79.151929 
L 139.075066 79.331642 
L 139.102604 79.511355 
L 139.137666 79.691068 
L 139.183773 79.870781 
L 139.24336 80.050494 
L 139.317298 80.230207 
L 139.404546 80.40992 
L 139.501982 80.589633 
L 139.604448 80.769346 
L 139.705024 80.949059 
L 139.795506 81.128772 
L 139.867032 81.308485 
L 139.910812 81.488198 
L 139.918857 81.667911 
L 139.88465 81.847624 
L 139.803696 82.027337 
L 139.673884 82.20705 
L 139.495658 82.386764 
L 139.271972 82.566477 
L 139.008056 82.74619 
L 138.711026 82.925903 
L 138.389371 83.105616 
L 138.052377 83.285329 
L 137.709535 83.465042 
L 137.369977 83.644755 
L 137.041992 83.824468 
L 136.732632 84.004181 
L 136.447457 84.183894 
L 136.190392 84.363607 
L 135.963725 84.54332 
L 135.768209 84.723033 
L 135.60325 84.902746 
L 135.467167 85.082459 
L 135.357473 85.262172 
L 135.271175 85.441885 
L 135.20505 85.621598 
L 135.155886 85.801311 
L 135.120686 85.981024 
L 135.096811 86.160737 
L 135.082071 86.34045 
L 135.074767 86.520163 
L 135.073679 86.699876 
L 135.078018 86.87959 
L 135.08734 87.059303 
L 135.101435 87.239016 
L 135.120198 87.418729 
L 135.143505 87.598442 
L 135.171087 87.778155 
L 135.202431 87.957868 
L 135.236718 88.137581 
L 135.272793 88.317294 
L 135.309191 88.497007 
L 135.344207 88.67672 
L 135.37601 88.856433 
L 135.402782 89.036146 
L 135.422876 89.215859 
L 135.434965 89.395572 
L 135.438166 89.575285 
z
" clip-path="url(#p1ebd7c028b)" style="fill: #ff0000; fill-opacity: 0.3"/>
   </g>
   <g id="PolyCollection_6">
    <path d="M 152.092911 87.898113 
L 151.067733 87.898113 
L 151.062426 87.610515 
L 151.063108 87.322917 
L 151.069276 87.035318 
L 151.080172 86.74772 
L 151.094838 86.460122 
L 151.112183 86.172524 
L 151.131049 85.884926 
L 151.150273 85.597328 
L 151.168734 85.309729 
L 151.185381 85.022131 
L 151.199249 84.734533 
L 151.209455 84.446935 
L 151.21518 84.159337 
L 151.215651 83.871739 
L 151.210116 83.584141 
L 151.197832 83.296542 
L 151.178055 83.008944 
L 151.150056 82.721346 
L 151.113142 82.433748 
L 151.066702 82.14615 
L 151.010255 81.858552 
L 150.943514 81.570953 
L 150.866447 81.283355 
L 150.77933 80.995757 
L 150.682791 80.708159 
L 150.577833 80.420561 
L 150.465826 80.132963 
L 150.34847 79.845364 
L 150.227729 79.557766 
L 150.105725 79.270168 
L 149.984603 78.98257 
L 149.86638 78.694972 
L 149.752769 78.407374 
L 149.645016 78.119776 
L 149.543748 77.832177 
L 149.448852 77.544579 
L 149.359404 77.256981 
L 149.273665 76.969383 
L 149.189149 76.681785 
L 149.102765 76.394187 
L 149.011045 76.106588 
L 148.910428 75.81899 
L 148.7976 75.531392 
L 148.669853 75.243794 
L 148.525432 74.956196 
L 148.363843 74.668598 
L 148.186076 74.380999 
L 147.994717 74.093401 
L 147.793925 73.805803 
L 147.58926 73.518205 
L 147.387366 73.230607 
L 147.195519 72.943009 
L 147.021089 72.655411 
L 146.870946 72.367812 
L 146.75087 72.080214 
L 146.665028 71.792616 
L 146.615576 71.505018 
L 146.602412 71.21742 
L 146.62314 70.929822 
L 146.67322 70.642223 
L 146.746325 70.354625 
L 146.834846 70.067027 
L 146.930513 69.779429 
L 147.025069 69.491831 
L 147.110927 69.204233 
L 147.181761 68.916634 
L 147.232968 68.629036 
L 147.261978 68.341438 
L 147.268376 68.05384 
L 147.253852 67.766242 
L 147.22198 67.478644 
L 147.177859 67.191046 
L 147.127651 66.903447 
L 147.078068 66.615849 
L 147.035841 66.328251 
L 147.007214 66.040653 
L 146.997518 65.753055 
L 147.010823 65.465457 
L 147.049717 65.177858 
L 147.115207 64.89026 
L 147.20674 64.602662 
L 147.322343 64.315064 
L 147.458856 64.027466 
L 147.612239 63.739868 
L 147.777922 63.452269 
L 147.951174 63.164671 
L 148.127444 62.877073 
L 148.302679 62.589475 
L 148.473562 62.301877 
L 148.637682 62.014279 
L 148.793607 61.726681 
L 148.940879 61.439082 
L 149.079917 61.151484 
L 149.211853 60.863886 
L 149.338323 60.576288 
L 149.46122 60.28869 
L 149.58245 60.001092 
L 149.703706 59.713493 
L 149.82628 59.425895 
L 153.334365 59.425895 
L 153.334365 59.425895 
L 153.456938 59.713493 
L 153.578194 60.001092 
L 153.699424 60.28869 
L 153.822321 60.576288 
L 153.948791 60.863886 
L 154.080728 61.151484 
L 154.219765 61.439082 
L 154.367037 61.726681 
L 154.522963 62.014279 
L 154.687082 62.301877 
L 154.857965 62.589475 
L 155.0332 62.877073 
L 155.209471 63.164671 
L 155.382722 63.452269 
L 155.548406 63.739868 
L 155.701788 64.027466 
L 155.838301 64.315064 
L 155.953904 64.602662 
L 156.045437 64.89026 
L 156.110927 65.177858 
L 156.149822 65.465457 
L 156.163126 65.753055 
L 156.15343 66.040653 
L 156.124804 66.328251 
L 156.082576 66.615849 
L 156.032994 66.903447 
L 155.982786 67.191046 
L 155.938664 67.478644 
L 155.906792 67.766242 
L 155.892268 68.05384 
L 155.898666 68.341438 
L 155.927676 68.629036 
L 155.978884 68.916634 
L 156.049717 69.204233 
L 156.135576 69.491831 
L 156.230131 69.779429 
L 156.325798 70.067027 
L 156.414319 70.354625 
L 156.487424 70.642223 
L 156.537504 70.929822 
L 156.558232 71.21742 
L 156.545069 71.505018 
L 156.495616 71.792616 
L 156.409775 72.080214 
L 156.289698 72.367812 
L 156.139555 72.655411 
L 155.965126 72.943009 
L 155.773279 73.230607 
L 155.571384 73.518205 
L 155.366719 73.805803 
L 155.165927 74.093401 
L 154.974568 74.380999 
L 154.796801 74.668598 
L 154.635212 74.956196 
L 154.490792 75.243794 
L 154.363044 75.531392 
L 154.250217 75.81899 
L 154.1496 76.106588 
L 154.057879 76.394187 
L 153.971496 76.681785 
L 153.886979 76.969383 
L 153.801241 77.256981 
L 153.711792 77.544579 
L 153.616896 77.832177 
L 153.515628 78.119776 
L 153.407876 78.407374 
L 153.294265 78.694972 
L 153.176041 78.98257 
L 153.054919 79.270168 
L 152.932915 79.557766 
L 152.812175 79.845364 
L 152.694819 80.132963 
L 152.582811 80.420561 
L 152.477853 80.708159 
L 152.381314 80.995757 
L 152.294197 81.283355 
L 152.21713 81.570953 
L 152.150389 81.858552 
L 152.093942 82.14615 
L 152.047502 82.433748 
L 152.010589 82.721346 
L 151.982589 83.008944 
L 151.962813 83.296542 
L 151.950528 83.584141 
L 151.944994 83.871739 
L 151.945465 84.159337 
L 151.95119 84.446935 
L 151.961395 84.734533 
L 151.975264 85.022131 
L 151.991911 85.309729 
L 152.010371 85.597328 
L 152.029596 85.884926 
L 152.048462 86.172524 
L 152.065806 86.460122 
L 152.080472 86.74772 
L 152.091368 87.035318 
L 152.097536 87.322917 
L 152.098218 87.610515 
L 152.092911 87.898113 
z
" clip-path="url(#p1ebd7c028b)" style="fill: #ff0000; fill-opacity: 0.3"/>
   </g>
   <g id="PolyCollection_7">
    <path d="M 163.868733 86.411145 
L 162.903561 86.411145 
L 162.902029 86.009888 
L 162.907329 85.608631 
L 162.918787 85.207375 
L 162.935366 84.806118 
L 162.955719 84.404861 
L 162.978258 84.003604 
L 163.001227 83.602348 
L 163.02277 83.201091 
L 163.040989 82.799834 
L 163.053988 82.398577 
L 163.059911 81.997321 
L 163.056971 81.596064 
L 163.043472 81.194807 
L 163.017847 80.79355 
L 162.978702 80.392294 
L 162.924875 79.991037 
L 162.85551 79.58978 
L 162.770137 79.188523 
L 162.66876 78.787267 
L 162.551934 78.38601 
L 162.420812 77.984753 
L 162.277176 77.583496 
L 162.123409 77.18224 
L 161.962431 76.780983 
L 161.797578 76.379726 
L 161.632438 75.978469 
L 161.470654 75.577213 
L 161.315696 75.175956 
L 161.170636 74.774699 
L 161.037925 74.373443 
L 160.919208 73.972186 
L 160.815181 73.570929 
L 160.725508 73.169672 
L 160.648807 72.768416 
L 160.58271 72.367159 
L 160.523997 71.965902 
L 160.468793 71.564645 
L 160.412827 71.163389 
L 160.351735 70.762132 
L 160.281391 70.360875 
L 160.198244 69.959618 
L 160.099644 69.558362 
L 159.984124 69.157105 
L 159.851622 68.755848 
L 159.703604 68.354591 
L 159.543073 67.953335 
L 159.374445 67.552078 
L 159.203284 67.150821 
L 159.035898 66.749564 
L 158.878829 66.348308 
L 158.738274 65.947051 
L 158.619491 65.545794 
L 158.526262 65.144537 
L 158.460478 64.743281 
L 158.421917 64.342024 
L 158.408237 63.940767 
L 158.415226 63.53951 
L 158.437282 63.138254 
L 158.46807 62.736997 
L 158.501297 62.33574 
L 158.531503 61.934483 
L 158.554767 61.533227 
L 158.569247 61.13197 
L 158.575474 60.730713 
L 158.576362 60.329456 
L 158.576938 59.9282 
L 158.583809 59.526943 
L 158.604447 59.125686 
L 158.646367 58.724429 
L 158.716302 58.323173 
L 158.819463 57.921916 
L 158.958964 57.520659 
L 159.13548 57.119403 
L 159.347144 56.718146 
L 159.589696 56.316889 
L 159.85684 55.915632 
L 160.140771 55.514376 
L 160.432789 55.113119 
L 160.723942 54.711862 
L 161.005636 54.310605 
L 161.270153 53.909349 
L 161.511049 53.508092 
L 161.723419 53.106835 
L 161.904021 52.705578 
L 162.051288 52.304322 
L 162.165231 51.903065 
L 162.247284 51.501808 
L 162.300097 51.100551 
L 162.327313 50.699295 
L 162.333321 50.298038 
L 162.323028 49.896781 
L 162.301616 49.495524 
L 162.274311 49.094268 
L 162.246157 48.693011 
L 162.221792 48.291754 
L 162.20525 47.890497 
L 162.199779 47.489241 
L 162.207705 47.087984 
L 162.230352 46.686727 
L 164.541941 46.686727 
L 164.541941 46.686727 
L 164.564588 47.087984 
L 164.572515 47.489241 
L 164.567043 47.890497 
L 164.550501 48.291754 
L 164.526137 48.693011 
L 164.497982 49.094268 
L 164.470678 49.495524 
L 164.449265 49.896781 
L 164.438972 50.298038 
L 164.444981 50.699295 
L 164.472196 51.100551 
L 164.52501 51.501808 
L 164.607063 51.903065 
L 164.721005 52.304322 
L 164.868272 52.705578 
L 165.048875 53.106835 
L 165.261244 53.508092 
L 165.50214 53.909349 
L 165.766657 54.310605 
L 166.048351 54.711862 
L 166.339505 55.113119 
L 166.631522 55.514376 
L 166.915454 55.915632 
L 167.182598 56.316889 
L 167.425149 56.718146 
L 167.636813 57.119403 
L 167.813329 57.520659 
L 167.952831 57.921916 
L 168.055991 58.323173 
L 168.125926 58.724429 
L 168.167846 59.125686 
L 168.188484 59.526943 
L 168.195355 59.9282 
L 168.195931 60.329456 
L 168.19682 60.730713 
L 168.203047 61.13197 
L 168.217527 61.533227 
L 168.240791 61.934483 
L 168.270996 62.33574 
L 168.304223 62.736997 
L 168.335011 63.138254 
L 168.357067 63.53951 
L 168.364057 63.940767 
L 168.350376 64.342024 
L 168.311815 64.743281 
L 168.246032 65.144537 
L 168.152802 65.545794 
L 168.034019 65.947051 
L 167.893464 66.348308 
L 167.736396 66.749564 
L 167.569009 67.150821 
L 167.397848 67.552078 
L 167.229221 67.953335 
L 167.068689 68.354591 
L 166.920671 68.755848 
L 166.788169 69.157105 
L 166.672649 69.558362 
L 166.574049 69.959618 
L 166.490902 70.360875 
L 166.420558 70.762132 
L 166.359467 71.163389 
L 166.303501 71.564645 
L 166.248297 71.965902 
L 166.189584 72.367159 
L 166.123487 72.768416 
L 166.046785 73.169672 
L 165.957112 73.570929 
L 165.853085 73.972186 
L 165.734368 74.373443 
L 165.601657 74.774699 
L 165.456597 75.175956 
L 165.301639 75.577213 
L 165.139855 75.978469 
L 164.974716 76.379726 
L 164.809862 76.780983 
L 164.648884 77.18224 
L 164.495118 77.583496 
L 164.351481 77.984753 
L 164.22036 78.38601 
L 164.103533 78.787267 
L 164.002157 79.188523 
L 163.916784 79.58978 
L 163.847418 79.991037 
L 163.793592 80.392294 
L 163.754447 80.79355 
L 163.728822 81.194807 
L 163.715322 81.596064 
L 163.712382 81.997321 
L 163.718306 82.398577 
L 163.731305 82.799834 
L 163.749523 83.201091 
L 163.771066 83.602348 
L 163.794035 84.003604 
L 163.816574 84.404861 
L 163.836927 84.806118 
L 163.853506 85.207375 
L 163.864965 85.608631 
L 163.870264 86.009888 
L 163.868733 86.411145 
z
" clip-path="url(#p1ebd7c028b)" style="fill: #ff0000; fill-opacity: 0.3"/>
   </g>
   <g id="PolyCollection_8">
    <path d="M 180.604974 87.446173 
L 179.446069 87.446173 
L 179.432538 86.864334 
L 179.42264 86.282494 
L 179.415572 85.700655 
L 179.410262 85.118816 
L 179.405414 84.536977 
L 179.399569 83.955137 
L 179.391174 83.373298 
L 179.37866 82.791459 
L 179.36052 82.20962 
L 179.335386 81.62778 
L 179.302109 81.045941 
L 179.259814 80.464102 
L 179.207964 79.882263 
L 179.146387 79.300423 
L 179.075301 78.718584 
L 178.99531 78.136745 
L 178.907372 77.554906 
L 178.812744 76.973066 
L 178.712907 76.391227 
L 178.609462 75.809388 
L 178.504005 75.227549 
L 178.398006 74.645709 
L 178.29267 74.06387 
L 178.188827 73.482031 
L 178.086835 72.900192 
L 177.98652 72.318352 
L 177.887158 71.736513 
L 177.787513 71.154674 
L 177.685922 70.572835 
L 177.580421 69.990995 
L 177.468927 69.409156 
L 177.349435 68.827317 
L 177.220236 68.245478 
L 177.080122 67.663638 
L 176.928581 67.081799 
L 176.765937 66.49996 
L 176.593446 65.91812 
L 176.413316 65.336281 
L 176.228656 64.754442 
L 176.043352 64.172603 
L 175.861865 63.590763 
L 175.688976 63.008924 
L 175.529486 62.427085 
L 175.387893 61.845246 
L 175.268073 61.263406 
L 175.172989 60.681567 
L 175.104452 60.099728 
L 175.062957 59.517889 
L 175.047612 58.936049 
L 175.056158 58.35421 
L 175.0851 57.772371 
L 175.129922 57.190532 
L 175.185382 56.608692 
L 175.245867 56.026853 
L 175.30577 55.445014 
L 175.359873 54.863175 
L 175.403698 54.281335 
L 175.433804 53.699496 
L 175.448015 53.117657 
L 175.445545 52.535818 
L 175.427038 51.953978 
L 175.394506 51.372139 
L 175.351171 50.7903 
L 175.301238 50.208461 
L 175.249611 49.626621 
L 175.201561 49.044782 
L 175.162398 48.462943 
L 175.137134 47.881104 
L 175.130192 47.299264 
L 175.145146 46.717425 
L 175.184535 46.135586 
L 175.249735 45.553747 
L 175.340906 44.971907 
L 175.457012 44.390068 
L 175.595904 43.808229 
L 175.75446 43.22639 
L 175.928781 42.64455 
L 176.114411 42.062711 
L 176.30659 41.480872 
L 176.500506 40.899032 
L 176.691552 40.317193 
L 176.875551 39.735354 
L 177.048964 39.153515 
L 177.209047 38.571675 
L 177.353959 37.989836 
L 177.482818 37.407997 
L 177.595701 36.826158 
L 177.693574 36.244318 
L 177.778191 35.662479 
L 177.851931 35.08064 
L 177.917611 34.498801 
L 177.978279 33.916961 
L 178.037003 33.335122 
L 178.096665 32.753283 
L 178.159784 32.171444 
L 178.228375 31.589604 
L 178.303842 31.007765 
L 178.386931 30.425926 
L 178.477723 29.844087 
L 181.573321 29.844087 
L 181.573321 29.844087 
L 181.664112 30.425926 
L 181.747201 31.007765 
L 181.822669 31.589604 
L 181.89126 32.171444 
L 181.954379 32.753283 
L 182.014041 33.335122 
L 182.072764 33.916961 
L 182.133433 34.498801 
L 182.199113 35.08064 
L 182.272852 35.662479 
L 182.35747 36.244318 
L 182.455343 36.826158 
L 182.568225 37.407997 
L 182.697085 37.989836 
L 182.841997 38.571675 
L 183.00208 39.153515 
L 183.175493 39.735354 
L 183.359492 40.317193 
L 183.550537 40.899032 
L 183.744454 41.480872 
L 183.936632 42.062711 
L 184.122263 42.64455 
L 184.296583 43.22639 
L 184.45514 43.808229 
L 184.594031 44.390068 
L 184.710138 44.971907 
L 184.801309 45.553747 
L 184.866509 46.135586 
L 184.905898 46.717425 
L 184.920852 47.299264 
L 184.913909 47.881104 
L 184.888646 48.462943 
L 184.849483 49.044782 
L 184.801433 49.626621 
L 184.749805 50.208461 
L 184.699873 50.7903 
L 184.656537 51.372139 
L 184.624005 51.953978 
L 184.605499 52.535818 
L 184.603029 53.117657 
L 184.617239 53.699496 
L 184.647346 54.281335 
L 184.69117 54.863175 
L 184.745273 55.445014 
L 184.805177 56.026853 
L 184.865662 56.608692 
L 184.921122 57.190532 
L 184.965944 57.772371 
L 184.994886 58.35421 
L 185.003432 58.936049 
L 184.988086 59.517889 
L 184.946592 60.099728 
L 184.878054 60.681567 
L 184.78297 61.263406 
L 184.66315 61.845246 
L 184.521558 62.427085 
L 184.362068 63.008924 
L 184.189179 63.590763 
L 184.007692 64.172603 
L 183.822387 64.754442 
L 183.637728 65.336281 
L 183.457598 65.91812 
L 183.285107 66.49996 
L 183.122463 67.081799 
L 182.970922 67.663638 
L 182.830808 68.245478 
L 182.701608 68.827317 
L 182.582117 69.409156 
L 182.470623 69.990995 
L 182.365122 70.572835 
L 182.26353 71.154674 
L 182.163886 71.736513 
L 182.064524 72.318352 
L 181.964208 72.900192 
L 181.862216 73.482031 
L 181.758374 74.06387 
L 181.653038 74.645709 
L 181.547038 75.227549 
L 181.441582 75.809388 
L 181.338136 76.391227 
L 181.2383 76.973066 
L 181.143672 77.554906 
L 181.055733 78.136745 
L 180.975742 78.718584 
L 180.904657 79.300423 
L 180.84308 79.882263 
L 180.791229 80.464102 
L 180.748935 81.045941 
L 180.715657 81.62778 
L 180.690524 82.20962 
L 180.672384 82.791459 
L 180.65987 83.373298 
L 180.651475 83.955137 
L 180.64563 84.536977 
L 180.640782 85.118816 
L 180.635471 85.700655 
L 180.628404 86.282494 
L 180.618506 86.864334 
L 180.604974 87.446173 
z
" clip-path="url(#p1ebd7c028b)" style="fill: #ff0000; fill-opacity: 0.3"/>
   </g>
   <g id="PolyCollection_9">
    <path d="M 193.286901 87.729733 
L 190.375792 87.729733 
L 190.274737 86.959979 
L 190.172717 86.190225 
L 190.069571 85.420471 
L 189.96506 84.650717 
L 189.858902 83.880963 
L 189.750812 83.11121 
L 189.640547 82.341456 
L 189.527939 81.571702 
L 189.412939 80.801948 
L 189.295632 80.032194 
L 189.176257 79.26244 
L 189.055206 78.492686 
L 188.93301 77.722932 
L 188.810314 76.953178 
L 188.687841 76.183424 
L 188.566347 75.41367 
L 188.446576 74.643916 
L 188.329213 73.874162 
L 188.214851 73.104408 
L 188.10396 72.334654 
L 187.996885 71.5649 
L 187.893852 70.795146 
L 187.794997 70.025392 
L 187.700413 69.255638 
L 187.610205 68.485884 
L 187.524554 67.71613 
L 187.443775 66.946376 
L 187.368363 66.176622 
L 187.29902 65.406868 
L 187.236655 64.637114 
L 187.182349 63.86736 
L 187.137291 63.097606 
L 187.102688 62.327853 
L 187.079646 61.558099 
L 187.069049 60.788345 
L 187.07143 60.018591 
L 187.086863 59.248837 
L 187.114879 58.479083 
L 187.15442 57.709329 
L 187.20383 56.939575 
L 187.260904 56.169821 
L 187.322967 55.400067 
L 187.387004 54.630313 
L 187.449805 53.860559 
L 187.508136 53.090805 
L 187.558912 52.321051 
L 187.599359 51.551297 
L 187.627154 50.781543 
L 187.640549 50.011789 
L 187.638449 49.242035 
L 187.620466 48.472281 
L 187.586935 47.702527 
L 187.538897 46.932773 
L 187.478063 46.163019 
L 187.406752 45.393265 
L 187.327804 44.623511 
L 187.244496 43.853757 
L 187.16043 43.084003 
L 187.079425 42.314249 
L 187.005392 41.544495 
L 186.942213 40.774742 
L 186.89361 40.004988 
L 186.863014 39.235234 
L 186.853436 38.46548 
L 186.867355 37.695726 
L 186.906602 36.925972 
L 186.972283 36.156218 
L 187.064713 35.386464 
L 187.183389 34.61671 
L 187.326993 33.846956 
L 187.493435 33.077202 
L 187.679925 32.307448 
L 187.883089 31.537694 
L 188.099095 30.76794 
L 188.323814 29.998186 
L 188.552985 29.228432 
L 188.78238 28.458678 
L 189.007968 27.688924 
L 189.226054 26.91917 
L 189.433408 26.149416 
L 189.627354 25.379662 
L 189.805839 24.609908 
L 189.967464 23.840154 
L 190.111487 23.0704 
L 190.237797 22.300646 
L 190.346864 21.530892 
L 190.439672 20.761138 
L 190.517631 19.991385 
L 190.582484 19.221631 
L 190.636209 18.451877 
L 190.680916 17.682123 
L 190.718755 16.912369 
L 190.751824 16.142615 
L 190.78209 15.372861 
L 190.811324 14.603107 
L 190.841045 13.833353 
L 190.872484 13.063599 
L 190.906561 12.293845 
L 190.943873 11.524091 
L 192.718819 11.524091 
L 192.718819 11.524091 
L 192.756132 12.293845 
L 192.790208 13.063599 
L 192.821648 13.833353 
L 192.851369 14.603107 
L 192.880603 15.372861 
L 192.910869 16.142615 
L 192.943938 16.912369 
L 192.981776 17.682123 
L 193.026484 18.451877 
L 193.080208 19.221631 
L 193.145062 19.991385 
L 193.223021 20.761138 
L 193.315829 21.530892 
L 193.424896 22.300646 
L 193.551206 23.0704 
L 193.695229 23.840154 
L 193.856854 24.609908 
L 194.035339 25.379662 
L 194.229285 26.149416 
L 194.436639 26.91917 
L 194.654725 27.688924 
L 194.880312 28.458678 
L 195.109708 29.228432 
L 195.338879 29.998186 
L 195.563598 30.76794 
L 195.779604 31.537694 
L 195.982767 32.307448 
L 196.169258 33.077202 
L 196.3357 33.846956 
L 196.479304 34.61671 
L 196.59798 35.386464 
L 196.69041 36.156218 
L 196.756091 36.925972 
L 196.795338 37.695726 
L 196.809256 38.46548 
L 196.799679 39.235234 
L 196.769082 40.004988 
L 196.720479 40.774742 
L 196.657301 41.544495 
L 196.583268 42.314249 
L 196.502263 43.084003 
L 196.418197 43.853757 
L 196.334889 44.623511 
L 196.255941 45.393265 
L 196.184629 46.163019 
L 196.123796 46.932773 
L 196.075758 47.702527 
L 196.042226 48.472281 
L 196.024243 49.242035 
L 196.022144 50.011789 
L 196.035539 50.781543 
L 196.063334 51.551297 
L 196.10378 52.321051 
L 196.154557 53.090805 
L 196.212888 53.860559 
L 196.275689 54.630313 
L 196.339725 55.400067 
L 196.401789 56.169821 
L 196.458863 56.939575 
L 196.508273 57.709329 
L 196.547813 58.479083 
L 196.57583 59.248837 
L 196.591263 60.018591 
L 196.593643 60.788345 
L 196.583046 61.558099 
L 196.560005 62.327853 
L 196.525402 63.097606 
L 196.480344 63.86736 
L 196.426038 64.637114 
L 196.363673 65.406868 
L 196.29433 66.176622 
L 196.218918 66.946376 
L 196.138139 67.71613 
L 196.052488 68.485884 
L 195.96228 69.255638 
L 195.867695 70.025392 
L 195.768841 70.795146 
L 195.665807 71.5649 
L 195.558733 72.334654 
L 195.447842 73.104408 
L 195.333479 73.874162 
L 195.216117 74.643916 
L 195.096346 75.41367 
L 194.974852 76.183424 
L 194.852378 76.953178 
L 194.729683 77.722932 
L 194.607487 78.492686 
L 194.486436 79.26244 
L 194.367061 80.032194 
L 194.249754 80.801948 
L 194.134753 81.571702 
L 194.022146 82.341456 
L 193.91188 83.11121 
L 193.803791 83.880963 
L 193.697632 84.650717 
L 193.593121 85.420471 
L 193.489975 86.190225 
L 193.387955 86.959979 
L 193.286901 87.729733 
z
" clip-path="url(#p1ebd7c028b)" style="fill: #ff0000; fill-opacity: 0.3"/>
   </g>
   <g id="matplotlib.axis_1">
    <g id="xtick_1">
     <g id="line2d_1">
      <defs>
       <path id="m73762156f4" d="M 0 0 
L 0 3.5 
" style="stroke: #000000; stroke-width: 0.8"/>
      </defs>
      <g>
       <use xlink:href="#m73762156f4" x="49.605348" y="102.33" style="stroke: #000000; stroke-width: 0.8"/>
      </g>
     </g>
     <g id="text_1">
      <!-- $\mathrm{1}$ -->
      <g transform="translate(47.11468 116.248498)scale(0.1 -0.1)">
       <defs>
        <path id="CMR17-31" d="M 1702 4083 
C 1702 4217 1696 4224 1606 4224 
C 1357 3927 979 3833 621 3820 
C 602 3820 570 3820 563 3808 
C 557 3795 557 3782 557 3648 
C 755 3648 1088 3686 1344 3839 
L 1344 467 
C 1344 243 1331 166 781 166 
L 589 166 
L 589 0 
C 896 6 1216 12 1523 12 
C 1830 12 2150 6 2458 0 
L 2458 166 
L 2266 166 
C 1715 166 1702 236 1702 467 
L 1702 4083 
z
" transform="scale(0.015625)"/>
       </defs>
       <use xlink:href="#CMR17-31" transform="scale(0.996264)"/>
      </g>
     </g>
    </g>
    <g id="xtick_2">
     <g id="line2d_2">
      <g>
       <use xlink:href="#m73762156f4" x="78.050548" y="102.33" style="stroke: #000000; stroke-width: 0.8"/>
      </g>
     </g>
     <g id="text_2">
      <!-- $\mathrm{2}$ -->
      <g transform="translate(75.55988 116.248498)scale(0.1 -0.1)">
       <defs>
        <path id="CMR17-32" d="M 2669 990 
L 2554 990 
C 2490 537 2438 460 2413 422 
C 2381 371 1920 371 1830 371 
L 602 371 
C 832 620 1280 1073 1824 1596 
C 2214 1966 2669 2400 2669 3033 
C 2669 3788 2067 4224 1395 4224 
C 691 4224 262 3603 262 3027 
C 262 2777 448 2745 525 2745 
C 589 2745 781 2783 781 3007 
C 781 3206 614 3264 525 3264 
C 486 3264 448 3257 422 3244 
C 544 3788 915 4057 1306 4057 
C 1862 4057 2227 3616 2227 3033 
C 2227 2477 1901 1998 1536 1583 
L 262 147 
L 262 0 
L 2515 0 
L 2669 990 
z
" transform="scale(0.015625)"/>
       </defs>
       <use xlink:href="#CMR17-32" transform="scale(0.996264)"/>
      </g>
     </g>
    </g>
    <g id="xtick_3">
     <g id="line2d_3">
      <g>
       <use xlink:href="#m73762156f4" x="106.495747" y="102.33" style="stroke: #000000; stroke-width: 0.8"/>
      </g>
     </g>
     <g id="text_3">
      <!-- $\mathrm{4}$ -->
      <g transform="translate(104.00508 116.248498)scale(0.1 -0.1)">
       <defs>
        <path id="CMR17-34" d="M 2150 4147 
C 2150 4281 2144 4288 2029 4288 
L 128 1254 
L 128 1088 
L 1779 1088 
L 1779 460 
C 1779 230 1766 166 1318 166 
L 1197 166 
L 1197 0 
C 1402 12 1747 12 1965 12 
C 2182 12 2528 12 2733 0 
L 2733 166 
L 2611 166 
C 2163 166 2150 230 2150 460 
L 2150 1088 
L 2803 1088 
L 2803 1254 
L 2150 1254 
L 2150 4147 
z
M 1798 3723 
L 1798 1254 
L 256 1254 
L 1798 3723 
z
" transform="scale(0.015625)"/>
       </defs>
       <use xlink:href="#CMR17-34" transform="scale(0.996264)"/>
      </g>
     </g>
    </g>
    <g id="xtick_4">
     <g id="line2d_4">
      <g>
       <use xlink:href="#m73762156f4" x="123.135123" y="102.33" style="stroke: #000000; stroke-width: 0.8"/>
      </g>
     </g>
     <g id="text_4">
      <!-- $\mathrm{}$ -->
      <g transform="translate(123.135123 116.248498)scale(0.1 -0.1)"/>
     </g>
    </g>
    <g id="xtick_5">
     <g id="line2d_5">
      <g>
       <use xlink:href="#m73762156f4" x="134.940947" y="102.33" style="stroke: #000000; stroke-width: 0.8"/>
      </g>
     </g>
     <g id="text_5">
      <!-- $\mathrm{8}$ -->
      <g transform="translate(132.450279 116.248498)scale(0.1 -0.1)">
       <defs>
        <path id="CMR17-38" d="M 1741 2289 
C 2144 2494 2554 2803 2554 3298 
C 2554 3884 1990 4224 1472 4224 
C 890 4224 378 3800 378 3215 
C 378 3054 416 2777 666 2533 
C 730 2469 998 2276 1171 2154 
C 883 2006 211 1652 211 945 
C 211 282 838 -128 1459 -128 
C 2144 -128 2720 366 2720 1022 
C 2720 1607 2330 1877 2074 2051 
L 1741 2289 
z
M 902 2855 
C 851 2887 595 3086 595 3388 
C 595 3781 998 4076 1459 4076 
C 1965 4076 2336 3716 2336 3298 
C 2336 2700 1670 2359 1638 2359 
C 1632 2359 1626 2359 1574 2398 
L 902 2855 
z
M 2080 1536 
C 2176 1466 2483 1253 2483 861 
C 2483 385 2010 25 1472 25 
C 890 25 448 443 448 951 
C 448 1459 838 1884 1280 2083 
L 2080 1536 
z
" transform="scale(0.015625)"/>
       </defs>
       <use xlink:href="#CMR17-38" transform="scale(0.996264)"/>
      </g>
     </g>
    </g>
    <g id="xtick_6">
     <g id="line2d_6">
      <g>
       <use xlink:href="#m73762156f4" x="151.580322" y="102.33" style="stroke: #000000; stroke-width: 0.8"/>
      </g>
     </g>
     <g id="text_6">
      <!-- $\mathrm{}$ -->
      <g transform="translate(151.580322 116.248498)scale(0.1 -0.1)"/>
     </g>
    </g>
    <g id="xtick_7">
     <g id="line2d_7">
      <g>
       <use xlink:href="#m73762156f4" x="163.386147" y="102.33" style="stroke: #000000; stroke-width: 0.8"/>
      </g>
     </g>
     <g id="text_7">
      <!-- $\mathrm{16}$ -->
      <g transform="translate(158.404811 116.248498)scale(0.1 -0.1)">
       <defs>
        <path id="CMR17-36" d="M 678 2198 
C 678 3712 1395 4076 1811 4076 
C 1946 4076 2272 4049 2400 3782 
C 2298 3782 2106 3782 2106 3558 
C 2106 3385 2246 3328 2336 3328 
C 2394 3328 2566 3353 2566 3571 
C 2566 3987 2246 4224 1805 4224 
C 1043 4224 243 3411 243 2011 
C 243 257 966 -128 1478 -128 
C 2099 -128 2688 431 2688 1295 
C 2688 2101 2170 2688 1517 2688 
C 1126 2688 838 2430 678 1979 
L 678 2198 
z
M 1478 25 
C 691 25 691 1212 691 1450 
C 691 1914 909 2585 1504 2585 
C 1613 2585 1926 2585 2138 2140 
C 2253 1889 2253 1624 2253 1302 
C 2253 954 2253 696 2118 438 
C 1978 173 1773 25 1478 25 
z
" transform="scale(0.015625)"/>
       </defs>
       <use xlink:href="#CMR17-31" transform="scale(0.996264)"/>
       <use xlink:href="#CMR17-36" transform="translate(45.690477 0)scale(0.996264)"/>
      </g>
     </g>
    </g>
    <g id="xtick_8">
     <g id="line2d_8">
      <g>
       <use xlink:href="#m73762156f4" x="180.025522" y="102.33" style="stroke: #000000; stroke-width: 0.8"/>
      </g>
     </g>
     <g id="text_8">
      <!-- $\mathrm{}$ -->
      <g transform="translate(180.025522 116.248498)scale(0.1 -0.1)"/>
     </g>
    </g>
    <g id="xtick_9">
     <g id="line2d_9">
      <g>
       <use xlink:href="#m73762156f4" x="191.831346" y="102.33" style="stroke: #000000; stroke-width: 0.8"/>
      </g>
     </g>
     <g id="text_9">
      <!-- $\mathrm{32}$ -->
      <g transform="translate(186.850011 116.248498)scale(0.1 -0.1)">
       <defs>
        <path id="CMR17-33" d="M 1414 2176 
C 1984 2176 2234 1673 2234 1094 
C 2234 322 1824 25 1453 25 
C 1114 25 563 193 390 691 
C 422 678 454 678 486 678 
C 640 678 755 780 755 947 
C 755 1132 614 1216 486 1216 
C 378 1216 211 1164 211 927 
C 211 335 787 -128 1466 -128 
C 2176 -128 2720 432 2720 1087 
C 2720 1718 2208 2176 1600 2246 
C 2086 2347 2554 2776 2554 3353 
C 2554 3856 2048 4224 1472 4224 
C 890 4224 378 3862 378 3347 
C 378 3123 544 3084 627 3084 
C 762 3084 877 3167 877 3334 
C 877 3500 762 3584 627 3584 
C 602 3584 570 3584 544 3571 
C 730 3999 1235 4076 1459 4076 
C 1683 4076 2106 3966 2106 3347 
C 2106 3167 2080 2851 1862 2574 
C 1670 2329 1453 2316 1242 2297 
C 1210 2297 1062 2284 1037 2284 
C 992 2278 966 2272 966 2227 
C 966 2182 973 2176 1101 2176 
L 1414 2176 
z
" transform="scale(0.015625)"/>
       </defs>
       <use xlink:href="#CMR17-33" transform="scale(0.996264)"/>
       <use xlink:href="#CMR17-32" transform="translate(45.690477 0)scale(0.996264)"/>
      </g>
     </g>
    </g>
    <g id="text_10">
     <!-- $\mathrm{Number\: of\: threads}$ -->
     <g transform="translate(80.424966 129.104175)scale(0.1 -0.1)">
      <defs>
       <path id="CMR17-4e" d="M 1312 4275 
C 1267 4345 1261 4352 1139 4352 
L 326 4352 
L 326 4185 
L 448 4185 
C 704 4185 819 4153 838 4147 
L 838 624 
C 838 465 838 166 326 166 
L 326 0 
C 474 12 742 12 902 12 
C 1062 12 1331 12 1478 0 
L 1478 166 
C 966 166 966 465 966 624 
L 966 4057 
C 1011 4019 1011 4007 1056 3943 
L 3430 76 
C 3475 0 3494 0 3526 0 
C 3590 0 3590 19 3590 140 
L 3590 3726 
C 3590 3885 3590 4185 4102 4185 
L 4102 4352 
C 3955 4339 3686 4339 3526 4339 
C 3366 4339 3098 4339 2950 4352 
L 2950 4185 
C 3462 4185 3462 3885 3462 3726 
L 3462 777 
L 1312 4275 
z
" transform="scale(0.015625)"/>
       <path id="CMR17-75" d="M 1882 2745 
L 1882 2579 
C 2259 2579 2317 2540 2317 2229 
L 2317 1053 
C 2317 510 2029 38 1555 38 
C 1030 38 986 355 986 691 
L 986 2816 
L 211 2745 
L 211 2579 
C 467 2579 640 2579 646 2320 
L 646 1079 
C 646 646 646 368 813 187 
C 896 103 1056 -64 1517 -64 
C 2061 -64 2272 400 2323 536 
L 2330 536 
L 2330 -64 
L 3091 -13 
L 3091 154 
C 2714 154 2656 193 2656 503 
L 2656 2816 
L 1882 2745 
z
" transform="scale(0.015625)"/>
       <path id="CMR17-6d" d="M 4326 1954 
C 4326 2276 4269 2816 3507 2816 
C 3072 2816 2771 2520 2656 2173 
L 2650 2173 
C 2573 2700 2195 2816 1837 2816 
C 1331 2816 1069 2424 973 2166 
L 966 2166 
L 966 2816 
L 211 2745 
L 211 2578 
C 589 2578 646 2540 646 2231 
L 646 443 
C 646 198 621 166 211 166 
L 211 0 
C 365 12 646 12 813 12 
C 979 12 1267 12 1421 0 
L 1421 166 
C 1011 166 986 192 986 443 
L 986 1678 
C 986 2269 1344 2713 1792 2713 
C 2266 2713 2317 2289 2317 1980 
L 2317 443 
C 2317 198 2291 166 1882 166 
L 1882 0 
C 2035 12 2317 12 2483 12 
C 2650 12 2938 12 3091 0 
L 3091 166 
C 2682 166 2656 192 2656 443 
L 2656 1678 
C 2656 2269 3014 2713 3462 2713 
C 3936 2713 3987 2289 3987 1980 
L 3987 443 
C 3987 198 3962 166 3552 166 
L 3552 0 
C 3706 12 3987 12 4154 12 
C 4320 12 4608 12 4762 0 
L 4762 166 
C 4352 166 4326 192 4326 443 
L 4326 1954 
z
" transform="scale(0.015625)"/>
       <path id="CMR17-62" d="M 960 4416 
L 198 4345 
L 198 4179 
C 576 4179 634 4141 634 3843 
L 634 -13 
L 749 -13 
L 934 445 
C 1120 141 1395 -64 1766 -64 
C 2406 -64 3053 503 3053 1382 
C 3053 2209 2477 2816 1830 2816 
C 1434 2816 1152 2603 960 2351 
L 960 4416 
z
M 973 2022 
C 973 2138 973 2157 1062 2293 
C 1312 2681 1670 2713 1792 2713 
C 1984 2713 2643 2610 2643 1388 
C 2643 109 1888 38 1734 38 
C 1536 38 1248 115 1043 490 
C 973 613 973 626 973 742 
L 973 2022 
z
" transform="scale(0.015625)"/>
       <path id="CMR17-65" d="M 2438 1503 
C 2464 1529 2464 1542 2464 1606 
C 2464 2251 2118 2816 1389 2816 
C 710 2816 173 2175 173 1394 
C 173 554 781 -64 1459 -64 
C 2176 -64 2458 619 2458 755 
C 2458 800 2419 800 2406 800 
C 2362 800 2355 787 2330 709 
C 2189 270 1837 51 1504 51 
C 1229 51 954 206 781 490 
C 582 819 582 1200 582 1503 
L 2438 1503 
z
M 589 1600 
C 634 2511 1126 2713 1382 2713 
C 1818 2713 2112 2308 2118 1600 
L 589 1600 
z
" transform="scale(0.015625)"/>
       <path id="CMR17-72" d="M 960 1517 
C 960 2134 1222 2713 1702 2713 
C 1747 2713 1792 2707 1837 2687 
C 1837 2687 1696 2642 1696 2475 
C 1696 2321 1818 2257 1914 2257 
C 1990 2257 2131 2302 2131 2482 
C 2131 2687 1926 2816 1709 2816 
C 1222 2816 1011 2340 947 2115 
L 941 2115 
L 941 2816 
L 198 2745 
L 198 2578 
C 576 2578 634 2540 634 2231 
L 634 443 
C 634 198 608 166 198 166 
L 198 0 
C 352 12 646 12 813 12 
C 998 12 1325 12 1498 0 
L 1498 166 
C 1037 166 960 166 960 455 
L 960 1517 
z
" transform="scale(0.015625)"/>
       <path id="CMR17-6f" d="M 2758 1356 
C 2758 2176 2163 2816 1466 2816 
C 768 2816 173 2176 173 1356 
C 173 550 768 -64 1466 -64 
C 2163 -64 2758 550 2758 1356 
z
M 1466 51 
C 1165 51 909 230 762 480 
C 602 768 582 1126 582 1408 
C 582 1676 595 2009 762 2297 
C 890 2508 1139 2713 1466 2713 
C 1754 2713 1997 2553 2150 2329 
C 2349 2028 2349 1606 2349 1408 
C 2349 1158 2336 774 2163 467 
C 1984 172 1709 51 1466 51 
z
" transform="scale(0.015625)"/>
       <path id="CMR17-66" d="M 979 2585 
L 1709 2585 
L 1709 2752 
L 966 2752 
L 966 3539 
C 966 4076 1235 4377 1510 4377 
C 1594 4377 1690 4363 1754 4339 
C 1702 4326 1568 4281 1568 4121 
C 1568 3955 1696 3904 1786 3904 
C 1875 3904 2003 3955 2003 4121 
C 2003 4353 1773 4480 1517 4480 
C 1152 4480 653 4211 653 3526 
L 653 2752 
L 141 2752 
L 141 2585 
L 653 2585 
L 653 441 
C 653 198 627 166 218 166 
L 218 0 
C 371 12 666 12 832 12 
C 1018 12 1344 12 1517 0 
L 1517 166 
C 1056 166 979 166 979 454 
L 979 2585 
z
" transform="scale(0.015625)"/>
       <path id="CMR17-74" d="M 966 2585 
L 1862 2585 
L 1862 2752 
L 966 2752 
L 966 3968 
L 851 3968 
C 838 3292 614 2700 70 2687 
L 70 2585 
L 627 2585 
L 627 778 
C 627 655 627 -64 1370 -64 
C 1747 -64 1965 308 1965 784 
L 1965 1151 
L 1850 1151 
L 1850 790 
C 1850 347 1677 51 1408 51 
C 1222 51 966 179 966 765 
L 966 2585 
z
" transform="scale(0.015625)"/>
       <path id="CMR17-68" d="M 2656 1954 
C 2656 2282 2592 2816 1837 2816 
C 1312 2816 1056 2392 979 2179 
L 973 2179 
L 973 4416 
L 211 4345 
L 211 4179 
C 589 4179 646 4141 646 3843 
L 646 443 
C 646 198 621 166 211 166 
L 211 0 
C 365 12 646 12 813 12 
C 979 12 1267 12 1421 0 
L 1421 166 
C 1011 166 986 192 986 443 
L 986 1678 
C 986 2269 1344 2713 1792 2713 
C 2266 2713 2317 2289 2317 1980 
L 2317 443 
C 2317 198 2291 166 1882 166 
L 1882 0 
C 2035 12 2317 12 2483 12 
C 2650 12 2938 12 3091 0 
L 3091 166 
C 2682 166 2656 192 2656 443 
L 2656 1954 
z
" transform="scale(0.015625)"/>
       <path id="CMR17-61" d="M 2304 1656 
C 2304 2048 2304 2275 2035 2534 
C 1798 2751 1523 2816 1306 2816 
C 800 2816 435 2408 435 1977 
C 435 1740 627 1728 666 1728 
C 749 1728 896 1779 896 1958 
C 896 2118 774 2188 666 2188 
C 640 2188 608 2182 589 2176 
C 723 2594 1069 2713 1293 2713 
C 1613 2713 1965 2421 1965 1875 
L 1965 1632 
C 1587 1619 1133 1568 774 1373 
C 371 1147 256 822 256 576 
C 256 77 832 -64 1171 -64 
C 1523 -64 1850 135 1990 505 
C 2003 219 2182 -39 2464 -39 
C 2598 -39 2938 51 2938 563 
L 2938 926 
L 2822 926 
L 2822 557 
C 2822 161 2650 109 2566 109 
C 2304 109 2304 446 2304 732 
L 2304 1656 
z
M 1965 887 
C 1965 323 1568 38 1216 38 
C 896 38 646 278 646 576 
C 646 771 730 1114 1101 1322 
C 1408 1497 1760 1523 1965 1536 
L 1965 887 
z
" transform="scale(0.015625)"/>
       <path id="CMR17-64" d="M 1869 4345 
L 1869 4179 
C 2246 4179 2304 4141 2304 3843 
L 2304 2371 
C 2278 2403 2016 2816 1498 2816 
C 845 2816 211 2228 211 1376 
C 211 529 806 -64 1434 -64 
C 1978 -64 2259 361 2291 406 
L 2291 -64 
L 3066 -13 
L 3066 154 
C 2688 154 2630 193 2630 503 
L 2630 4416 
L 1869 4345 
z
M 2291 762 
C 2291 568 2176 393 2029 264 
C 1811 70 1594 38 1472 38 
C 1286 38 621 135 621 1369 
C 621 2636 1363 2713 1530 2713 
C 1824 2713 2061 2545 2208 2313 
C 2291 2177 2291 2157 2291 2041 
L 2291 762 
z
" transform="scale(0.015625)"/>
       <path id="CMR17-73" d="M 1978 2688 
C 1978 2803 1971 2809 1933 2809 
C 1907 2809 1901 2803 1824 2707 
C 1805 2681 1747 2617 1728 2592 
C 1523 2809 1235 2816 1126 2816 
C 416 2816 160 2444 160 2073 
C 160 1497 813 1363 998 1324 
C 1402 1241 1542 1216 1677 1100 
C 1760 1024 1901 883 1901 652 
C 1901 384 1747 38 1158 38 
C 602 38 403 460 288 1024 
C 269 1113 269 1120 218 1120 
C 166 1120 160 1113 160 985 
L 160 64 
C 160 -52 166 -58 205 -58 
C 237 -58 243 -52 275 0 
C 314 57 410 211 448 275 
C 576 102 800 -64 1158 -64 
C 1792 -64 2131 281 2131 780 
C 2131 1107 1958 1280 1875 1356 
C 1683 1555 1459 1600 1190 1651 
C 838 1728 390 1817 390 2208 
C 390 2374 480 2726 1126 2726 
C 1811 2726 1850 2086 1862 1881 
C 1869 1849 1901 1843 1920 1843 
C 1978 1843 1978 1862 1978 1971 
L 1978 2688 
z
" transform="scale(0.015625)"/>
      </defs>
      <use xlink:href="#CMR17-4e" transform="scale(0.996264)"/>
      <use xlink:href="#CMR17-75" transform="translate(69.07243 0)scale(0.996264)"/>
      <use xlink:href="#CMR17-6d" transform="translate(119.9678 0)scale(0.996264)"/>
      <use xlink:href="#CMR17-62" transform="translate(194.284936 0)scale(0.996264)"/>
      <use xlink:href="#CMR17-65" transform="translate(247.782744 0)scale(0.996264)"/>
      <use xlink:href="#CMR17-72" transform="translate(288.268404 0)scale(0.996264)"/>
      <use xlink:href="#CMR17-6f" transform="translate(345.688379 0)scale(0.996264)"/>
      <use xlink:href="#CMR17-66" transform="translate(391.378856 0)scale(0.996264)"/>
      <use xlink:href="#CMR17-74" transform="translate(446.897088 0)scale(0.996264)"/>
      <use xlink:href="#CMR17-68" transform="translate(482.177856 0)scale(0.996264)"/>
      <use xlink:href="#CMR17-72" transform="translate(533.073226 0)scale(0.996264)"/>
      <use xlink:href="#CMR17-65" transform="translate(568.353994 0)scale(0.996264)"/>
      <use xlink:href="#CMR17-61" transform="translate(608.839654 0)scale(0.996264)"/>
      <use xlink:href="#CMR17-64" transform="translate(654.530131 0)scale(0.996264)"/>
      <use xlink:href="#CMR17-73" transform="translate(705.425501 0)scale(0.996264)"/>
     </g>
    </g>
   </g>
   <g id="matplotlib.axis_2">
    <g id="ytick_1">
     <g id="line2d_10">
      <defs>
       <path id="mbc2b252d78" d="M 0 0 
L -3.5 0 
" style="stroke: #000000; stroke-width: 0.8"/>
      </defs>
      <g>
       <use xlink:href="#mbc2b252d78" x="37.018347" y="57.307145" style="stroke: #000000; stroke-width: 0.8"/>
      </g>
     </g>
     <g id="text_11">
      <!-- $\mathdefault{10}$ -->
      <g transform="translate(20.055677 60.766394)scale(0.1 -0.1)">
       <defs>
        <path id="CMR17-30" d="M 2688 2038 
C 2688 2430 2682 3099 2413 3613 
C 2176 4063 1798 4224 1466 4224 
C 1158 4224 768 4082 525 3620 
C 269 3137 243 2539 243 2038 
C 243 1671 250 1112 448 623 
C 723 -39 1216 -128 1466 -128 
C 1760 -128 2208 -7 2470 604 
C 2662 1048 2688 1568 2688 2038 
z
M 1466 -26 
C 1056 -26 813 328 723 816 
C 653 1196 653 1749 653 2109 
C 653 2604 653 3015 736 3407 
C 858 3954 1216 4121 1466 4121 
C 1728 4121 2067 3947 2189 3420 
C 2272 3054 2278 2623 2278 2109 
C 2278 1691 2278 1176 2202 797 
C 2067 96 1690 -26 1466 -26 
z
" transform="scale(0.015625)"/>
       </defs>
       <use xlink:href="#CMR17-31" transform="scale(0.996264)"/>
       <use xlink:href="#CMR17-30" transform="translate(45.690477 0)scale(0.996264)"/>
      </g>
     </g>
    </g>
    <g id="ytick_2">
     <g id="line2d_11">
      <g>
       <use xlink:href="#mbc2b252d78" x="37.018347" y="12.086295" style="stroke: #000000; stroke-width: 0.8"/>
      </g>
     </g>
     <g id="text_12">
      <!-- $\mathdefault{20}$ -->
      <g transform="translate(20.055677 15.545545)scale(0.1 -0.1)">
       <use xlink:href="#CMR17-32" transform="scale(0.996264)"/>
       <use xlink:href="#CMR17-30" transform="translate(45.690477 0)scale(0.996264)"/>
      </g>
     </g>
    </g>
    <g id="text_13">
     <!-- $\mathrm{Speed{\mbox{-}}up}$ -->
     <g transform="translate(14.118498 74.828692)rotate(-90)scale(0.1 -0.1)">
      <defs>
       <path id="CMR17-53" d="M 2803 4351 
C 2803 4467 2797 4473 2758 4473 
C 2720 4473 2707 4447 2682 4390 
L 2490 3965 
C 2246 4320 1875 4480 1472 4480 
C 819 4480 294 3958 294 3301 
C 294 3101 339 2817 557 2546 
C 794 2250 1018 2198 1530 2063 
C 1722 2011 2042 1927 2106 1901 
C 2470 1747 2662 1360 2662 999 
C 2662 534 2336 38 1779 38 
C 1094 38 454 425 410 1328 
C 403 1431 397 1437 352 1437 
C 301 1437 294 1431 294 1302 
L 294 0 
C 294 -116 301 -122 339 -122 
C 384 -122 397 -90 486 109 
C 493 128 493 141 614 386 
C 934 -39 1472 -128 1779 -128 
C 2477 -128 2970 457 2970 1141 
C 2970 1476 2848 1734 2778 1850 
C 2509 2263 2221 2340 1914 2417 
C 1869 2437 1856 2437 1498 2527 
C 1152 2617 1005 2662 845 2836 
C 666 3036 602 3243 602 3449 
C 602 3868 934 4326 1478 4326 
C 2157 4326 2579 3842 2675 3036 
C 2694 2920 2701 2914 2746 2914 
C 2803 2914 2803 2933 2803 3043 
L 2803 4351 
z
" transform="scale(0.015625)"/>
       <path id="CMR17-70" d="M 1408 -1114 
C 998 -1114 973 -1088 973 -834 
L 973 380 
C 1158 109 1427 -64 1766 -64 
C 2406 -64 3053 503 3053 1382 
C 3053 2196 2496 2816 1837 2816 
C 1453 2816 1139 2603 960 2345 
L 960 2816 
L 198 2745 
L 198 2577 
C 576 2577 634 2539 634 2228 
L 634 -834 
C 634 -1081 608 -1114 198 -1114 
L 198 -1280 
C 352 -1268 634 -1268 800 -1268 
C 966 -1268 1254 -1268 1408 -1280 
L 1408 -1114 
z
M 973 2015 
C 973 2106 973 2241 1222 2481 
C 1254 2506 1472 2700 1792 2700 
C 2259 2700 2643 2112 2643 1376 
C 2643 639 2234 38 1728 38 
C 1498 38 1248 148 1056 451 
C 973 594 973 632 973 736 
L 973 2015 
z
" transform="scale(0.015625)"/>
       <path id="CMSS17-2d" d="M 1664 1216 
L 1664 1587 
L 64 1587 
L 64 1216 
L 1664 1216 
z
" transform="scale(0.015625)"/>
      </defs>
      <use xlink:href="#CMR17-53" transform="scale(0.996264)"/>
      <use xlink:href="#CMR17-70" transform="translate(50.89537 0)scale(0.996264)"/>
      <use xlink:href="#CMR17-65" transform="translate(104.393178 0)scale(0.996264)"/>
      <use xlink:href="#CMR17-65" transform="translate(144.878839 0)scale(0.996264)"/>
      <use xlink:href="#CMR17-64" transform="translate(185.364499 0)scale(0.996264)"/>
      <use xlink:href="#CMSS17-2d" transform="translate(236.259869 0)scale(0.996264)"/>
      <use xlink:href="#CMR17-75" transform="translate(267.488982 0)scale(0.996264)"/>
      <use xlink:href="#CMR17-70" transform="translate(318.384352 0)scale(0.996264)"/>
     </g>
    </g>
   </g>
   <g id="LineCollection_1">
    <path d="M 47.116393 98.005909 
L 52.094303 98.005909 
" clip-path="url(#p1ebd7c028b)" style="fill: none; stroke: #000000; stroke-width: 1.5"/>
    <path d="M 75.561593 93.447613 
L 80.539503 93.447613 
" clip-path="url(#p1ebd7c028b)" style="fill: none; stroke: #000000; stroke-width: 1.5"/>
    <path d="M 104.006792 86.05354 
L 108.984702 86.05354 
" clip-path="url(#p1ebd7c028b)" style="fill: none; stroke: #000000; stroke-width: 1.5"/>
    <path d="M 120.646168 78.065201 
L 125.624077 78.065201 
" clip-path="url(#p1ebd7c028b)" style="fill: none; stroke: #000000; stroke-width: 1.5"/>
    <path d="M 132.451992 71.783694 
L 137.429902 71.783694 
" clip-path="url(#p1ebd7c028b)" style="fill: none; stroke: #000000; stroke-width: 1.5"/>
    <path d="M 149.091367 59.425895 
L 154.069277 59.425895 
" clip-path="url(#p1ebd7c028b)" style="fill: none; stroke: #000000; stroke-width: 1.5"/>
    <path d="M 160.897192 46.686727 
L 165.875102 46.686727 
" clip-path="url(#p1ebd7c028b)" style="fill: none; stroke: #000000; stroke-width: 1.5"/>
    <path d="M 177.536567 29.844087 
L 182.514477 29.844087 
" clip-path="url(#p1ebd7c028b)" style="fill: none; stroke: #000000; stroke-width: 1.5"/>
    <path d="M 189.342391 11.524091 
L 194.320301 11.524091 
" clip-path="url(#p1ebd7c028b)" style="fill: none; stroke: #000000; stroke-width: 1.5"/>
   </g>
   <g id="LineCollection_2">
    <path d="M 47.116393 98.005909 
L 52.094303 98.005909 
" clip-path="url(#p1ebd7c028b)" style="fill: none; stroke: #000000; stroke-width: 1.5"/>
    <path d="M 75.561593 96.851691 
L 80.539503 96.851691 
" clip-path="url(#p1ebd7c028b)" style="fill: none; stroke: #000000; stroke-width: 1.5"/>
    <path d="M 104.006792 91.352534 
L 108.984702 91.352534 
" clip-path="url(#p1ebd7c028b)" style="fill: none; stroke: #000000; stroke-width: 1.5"/>
    <path d="M 120.646168 91.541493 
L 125.624077 91.541493 
" clip-path="url(#p1ebd7c028b)" style="fill: none; stroke: #000000; stroke-width: 1.5"/>
    <path d="M 132.451992 89.575285 
L 137.429902 89.575285 
" clip-path="url(#p1ebd7c028b)" style="fill: none; stroke: #000000; stroke-width: 1.5"/>
    <path d="M 149.091367 87.898113 
L 154.069277 87.898113 
" clip-path="url(#p1ebd7c028b)" style="fill: none; stroke: #000000; stroke-width: 1.5"/>
    <path d="M 160.897192 86.411145 
L 165.875102 86.411145 
" clip-path="url(#p1ebd7c028b)" style="fill: none; stroke: #000000; stroke-width: 1.5"/>
    <path d="M 177.536567 87.446173 
L 182.514477 87.446173 
" clip-path="url(#p1ebd7c028b)" style="fill: none; stroke: #000000; stroke-width: 1.5"/>
    <path d="M 189.342391 87.729733 
L 194.320301 87.729733 
" clip-path="url(#p1ebd7c028b)" style="fill: none; stroke: #000000; stroke-width: 1.5"/>
   </g>
   <g id="LineCollection_3">
    <path d="M 49.605348 98.005909 
L 49.605348 98.005909 
" clip-path="url(#p1ebd7c028b)" style="fill: none; stroke: #000000; stroke-width: 1.5"/>
    <path d="M 78.050548 96.851691 
L 78.050548 93.447613 
" clip-path="url(#p1ebd7c028b)" style="fill: none; stroke: #000000; stroke-width: 1.5"/>
    <path d="M 106.495747 91.352534 
L 106.495747 86.05354 
" clip-path="url(#p1ebd7c028b)" style="fill: none; stroke: #000000; stroke-width: 1.5"/>
    <path d="M 123.135123 91.541493 
L 123.135123 78.065201 
" clip-path="url(#p1ebd7c028b)" style="fill: none; stroke: #000000; stroke-width: 1.5"/>
    <path d="M 134.940947 89.575285 
L 134.940947 71.783694 
" clip-path="url(#p1ebd7c028b)" style="fill: none; stroke: #000000; stroke-width: 1.5"/>
    <path d="M 151.580322 87.898113 
L 151.580322 59.425895 
" clip-path="url(#p1ebd7c028b)" style="fill: none; stroke: #000000; stroke-width: 1.5"/>
    <path d="M 163.386147 86.411145 
L 163.386147 46.686727 
" clip-path="url(#p1ebd7c028b)" style="fill: none; stroke: #000000; stroke-width: 1.5"/>
    <path d="M 180.025522 87.446173 
L 180.025522 29.844087 
" clip-path="url(#p1ebd7c028b)" style="fill: none; stroke: #000000; stroke-width: 1.5"/>
    <path d="M 191.831346 87.729733 
L 191.831346 11.524091 
" clip-path="url(#p1ebd7c028b)" style="fill: none; stroke: #000000; stroke-width: 1.5"/>
   </g>
   <g id="LineCollection_4">
    <path d="M 47.116393 98.005909 
L 52.094303 98.005909 
" clip-path="url(#p1ebd7c028b)" style="fill: none; stroke: #000000; stroke-width: 1.5"/>
    <path d="M 75.561593 95.136566 
L 80.539503 95.136566 
" clip-path="url(#p1ebd7c028b)" style="fill: none; stroke: #000000; stroke-width: 1.5"/>
    <path d="M 104.006792 88.977956 
L 108.984702 88.977956 
" clip-path="url(#p1ebd7c028b)" style="fill: none; stroke: #000000; stroke-width: 1.5"/>
    <path d="M 120.646168 83.96506 
L 125.624077 83.96506 
" clip-path="url(#p1ebd7c028b)" style="fill: none; stroke: #000000; stroke-width: 1.5"/>
    <path d="M 132.451992 79.200068 
L 137.429902 79.200068 
" clip-path="url(#p1ebd7c028b)" style="fill: none; stroke: #000000; stroke-width: 1.5"/>
    <path d="M 149.091367 70.971909 
L 154.069277 70.971909 
" clip-path="url(#p1ebd7c028b)" style="fill: none; stroke: #000000; stroke-width: 1.5"/>
    <path d="M 160.897192 64.614638 
L 165.875102 64.614638 
" clip-path="url(#p1ebd7c028b)" style="fill: none; stroke: #000000; stroke-width: 1.5"/>
    <path d="M 177.536567 54.13822 
L 182.514477 54.13822 
" clip-path="url(#p1ebd7c028b)" style="fill: none; stroke: #000000; stroke-width: 1.5"/>
    <path d="M 189.342391 55.145627 
L 194.320301 55.145627 
" clip-path="url(#p1ebd7c028b)" style="fill: none; stroke: #000000; stroke-width: 1.5"/>
   </g>
   <g id="line2d_12">
    <path d="M 37.018347 98.005909 
L 204.418347 98.005909 
" clip-path="url(#p1ebd7c028b)" style="fill: none; stroke-dasharray: 3.7,1.6; stroke-dashoffset: 0; stroke: #000000"/>
   </g>
   <g id="patch_3">
    <path d="M 37.018347 102.33 
L 37.018347 7.2 
" style="fill: none; stroke: #000000; stroke-width: 0.8; stroke-linejoin: miter; stroke-linecap: square"/>
   </g>
   <g id="patch_4">
    <path d="M 204.418347 102.33 
L 204.418347 7.2 
" style="fill: none; stroke: #000000; stroke-width: 0.8; stroke-linejoin: miter; stroke-linecap: square"/>
   </g>
   <g id="patch_5">
    <path d="M 37.018347 102.33 
L 204.418347 102.33 
" style="fill: none; stroke: #000000; stroke-width: 0.8; stroke-linejoin: miter; stroke-linecap: square"/>
   </g>
   <g id="patch_6">
    <path d="M 37.018347 7.2 
L 204.418347 7.2 
" style="fill: none; stroke: #000000; stroke-width: 0.8; stroke-linejoin: miter; stroke-linecap: square"/>
   </g>
  </g>
 </g>
 <defs>
  <clipPath id="p1ebd7c028b">
   <rect x="37.018347" y="7.2" width="167.4" height="95.13"/>
  </clipPath>
 </defs>
</svg>
