<?xml version="1.0" encoding="utf-8" standalone="no"?>
<!DOCTYPE svg PUBLIC "-//W3C//DTD SVG 1.1//EN"
  "http://www.w3.org/Graphics/SVG/1.1/DTD/svg11.dtd">
<svg xmlns:xlink="http://www.w3.org/1999/xlink" width="211.618347pt" height="138.241353pt" viewBox="0 0 211.618347 138.241353" xmlns="http://www.w3.org/2000/svg" version="1.1">
 <metadata>
  <rdf:RDF xmlns:dc="http://purl.org/dc/elements/1.1/" xmlns:cc="http://creativecommons.org/ns#" xmlns:rdf="http://www.w3.org/1999/02/22-rdf-syntax-ns#">
   <cc:Work>
    <dc:type rdf:resource="http://purl.org/dc/dcmitype/StillImage"/>
    <dc:date>2022-04-21T15:07:41.753520</dc:date>
    <dc:format>image/svg+xml</dc:format>
    <dc:creator>
     <cc:Agent>
      <dc:title>Matplotlib v3.5.1, https://matplotlib.org/</dc:title>
     </cc:Agent>
    </dc:creator>
   </cc:Work>
  </rdf:RDF>
 </metadata>
 <defs>
  <style type="text/css">*{stroke-linejoin: round; stroke-linecap: butt}</style>
 </defs>
 <g id="figure_1">
  <g id="patch_1">
   <path d="M 0 138.241353 
L 211.618347 138.241353 
L 211.618347 -0 
L 0 -0 
L 0 138.241353 
z
" style="fill: none"/>
  </g>
  <g id="axes_1">
   <g id="patch_2">
    <path d="M 37.018347 102.33 
L 204.418347 102.33 
L 204.418347 7.2 
L 37.018347 7.2 
z
" style="fill: #ffffff"/>
   </g>
   <g id="PolyCollection_1">
    <path d="M 54.583258 96.384375 
L 44.627438 96.384375 
L 44.627438 96.384375 
L 44.627438 96.384375 
L 44.627438 96.384375 
L 44.627438 96.384375 
L 44.627438 96.384375 
L 44.627438 96.384375 
L 44.627438 96.384375 
L 44.627438 96.384375 
L 44.627438 96.384375 
L 44.627438 96.384375 
L 44.627438 96.384375 
L 44.627438 96.384375 
L 44.627438 96.384375 
L 44.627438 96.384375 
L 44.627438 96.384375 
L 44.627438 96.384375 
L 44.627438 96.384375 
L 44.627438 96.384375 
L 44.627438 96.384375 
L 44.627438 96.384375 
L 44.627438 96.384375 
L 44.627438 96.384375 
L 44.627438 96.384375 
L 44.627438 96.384375 
L 44.627438 96.384375 
L 44.627438 96.384375 
L 44.627438 96.384375 
L 44.627438 96.384375 
L 44.627438 96.384375 
L 44.627438 96.384375 
L 44.627438 96.384375 
L 44.627438 96.384375 
L 44.627438 96.384375 
L 44.627438 96.384375 
L 44.627438 96.384375 
L 44.627438 96.384375 
L 44.627438 96.384375 
L 44.627438 96.384375 
L 44.627438 96.384375 
L 44.627438 96.384375 
L 44.627438 96.384375 
L 44.627438 96.384375 
L 44.627438 96.384375 
L 44.627438 96.384375 
L 44.627438 96.384375 
L 44.627438 96.384375 
L 44.627438 96.384375 
L 44.627438 96.384375 
L 44.627438 96.384375 
L 44.627438 96.384375 
L 44.627438 96.384375 
L 44.627438 96.384375 
L 44.627438 96.384375 
L 44.627438 96.384375 
L 44.627438 96.384375 
L 44.627438 96.384375 
L 44.627438 96.384375 
L 44.627438 96.384375 
L 44.627438 96.384375 
L 44.627438 96.384375 
L 44.627438 96.384375 
L 44.627438 96.384375 
L 44.627438 96.384375 
L 44.627438 96.384375 
L 44.627438 96.384375 
L 44.627438 96.384375 
L 44.627438 96.384375 
L 44.627438 96.384375 
L 44.627438 96.384375 
L 44.627438 96.384375 
L 44.627438 96.384375 
L 44.627438 96.384375 
L 44.627438 96.384375 
L 44.627438 96.384375 
L 44.627438 96.384375 
L 44.627438 96.384375 
L 44.627438 96.384375 
L 44.627438 96.384375 
L 44.627438 96.384375 
L 44.627438 96.384375 
L 44.627438 96.384375 
L 44.627438 96.384375 
L 44.627438 96.384375 
L 44.627438 96.384375 
L 44.627438 96.384375 
L 44.627438 96.384375 
L 44.627438 96.384375 
L 44.627438 96.384375 
L 44.627438 96.384375 
L 44.627438 96.384375 
L 44.627438 96.384375 
L 44.627438 96.384375 
L 44.627438 96.384375 
L 44.627438 96.384375 
L 44.627438 96.384375 
L 44.627438 96.384375 
L 44.627438 96.384375 
L 44.627438 96.384375 
L 44.627438 96.384375 
L 54.583258 96.384375 
L 54.583258 96.384375 
L 54.583258 96.384375 
L 54.583258 96.384375 
L 54.583258 96.384375 
L 54.583258 96.384375 
L 54.583258 96.384375 
L 54.583258 96.384375 
L 54.583258 96.384375 
L 54.583258 96.384375 
L 54.583258 96.384375 
L 54.583258 96.384375 
L 54.583258 96.384375 
L 54.583258 96.384375 
L 54.583258 96.384375 
L 54.583258 96.384375 
L 54.583258 96.384375 
L 54.583258 96.384375 
L 54.583258 96.384375 
L 54.583258 96.384375 
L 54.583258 96.384375 
L 54.583258 96.384375 
L 54.583258 96.384375 
L 54.583258 96.384375 
L 54.583258 96.384375 
L 54.583258 96.384375 
L 54.583258 96.384375 
L 54.583258 96.384375 
L 54.583258 96.384375 
L 54.583258 96.384375 
L 54.583258 96.384375 
L 54.583258 96.384375 
L 54.583258 96.384375 
L 54.583258 96.384375 
L 54.583258 96.384375 
L 54.583258 96.384375 
L 54.583258 96.384375 
L 54.583258 96.384375 
L 54.583258 96.384375 
L 54.583258 96.384375 
L 54.583258 96.384375 
L 54.583258 96.384375 
L 54.583258 96.384375 
L 54.583258 96.384375 
L 54.583258 96.384375 
L 54.583258 96.384375 
L 54.583258 96.384375 
L 54.583258 96.384375 
L 54.583258 96.384375 
L 54.583258 96.384375 
L 54.583258 96.384375 
L 54.583258 96.384375 
L 54.583258 96.384375 
L 54.583258 96.384375 
L 54.583258 96.384375 
L 54.583258 96.384375 
L 54.583258 96.384375 
L 54.583258 96.384375 
L 54.583258 96.384375 
L 54.583258 96.384375 
L 54.583258 96.384375 
L 54.583258 96.384375 
L 54.583258 96.384375 
L 54.583258 96.384375 
L 54.583258 96.384375 
L 54.583258 96.384375 
L 54.583258 96.384375 
L 54.583258 96.384375 
L 54.583258 96.384375 
L 54.583258 96.384375 
L 54.583258 96.384375 
L 54.583258 96.384375 
L 54.583258 96.384375 
L 54.583258 96.384375 
L 54.583258 96.384375 
L 54.583258 96.384375 
L 54.583258 96.384375 
L 54.583258 96.384375 
L 54.583258 96.384375 
L 54.583258 96.384375 
L 54.583258 96.384375 
L 54.583258 96.384375 
L 54.583258 96.384375 
L 54.583258 96.384375 
L 54.583258 96.384375 
L 54.583258 96.384375 
L 54.583258 96.384375 
L 54.583258 96.384375 
L 54.583258 96.384375 
L 54.583258 96.384375 
L 54.583258 96.384375 
L 54.583258 96.384375 
L 54.583258 96.384375 
L 54.583258 96.384375 
L 54.583258 96.384375 
L 54.583258 96.384375 
L 54.583258 96.384375 
L 54.583258 96.384375 
L 54.583258 96.384375 
L 54.583258 96.384375 
L 54.583258 96.384375 
z
" clip-path="url(#p7831c2033c)" style="fill: #ff0000; fill-opacity: 0.3"/>
   </g>
   <g id="PolyCollection_2">
    <path d="M 78.819759 102.139577 
L 77.281337 102.139577 
L 77.239175 101.964559 
L 77.208728 101.789541 
L 77.190616 101.614523 
L 77.184691 101.439505 
L 77.190045 101.264486 
L 77.205076 101.089468 
L 77.227565 100.91445 
L 77.254788 100.739432 
L 77.283616 100.564414 
L 77.310627 100.389395 
L 77.332221 100.214377 
L 77.344742 100.039359 
L 77.344635 99.864341 
L 77.328623 99.689323 
L 77.29392 99.514304 
L 77.238466 99.339286 
L 77.161166 99.164268 
L 77.0621 98.98925 
L 76.942673 98.814232 
L 76.805668 98.639213 
L 76.655163 98.464195 
L 76.496297 98.289177 
L 76.334889 98.114159 
L 76.176924 97.939141 
L 76.027964 97.764122 
L 75.892548 97.589104 
L 75.773659 97.414086 
L 75.672331 97.239068 
L 75.587465 97.06405 
L 75.515868 96.889031 
L 75.452529 96.714013 
L 75.391097 96.538995 
L 75.324499 96.363977 
L 75.245647 96.188959 
L 75.148153 96.01394 
L 75.02701 95.838922 
L 74.879189 95.663904 
L 74.70411 95.488886 
L 74.503965 95.313867 
L 74.28386 95.138849 
L 74.051736 94.963831 
L 73.818036 94.788813 
L 73.595114 94.613795 
L 73.396391 94.438776 
L 73.235289 94.263758 
L 73.124066 94.08874 
L 73.072638 93.913722 
L 73.087555 93.738704 
L 73.171263 93.563685 
L 73.321745 93.388667 
L 73.532627 93.213649 
L 73.793714 93.038631 
L 74.091925 92.863613 
L 74.412483 92.688594 
L 74.740237 92.513576 
L 75.060959 92.338558 
L 75.362469 92.16354 
L 75.635494 91.988522 
L 75.87418 91.813503 
L 76.076229 91.638485 
L 76.242691 91.463467 
L 76.377443 91.288449 
L 76.486435 91.113431 
L 76.576806 90.938412 
L 76.655968 90.763394 
L 76.730753 90.588376 
L 76.806728 90.413358 
L 76.887723 90.23834 
L 76.975624 90.063321 
L 77.070411 89.888303 
L 77.170426 89.713285 
L 77.272796 89.538267 
L 77.373947 89.363249 
L 77.470118 89.18823 
L 77.557837 89.013212 
L 77.63427 88.838194 
L 77.697465 88.663176 
L 77.74645 88.488158 
L 77.78122 88.313139 
L 77.802636 88.138121 
L 77.812256 87.963103 
L 77.812135 87.788085 
L 77.804607 87.613067 
L 77.792079 87.438048 
L 77.776841 87.26303 
L 77.760907 87.088012 
L 77.745907 86.912994 
L 77.733017 86.737976 
L 77.722959 86.562957 
L 77.716042 86.387939 
L 77.712251 86.212921 
L 77.711366 86.037903 
L 77.713083 85.862885 
L 77.717125 85.687866 
L 77.723312 85.512848 
L 77.7316 85.33783 
L 77.742054 85.162812 
L 77.754802 84.987794 
L 77.769956 84.812775 
L 78.33114 84.812775 
L 78.33114 84.812775 
L 78.346293 84.987794 
L 78.359041 85.162812 
L 78.369496 85.33783 
L 78.377783 85.512848 
L 78.383971 85.687866 
L 78.388012 85.862885 
L 78.389729 86.037903 
L 78.388844 86.212921 
L 78.385053 86.387939 
L 78.378136 86.562957 
L 78.368078 86.737976 
L 78.355189 86.912994 
L 78.340188 87.088012 
L 78.324255 87.26303 
L 78.309016 87.438048 
L 78.296489 87.613067 
L 78.288961 87.788085 
L 78.288839 87.963103 
L 78.298459 88.138121 
L 78.319875 88.313139 
L 78.354646 88.488158 
L 78.40363 88.663176 
L 78.466826 88.838194 
L 78.543259 89.013212 
L 78.630977 89.18823 
L 78.727149 89.363249 
L 78.828299 89.538267 
L 78.93067 89.713285 
L 79.030685 89.888303 
L 79.125472 90.063321 
L 79.213372 90.23834 
L 79.294368 90.413358 
L 79.370343 90.588376 
L 79.445128 90.763394 
L 79.524289 90.938412 
L 79.614661 91.113431 
L 79.723652 91.288449 
L 79.858404 91.463467 
L 80.024867 91.638485 
L 80.226916 91.813503 
L 80.465601 91.988522 
L 80.738627 92.16354 
L 81.040137 92.338558 
L 81.360858 92.513576 
L 81.688612 92.688594 
L 82.00917 92.863613 
L 82.307381 93.038631 
L 82.568469 93.213649 
L 82.77935 93.388667 
L 82.929833 93.563685 
L 83.01354 93.738704 
L 83.028458 93.913722 
L 82.977029 94.08874 
L 82.865806 94.263758 
L 82.704705 94.438776 
L 82.505981 94.613795 
L 82.28306 94.788813 
L 82.049359 94.963831 
L 81.817235 95.138849 
L 81.597131 95.313867 
L 81.396986 95.488886 
L 81.221906 95.663904 
L 81.074085 95.838922 
L 80.952943 96.01394 
L 80.855449 96.188959 
L 80.776596 96.363977 
L 80.709999 96.538995 
L 80.648566 96.714013 
L 80.585228 96.889031 
L 80.51363 97.06405 
L 80.428764 97.239068 
L 80.327437 97.414086 
L 80.208547 97.589104 
L 80.073132 97.764122 
L 79.924172 97.939141 
L 79.766207 98.114159 
L 79.604799 98.289177 
L 79.445933 98.464195 
L 79.295427 98.639213 
L 79.158422 98.814232 
L 79.038996 98.98925 
L 78.93993 99.164268 
L 78.862629 99.339286 
L 78.807176 99.514304 
L 78.772472 99.689323 
L 78.75646 99.864341 
L 78.756353 100.039359 
L 78.768874 100.214377 
L 78.790468 100.389395 
L 78.81748 100.564414 
L 78.846308 100.739432 
L 78.87353 100.91445 
L 78.89602 101.089468 
L 78.91105 101.264486 
L 78.916405 101.439505 
L 78.910479 101.614523 
L 78.892368 101.789541 
L 78.861921 101.964559 
L 78.819759 102.139577 
z
" clip-path="url(#p7831c2033c)" style="fill: #ff0000; fill-opacity: 0.3"/>
   </g>
   <g id="PolyCollection_3">
    <path d="M 109.276733 102.19934 
L 103.714762 102.19934 
L 103.566008 101.990953 
L 103.436127 101.782565 
L 103.325384 101.574178 
L 103.232939 101.365791 
L 103.156939 101.157403 
L 103.094696 100.949016 
L 103.042925 100.740628 
L 102.998026 100.532241 
L 102.956371 100.323854 
L 102.914581 100.115466 
L 102.869753 99.907079 
L 102.819646 99.698691 
L 102.762779 99.490304 
L 102.698473 99.281917 
L 102.626831 99.073529 
L 102.548655 98.865142 
L 102.46534 98.656754 
L 102.378739 98.448367 
L 102.291021 98.23998 
L 102.204533 98.031592 
L 102.121675 97.823205 
L 102.044785 97.614817 
L 101.976039 97.40643 
L 101.917371 97.198043 
L 101.870398 96.989655 
L 101.836368 96.781268 
L 101.816119 96.572881 
L 101.810055 96.364493 
L 101.818146 96.156106 
L 101.839935 95.947718 
L 101.874583 95.739331 
L 101.920913 95.530944 
L 101.977473 95.322556 
L 102.042602 95.114169 
L 102.114496 94.905781 
L 102.19126 94.697394 
L 102.270944 94.489007 
L 102.351571 94.280619 
L 102.431141 94.072232 
L 102.507626 93.863844 
L 102.578961 93.655457 
L 102.64304 93.44707 
L 102.697723 93.238682 
L 102.740864 93.030295 
L 102.770371 92.821907 
L 102.784287 92.61352 
L 102.780906 92.405133 
L 102.758909 92.196745 
L 102.717514 91.988358 
L 102.656622 91.779971 
L 102.576957 91.571583 
L 102.480165 91.363196 
L 102.368875 91.154808 
L 102.246697 90.946421 
L 102.118149 90.738034 
L 101.988523 90.529646 
L 101.863665 90.321259 
L 101.749711 90.112871 
L 101.652773 89.904484 
L 101.578603 89.696097 
L 101.532264 89.487709 
L 101.517837 89.279322 
L 101.538176 89.070934 
L 101.594745 88.862547 
L 101.687551 88.65416 
L 101.815165 88.445772 
L 101.974841 88.237385 
L 102.162715 88.028998 
L 102.374062 87.82061 
L 102.603593 87.612223 
L 102.845756 87.403835 
L 103.095032 87.195448 
L 103.346186 86.987061 
L 103.594472 86.778673 
L 103.835784 86.570286 
L 104.066733 86.361898 
L 104.284686 86.153511 
L 104.487737 85.945124 
L 104.674663 85.736736 
L 104.84484 85.528349 
L 104.998159 85.319961 
L 105.134931 85.111574 
L 105.255808 84.903187 
L 105.3617 84.694799 
L 105.453719 84.486412 
L 105.533119 84.278024 
L 105.601258 84.069637 
L 105.659551 83.86125 
L 105.709445 83.652862 
L 105.75238 83.444475 
L 105.789763 83.236088 
L 105.822932 83.0277 
L 105.853128 82.819313 
L 105.881467 82.610925 
L 105.908915 82.402538 
L 105.936265 82.194151 
L 105.964128 81.985763 
L 105.99292 81.777376 
L 106.022869 81.568988 
L 106.968626 81.568988 
L 106.968626 81.568988 
L 106.998575 81.777376 
L 107.027367 81.985763 
L 107.05523 82.194151 
L 107.08258 82.402538 
L 107.110027 82.610925 
L 107.138367 82.819313 
L 107.168563 83.0277 
L 107.201731 83.236088 
L 107.239114 83.444475 
L 107.28205 83.652862 
L 107.331944 83.86125 
L 107.390237 84.069637 
L 107.458375 84.278024 
L 107.537776 84.486412 
L 107.629795 84.694799 
L 107.735687 84.903187 
L 107.856563 85.111574 
L 107.993336 85.319961 
L 108.146655 85.528349 
L 108.316832 85.736736 
L 108.503758 85.945124 
L 108.706809 86.153511 
L 108.924761 86.361898 
L 109.155711 86.570286 
L 109.397023 86.778673 
L 109.645309 86.987061 
L 109.896463 87.195448 
L 110.145739 87.403835 
L 110.387902 87.612223 
L 110.617432 87.82061 
L 110.82878 88.028998 
L 111.016654 88.237385 
L 111.17633 88.445772 
L 111.303943 88.65416 
L 111.396749 88.862547 
L 111.453319 89.070934 
L 111.473657 89.279322 
L 111.45923 89.487709 
L 111.412892 89.696097 
L 111.338722 89.904484 
L 111.241783 90.112871 
L 111.12783 90.321259 
L 111.002972 90.529646 
L 110.873345 90.738034 
L 110.744798 90.946421 
L 110.622619 91.154808 
L 110.511329 91.363196 
L 110.414538 91.571583 
L 110.334872 91.779971 
L 110.273981 91.988358 
L 110.232585 92.196745 
L 110.210589 92.405133 
L 110.207208 92.61352 
L 110.221124 92.821907 
L 110.25063 93.030295 
L 110.293772 93.238682 
L 110.348454 93.44707 
L 110.412533 93.655457 
L 110.483869 93.863844 
L 110.560354 94.072232 
L 110.639924 94.280619 
L 110.720551 94.489007 
L 110.800235 94.697394 
L 110.876998 94.905781 
L 110.948893 95.114169 
L 111.014022 95.322556 
L 111.070582 95.530944 
L 111.116911 95.739331 
L 111.15156 95.947718 
L 111.173349 96.156106 
L 111.181439 96.364493 
L 111.175376 96.572881 
L 111.155127 96.781268 
L 111.121097 96.989655 
L 111.074124 97.198043 
L 111.015455 97.40643 
L 110.94671 97.614817 
L 110.86982 97.823205 
L 110.786962 98.031592 
L 110.700474 98.23998 
L 110.612755 98.448367 
L 110.526154 98.656754 
L 110.44284 98.865142 
L 110.364664 99.073529 
L 110.293022 99.281917 
L 110.228716 99.490304 
L 110.171849 99.698691 
L 110.121741 99.907079 
L 110.076914 100.115466 
L 110.035123 100.323854 
L 109.993469 100.532241 
L 109.94857 100.740628 
L 109.896799 100.949016 
L 109.834555 101.157403 
L 109.758555 101.365791 
L 109.66611 101.574178 
L 109.555368 101.782565 
L 109.425486 101.990953 
L 109.276733 102.19934 
z
" clip-path="url(#p7831c2033c)" style="fill: #ff0000; fill-opacity: 0.3"/>
   </g>
   <g id="PolyCollection_4">
    <path d="M 127.126415 102.207854 
L 119.14383 102.207854 
L 118.942451 101.895995 
L 118.765184 101.584136 
L 118.612631 101.272277 
L 118.484515 100.960418 
L 118.379873 100.648559 
L 118.297294 100.3367 
L 118.235175 100.024841 
L 118.191953 99.712982 
L 118.166296 99.401123 
L 118.157213 99.089264 
L 118.164084 98.777405 
L 118.186608 98.465546 
L 118.224659 98.153687 
L 118.278108 97.841828 
L 118.346597 97.529969 
L 118.429322 97.218111 
L 118.524853 96.906252 
L 118.631003 96.594393 
L 118.744777 96.282534 
L 118.862406 95.970675 
L 118.979465 95.658816 
L 119.091075 95.346957 
L 119.192165 95.035098 
L 119.277769 94.723239 
L 119.34336 94.41138 
L 119.385158 94.099521 
L 119.400434 93.787662 
L 119.387748 93.475803 
L 119.347134 93.163944 
L 119.280201 92.852085 
L 119.190154 92.540227 
L 119.08171 92.228368 
L 118.96093 91.916509 
L 118.834961 91.60465 
L 118.711693 91.292791 
L 118.599353 90.980932 
L 118.506067 90.669073 
L 118.439392 90.357214 
L 118.40588 90.045355 
L 118.410676 89.733496 
L 118.457205 89.421637 
L 118.546956 89.109778 
L 118.679392 88.797919 
L 118.851994 88.48606 
L 119.060425 88.174201 
L 119.29882 87.862343 
L 119.560157 87.550484 
L 119.836699 87.238625 
L 120.120452 86.926766 
L 120.403612 86.614907 
L 120.678977 86.303048 
L 120.940274 85.991189 
L 121.182405 85.67933 
L 121.401592 85.367471 
L 121.595421 85.055612 
L 121.762797 84.743753 
L 121.90383 84.431894 
L 122.019652 84.120035 
L 122.112216 83.808176 
L 122.18407 83.496317 
L 122.238142 83.184459 
L 122.277535 82.8726 
L 122.305361 82.560741 
L 122.324597 82.248882 
L 122.337987 81.937023 
L 122.347962 81.625164 
L 122.356598 81.313305 
L 122.365595 81.001446 
L 122.376267 80.689587 
L 122.389546 80.377728 
L 122.405998 80.065869 
L 122.425838 79.75401 
L 122.448953 79.442151 
L 122.474929 79.130292 
L 122.503085 78.818433 
L 122.53251 78.506575 
L 122.562116 78.194716 
L 122.590687 77.882857 
L 122.61695 77.570998 
L 122.639639 77.259139 
L 122.657574 76.94728 
L 122.66973 76.635421 
L 122.67531 76.323562 
L 122.673803 76.011703 
L 122.665036 75.699844 
L 122.649203 75.387985 
L 122.626878 75.076126 
L 122.599002 74.764267 
L 122.566855 74.452408 
L 122.531996 74.140549 
L 122.496192 73.828691 
L 122.461324 73.516832 
L 122.429293 73.204973 
L 122.401907 72.893114 
L 122.380787 72.581255 
L 122.367274 72.269396 
L 122.362354 71.957537 
L 122.36661 71.645678 
L 122.380192 71.333819 
L 123.890053 71.333819 
L 123.890053 71.333819 
L 123.903635 71.645678 
L 123.907891 71.957537 
L 123.902971 72.269396 
L 123.889458 72.581255 
L 123.868338 72.893114 
L 123.840952 73.204973 
L 123.808921 73.516832 
L 123.774053 73.828691 
L 123.738249 74.140549 
L 123.70339 74.452408 
L 123.671243 74.764267 
L 123.643367 75.076126 
L 123.621042 75.387985 
L 123.605209 75.699844 
L 123.596442 76.011703 
L 123.594935 76.323562 
L 123.600515 76.635421 
L 123.612671 76.94728 
L 123.630606 77.259139 
L 123.653295 77.570998 
L 123.679558 77.882857 
L 123.708129 78.194716 
L 123.737735 78.506575 
L 123.76716 78.818433 
L 123.795316 79.130292 
L 123.821292 79.442151 
L 123.844407 79.75401 
L 123.864247 80.065869 
L 123.880699 80.377728 
L 123.893978 80.689587 
L 123.90465 81.001446 
L 123.913647 81.313305 
L 123.922283 81.625164 
L 123.932258 81.937023 
L 123.945648 82.248882 
L 123.964884 82.560741 
L 123.99271 82.8726 
L 124.032103 83.184459 
L 124.086175 83.496317 
L 124.158029 83.808176 
L 124.250593 84.120035 
L 124.366415 84.431894 
L 124.507448 84.743753 
L 124.674824 85.055612 
L 124.868653 85.367471 
L 125.08784 85.67933 
L 125.329971 85.991189 
L 125.591268 86.303048 
L 125.866633 86.614907 
L 126.149793 86.926766 
L 126.433546 87.238625 
L 126.710088 87.550484 
L 126.971425 87.862343 
L 127.20982 88.174201 
L 127.418251 88.48606 
L 127.590853 88.797919 
L 127.723289 89.109778 
L 127.81304 89.421637 
L 127.859569 89.733496 
L 127.864365 90.045355 
L 127.830853 90.357214 
L 127.764178 90.669073 
L 127.670892 90.980932 
L 127.558552 91.292791 
L 127.435284 91.60465 
L 127.309315 91.916509 
L 127.188535 92.228368 
L 127.080091 92.540227 
L 126.990044 92.852085 
L 126.923111 93.163944 
L 126.882497 93.475803 
L 126.869811 93.787662 
L 126.885087 94.099521 
L 126.926886 94.41138 
L 126.992476 94.723239 
L 127.07808 95.035098 
L 127.17917 95.346957 
L 127.290781 95.658816 
L 127.407839 95.970675 
L 127.525468 96.282534 
L 127.639242 96.594393 
L 127.745392 96.906252 
L 127.840923 97.218111 
L 127.923648 97.529969 
L 127.992137 97.841828 
L 128.045586 98.153687 
L 128.083638 98.465546 
L 128.106161 98.777405 
L 128.113032 99.089264 
L 128.103949 99.401123 
L 128.078292 99.712982 
L 128.03507 100.024841 
L 127.972951 100.3367 
L 127.890372 100.648559 
L 127.78573 100.960418 
L 127.657614 101.272277 
L 127.505061 101.584136 
L 127.327794 101.895995 
L 127.126415 102.207854 
z
" clip-path="url(#p7831c2033c)" style="fill: #ff0000; fill-opacity: 0.3"/>
   </g>
   <g id="PolyCollection_5">
    <path d="M 138.653768 102.214577 
L 131.228126 102.214577 
L 131.073316 101.903248 
L 130.948322 101.591919 
L 130.85282 101.28059 
L 130.785083 100.969261 
L 130.742191 100.657932 
L 130.720319 100.346603 
L 130.715105 100.035274 
L 130.722026 99.723945 
L 130.736767 99.412616 
L 130.755546 99.101287 
L 130.775355 98.789958 
L 130.794117 98.478629 
L 130.81074 98.1673 
L 130.825079 97.855971 
L 130.837814 97.544642 
L 130.850272 97.233313 
L 130.864209 96.921984 
L 130.881578 96.610655 
L 130.904304 96.299326 
L 130.934089 95.987997 
L 130.972247 95.676668 
L 131.019584 95.365339 
L 131.076318 95.05401 
L 131.142045 94.742681 
L 131.215732 94.431352 
L 131.295744 94.120023 
L 131.379891 93.808694 
L 131.465495 93.497365 
L 131.549471 93.186036 
L 131.628426 92.874707 
L 131.698769 92.563378 
L 131.756841 92.252049 
L 131.799057 91.94072 
L 131.82207 91.629391 
L 131.822944 91.318062 
L 131.79934 91.006733 
L 131.749701 90.695404 
L 131.673424 90.384074 
L 131.571016 90.072745 
L 131.444206 89.761416 
L 131.296004 89.450087 
L 131.130688 89.138758 
L 130.953722 88.827429 
L 130.77158 88.5161 
L 130.591488 88.204771 
L 130.421103 87.893442 
L 130.268123 87.582113 
L 130.139881 87.270784 
L 130.042931 86.959455 
L 129.982672 86.648126 
L 129.963037 86.336797 
L 129.986272 86.025468 
L 130.052827 85.714139 
L 130.161366 85.40281 
L 130.308893 85.091481 
L 130.490974 84.780152 
L 130.702045 84.468823 
L 130.935763 84.157494 
L 131.185383 83.846165 
L 131.444108 83.534836 
L 131.705424 83.223507 
L 131.963356 82.912178 
L 132.212677 82.600849 
L 132.449036 82.28952 
L 132.669034 81.978191 
L 132.870232 81.666862 
L 133.051129 81.355533 
L 133.211097 81.044204 
L 133.350305 80.732875 
L 133.469617 80.421546 
L 133.570492 80.110217 
L 133.654866 79.798888 
L 133.725034 79.487559 
L 133.783519 79.17623 
L 133.832943 78.864901 
L 133.875891 78.553572 
L 133.914778 78.242243 
L 133.951734 77.930914 
L 133.9885 77.619585 
L 134.026358 77.308256 
L 134.066085 76.996927 
L 134.107958 76.685597 
L 134.151787 76.374268 
L 134.196984 76.062939 
L 134.242669 75.75161 
L 134.287781 75.440281 
L 134.331209 75.128952 
L 134.371912 74.817623 
L 134.409027 74.506294 
L 134.441947 74.194965 
L 134.470375 73.883636 
L 134.49434 73.572307 
L 134.514184 73.260978 
L 134.530513 72.949649 
L 134.544136 72.63832 
L 134.555979 72.326991 
L 134.567002 72.015662 
L 134.578113 71.704333 
L 134.5901 71.393004 
L 135.291794 71.393004 
L 135.291794 71.393004 
L 135.303781 71.704333 
L 135.314892 72.015662 
L 135.325915 72.326991 
L 135.337758 72.63832 
L 135.351381 72.949649 
L 135.367711 73.260978 
L 135.387554 73.572307 
L 135.411519 73.883636 
L 135.439947 74.194965 
L 135.472867 74.506294 
L 135.509982 74.817623 
L 135.550685 75.128952 
L 135.594113 75.440281 
L 135.639225 75.75161 
L 135.68491 76.062939 
L 135.730107 76.374268 
L 135.773936 76.685597 
L 135.815809 76.996927 
L 135.855536 77.308256 
L 135.893394 77.619585 
L 135.93016 77.930914 
L 135.967116 78.242243 
L 136.006003 78.553572 
L 136.048951 78.864901 
L 136.098375 79.17623 
L 136.15686 79.487559 
L 136.227028 79.798888 
L 136.311402 80.110217 
L 136.412277 80.421546 
L 136.531589 80.732875 
L 136.670797 81.044204 
L 136.830765 81.355533 
L 137.011662 81.666862 
L 137.21286 81.978191 
L 137.432858 82.28952 
L 137.669218 82.600849 
L 137.918538 82.912178 
L 138.17647 83.223507 
L 138.437786 83.534836 
L 138.696512 83.846165 
L 138.946131 84.157494 
L 139.17985 84.468823 
L 139.39092 84.780152 
L 139.573001 85.091481 
L 139.720528 85.40281 
L 139.829067 85.714139 
L 139.895622 86.025468 
L 139.918857 86.336797 
L 139.899222 86.648126 
L 139.838963 86.959455 
L 139.742013 87.270784 
L 139.613771 87.582113 
L 139.460791 87.893442 
L 139.290406 88.204771 
L 139.110314 88.5161 
L 138.928172 88.827429 
L 138.751206 89.138758 
L 138.58589 89.450087 
L 138.437688 89.761416 
L 138.310878 90.072745 
L 138.20847 90.384074 
L 138.132193 90.695404 
L 138.082554 91.006733 
L 138.05895 91.318062 
L 138.059824 91.629391 
L 138.082837 91.94072 
L 138.125053 92.252049 
L 138.183125 92.563378 
L 138.253468 92.874707 
L 138.332423 93.186036 
L 138.416399 93.497365 
L 138.502003 93.808694 
L 138.58615 94.120023 
L 138.666162 94.431352 
L 138.739849 94.742681 
L 138.805576 95.05401 
L 138.86231 95.365339 
L 138.909647 95.676668 
L 138.947805 95.987997 
L 138.97759 96.299326 
L 139.000316 96.610655 
L 139.017685 96.921984 
L 139.031622 97.233313 
L 139.04408 97.544642 
L 139.056816 97.855971 
L 139.071154 98.1673 
L 139.087777 98.478629 
L 139.106539 98.789958 
L 139.126348 99.101287 
L 139.145127 99.412616 
L 139.159868 99.723945 
L 139.166789 100.035274 
L 139.161575 100.346603 
L 139.139703 100.657932 
L 139.096811 100.969261 
L 139.029075 101.28059 
L 138.933572 101.591919 
L 138.808578 101.903248 
L 138.653768 102.214577 
z
" clip-path="url(#p7831c2033c)" style="fill: #ff0000; fill-opacity: 0.3"/>
   </g>
   <g id="PolyCollection_6">
    <path d="M 155.811833 102.210361 
L 147.348811 102.210361 
L 147.180815 101.883046 
L 147.042803 101.55573 
L 146.932955 101.228414 
L 146.848114 100.901099 
L 146.784189 100.573783 
L 146.736652 100.246468 
L 146.701056 99.919152 
L 146.67354 99.591836 
L 146.651237 99.264521 
L 146.632552 98.937205 
L 146.617276 98.60989 
L 146.606508 98.282574 
L 146.602412 97.955258 
L 146.607827 97.627943 
L 146.625772 97.300627 
L 146.658911 96.973311 
L 146.709047 96.645996 
L 146.776688 96.31868 
L 146.860754 95.991365 
L 146.958462 95.664049 
L 147.065392 95.336733 
L 147.175755 95.009418 
L 147.28282 94.682102 
L 147.379477 94.354787 
L 147.458861 94.027471 
L 147.515004 93.700155 
L 147.54342 93.37284 
L 147.541593 93.045524 
L 147.509299 92.718208 
L 147.448741 92.390893 
L 147.364479 92.063577 
L 147.263156 91.736262 
L 147.153053 91.408946 
L 147.043498 91.08163 
L 146.944199 90.754315 
L 146.864537 90.426999 
L 146.812908 90.099684 
L 146.796139 89.772368 
L 146.819048 89.445052 
L 146.884167 89.117737 
L 146.991645 88.790421 
L 147.139332 88.463105 
L 147.323023 88.13579 
L 147.536827 87.808474 
L 147.773628 87.481159 
L 148.025595 87.153843 
L 148.284684 86.826527 
L 148.543115 86.499212 
L 148.793774 86.171896 
L 149.030534 85.844581 
L 149.248477 85.517265 
L 149.444022 85.189949 
L 149.614955 84.862634 
L 149.760384 84.535318 
L 149.880628 84.208002 
L 149.977047 83.880687 
L 150.05185 83.553371 
L 150.107874 83.226056 
L 150.148361 82.89874 
L 150.176743 82.571424 
L 150.196439 82.244109 
L 150.210689 81.916793 
L 150.222411 81.589478 
L 150.234103 81.262162 
L 150.247779 80.934846 
L 150.264945 80.607531 
L 150.286607 80.280215 
L 150.313308 79.952899 
L 150.345173 79.625584 
L 150.381979 79.298268 
L 150.423218 78.970953 
L 150.46816 78.643637 
L 150.515912 78.316321 
L 150.565471 77.989006 
L 150.615764 77.66169 
L 150.665698 77.334375 
L 150.714189 77.007059 
L 150.76021 76.679743 
L 150.802827 76.352428 
L 150.841239 76.025112 
L 150.874817 75.697796 
L 150.903138 75.370481 
L 150.926015 75.043165 
L 150.943505 74.71585 
L 150.955917 74.388534 
L 150.9638 74.061218 
L 150.967912 73.733903 
L 150.969186 73.406587 
L 150.968674 73.079271 
L 150.967495 72.751956 
L 150.966772 72.42464 
L 150.967571 72.097325 
L 150.970851 71.770009 
L 150.977409 71.442693 
L 150.98785 71.115378 
L 151.002555 70.788062 
L 151.021675 70.460747 
L 151.045128 70.133431 
L 151.072617 69.806115 
L 152.088027 69.806115 
L 152.088027 69.806115 
L 152.115516 70.133431 
L 152.13897 70.460747 
L 152.158089 70.788062 
L 152.172795 71.115378 
L 152.183235 71.442693 
L 152.189793 71.770009 
L 152.193073 72.097325 
L 152.193873 72.42464 
L 152.193149 72.751956 
L 152.19197 73.079271 
L 152.191459 73.406587 
L 152.192732 73.733903 
L 152.196844 74.061218 
L 152.204727 74.388534 
L 152.21714 74.71585 
L 152.234629 75.043165 
L 152.257506 75.370481 
L 152.285828 75.697796 
L 152.319406 76.025112 
L 152.357817 76.352428 
L 152.400434 76.679743 
L 152.446455 77.007059 
L 152.494947 77.334375 
L 152.54488 77.66169 
L 152.595174 77.989006 
L 152.644732 78.316321 
L 152.692484 78.643637 
L 152.737427 78.970953 
L 152.778665 79.298268 
L 152.815472 79.625584 
L 152.847337 79.952899 
L 152.874037 80.280215 
L 152.8957 80.607531 
L 152.912866 80.934846 
L 152.926541 81.262162 
L 152.938233 81.589478 
L 152.949955 81.916793 
L 152.964205 82.244109 
L 152.983902 82.571424 
L 153.012283 82.89874 
L 153.05277 83.226056 
L 153.108794 83.553371 
L 153.183598 83.880687 
L 153.280017 84.208002 
L 153.40026 84.535318 
L 153.54569 84.862634 
L 153.716623 85.189949 
L 153.912167 85.517265 
L 154.130111 85.844581 
L 154.36687 86.171896 
L 154.617529 86.499212 
L 154.87596 86.826527 
L 155.13505 87.153843 
L 155.387016 87.481159 
L 155.623817 87.808474 
L 155.837621 88.13579 
L 156.021312 88.463105 
L 156.169 88.790421 
L 156.276478 89.117737 
L 156.341596 89.445052 
L 156.364505 89.772368 
L 156.347736 90.099684 
L 156.296107 90.426999 
L 156.216446 90.754315 
L 156.117146 91.08163 
L 156.007592 91.408946 
L 155.897488 91.736262 
L 155.796165 92.063577 
L 155.711903 92.390893 
L 155.651345 92.718208 
L 155.619051 93.045524 
L 155.617224 93.37284 
L 155.64564 93.700155 
L 155.701783 94.027471 
L 155.781167 94.354787 
L 155.877824 94.682102 
L 155.98489 95.009418 
L 156.095252 95.336733 
L 156.202183 95.664049 
L 156.29989 95.991365 
L 156.383957 96.31868 
L 156.451597 96.645996 
L 156.501733 96.973311 
L 156.534873 97.300627 
L 156.552817 97.627943 
L 156.558232 97.955258 
L 156.554137 98.282574 
L 156.543368 98.60989 
L 156.528092 98.937205 
L 156.509408 99.264521 
L 156.487104 99.591836 
L 156.459588 99.919152 
L 156.423993 100.246468 
L 156.376455 100.573783 
L 156.312531 100.901099 
L 156.227689 101.228414 
L 156.117841 101.55573 
L 155.97983 101.883046 
L 155.811833 102.210361 
z
" clip-path="url(#p7831c2033c)" style="fill: #ff0000; fill-opacity: 0.3"/>
   </g>
   <g id="PolyCollection_7">
    <path d="M 167.601497 102.212662 
L 159.170797 102.212662 
L 158.981487 101.829706 
L 158.821176 101.44675 
L 158.690039 101.063794 
L 158.587077 100.680838 
L 158.510323 100.297882 
L 158.457113 99.914926 
L 158.424398 99.53197 
L 158.409066 99.149014 
L 158.408237 98.766058 
L 158.41951 98.383102 
L 158.441131 98.000146 
L 158.472071 97.61719 
L 158.512024 97.234234 
L 158.561315 96.851278 
L 158.620748 96.468322 
L 158.691405 96.085366 
L 158.774418 95.70241 
L 158.870751 95.319454 
L 158.980991 94.936497 
L 159.105181 94.553541 
L 159.242693 94.170585 
L 159.392158 93.787629 
L 159.551444 93.404673 
L 159.717685 93.021717 
L 159.887348 92.638761 
L 160.056342 92.255805 
L 160.220156 91.872849 
L 160.374017 91.489893 
L 160.51307 91.106937 
L 160.632566 90.723981 
L 160.728066 90.341025 
L 160.795639 89.958069 
L 160.832066 89.575113 
L 160.83503 89.192157 
L 160.803285 88.809201 
L 160.736804 88.426245 
L 160.636875 88.043289 
L 160.506158 87.660333 
L 160.348671 87.277377 
L 160.16971 86.894421 
L 159.975702 86.511464 
L 159.773978 86.128508 
L 159.572492 85.745552 
L 159.379481 85.362596 
L 159.203101 84.97964 
L 159.051046 84.596684 
L 158.930181 84.213728 
L 158.846217 83.830772 
L 158.803439 83.447816 
L 158.804517 83.06486 
L 158.850399 82.681904 
L 158.940302 82.298948 
L 159.071793 81.915992 
L 159.240954 81.533036 
L 159.442614 81.15008 
L 159.670635 80.767124 
L 159.918223 80.384168 
L 160.17826 80.001212 
L 160.443619 79.618256 
L 160.70746 79.2353 
L 160.963488 78.852344 
L 161.206168 78.469388 
L 161.430884 78.086431 
L 161.634051 77.703475 
L 161.813172 77.320519 
L 161.966847 76.937563 
L 162.094735 76.554607 
L 162.197483 76.171651 
L 162.276617 75.788695 
L 162.334406 75.405739 
L 162.373704 75.022783 
L 162.397785 74.639827 
L 162.410163 74.256871 
L 162.414415 73.873915 
L 162.414008 73.490959 
L 162.412144 73.108003 
L 162.411624 72.725047 
L 162.414738 72.342091 
L 162.423187 71.959135 
L 162.438049 71.576179 
L 162.459776 71.193223 
L 162.488229 70.810267 
L 162.522751 70.427311 
L 162.56227 70.044354 
L 162.605416 69.661398 
L 162.650657 69.278442 
L 162.696432 68.895486 
L 162.741277 68.51253 
L 162.783928 68.129574 
L 162.823408 67.746618 
L 162.859072 67.363662 
L 162.890629 66.980706 
L 162.918129 66.59775 
L 162.94192 66.214794 
L 162.962589 65.831838 
L 162.980881 65.448882 
L 162.99762 65.065926 
L 163.013627 64.68297 
L 163.029644 64.300014 
L 163.74265 64.300014 
L 163.74265 64.300014 
L 163.758666 64.68297 
L 163.774673 65.065926 
L 163.791413 65.448882 
L 163.809705 65.831838 
L 163.830373 66.214794 
L 163.854165 66.59775 
L 163.881665 66.980706 
L 163.913222 67.363662 
L 163.948886 67.746618 
L 163.988365 68.129574 
L 164.031017 68.51253 
L 164.075861 68.895486 
L 164.121637 69.278442 
L 164.166878 69.661398 
L 164.210023 70.044354 
L 164.249542 70.427311 
L 164.284064 70.810267 
L 164.312517 71.193223 
L 164.334244 71.576179 
L 164.349107 71.959135 
L 164.357556 72.342091 
L 164.360669 72.725047 
L 164.360149 73.108003 
L 164.358285 73.490959 
L 164.357879 73.873915 
L 164.36213 74.256871 
L 164.374509 74.639827 
L 164.39859 75.022783 
L 164.437888 75.405739 
L 164.495676 75.788695 
L 164.57481 76.171651 
L 164.677559 76.554607 
L 164.805447 76.937563 
L 164.959121 77.320519 
L 165.138242 77.703475 
L 165.341409 78.086431 
L 165.566125 78.469388 
L 165.808805 78.852344 
L 166.064834 79.2353 
L 166.328674 79.618256 
L 166.594033 80.001212 
L 166.85407 80.384168 
L 167.101658 80.767124 
L 167.329679 81.15008 
L 167.531339 81.533036 
L 167.700501 81.915992 
L 167.831992 82.298948 
L 167.921894 82.681904 
L 167.967776 83.06486 
L 167.968854 83.447816 
L 167.926077 83.830772 
L 167.842113 84.213728 
L 167.721248 84.596684 
L 167.569192 84.97964 
L 167.392812 85.362596 
L 167.199802 85.745552 
L 166.998315 86.128508 
L 166.796591 86.511464 
L 166.602583 86.894421 
L 166.423622 87.277377 
L 166.266135 87.660333 
L 166.135418 88.043289 
L 166.03549 88.426245 
L 165.969008 88.809201 
L 165.937264 89.192157 
L 165.940227 89.575113 
L 165.976655 89.958069 
L 166.044228 90.341025 
L 166.139727 90.723981 
L 166.259224 91.106937 
L 166.398276 91.489893 
L 166.552138 91.872849 
L 166.715952 92.255805 
L 166.884946 92.638761 
L 167.054608 93.021717 
L 167.220849 93.404673 
L 167.380136 93.787629 
L 167.529601 94.170585 
L 167.667112 94.553541 
L 167.791302 94.936497 
L 167.901542 95.319454 
L 167.997876 95.70241 
L 168.080889 96.085366 
L 168.151545 96.468322 
L 168.210978 96.851278 
L 168.26027 97.234234 
L 168.300222 97.61719 
L 168.331162 98.000146 
L 168.352783 98.383102 
L 168.364057 98.766058 
L 168.363228 99.149014 
L 168.347895 99.53197 
L 168.31518 99.914926 
L 168.26197 100.297882 
L 168.185217 100.680838 
L 168.082255 101.063794 
L 167.951117 101.44675 
L 167.790806 101.829706 
L 167.601497 102.212662 
z
" clip-path="url(#p7831c2033c)" style="fill: #ff0000; fill-opacity: 0.3"/>
   </g>
   <g id="PolyCollection_8">
    <path d="M 184.195692 102.214915 
L 175.855351 102.214915 
L 175.62556 101.822011 
L 175.443384 101.429107 
L 175.310178 101.036203 
L 175.224644 100.643299 
L 175.18323 100.250395 
L 175.180717 99.857491 
L 175.210853 99.464587 
L 175.266954 99.071683 
L 175.342379 98.67878 
L 175.430827 98.285876 
L 175.526452 97.892972 
L 175.623832 97.500068 
L 175.717843 97.107164 
L 175.803536 96.71426 
L 175.876077 96.321356 
L 175.930802 95.928452 
L 175.963438 95.535548 
L 175.970451 95.142644 
L 175.949495 94.74974 
L 175.899879 94.356836 
L 175.822976 93.963932 
L 175.722466 93.571028 
L 175.604368 93.178124 
L 175.476795 92.78522 
L 175.34945 92.392316 
L 175.23289 91.999412 
L 175.137644 91.606509 
L 175.073293 91.213605 
L 175.047612 90.820701 
L 175.065905 90.427797 
L 175.130586 90.034893 
L 175.24107 89.641989 
L 175.393961 89.249085 
L 175.583493 88.856181 
L 175.802162 88.463277 
L 176.041451 88.070373 
L 176.292564 87.677469 
L 176.547088 87.284565 
L 176.797536 86.891661 
L 177.037732 86.498757 
L 177.263046 86.105853 
L 177.470459 85.712949 
L 177.658517 85.320045 
L 177.827154 84.927141 
L 177.977456 84.534238 
L 178.111348 84.141334 
L 178.231262 83.74843 
L 178.339803 83.355526 
L 178.439435 82.962622 
L 178.532226 82.569718 
L 178.619671 82.176814 
L 178.702598 81.78391 
L 178.781186 81.391006 
L 178.855059 80.998102 
L 178.923458 80.605198 
L 178.985455 80.212294 
L 179.040171 79.81939 
L 179.086979 79.426486 
L 179.125662 79.033582 
L 179.156504 78.640678 
L 179.180315 78.247774 
L 179.198386 77.85487 
L 179.21239 77.461967 
L 179.224243 77.069063 
L 179.235937 76.676159 
L 179.249376 76.283255 
L 179.26622 75.890351 
L 179.287759 75.497447 
L 179.314826 75.104543 
L 179.347753 74.711639 
L 179.386376 74.318735 
L 179.43008 73.925831 
L 179.477877 73.532927 
L 179.528517 73.140023 
L 179.580593 72.747119 
L 179.632663 72.354215 
L 179.683341 71.961311 
L 179.731381 71.568407 
L 179.775726 71.175503 
L 179.815538 70.782599 
L 179.850198 70.389696 
L 179.879292 69.996792 
L 179.902591 69.603888 
L 179.920018 69.210984 
L 179.93163 68.81808 
L 179.937598 68.425176 
L 179.938201 68.032272 
L 179.933832 67.639368 
L 179.925009 67.246464 
L 179.912387 66.85356 
L 179.896765 66.460656 
L 179.879087 66.067752 
L 179.860417 65.674848 
L 179.841903 65.281944 
L 179.824718 64.88904 
L 179.809985 64.496136 
L 179.798695 64.103232 
L 179.791634 63.710328 
L 179.789311 63.317425 
L 180.261733 63.317425 
L 180.261733 63.317425 
L 180.25941 63.710328 
L 180.252349 64.103232 
L 180.241059 64.496136 
L 180.226325 64.88904 
L 180.20914 65.281944 
L 180.190626 65.674848 
L 180.171957 66.067752 
L 180.154278 66.460656 
L 180.138657 66.85356 
L 180.126035 67.246464 
L 180.117212 67.639368 
L 180.112843 68.032272 
L 180.113446 68.425176 
L 180.119413 68.81808 
L 180.131026 69.210984 
L 180.148453 69.603888 
L 180.171752 69.996792 
L 180.200846 70.389696 
L 180.235505 70.782599 
L 180.275317 71.175503 
L 180.319663 71.568407 
L 180.367703 71.961311 
L 180.418381 72.354215 
L 180.47045 72.747119 
L 180.522527 73.140023 
L 180.573166 73.532927 
L 180.620964 73.925831 
L 180.664668 74.318735 
L 180.70329 74.711639 
L 180.736218 75.104543 
L 180.763284 75.497447 
L 180.784823 75.890351 
L 180.801667 76.283255 
L 180.815106 76.676159 
L 180.826801 77.069063 
L 180.838654 77.461967 
L 180.852658 77.85487 
L 180.870729 78.247774 
L 180.89454 78.640678 
L 180.925382 79.033582 
L 180.964065 79.426486 
L 181.010873 79.81939 
L 181.065588 80.212294 
L 181.127585 80.605198 
L 181.195985 80.998102 
L 181.269858 81.391006 
L 181.348446 81.78391 
L 181.431373 82.176814 
L 181.518817 82.569718 
L 181.611609 82.962622 
L 181.711241 83.355526 
L 181.819782 83.74843 
L 181.939696 84.141334 
L 182.073587 84.534238 
L 182.223889 84.927141 
L 182.392527 85.320045 
L 182.580584 85.712949 
L 182.787998 86.105853 
L 183.013311 86.498757 
L 183.253508 86.891661 
L 183.503955 87.284565 
L 183.758479 87.677469 
L 184.009592 88.070373 
L 184.248882 88.463277 
L 184.467551 88.856181 
L 184.657083 89.249085 
L 184.809973 89.641989 
L 184.920458 90.034893 
L 184.985139 90.427797 
L 185.003432 90.820701 
L 184.977751 91.213605 
L 184.913399 91.606509 
L 184.818154 91.999412 
L 184.701594 92.392316 
L 184.574249 92.78522 
L 184.446676 93.178124 
L 184.328578 93.571028 
L 184.228068 93.963932 
L 184.151164 94.356836 
L 184.101549 94.74974 
L 184.080592 95.142644 
L 184.087605 95.535548 
L 184.120241 95.928452 
L 184.174967 96.321356 
L 184.247507 96.71426 
L 184.333201 97.107164 
L 184.427212 97.500068 
L 184.524591 97.892972 
L 184.620217 98.285876 
L 184.708665 98.67878 
L 184.78409 99.071683 
L 184.840191 99.464587 
L 184.870327 99.857491 
L 184.867814 100.250395 
L 184.8264 100.643299 
L 184.740865 101.036203 
L 184.60766 101.429107 
L 184.425483 101.822011 
L 184.195692 102.214915 
z
" clip-path="url(#p7831c2033c)" style="fill: #ff0000; fill-opacity: 0.3"/>
   </g>
   <g id="PolyCollection_9">
    <path d="M 195.994682 102.227132 
L 187.668011 102.227132 
L 187.418337 101.355304 
L 187.213081 100.483475 
L 187.05507 99.611647 
L 186.944447 98.739818 
L 186.878791 97.86799 
L 186.853436 96.996162 
L 186.861982 96.124333 
L 186.896922 95.252505 
L 186.950339 94.380676 
L 187.014592 93.508848 
L 187.082933 92.637019 
L 187.150016 91.765191 
L 187.212232 90.893363 
L 187.267869 90.021534 
L 187.317082 89.149706 
L 187.361674 88.277877 
L 187.404746 87.406049 
L 187.450233 86.53422 
L 187.502402 85.662392 
L 187.565367 84.790564 
L 187.642666 83.918735 
L 187.736954 83.046907 
L 187.849821 82.175078 
L 187.981756 81.30325 
L 188.132215 80.431421 
L 188.299786 79.559593 
L 188.482401 78.687765 
L 188.677559 77.815936 
L 188.88252 76.944108 
L 189.094474 76.072279 
L 189.310637 75.200451 
L 189.52832 74.328622 
L 189.744948 73.456794 
L 189.958067 72.584966 
L 190.165346 71.713137 
L 190.364587 70.841309 
L 190.553751 69.96948 
L 190.731005 69.097652 
L 190.894769 68.225823 
L 191.043777 67.353995 
L 191.177121 66.482167 
L 191.294281 65.610338 
L 191.395126 64.73851 
L 191.479897 63.866681 
L 191.549159 62.994853 
L 191.603748 62.123025 
L 191.644692 61.251196 
L 191.673157 60.379368 
L 191.690379 59.507539 
L 191.697626 58.635711 
L 191.696166 57.763882 
L 191.687253 56.892054 
L 191.672114 56.020226 
L 191.651944 55.148397 
L 191.627898 54.276569 
L 191.601066 53.40474 
L 191.572457 52.532912 
L 191.542966 51.661083 
L 191.513351 50.789255 
L 191.484216 49.917427 
L 191.456016 49.045598 
L 191.429079 48.17377 
L 191.403652 47.301941 
L 191.379958 46.430113 
L 191.358265 45.558284 
L 191.338941 44.686456 
L 191.322488 43.814628 
L 191.309548 42.942799 
L 191.300867 42.070971 
L 191.297226 41.199142 
L 191.299346 40.327314 
L 191.307776 39.455485 
L 191.322792 38.583657 
L 191.34432 37.711829 
L 191.371892 36.84 
L 191.404651 35.968172 
L 191.441397 35.096343 
L 191.480673 34.224515 
L 191.520874 33.352686 
L 191.560365 32.480858 
L 191.597594 31.60903 
L 191.631185 30.737201 
L 191.660007 29.865373 
L 191.683216 28.993544 
L 191.700269 28.121716 
L 191.710926 27.249888 
L 191.715231 26.378059 
L 191.713495 25.506231 
L 191.706273 24.634402 
L 191.694344 23.762574 
L 191.67868 22.890745 
L 191.660421 22.018917 
L 191.640827 21.147089 
L 191.621227 20.27526 
L 191.60295 19.403432 
L 191.587247 18.531603 
L 191.57521 17.659775 
L 191.567693 16.787946 
L 191.565254 15.916118 
L 192.097439 15.916118 
L 192.097439 15.916118 
L 192.095 16.787946 
L 192.087483 17.659775 
L 192.075446 18.531603 
L 192.059743 19.403432 
L 192.041466 20.27526 
L 192.021866 21.147089 
L 192.002272 22.018917 
L 191.984013 22.890745 
L 191.968349 23.762574 
L 191.95642 24.634402 
L 191.949198 25.506231 
L 191.947462 26.378059 
L 191.951767 27.249888 
L 191.962423 28.121716 
L 191.979477 28.993544 
L 192.002686 29.865373 
L 192.031508 30.737201 
L 192.065099 31.60903 
L 192.102328 32.480858 
L 192.141819 33.352686 
L 192.18202 34.224515 
L 192.221296 35.096343 
L 192.258042 35.968172 
L 192.290801 36.84 
L 192.318373 37.711829 
L 192.339901 38.583657 
L 192.354917 39.455485 
L 192.363347 40.327314 
L 192.365467 41.199142 
L 192.361826 42.070971 
L 192.353145 42.942799 
L 192.340205 43.814628 
L 192.323752 44.686456 
L 192.304427 45.558284 
L 192.282735 46.430113 
L 192.259041 47.301941 
L 192.233614 48.17377 
L 192.206677 49.045598 
L 192.178477 49.917427 
L 192.149342 50.789255 
L 192.119726 51.661083 
L 192.090235 52.532912 
L 192.061627 53.40474 
L 192.034795 54.276569 
L 192.010748 55.148397 
L 191.990579 56.020226 
L 191.97544 56.892054 
L 191.966527 57.763882 
L 191.965067 58.635711 
L 191.972314 59.507539 
L 191.989536 60.379368 
L 192.018001 61.251196 
L 192.058945 62.123025 
L 192.113533 62.994853 
L 192.182796 63.866681 
L 192.267567 64.73851 
L 192.368412 65.610338 
L 192.485571 66.482167 
L 192.618916 67.353995 
L 192.767924 68.225823 
L 192.931688 69.097652 
L 193.108941 69.96948 
L 193.298106 70.841309 
L 193.497347 71.713137 
L 193.704626 72.584966 
L 193.917745 73.456794 
L 194.134373 74.328622 
L 194.352056 75.200451 
L 194.568219 76.072279 
L 194.780172 76.944108 
L 194.985134 77.815936 
L 195.180291 78.687765 
L 195.362907 79.559593 
L 195.530478 80.431421 
L 195.680936 81.30325 
L 195.812871 82.175078 
L 195.925739 83.046907 
L 196.020027 83.918735 
L 196.097326 84.790564 
L 196.160291 85.662392 
L 196.21246 86.53422 
L 196.257947 87.406049 
L 196.301019 88.277877 
L 196.345611 89.149706 
L 196.394823 90.021534 
L 196.450461 90.893363 
L 196.512677 91.765191 
L 196.57976 92.637019 
L 196.648101 93.508848 
L 196.712354 94.380676 
L 196.765771 95.252505 
L 196.800711 96.124333 
L 196.809256 96.996162 
L 196.783901 97.86799 
L 196.718245 98.739818 
L 196.607623 99.611647 
L 196.449611 100.483475 
L 196.244356 101.355304 
L 195.994682 102.227132 
z
" clip-path="url(#p7831c2033c)" style="fill: #ff0000; fill-opacity: 0.3"/>
   </g>
   <g id="matplotlib.axis_1">
    <g id="xtick_1">
     <g id="line2d_1">
      <defs>
       <path id="m38b44bbcba" d="M 0 0 
L 0 3.5 
" style="stroke: #000000; stroke-width: 0.8"/>
      </defs>
      <g>
       <use xlink:href="#m38b44bbcba" x="49.605348" y="102.33" style="stroke: #000000; stroke-width: 0.8"/>
      </g>
     </g>
     <g id="text_1">
      <!-- $\mathrm{1}$ -->
      <g transform="translate(47.11468 116.248498)scale(0.1 -0.1)">
       <defs>
        <path id="CMR17-31" d="M 1702 4083 
C 1702 4217 1696 4224 1606 4224 
C 1357 3927 979 3833 621 3820 
C 602 3820 570 3820 563 3808 
C 557 3795 557 3782 557 3648 
C 755 3648 1088 3686 1344 3839 
L 1344 467 
C 1344 243 1331 166 781 166 
L 589 166 
L 589 0 
C 896 6 1216 12 1523 12 
C 1830 12 2150 6 2458 0 
L 2458 166 
L 2266 166 
C 1715 166 1702 236 1702 467 
L 1702 4083 
z
" transform="scale(0.015625)"/>
       </defs>
       <use xlink:href="#CMR17-31" transform="scale(0.996264)"/>
      </g>
     </g>
    </g>
    <g id="xtick_2">
     <g id="line2d_2">
      <g>
       <use xlink:href="#m38b44bbcba" x="78.050548" y="102.33" style="stroke: #000000; stroke-width: 0.8"/>
      </g>
     </g>
     <g id="text_2">
      <!-- $\mathrm{2}$ -->
      <g transform="translate(75.55988 116.248498)scale(0.1 -0.1)">
       <defs>
        <path id="CMR17-32" d="M 2669 990 
L 2554 990 
C 2490 537 2438 460 2413 422 
C 2381 371 1920 371 1830 371 
L 602 371 
C 832 620 1280 1073 1824 1596 
C 2214 1966 2669 2400 2669 3033 
C 2669 3788 2067 4224 1395 4224 
C 691 4224 262 3603 262 3027 
C 262 2777 448 2745 525 2745 
C 589 2745 781 2783 781 3007 
C 781 3206 614 3264 525 3264 
C 486 3264 448 3257 422 3244 
C 544 3788 915 4057 1306 4057 
C 1862 4057 2227 3616 2227 3033 
C 2227 2477 1901 1998 1536 1583 
L 262 147 
L 262 0 
L 2515 0 
L 2669 990 
z
" transform="scale(0.015625)"/>
       </defs>
       <use xlink:href="#CMR17-32" transform="scale(0.996264)"/>
      </g>
     </g>
    </g>
    <g id="xtick_3">
     <g id="line2d_3">
      <g>
       <use xlink:href="#m38b44bbcba" x="106.495747" y="102.33" style="stroke: #000000; stroke-width: 0.8"/>
      </g>
     </g>
     <g id="text_3">
      <!-- $\mathrm{4}$ -->
      <g transform="translate(104.00508 116.248498)scale(0.1 -0.1)">
       <defs>
        <path id="CMR17-34" d="M 2150 4147 
C 2150 4281 2144 4288 2029 4288 
L 128 1254 
L 128 1088 
L 1779 1088 
L 1779 460 
C 1779 230 1766 166 1318 166 
L 1197 166 
L 1197 0 
C 1402 12 1747 12 1965 12 
C 2182 12 2528 12 2733 0 
L 2733 166 
L 2611 166 
C 2163 166 2150 230 2150 460 
L 2150 1088 
L 2803 1088 
L 2803 1254 
L 2150 1254 
L 2150 4147 
z
M 1798 3723 
L 1798 1254 
L 256 1254 
L 1798 3723 
z
" transform="scale(0.015625)"/>
       </defs>
       <use xlink:href="#CMR17-34" transform="scale(0.996264)"/>
      </g>
     </g>
    </g>
    <g id="xtick_4">
     <g id="line2d_4">
      <g>
       <use xlink:href="#m38b44bbcba" x="123.135123" y="102.33" style="stroke: #000000; stroke-width: 0.8"/>
      </g>
     </g>
     <g id="text_4">
      <!-- $\mathrm{}$ -->
      <g transform="translate(123.135123 116.248498)scale(0.1 -0.1)"/>
     </g>
    </g>
    <g id="xtick_5">
     <g id="line2d_5">
      <g>
       <use xlink:href="#m38b44bbcba" x="134.940947" y="102.33" style="stroke: #000000; stroke-width: 0.8"/>
      </g>
     </g>
     <g id="text_5">
      <!-- $\mathrm{8}$ -->
      <g transform="translate(132.450279 116.248498)scale(0.1 -0.1)">
       <defs>
        <path id="CMR17-38" d="M 1741 2289 
C 2144 2494 2554 2803 2554 3298 
C 2554 3884 1990 4224 1472 4224 
C 890 4224 378 3800 378 3215 
C 378 3054 416 2777 666 2533 
C 730 2469 998 2276 1171 2154 
C 883 2006 211 1652 211 945 
C 211 282 838 -128 1459 -128 
C 2144 -128 2720 366 2720 1022 
C 2720 1607 2330 1877 2074 2051 
L 1741 2289 
z
M 902 2855 
C 851 2887 595 3086 595 3388 
C 595 3781 998 4076 1459 4076 
C 1965 4076 2336 3716 2336 3298 
C 2336 2700 1670 2359 1638 2359 
C 1632 2359 1626 2359 1574 2398 
L 902 2855 
z
M 2080 1536 
C 2176 1466 2483 1253 2483 861 
C 2483 385 2010 25 1472 25 
C 890 25 448 443 448 951 
C 448 1459 838 1884 1280 2083 
L 2080 1536 
z
" transform="scale(0.015625)"/>
       </defs>
       <use xlink:href="#CMR17-38" transform="scale(0.996264)"/>
      </g>
     </g>
    </g>
    <g id="xtick_6">
     <g id="line2d_6">
      <g>
       <use xlink:href="#m38b44bbcba" x="151.580322" y="102.33" style="stroke: #000000; stroke-width: 0.8"/>
      </g>
     </g>
     <g id="text_6">
      <!-- $\mathrm{}$ -->
      <g transform="translate(151.580322 116.248498)scale(0.1 -0.1)"/>
     </g>
    </g>
    <g id="xtick_7">
     <g id="line2d_7">
      <g>
       <use xlink:href="#m38b44bbcba" x="163.386147" y="102.33" style="stroke: #000000; stroke-width: 0.8"/>
      </g>
     </g>
     <g id="text_7">
      <!-- $\mathrm{16}$ -->
      <g transform="translate(158.404811 116.248498)scale(0.1 -0.1)">
       <defs>
        <path id="CMR17-36" d="M 678 2198 
C 678 3712 1395 4076 1811 4076 
C 1946 4076 2272 4049 2400 3782 
C 2298 3782 2106 3782 2106 3558 
C 2106 3385 2246 3328 2336 3328 
C 2394 3328 2566 3353 2566 3571 
C 2566 3987 2246 4224 1805 4224 
C 1043 4224 243 3411 243 2011 
C 243 257 966 -128 1478 -128 
C 2099 -128 2688 431 2688 1295 
C 2688 2101 2170 2688 1517 2688 
C 1126 2688 838 2430 678 1979 
L 678 2198 
z
M 1478 25 
C 691 25 691 1212 691 1450 
C 691 1914 909 2585 1504 2585 
C 1613 2585 1926 2585 2138 2140 
C 2253 1889 2253 1624 2253 1302 
C 2253 954 2253 696 2118 438 
C 1978 173 1773 25 1478 25 
z
" transform="scale(0.015625)"/>
       </defs>
       <use xlink:href="#CMR17-31" transform="scale(0.996264)"/>
       <use xlink:href="#CMR17-36" transform="translate(45.690477 0)scale(0.996264)"/>
      </g>
     </g>
    </g>
    <g id="xtick_8">
     <g id="line2d_8">
      <g>
       <use xlink:href="#m38b44bbcba" x="180.025522" y="102.33" style="stroke: #000000; stroke-width: 0.8"/>
      </g>
     </g>
     <g id="text_8">
      <!-- $\mathrm{}$ -->
      <g transform="translate(180.025522 116.248498)scale(0.1 -0.1)"/>
     </g>
    </g>
    <g id="xtick_9">
     <g id="line2d_9">
      <g>
       <use xlink:href="#m38b44bbcba" x="191.831346" y="102.33" style="stroke: #000000; stroke-width: 0.8"/>
      </g>
     </g>
     <g id="text_9">
      <!-- $\mathrm{32}$ -->
      <g transform="translate(186.850011 116.248498)scale(0.1 -0.1)">
       <defs>
        <path id="CMR17-33" d="M 1414 2176 
C 1984 2176 2234 1673 2234 1094 
C 2234 322 1824 25 1453 25 
C 1114 25 563 193 390 691 
C 422 678 454 678 486 678 
C 640 678 755 780 755 947 
C 755 1132 614 1216 486 1216 
C 378 1216 211 1164 211 927 
C 211 335 787 -128 1466 -128 
C 2176 -128 2720 432 2720 1087 
C 2720 1718 2208 2176 1600 2246 
C 2086 2347 2554 2776 2554 3353 
C 2554 3856 2048 4224 1472 4224 
C 890 4224 378 3862 378 3347 
C 378 3123 544 3084 627 3084 
C 762 3084 877 3167 877 3334 
C 877 3500 762 3584 627 3584 
C 602 3584 570 3584 544 3571 
C 730 3999 1235 4076 1459 4076 
C 1683 4076 2106 3966 2106 3347 
C 2106 3167 2080 2851 1862 2574 
C 1670 2329 1453 2316 1242 2297 
C 1210 2297 1062 2284 1037 2284 
C 992 2278 966 2272 966 2227 
C 966 2182 973 2176 1101 2176 
L 1414 2176 
z
" transform="scale(0.015625)"/>
       </defs>
       <use xlink:href="#CMR17-33" transform="scale(0.996264)"/>
       <use xlink:href="#CMR17-32" transform="translate(45.690477 0)scale(0.996264)"/>
      </g>
     </g>
    </g>
    <g id="text_10">
     <!-- $\mathrm{Number\: of\: threads}$ -->
     <g transform="translate(80.424966 129.104175)scale(0.1 -0.1)">
      <defs>
       <path id="CMR17-4e" d="M 1312 4275 
C 1267 4345 1261 4352 1139 4352 
L 326 4352 
L 326 4185 
L 448 4185 
C 704 4185 819 4153 838 4147 
L 838 624 
C 838 465 838 166 326 166 
L 326 0 
C 474 12 742 12 902 12 
C 1062 12 1331 12 1478 0 
L 1478 166 
C 966 166 966 465 966 624 
L 966 4057 
C 1011 4019 1011 4007 1056 3943 
L 3430 76 
C 3475 0 3494 0 3526 0 
C 3590 0 3590 19 3590 140 
L 3590 3726 
C 3590 3885 3590 4185 4102 4185 
L 4102 4352 
C 3955 4339 3686 4339 3526 4339 
C 3366 4339 3098 4339 2950 4352 
L 2950 4185 
C 3462 4185 3462 3885 3462 3726 
L 3462 777 
L 1312 4275 
z
" transform="scale(0.015625)"/>
       <path id="CMR17-75" d="M 1882 2745 
L 1882 2579 
C 2259 2579 2317 2540 2317 2229 
L 2317 1053 
C 2317 510 2029 38 1555 38 
C 1030 38 986 355 986 691 
L 986 2816 
L 211 2745 
L 211 2579 
C 467 2579 640 2579 646 2320 
L 646 1079 
C 646 646 646 368 813 187 
C 896 103 1056 -64 1517 -64 
C 2061 -64 2272 400 2323 536 
L 2330 536 
L 2330 -64 
L 3091 -13 
L 3091 154 
C 2714 154 2656 193 2656 503 
L 2656 2816 
L 1882 2745 
z
" transform="scale(0.015625)"/>
       <path id="CMR17-6d" d="M 4326 1954 
C 4326 2276 4269 2816 3507 2816 
C 3072 2816 2771 2520 2656 2173 
L 2650 2173 
C 2573 2700 2195 2816 1837 2816 
C 1331 2816 1069 2424 973 2166 
L 966 2166 
L 966 2816 
L 211 2745 
L 211 2578 
C 589 2578 646 2540 646 2231 
L 646 443 
C 646 198 621 166 211 166 
L 211 0 
C 365 12 646 12 813 12 
C 979 12 1267 12 1421 0 
L 1421 166 
C 1011 166 986 192 986 443 
L 986 1678 
C 986 2269 1344 2713 1792 2713 
C 2266 2713 2317 2289 2317 1980 
L 2317 443 
C 2317 198 2291 166 1882 166 
L 1882 0 
C 2035 12 2317 12 2483 12 
C 2650 12 2938 12 3091 0 
L 3091 166 
C 2682 166 2656 192 2656 443 
L 2656 1678 
C 2656 2269 3014 2713 3462 2713 
C 3936 2713 3987 2289 3987 1980 
L 3987 443 
C 3987 198 3962 166 3552 166 
L 3552 0 
C 3706 12 3987 12 4154 12 
C 4320 12 4608 12 4762 0 
L 4762 166 
C 4352 166 4326 192 4326 443 
L 4326 1954 
z
" transform="scale(0.015625)"/>
       <path id="CMR17-62" d="M 960 4416 
L 198 4345 
L 198 4179 
C 576 4179 634 4141 634 3843 
L 634 -13 
L 749 -13 
L 934 445 
C 1120 141 1395 -64 1766 -64 
C 2406 -64 3053 503 3053 1382 
C 3053 2209 2477 2816 1830 2816 
C 1434 2816 1152 2603 960 2351 
L 960 4416 
z
M 973 2022 
C 973 2138 973 2157 1062 2293 
C 1312 2681 1670 2713 1792 2713 
C 1984 2713 2643 2610 2643 1388 
C 2643 109 1888 38 1734 38 
C 1536 38 1248 115 1043 490 
C 973 613 973 626 973 742 
L 973 2022 
z
" transform="scale(0.015625)"/>
       <path id="CMR17-65" d="M 2438 1503 
C 2464 1529 2464 1542 2464 1606 
C 2464 2251 2118 2816 1389 2816 
C 710 2816 173 2175 173 1394 
C 173 554 781 -64 1459 -64 
C 2176 -64 2458 619 2458 755 
C 2458 800 2419 800 2406 800 
C 2362 800 2355 787 2330 709 
C 2189 270 1837 51 1504 51 
C 1229 51 954 206 781 490 
C 582 819 582 1200 582 1503 
L 2438 1503 
z
M 589 1600 
C 634 2511 1126 2713 1382 2713 
C 1818 2713 2112 2308 2118 1600 
L 589 1600 
z
" transform="scale(0.015625)"/>
       <path id="CMR17-72" d="M 960 1517 
C 960 2134 1222 2713 1702 2713 
C 1747 2713 1792 2707 1837 2687 
C 1837 2687 1696 2642 1696 2475 
C 1696 2321 1818 2257 1914 2257 
C 1990 2257 2131 2302 2131 2482 
C 2131 2687 1926 2816 1709 2816 
C 1222 2816 1011 2340 947 2115 
L 941 2115 
L 941 2816 
L 198 2745 
L 198 2578 
C 576 2578 634 2540 634 2231 
L 634 443 
C 634 198 608 166 198 166 
L 198 0 
C 352 12 646 12 813 12 
C 998 12 1325 12 1498 0 
L 1498 166 
C 1037 166 960 166 960 455 
L 960 1517 
z
" transform="scale(0.015625)"/>
       <path id="CMR17-6f" d="M 2758 1356 
C 2758 2176 2163 2816 1466 2816 
C 768 2816 173 2176 173 1356 
C 173 550 768 -64 1466 -64 
C 2163 -64 2758 550 2758 1356 
z
M 1466 51 
C 1165 51 909 230 762 480 
C 602 768 582 1126 582 1408 
C 582 1676 595 2009 762 2297 
C 890 2508 1139 2713 1466 2713 
C 1754 2713 1997 2553 2150 2329 
C 2349 2028 2349 1606 2349 1408 
C 2349 1158 2336 774 2163 467 
C 1984 172 1709 51 1466 51 
z
" transform="scale(0.015625)"/>
       <path id="CMR17-66" d="M 979 2585 
L 1709 2585 
L 1709 2752 
L 966 2752 
L 966 3539 
C 966 4076 1235 4377 1510 4377 
C 1594 4377 1690 4363 1754 4339 
C 1702 4326 1568 4281 1568 4121 
C 1568 3955 1696 3904 1786 3904 
C 1875 3904 2003 3955 2003 4121 
C 2003 4353 1773 4480 1517 4480 
C 1152 4480 653 4211 653 3526 
L 653 2752 
L 141 2752 
L 141 2585 
L 653 2585 
L 653 441 
C 653 198 627 166 218 166 
L 218 0 
C 371 12 666 12 832 12 
C 1018 12 1344 12 1517 0 
L 1517 166 
C 1056 166 979 166 979 454 
L 979 2585 
z
" transform="scale(0.015625)"/>
       <path id="CMR17-74" d="M 966 2585 
L 1862 2585 
L 1862 2752 
L 966 2752 
L 966 3968 
L 851 3968 
C 838 3292 614 2700 70 2687 
L 70 2585 
L 627 2585 
L 627 778 
C 627 655 627 -64 1370 -64 
C 1747 -64 1965 308 1965 784 
L 1965 1151 
L 1850 1151 
L 1850 790 
C 1850 347 1677 51 1408 51 
C 1222 51 966 179 966 765 
L 966 2585 
z
" transform="scale(0.015625)"/>
       <path id="CMR17-68" d="M 2656 1954 
C 2656 2282 2592 2816 1837 2816 
C 1312 2816 1056 2392 979 2179 
L 973 2179 
L 973 4416 
L 211 4345 
L 211 4179 
C 589 4179 646 4141 646 3843 
L 646 443 
C 646 198 621 166 211 166 
L 211 0 
C 365 12 646 12 813 12 
C 979 12 1267 12 1421 0 
L 1421 166 
C 1011 166 986 192 986 443 
L 986 1678 
C 986 2269 1344 2713 1792 2713 
C 2266 2713 2317 2289 2317 1980 
L 2317 443 
C 2317 198 2291 166 1882 166 
L 1882 0 
C 2035 12 2317 12 2483 12 
C 2650 12 2938 12 3091 0 
L 3091 166 
C 2682 166 2656 192 2656 443 
L 2656 1954 
z
" transform="scale(0.015625)"/>
       <path id="CMR17-61" d="M 2304 1656 
C 2304 2048 2304 2275 2035 2534 
C 1798 2751 1523 2816 1306 2816 
C 800 2816 435 2408 435 1977 
C 435 1740 627 1728 666 1728 
C 749 1728 896 1779 896 1958 
C 896 2118 774 2188 666 2188 
C 640 2188 608 2182 589 2176 
C 723 2594 1069 2713 1293 2713 
C 1613 2713 1965 2421 1965 1875 
L 1965 1632 
C 1587 1619 1133 1568 774 1373 
C 371 1147 256 822 256 576 
C 256 77 832 -64 1171 -64 
C 1523 -64 1850 135 1990 505 
C 2003 219 2182 -39 2464 -39 
C 2598 -39 2938 51 2938 563 
L 2938 926 
L 2822 926 
L 2822 557 
C 2822 161 2650 109 2566 109 
C 2304 109 2304 446 2304 732 
L 2304 1656 
z
M 1965 887 
C 1965 323 1568 38 1216 38 
C 896 38 646 278 646 576 
C 646 771 730 1114 1101 1322 
C 1408 1497 1760 1523 1965 1536 
L 1965 887 
z
" transform="scale(0.015625)"/>
       <path id="CMR17-64" d="M 1869 4345 
L 1869 4179 
C 2246 4179 2304 4141 2304 3843 
L 2304 2371 
C 2278 2403 2016 2816 1498 2816 
C 845 2816 211 2228 211 1376 
C 211 529 806 -64 1434 -64 
C 1978 -64 2259 361 2291 406 
L 2291 -64 
L 3066 -13 
L 3066 154 
C 2688 154 2630 193 2630 503 
L 2630 4416 
L 1869 4345 
z
M 2291 762 
C 2291 568 2176 393 2029 264 
C 1811 70 1594 38 1472 38 
C 1286 38 621 135 621 1369 
C 621 2636 1363 2713 1530 2713 
C 1824 2713 2061 2545 2208 2313 
C 2291 2177 2291 2157 2291 2041 
L 2291 762 
z
" transform="scale(0.015625)"/>
       <path id="CMR17-73" d="M 1978 2688 
C 1978 2803 1971 2809 1933 2809 
C 1907 2809 1901 2803 1824 2707 
C 1805 2681 1747 2617 1728 2592 
C 1523 2809 1235 2816 1126 2816 
C 416 2816 160 2444 160 2073 
C 160 1497 813 1363 998 1324 
C 1402 1241 1542 1216 1677 1100 
C 1760 1024 1901 883 1901 652 
C 1901 384 1747 38 1158 38 
C 602 38 403 460 288 1024 
C 269 1113 269 1120 218 1120 
C 166 1120 160 1113 160 985 
L 160 64 
C 160 -52 166 -58 205 -58 
C 237 -58 243 -52 275 0 
C 314 57 410 211 448 275 
C 576 102 800 -64 1158 -64 
C 1792 -64 2131 281 2131 780 
C 2131 1107 1958 1280 1875 1356 
C 1683 1555 1459 1600 1190 1651 
C 838 1728 390 1817 390 2208 
C 390 2374 480 2726 1126 2726 
C 1811 2726 1850 2086 1862 1881 
C 1869 1849 1901 1843 1920 1843 
C 1978 1843 1978 1862 1978 1971 
L 1978 2688 
z
" transform="scale(0.015625)"/>
      </defs>
      <use xlink:href="#CMR17-4e" transform="scale(0.996264)"/>
      <use xlink:href="#CMR17-75" transform="translate(69.07243 0)scale(0.996264)"/>
      <use xlink:href="#CMR17-6d" transform="translate(119.9678 0)scale(0.996264)"/>
      <use xlink:href="#CMR17-62" transform="translate(194.284936 0)scale(0.996264)"/>
      <use xlink:href="#CMR17-65" transform="translate(247.782744 0)scale(0.996264)"/>
      <use xlink:href="#CMR17-72" transform="translate(288.268404 0)scale(0.996264)"/>
      <use xlink:href="#CMR17-6f" transform="translate(345.688379 0)scale(0.996264)"/>
      <use xlink:href="#CMR17-66" transform="translate(391.378856 0)scale(0.996264)"/>
      <use xlink:href="#CMR17-74" transform="translate(446.897088 0)scale(0.996264)"/>
      <use xlink:href="#CMR17-68" transform="translate(482.177856 0)scale(0.996264)"/>
      <use xlink:href="#CMR17-72" transform="translate(533.073226 0)scale(0.996264)"/>
      <use xlink:href="#CMR17-65" transform="translate(568.353994 0)scale(0.996264)"/>
      <use xlink:href="#CMR17-61" transform="translate(608.839654 0)scale(0.996264)"/>
      <use xlink:href="#CMR17-64" transform="translate(654.530131 0)scale(0.996264)"/>
      <use xlink:href="#CMR17-73" transform="translate(705.425501 0)scale(0.996264)"/>
     </g>
    </g>
   </g>
   <g id="matplotlib.axis_2">
    <g id="ytick_1">
     <g id="line2d_10">
      <defs>
       <path id="m0508871959" d="M 0 0 
L -3.5 0 
" style="stroke: #000000; stroke-width: 0.8"/>
      </defs>
      <g>
       <use xlink:href="#m0508871959" x="37.018347" y="102.33" style="stroke: #000000; stroke-width: 0.8"/>
      </g>
     </g>
     <g id="text_11">
      <!-- $\mathdefault{0}$ -->
      <g transform="translate(25.037012 105.789249)scale(0.1 -0.1)">
       <defs>
        <path id="CMR17-30" d="M 2688 2038 
C 2688 2430 2682 3099 2413 3613 
C 2176 4063 1798 4224 1466 4224 
C 1158 4224 768 4082 525 3620 
C 269 3137 243 2539 243 2038 
C 243 1671 250 1112 448 623 
C 723 -39 1216 -128 1466 -128 
C 1760 -128 2208 -7 2470 604 
C 2662 1048 2688 1568 2688 2038 
z
M 1466 -26 
C 1056 -26 813 328 723 816 
C 653 1196 653 1749 653 2109 
C 653 2604 653 3015 736 3407 
C 858 3954 1216 4121 1466 4121 
C 1728 4121 2067 3947 2189 3420 
C 2272 3054 2278 2623 2278 2109 
C 2278 1691 2278 1176 2202 797 
C 2067 96 1690 -26 1466 -26 
z
" transform="scale(0.015625)"/>
       </defs>
       <use xlink:href="#CMR17-30" transform="scale(0.996264)"/>
      </g>
     </g>
    </g>
    <g id="ytick_2">
     <g id="line2d_11">
      <g>
       <use xlink:href="#m0508871959" x="37.018347" y="72.601875" style="stroke: #000000; stroke-width: 0.8"/>
      </g>
     </g>
     <g id="text_12">
      <!-- $\mathdefault{5}$ -->
      <g transform="translate(25.037012 76.061124)scale(0.1 -0.1)">
       <defs>
        <path id="CMR17-35" d="M 730 3750 
C 794 3724 1056 3641 1325 3641 
C 1920 3641 2246 3961 2432 4140 
C 2432 4191 2432 4224 2394 4224 
C 2387 4224 2374 4224 2323 4198 
C 2099 4102 1837 4032 1517 4032 
C 1325 4032 1037 4055 723 4191 
C 653 4224 640 4224 634 4224 
C 602 4224 595 4217 595 4090 
L 595 2231 
C 595 2113 595 2080 659 2080 
C 691 2080 704 2093 736 2139 
C 941 2435 1222 2560 1542 2560 
C 1766 2560 2246 2415 2246 1293 
C 2246 1087 2246 716 2054 422 
C 1894 159 1645 25 1370 25 
C 947 25 518 319 403 812 
C 429 806 480 793 506 793 
C 589 793 749 838 749 1036 
C 749 1209 627 1280 506 1280 
C 358 1280 262 1190 262 1011 
C 262 454 704 -128 1382 -128 
C 2042 -128 2669 441 2669 1267 
C 2669 2054 2170 2662 1549 2662 
C 1222 2662 947 2540 730 2304 
L 730 3750 
z
" transform="scale(0.015625)"/>
       </defs>
       <use xlink:href="#CMR17-35" transform="scale(0.996264)"/>
      </g>
     </g>
    </g>
    <g id="ytick_3">
     <g id="line2d_12">
      <g>
       <use xlink:href="#m0508871959" x="37.018347" y="42.87375" style="stroke: #000000; stroke-width: 0.8"/>
      </g>
     </g>
     <g id="text_13">
      <!-- $\mathdefault{10}$ -->
      <g transform="translate(20.055677 46.332999)scale(0.1 -0.1)">
       <use xlink:href="#CMR17-31" transform="scale(0.996264)"/>
       <use xlink:href="#CMR17-30" transform="translate(45.690477 0)scale(0.996264)"/>
      </g>
     </g>
    </g>
    <g id="ytick_4">
     <g id="line2d_13">
      <g>
       <use xlink:href="#m0508871959" x="37.018347" y="13.145625" style="stroke: #000000; stroke-width: 0.8"/>
      </g>
     </g>
     <g id="text_14">
      <!-- $\mathdefault{15}$ -->
      <g transform="translate(20.055677 16.604874)scale(0.1 -0.1)">
       <use xlink:href="#CMR17-31" transform="scale(0.996264)"/>
       <use xlink:href="#CMR17-35" transform="translate(45.690477 0)scale(0.996264)"/>
      </g>
     </g>
    </g>
    <g id="text_15">
     <!-- $\mathrm{Speed{\mbox{-}}up}$ -->
     <g transform="translate(14.118498 74.828692)rotate(-90)scale(0.1 -0.1)">
      <defs>
       <path id="CMR17-53" d="M 2803 4351 
C 2803 4467 2797 4473 2758 4473 
C 2720 4473 2707 4447 2682 4390 
L 2490 3965 
C 2246 4320 1875 4480 1472 4480 
C 819 4480 294 3958 294 3301 
C 294 3101 339 2817 557 2546 
C 794 2250 1018 2198 1530 2063 
C 1722 2011 2042 1927 2106 1901 
C 2470 1747 2662 1360 2662 999 
C 2662 534 2336 38 1779 38 
C 1094 38 454 425 410 1328 
C 403 1431 397 1437 352 1437 
C 301 1437 294 1431 294 1302 
L 294 0 
C 294 -116 301 -122 339 -122 
C 384 -122 397 -90 486 109 
C 493 128 493 141 614 386 
C 934 -39 1472 -128 1779 -128 
C 2477 -128 2970 457 2970 1141 
C 2970 1476 2848 1734 2778 1850 
C 2509 2263 2221 2340 1914 2417 
C 1869 2437 1856 2437 1498 2527 
C 1152 2617 1005 2662 845 2836 
C 666 3036 602 3243 602 3449 
C 602 3868 934 4326 1478 4326 
C 2157 4326 2579 3842 2675 3036 
C 2694 2920 2701 2914 2746 2914 
C 2803 2914 2803 2933 2803 3043 
L 2803 4351 
z
" transform="scale(0.015625)"/>
       <path id="CMR17-70" d="M 1408 -1114 
C 998 -1114 973 -1088 973 -834 
L 973 380 
C 1158 109 1427 -64 1766 -64 
C 2406 -64 3053 503 3053 1382 
C 3053 2196 2496 2816 1837 2816 
C 1453 2816 1139 2603 960 2345 
L 960 2816 
L 198 2745 
L 198 2577 
C 576 2577 634 2539 634 2228 
L 634 -834 
C 634 -1081 608 -1114 198 -1114 
L 198 -1280 
C 352 -1268 634 -1268 800 -1268 
C 966 -1268 1254 -1268 1408 -1280 
L 1408 -1114 
z
M 973 2015 
C 973 2106 973 2241 1222 2481 
C 1254 2506 1472 2700 1792 2700 
C 2259 2700 2643 2112 2643 1376 
C 2643 639 2234 38 1728 38 
C 1498 38 1248 148 1056 451 
C 973 594 973 632 973 736 
L 973 2015 
z
" transform="scale(0.015625)"/>
       <path id="CMSS17-2d" d="M 1664 1216 
L 1664 1587 
L 64 1587 
L 64 1216 
L 1664 1216 
z
" transform="scale(0.015625)"/>
      </defs>
      <use xlink:href="#CMR17-53" transform="scale(0.996264)"/>
      <use xlink:href="#CMR17-70" transform="translate(50.89537 0)scale(0.996264)"/>
      <use xlink:href="#CMR17-65" transform="translate(104.393178 0)scale(0.996264)"/>
      <use xlink:href="#CMR17-65" transform="translate(144.878839 0)scale(0.996264)"/>
      <use xlink:href="#CMR17-64" transform="translate(185.364499 0)scale(0.996264)"/>
      <use xlink:href="#CMSS17-2d" transform="translate(236.259869 0)scale(0.996264)"/>
      <use xlink:href="#CMR17-75" transform="translate(267.488982 0)scale(0.996264)"/>
      <use xlink:href="#CMR17-70" transform="translate(318.384352 0)scale(0.996264)"/>
     </g>
    </g>
   </g>
   <g id="LineCollection_1">
    <path d="M 47.116393 96.384375 
L 52.094303 96.384375 
" clip-path="url(#p7831c2033c)" style="fill: none; stroke: #000000; stroke-width: 1.5"/>
    <path d="M 75.561593 84.812775 
L 80.539503 84.812775 
" clip-path="url(#p7831c2033c)" style="fill: none; stroke: #000000; stroke-width: 1.5"/>
    <path d="M 104.006792 81.568988 
L 108.984702 81.568988 
" clip-path="url(#p7831c2033c)" style="fill: none; stroke: #000000; stroke-width: 1.5"/>
    <path d="M 120.646168 71.333819 
L 125.624077 71.333819 
" clip-path="url(#p7831c2033c)" style="fill: none; stroke: #000000; stroke-width: 1.5"/>
    <path d="M 132.451992 71.393004 
L 137.429902 71.393004 
" clip-path="url(#p7831c2033c)" style="fill: none; stroke: #000000; stroke-width: 1.5"/>
    <path d="M 149.091367 69.806115 
L 154.069277 69.806115 
" clip-path="url(#p7831c2033c)" style="fill: none; stroke: #000000; stroke-width: 1.5"/>
    <path d="M 160.897192 64.300014 
L 165.875102 64.300014 
" clip-path="url(#p7831c2033c)" style="fill: none; stroke: #000000; stroke-width: 1.5"/>
    <path d="M 177.536567 63.317425 
L 182.514477 63.317425 
" clip-path="url(#p7831c2033c)" style="fill: none; stroke: #000000; stroke-width: 1.5"/>
    <path d="M 189.342391 15.916118 
L 194.320301 15.916118 
" clip-path="url(#p7831c2033c)" style="fill: none; stroke: #000000; stroke-width: 1.5"/>
   </g>
   <g id="LineCollection_2">
    <path d="M 47.116393 96.384375 
L 52.094303 96.384375 
" clip-path="url(#p7831c2033c)" style="fill: none; stroke: #000000; stroke-width: 1.5"/>
    <path d="M 75.561593 102.139577 
L 80.539503 102.139577 
" clip-path="url(#p7831c2033c)" style="fill: none; stroke: #000000; stroke-width: 1.5"/>
    <path d="M 104.006792 102.19934 
L 108.984702 102.19934 
" clip-path="url(#p7831c2033c)" style="fill: none; stroke: #000000; stroke-width: 1.5"/>
    <path d="M 120.646168 102.207854 
L 125.624077 102.207854 
" clip-path="url(#p7831c2033c)" style="fill: none; stroke: #000000; stroke-width: 1.5"/>
    <path d="M 132.451992 102.214577 
L 137.429902 102.214577 
" clip-path="url(#p7831c2033c)" style="fill: none; stroke: #000000; stroke-width: 1.5"/>
    <path d="M 149.091367 102.210361 
L 154.069277 102.210361 
" clip-path="url(#p7831c2033c)" style="fill: none; stroke: #000000; stroke-width: 1.5"/>
    <path d="M 160.897192 102.212662 
L 165.875102 102.212662 
" clip-path="url(#p7831c2033c)" style="fill: none; stroke: #000000; stroke-width: 1.5"/>
    <path d="M 177.536567 102.214915 
L 182.514477 102.214915 
" clip-path="url(#p7831c2033c)" style="fill: none; stroke: #000000; stroke-width: 1.5"/>
    <path d="M 189.342391 102.227132 
L 194.320301 102.227132 
" clip-path="url(#p7831c2033c)" style="fill: none; stroke: #000000; stroke-width: 1.5"/>
   </g>
   <g id="LineCollection_3">
    <path d="M 49.605348 96.384375 
L 49.605348 96.384375 
" clip-path="url(#p7831c2033c)" style="fill: none; stroke: #000000; stroke-width: 1.5"/>
    <path d="M 78.050548 102.139577 
L 78.050548 84.812775 
" clip-path="url(#p7831c2033c)" style="fill: none; stroke: #000000; stroke-width: 1.5"/>
    <path d="M 106.495747 102.19934 
L 106.495747 81.568988 
" clip-path="url(#p7831c2033c)" style="fill: none; stroke: #000000; stroke-width: 1.5"/>
    <path d="M 123.135123 102.207854 
L 123.135123 71.333819 
" clip-path="url(#p7831c2033c)" style="fill: none; stroke: #000000; stroke-width: 1.5"/>
    <path d="M 134.940947 102.214577 
L 134.940947 71.393004 
" clip-path="url(#p7831c2033c)" style="fill: none; stroke: #000000; stroke-width: 1.5"/>
    <path d="M 151.580322 102.210361 
L 151.580322 69.806115 
" clip-path="url(#p7831c2033c)" style="fill: none; stroke: #000000; stroke-width: 1.5"/>
    <path d="M 163.386147 102.212662 
L 163.386147 64.300014 
" clip-path="url(#p7831c2033c)" style="fill: none; stroke: #000000; stroke-width: 1.5"/>
    <path d="M 180.025522 102.214915 
L 180.025522 63.317425 
" clip-path="url(#p7831c2033c)" style="fill: none; stroke: #000000; stroke-width: 1.5"/>
    <path d="M 191.831346 102.227132 
L 191.831346 15.916118 
" clip-path="url(#p7831c2033c)" style="fill: none; stroke: #000000; stroke-width: 1.5"/>
   </g>
   <g id="LineCollection_4">
    <path d="M 47.116393 96.384375 
L 52.094303 96.384375 
" clip-path="url(#p7831c2033c)" style="fill: none; stroke: #000000; stroke-width: 1.5"/>
    <path d="M 75.561593 94.271597 
L 80.539503 94.271597 
" clip-path="url(#p7831c2033c)" style="fill: none; stroke: #000000; stroke-width: 1.5"/>
    <path d="M 104.006792 94.178763 
L 108.984702 94.178763 
" clip-path="url(#p7831c2033c)" style="fill: none; stroke: #000000; stroke-width: 1.5"/>
    <path d="M 120.646168 95.200022 
L 125.624077 95.200022 
" clip-path="url(#p7831c2033c)" style="fill: none; stroke: #000000; stroke-width: 1.5"/>
    <path d="M 132.451992 92.897391 
L 137.429902 92.897391 
" clip-path="url(#p7831c2033c)" style="fill: none; stroke: #000000; stroke-width: 1.5"/>
    <path d="M 149.091367 95.572682 
L 154.069277 95.572682 
" clip-path="url(#p7831c2033c)" style="fill: none; stroke: #000000; stroke-width: 1.5"/>
    <path d="M 160.897192 93.10327 
L 165.875102 93.10327 
" clip-path="url(#p7831c2033c)" style="fill: none; stroke: #000000; stroke-width: 1.5"/>
    <path d="M 177.536567 92.931381 
L 182.514477 92.931381 
" clip-path="url(#p7831c2033c)" style="fill: none; stroke: #000000; stroke-width: 1.5"/>
    <path d="M 189.342391 90.863293 
L 194.320301 90.863293 
" clip-path="url(#p7831c2033c)" style="fill: none; stroke: #000000; stroke-width: 1.5"/>
   </g>
   <g id="line2d_14">
    <path d="M 37.018347 96.384375 
L 204.418347 96.384375 
" clip-path="url(#p7831c2033c)" style="fill: none; stroke-dasharray: 3.7,1.6; stroke-dashoffset: 0; stroke: #000000"/>
   </g>
   <g id="patch_3">
    <path d="M 37.018347 102.33 
L 37.018347 7.2 
" style="fill: none; stroke: #000000; stroke-width: 0.8; stroke-linejoin: miter; stroke-linecap: square"/>
   </g>
   <g id="patch_4">
    <path d="M 204.418347 102.33 
L 204.418347 7.2 
" style="fill: none; stroke: #000000; stroke-width: 0.8; stroke-linejoin: miter; stroke-linecap: square"/>
   </g>
   <g id="patch_5">
    <path d="M 37.018347 102.33 
L 204.418347 102.33 
" style="fill: none; stroke: #000000; stroke-width: 0.8; stroke-linejoin: miter; stroke-linecap: square"/>
   </g>
   <g id="patch_6">
    <path d="M 37.018347 7.2 
L 204.418347 7.2 
" style="fill: none; stroke: #000000; stroke-width: 0.8; stroke-linejoin: miter; stroke-linecap: square"/>
   </g>
  </g>
 </g>
 <defs>
  <clipPath id="p7831c2033c">
   <rect x="37.018347" y="7.2" width="167.4" height="95.13"/>
  </clipPath>
 </defs>
</svg>
