<?xml version="1.0" encoding="utf-8" standalone="no"?>
<!DOCTYPE svg PUBLIC "-//W3C//DTD SVG 1.1//EN"
  "http://www.w3.org/Graphics/SVG/1.1/DTD/svg11.dtd">
<svg xmlns:xlink="http://www.w3.org/1999/xlink" width="211.618347pt" height="138.241353pt" viewBox="0 0 211.618347 138.241353" xmlns="http://www.w3.org/2000/svg" version="1.1">
 <metadata>
  <rdf:RDF xmlns:dc="http://purl.org/dc/elements/1.1/" xmlns:cc="http://creativecommons.org/ns#" xmlns:rdf="http://www.w3.org/1999/02/22-rdf-syntax-ns#">
   <cc:Work>
    <dc:type rdf:resource="http://purl.org/dc/dcmitype/StillImage"/>
    <dc:date>2022-04-21T15:07:41.332026</dc:date>
    <dc:format>image/svg+xml</dc:format>
    <dc:creator>
     <cc:Agent>
      <dc:title>Matplotlib v3.5.1, https://matplotlib.org/</dc:title>
     </cc:Agent>
    </dc:creator>
   </cc:Work>
  </rdf:RDF>
 </metadata>
 <defs>
  <style type="text/css">*{stroke-linejoin: round; stroke-linecap: butt}</style>
 </defs>
 <g id="figure_1">
  <g id="patch_1">
   <path d="M 0 138.241353 
L 211.618347 138.241353 
L 211.618347 -0 
L 0 -0 
L 0 138.241353 
z
" style="fill: none"/>
  </g>
  <g id="axes_1">
   <g id="patch_2">
    <path d="M 37.018347 102.33 
L 204.418347 102.33 
L 204.418347 7.2 
L 37.018347 7.2 
z
" style="fill: #ffffff"/>
   </g>
   <g id="PolyCollection_1">
    <path d="M 54.583258 96.696806 
L 44.627438 96.696806 
L 44.627438 96.696806 
L 44.627438 96.696806 
L 44.627438 96.696806 
L 44.627438 96.696806 
L 44.627438 96.696806 
L 44.627438 96.696806 
L 44.627438 96.696806 
L 44.627438 96.696806 
L 44.627438 96.696806 
L 44.627438 96.696806 
L 44.627438 96.696806 
L 44.627438 96.696806 
L 44.627438 96.696806 
L 44.627438 96.696806 
L 44.627438 96.696806 
L 44.627438 96.696806 
L 44.627438 96.696806 
L 44.627438 96.696806 
L 44.627438 96.696806 
L 44.627438 96.696806 
L 44.627438 96.696806 
L 44.627438 96.696806 
L 44.627438 96.696806 
L 44.627438 96.696806 
L 44.627438 96.696806 
L 44.627438 96.696806 
L 44.627438 96.696806 
L 44.627438 96.696806 
L 44.627438 96.696806 
L 44.627438 96.696806 
L 44.627438 96.696806 
L 44.627438 96.696806 
L 44.627438 96.696806 
L 44.627438 96.696806 
L 44.627438 96.696806 
L 44.627438 96.696806 
L 44.627438 96.696806 
L 44.627438 96.696806 
L 44.627438 96.696806 
L 44.627438 96.696806 
L 44.627438 96.696806 
L 44.627438 96.696806 
L 44.627438 96.696806 
L 44.627438 96.696806 
L 44.627438 96.696806 
L 44.627438 96.696806 
L 44.627438 96.696806 
L 44.627438 96.696806 
L 44.627438 96.696806 
L 44.627438 96.696806 
L 44.627438 96.696806 
L 44.627438 96.696806 
L 44.627438 96.696806 
L 44.627438 96.696806 
L 44.627438 96.696806 
L 44.627438 96.696806 
L 44.627438 96.696806 
L 44.627438 96.696806 
L 44.627438 96.696806 
L 44.627438 96.696806 
L 44.627438 96.696806 
L 44.627438 96.696806 
L 44.627438 96.696806 
L 44.627438 96.696806 
L 44.627438 96.696806 
L 44.627438 96.696806 
L 44.627438 96.696806 
L 44.627438 96.696806 
L 44.627438 96.696806 
L 44.627438 96.696806 
L 44.627438 96.696806 
L 44.627438 96.696806 
L 44.627438 96.696806 
L 44.627438 96.696806 
L 44.627438 96.696806 
L 44.627438 96.696806 
L 44.627438 96.696806 
L 44.627438 96.696806 
L 44.627438 96.696806 
L 44.627438 96.696806 
L 44.627438 96.696806 
L 44.627438 96.696806 
L 44.627438 96.696806 
L 44.627438 96.696806 
L 44.627438 96.696806 
L 44.627438 96.696806 
L 44.627438 96.696806 
L 44.627438 96.696806 
L 44.627438 96.696806 
L 44.627438 96.696806 
L 44.627438 96.696806 
L 44.627438 96.696806 
L 44.627438 96.696806 
L 44.627438 96.696806 
L 44.627438 96.696806 
L 44.627438 96.696806 
L 44.627438 96.696806 
L 44.627438 96.696806 
L 44.627438 96.696806 
L 54.583258 96.696806 
L 54.583258 96.696806 
L 54.583258 96.696806 
L 54.583258 96.696806 
L 54.583258 96.696806 
L 54.583258 96.696806 
L 54.583258 96.696806 
L 54.583258 96.696806 
L 54.583258 96.696806 
L 54.583258 96.696806 
L 54.583258 96.696806 
L 54.583258 96.696806 
L 54.583258 96.696806 
L 54.583258 96.696806 
L 54.583258 96.696806 
L 54.583258 96.696806 
L 54.583258 96.696806 
L 54.583258 96.696806 
L 54.583258 96.696806 
L 54.583258 96.696806 
L 54.583258 96.696806 
L 54.583258 96.696806 
L 54.583258 96.696806 
L 54.583258 96.696806 
L 54.583258 96.696806 
L 54.583258 96.696806 
L 54.583258 96.696806 
L 54.583258 96.696806 
L 54.583258 96.696806 
L 54.583258 96.696806 
L 54.583258 96.696806 
L 54.583258 96.696806 
L 54.583258 96.696806 
L 54.583258 96.696806 
L 54.583258 96.696806 
L 54.583258 96.696806 
L 54.583258 96.696806 
L 54.583258 96.696806 
L 54.583258 96.696806 
L 54.583258 96.696806 
L 54.583258 96.696806 
L 54.583258 96.696806 
L 54.583258 96.696806 
L 54.583258 96.696806 
L 54.583258 96.696806 
L 54.583258 96.696806 
L 54.583258 96.696806 
L 54.583258 96.696806 
L 54.583258 96.696806 
L 54.583258 96.696806 
L 54.583258 96.696806 
L 54.583258 96.696806 
L 54.583258 96.696806 
L 54.583258 96.696806 
L 54.583258 96.696806 
L 54.583258 96.696806 
L 54.583258 96.696806 
L 54.583258 96.696806 
L 54.583258 96.696806 
L 54.583258 96.696806 
L 54.583258 96.696806 
L 54.583258 96.696806 
L 54.583258 96.696806 
L 54.583258 96.696806 
L 54.583258 96.696806 
L 54.583258 96.696806 
L 54.583258 96.696806 
L 54.583258 96.696806 
L 54.583258 96.696806 
L 54.583258 96.696806 
L 54.583258 96.696806 
L 54.583258 96.696806 
L 54.583258 96.696806 
L 54.583258 96.696806 
L 54.583258 96.696806 
L 54.583258 96.696806 
L 54.583258 96.696806 
L 54.583258 96.696806 
L 54.583258 96.696806 
L 54.583258 96.696806 
L 54.583258 96.696806 
L 54.583258 96.696806 
L 54.583258 96.696806 
L 54.583258 96.696806 
L 54.583258 96.696806 
L 54.583258 96.696806 
L 54.583258 96.696806 
L 54.583258 96.696806 
L 54.583258 96.696806 
L 54.583258 96.696806 
L 54.583258 96.696806 
L 54.583258 96.696806 
L 54.583258 96.696806 
L 54.583258 96.696806 
L 54.583258 96.696806 
L 54.583258 96.696806 
L 54.583258 96.696806 
L 54.583258 96.696806 
L 54.583258 96.696806 
L 54.583258 96.696806 
L 54.583258 96.696806 
z
" clip-path="url(#pf1e7cdbb89)" style="fill: #ff0000; fill-opacity: 0.3"/>
   </g>
   <g id="PolyCollection_2">
    <path d="M 78.667862 96.262397 
L 77.433234 96.262397 
L 77.363898 96.158179 
L 77.300272 96.053961 
L 77.24497 95.949742 
L 77.200235 95.845524 
L 77.167749 95.741305 
L 77.148474 95.637087 
L 77.14258 95.532869 
L 77.14943 95.42865 
L 77.167642 95.324432 
L 77.195205 95.220214 
L 77.229637 95.115995 
L 77.268146 95.011777 
L 77.307799 94.907558 
L 77.345659 94.80334 
L 77.378909 94.699122 
L 77.404939 94.594903 
L 77.421429 94.490685 
L 77.426417 94.386466 
L 77.418367 94.282248 
L 77.396244 94.17803 
L 77.359583 94.073811 
L 77.30855 93.969593 
L 77.243978 93.865375 
L 77.167363 93.761156 
L 77.080817 93.656938 
L 76.986952 93.552719 
L 76.888729 93.448501 
L 76.789256 93.344283 
L 76.691564 93.240064 
L 76.598399 93.135846 
L 76.512029 93.031627 
L 76.43411 92.927409 
L 76.36561 92.823191 
L 76.306805 92.718972 
L 76.25733 92.614754 
L 76.216276 92.510536 
L 76.182305 92.406317 
L 76.153764 92.302099 
L 76.128779 92.19788 
L 76.105322 92.093662 
L 76.081247 91.989444 
L 76.054314 91.885225 
L 76.02221 91.781007 
L 75.982592 91.676788 
L 75.933168 91.57257 
L 75.871809 91.468352 
L 75.796703 91.364133 
L 75.706514 91.259915 
L 75.600536 91.155697 
L 75.478805 91.051478 
L 75.342144 90.94726 
L 75.192133 90.843041 
L 75.030991 90.738823 
L 74.861388 90.634605 
L 74.686227 90.530386 
L 74.508407 90.426168 
L 74.330631 90.321949 
L 74.155298 90.217731 
L 73.984486 90.113513 
L 73.820069 90.009294 
L 73.663923 89.905076 
L 73.518213 89.800858 
L 73.385692 89.696639 
L 73.269941 89.592421 
L 73.175483 89.488202 
L 73.107718 89.383984 
L 73.072638 89.279766 
L 73.076336 89.175547 
L 73.124353 89.071329 
L 73.220954 88.96711 
L 73.368428 88.862892 
L 73.566544 88.758674 
L 73.812254 88.654455 
L 74.099694 88.550237 
L 74.420523 88.446018 
L 74.764533 88.3418 
L 75.120474 88.237582 
L 75.476957 88.133363 
L 75.823344 88.029145 
L 76.150481 87.924927 
L 76.451233 87.820708 
L 76.720748 87.71649 
L 76.956477 87.612271 
L 77.157971 87.508053 
L 77.326524 87.403835 
L 77.464726 87.299616 
L 77.575998 87.195398 
L 77.664168 87.091179 
L 77.733116 86.986961 
L 77.78651 86.882743 
L 77.827641 86.778524 
L 77.859338 86.674306 
L 77.883946 86.570088 
L 77.903351 86.465869 
L 77.919028 86.361651 
L 77.932102 86.257432 
L 77.943408 86.153214 
L 77.953542 86.048996 
L 77.962914 85.944777 
L 78.138181 85.944777 
L 78.138181 85.944777 
L 78.147553 86.048996 
L 78.157688 86.153214 
L 78.168993 86.257432 
L 78.182067 86.361651 
L 78.197745 86.465869 
L 78.21715 86.570088 
L 78.241758 86.674306 
L 78.273455 86.778524 
L 78.314586 86.882743 
L 78.367979 86.986961 
L 78.436927 87.091179 
L 78.525097 87.195398 
L 78.63637 87.299616 
L 78.774571 87.403835 
L 78.943124 87.508053 
L 79.144618 87.612271 
L 79.380348 87.71649 
L 79.649862 87.820708 
L 79.950614 87.924927 
L 80.277752 88.029145 
L 80.624138 88.133363 
L 80.980622 88.237582 
L 81.336562 88.3418 
L 81.680572 88.446018 
L 82.001401 88.550237 
L 82.288842 88.654455 
L 82.534551 88.758674 
L 82.732668 88.862892 
L 82.880141 88.96711 
L 82.976742 89.071329 
L 83.02476 89.175547 
L 83.028458 89.279766 
L 82.993378 89.383984 
L 82.925612 89.488202 
L 82.831154 89.592421 
L 82.715403 89.696639 
L 82.582882 89.800858 
L 82.437173 89.905076 
L 82.281026 90.009294 
L 82.116609 90.113513 
L 81.945798 90.217731 
L 81.770464 90.321949 
L 81.592689 90.426168 
L 81.414868 90.530386 
L 81.239707 90.634605 
L 81.070105 90.738823 
L 80.908962 90.843041 
L 80.758951 90.94726 
L 80.622291 91.051478 
L 80.500559 91.155697 
L 80.394581 91.259915 
L 80.304392 91.364133 
L 80.229286 91.468352 
L 80.167928 91.57257 
L 80.118503 91.676788 
L 80.078886 91.781007 
L 80.046781 91.885225 
L 80.019848 91.989444 
L 79.995774 92.093662 
L 79.972317 92.19788 
L 79.947332 92.302099 
L 79.918791 92.406317 
L 79.88482 92.510536 
L 79.843766 92.614754 
L 79.794291 92.718972 
L 79.735486 92.823191 
L 79.666985 92.927409 
L 79.589066 93.031627 
L 79.502696 93.135846 
L 79.409531 93.240064 
L 79.31184 93.344283 
L 79.212366 93.448501 
L 79.114144 93.552719 
L 79.020279 93.656938 
L 78.933732 93.761156 
L 78.857118 93.865375 
L 78.792545 93.969593 
L 78.741512 94.073811 
L 78.704851 94.17803 
L 78.682728 94.282248 
L 78.674679 94.386466 
L 78.679666 94.490685 
L 78.696157 94.594903 
L 78.722187 94.699122 
L 78.755436 94.80334 
L 78.793297 94.907558 
L 78.832949 95.011777 
L 78.871459 95.115995 
L 78.90589 95.220214 
L 78.933454 95.324432 
L 78.951665 95.42865 
L 78.958515 95.532869 
L 78.952621 95.637087 
L 78.933347 95.741305 
L 78.90086 95.845524 
L 78.856126 95.949742 
L 78.800823 96.053961 
L 78.737197 96.158179 
L 78.667862 96.262397 
z
" clip-path="url(#pf1e7cdbb89)" style="fill: #ff0000; fill-opacity: 0.3"/>
   </g>
   <g id="PolyCollection_3">
    <path d="M 106.942497 93.284446 
L 106.048998 93.284446 
L 105.913788 92.855482 
L 105.74807 92.426518 
L 105.548885 91.997554 
L 105.315163 91.56859 
L 105.048831 91.139626 
L 104.755788 90.710662 
L 104.446361 90.281698 
L 104.134839 89.852734 
L 103.837849 89.42377 
L 103.571713 88.994806 
L 103.349348 88.565842 
L 103.177583 88.136878 
L 103.055819 87.707914 
L 102.976587 87.27895 
L 102.927979 86.849986 
L 102.897265 86.421022 
L 102.874578 85.992058 
L 102.855514 85.563094 
L 102.841849 85.13413 
L 102.840186 84.705167 
L 102.859016 84.276203 
L 102.905163 83.847239 
L 102.98067 83.418275 
L 103.080995 82.989311 
L 103.194832 82.560347 
L 103.305376 82.131383 
L 103.392528 81.702419 
L 103.435507 81.273455 
L 103.415596 80.844491 
L 103.319021 80.415527 
L 103.140044 79.986563 
L 102.88402 79.557599 
L 102.569739 79.128635 
L 102.229888 78.699671 
L 101.908585 78.270707 
L 101.655576 77.841743 
L 101.517837 77.412779 
L 101.530458 76.983815 
L 101.709268 76.554851 
L 102.047373 76.125887 
L 102.51662 75.696923 
L 103.073518 75.267959 
L 103.66784 74.838995 
L 104.251536 74.410031 
L 104.785829 73.981067 
L 105.245192 73.552103 
L 105.618027 73.123139 
L 105.904679 72.694175 
L 106.11395 72.265211 
L 106.259261 71.836247 
L 106.355338 71.407283 
L 106.41587 70.978319 
L 106.452228 70.549355 
L 106.47305 70.120391 
L 106.484421 69.691427 
L 106.490342 69.262463 
L 106.493282 68.833499 
L 106.494673 68.404535 
L 106.4953 67.975571 
L 106.49557 67.546607 
L 106.49568 67.117643 
L 106.495723 66.688679 
L 106.495739 66.259715 
L 106.495744 65.830751 
L 106.495744 65.401787 
L 106.495741 64.972823 
L 106.495732 64.543859 
L 106.49571 64.114895 
L 106.495663 63.685931 
L 106.495564 63.256967 
L 106.495368 62.828003 
L 106.495001 62.39904 
L 106.494353 61.970076 
L 106.493266 61.541112 
L 106.491546 61.112148 
L 106.488978 60.683184 
L 106.485371 60.25422 
L 106.480611 59.825256 
L 106.474737 59.396292 
L 106.467995 58.967328 
L 106.460857 58.538364 
L 106.45399 58.1094 
L 106.448148 57.680436 
L 106.444022 57.251472 
L 106.442061 56.822508 
L 106.442335 56.393544 
L 106.444459 55.96458 
L 106.447622 55.535616 
L 106.450712 55.106652 
L 106.45251 54.677688 
L 106.451932 54.248724 
L 106.448255 53.81976 
L 106.4413 53.390796 
L 106.431533 52.961832 
L 106.420045 52.532868 
L 106.40841 52.103904 
L 106.398416 51.67494 
L 106.391725 51.245976 
L 106.38954 50.817012 
L 106.601955 50.817012 
L 106.601955 50.817012 
L 106.59977 51.245976 
L 106.593079 51.67494 
L 106.583084 52.103904 
L 106.571449 52.532868 
L 106.559962 52.961832 
L 106.550194 53.390796 
L 106.54324 53.81976 
L 106.539563 54.248724 
L 106.538985 54.677688 
L 106.540783 55.106652 
L 106.543872 55.535616 
L 106.547036 55.96458 
L 106.54916 56.393544 
L 106.549434 56.822508 
L 106.547473 57.251472 
L 106.543346 57.680436 
L 106.537505 58.1094 
L 106.530638 58.538364 
L 106.5235 58.967328 
L 106.516757 59.396292 
L 106.510884 59.825256 
L 106.506124 60.25422 
L 106.502517 60.683184 
L 106.499949 61.112148 
L 106.498229 61.541112 
L 106.497142 61.970076 
L 106.496493 62.39904 
L 106.496127 62.828003 
L 106.495931 63.256967 
L 106.495832 63.685931 
L 106.495785 64.114895 
L 106.495763 64.543859 
L 106.495754 64.972823 
L 106.495751 65.401787 
L 106.495751 65.830751 
L 106.495756 66.259715 
L 106.495772 66.688679 
L 106.495815 67.117643 
L 106.495925 67.546607 
L 106.496195 67.975571 
L 106.496822 68.404535 
L 106.498213 68.833499 
L 106.501152 69.262463 
L 106.507074 69.691427 
L 106.518445 70.120391 
L 106.539267 70.549355 
L 106.575624 70.978319 
L 106.636157 71.407283 
L 106.732234 71.836247 
L 106.877545 72.265211 
L 107.086816 72.694175 
L 107.373467 73.123139 
L 107.746302 73.552103 
L 108.205666 73.981067 
L 108.739958 74.410031 
L 109.323655 74.838995 
L 109.917977 75.267959 
L 110.474875 75.696923 
L 110.944122 76.125887 
L 111.282227 76.554851 
L 111.461037 76.983815 
L 111.473657 77.412779 
L 111.335919 77.841743 
L 111.08291 78.270707 
L 110.761607 78.699671 
L 110.421755 79.128635 
L 110.107474 79.557599 
L 109.851451 79.986563 
L 109.672473 80.415527 
L 109.575899 80.844491 
L 109.555987 81.273455 
L 109.598967 81.702419 
L 109.686119 82.131383 
L 109.796663 82.560347 
L 109.910499 82.989311 
L 110.010825 83.418275 
L 110.086332 83.847239 
L 110.132479 84.276203 
L 110.151309 84.705167 
L 110.149645 85.13413 
L 110.13598 85.563094 
L 110.116917 85.992058 
L 110.094229 86.421022 
L 110.063516 86.849986 
L 110.014908 87.27895 
L 109.935676 87.707914 
L 109.813912 88.136878 
L 109.642147 88.565842 
L 109.419782 88.994806 
L 109.153646 89.42377 
L 108.856655 89.852734 
L 108.545133 90.281698 
L 108.235707 90.710662 
L 107.942664 91.139626 
L 107.676332 91.56859 
L 107.44261 91.997554 
L 107.243425 92.426518 
L 107.077707 92.855482 
L 106.942497 93.284446 
z
" clip-path="url(#pf1e7cdbb89)" style="fill: #ff0000; fill-opacity: 0.3"/>
   </g>
   <g id="PolyCollection_4">
    <path d="M 124.411704 93.156856 
L 121.858541 93.156856 
L 121.839086 92.855096 
L 121.830705 92.553335 
L 121.831778 92.251575 
L 121.840037 91.949814 
L 121.85268 91.648054 
L 121.866516 91.346293 
L 121.878132 91.044533 
L 121.884075 90.742772 
L 121.88102 90.441012 
L 121.865921 90.139251 
L 121.836137 89.837491 
L 121.789521 89.535731 
L 121.724472 89.23397 
L 121.63996 88.93221 
L 121.535508 88.630449 
L 121.411166 88.328689 
L 121.267469 88.026928 
L 121.105393 87.725168 
L 120.926316 87.423407 
L 120.731995 87.121647 
L 120.524549 86.819886 
L 120.306459 86.518126 
L 120.08058 86.216365 
L 119.850137 85.914605 
L 119.618728 85.612845 
L 119.39029 85.311084 
L 119.169047 85.009324 
L 118.95942 84.707563 
L 118.765894 84.405803 
L 118.592855 84.104042 
L 118.444404 83.802282 
L 118.324151 83.500521 
L 118.235012 83.198761 
L 118.179026 82.897 
L 118.157213 82.59524 
L 118.169472 82.293479 
L 118.214556 81.991719 
L 118.290106 81.689959 
L 118.392759 81.388198 
L 118.518315 81.086438 
L 118.661958 80.784677 
L 118.818517 80.482917 
L 118.982732 80.181156 
L 119.149528 79.879396 
L 119.314257 79.577635 
L 119.47291 79.275875 
L 119.622263 78.974114 
L 119.75997 78.672354 
L 119.884582 78.370593 
L 119.995499 78.068833 
L 120.092863 77.767073 
L 120.177395 77.465312 
L 120.250196 77.163552 
L 120.312522 76.861791 
L 120.365563 76.560031 
L 120.410231 76.25827 
L 120.446985 75.95651 
L 120.475708 75.654749 
L 120.495651 75.352989 
L 120.50545 75.051228 
L 120.503218 74.749468 
L 120.486717 74.447707 
L 120.453593 74.145947 
L 120.401653 73.844187 
L 120.329174 73.542426 
L 120.235209 73.240666 
L 120.119855 72.938905 
L 119.984471 72.637145 
L 119.831806 72.335384 
L 119.666019 72.033624 
L 119.492589 71.731863 
L 119.318108 71.430103 
L 119.149967 71.128342 
L 118.995955 70.826582 
L 118.863805 70.524821 
L 118.760723 70.223061 
L 118.69293 69.921301 
L 118.665273 69.61954 
L 118.680918 69.31778 
L 118.741166 69.016019 
L 118.845395 68.714259 
L 118.991133 68.412498 
L 119.174262 68.110738 
L 119.38931 67.808977 
L 119.629824 67.507217 
L 119.888778 67.205456 
L 120.15898 66.903696 
L 120.433462 66.601935 
L 120.705806 66.300175 
L 120.9704 65.998414 
L 121.222616 65.696654 
L 121.458893 65.394894 
L 121.676752 65.093133 
L 121.874735 64.791373 
L 122.052301 64.489612 
L 122.209676 64.187852 
L 122.347696 63.886091 
L 122.467638 63.584331 
L 122.571069 63.28257 
L 123.699176 63.28257 
L 123.699176 63.28257 
L 123.802607 63.584331 
L 123.922549 63.886091 
L 124.060569 64.187852 
L 124.217945 64.489612 
L 124.39551 64.791373 
L 124.593493 65.093133 
L 124.811352 65.394894 
L 125.047629 65.696654 
L 125.299845 65.998414 
L 125.564439 66.300175 
L 125.836783 66.601935 
L 126.111265 66.903696 
L 126.381467 67.205456 
L 126.640421 67.507217 
L 126.880935 67.808977 
L 127.095984 68.110738 
L 127.279112 68.412498 
L 127.424851 68.714259 
L 127.529079 69.016019 
L 127.589327 69.31778 
L 127.604972 69.61954 
L 127.577315 69.921301 
L 127.509522 70.223061 
L 127.40644 70.524821 
L 127.27429 70.826582 
L 127.120278 71.128342 
L 126.952137 71.430103 
L 126.777656 71.731863 
L 126.604226 72.033624 
L 126.438439 72.335384 
L 126.285774 72.637145 
L 126.15039 72.938905 
L 126.035036 73.240666 
L 125.941071 73.542426 
L 125.868592 73.844187 
L 125.816652 74.145947 
L 125.783528 74.447707 
L 125.767027 74.749468 
L 125.764795 75.051228 
L 125.774594 75.352989 
L 125.794537 75.654749 
L 125.82326 75.95651 
L 125.860014 76.25827 
L 125.904682 76.560031 
L 125.957723 76.861791 
L 126.020049 77.163552 
L 126.09285 77.465312 
L 126.177382 77.767073 
L 126.274746 78.068833 
L 126.385663 78.370593 
L 126.510275 78.672354 
L 126.647982 78.974114 
L 126.797335 79.275875 
L 126.955988 79.577635 
L 127.120717 79.879396 
L 127.287513 80.181156 
L 127.451728 80.482917 
L 127.608287 80.784677 
L 127.751931 81.086438 
L 127.877486 81.388198 
L 127.980139 81.689959 
L 128.055689 81.991719 
L 128.100773 82.293479 
L 128.113032 82.59524 
L 128.091219 82.897 
L 128.035233 83.198761 
L 127.946094 83.500521 
L 127.825841 83.802282 
L 127.67739 84.104042 
L 127.504351 84.405803 
L 127.310825 84.707563 
L 127.101198 85.009324 
L 126.879955 85.311084 
L 126.651517 85.612845 
L 126.420108 85.914605 
L 126.189665 86.216365 
L 125.963786 86.518126 
L 125.745696 86.819886 
L 125.53825 87.121647 
L 125.343929 87.423407 
L 125.164852 87.725168 
L 125.002776 88.026928 
L 124.85908 88.328689 
L 124.734737 88.630449 
L 124.630285 88.93221 
L 124.545773 89.23397 
L 124.480725 89.535731 
L 124.434108 89.837491 
L 124.404324 90.139251 
L 124.389225 90.441012 
L 124.38617 90.742772 
L 124.392113 91.044533 
L 124.40373 91.346293 
L 124.417565 91.648054 
L 124.430208 91.949814 
L 124.438467 92.251575 
L 124.439541 92.553335 
L 124.43116 92.855096 
L 124.411704 93.156856 
z
" clip-path="url(#pf1e7cdbb89)" style="fill: #ff0000; fill-opacity: 0.3"/>
   </g>
   <g id="PolyCollection_5">
    <path d="M 135.351734 92.58814 
L 134.53016 92.58814 
L 134.465192 92.228322 
L 134.390568 91.868505 
L 134.304924 91.508687 
L 134.206904 91.14887 
L 134.095258 90.789052 
L 133.96896 90.429235 
L 133.827319 90.069417 
L 133.67011 89.7096 
L 133.497661 89.349782 
L 133.310933 88.989965 
L 133.111541 88.630147 
L 132.901733 88.27033 
L 132.684306 87.910512 
L 132.462478 87.550695 
L 132.239709 87.190877 
L 132.019491 86.83106 
L 131.805138 86.471242 
L 131.599573 86.111425 
L 131.405168 85.751607 
L 131.223626 85.39179 
L 131.055932 85.031972 
L 130.902383 84.672155 
L 130.762684 84.312337 
L 130.636097 83.95252 
L 130.521635 83.592702 
L 130.418265 83.232885 
L 130.325099 82.873067 
L 130.24156 82.51325 
L 130.167481 82.153432 
L 130.103158 81.793615 
L 130.049329 81.433797 
L 130.007106 81.07398 
L 129.977851 80.714162 
L 129.963037 80.354345 
L 129.964094 79.994527 
L 129.982262 79.63471 
L 130.018466 79.274892 
L 130.073223 78.915075 
L 130.146575 78.555257 
L 130.238063 78.19544 
L 130.346726 77.835622 
L 130.471118 77.475805 
L 130.609357 77.115987 
L 130.759177 76.75617 
L 130.918006 76.396352 
L 131.083044 76.036535 
L 131.251364 75.676717 
L 131.420005 75.3169 
L 131.586091 74.957082 
L 131.746927 74.597265 
L 131.900102 74.237447 
L 132.043566 73.87763 
L 132.175685 73.517812 
L 132.295259 73.157995 
L 132.40151 72.798177 
L 132.494035 72.43836 
L 132.572722 72.078542 
L 132.637656 71.718725 
L 132.689016 71.358907 
L 132.72697 70.99909 
L 132.751604 70.639272 
L 132.76287 70.279455 
L 132.76058 69.919637 
L 132.744441 69.55982 
L 132.714131 69.200002 
L 132.669408 68.840185 
L 132.610252 68.480367 
L 132.537005 68.12055 
L 132.450524 67.760732 
L 132.352301 67.400915 
L 132.244556 67.041097 
L 132.130277 66.68128 
L 132.013201 66.321462 
L 131.897722 65.961645 
L 131.788737 65.601828 
L 131.691416 65.24201 
L 131.610928 64.882193 
L 131.552131 64.522375 
L 131.519247 64.162558 
L 131.515559 63.80274 
L 131.543161 63.442923 
L 131.602774 63.083105 
L 131.693661 62.723288 
L 131.813657 62.36347 
L 131.959298 62.003653 
L 132.126058 61.643835 
L 132.308658 61.284018 
L 132.501426 60.9242 
L 132.698676 60.564383 
L 132.895065 60.204565 
L 133.085891 59.844748 
L 133.267331 59.48493 
L 133.436569 59.125113 
L 133.591846 58.765295 
L 133.732403 58.405478 
L 133.858364 58.04566 
L 133.970553 57.685843 
L 134.070288 57.326025 
L 134.159167 56.966208 
L 135.722727 56.966208 
L 135.722727 56.966208 
L 135.811606 57.326025 
L 135.911341 57.685843 
L 136.02353 58.04566 
L 136.149491 58.405478 
L 136.290048 58.765295 
L 136.445325 59.125113 
L 136.614563 59.48493 
L 136.796003 59.844748 
L 136.986829 60.204565 
L 137.183218 60.564383 
L 137.380468 60.9242 
L 137.573236 61.284018 
L 137.755836 61.643835 
L 137.922596 62.003653 
L 138.068237 62.36347 
L 138.188233 62.723288 
L 138.279121 63.083105 
L 138.338733 63.442923 
L 138.366335 63.80274 
L 138.362647 64.162558 
L 138.329763 64.522375 
L 138.270966 64.882193 
L 138.190478 65.24201 
L 138.093157 65.601828 
L 137.984172 65.961645 
L 137.868693 66.321462 
L 137.751617 66.68128 
L 137.637339 67.041097 
L 137.529593 67.400915 
L 137.43137 67.760732 
L 137.344889 68.12055 
L 137.271642 68.480367 
L 137.212486 68.840185 
L 137.167763 69.200002 
L 137.137453 69.55982 
L 137.121314 69.919637 
L 137.119024 70.279455 
L 137.13029 70.639272 
L 137.154924 70.99909 
L 137.192878 71.358907 
L 137.244238 71.718725 
L 137.309172 72.078542 
L 137.387859 72.43836 
L 137.480384 72.798177 
L 137.586636 73.157995 
L 137.70621 73.517812 
L 137.838328 73.87763 
L 137.981792 74.237447 
L 138.134968 74.597265 
L 138.295803 74.957082 
L 138.461889 75.3169 
L 138.630531 75.676717 
L 138.79885 76.036535 
L 138.963888 76.396352 
L 139.122717 76.75617 
L 139.272537 77.115987 
L 139.410776 77.475805 
L 139.535168 77.835622 
L 139.643831 78.19544 
L 139.73532 78.555257 
L 139.808672 78.915075 
L 139.863428 79.274892 
L 139.899632 79.63471 
L 139.9178 79.994527 
L 139.918857 80.354345 
L 139.904044 80.714162 
L 139.874789 81.07398 
L 139.832565 81.433797 
L 139.778736 81.793615 
L 139.714413 82.153432 
L 139.640334 82.51325 
L 139.556795 82.873067 
L 139.46363 83.232885 
L 139.360259 83.592702 
L 139.245797 83.95252 
L 139.11921 84.312337 
L 138.979511 84.672155 
L 138.825962 85.031972 
L 138.658268 85.39179 
L 138.476726 85.751607 
L 138.282321 86.111425 
L 138.076756 86.471242 
L 137.862403 86.83106 
L 137.642186 87.190877 
L 137.419416 87.550695 
L 137.197589 87.910512 
L 136.980161 88.27033 
L 136.770353 88.630147 
L 136.570961 88.989965 
L 136.384233 89.349782 
L 136.211784 89.7096 
L 136.054575 90.069417 
L 135.912935 90.429235 
L 135.786636 90.789052 
L 135.674991 91.14887 
L 135.57697 91.508687 
L 135.491326 91.868505 
L 135.416702 92.228322 
L 135.351734 92.58814 
z
" clip-path="url(#pf1e7cdbb89)" style="fill: #ff0000; fill-opacity: 0.3"/>
   </g>
   <g id="PolyCollection_6">
    <path d="M 153.347805 92.512314 
L 149.812839 92.512314 
L 149.677186 91.961428 
L 149.544611 91.410542 
L 149.414475 90.859657 
L 149.285549 90.308771 
L 149.156124 89.757885 
L 149.024165 89.206999 
L 148.887495 88.656113 
L 148.744025 88.105228 
L 148.59199 87.554342 
L 148.430189 87.003456 
L 148.258228 86.45257 
L 148.076713 85.901684 
L 147.887405 85.350798 
L 147.69329 84.799913 
L 147.498551 84.249027 
L 147.308428 83.698141 
L 147.128944 83.147255 
L 146.966534 82.596369 
L 146.827565 82.045484 
L 146.717814 81.494598 
L 146.641954 80.943712 
L 146.603087 80.392826 
L 146.602412 79.84194 
L 146.639049 79.291054 
L 146.710065 78.740169 
L 146.810703 78.189283 
L 146.934787 77.638397 
L 147.075272 77.087511 
L 147.224854 76.536625 
L 147.376594 75.98574 
L 147.524465 75.434854 
L 147.663769 74.883968 
L 147.79138 74.333082 
L 147.905807 73.782196 
L 148.007073 73.23131 
L 148.096444 72.680425 
L 148.176068 72.129539 
L 148.248556 71.578653 
L 148.316576 71.027767 
L 148.382506 70.476881 
L 148.448162 69.925996 
L 148.514634 69.37511 
L 148.58223 68.824224 
L 148.650502 68.273338 
L 148.718352 67.722452 
L 148.784189 67.171566 
L 148.846098 66.620681 
L 148.902026 66.069795 
L 148.949944 65.518909 
L 148.987994 64.968023 
L 149.014602 64.417137 
L 149.02857 63.866252 
L 149.029154 63.315366 
L 149.016115 62.76448 
L 148.989781 62.213594 
L 148.951093 61.662708 
L 148.901658 61.111822 
L 148.843785 60.560937 
L 148.780503 60.010051 
L 148.715537 59.459165 
L 148.65323 58.908279 
L 148.598393 58.357393 
L 148.556087 57.806508 
L 148.531317 57.255622 
L 148.528698 56.704736 
L 148.552079 56.15385 
L 148.604197 55.602964 
L 148.686393 55.052079 
L 148.798426 54.501193 
L 148.938421 53.950307 
L 149.102958 53.399421 
L 149.287304 52.848535 
L 149.485754 52.297649 
L 149.692053 51.746764 
L 149.899845 51.195878 
L 150.103102 50.644992 
L 150.296503 50.094106 
L 150.475708 49.54322 
L 150.637534 48.992335 
L 150.780012 48.441449 
L 150.902351 47.890563 
L 151.004808 47.339677 
L 151.088511 46.788791 
L 151.155246 46.237905 
L 151.207227 45.68702 
L 151.246896 45.136134 
L 151.276729 44.585248 
L 151.299088 44.034362 
L 151.31611 43.483476 
L 151.329627 42.932591 
L 151.341135 42.381705 
L 151.351777 41.830819 
L 151.362366 41.279933 
L 151.373416 40.729047 
L 151.385193 40.178161 
L 151.39776 39.627276 
L 151.411035 39.07639 
L 151.424838 38.525504 
L 151.438934 37.974618 
L 151.721711 37.974618 
L 151.721711 37.974618 
L 151.735807 38.525504 
L 151.74961 39.07639 
L 151.762885 39.627276 
L 151.775451 40.178161 
L 151.787228 40.729047 
L 151.798279 41.279933 
L 151.808868 41.830819 
L 151.81951 42.381705 
L 151.831017 42.932591 
L 151.844535 43.483476 
L 151.861556 44.034362 
L 151.883915 44.585248 
L 151.913748 45.136134 
L 151.953417 45.68702 
L 152.005399 46.237905 
L 152.072133 46.788791 
L 152.155837 47.339677 
L 152.258294 47.890563 
L 152.380632 48.441449 
L 152.523111 48.992335 
L 152.684936 49.54322 
L 152.864141 50.094106 
L 153.057542 50.644992 
L 153.2608 51.195878 
L 153.468591 51.746764 
L 153.67489 52.297649 
L 153.87334 52.848535 
L 154.057686 53.399421 
L 154.222223 53.950307 
L 154.362218 54.501193 
L 154.474251 55.052079 
L 154.556447 55.602964 
L 154.608565 56.15385 
L 154.631946 56.704736 
L 154.629327 57.255622 
L 154.604558 57.806508 
L 154.562251 58.357393 
L 154.507415 58.908279 
L 154.445107 59.459165 
L 154.380141 60.010051 
L 154.316859 60.560937 
L 154.258986 61.111822 
L 154.209552 61.662708 
L 154.170864 62.213594 
L 154.144529 62.76448 
L 154.131491 63.315366 
L 154.132074 63.866252 
L 154.146043 64.417137 
L 154.17265 64.968023 
L 154.2107 65.518909 
L 154.258618 66.069795 
L 154.314546 66.620681 
L 154.376455 67.171566 
L 154.442292 67.722452 
L 154.510143 68.273338 
L 154.578414 68.824224 
L 154.64601 69.37511 
L 154.712483 69.925996 
L 154.778138 70.476881 
L 154.844068 71.027767 
L 154.912089 71.578653 
L 154.984576 72.129539 
L 155.0642 72.680425 
L 155.153572 73.23131 
L 155.254837 73.782196 
L 155.369264 74.333082 
L 155.496876 74.883968 
L 155.636179 75.434854 
L 155.78405 75.98574 
L 155.935791 76.536625 
L 156.085372 77.087511 
L 156.225857 77.638397 
L 156.349942 78.189283 
L 156.45058 78.740169 
L 156.521596 79.291054 
L 156.558232 79.84194 
L 156.557557 80.392826 
L 156.51869 80.943712 
L 156.44283 81.494598 
L 156.33308 82.045484 
L 156.19411 82.596369 
L 156.0317 83.147255 
L 155.852217 83.698141 
L 155.662093 84.249027 
L 155.467354 84.799913 
L 155.273239 85.350798 
L 155.083931 85.901684 
L 154.902416 86.45257 
L 154.730455 87.003456 
L 154.568655 87.554342 
L 154.416619 88.105228 
L 154.273149 88.656113 
L 154.13648 89.206999 
L 154.00452 89.757885 
L 153.875096 90.308771 
L 153.74617 90.859657 
L 153.616033 91.410542 
L 153.483459 91.961428 
L 153.347805 92.512314 
z
" clip-path="url(#pf1e7cdbb89)" style="fill: #ff0000; fill-opacity: 0.3"/>
   </g>
   <g id="PolyCollection_7">
    <path d="M 165.272557 95.375447 
L 161.499737 95.375447 
L 161.305985 94.719584 
L 161.109706 94.06372 
L 160.912767 93.407857 
L 160.716923 92.751993 
L 160.523754 92.09613 
L 160.334625 91.440266 
L 160.150656 90.784403 
L 159.972727 90.128539 
L 159.801497 89.472675 
L 159.637447 88.816812 
L 159.480939 88.160948 
L 159.332283 87.505085 
L 159.191813 86.849221 
L 159.05995 86.193358 
L 158.937258 85.537494 
L 158.824486 84.881631 
L 158.722577 84.225767 
L 158.632657 83.569904 
L 158.555997 82.91404 
L 158.493945 82.258177 
L 158.447845 81.602313 
L 158.418933 80.94645 
L 158.408237 80.290586 
L 158.416475 79.634723 
L 158.443977 78.978859 
L 158.490615 78.322996 
L 158.555779 77.667132 
L 158.638378 77.011269 
L 158.736874 76.355405 
L 158.849356 75.699541 
L 158.973633 75.043678 
L 159.107348 74.387814 
L 159.2481 73.731951 
L 159.39356 73.076087 
L 159.541577 72.420224 
L 159.690264 71.76436 
L 159.838051 71.108497 
L 159.983714 70.452633 
L 160.12637 69.79677 
L 160.265449 69.140906 
L 160.400637 68.485043 
L 160.531817 67.829179 
L 160.658989 67.173316 
L 160.782204 66.517452 
L 160.901496 65.861589 
L 161.016832 65.205725 
L 161.128074 64.549862 
L 161.234961 63.893998 
L 161.3371 63.238135 
L 161.433976 62.582271 
L 161.524971 61.926408 
L 161.609382 61.270544 
L 161.686452 60.61468 
L 161.755395 59.958817 
L 161.815415 59.302953 
L 161.865734 58.64709 
L 161.905606 57.991226 
L 161.934342 57.335363 
L 161.951335 56.679499 
L 161.956084 56.023636 
L 161.948238 55.367772 
L 161.927635 54.711909 
L 161.894359 54.056045 
L 161.848793 53.400182 
L 161.791679 52.744318 
L 161.724163 52.088455 
L 161.647835 51.432591 
L 161.564739 50.776728 
L 161.47736 50.120864 
L 161.388574 49.465001 
L 161.301568 48.809137 
L 161.219719 48.153274 
L 161.146449 47.49741 
L 161.085055 46.841547 
L 161.038532 46.185683 
L 161.0094 45.529819 
L 160.99955 44.873956 
L 161.010122 44.218092 
L 161.041429 43.562229 
L 161.092927 42.906365 
L 161.163252 42.250502 
L 161.2503 41.594638 
L 161.35136 40.938775 
L 161.463287 40.282911 
L 161.582691 39.627048 
L 161.706144 38.971184 
L 161.830365 38.315321 
L 161.952397 37.659457 
L 162.069741 37.003594 
L 162.180445 36.34773 
L 162.283155 35.691867 
L 162.377113 35.036003 
L 162.462115 34.38014 
L 162.538437 33.724276 
L 162.606737 33.068413 
L 162.667936 32.412549 
L 162.723109 31.756685 
L 162.773373 31.100822 
L 162.819792 30.444958 
L 163.952501 30.444958 
L 163.952501 30.444958 
L 163.998921 31.100822 
L 164.049184 31.756685 
L 164.104357 32.412549 
L 164.165557 33.068413 
L 164.233856 33.724276 
L 164.310179 34.38014 
L 164.395181 35.036003 
L 164.489139 35.691867 
L 164.591849 36.34773 
L 164.702553 37.003594 
L 164.819896 37.659457 
L 164.941929 38.315321 
L 165.06615 38.971184 
L 165.189602 39.627048 
L 165.309007 40.282911 
L 165.420933 40.938775 
L 165.521993 41.594638 
L 165.609041 42.250502 
L 165.679366 42.906365 
L 165.730864 43.562229 
L 165.762171 44.218092 
L 165.772743 44.873956 
L 165.762894 45.529819 
L 165.733761 46.185683 
L 165.687238 46.841547 
L 165.625844 47.49741 
L 165.552574 48.153274 
L 165.470726 48.809137 
L 165.38372 49.465001 
L 165.294934 50.120864 
L 165.207554 50.776728 
L 165.124458 51.432591 
L 165.04813 52.088455 
L 164.980615 52.744318 
L 164.9235 53.400182 
L 164.877935 54.056045 
L 164.844658 54.711909 
L 164.824055 55.367772 
L 164.816209 56.023636 
L 164.820958 56.679499 
L 164.837951 57.335363 
L 164.866688 57.991226 
L 164.90656 58.64709 
L 164.956878 59.302953 
L 165.016898 59.958817 
L 165.085841 60.61468 
L 165.162912 61.270544 
L 165.247323 61.926408 
L 165.338317 62.582271 
L 165.435193 63.238135 
L 165.537332 63.893998 
L 165.644219 64.549862 
L 165.755462 65.205725 
L 165.870798 65.861589 
L 165.99009 66.517452 
L 166.113304 67.173316 
L 166.240477 67.829179 
L 166.371656 68.485043 
L 166.506845 69.140906 
L 166.645923 69.79677 
L 166.78858 70.452633 
L 166.934242 71.108497 
L 167.082029 71.76436 
L 167.230716 72.420224 
L 167.378733 73.076087 
L 167.524193 73.731951 
L 167.664945 74.387814 
L 167.798661 75.043678 
L 167.922938 75.699541 
L 168.03542 76.355405 
L 168.133916 77.011269 
L 168.216514 77.667132 
L 168.281679 78.322996 
L 168.328317 78.978859 
L 168.355818 79.634723 
L 168.364057 80.290586 
L 168.35336 80.94645 
L 168.324448 81.602313 
L 168.278348 82.258177 
L 168.216297 82.91404 
L 168.139637 83.569904 
L 168.049717 84.225767 
L 167.947807 84.881631 
L 167.835035 85.537494 
L 167.712343 86.193358 
L 167.58048 86.849221 
L 167.44001 87.505085 
L 167.291355 88.160948 
L 167.134847 88.816812 
L 166.970796 89.472675 
L 166.799566 90.128539 
L 166.621637 90.784403 
L 166.437668 91.440266 
L 166.248539 92.09613 
L 166.055371 92.751993 
L 165.859526 93.407857 
L 165.662587 94.06372 
L 165.466308 94.719584 
L 165.272557 95.375447 
z
" clip-path="url(#pf1e7cdbb89)" style="fill: #ff0000; fill-opacity: 0.3"/>
   </g>
   <g id="PolyCollection_8">
    <path d="M 182.289439 97.928289 
L 177.761605 97.928289 
L 177.445124 97.158229 
L 177.124466 96.388168 
L 176.807212 95.618108 
L 176.501091 94.848047 
L 176.213487 94.077987 
L 175.950962 93.307926 
L 175.718834 92.537866 
L 175.520861 91.767805 
L 175.359056 90.997745 
L 175.233654 90.227684 
L 175.143213 89.457623 
L 175.084851 88.687563 
L 175.054565 87.917502 
L 175.047612 87.147442 
L 175.058897 86.377381 
L 175.083353 85.607321 
L 175.116264 84.83726 
L 175.153533 84.0672 
L 175.191882 83.297139 
L 175.228976 82.527079 
L 175.263489 81.757018 
L 175.295101 80.986957 
L 175.32445 80.216897 
L 175.353021 79.446836 
L 175.382994 78.676776 
L 175.417043 77.906715 
L 175.458104 77.136655 
L 175.509112 76.366594 
L 175.572733 75.596534 
L 175.651109 74.826473 
L 175.74564 74.056413 
L 175.856823 73.286352 
L 175.984163 72.516292 
L 176.126179 71.746231 
L 176.28049 70.97617 
L 176.443986 70.20611 
L 176.61306 69.436049 
L 176.783877 68.665989 
L 176.952654 67.895928 
L 177.115909 67.125868 
L 177.270667 66.355807 
L 177.41459 65.585747 
L 177.546027 64.815686 
L 177.663971 64.045626 
L 177.767955 63.275565 
L 177.857886 62.505504 
L 177.93386 61.735444 
L 177.995985 60.965383 
L 178.044255 60.195323 
L 178.078482 59.425262 
L 178.098325 58.655202 
L 178.103412 57.885141 
L 178.09353 57.115081 
L 178.068875 56.34502 
L 178.030316 55.57496 
L 177.979617 54.804899 
L 177.919589 54.034839 
L 177.854115 53.264778 
L 177.788045 52.494717 
L 177.726934 51.724657 
L 177.676669 50.954596 
L 177.642995 50.184536 
L 177.631012 49.414475 
L 177.644708 48.644415 
L 177.686568 47.874354 
L 177.757329 47.104294 
L 177.855907 46.334233 
L 177.979495 45.564173 
L 178.123828 44.794112 
L 178.283582 44.024052 
L 178.452834 43.253991 
L 178.62556 42.48393 
L 178.796081 41.71387 
L 178.959442 40.943809 
L 179.111664 40.173749 
L 179.249881 39.403688 
L 179.372348 38.633628 
L 179.478349 37.863567 
L 179.568024 37.093507 
L 179.642159 36.323446 
L 179.701955 35.553386 
L 179.748831 34.783325 
L 179.784246 34.013264 
L 179.809584 33.243204 
L 179.826087 32.473143 
L 179.834842 31.703083 
L 179.836798 30.933022 
L 179.832824 30.162962 
L 179.823764 29.392901 
L 179.810502 28.622841 
L 179.794006 27.85278 
L 179.77535 27.08272 
L 179.755715 26.312659 
L 179.736351 25.542599 
L 179.718529 24.772538 
L 179.703462 24.002477 
L 179.692229 23.232417 
L 179.685697 22.462356 
L 179.684454 21.692296 
L 180.366589 21.692296 
L 180.366589 21.692296 
L 180.365347 22.462356 
L 180.358814 23.232417 
L 180.347581 24.002477 
L 180.332515 24.772538 
L 180.314692 25.542599 
L 180.295329 26.312659 
L 180.275694 27.08272 
L 180.257038 27.85278 
L 180.240541 28.622841 
L 180.227279 29.392901 
L 180.21822 30.162962 
L 180.214245 30.933022 
L 180.216202 31.703083 
L 180.224956 32.473143 
L 180.24146 33.243204 
L 180.266798 34.013264 
L 180.302213 34.783325 
L 180.349088 35.553386 
L 180.408885 36.323446 
L 180.483019 37.093507 
L 180.572695 37.863567 
L 180.678696 38.633628 
L 180.801163 39.403688 
L 180.93938 40.173749 
L 181.091602 40.943809 
L 181.254963 41.71387 
L 181.425484 42.48393 
L 181.59821 43.253991 
L 181.767462 44.024052 
L 181.927215 44.794112 
L 182.071549 45.564173 
L 182.195137 46.334233 
L 182.293715 47.104294 
L 182.364476 47.874354 
L 182.406336 48.644415 
L 182.420031 49.414475 
L 182.408049 50.184536 
L 182.374374 50.954596 
L 182.324109 51.724657 
L 182.262999 52.494717 
L 182.196928 53.264778 
L 182.131455 54.034839 
L 182.071427 54.804899 
L 182.020728 55.57496 
L 181.982169 56.34502 
L 181.957514 57.115081 
L 181.947631 57.885141 
L 181.952718 58.655202 
L 181.972562 59.425262 
L 182.006789 60.195323 
L 182.055058 60.965383 
L 182.117184 61.735444 
L 182.193158 62.505504 
L 182.283088 63.275565 
L 182.387073 64.045626 
L 182.505017 64.815686 
L 182.636453 65.585747 
L 182.780377 66.355807 
L 182.935135 67.125868 
L 183.09839 67.895928 
L 183.267167 68.665989 
L 183.437984 69.436049 
L 183.607058 70.20611 
L 183.770554 70.97617 
L 183.924864 71.746231 
L 184.06688 72.516292 
L 184.194221 73.286352 
L 184.305404 74.056413 
L 184.399935 74.826473 
L 184.478311 75.596534 
L 184.541931 76.366594 
L 184.592939 77.136655 
L 184.634001 77.906715 
L 184.66805 78.676776 
L 184.698023 79.446836 
L 184.726594 80.216897 
L 184.755942 80.986957 
L 184.787555 81.757018 
L 184.822067 82.527079 
L 184.859162 83.297139 
L 184.897511 84.0672 
L 184.93478 84.83726 
L 184.967691 85.607321 
L 184.992146 86.377381 
L 185.003432 87.147442 
L 184.996478 87.917502 
L 184.966193 88.687563 
L 184.907831 89.457623 
L 184.81739 90.227684 
L 184.691988 90.997745 
L 184.530183 91.767805 
L 184.33221 92.537866 
L 184.100082 93.307926 
L 183.837557 94.077987 
L 183.549953 94.848047 
L 183.243832 95.618108 
L 182.926578 96.388168 
L 182.60592 97.158229 
L 182.289439 97.928289 
z
" clip-path="url(#pf1e7cdbb89)" style="fill: #ff0000; fill-opacity: 0.3"/>
   </g>
   <g id="PolyCollection_9">
    <path d="M 194.238055 98.005909 
L 189.424638 98.005909 
L 189.000846 97.132355 
L 188.575359 96.258802 
L 188.165927 95.385248 
L 187.790462 94.511694 
L 187.465277 93.63814 
L 187.20339 92.764587 
L 187.013157 91.891033 
L 186.897441 91.017479 
L 186.853436 90.143926 
L 186.87319 89.270372 
L 186.944704 88.396818 
L 187.053464 87.523264 
L 187.184147 86.649711 
L 187.32227 85.776157 
L 187.455578 84.902603 
L 187.574997 84.02905 
L 187.67511 83.155496 
L 187.754136 82.281942 
L 187.813506 81.408388 
L 187.857143 80.534835 
L 187.890584 79.661281 
L 187.920109 78.787727 
L 187.951963 77.914174 
L 187.99177 77.04062 
L 188.044157 76.167066 
L 188.112573 75.293512 
L 188.199227 74.419959 
L 188.305086 73.546405 
L 188.42985 72.672851 
L 188.57188 71.799298 
L 188.72807 70.925744 
L 188.893733 70.05219 
L 189.062579 69.178636 
L 189.226858 68.305083 
L 189.377757 67.431529 
L 189.506037 66.557975 
L 189.6029 65.684421 
L 189.660984 64.810868 
L 189.675361 63.937314 
L 189.644415 63.06376 
L 189.570446 62.190207 
L 189.459897 61.316653 
L 189.323137 60.443099 
L 189.173769 59.569545 
L 189.027502 58.695992 
L 188.900694 57.822438 
L 188.808714 56.948884 
L 188.764339 56.075331 
L 188.776392 55.201777 
L 188.848838 54.328223 
L 188.980457 53.454669 
L 189.165153 52.581116 
L 189.392836 51.707562 
L 189.650732 50.834008 
L 189.924894 49.960455 
L 190.201693 49.086901 
L 190.469074 48.213347 
L 190.717439 47.339793 
L 190.940096 46.46624 
L 191.133287 45.592686 
L 191.295895 44.719132 
L 191.42892 43.845579 
L 191.534864 42.972025 
L 191.617131 42.098471 
L 191.679495 41.224917 
L 191.725701 40.351364 
L 191.759195 39.47781 
L 191.782968 38.604256 
L 191.799498 37.730702 
L 191.810765 36.857149 
L 191.818293 35.983595 
L 191.823224 35.110041 
L 191.826388 34.236488 
L 191.828374 33.362934 
L 191.82959 32.48938 
L 191.830307 31.615826 
L 191.8307 30.742273 
L 191.830871 29.868719 
L 191.830871 28.995165 
L 191.830707 28.121612 
L 191.830347 27.248058 
L 191.829724 26.374504 
L 191.828733 25.50095 
L 191.827233 24.627397 
L 191.825046 23.753843 
L 191.821972 22.880289 
L 191.817801 22.006736 
L 191.812341 21.133182 
L 191.805453 20.259628 
L 191.797092 19.386074 
L 191.787347 18.512521 
L 191.77647 17.638967 
L 191.764891 16.765413 
L 191.753204 15.89186 
L 191.742129 15.018306 
L 191.732441 14.144752 
L 191.724883 13.271198 
L 191.720074 12.397645 
L 191.718423 11.524091 
L 191.94427 11.524091 
L 191.94427 11.524091 
L 191.942619 12.397645 
L 191.93781 13.271198 
L 191.930252 14.144752 
L 191.920564 15.018306 
L 191.909489 15.89186 
L 191.897802 16.765413 
L 191.886223 17.638967 
L 191.875346 18.512521 
L 191.865601 19.386074 
L 191.85724 20.259628 
L 191.850352 21.133182 
L 191.844892 22.006736 
L 191.84072 22.880289 
L 191.837646 23.753843 
L 191.83546 24.627397 
L 191.833959 25.50095 
L 191.832969 26.374504 
L 191.832346 27.248058 
L 191.831986 28.121612 
L 191.831821 28.995165 
L 191.831821 29.868719 
L 191.831993 30.742273 
L 191.832386 31.615826 
L 191.833103 32.48938 
L 191.834318 33.362934 
L 191.836305 34.236488 
L 191.839469 35.110041 
L 191.844399 35.983595 
L 191.851928 36.857149 
L 191.863194 37.730702 
L 191.879725 38.604256 
L 191.903497 39.47781 
L 191.936991 40.351364 
L 191.983198 41.224917 
L 192.045562 42.098471 
L 192.127828 42.972025 
L 192.233773 43.845579 
L 192.366797 44.719132 
L 192.529405 45.592686 
L 192.722597 46.46624 
L 192.945253 47.339793 
L 193.193619 48.213347 
L 193.461 49.086901 
L 193.737799 49.960455 
L 194.011961 50.834008 
L 194.269857 51.707562 
L 194.49754 52.581116 
L 194.682235 53.454669 
L 194.813854 54.328223 
L 194.886301 55.201777 
L 194.898354 56.075331 
L 194.853978 56.948884 
L 194.761999 57.822438 
L 194.635191 58.695992 
L 194.488924 59.569545 
L 194.339556 60.443099 
L 194.202796 61.316653 
L 194.092247 62.190207 
L 194.018277 63.06376 
L 193.987332 63.937314 
L 194.001709 64.810868 
L 194.059792 65.684421 
L 194.156656 66.557975 
L 194.284936 67.431529 
L 194.435835 68.305083 
L 194.600114 69.178636 
L 194.768959 70.05219 
L 194.934623 70.925744 
L 195.090812 71.799298 
L 195.232842 72.672851 
L 195.357607 73.546405 
L 195.463466 74.419959 
L 195.55012 75.293512 
L 195.618535 76.167066 
L 195.670923 77.04062 
L 195.71073 77.914174 
L 195.742583 78.787727 
L 195.772109 79.661281 
L 195.80555 80.534835 
L 195.849186 81.408388 
L 195.908557 82.281942 
L 195.987583 83.155496 
L 196.087695 84.02905 
L 196.207115 84.902603 
L 196.340422 85.776157 
L 196.478546 86.649711 
L 196.609228 87.523264 
L 196.717988 88.396818 
L 196.789503 89.270372 
L 196.809256 90.143926 
L 196.765252 91.017479 
L 196.649535 91.891033 
L 196.459303 92.764587 
L 196.197416 93.63814 
L 195.872231 94.511694 
L 195.496766 95.385248 
L 195.087333 96.258802 
L 194.661847 97.132355 
L 194.238055 98.005909 
z
" clip-path="url(#pf1e7cdbb89)" style="fill: #ff0000; fill-opacity: 0.3"/>
   </g>
   <g id="matplotlib.axis_1">
    <g id="xtick_1">
     <g id="line2d_1">
      <defs>
       <path id="mf2e16629e9" d="M 0 0 
L 0 3.5 
" style="stroke: #000000; stroke-width: 0.8"/>
      </defs>
      <g>
       <use xlink:href="#mf2e16629e9" x="49.605348" y="102.33" style="stroke: #000000; stroke-width: 0.8"/>
      </g>
     </g>
     <g id="text_1">
      <!-- $\mathrm{1}$ -->
      <g transform="translate(47.11468 116.248498)scale(0.1 -0.1)">
       <defs>
        <path id="CMR17-31" d="M 1702 4083 
C 1702 4217 1696 4224 1606 4224 
C 1357 3927 979 3833 621 3820 
C 602 3820 570 3820 563 3808 
C 557 3795 557 3782 557 3648 
C 755 3648 1088 3686 1344 3839 
L 1344 467 
C 1344 243 1331 166 781 166 
L 589 166 
L 589 0 
C 896 6 1216 12 1523 12 
C 1830 12 2150 6 2458 0 
L 2458 166 
L 2266 166 
C 1715 166 1702 236 1702 467 
L 1702 4083 
z
" transform="scale(0.015625)"/>
       </defs>
       <use xlink:href="#CMR17-31" transform="scale(0.996264)"/>
      </g>
     </g>
    </g>
    <g id="xtick_2">
     <g id="line2d_2">
      <g>
       <use xlink:href="#mf2e16629e9" x="78.050548" y="102.33" style="stroke: #000000; stroke-width: 0.8"/>
      </g>
     </g>
     <g id="text_2">
      <!-- $\mathrm{2}$ -->
      <g transform="translate(75.55988 116.248498)scale(0.1 -0.1)">
       <defs>
        <path id="CMR17-32" d="M 2669 990 
L 2554 990 
C 2490 537 2438 460 2413 422 
C 2381 371 1920 371 1830 371 
L 602 371 
C 832 620 1280 1073 1824 1596 
C 2214 1966 2669 2400 2669 3033 
C 2669 3788 2067 4224 1395 4224 
C 691 4224 262 3603 262 3027 
C 262 2777 448 2745 525 2745 
C 589 2745 781 2783 781 3007 
C 781 3206 614 3264 525 3264 
C 486 3264 448 3257 422 3244 
C 544 3788 915 4057 1306 4057 
C 1862 4057 2227 3616 2227 3033 
C 2227 2477 1901 1998 1536 1583 
L 262 147 
L 262 0 
L 2515 0 
L 2669 990 
z
" transform="scale(0.015625)"/>
       </defs>
       <use xlink:href="#CMR17-32" transform="scale(0.996264)"/>
      </g>
     </g>
    </g>
    <g id="xtick_3">
     <g id="line2d_3">
      <g>
       <use xlink:href="#mf2e16629e9" x="106.495747" y="102.33" style="stroke: #000000; stroke-width: 0.8"/>
      </g>
     </g>
     <g id="text_3">
      <!-- $\mathrm{4}$ -->
      <g transform="translate(104.00508 116.248498)scale(0.1 -0.1)">
       <defs>
        <path id="CMR17-34" d="M 2150 4147 
C 2150 4281 2144 4288 2029 4288 
L 128 1254 
L 128 1088 
L 1779 1088 
L 1779 460 
C 1779 230 1766 166 1318 166 
L 1197 166 
L 1197 0 
C 1402 12 1747 12 1965 12 
C 2182 12 2528 12 2733 0 
L 2733 166 
L 2611 166 
C 2163 166 2150 230 2150 460 
L 2150 1088 
L 2803 1088 
L 2803 1254 
L 2150 1254 
L 2150 4147 
z
M 1798 3723 
L 1798 1254 
L 256 1254 
L 1798 3723 
z
" transform="scale(0.015625)"/>
       </defs>
       <use xlink:href="#CMR17-34" transform="scale(0.996264)"/>
      </g>
     </g>
    </g>
    <g id="xtick_4">
     <g id="line2d_4">
      <g>
       <use xlink:href="#mf2e16629e9" x="123.135123" y="102.33" style="stroke: #000000; stroke-width: 0.8"/>
      </g>
     </g>
     <g id="text_4">
      <!-- $\mathrm{}$ -->
      <g transform="translate(123.135123 116.248498)scale(0.1 -0.1)"/>
     </g>
    </g>
    <g id="xtick_5">
     <g id="line2d_5">
      <g>
       <use xlink:href="#mf2e16629e9" x="134.940947" y="102.33" style="stroke: #000000; stroke-width: 0.8"/>
      </g>
     </g>
     <g id="text_5">
      <!-- $\mathrm{8}$ -->
      <g transform="translate(132.450279 116.248498)scale(0.1 -0.1)">
       <defs>
        <path id="CMR17-38" d="M 1741 2289 
C 2144 2494 2554 2803 2554 3298 
C 2554 3884 1990 4224 1472 4224 
C 890 4224 378 3800 378 3215 
C 378 3054 416 2777 666 2533 
C 730 2469 998 2276 1171 2154 
C 883 2006 211 1652 211 945 
C 211 282 838 -128 1459 -128 
C 2144 -128 2720 366 2720 1022 
C 2720 1607 2330 1877 2074 2051 
L 1741 2289 
z
M 902 2855 
C 851 2887 595 3086 595 3388 
C 595 3781 998 4076 1459 4076 
C 1965 4076 2336 3716 2336 3298 
C 2336 2700 1670 2359 1638 2359 
C 1632 2359 1626 2359 1574 2398 
L 902 2855 
z
M 2080 1536 
C 2176 1466 2483 1253 2483 861 
C 2483 385 2010 25 1472 25 
C 890 25 448 443 448 951 
C 448 1459 838 1884 1280 2083 
L 2080 1536 
z
" transform="scale(0.015625)"/>
       </defs>
       <use xlink:href="#CMR17-38" transform="scale(0.996264)"/>
      </g>
     </g>
    </g>
    <g id="xtick_6">
     <g id="line2d_6">
      <g>
       <use xlink:href="#mf2e16629e9" x="151.580322" y="102.33" style="stroke: #000000; stroke-width: 0.8"/>
      </g>
     </g>
     <g id="text_6">
      <!-- $\mathrm{}$ -->
      <g transform="translate(151.580322 116.248498)scale(0.1 -0.1)"/>
     </g>
    </g>
    <g id="xtick_7">
     <g id="line2d_7">
      <g>
       <use xlink:href="#mf2e16629e9" x="163.386147" y="102.33" style="stroke: #000000; stroke-width: 0.8"/>
      </g>
     </g>
     <g id="text_7">
      <!-- $\mathrm{16}$ -->
      <g transform="translate(158.404811 116.248498)scale(0.1 -0.1)">
       <defs>
        <path id="CMR17-36" d="M 678 2198 
C 678 3712 1395 4076 1811 4076 
C 1946 4076 2272 4049 2400 3782 
C 2298 3782 2106 3782 2106 3558 
C 2106 3385 2246 3328 2336 3328 
C 2394 3328 2566 3353 2566 3571 
C 2566 3987 2246 4224 1805 4224 
C 1043 4224 243 3411 243 2011 
C 243 257 966 -128 1478 -128 
C 2099 -128 2688 431 2688 1295 
C 2688 2101 2170 2688 1517 2688 
C 1126 2688 838 2430 678 1979 
L 678 2198 
z
M 1478 25 
C 691 25 691 1212 691 1450 
C 691 1914 909 2585 1504 2585 
C 1613 2585 1926 2585 2138 2140 
C 2253 1889 2253 1624 2253 1302 
C 2253 954 2253 696 2118 438 
C 1978 173 1773 25 1478 25 
z
" transform="scale(0.015625)"/>
       </defs>
       <use xlink:href="#CMR17-31" transform="scale(0.996264)"/>
       <use xlink:href="#CMR17-36" transform="translate(45.690477 0)scale(0.996264)"/>
      </g>
     </g>
    </g>
    <g id="xtick_8">
     <g id="line2d_8">
      <g>
       <use xlink:href="#mf2e16629e9" x="180.025522" y="102.33" style="stroke: #000000; stroke-width: 0.8"/>
      </g>
     </g>
     <g id="text_8">
      <!-- $\mathrm{}$ -->
      <g transform="translate(180.025522 116.248498)scale(0.1 -0.1)"/>
     </g>
    </g>
    <g id="xtick_9">
     <g id="line2d_9">
      <g>
       <use xlink:href="#mf2e16629e9" x="191.831346" y="102.33" style="stroke: #000000; stroke-width: 0.8"/>
      </g>
     </g>
     <g id="text_9">
      <!-- $\mathrm{32}$ -->
      <g transform="translate(186.850011 116.248498)scale(0.1 -0.1)">
       <defs>
        <path id="CMR17-33" d="M 1414 2176 
C 1984 2176 2234 1673 2234 1094 
C 2234 322 1824 25 1453 25 
C 1114 25 563 193 390 691 
C 422 678 454 678 486 678 
C 640 678 755 780 755 947 
C 755 1132 614 1216 486 1216 
C 378 1216 211 1164 211 927 
C 211 335 787 -128 1466 -128 
C 2176 -128 2720 432 2720 1087 
C 2720 1718 2208 2176 1600 2246 
C 2086 2347 2554 2776 2554 3353 
C 2554 3856 2048 4224 1472 4224 
C 890 4224 378 3862 378 3347 
C 378 3123 544 3084 627 3084 
C 762 3084 877 3167 877 3334 
C 877 3500 762 3584 627 3584 
C 602 3584 570 3584 544 3571 
C 730 3999 1235 4076 1459 4076 
C 1683 4076 2106 3966 2106 3347 
C 2106 3167 2080 2851 1862 2574 
C 1670 2329 1453 2316 1242 2297 
C 1210 2297 1062 2284 1037 2284 
C 992 2278 966 2272 966 2227 
C 966 2182 973 2176 1101 2176 
L 1414 2176 
z
" transform="scale(0.015625)"/>
       </defs>
       <use xlink:href="#CMR17-33" transform="scale(0.996264)"/>
       <use xlink:href="#CMR17-32" transform="translate(45.690477 0)scale(0.996264)"/>
      </g>
     </g>
    </g>
    <g id="text_10">
     <!-- $\mathrm{Number\: of\: threads}$ -->
     <g transform="translate(80.424966 129.104175)scale(0.1 -0.1)">
      <defs>
       <path id="CMR17-4e" d="M 1312 4275 
C 1267 4345 1261 4352 1139 4352 
L 326 4352 
L 326 4185 
L 448 4185 
C 704 4185 819 4153 838 4147 
L 838 624 
C 838 465 838 166 326 166 
L 326 0 
C 474 12 742 12 902 12 
C 1062 12 1331 12 1478 0 
L 1478 166 
C 966 166 966 465 966 624 
L 966 4057 
C 1011 4019 1011 4007 1056 3943 
L 3430 76 
C 3475 0 3494 0 3526 0 
C 3590 0 3590 19 3590 140 
L 3590 3726 
C 3590 3885 3590 4185 4102 4185 
L 4102 4352 
C 3955 4339 3686 4339 3526 4339 
C 3366 4339 3098 4339 2950 4352 
L 2950 4185 
C 3462 4185 3462 3885 3462 3726 
L 3462 777 
L 1312 4275 
z
" transform="scale(0.015625)"/>
       <path id="CMR17-75" d="M 1882 2745 
L 1882 2579 
C 2259 2579 2317 2540 2317 2229 
L 2317 1053 
C 2317 510 2029 38 1555 38 
C 1030 38 986 355 986 691 
L 986 2816 
L 211 2745 
L 211 2579 
C 467 2579 640 2579 646 2320 
L 646 1079 
C 646 646 646 368 813 187 
C 896 103 1056 -64 1517 -64 
C 2061 -64 2272 400 2323 536 
L 2330 536 
L 2330 -64 
L 3091 -13 
L 3091 154 
C 2714 154 2656 193 2656 503 
L 2656 2816 
L 1882 2745 
z
" transform="scale(0.015625)"/>
       <path id="CMR17-6d" d="M 4326 1954 
C 4326 2276 4269 2816 3507 2816 
C 3072 2816 2771 2520 2656 2173 
L 2650 2173 
C 2573 2700 2195 2816 1837 2816 
C 1331 2816 1069 2424 973 2166 
L 966 2166 
L 966 2816 
L 211 2745 
L 211 2578 
C 589 2578 646 2540 646 2231 
L 646 443 
C 646 198 621 166 211 166 
L 211 0 
C 365 12 646 12 813 12 
C 979 12 1267 12 1421 0 
L 1421 166 
C 1011 166 986 192 986 443 
L 986 1678 
C 986 2269 1344 2713 1792 2713 
C 2266 2713 2317 2289 2317 1980 
L 2317 443 
C 2317 198 2291 166 1882 166 
L 1882 0 
C 2035 12 2317 12 2483 12 
C 2650 12 2938 12 3091 0 
L 3091 166 
C 2682 166 2656 192 2656 443 
L 2656 1678 
C 2656 2269 3014 2713 3462 2713 
C 3936 2713 3987 2289 3987 1980 
L 3987 443 
C 3987 198 3962 166 3552 166 
L 3552 0 
C 3706 12 3987 12 4154 12 
C 4320 12 4608 12 4762 0 
L 4762 166 
C 4352 166 4326 192 4326 443 
L 4326 1954 
z
" transform="scale(0.015625)"/>
       <path id="CMR17-62" d="M 960 4416 
L 198 4345 
L 198 4179 
C 576 4179 634 4141 634 3843 
L 634 -13 
L 749 -13 
L 934 445 
C 1120 141 1395 -64 1766 -64 
C 2406 -64 3053 503 3053 1382 
C 3053 2209 2477 2816 1830 2816 
C 1434 2816 1152 2603 960 2351 
L 960 4416 
z
M 973 2022 
C 973 2138 973 2157 1062 2293 
C 1312 2681 1670 2713 1792 2713 
C 1984 2713 2643 2610 2643 1388 
C 2643 109 1888 38 1734 38 
C 1536 38 1248 115 1043 490 
C 973 613 973 626 973 742 
L 973 2022 
z
" transform="scale(0.015625)"/>
       <path id="CMR17-65" d="M 2438 1503 
C 2464 1529 2464 1542 2464 1606 
C 2464 2251 2118 2816 1389 2816 
C 710 2816 173 2175 173 1394 
C 173 554 781 -64 1459 -64 
C 2176 -64 2458 619 2458 755 
C 2458 800 2419 800 2406 800 
C 2362 800 2355 787 2330 709 
C 2189 270 1837 51 1504 51 
C 1229 51 954 206 781 490 
C 582 819 582 1200 582 1503 
L 2438 1503 
z
M 589 1600 
C 634 2511 1126 2713 1382 2713 
C 1818 2713 2112 2308 2118 1600 
L 589 1600 
z
" transform="scale(0.015625)"/>
       <path id="CMR17-72" d="M 960 1517 
C 960 2134 1222 2713 1702 2713 
C 1747 2713 1792 2707 1837 2687 
C 1837 2687 1696 2642 1696 2475 
C 1696 2321 1818 2257 1914 2257 
C 1990 2257 2131 2302 2131 2482 
C 2131 2687 1926 2816 1709 2816 
C 1222 2816 1011 2340 947 2115 
L 941 2115 
L 941 2816 
L 198 2745 
L 198 2578 
C 576 2578 634 2540 634 2231 
L 634 443 
C 634 198 608 166 198 166 
L 198 0 
C 352 12 646 12 813 12 
C 998 12 1325 12 1498 0 
L 1498 166 
C 1037 166 960 166 960 455 
L 960 1517 
z
" transform="scale(0.015625)"/>
       <path id="CMR17-6f" d="M 2758 1356 
C 2758 2176 2163 2816 1466 2816 
C 768 2816 173 2176 173 1356 
C 173 550 768 -64 1466 -64 
C 2163 -64 2758 550 2758 1356 
z
M 1466 51 
C 1165 51 909 230 762 480 
C 602 768 582 1126 582 1408 
C 582 1676 595 2009 762 2297 
C 890 2508 1139 2713 1466 2713 
C 1754 2713 1997 2553 2150 2329 
C 2349 2028 2349 1606 2349 1408 
C 2349 1158 2336 774 2163 467 
C 1984 172 1709 51 1466 51 
z
" transform="scale(0.015625)"/>
       <path id="CMR17-66" d="M 979 2585 
L 1709 2585 
L 1709 2752 
L 966 2752 
L 966 3539 
C 966 4076 1235 4377 1510 4377 
C 1594 4377 1690 4363 1754 4339 
C 1702 4326 1568 4281 1568 4121 
C 1568 3955 1696 3904 1786 3904 
C 1875 3904 2003 3955 2003 4121 
C 2003 4353 1773 4480 1517 4480 
C 1152 4480 653 4211 653 3526 
L 653 2752 
L 141 2752 
L 141 2585 
L 653 2585 
L 653 441 
C 653 198 627 166 218 166 
L 218 0 
C 371 12 666 12 832 12 
C 1018 12 1344 12 1517 0 
L 1517 166 
C 1056 166 979 166 979 454 
L 979 2585 
z
" transform="scale(0.015625)"/>
       <path id="CMR17-74" d="M 966 2585 
L 1862 2585 
L 1862 2752 
L 966 2752 
L 966 3968 
L 851 3968 
C 838 3292 614 2700 70 2687 
L 70 2585 
L 627 2585 
L 627 778 
C 627 655 627 -64 1370 -64 
C 1747 -64 1965 308 1965 784 
L 1965 1151 
L 1850 1151 
L 1850 790 
C 1850 347 1677 51 1408 51 
C 1222 51 966 179 966 765 
L 966 2585 
z
" transform="scale(0.015625)"/>
       <path id="CMR17-68" d="M 2656 1954 
C 2656 2282 2592 2816 1837 2816 
C 1312 2816 1056 2392 979 2179 
L 973 2179 
L 973 4416 
L 211 4345 
L 211 4179 
C 589 4179 646 4141 646 3843 
L 646 443 
C 646 198 621 166 211 166 
L 211 0 
C 365 12 646 12 813 12 
C 979 12 1267 12 1421 0 
L 1421 166 
C 1011 166 986 192 986 443 
L 986 1678 
C 986 2269 1344 2713 1792 2713 
C 2266 2713 2317 2289 2317 1980 
L 2317 443 
C 2317 198 2291 166 1882 166 
L 1882 0 
C 2035 12 2317 12 2483 12 
C 2650 12 2938 12 3091 0 
L 3091 166 
C 2682 166 2656 192 2656 443 
L 2656 1954 
z
" transform="scale(0.015625)"/>
       <path id="CMR17-61" d="M 2304 1656 
C 2304 2048 2304 2275 2035 2534 
C 1798 2751 1523 2816 1306 2816 
C 800 2816 435 2408 435 1977 
C 435 1740 627 1728 666 1728 
C 749 1728 896 1779 896 1958 
C 896 2118 774 2188 666 2188 
C 640 2188 608 2182 589 2176 
C 723 2594 1069 2713 1293 2713 
C 1613 2713 1965 2421 1965 1875 
L 1965 1632 
C 1587 1619 1133 1568 774 1373 
C 371 1147 256 822 256 576 
C 256 77 832 -64 1171 -64 
C 1523 -64 1850 135 1990 505 
C 2003 219 2182 -39 2464 -39 
C 2598 -39 2938 51 2938 563 
L 2938 926 
L 2822 926 
L 2822 557 
C 2822 161 2650 109 2566 109 
C 2304 109 2304 446 2304 732 
L 2304 1656 
z
M 1965 887 
C 1965 323 1568 38 1216 38 
C 896 38 646 278 646 576 
C 646 771 730 1114 1101 1322 
C 1408 1497 1760 1523 1965 1536 
L 1965 887 
z
" transform="scale(0.015625)"/>
       <path id="CMR17-64" d="M 1869 4345 
L 1869 4179 
C 2246 4179 2304 4141 2304 3843 
L 2304 2371 
C 2278 2403 2016 2816 1498 2816 
C 845 2816 211 2228 211 1376 
C 211 529 806 -64 1434 -64 
C 1978 -64 2259 361 2291 406 
L 2291 -64 
L 3066 -13 
L 3066 154 
C 2688 154 2630 193 2630 503 
L 2630 4416 
L 1869 4345 
z
M 2291 762 
C 2291 568 2176 393 2029 264 
C 1811 70 1594 38 1472 38 
C 1286 38 621 135 621 1369 
C 621 2636 1363 2713 1530 2713 
C 1824 2713 2061 2545 2208 2313 
C 2291 2177 2291 2157 2291 2041 
L 2291 762 
z
" transform="scale(0.015625)"/>
       <path id="CMR17-73" d="M 1978 2688 
C 1978 2803 1971 2809 1933 2809 
C 1907 2809 1901 2803 1824 2707 
C 1805 2681 1747 2617 1728 2592 
C 1523 2809 1235 2816 1126 2816 
C 416 2816 160 2444 160 2073 
C 160 1497 813 1363 998 1324 
C 1402 1241 1542 1216 1677 1100 
C 1760 1024 1901 883 1901 652 
C 1901 384 1747 38 1158 38 
C 602 38 403 460 288 1024 
C 269 1113 269 1120 218 1120 
C 166 1120 160 1113 160 985 
L 160 64 
C 160 -52 166 -58 205 -58 
C 237 -58 243 -52 275 0 
C 314 57 410 211 448 275 
C 576 102 800 -64 1158 -64 
C 1792 -64 2131 281 2131 780 
C 2131 1107 1958 1280 1875 1356 
C 1683 1555 1459 1600 1190 1651 
C 838 1728 390 1817 390 2208 
C 390 2374 480 2726 1126 2726 
C 1811 2726 1850 2086 1862 1881 
C 1869 1849 1901 1843 1920 1843 
C 1978 1843 1978 1862 1978 1971 
L 1978 2688 
z
" transform="scale(0.015625)"/>
      </defs>
      <use xlink:href="#CMR17-4e" transform="scale(0.996264)"/>
      <use xlink:href="#CMR17-75" transform="translate(69.07243 0)scale(0.996264)"/>
      <use xlink:href="#CMR17-6d" transform="translate(119.9678 0)scale(0.996264)"/>
      <use xlink:href="#CMR17-62" transform="translate(194.284936 0)scale(0.996264)"/>
      <use xlink:href="#CMR17-65" transform="translate(247.782744 0)scale(0.996264)"/>
      <use xlink:href="#CMR17-72" transform="translate(288.268404 0)scale(0.996264)"/>
      <use xlink:href="#CMR17-6f" transform="translate(345.688379 0)scale(0.996264)"/>
      <use xlink:href="#CMR17-66" transform="translate(391.378856 0)scale(0.996264)"/>
      <use xlink:href="#CMR17-74" transform="translate(446.897088 0)scale(0.996264)"/>
      <use xlink:href="#CMR17-68" transform="translate(482.177856 0)scale(0.996264)"/>
      <use xlink:href="#CMR17-72" transform="translate(533.073226 0)scale(0.996264)"/>
      <use xlink:href="#CMR17-65" transform="translate(568.353994 0)scale(0.996264)"/>
      <use xlink:href="#CMR17-61" transform="translate(608.839654 0)scale(0.996264)"/>
      <use xlink:href="#CMR17-64" transform="translate(654.530131 0)scale(0.996264)"/>
      <use xlink:href="#CMR17-73" transform="translate(705.425501 0)scale(0.996264)"/>
     </g>
    </g>
   </g>
   <g id="matplotlib.axis_2">
    <g id="ytick_1">
     <g id="line2d_10">
      <defs>
       <path id="m1da9de02f5" d="M 0 0 
L -3.5 0 
" style="stroke: #000000; stroke-width: 0.8"/>
      </defs>
      <g>
       <use xlink:href="#m1da9de02f5" x="37.018347" y="59.159331" style="stroke: #000000; stroke-width: 0.8"/>
      </g>
     </g>
     <g id="text_11">
      <!-- $\mathdefault{5}$ -->
      <g transform="translate(25.037012 62.618581)scale(0.1 -0.1)">
       <defs>
        <path id="CMR17-35" d="M 730 3750 
C 794 3724 1056 3641 1325 3641 
C 1920 3641 2246 3961 2432 4140 
C 2432 4191 2432 4224 2394 4224 
C 2387 4224 2374 4224 2323 4198 
C 2099 4102 1837 4032 1517 4032 
C 1325 4032 1037 4055 723 4191 
C 653 4224 640 4224 634 4224 
C 602 4224 595 4217 595 4090 
L 595 2231 
C 595 2113 595 2080 659 2080 
C 691 2080 704 2093 736 2139 
C 941 2435 1222 2560 1542 2560 
C 1766 2560 2246 2415 2246 1293 
C 2246 1087 2246 716 2054 422 
C 1894 159 1645 25 1370 25 
C 947 25 518 319 403 812 
C 429 806 480 793 506 793 
C 589 793 749 838 749 1036 
C 749 1209 627 1280 506 1280 
C 358 1280 262 1190 262 1011 
C 262 454 704 -128 1382 -128 
C 2042 -128 2669 441 2669 1267 
C 2669 2054 2170 2662 1549 2662 
C 1222 2662 947 2540 730 2304 
L 730 3750 
z
" transform="scale(0.015625)"/>
       </defs>
       <use xlink:href="#CMR17-35" transform="scale(0.996264)"/>
      </g>
     </g>
    </g>
    <g id="ytick_2">
     <g id="line2d_11">
      <g>
       <use xlink:href="#m1da9de02f5" x="37.018347" y="12.237488" style="stroke: #000000; stroke-width: 0.8"/>
      </g>
     </g>
     <g id="text_12">
      <!-- $\mathdefault{10}$ -->
      <g transform="translate(20.055677 15.696737)scale(0.1 -0.1)">
       <defs>
        <path id="CMR17-30" d="M 2688 2038 
C 2688 2430 2682 3099 2413 3613 
C 2176 4063 1798 4224 1466 4224 
C 1158 4224 768 4082 525 3620 
C 269 3137 243 2539 243 2038 
C 243 1671 250 1112 448 623 
C 723 -39 1216 -128 1466 -128 
C 1760 -128 2208 -7 2470 604 
C 2662 1048 2688 1568 2688 2038 
z
M 1466 -26 
C 1056 -26 813 328 723 816 
C 653 1196 653 1749 653 2109 
C 653 2604 653 3015 736 3407 
C 858 3954 1216 4121 1466 4121 
C 1728 4121 2067 3947 2189 3420 
C 2272 3054 2278 2623 2278 2109 
C 2278 1691 2278 1176 2202 797 
C 2067 96 1690 -26 1466 -26 
z
" transform="scale(0.015625)"/>
       </defs>
       <use xlink:href="#CMR17-31" transform="scale(0.996264)"/>
       <use xlink:href="#CMR17-30" transform="translate(45.690477 0)scale(0.996264)"/>
      </g>
     </g>
    </g>
    <g id="text_13">
     <!-- $\mathrm{Speed{\mbox{-}}up}$ -->
     <g transform="translate(14.118498 74.828692)rotate(-90)scale(0.1 -0.1)">
      <defs>
       <path id="CMR17-53" d="M 2803 4351 
C 2803 4467 2797 4473 2758 4473 
C 2720 4473 2707 4447 2682 4390 
L 2490 3965 
C 2246 4320 1875 4480 1472 4480 
C 819 4480 294 3958 294 3301 
C 294 3101 339 2817 557 2546 
C 794 2250 1018 2198 1530 2063 
C 1722 2011 2042 1927 2106 1901 
C 2470 1747 2662 1360 2662 999 
C 2662 534 2336 38 1779 38 
C 1094 38 454 425 410 1328 
C 403 1431 397 1437 352 1437 
C 301 1437 294 1431 294 1302 
L 294 0 
C 294 -116 301 -122 339 -122 
C 384 -122 397 -90 486 109 
C 493 128 493 141 614 386 
C 934 -39 1472 -128 1779 -128 
C 2477 -128 2970 457 2970 1141 
C 2970 1476 2848 1734 2778 1850 
C 2509 2263 2221 2340 1914 2417 
C 1869 2437 1856 2437 1498 2527 
C 1152 2617 1005 2662 845 2836 
C 666 3036 602 3243 602 3449 
C 602 3868 934 4326 1478 4326 
C 2157 4326 2579 3842 2675 3036 
C 2694 2920 2701 2914 2746 2914 
C 2803 2914 2803 2933 2803 3043 
L 2803 4351 
z
" transform="scale(0.015625)"/>
       <path id="CMR17-70" d="M 1408 -1114 
C 998 -1114 973 -1088 973 -834 
L 973 380 
C 1158 109 1427 -64 1766 -64 
C 2406 -64 3053 503 3053 1382 
C 3053 2196 2496 2816 1837 2816 
C 1453 2816 1139 2603 960 2345 
L 960 2816 
L 198 2745 
L 198 2577 
C 576 2577 634 2539 634 2228 
L 634 -834 
C 634 -1081 608 -1114 198 -1114 
L 198 -1280 
C 352 -1268 634 -1268 800 -1268 
C 966 -1268 1254 -1268 1408 -1280 
L 1408 -1114 
z
M 973 2015 
C 973 2106 973 2241 1222 2481 
C 1254 2506 1472 2700 1792 2700 
C 2259 2700 2643 2112 2643 1376 
C 2643 639 2234 38 1728 38 
C 1498 38 1248 148 1056 451 
C 973 594 973 632 973 736 
L 973 2015 
z
" transform="scale(0.015625)"/>
       <path id="CMSS17-2d" d="M 1664 1216 
L 1664 1587 
L 64 1587 
L 64 1216 
L 1664 1216 
z
" transform="scale(0.015625)"/>
      </defs>
      <use xlink:href="#CMR17-53" transform="scale(0.996264)"/>
      <use xlink:href="#CMR17-70" transform="translate(50.89537 0)scale(0.996264)"/>
      <use xlink:href="#CMR17-65" transform="translate(104.393178 0)scale(0.996264)"/>
      <use xlink:href="#CMR17-65" transform="translate(144.878839 0)scale(0.996264)"/>
      <use xlink:href="#CMR17-64" transform="translate(185.364499 0)scale(0.996264)"/>
      <use xlink:href="#CMSS17-2d" transform="translate(236.259869 0)scale(0.996264)"/>
      <use xlink:href="#CMR17-75" transform="translate(267.488982 0)scale(0.996264)"/>
      <use xlink:href="#CMR17-70" transform="translate(318.384352 0)scale(0.996264)"/>
     </g>
    </g>
   </g>
   <g id="LineCollection_1">
    <path d="M 47.116393 96.696806 
L 52.094303 96.696806 
" clip-path="url(#pf1e7cdbb89)" style="fill: none; stroke: #000000; stroke-width: 1.5"/>
    <path d="M 75.561593 85.944777 
L 80.539503 85.944777 
" clip-path="url(#pf1e7cdbb89)" style="fill: none; stroke: #000000; stroke-width: 1.5"/>
    <path d="M 104.006792 50.817012 
L 108.984702 50.817012 
" clip-path="url(#pf1e7cdbb89)" style="fill: none; stroke: #000000; stroke-width: 1.5"/>
    <path d="M 120.646168 63.28257 
L 125.624077 63.28257 
" clip-path="url(#pf1e7cdbb89)" style="fill: none; stroke: #000000; stroke-width: 1.5"/>
    <path d="M 132.451992 56.966208 
L 137.429902 56.966208 
" clip-path="url(#pf1e7cdbb89)" style="fill: none; stroke: #000000; stroke-width: 1.5"/>
    <path d="M 149.091367 37.974618 
L 154.069277 37.974618 
" clip-path="url(#pf1e7cdbb89)" style="fill: none; stroke: #000000; stroke-width: 1.5"/>
    <path d="M 160.897192 30.444958 
L 165.875102 30.444958 
" clip-path="url(#pf1e7cdbb89)" style="fill: none; stroke: #000000; stroke-width: 1.5"/>
    <path d="M 177.536567 21.692296 
L 182.514477 21.692296 
" clip-path="url(#pf1e7cdbb89)" style="fill: none; stroke: #000000; stroke-width: 1.5"/>
    <path d="M 189.342391 11.524091 
L 194.320301 11.524091 
" clip-path="url(#pf1e7cdbb89)" style="fill: none; stroke: #000000; stroke-width: 1.5"/>
   </g>
   <g id="LineCollection_2">
    <path d="M 47.116393 96.696806 
L 52.094303 96.696806 
" clip-path="url(#pf1e7cdbb89)" style="fill: none; stroke: #000000; stroke-width: 1.5"/>
    <path d="M 75.561593 96.262397 
L 80.539503 96.262397 
" clip-path="url(#pf1e7cdbb89)" style="fill: none; stroke: #000000; stroke-width: 1.5"/>
    <path d="M 104.006792 93.284446 
L 108.984702 93.284446 
" clip-path="url(#pf1e7cdbb89)" style="fill: none; stroke: #000000; stroke-width: 1.5"/>
    <path d="M 120.646168 93.156856 
L 125.624077 93.156856 
" clip-path="url(#pf1e7cdbb89)" style="fill: none; stroke: #000000; stroke-width: 1.5"/>
    <path d="M 132.451992 92.58814 
L 137.429902 92.58814 
" clip-path="url(#pf1e7cdbb89)" style="fill: none; stroke: #000000; stroke-width: 1.5"/>
    <path d="M 149.091367 92.512314 
L 154.069277 92.512314 
" clip-path="url(#pf1e7cdbb89)" style="fill: none; stroke: #000000; stroke-width: 1.5"/>
    <path d="M 160.897192 95.375447 
L 165.875102 95.375447 
" clip-path="url(#pf1e7cdbb89)" style="fill: none; stroke: #000000; stroke-width: 1.5"/>
    <path d="M 177.536567 97.928289 
L 182.514477 97.928289 
" clip-path="url(#pf1e7cdbb89)" style="fill: none; stroke: #000000; stroke-width: 1.5"/>
    <path d="M 189.342391 98.005909 
L 194.320301 98.005909 
" clip-path="url(#pf1e7cdbb89)" style="fill: none; stroke: #000000; stroke-width: 1.5"/>
   </g>
   <g id="LineCollection_3">
    <path d="M 49.605348 96.696806 
L 49.605348 96.696806 
" clip-path="url(#pf1e7cdbb89)" style="fill: none; stroke: #000000; stroke-width: 1.5"/>
    <path d="M 78.050548 96.262397 
L 78.050548 85.944777 
" clip-path="url(#pf1e7cdbb89)" style="fill: none; stroke: #000000; stroke-width: 1.5"/>
    <path d="M 106.495747 93.284446 
L 106.495747 50.817012 
" clip-path="url(#pf1e7cdbb89)" style="fill: none; stroke: #000000; stroke-width: 1.5"/>
    <path d="M 123.135123 93.156856 
L 123.135123 63.28257 
" clip-path="url(#pf1e7cdbb89)" style="fill: none; stroke: #000000; stroke-width: 1.5"/>
    <path d="M 134.940947 92.58814 
L 134.940947 56.966208 
" clip-path="url(#pf1e7cdbb89)" style="fill: none; stroke: #000000; stroke-width: 1.5"/>
    <path d="M 151.580322 92.512314 
L 151.580322 37.974618 
" clip-path="url(#pf1e7cdbb89)" style="fill: none; stroke: #000000; stroke-width: 1.5"/>
    <path d="M 163.386147 95.375447 
L 163.386147 30.444958 
" clip-path="url(#pf1e7cdbb89)" style="fill: none; stroke: #000000; stroke-width: 1.5"/>
    <path d="M 180.025522 97.928289 
L 180.025522 21.692296 
" clip-path="url(#pf1e7cdbb89)" style="fill: none; stroke: #000000; stroke-width: 1.5"/>
    <path d="M 191.831346 98.005909 
L 191.831346 11.524091 
" clip-path="url(#pf1e7cdbb89)" style="fill: none; stroke: #000000; stroke-width: 1.5"/>
   </g>
   <g id="LineCollection_4">
    <path d="M 47.116393 96.696806 
L 52.094303 96.696806 
" clip-path="url(#pf1e7cdbb89)" style="fill: none; stroke: #000000; stroke-width: 1.5"/>
    <path d="M 75.561593 90.051596 
L 80.539503 90.051596 
" clip-path="url(#pf1e7cdbb89)" style="fill: none; stroke: #000000; stroke-width: 1.5"/>
    <path d="M 104.006792 82.546418 
L 108.984702 82.546418 
" clip-path="url(#pf1e7cdbb89)" style="fill: none; stroke: #000000; stroke-width: 1.5"/>
    <path d="M 120.646168 79.556551 
L 125.624077 79.556551 
" clip-path="url(#pf1e7cdbb89)" style="fill: none; stroke: #000000; stroke-width: 1.5"/>
    <path d="M 132.451992 76.98774 
L 137.429902 76.98774 
" clip-path="url(#pf1e7cdbb89)" style="fill: none; stroke: #000000; stroke-width: 1.5"/>
    <path d="M 149.091367 75.430552 
L 154.069277 75.430552 
" clip-path="url(#pf1e7cdbb89)" style="fill: none; stroke: #000000; stroke-width: 1.5"/>
    <path d="M 160.897192 76.71282 
L 165.875102 76.71282 
" clip-path="url(#pf1e7cdbb89)" style="fill: none; stroke: #000000; stroke-width: 1.5"/>
    <path d="M 177.536567 76.117231 
L 182.514477 76.117231 
" clip-path="url(#pf1e7cdbb89)" style="fill: none; stroke: #000000; stroke-width: 1.5"/>
    <path d="M 189.342391 77.906711 
L 194.320301 77.906711 
" clip-path="url(#pf1e7cdbb89)" style="fill: none; stroke: #000000; stroke-width: 1.5"/>
   </g>
   <g id="line2d_12">
    <path d="M 37.018347 96.696806 
L 204.418347 96.696806 
" clip-path="url(#pf1e7cdbb89)" style="fill: none; stroke-dasharray: 3.7,1.6; stroke-dashoffset: 0; stroke: #000000"/>
   </g>
   <g id="patch_3">
    <path d="M 37.018347 102.33 
L 37.018347 7.2 
" style="fill: none; stroke: #000000; stroke-width: 0.8; stroke-linejoin: miter; stroke-linecap: square"/>
   </g>
   <g id="patch_4">
    <path d="M 204.418347 102.33 
L 204.418347 7.2 
" style="fill: none; stroke: #000000; stroke-width: 0.8; stroke-linejoin: miter; stroke-linecap: square"/>
   </g>
   <g id="patch_5">
    <path d="M 37.018347 102.33 
L 204.418347 102.33 
" style="fill: none; stroke: #000000; stroke-width: 0.8; stroke-linejoin: miter; stroke-linecap: square"/>
   </g>
   <g id="patch_6">
    <path d="M 37.018347 7.2 
L 204.418347 7.2 
" style="fill: none; stroke: #000000; stroke-width: 0.8; stroke-linejoin: miter; stroke-linecap: square"/>
   </g>
  </g>
 </g>
 <defs>
  <clipPath id="pf1e7cdbb89">
   <rect x="37.018347" y="7.2" width="167.4" height="95.13"/>
  </clipPath>
 </defs>
</svg>
