<?xml version="1.0" encoding="utf-8" standalone="no"?>
<!DOCTYPE svg PUBLIC "-//W3C//DTD SVG 1.1//EN"
  "http://www.w3.org/Graphics/SVG/1.1/DTD/svg11.dtd">
<svg xmlns:xlink="http://www.w3.org/1999/xlink" width="206.637012pt" height="138.241353pt" viewBox="0 0 206.637012 138.241353" xmlns="http://www.w3.org/2000/svg" version="1.1">
 <metadata>
  <rdf:RDF xmlns:dc="http://purl.org/dc/elements/1.1/" xmlns:cc="http://creativecommons.org/ns#" xmlns:rdf="http://www.w3.org/1999/02/22-rdf-syntax-ns#">
   <cc:Work>
    <dc:type rdf:resource="http://purl.org/dc/dcmitype/StillImage"/>
    <dc:date>2022-04-21T15:07:41.614285</dc:date>
    <dc:format>image/svg+xml</dc:format>
    <dc:creator>
     <cc:Agent>
      <dc:title>Matplotlib v3.5.1, https://matplotlib.org/</dc:title>
     </cc:Agent>
    </dc:creator>
   </cc:Work>
  </rdf:RDF>
 </metadata>
 <defs>
  <style type="text/css">*{stroke-linejoin: round; stroke-linecap: butt}</style>
 </defs>
 <g id="figure_1">
  <g id="patch_1">
   <path d="M 0 138.241353 
L 206.637012 138.241353 
L 206.637012 -0 
L 0 -0 
L 0 138.241353 
z
" style="fill: none"/>
  </g>
  <g id="axes_1">
   <g id="patch_2">
    <path d="M 32.037012 102.33 
L 199.437012 102.33 
L 199.437012 7.2 
L 32.037012 7.2 
z
" style="fill: #ffffff"/>
   </g>
   <g id="PolyCollection_1">
    <path d="M 49.601923 80.408909 
L 39.646103 80.408909 
L 39.646103 80.408909 
L 39.646103 80.408909 
L 39.646103 80.408909 
L 39.646103 80.408909 
L 39.646103 80.408909 
L 39.646103 80.408909 
L 39.646103 80.408909 
L 39.646103 80.408909 
L 39.646103 80.408909 
L 39.646103 80.408909 
L 39.646103 80.408909 
L 39.646103 80.408909 
L 39.646103 80.408909 
L 39.646103 80.408909 
L 39.646103 80.408909 
L 39.646103 80.408909 
L 39.646103 80.408909 
L 39.646103 80.408909 
L 39.646103 80.408909 
L 39.646103 80.408909 
L 39.646103 80.408909 
L 39.646103 80.408909 
L 39.646103 80.408909 
L 39.646103 80.408909 
L 39.646103 80.408909 
L 39.646103 80.408909 
L 39.646103 80.408909 
L 39.646103 80.408909 
L 39.646103 80.408909 
L 39.646103 80.408909 
L 39.646103 80.408909 
L 39.646103 80.408909 
L 39.646103 80.408909 
L 39.646103 80.408909 
L 39.646103 80.408909 
L 39.646103 80.408909 
L 39.646103 80.408909 
L 39.646103 80.408909 
L 39.646103 80.408909 
L 39.646103 80.408909 
L 39.646103 80.408909 
L 39.646103 80.408909 
L 39.646103 80.408909 
L 39.646103 80.408909 
L 39.646103 80.408909 
L 39.646103 80.408909 
L 39.646103 80.408909 
L 39.646103 80.408909 
L 39.646103 80.408909 
L 39.646103 80.408909 
L 39.646103 80.408909 
L 39.646103 80.408909 
L 39.646103 80.408909 
L 39.646103 80.408909 
L 39.646103 80.408909 
L 39.646103 80.408909 
L 39.646103 80.408909 
L 39.646103 80.408909 
L 39.646103 80.408909 
L 39.646103 80.408909 
L 39.646103 80.408909 
L 39.646103 80.408909 
L 39.646103 80.408909 
L 39.646103 80.408909 
L 39.646103 80.408909 
L 39.646103 80.408909 
L 39.646103 80.408909 
L 39.646103 80.408909 
L 39.646103 80.408909 
L 39.646103 80.408909 
L 39.646103 80.408909 
L 39.646103 80.408909 
L 39.646103 80.408909 
L 39.646103 80.408909 
L 39.646103 80.408909 
L 39.646103 80.408909 
L 39.646103 80.408909 
L 39.646103 80.408909 
L 39.646103 80.408909 
L 39.646103 80.408909 
L 39.646103 80.408909 
L 39.646103 80.408909 
L 39.646103 80.408909 
L 39.646103 80.408909 
L 39.646103 80.408909 
L 39.646103 80.408909 
L 39.646103 80.408909 
L 39.646103 80.408909 
L 39.646103 80.408909 
L 39.646103 80.408909 
L 39.646103 80.408909 
L 39.646103 80.408909 
L 39.646103 80.408909 
L 39.646103 80.408909 
L 39.646103 80.408909 
L 39.646103 80.408909 
L 39.646103 80.408909 
L 39.646103 80.408909 
L 39.646103 80.408909 
L 49.601923 80.408909 
L 49.601923 80.408909 
L 49.601923 80.408909 
L 49.601923 80.408909 
L 49.601923 80.408909 
L 49.601923 80.408909 
L 49.601923 80.408909 
L 49.601923 80.408909 
L 49.601923 80.408909 
L 49.601923 80.408909 
L 49.601923 80.408909 
L 49.601923 80.408909 
L 49.601923 80.408909 
L 49.601923 80.408909 
L 49.601923 80.408909 
L 49.601923 80.408909 
L 49.601923 80.408909 
L 49.601923 80.408909 
L 49.601923 80.408909 
L 49.601923 80.408909 
L 49.601923 80.408909 
L 49.601923 80.408909 
L 49.601923 80.408909 
L 49.601923 80.408909 
L 49.601923 80.408909 
L 49.601923 80.408909 
L 49.601923 80.408909 
L 49.601923 80.408909 
L 49.601923 80.408909 
L 49.601923 80.408909 
L 49.601923 80.408909 
L 49.601923 80.408909 
L 49.601923 80.408909 
L 49.601923 80.408909 
L 49.601923 80.408909 
L 49.601923 80.408909 
L 49.601923 80.408909 
L 49.601923 80.408909 
L 49.601923 80.408909 
L 49.601923 80.408909 
L 49.601923 80.408909 
L 49.601923 80.408909 
L 49.601923 80.408909 
L 49.601923 80.408909 
L 49.601923 80.408909 
L 49.601923 80.408909 
L 49.601923 80.408909 
L 49.601923 80.408909 
L 49.601923 80.408909 
L 49.601923 80.408909 
L 49.601923 80.408909 
L 49.601923 80.408909 
L 49.601923 80.408909 
L 49.601923 80.408909 
L 49.601923 80.408909 
L 49.601923 80.408909 
L 49.601923 80.408909 
L 49.601923 80.408909 
L 49.601923 80.408909 
L 49.601923 80.408909 
L 49.601923 80.408909 
L 49.601923 80.408909 
L 49.601923 80.408909 
L 49.601923 80.408909 
L 49.601923 80.408909 
L 49.601923 80.408909 
L 49.601923 80.408909 
L 49.601923 80.408909 
L 49.601923 80.408909 
L 49.601923 80.408909 
L 49.601923 80.408909 
L 49.601923 80.408909 
L 49.601923 80.408909 
L 49.601923 80.408909 
L 49.601923 80.408909 
L 49.601923 80.408909 
L 49.601923 80.408909 
L 49.601923 80.408909 
L 49.601923 80.408909 
L 49.601923 80.408909 
L 49.601923 80.408909 
L 49.601923 80.408909 
L 49.601923 80.408909 
L 49.601923 80.408909 
L 49.601923 80.408909 
L 49.601923 80.408909 
L 49.601923 80.408909 
L 49.601923 80.408909 
L 49.601923 80.408909 
L 49.601923 80.408909 
L 49.601923 80.408909 
L 49.601923 80.408909 
L 49.601923 80.408909 
L 49.601923 80.408909 
L 49.601923 80.408909 
L 49.601923 80.408909 
L 49.601923 80.408909 
L 49.601923 80.408909 
L 49.601923 80.408909 
L 49.601923 80.408909 
L 49.601923 80.408909 
z
" clip-path="url(#p12d86eaf07)" style="fill: #ff0000; fill-opacity: 0.3"/>
   </g>
   <g id="PolyCollection_2">
    <path d="M 73.934702 94.661322 
L 72.203723 94.661322 
L 72.205462 94.307629 
L 72.215151 93.953936 
L 72.232013 93.600242 
L 72.25492 93.246549 
L 72.282416 92.892856 
L 72.31275 92.539163 
L 72.343923 92.185469 
L 72.373732 91.831776 
L 72.399828 91.478083 
L 72.419772 91.124389 
L 72.431097 90.770696 
L 72.431366 90.417003 
L 72.418235 90.063309 
L 72.389514 89.709616 
L 72.343233 89.355923 
L 72.277709 89.002229 
L 72.191611 88.648536 
L 72.084029 88.294843 
L 71.954538 87.941149 
L 71.803264 87.587456 
L 71.630929 87.233763 
L 71.438892 86.88007 
L 71.229172 86.526376 
L 71.00444 86.172683 
L 70.767992 85.81899 
L 70.52369 85.465296 
L 70.275871 85.111603 
L 70.02923 84.75791 
L 69.788676 84.404216 
L 69.559165 84.050523 
L 69.34553 83.69683 
L 69.152295 83.343136 
L 68.983499 82.989443 
L 68.842543 82.63575 
L 68.732043 82.282056 
L 68.653734 81.928363 
L 68.608394 81.57467 
L 68.595821 81.220977 
L 68.614841 80.867283 
L 68.663365 80.51359 
L 68.738472 80.159897 
L 68.836533 79.806203 
L 68.953348 79.45251 
L 69.08431 79.098817 
L 69.224566 78.745123 
L 69.36919 78.39143 
L 69.513339 78.037737 
L 69.6524 77.684043 
L 69.782124 77.33035 
L 69.898734 76.976657 
L 69.999007 76.622963 
L 70.08034 76.26927 
L 70.140786 75.915577 
L 70.179064 75.561884 
L 70.194553 75.20819 
L 70.187267 74.854497 
L 70.157803 74.500804 
L 70.107289 74.14711 
L 70.037313 73.793417 
L 69.949845 73.439724 
L 69.84716 73.08603 
L 69.731754 72.732337 
L 69.606269 72.378644 
L 69.473416 72.02495 
L 69.335908 71.671257 
L 69.196403 71.317564 
L 69.057451 70.963871 
L 68.921456 70.610177 
L 68.790642 70.256484 
L 68.667025 69.902791 
L 68.552401 69.549097 
L 68.448325 69.195404 
L 68.356103 68.841711 
L 68.276782 68.488017 
L 68.211142 68.134324 
L 68.159687 67.780631 
L 68.122645 67.426937 
L 68.09996 67.073244 
L 68.091303 66.719551 
L 68.096083 66.365857 
L 68.113471 66.012164 
L 68.142438 65.658471 
L 68.181801 65.304778 
L 68.230289 64.951084 
L 68.286615 64.597391 
L 68.34955 64.243698 
L 68.418009 63.890004 
L 68.491125 63.536311 
L 68.568309 63.182618 
L 68.649295 62.828924 
L 68.734165 62.475231 
L 68.823336 62.121538 
L 68.917524 61.767844 
L 69.017679 61.414151 
L 69.124894 61.060458 
L 69.240296 60.706764 
L 69.36493 60.353071 
L 69.499639 59.999378 
L 69.644955 59.645685 
L 76.49347 59.645685 
L 76.49347 59.645685 
L 76.638786 59.999378 
L 76.773494 60.353071 
L 76.898129 60.706764 
L 77.013531 61.060458 
L 77.120746 61.414151 
L 77.220901 61.767844 
L 77.315089 62.121538 
L 77.40426 62.475231 
L 77.48913 62.828924 
L 77.570116 63.182618 
L 77.6473 63.536311 
L 77.720416 63.890004 
L 77.788875 64.243698 
L 77.85181 64.597391 
L 77.908136 64.951084 
L 77.956624 65.304778 
L 77.995987 65.658471 
L 78.024954 66.012164 
L 78.042342 66.365857 
L 78.047122 66.719551 
L 78.038465 67.073244 
L 78.01578 67.426937 
L 77.978737 67.780631 
L 77.927283 68.134324 
L 77.861643 68.488017 
L 77.782322 68.841711 
L 77.6901 69.195404 
L 77.586024 69.549097 
L 77.4714 69.902791 
L 77.347783 70.256484 
L 77.216968 70.610177 
L 77.080974 70.963871 
L 76.942022 71.317564 
L 76.802517 71.671257 
L 76.665009 72.02495 
L 76.532156 72.378644 
L 76.406671 72.732337 
L 76.291265 73.08603 
L 76.18858 73.439724 
L 76.101112 73.793417 
L 76.031136 74.14711 
L 75.980622 74.500804 
L 75.951158 74.854497 
L 75.943872 75.20819 
L 75.959361 75.561884 
L 75.997639 75.915577 
L 76.058085 76.26927 
L 76.139418 76.622963 
L 76.239691 76.976657 
L 76.356301 77.33035 
L 76.486025 77.684043 
L 76.625086 78.037737 
L 76.769235 78.39143 
L 76.913859 78.745123 
L 77.054115 79.098817 
L 77.185077 79.45251 
L 77.301892 79.806203 
L 77.399953 80.159897 
L 77.47506 80.51359 
L 77.523584 80.867283 
L 77.542604 81.220977 
L 77.530031 81.57467 
L 77.484691 81.928363 
L 77.406382 82.282056 
L 77.295882 82.63575 
L 77.154925 82.989443 
L 76.98613 83.343136 
L 76.792895 83.69683 
L 76.57926 84.050523 
L 76.349749 84.404216 
L 76.109195 84.75791 
L 75.862554 85.111603 
L 75.614735 85.465296 
L 75.370433 85.81899 
L 75.133985 86.172683 
L 74.909253 86.526376 
L 74.699533 86.88007 
L 74.507496 87.233763 
L 74.335161 87.587456 
L 74.183887 87.941149 
L 74.054396 88.294843 
L 73.946814 88.648536 
L 73.860716 89.002229 
L 73.795192 89.355923 
L 73.748911 89.709616 
L 73.72019 90.063309 
L 73.707059 90.417003 
L 73.707328 90.770696 
L 73.718653 91.124389 
L 73.738597 91.478083 
L 73.764693 91.831776 
L 73.794502 92.185469 
L 73.825675 92.539163 
L 73.856009 92.892856 
L 73.883505 93.246549 
L 73.906412 93.600242 
L 73.923274 93.953936 
L 73.932963 94.307629 
L 73.934702 94.661322 
z
" clip-path="url(#p12d86eaf07)" style="fill: #ff0000; fill-opacity: 0.3"/>
   </g>
   <g id="PolyCollection_3">
    <path d="M 103.588928 96.560923 
L 99.439896 96.560923 
L 99.37754 96.025903 
L 99.325017 95.490883 
L 99.282866 94.955862 
L 99.251413 94.420842 
L 99.230761 93.885822 
L 99.22078 93.350801 
L 99.221116 92.815781 
L 99.231194 92.280761 
L 99.250237 91.74574 
L 99.277287 91.21072 
L 99.311233 90.6757 
L 99.350846 90.140679 
L 99.394809 89.605659 
L 99.44176 89.070639 
L 99.490324 88.535618 
L 99.539155 88.000598 
L 99.586969 87.465577 
L 99.632572 86.930557 
L 99.674892 86.395537 
L 99.712994 85.860516 
L 99.746106 85.325496 
L 99.773618 84.790476 
L 99.795094 84.255455 
L 99.810267 83.720435 
L 99.819033 83.185415 
L 99.821441 82.650394 
L 99.817676 82.115374 
L 99.80804 81.580354 
L 99.792938 81.045333 
L 99.772849 80.510313 
L 99.748311 79.975293 
L 99.7199 79.440272 
L 99.688209 78.905252 
L 99.653834 78.370232 
L 99.61736 77.835211 
L 99.579347 77.300191 
L 99.540325 76.765171 
L 99.500787 76.23015 
L 99.461182 75.69513 
L 99.421918 75.16011 
L 99.383354 74.625089 
L 99.345806 74.090069 
L 99.309544 73.555048 
L 99.274788 73.020028 
L 99.24171 72.485008 
L 99.210427 71.949987 
L 99.180998 71.414967 
L 99.153417 70.879947 
L 99.127603 70.344926 
L 99.103397 69.809906 
L 99.080547 69.274886 
L 99.058707 68.739865 
L 99.037427 68.204845 
L 99.016151 67.669825 
L 98.994219 67.134804 
L 98.97087 66.599784 
L 98.945255 66.064764 
L 98.916449 65.529743 
L 98.883479 64.994723 
L 98.845344 64.459703 
L 98.801054 63.924682 
L 98.749667 63.389662 
L 98.690327 62.854642 
L 98.622308 62.319621 
L 98.54506 61.784601 
L 98.458246 61.249581 
L 98.361784 60.71456 
L 98.255877 60.17954 
L 98.141042 59.64452 
L 98.018118 59.109499 
L 97.888282 58.574479 
L 97.753034 58.039458 
L 97.614184 57.504438 
L 97.473819 56.969418 
L 97.334264 56.434397 
L 97.198029 55.899377 
L 97.067745 55.364357 
L 96.946099 54.829336 
L 96.835759 54.294316 
L 96.739301 53.759296 
L 96.659133 53.224275 
L 96.597425 52.689255 
L 96.556044 52.154235 
L 96.536502 51.619214 
L 96.539905 51.084194 
L 96.566927 50.549174 
L 96.617786 50.014153 
L 96.692245 49.479133 
L 96.789619 48.944113 
L 96.908797 48.409092 
L 97.048283 47.874072 
L 97.206234 47.339052 
L 97.380525 46.804031 
L 97.568803 46.269011 
L 97.768555 45.733991 
L 97.977175 45.19897 
L 98.192032 44.66395 
L 98.410528 44.12893 
L 98.63016 43.593909 
L 104.398665 43.593909 
L 104.398665 43.593909 
L 104.618296 44.12893 
L 104.836792 44.66395 
L 105.051649 45.19897 
L 105.260269 45.733991 
L 105.460021 46.269011 
L 105.648299 46.804031 
L 105.82259 47.339052 
L 105.980542 47.874072 
L 106.120027 48.409092 
L 106.239205 48.944113 
L 106.336579 49.479133 
L 106.411038 50.014153 
L 106.461898 50.549174 
L 106.488919 51.084194 
L 106.492322 51.619214 
L 106.47278 52.154235 
L 106.4314 52.689255 
L 106.369692 53.224275 
L 106.289523 53.759296 
L 106.193065 54.294316 
L 106.082726 54.829336 
L 105.961079 55.364357 
L 105.830795 55.899377 
L 105.69456 56.434397 
L 105.555005 56.969418 
L 105.414641 57.504438 
L 105.27579 58.039458 
L 105.140542 58.574479 
L 105.010706 59.109499 
L 104.887783 59.64452 
L 104.772947 60.17954 
L 104.667041 60.71456 
L 104.570579 61.249581 
L 104.483765 61.784601 
L 104.406516 62.319621 
L 104.338497 62.854642 
L 104.279157 63.389662 
L 104.22777 63.924682 
L 104.183481 64.459703 
L 104.145346 64.994723 
L 104.112375 65.529743 
L 104.083569 66.064764 
L 104.057954 66.599784 
L 104.034605 67.134804 
L 104.012673 67.669825 
L 103.991397 68.204845 
L 103.970117 68.739865 
L 103.948277 69.274886 
L 103.925428 69.809906 
L 103.901221 70.344926 
L 103.875408 70.879947 
L 103.847826 71.414967 
L 103.818397 71.949987 
L 103.787114 72.485008 
L 103.754036 73.020028 
L 103.71928 73.555048 
L 103.683018 74.090069 
L 103.64547 74.625089 
L 103.606907 75.16011 
L 103.567642 75.69513 
L 103.528037 76.23015 
L 103.488499 76.765171 
L 103.449478 77.300191 
L 103.411465 77.835211 
L 103.37499 78.370232 
L 103.340615 78.905252 
L 103.308924 79.440272 
L 103.280513 79.975293 
L 103.255975 80.510313 
L 103.235886 81.045333 
L 103.220784 81.580354 
L 103.211149 82.115374 
L 103.207383 82.650394 
L 103.209791 83.185415 
L 103.218557 83.720435 
L 103.23373 84.255455 
L 103.255206 84.790476 
L 103.282718 85.325496 
L 103.31583 85.860516 
L 103.353933 86.395537 
L 103.396252 86.930557 
L 103.441855 87.465577 
L 103.489669 88.000598 
L 103.5385 88.535618 
L 103.587065 89.070639 
L 103.634015 89.605659 
L 103.677978 90.140679 
L 103.717591 90.6757 
L 103.751537 91.21072 
L 103.778587 91.74574 
L 103.79763 92.280761 
L 103.807708 92.815781 
L 103.808044 93.350801 
L 103.798064 93.885822 
L 103.777411 94.420842 
L 103.745959 94.955862 
L 103.703808 95.490883 
L 103.651285 96.025903 
L 103.588928 96.560923 
z
" clip-path="url(#p12d86eaf07)" style="fill: #ff0000; fill-opacity: 0.3"/>
   </g>
   <g id="PolyCollection_4">
    <path d="M 120.138689 97.33902 
L 116.168886 97.33902 
L 116.019974 96.650056 
L 115.865452 95.961092 
L 115.705802 95.272128 
L 115.541631 94.583164 
L 115.373678 93.8942 
L 115.202817 93.205236 
L 115.030061 92.516273 
L 114.856556 91.827309 
L 114.68358 91.138345 
L 114.51253 90.449381 
L 114.344906 89.760417 
L 114.182291 89.071453 
L 114.026331 88.382489 
L 113.878703 87.693525 
L 113.741088 87.004561 
L 113.615131 86.315598 
L 113.502417 85.626634 
L 113.404426 84.93767 
L 113.322502 84.248706 
L 113.257821 83.559742 
L 113.211362 82.870778 
L 113.183878 82.181814 
L 113.175877 81.49285 
L 113.18761 80.803886 
L 113.219054 80.114923 
L 113.26992 79.425959 
L 113.339649 78.736995 
L 113.427427 78.048031 
L 113.532204 77.359067 
L 113.652711 76.670103 
L 113.787497 75.981139 
L 113.93495 75.292175 
L 114.093341 74.603211 
L 114.260856 73.914248 
L 114.435634 73.225284 
L 114.615801 72.53632 
L 114.799512 71.847356 
L 114.984977 71.158392 
L 115.170491 70.469428 
L 115.354463 69.780464 
L 115.535436 69.0915 
L 115.7121 68.402536 
L 115.883308 67.713573 
L 116.048079 67.024609 
L 116.205604 66.335645 
L 116.355241 65.646681 
L 116.496507 64.957717 
L 116.629076 64.268753 
L 116.752758 63.579789 
L 116.867492 62.890825 
L 116.973326 62.201862 
L 117.070399 61.512898 
L 117.158927 60.823934 
L 117.239182 60.13497 
L 117.311479 59.446006 
L 117.376153 58.757042 
L 117.433551 58.068078 
L 117.484013 57.379114 
L 117.527862 56.69015 
L 117.565393 56.001187 
L 117.596869 55.312223 
L 117.622507 54.623259 
L 117.642482 53.934295 
L 117.656921 53.245331 
L 117.665903 52.556367 
L 117.669468 51.867403 
L 117.667612 51.178439 
L 117.660304 50.489475 
L 117.647487 49.800512 
L 117.629093 49.111548 
L 117.60505 48.422584 
L 117.575301 47.73362 
L 117.53981 47.044656 
L 117.498581 46.355692 
L 117.45167 45.666728 
L 117.399194 44.977764 
L 117.34135 44.2888 
L 117.278418 43.599837 
L 117.210772 42.910873 
L 117.138889 42.221909 
L 117.063345 41.532945 
L 116.98482 40.843981 
L 116.904092 40.155017 
L 116.82203 39.466053 
L 116.739584 38.777089 
L 116.657773 38.088126 
L 116.577663 37.399162 
L 116.500353 36.710198 
L 116.426948 36.021234 
L 116.358542 35.33227 
L 116.296188 34.643306 
L 116.240876 33.954342 
L 116.193512 33.265378 
L 116.154892 32.576414 
L 116.125685 31.887451 
L 116.106416 31.198487 
L 116.097454 30.509523 
L 116.098998 29.820559 
L 116.111079 29.131595 
L 120.196496 29.131595 
L 120.196496 29.131595 
L 120.208577 29.820559 
L 120.210121 30.509523 
L 120.201158 31.198487 
L 120.18189 31.887451 
L 120.152683 32.576414 
L 120.114063 33.265378 
L 120.066699 33.954342 
L 120.011387 34.643306 
L 119.949032 35.33227 
L 119.880626 36.021234 
L 119.807222 36.710198 
L 119.729911 37.399162 
L 119.649802 38.088126 
L 119.56799 38.777089 
L 119.485545 39.466053 
L 119.403483 40.155017 
L 119.322754 40.843981 
L 119.244229 41.532945 
L 119.168685 42.221909 
L 119.096802 42.910873 
L 119.029157 43.599837 
L 118.966225 44.2888 
L 118.90838 44.977764 
L 118.855905 45.666728 
L 118.808993 46.355692 
L 118.767764 47.044656 
L 118.732274 47.73362 
L 118.702524 48.422584 
L 118.678482 49.111548 
L 118.660087 49.800512 
L 118.64727 50.489475 
L 118.639962 51.178439 
L 118.638107 51.867403 
L 118.641671 52.556367 
L 118.650654 53.245331 
L 118.665092 53.934295 
L 118.685067 54.623259 
L 118.710705 55.312223 
L 118.742181 56.001187 
L 118.779713 56.69015 
L 118.823562 57.379114 
L 118.874023 58.068078 
L 118.931421 58.757042 
L 118.996095 59.446006 
L 119.068392 60.13497 
L 119.148648 60.823934 
L 119.237176 61.512898 
L 119.334249 62.201862 
L 119.440082 62.890825 
L 119.554816 63.579789 
L 119.678499 64.268753 
L 119.811067 64.957717 
L 119.952334 65.646681 
L 120.10197 66.335645 
L 120.259495 67.024609 
L 120.424267 67.713573 
L 120.595475 68.402536 
L 120.772139 69.0915 
L 120.953111 69.780464 
L 121.137084 70.469428 
L 121.322598 71.158392 
L 121.508062 71.847356 
L 121.691773 72.53632 
L 121.871941 73.225284 
L 122.046718 73.914248 
L 122.214233 74.603211 
L 122.372625 75.292175 
L 122.520078 75.981139 
L 122.654863 76.670103 
L 122.775371 77.359067 
L 122.880147 78.048031 
L 122.967926 78.736995 
L 123.037655 79.425959 
L 123.08852 80.114923 
L 123.119965 80.803886 
L 123.131697 81.49285 
L 123.123697 82.181814 
L 123.096213 82.870778 
L 123.049754 83.559742 
L 122.985073 84.248706 
L 122.903149 84.93767 
L 122.805157 85.626634 
L 122.692443 86.315598 
L 122.566487 87.004561 
L 122.428871 87.693525 
L 122.281243 88.382489 
L 122.125283 89.071453 
L 121.962669 89.760417 
L 121.795044 90.449381 
L 121.623994 91.138345 
L 121.451019 91.827309 
L 121.277514 92.516273 
L 121.104757 93.205236 
L 120.933896 93.8942 
L 120.765943 94.583164 
L 120.601773 95.272128 
L 120.442123 95.961092 
L 120.2876 96.650056 
L 120.138689 97.33902 
z
" clip-path="url(#p12d86eaf07)" style="fill: #ff0000; fill-opacity: 0.3"/>
   </g>
   <g id="PolyCollection_5">
    <path d="M 131.126557 97.004961 
L 128.792666 97.004961 
L 128.752218 96.434531 
L 128.715186 95.8641 
L 128.680415 95.29367 
L 128.64641 94.723239 
L 128.61139 94.152809 
L 128.573361 93.582378 
L 128.530209 93.011948 
L 128.479794 92.441518 
L 128.42007 91.871087 
L 128.349185 91.300657 
L 128.265586 90.730226 
L 128.168114 90.159796 
L 128.056069 89.589365 
L 127.929264 89.018935 
L 127.788047 88.448504 
L 127.633295 87.878074 
L 127.466386 87.307643 
L 127.289139 86.737213 
L 127.103741 86.166782 
L 126.912658 85.596352 
L 126.718531 85.025921 
L 126.524085 84.455491 
L 126.332032 83.88506 
L 126.144995 83.31463 
L 125.965444 82.744199 
L 125.795655 82.173769 
L 125.637688 81.603338 
L 125.493383 81.032908 
L 125.364372 80.462477 
L 125.2521 79.892047 
L 125.157846 79.321616 
L 125.082746 78.751186 
L 125.027802 78.180755 
L 124.993881 77.610325 
L 124.981702 77.039895 
L 124.991802 76.469464 
L 125.024495 75.899034 
L 125.079822 75.328603 
L 125.157497 74.758173 
L 125.256863 74.187742 
L 125.376849 73.617312 
L 125.515956 73.046881 
L 125.672256 72.476451 
L 125.843409 71.90602 
L 126.026716 71.33559 
L 126.219179 70.765159 
L 126.417582 70.194729 
L 126.618586 69.624298 
L 126.818821 69.053868 
L 127.014988 68.483437 
L 127.203941 67.913007 
L 127.382766 67.342576 
L 127.548849 66.772146 
L 127.699919 66.201715 
L 127.834083 65.631285 
L 127.949846 65.060854 
L 128.046121 64.490424 
L 128.122227 63.919993 
L 128.177888 63.349563 
L 128.213222 62.779132 
L 128.228739 62.208702 
L 128.225331 61.638272 
L 128.204264 61.067841 
L 128.16717 60.497411 
L 128.116036 59.92698 
L 128.053179 59.35655 
L 127.981221 58.786119 
L 127.90304 58.215689 
L 127.821718 57.645258 
L 127.740465 57.074828 
L 127.662529 56.504397 
L 127.591103 55.933967 
L 127.529211 55.363536 
L 127.479604 54.793106 
L 127.44465 54.222675 
L 127.426241 53.652245 
L 127.425715 53.081814 
L 127.4438 52.511384 
L 127.480588 51.940953 
L 127.535539 51.370523 
L 127.607515 50.800092 
L 127.694841 50.229662 
L 127.795398 49.659231 
L 127.906728 49.088801 
L 128.026161 48.51837 
L 128.150937 47.94794 
L 128.278334 47.377509 
L 128.405784 46.807079 
L 128.530968 46.236648 
L 128.651897 45.666218 
L 128.766963 45.095788 
L 128.874965 44.525357 
L 128.975113 43.954927 
L 129.06701 43.384496 
L 129.150605 42.814066 
L 129.226146 42.243635 
L 129.294113 41.673205 
L 129.355154 41.102774 
L 129.410016 40.532344 
L 130.509208 40.532344 
L 130.509208 40.532344 
L 130.564069 41.102774 
L 130.62511 41.673205 
L 130.693078 42.243635 
L 130.768619 42.814066 
L 130.852214 43.384496 
L 130.94411 43.954927 
L 131.044259 44.525357 
L 131.152261 45.095788 
L 131.267326 45.666218 
L 131.388255 46.236648 
L 131.51344 46.807079 
L 131.64089 47.377509 
L 131.768287 47.94794 
L 131.893063 48.51837 
L 132.012496 49.088801 
L 132.123826 49.659231 
L 132.224383 50.229662 
L 132.311709 50.800092 
L 132.383685 51.370523 
L 132.438636 51.940953 
L 132.475424 52.511384 
L 132.493509 53.081814 
L 132.492982 53.652245 
L 132.474573 54.222675 
L 132.43962 54.793106 
L 132.390013 55.363536 
L 132.328121 55.933967 
L 132.256695 56.504397 
L 132.178759 57.074828 
L 132.097505 57.645258 
L 132.016184 58.215689 
L 131.938003 58.786119 
L 131.866045 59.35655 
L 131.803188 59.92698 
L 131.752054 60.497411 
L 131.71496 61.067841 
L 131.693893 61.638272 
L 131.690484 62.208702 
L 131.706001 62.779132 
L 131.741336 63.349563 
L 131.796996 63.919993 
L 131.873103 64.490424 
L 131.969378 65.060854 
L 132.085141 65.631285 
L 132.219305 66.201715 
L 132.370374 66.772146 
L 132.536457 67.342576 
L 132.715283 67.913007 
L 132.904235 68.483437 
L 133.100402 69.053868 
L 133.300638 69.624298 
L 133.501641 70.194729 
L 133.700044 70.765159 
L 133.892507 71.33559 
L 134.075814 71.90602 
L 134.246968 72.476451 
L 134.403267 73.046881 
L 134.542375 73.617312 
L 134.662361 74.187742 
L 134.761726 74.758173 
L 134.839402 75.328603 
L 134.894728 75.899034 
L 134.927422 76.469464 
L 134.937522 77.039895 
L 134.925343 77.610325 
L 134.891422 78.180755 
L 134.836477 78.751186 
L 134.761377 79.321616 
L 134.667123 79.892047 
L 134.554851 80.462477 
L 134.425841 81.032908 
L 134.281535 81.603338 
L 134.123568 82.173769 
L 133.953779 82.744199 
L 133.774228 83.31463 
L 133.587191 83.88506 
L 133.395139 84.455491 
L 133.200693 85.025921 
L 133.006566 85.596352 
L 132.815482 86.166782 
L 132.630085 86.737213 
L 132.452838 87.307643 
L 132.285928 87.878074 
L 132.131177 88.448504 
L 131.98996 89.018935 
L 131.863155 89.589365 
L 131.75111 90.159796 
L 131.653637 90.730226 
L 131.570039 91.300657 
L 131.499153 91.871087 
L 131.439429 92.441518 
L 131.389015 93.011948 
L 131.345862 93.582378 
L 131.307834 94.152809 
L 131.272814 94.723239 
L 131.238809 95.29367 
L 131.204038 95.8641 
L 131.167006 96.434531 
L 131.126557 97.004961 
z
" clip-path="url(#p12d86eaf07)" style="fill: #ff0000; fill-opacity: 0.3"/>
   </g>
   <g id="PolyCollection_6">
    <path d="M 151.280614 97.515763 
L 141.91736 97.515763 
L 141.831964 97.004241 
L 141.760463 96.492719 
L 141.703352 95.981197 
L 141.660978 95.469675 
L 141.633538 94.958154 
L 141.621077 94.446632 
L 141.623491 93.93511 
L 141.64053 93.423588 
L 141.671807 92.912066 
L 141.716804 92.400544 
L 141.774888 91.889022 
L 141.845321 91.377501 
L 141.927275 90.865979 
L 142.019846 90.354457 
L 142.122075 89.842935 
L 142.232958 89.331413 
L 142.351463 88.819891 
L 142.476549 88.308369 
L 142.607178 87.796848 
L 142.742328 87.285326 
L 142.881005 86.773804 
L 143.022253 86.262282 
L 143.165167 85.75076 
L 143.308892 85.239238 
L 143.452636 84.727717 
L 143.59567 84.216195 
L 143.73733 83.704673 
L 143.877018 83.193151 
L 144.014201 82.681629 
L 144.148411 82.170107 
L 144.279237 81.658585 
L 144.406327 81.147064 
L 144.52938 80.635542 
L 144.648144 80.12402 
L 144.762405 79.612498 
L 144.871992 79.100976 
L 144.976762 78.589454 
L 145.076601 78.077932 
L 145.171418 77.566411 
L 145.261142 77.054889 
L 145.345714 76.543367 
L 145.425091 76.031845 
L 145.499236 75.520323 
L 145.568121 75.008801 
L 145.631721 74.497279 
L 145.690016 73.985758 
L 145.742988 73.474236 
L 145.790622 72.962714 
L 145.832902 72.451192 
L 145.869817 71.93967 
L 145.901355 71.428148 
L 145.927508 70.916627 
L 145.948273 70.405105 
L 145.963648 69.893583 
L 145.973641 69.382061 
L 145.978265 68.870539 
L 145.977544 68.359017 
L 145.971512 67.847495 
L 145.960217 67.335974 
L 145.943724 66.824452 
L 145.922115 66.31293 
L 145.895495 65.801408 
L 145.86399 65.289886 
L 145.827754 64.778364 
L 145.786968 64.266842 
L 145.741845 63.755321 
L 145.69263 63.243799 
L 145.639602 62.732277 
L 145.583076 62.220755 
L 145.523405 61.709233 
L 145.460976 61.197711 
L 145.396213 60.68619 
L 145.329575 60.174668 
L 145.261554 59.663146 
L 145.192673 59.151624 
L 145.123478 58.640102 
L 145.054542 58.12858 
L 144.986451 57.617058 
L 144.919803 57.105537 
L 144.855203 56.594015 
L 144.793252 56.082493 
L 144.73454 55.570971 
L 144.679643 55.059449 
L 144.62911 54.547927 
L 144.583457 54.036405 
L 144.543162 53.524884 
L 144.508655 53.013362 
L 144.480313 52.50184 
L 144.458452 51.990318 
L 144.443326 51.478796 
L 144.435122 50.967274 
L 144.433952 50.455752 
L 144.439858 49.944231 
L 144.452811 49.432709 
L 144.472705 48.921187 
L 144.499366 48.409665 
L 144.532552 47.898143 
L 144.571959 47.386621 
L 144.617221 46.8751 
L 148.580753 46.8751 
L 148.580753 46.8751 
L 148.626015 47.386621 
L 148.665422 47.898143 
L 148.698608 48.409665 
L 148.725269 48.921187 
L 148.745163 49.432709 
L 148.758115 49.944231 
L 148.764022 50.455752 
L 148.762852 50.967274 
L 148.754647 51.478796 
L 148.739522 51.990318 
L 148.717661 52.50184 
L 148.689319 53.013362 
L 148.654812 53.524884 
L 148.614517 54.036405 
L 148.568864 54.547927 
L 148.518331 55.059449 
L 148.463434 55.570971 
L 148.404722 56.082493 
L 148.342771 56.594015 
L 148.278171 57.105537 
L 148.211523 57.617058 
L 148.143432 58.12858 
L 148.074496 58.640102 
L 148.005301 59.151624 
L 147.93642 59.663146 
L 147.868399 60.174668 
L 147.801761 60.68619 
L 147.736998 61.197711 
L 147.674569 61.709233 
L 147.614897 62.220755 
L 147.558372 62.732277 
L 147.505344 63.243799 
L 147.456129 63.755321 
L 147.411006 64.266842 
L 147.37022 64.778364 
L 147.333984 65.289886 
L 147.302479 65.801408 
L 147.275859 66.31293 
L 147.25425 66.824452 
L 147.237757 67.335974 
L 147.226462 67.847495 
L 147.22043 68.359017 
L 147.219708 68.870539 
L 147.224332 69.382061 
L 147.234325 69.893583 
L 147.249701 70.405105 
L 147.270466 70.916627 
L 147.296619 71.428148 
L 147.328157 71.93967 
L 147.365072 72.451192 
L 147.407352 72.962714 
L 147.454986 73.474236 
L 147.507958 73.985758 
L 147.566253 74.497279 
L 147.629853 75.008801 
L 147.698738 75.520323 
L 147.772883 76.031845 
L 147.852259 76.543367 
L 147.936832 77.054889 
L 148.026555 77.566411 
L 148.121373 78.077932 
L 148.221212 78.589454 
L 148.325982 79.100976 
L 148.435568 79.612498 
L 148.54983 80.12402 
L 148.668593 80.635542 
L 148.791647 81.147064 
L 148.918737 81.658585 
L 149.049563 82.170107 
L 149.183773 82.681629 
L 149.320956 83.193151 
L 149.460644 83.704673 
L 149.602304 84.216195 
L 149.745338 84.727717 
L 149.889082 85.239238 
L 150.032807 85.75076 
L 150.175721 86.262282 
L 150.316969 86.773804 
L 150.455646 87.285326 
L 150.590796 87.796848 
L 150.721425 88.308369 
L 150.846511 88.819891 
L 150.965016 89.331413 
L 151.075899 89.842935 
L 151.178127 90.354457 
L 151.270699 90.865979 
L 151.352653 91.377501 
L 151.423086 91.889022 
L 151.48117 92.400544 
L 151.526167 92.912066 
L 151.557444 93.423588 
L 151.574483 93.93511 
L 151.576897 94.446632 
L 151.564436 94.958154 
L 151.536996 95.469675 
L 151.494622 95.981197 
L 151.43751 96.492719 
L 151.366009 97.004241 
L 151.280614 97.515763 
z
" clip-path="url(#p12d86eaf07)" style="fill: #ff0000; fill-opacity: 0.3"/>
   </g>
   <g id="PolyCollection_7">
    <path d="M 162.870927 97.856142 
L 153.938696 97.856142 
L 153.784478 97.291033 
L 153.655855 96.725925 
L 153.554755 96.160816 
L 153.482525 95.595707 
L 153.439883 95.030599 
L 153.426902 94.46549 
L 153.443005 93.900381 
L 153.486993 93.335272 
L 153.55708 92.770164 
L 153.650962 92.205055 
L 153.765891 91.639946 
L 153.898761 91.074837 
L 154.046208 90.509729 
L 154.204704 89.94462 
L 154.370658 89.379511 
L 154.540509 88.814402 
L 154.710807 88.249294 
L 154.878293 87.684185 
L 155.039956 87.119076 
L 155.193087 86.553967 
L 155.33531 85.988859 
L 155.464606 85.42375 
L 155.579327 84.858641 
L 155.678191 84.293532 
L 155.760281 83.728424 
L 155.825023 83.163315 
L 155.872178 82.598206 
L 155.901813 82.033097 
L 155.914286 81.467989 
L 155.910222 80.90288 
L 155.890495 80.337771 
L 155.856214 79.772662 
L 155.808699 79.207554 
L 155.749474 78.642445 
L 155.680248 78.077336 
L 155.602898 77.512227 
L 155.519453 76.947119 
L 155.43207 76.38201 
L 155.343008 75.816901 
L 155.2546 75.251792 
L 155.169208 74.686684 
L 155.08919 74.121575 
L 155.016846 73.556466 
L 154.954372 72.991357 
L 154.903805 72.426249 
L 154.866973 71.86114 
L 154.845443 71.296031 
L 154.840478 70.730922 
L 154.853 70.165814 
L 154.883557 69.600705 
L 154.932308 69.035596 
L 154.999019 68.470487 
L 155.083065 67.905379 
L 155.183453 67.34027 
L 155.298855 66.775161 
L 155.427647 66.210052 
L 155.567963 65.644944 
L 155.717749 65.079835 
L 155.874832 64.514726 
L 156.036977 63.949617 
L 156.201951 63.384509 
L 156.36758 62.8194 
L 156.531806 62.254291 
L 156.692721 61.689182 
L 156.848612 61.124074 
L 156.997982 60.558965 
L 157.139565 59.993856 
L 157.272336 59.428747 
L 157.395503 58.863639 
L 157.508503 58.29853 
L 157.610984 57.733421 
L 157.702786 57.168313 
L 157.783915 56.603204 
L 157.854527 56.038095 
L 157.914895 55.472986 
L 157.965395 54.907878 
L 158.00648 54.342769 
L 158.038666 53.77766 
L 158.062519 53.212551 
L 158.07864 52.647443 
L 158.087662 52.082334 
L 158.09024 51.517225 
L 158.087054 50.952116 
L 158.078798 50.387008 
L 158.066187 49.821899 
L 158.04995 49.25679 
L 158.030829 48.691681 
L 158.009574 48.126573 
L 157.98694 47.561464 
L 157.963675 46.996355 
L 157.940516 46.431246 
L 157.918173 45.866138 
L 157.89732 45.301029 
L 157.87858 44.73592 
L 157.862514 44.170811 
L 157.849606 43.605703 
L 157.840255 43.040594 
L 157.834761 42.475485 
L 157.833324 41.910376 
L 158.976299 41.910376 
L 158.976299 41.910376 
L 158.974862 42.475485 
L 158.969368 43.040594 
L 158.960017 43.605703 
L 158.947109 44.170811 
L 158.931043 44.73592 
L 158.912303 45.301029 
L 158.89145 45.866138 
L 158.869107 46.431246 
L 158.845948 46.996355 
L 158.822683 47.561464 
L 158.800049 48.126573 
L 158.778794 48.691681 
L 158.759673 49.25679 
L 158.743436 49.821899 
L 158.730825 50.387008 
L 158.722569 50.952116 
L 158.719383 51.517225 
L 158.721961 52.082334 
L 158.730983 52.647443 
L 158.747104 53.212551 
L 158.770956 53.77766 
L 158.803143 54.342769 
L 158.844228 54.907878 
L 158.894727 55.472986 
L 158.955096 56.038095 
L 159.025707 56.603204 
L 159.106837 57.168313 
L 159.198639 57.733421 
L 159.30112 58.29853 
L 159.41412 58.863639 
L 159.537287 59.428747 
L 159.670057 59.993856 
L 159.811641 60.558965 
L 159.961011 61.124074 
L 160.116902 61.689182 
L 160.277817 62.254291 
L 160.442042 62.8194 
L 160.607672 63.384509 
L 160.772646 63.949617 
L 160.934791 64.514726 
L 161.091874 65.079835 
L 161.24166 65.644944 
L 161.381976 66.210052 
L 161.510768 66.775161 
L 161.62617 67.34027 
L 161.726558 67.905379 
L 161.810604 68.470487 
L 161.877315 69.035596 
L 161.926066 69.600705 
L 161.956623 70.165814 
L 161.969144 70.730922 
L 161.96418 71.296031 
L 161.94265 71.86114 
L 161.905818 72.426249 
L 161.855251 72.991357 
L 161.792777 73.556466 
L 161.720433 74.121575 
L 161.640415 74.686684 
L 161.555023 75.251792 
L 161.466614 75.816901 
L 161.377553 76.38201 
L 161.29017 76.947119 
L 161.206725 77.512227 
L 161.129375 78.077336 
L 161.060149 78.642445 
L 161.000924 79.207554 
L 160.953409 79.772662 
L 160.919127 80.337771 
L 160.899401 80.90288 
L 160.895337 81.467989 
L 160.90781 82.033097 
L 160.937445 82.598206 
L 160.9846 83.163315 
L 161.049342 83.728424 
L 161.131431 84.293532 
L 161.230296 84.858641 
L 161.345017 85.42375 
L 161.474313 85.988859 
L 161.616536 86.553967 
L 161.769667 87.119076 
L 161.93133 87.684185 
L 162.098816 88.249294 
L 162.269114 88.814402 
L 162.438965 89.379511 
L 162.604919 89.94462 
L 162.763415 90.509729 
L 162.910862 91.074837 
L 163.043732 91.639946 
L 163.158661 92.205055 
L 163.252543 92.770164 
L 163.32263 93.335272 
L 163.366618 93.900381 
L 163.382721 94.46549 
L 163.36974 95.030599 
L 163.327098 95.595707 
L 163.254867 96.160816 
L 163.153768 96.725925 
L 163.025145 97.291033 
L 162.870927 97.856142 
z
" clip-path="url(#p12d86eaf07)" style="fill: #ff0000; fill-opacity: 0.3"/>
   </g>
   <g id="PolyCollection_8">
    <path d="M 179.785825 97.888211 
L 170.302548 97.888211 
L 170.228013 97.37214 
L 170.167142 96.856068 
L 170.120338 96.339996 
L 170.087868 95.823925 
L 170.069853 95.307853 
L 170.066277 94.791781 
L 170.076982 94.27571 
L 170.101674 93.759638 
L 170.139933 93.243566 
L 170.191212 92.727495 
L 170.254857 92.211423 
L 170.330114 91.695351 
L 170.416141 91.17928 
L 170.512022 90.663208 
L 170.616784 90.147137 
L 170.72941 89.631065 
L 170.848853 89.114993 
L 170.974051 88.598922 
L 171.103942 88.08285 
L 171.237473 87.566778 
L 171.373616 87.050707 
L 171.511379 86.534635 
L 171.649812 86.018563 
L 171.788016 85.502492 
L 171.92515 84.98642 
L 172.060437 84.470348 
L 172.193165 83.954277 
L 172.32269 83.438205 
L 172.448437 82.922133 
L 172.569902 82.406062 
L 172.686645 81.88999 
L 172.798291 81.373918 
L 172.904528 80.857847 
L 173.0051 80.341775 
L 173.099808 79.825703 
L 173.188499 79.309632 
L 173.271068 78.79356 
L 173.347447 78.277489 
L 173.417607 77.761417 
L 173.481552 77.245345 
L 173.53931 76.729274 
L 173.590939 76.213202 
L 173.636514 75.69713 
L 173.676131 75.181059 
L 173.709904 74.664987 
L 173.73796 74.148915 
L 173.760439 73.632844 
L 173.777493 73.116772 
L 173.789287 72.6007 
L 173.795997 72.084629 
L 173.797807 71.568557 
L 173.794914 71.052485 
L 173.787526 70.536414 
L 173.775861 70.020342 
L 173.760149 69.50427 
L 173.740633 68.988199 
L 173.717565 68.472127 
L 173.691214 67.956056 
L 173.661857 67.439984 
L 173.629788 66.923912 
L 173.595309 66.407841 
L 173.558738 65.891769 
L 173.520402 65.375697 
L 173.480639 64.859626 
L 173.439798 64.343554 
L 173.398234 63.827482 
L 173.35631 63.311411 
L 173.314393 62.795339 
L 173.272853 62.279267 
L 173.232059 61.763196 
L 173.192378 61.247124 
L 173.154172 60.731052 
L 173.117795 60.214981 
L 173.083591 59.698909 
L 173.051887 59.182837 
L 173.022996 58.666766 
L 172.997211 58.150694 
L 172.9748 57.634622 
L 172.95601 57.118551 
L 172.941056 56.602479 
L 172.930126 56.086408 
L 172.923377 55.570336 
L 172.920931 55.054264 
L 172.922878 54.538193 
L 172.929272 54.022121 
L 172.940132 53.506049 
L 172.955442 52.989978 
L 172.975153 52.473906 
L 172.99918 51.957834 
L 173.027408 51.441763 
L 173.059689 50.925691 
L 173.09585 50.409619 
L 173.135686 49.893548 
L 173.178974 49.377476 
L 173.225464 48.861404 
L 173.274892 48.345333 
L 173.326976 47.829261 
L 173.381423 47.313189 
L 173.437928 46.797118 
L 176.650445 46.797118 
L 176.650445 46.797118 
L 176.70695 47.313189 
L 176.761397 47.829261 
L 176.813481 48.345333 
L 176.862909 48.861404 
L 176.9094 49.377476 
L 176.952687 49.893548 
L 176.992524 50.409619 
L 177.028684 50.925691 
L 177.060965 51.441763 
L 177.089193 51.957834 
L 177.113221 52.473906 
L 177.132931 52.989978 
L 177.148241 53.506049 
L 177.159101 54.022121 
L 177.165495 54.538193 
L 177.167442 55.054264 
L 177.164996 55.570336 
L 177.158247 56.086408 
L 177.147317 56.602479 
L 177.132364 57.118551 
L 177.113573 57.634622 
L 177.091163 58.150694 
L 177.065377 58.666766 
L 177.036486 59.182837 
L 177.004782 59.698909 
L 176.970578 60.214981 
L 176.934201 60.731052 
L 176.895995 61.247124 
L 176.856314 61.763196 
L 176.81552 62.279267 
L 176.77398 62.795339 
L 176.732063 63.311411 
L 176.690139 63.827482 
L 176.648575 64.343554 
L 176.607734 64.859626 
L 176.567972 65.375697 
L 176.529636 65.891769 
L 176.493064 66.407841 
L 176.458586 66.923912 
L 176.426516 67.439984 
L 176.397159 67.956056 
L 176.370808 68.472127 
L 176.34774 68.988199 
L 176.328224 69.50427 
L 176.312512 70.020342 
L 176.300847 70.536414 
L 176.293459 71.052485 
L 176.290566 71.568557 
L 176.292376 72.084629 
L 176.299086 72.6007 
L 176.31088 73.116772 
L 176.327935 73.632844 
L 176.350413 74.148915 
L 176.378469 74.664987 
L 176.412242 75.181059 
L 176.451859 75.69713 
L 176.497435 76.213202 
L 176.549063 76.729274 
L 176.606822 77.245345 
L 176.670766 77.761417 
L 176.740926 78.277489 
L 176.817306 78.79356 
L 176.899874 79.309632 
L 176.988565 79.825703 
L 177.083273 80.341775 
L 177.183846 80.857847 
L 177.290082 81.373918 
L 177.401729 81.88999 
L 177.518471 82.406062 
L 177.639936 82.922133 
L 177.765684 83.438205 
L 177.895209 83.954277 
L 178.027936 84.470348 
L 178.163223 84.98642 
L 178.300357 85.502492 
L 178.438561 86.018563 
L 178.576994 86.534635 
L 178.714757 87.050707 
L 178.850901 87.566778 
L 178.984432 88.08285 
L 179.114322 88.598922 
L 179.23952 89.114993 
L 179.358963 89.631065 
L 179.471589 90.147137 
L 179.576352 90.663208 
L 179.672233 91.17928 
L 179.758259 91.695351 
L 179.833516 92.211423 
L 179.897161 92.727495 
L 179.948441 93.243566 
L 179.986699 93.759638 
L 180.011392 94.27571 
L 180.022097 94.791781 
L 180.01852 95.307853 
L 180.000506 95.823925 
L 179.968035 96.339996 
L 179.921231 96.856068 
L 179.860361 97.37214 
L 179.785825 97.888211 
z
" clip-path="url(#p12d86eaf07)" style="fill: #ff0000; fill-opacity: 0.3"/>
   </g>
   <g id="PolyCollection_9">
    <path d="M 191.706356 98.005909 
L 181.993666 98.005909 
L 181.936432 97.132355 
L 181.896919 96.258802 
L 181.875441 95.385248 
L 181.872101 94.511694 
L 181.886794 93.63814 
L 181.919208 92.764587 
L 181.968831 91.891033 
L 182.034964 91.017479 
L 182.116732 90.143926 
L 182.213106 89.270372 
L 182.322922 88.396818 
L 182.4449 87.523264 
L 182.577669 86.649711 
L 182.719792 85.776157 
L 182.869792 84.902603 
L 183.02617 84.02905 
L 183.187435 83.155496 
L 183.352118 82.281942 
L 183.518802 81.408388 
L 183.686129 80.534835 
L 183.852823 79.661281 
L 184.017701 78.787727 
L 184.179681 77.914174 
L 184.337792 77.04062 
L 184.491177 76.167066 
L 184.639099 75.293512 
L 184.780937 74.419959 
L 184.916185 73.546405 
L 185.04445 72.672851 
L 185.165444 71.799298 
L 185.278979 70.925744 
L 185.384957 70.05219 
L 185.483363 69.178636 
L 185.574253 68.305083 
L 185.657745 67.431529 
L 185.734012 66.557975 
L 185.803268 65.684421 
L 185.865759 64.810868 
L 185.921759 63.937314 
L 185.971553 63.06376 
L 186.015436 62.190207 
L 186.053705 61.316653 
L 186.08665 60.443099 
L 186.114552 59.569545 
L 186.137676 58.695992 
L 186.156272 57.822438 
L 186.170569 56.948884 
L 186.180776 56.075331 
L 186.187079 55.201777 
L 186.189648 54.328223 
L 186.188629 53.454669 
L 186.184157 52.581116 
L 186.176351 51.707562 
L 186.165318 50.834008 
L 186.151162 49.960455 
L 186.133982 49.086901 
L 186.113883 48.213347 
L 186.090971 47.339793 
L 186.065366 46.46624 
L 186.037201 45.592686 
L 186.006624 44.719132 
L 185.973806 43.845579 
L 185.938939 42.972025 
L 185.902236 42.098471 
L 185.863938 41.224917 
L 185.824307 40.351364 
L 185.783629 39.47781 
L 185.742209 38.604256 
L 185.700375 37.730702 
L 185.658465 36.857149 
L 185.616832 35.983595 
L 185.575835 35.110041 
L 185.535836 34.236488 
L 185.497194 33.362934 
L 185.460263 32.48938 
L 185.425382 31.615826 
L 185.392877 30.742273 
L 185.363051 29.868719 
L 185.336184 28.995165 
L 185.312525 28.121612 
L 185.292296 27.248058 
L 185.275684 26.374504 
L 185.262841 25.50095 
L 185.253884 24.627397 
L 185.248895 23.753843 
L 185.247918 22.880289 
L 185.250965 22.006736 
L 185.258012 21.133182 
L 185.269005 20.259628 
L 185.28386 19.386074 
L 185.302462 18.512521 
L 185.324675 17.638967 
L 185.350338 16.765413 
L 185.379268 15.89186 
L 185.411266 15.018306 
L 185.446117 14.144752 
L 185.483592 13.271198 
L 185.523452 12.397645 
L 185.565449 11.524091 
L 188.134573 11.524091 
L 188.134573 11.524091 
L 188.17657 12.397645 
L 188.21643 13.271198 
L 188.253905 14.144752 
L 188.288756 15.018306 
L 188.320754 15.89186 
L 188.349685 16.765413 
L 188.375347 17.638967 
L 188.39756 18.512521 
L 188.416163 19.386074 
L 188.431017 20.259628 
L 188.44201 21.133182 
L 188.449058 22.006736 
L 188.452104 22.880289 
L 188.451128 23.753843 
L 188.446138 24.627397 
L 188.437181 25.50095 
L 188.424338 26.374504 
L 188.407726 27.248058 
L 188.387497 28.121612 
L 188.363839 28.995165 
L 188.336971 29.868719 
L 188.307145 30.742273 
L 188.27464 31.615826 
L 188.239759 32.48938 
L 188.202828 33.362934 
L 188.164186 34.236488 
L 188.124187 35.110041 
L 188.08319 35.983595 
L 188.041557 36.857149 
L 187.999647 37.730702 
L 187.957813 38.604256 
L 187.916394 39.47781 
L 187.875715 40.351364 
L 187.836084 41.224917 
L 187.797786 42.098471 
L 187.761084 42.972025 
L 187.726216 43.845579 
L 187.693398 44.719132 
L 187.662821 45.592686 
L 187.634656 46.46624 
L 187.609051 47.339793 
L 187.586139 48.213347 
L 187.56604 49.086901 
L 187.548861 49.960455 
L 187.534705 50.834008 
L 187.523672 51.707562 
L 187.515865 52.581116 
L 187.511393 53.454669 
L 187.510375 54.328223 
L 187.512943 55.201777 
L 187.519247 56.075331 
L 187.529453 56.948884 
L 187.54375 57.822438 
L 187.562346 58.695992 
L 187.585471 59.569545 
L 187.613372 60.443099 
L 187.646317 61.316653 
L 187.684586 62.190207 
L 187.72847 63.06376 
L 187.778264 63.937314 
L 187.834263 64.810868 
L 187.896755 65.684421 
L 187.96601 66.557975 
L 188.042277 67.431529 
L 188.12577 68.305083 
L 188.216659 69.178636 
L 188.315065 70.05219 
L 188.421043 70.925744 
L 188.534578 71.799298 
L 188.655573 72.672851 
L 188.783838 73.546405 
L 188.919086 74.419959 
L 189.060923 75.293512 
L 189.208845 76.167066 
L 189.362231 77.04062 
L 189.520341 77.914174 
L 189.682321 78.787727 
L 189.847199 79.661281 
L 190.013893 80.534835 
L 190.181221 81.408388 
L 190.347904 82.281942 
L 190.512588 83.155496 
L 190.673852 84.02905 
L 190.83023 84.902603 
L 190.98023 85.776157 
L 191.122354 86.649711 
L 191.255123 87.523264 
L 191.3771 88.396818 
L 191.486916 89.270372 
L 191.583291 90.143926 
L 191.665059 91.017479 
L 191.731191 91.891033 
L 191.780814 92.764587 
L 191.813228 93.63814 
L 191.827921 94.511694 
L 191.824581 95.385248 
L 191.803103 96.258802 
L 191.76359 97.132355 
L 191.706356 98.005909 
z
" clip-path="url(#p12d86eaf07)" style="fill: #ff0000; fill-opacity: 0.3"/>
   </g>
   <g id="matplotlib.axis_1">
    <g id="xtick_1">
     <g id="line2d_1">
      <defs>
       <path id="m9c0698c920" d="M 0 0 
L 0 3.5 
" style="stroke: #000000; stroke-width: 0.8"/>
      </defs>
      <g>
       <use xlink:href="#m9c0698c920" x="44.624013" y="102.33" style="stroke: #000000; stroke-width: 0.8"/>
      </g>
     </g>
     <g id="text_1">
      <!-- $\mathrm{1}$ -->
      <g transform="translate(42.133345 116.248498)scale(0.1 -0.1)">
       <defs>
        <path id="CMR17-31" d="M 1702 4083 
C 1702 4217 1696 4224 1606 4224 
C 1357 3927 979 3833 621 3820 
C 602 3820 570 3820 563 3808 
C 557 3795 557 3782 557 3648 
C 755 3648 1088 3686 1344 3839 
L 1344 467 
C 1344 243 1331 166 781 166 
L 589 166 
L 589 0 
C 896 6 1216 12 1523 12 
C 1830 12 2150 6 2458 0 
L 2458 166 
L 2266 166 
C 1715 166 1702 236 1702 467 
L 1702 4083 
z
" transform="scale(0.015625)"/>
       </defs>
       <use xlink:href="#CMR17-31" transform="scale(0.996264)"/>
      </g>
     </g>
    </g>
    <g id="xtick_2">
     <g id="line2d_2">
      <g>
       <use xlink:href="#m9c0698c920" x="73.069212" y="102.33" style="stroke: #000000; stroke-width: 0.8"/>
      </g>
     </g>
     <g id="text_2">
      <!-- $\mathrm{2}$ -->
      <g transform="translate(70.578545 116.248498)scale(0.1 -0.1)">
       <defs>
        <path id="CMR17-32" d="M 2669 990 
L 2554 990 
C 2490 537 2438 460 2413 422 
C 2381 371 1920 371 1830 371 
L 602 371 
C 832 620 1280 1073 1824 1596 
C 2214 1966 2669 2400 2669 3033 
C 2669 3788 2067 4224 1395 4224 
C 691 4224 262 3603 262 3027 
C 262 2777 448 2745 525 2745 
C 589 2745 781 2783 781 3007 
C 781 3206 614 3264 525 3264 
C 486 3264 448 3257 422 3244 
C 544 3788 915 4057 1306 4057 
C 1862 4057 2227 3616 2227 3033 
C 2227 2477 1901 1998 1536 1583 
L 262 147 
L 262 0 
L 2515 0 
L 2669 990 
z
" transform="scale(0.015625)"/>
       </defs>
       <use xlink:href="#CMR17-32" transform="scale(0.996264)"/>
      </g>
     </g>
    </g>
    <g id="xtick_3">
     <g id="line2d_3">
      <g>
       <use xlink:href="#m9c0698c920" x="101.514412" y="102.33" style="stroke: #000000; stroke-width: 0.8"/>
      </g>
     </g>
     <g id="text_3">
      <!-- $\mathrm{4}$ -->
      <g transform="translate(99.023745 116.248498)scale(0.1 -0.1)">
       <defs>
        <path id="CMR17-34" d="M 2150 4147 
C 2150 4281 2144 4288 2029 4288 
L 128 1254 
L 128 1088 
L 1779 1088 
L 1779 460 
C 1779 230 1766 166 1318 166 
L 1197 166 
L 1197 0 
C 1402 12 1747 12 1965 12 
C 2182 12 2528 12 2733 0 
L 2733 166 
L 2611 166 
C 2163 166 2150 230 2150 460 
L 2150 1088 
L 2803 1088 
L 2803 1254 
L 2150 1254 
L 2150 4147 
z
M 1798 3723 
L 1798 1254 
L 256 1254 
L 1798 3723 
z
" transform="scale(0.015625)"/>
       </defs>
       <use xlink:href="#CMR17-34" transform="scale(0.996264)"/>
      </g>
     </g>
    </g>
    <g id="xtick_4">
     <g id="line2d_4">
      <g>
       <use xlink:href="#m9c0698c920" x="118.153787" y="102.33" style="stroke: #000000; stroke-width: 0.8"/>
      </g>
     </g>
     <g id="text_4">
      <!-- $\mathrm{}$ -->
      <g transform="translate(118.153787 116.248498)scale(0.1 -0.1)"/>
     </g>
    </g>
    <g id="xtick_5">
     <g id="line2d_5">
      <g>
       <use xlink:href="#m9c0698c920" x="129.959612" y="102.33" style="stroke: #000000; stroke-width: 0.8"/>
      </g>
     </g>
     <g id="text_5">
      <!-- $\mathrm{8}$ -->
      <g transform="translate(127.468944 116.248498)scale(0.1 -0.1)">
       <defs>
        <path id="CMR17-38" d="M 1741 2289 
C 2144 2494 2554 2803 2554 3298 
C 2554 3884 1990 4224 1472 4224 
C 890 4224 378 3800 378 3215 
C 378 3054 416 2777 666 2533 
C 730 2469 998 2276 1171 2154 
C 883 2006 211 1652 211 945 
C 211 282 838 -128 1459 -128 
C 2144 -128 2720 366 2720 1022 
C 2720 1607 2330 1877 2074 2051 
L 1741 2289 
z
M 902 2855 
C 851 2887 595 3086 595 3388 
C 595 3781 998 4076 1459 4076 
C 1965 4076 2336 3716 2336 3298 
C 2336 2700 1670 2359 1638 2359 
C 1632 2359 1626 2359 1574 2398 
L 902 2855 
z
M 2080 1536 
C 2176 1466 2483 1253 2483 861 
C 2483 385 2010 25 1472 25 
C 890 25 448 443 448 951 
C 448 1459 838 1884 1280 2083 
L 2080 1536 
z
" transform="scale(0.015625)"/>
       </defs>
       <use xlink:href="#CMR17-38" transform="scale(0.996264)"/>
      </g>
     </g>
    </g>
    <g id="xtick_6">
     <g id="line2d_6">
      <g>
       <use xlink:href="#m9c0698c920" x="146.598987" y="102.33" style="stroke: #000000; stroke-width: 0.8"/>
      </g>
     </g>
     <g id="text_6">
      <!-- $\mathrm{}$ -->
      <g transform="translate(146.598987 116.248498)scale(0.1 -0.1)"/>
     </g>
    </g>
    <g id="xtick_7">
     <g id="line2d_7">
      <g>
       <use xlink:href="#m9c0698c920" x="158.404811" y="102.33" style="stroke: #000000; stroke-width: 0.8"/>
      </g>
     </g>
     <g id="text_7">
      <!-- $\mathrm{16}$ -->
      <g transform="translate(153.423476 116.248498)scale(0.1 -0.1)">
       <defs>
        <path id="CMR17-36" d="M 678 2198 
C 678 3712 1395 4076 1811 4076 
C 1946 4076 2272 4049 2400 3782 
C 2298 3782 2106 3782 2106 3558 
C 2106 3385 2246 3328 2336 3328 
C 2394 3328 2566 3353 2566 3571 
C 2566 3987 2246 4224 1805 4224 
C 1043 4224 243 3411 243 2011 
C 243 257 966 -128 1478 -128 
C 2099 -128 2688 431 2688 1295 
C 2688 2101 2170 2688 1517 2688 
C 1126 2688 838 2430 678 1979 
L 678 2198 
z
M 1478 25 
C 691 25 691 1212 691 1450 
C 691 1914 909 2585 1504 2585 
C 1613 2585 1926 2585 2138 2140 
C 2253 1889 2253 1624 2253 1302 
C 2253 954 2253 696 2118 438 
C 1978 173 1773 25 1478 25 
z
" transform="scale(0.015625)"/>
       </defs>
       <use xlink:href="#CMR17-31" transform="scale(0.996264)"/>
       <use xlink:href="#CMR17-36" transform="translate(45.690477 0)scale(0.996264)"/>
      </g>
     </g>
    </g>
    <g id="xtick_8">
     <g id="line2d_8">
      <g>
       <use xlink:href="#m9c0698c920" x="175.044187" y="102.33" style="stroke: #000000; stroke-width: 0.8"/>
      </g>
     </g>
     <g id="text_8">
      <!-- $\mathrm{}$ -->
      <g transform="translate(175.044187 116.248498)scale(0.1 -0.1)"/>
     </g>
    </g>
    <g id="xtick_9">
     <g id="line2d_9">
      <g>
       <use xlink:href="#m9c0698c920" x="186.850011" y="102.33" style="stroke: #000000; stroke-width: 0.8"/>
      </g>
     </g>
     <g id="text_9">
      <!-- $\mathrm{32}$ -->
      <g transform="translate(181.868676 116.248498)scale(0.1 -0.1)">
       <defs>
        <path id="CMR17-33" d="M 1414 2176 
C 1984 2176 2234 1673 2234 1094 
C 2234 322 1824 25 1453 25 
C 1114 25 563 193 390 691 
C 422 678 454 678 486 678 
C 640 678 755 780 755 947 
C 755 1132 614 1216 486 1216 
C 378 1216 211 1164 211 927 
C 211 335 787 -128 1466 -128 
C 2176 -128 2720 432 2720 1087 
C 2720 1718 2208 2176 1600 2246 
C 2086 2347 2554 2776 2554 3353 
C 2554 3856 2048 4224 1472 4224 
C 890 4224 378 3862 378 3347 
C 378 3123 544 3084 627 3084 
C 762 3084 877 3167 877 3334 
C 877 3500 762 3584 627 3584 
C 602 3584 570 3584 544 3571 
C 730 3999 1235 4076 1459 4076 
C 1683 4076 2106 3966 2106 3347 
C 2106 3167 2080 2851 1862 2574 
C 1670 2329 1453 2316 1242 2297 
C 1210 2297 1062 2284 1037 2284 
C 992 2278 966 2272 966 2227 
C 966 2182 973 2176 1101 2176 
L 1414 2176 
z
" transform="scale(0.015625)"/>
       </defs>
       <use xlink:href="#CMR17-33" transform="scale(0.996264)"/>
       <use xlink:href="#CMR17-32" transform="translate(45.690477 0)scale(0.996264)"/>
      </g>
     </g>
    </g>
    <g id="text_10">
     <!-- $\mathrm{Number\: of\: threads}$ -->
     <g transform="translate(75.443631 129.104175)scale(0.1 -0.1)">
      <defs>
       <path id="CMR17-4e" d="M 1312 4275 
C 1267 4345 1261 4352 1139 4352 
L 326 4352 
L 326 4185 
L 448 4185 
C 704 4185 819 4153 838 4147 
L 838 624 
C 838 465 838 166 326 166 
L 326 0 
C 474 12 742 12 902 12 
C 1062 12 1331 12 1478 0 
L 1478 166 
C 966 166 966 465 966 624 
L 966 4057 
C 1011 4019 1011 4007 1056 3943 
L 3430 76 
C 3475 0 3494 0 3526 0 
C 3590 0 3590 19 3590 140 
L 3590 3726 
C 3590 3885 3590 4185 4102 4185 
L 4102 4352 
C 3955 4339 3686 4339 3526 4339 
C 3366 4339 3098 4339 2950 4352 
L 2950 4185 
C 3462 4185 3462 3885 3462 3726 
L 3462 777 
L 1312 4275 
z
" transform="scale(0.015625)"/>
       <path id="CMR17-75" d="M 1882 2745 
L 1882 2579 
C 2259 2579 2317 2540 2317 2229 
L 2317 1053 
C 2317 510 2029 38 1555 38 
C 1030 38 986 355 986 691 
L 986 2816 
L 211 2745 
L 211 2579 
C 467 2579 640 2579 646 2320 
L 646 1079 
C 646 646 646 368 813 187 
C 896 103 1056 -64 1517 -64 
C 2061 -64 2272 400 2323 536 
L 2330 536 
L 2330 -64 
L 3091 -13 
L 3091 154 
C 2714 154 2656 193 2656 503 
L 2656 2816 
L 1882 2745 
z
" transform="scale(0.015625)"/>
       <path id="CMR17-6d" d="M 4326 1954 
C 4326 2276 4269 2816 3507 2816 
C 3072 2816 2771 2520 2656 2173 
L 2650 2173 
C 2573 2700 2195 2816 1837 2816 
C 1331 2816 1069 2424 973 2166 
L 966 2166 
L 966 2816 
L 211 2745 
L 211 2578 
C 589 2578 646 2540 646 2231 
L 646 443 
C 646 198 621 166 211 166 
L 211 0 
C 365 12 646 12 813 12 
C 979 12 1267 12 1421 0 
L 1421 166 
C 1011 166 986 192 986 443 
L 986 1678 
C 986 2269 1344 2713 1792 2713 
C 2266 2713 2317 2289 2317 1980 
L 2317 443 
C 2317 198 2291 166 1882 166 
L 1882 0 
C 2035 12 2317 12 2483 12 
C 2650 12 2938 12 3091 0 
L 3091 166 
C 2682 166 2656 192 2656 443 
L 2656 1678 
C 2656 2269 3014 2713 3462 2713 
C 3936 2713 3987 2289 3987 1980 
L 3987 443 
C 3987 198 3962 166 3552 166 
L 3552 0 
C 3706 12 3987 12 4154 12 
C 4320 12 4608 12 4762 0 
L 4762 166 
C 4352 166 4326 192 4326 443 
L 4326 1954 
z
" transform="scale(0.015625)"/>
       <path id="CMR17-62" d="M 960 4416 
L 198 4345 
L 198 4179 
C 576 4179 634 4141 634 3843 
L 634 -13 
L 749 -13 
L 934 445 
C 1120 141 1395 -64 1766 -64 
C 2406 -64 3053 503 3053 1382 
C 3053 2209 2477 2816 1830 2816 
C 1434 2816 1152 2603 960 2351 
L 960 4416 
z
M 973 2022 
C 973 2138 973 2157 1062 2293 
C 1312 2681 1670 2713 1792 2713 
C 1984 2713 2643 2610 2643 1388 
C 2643 109 1888 38 1734 38 
C 1536 38 1248 115 1043 490 
C 973 613 973 626 973 742 
L 973 2022 
z
" transform="scale(0.015625)"/>
       <path id="CMR17-65" d="M 2438 1503 
C 2464 1529 2464 1542 2464 1606 
C 2464 2251 2118 2816 1389 2816 
C 710 2816 173 2175 173 1394 
C 173 554 781 -64 1459 -64 
C 2176 -64 2458 619 2458 755 
C 2458 800 2419 800 2406 800 
C 2362 800 2355 787 2330 709 
C 2189 270 1837 51 1504 51 
C 1229 51 954 206 781 490 
C 582 819 582 1200 582 1503 
L 2438 1503 
z
M 589 1600 
C 634 2511 1126 2713 1382 2713 
C 1818 2713 2112 2308 2118 1600 
L 589 1600 
z
" transform="scale(0.015625)"/>
       <path id="CMR17-72" d="M 960 1517 
C 960 2134 1222 2713 1702 2713 
C 1747 2713 1792 2707 1837 2687 
C 1837 2687 1696 2642 1696 2475 
C 1696 2321 1818 2257 1914 2257 
C 1990 2257 2131 2302 2131 2482 
C 2131 2687 1926 2816 1709 2816 
C 1222 2816 1011 2340 947 2115 
L 941 2115 
L 941 2816 
L 198 2745 
L 198 2578 
C 576 2578 634 2540 634 2231 
L 634 443 
C 634 198 608 166 198 166 
L 198 0 
C 352 12 646 12 813 12 
C 998 12 1325 12 1498 0 
L 1498 166 
C 1037 166 960 166 960 455 
L 960 1517 
z
" transform="scale(0.015625)"/>
       <path id="CMR17-6f" d="M 2758 1356 
C 2758 2176 2163 2816 1466 2816 
C 768 2816 173 2176 173 1356 
C 173 550 768 -64 1466 -64 
C 2163 -64 2758 550 2758 1356 
z
M 1466 51 
C 1165 51 909 230 762 480 
C 602 768 582 1126 582 1408 
C 582 1676 595 2009 762 2297 
C 890 2508 1139 2713 1466 2713 
C 1754 2713 1997 2553 2150 2329 
C 2349 2028 2349 1606 2349 1408 
C 2349 1158 2336 774 2163 467 
C 1984 172 1709 51 1466 51 
z
" transform="scale(0.015625)"/>
       <path id="CMR17-66" d="M 979 2585 
L 1709 2585 
L 1709 2752 
L 966 2752 
L 966 3539 
C 966 4076 1235 4377 1510 4377 
C 1594 4377 1690 4363 1754 4339 
C 1702 4326 1568 4281 1568 4121 
C 1568 3955 1696 3904 1786 3904 
C 1875 3904 2003 3955 2003 4121 
C 2003 4353 1773 4480 1517 4480 
C 1152 4480 653 4211 653 3526 
L 653 2752 
L 141 2752 
L 141 2585 
L 653 2585 
L 653 441 
C 653 198 627 166 218 166 
L 218 0 
C 371 12 666 12 832 12 
C 1018 12 1344 12 1517 0 
L 1517 166 
C 1056 166 979 166 979 454 
L 979 2585 
z
" transform="scale(0.015625)"/>
       <path id="CMR17-74" d="M 966 2585 
L 1862 2585 
L 1862 2752 
L 966 2752 
L 966 3968 
L 851 3968 
C 838 3292 614 2700 70 2687 
L 70 2585 
L 627 2585 
L 627 778 
C 627 655 627 -64 1370 -64 
C 1747 -64 1965 308 1965 784 
L 1965 1151 
L 1850 1151 
L 1850 790 
C 1850 347 1677 51 1408 51 
C 1222 51 966 179 966 765 
L 966 2585 
z
" transform="scale(0.015625)"/>
       <path id="CMR17-68" d="M 2656 1954 
C 2656 2282 2592 2816 1837 2816 
C 1312 2816 1056 2392 979 2179 
L 973 2179 
L 973 4416 
L 211 4345 
L 211 4179 
C 589 4179 646 4141 646 3843 
L 646 443 
C 646 198 621 166 211 166 
L 211 0 
C 365 12 646 12 813 12 
C 979 12 1267 12 1421 0 
L 1421 166 
C 1011 166 986 192 986 443 
L 986 1678 
C 986 2269 1344 2713 1792 2713 
C 2266 2713 2317 2289 2317 1980 
L 2317 443 
C 2317 198 2291 166 1882 166 
L 1882 0 
C 2035 12 2317 12 2483 12 
C 2650 12 2938 12 3091 0 
L 3091 166 
C 2682 166 2656 192 2656 443 
L 2656 1954 
z
" transform="scale(0.015625)"/>
       <path id="CMR17-61" d="M 2304 1656 
C 2304 2048 2304 2275 2035 2534 
C 1798 2751 1523 2816 1306 2816 
C 800 2816 435 2408 435 1977 
C 435 1740 627 1728 666 1728 
C 749 1728 896 1779 896 1958 
C 896 2118 774 2188 666 2188 
C 640 2188 608 2182 589 2176 
C 723 2594 1069 2713 1293 2713 
C 1613 2713 1965 2421 1965 1875 
L 1965 1632 
C 1587 1619 1133 1568 774 1373 
C 371 1147 256 822 256 576 
C 256 77 832 -64 1171 -64 
C 1523 -64 1850 135 1990 505 
C 2003 219 2182 -39 2464 -39 
C 2598 -39 2938 51 2938 563 
L 2938 926 
L 2822 926 
L 2822 557 
C 2822 161 2650 109 2566 109 
C 2304 109 2304 446 2304 732 
L 2304 1656 
z
M 1965 887 
C 1965 323 1568 38 1216 38 
C 896 38 646 278 646 576 
C 646 771 730 1114 1101 1322 
C 1408 1497 1760 1523 1965 1536 
L 1965 887 
z
" transform="scale(0.015625)"/>
       <path id="CMR17-64" d="M 1869 4345 
L 1869 4179 
C 2246 4179 2304 4141 2304 3843 
L 2304 2371 
C 2278 2403 2016 2816 1498 2816 
C 845 2816 211 2228 211 1376 
C 211 529 806 -64 1434 -64 
C 1978 -64 2259 361 2291 406 
L 2291 -64 
L 3066 -13 
L 3066 154 
C 2688 154 2630 193 2630 503 
L 2630 4416 
L 1869 4345 
z
M 2291 762 
C 2291 568 2176 393 2029 264 
C 1811 70 1594 38 1472 38 
C 1286 38 621 135 621 1369 
C 621 2636 1363 2713 1530 2713 
C 1824 2713 2061 2545 2208 2313 
C 2291 2177 2291 2157 2291 2041 
L 2291 762 
z
" transform="scale(0.015625)"/>
       <path id="CMR17-73" d="M 1978 2688 
C 1978 2803 1971 2809 1933 2809 
C 1907 2809 1901 2803 1824 2707 
C 1805 2681 1747 2617 1728 2592 
C 1523 2809 1235 2816 1126 2816 
C 416 2816 160 2444 160 2073 
C 160 1497 813 1363 998 1324 
C 1402 1241 1542 1216 1677 1100 
C 1760 1024 1901 883 1901 652 
C 1901 384 1747 38 1158 38 
C 602 38 403 460 288 1024 
C 269 1113 269 1120 218 1120 
C 166 1120 160 1113 160 985 
L 160 64 
C 160 -52 166 -58 205 -58 
C 237 -58 243 -52 275 0 
C 314 57 410 211 448 275 
C 576 102 800 -64 1158 -64 
C 1792 -64 2131 281 2131 780 
C 2131 1107 1958 1280 1875 1356 
C 1683 1555 1459 1600 1190 1651 
C 838 1728 390 1817 390 2208 
C 390 2374 480 2726 1126 2726 
C 1811 2726 1850 2086 1862 1881 
C 1869 1849 1901 1843 1920 1843 
C 1978 1843 1978 1862 1978 1971 
L 1978 2688 
z
" transform="scale(0.015625)"/>
      </defs>
      <use xlink:href="#CMR17-4e" transform="scale(0.996264)"/>
      <use xlink:href="#CMR17-75" transform="translate(69.07243 0)scale(0.996264)"/>
      <use xlink:href="#CMR17-6d" transform="translate(119.9678 0)scale(0.996264)"/>
      <use xlink:href="#CMR17-62" transform="translate(194.284936 0)scale(0.996264)"/>
      <use xlink:href="#CMR17-65" transform="translate(247.782744 0)scale(0.996264)"/>
      <use xlink:href="#CMR17-72" transform="translate(288.268404 0)scale(0.996264)"/>
      <use xlink:href="#CMR17-6f" transform="translate(345.688379 0)scale(0.996264)"/>
      <use xlink:href="#CMR17-66" transform="translate(391.378856 0)scale(0.996264)"/>
      <use xlink:href="#CMR17-74" transform="translate(446.897088 0)scale(0.996264)"/>
      <use xlink:href="#CMR17-68" transform="translate(482.177856 0)scale(0.996264)"/>
      <use xlink:href="#CMR17-72" transform="translate(533.073226 0)scale(0.996264)"/>
      <use xlink:href="#CMR17-65" transform="translate(568.353994 0)scale(0.996264)"/>
      <use xlink:href="#CMR17-61" transform="translate(608.839654 0)scale(0.996264)"/>
      <use xlink:href="#CMR17-64" transform="translate(654.530131 0)scale(0.996264)"/>
      <use xlink:href="#CMR17-73" transform="translate(705.425501 0)scale(0.996264)"/>
     </g>
    </g>
   </g>
   <g id="matplotlib.axis_2">
    <g id="ytick_1">
     <g id="line2d_10">
      <defs>
       <path id="m46aae87f6f" d="M 0 0 
L -3.5 0 
" style="stroke: #000000; stroke-width: 0.8"/>
      </defs>
      <g>
       <use xlink:href="#m46aae87f6f" x="32.037012" y="98.478526" style="stroke: #000000; stroke-width: 0.8"/>
      </g>
     </g>
     <g id="text_11">
      <!-- $\mathdefault{0}$ -->
      <g transform="translate(20.055677 101.937776)scale(0.1 -0.1)">
       <defs>
        <path id="CMR17-30" d="M 2688 2038 
C 2688 2430 2682 3099 2413 3613 
C 2176 4063 1798 4224 1466 4224 
C 1158 4224 768 4082 525 3620 
C 269 3137 243 2539 243 2038 
C 243 1671 250 1112 448 623 
C 723 -39 1216 -128 1466 -128 
C 1760 -128 2208 -7 2470 604 
C 2662 1048 2688 1568 2688 2038 
z
M 1466 -26 
C 1056 -26 813 328 723 816 
C 653 1196 653 1749 653 2109 
C 653 2604 653 3015 736 3407 
C 858 3954 1216 4121 1466 4121 
C 1728 4121 2067 3947 2189 3420 
C 2272 3054 2278 2623 2278 2109 
C 2278 1691 2278 1176 2202 797 
C 2067 96 1690 -26 1466 -26 
z
" transform="scale(0.015625)"/>
       </defs>
       <use xlink:href="#CMR17-30" transform="scale(0.996264)"/>
      </g>
     </g>
    </g>
    <g id="ytick_2">
     <g id="line2d_11">
      <g>
       <use xlink:href="#m46aae87f6f" x="32.037012" y="62.339292" style="stroke: #000000; stroke-width: 0.8"/>
      </g>
     </g>
     <g id="text_12">
      <!-- $\mathdefault{2}$ -->
      <g transform="translate(20.055677 65.798541)scale(0.1 -0.1)">
       <use xlink:href="#CMR17-32" transform="scale(0.996264)"/>
      </g>
     </g>
    </g>
    <g id="ytick_3">
     <g id="line2d_12">
      <g>
       <use xlink:href="#m46aae87f6f" x="32.037012" y="26.200057" style="stroke: #000000; stroke-width: 0.8"/>
      </g>
     </g>
     <g id="text_13">
      <!-- $\mathdefault{4}$ -->
      <g transform="translate(20.055677 29.659306)scale(0.1 -0.1)">
       <use xlink:href="#CMR17-34" transform="scale(0.996264)"/>
      </g>
     </g>
    </g>
    <g id="text_14">
     <!-- $\mathrm{Speed{\mbox{-}}up}$ -->
     <g transform="translate(14.118498 74.828692)rotate(-90)scale(0.1 -0.1)">
      <defs>
       <path id="CMR17-53" d="M 2803 4351 
C 2803 4467 2797 4473 2758 4473 
C 2720 4473 2707 4447 2682 4390 
L 2490 3965 
C 2246 4320 1875 4480 1472 4480 
C 819 4480 294 3958 294 3301 
C 294 3101 339 2817 557 2546 
C 794 2250 1018 2198 1530 2063 
C 1722 2011 2042 1927 2106 1901 
C 2470 1747 2662 1360 2662 999 
C 2662 534 2336 38 1779 38 
C 1094 38 454 425 410 1328 
C 403 1431 397 1437 352 1437 
C 301 1437 294 1431 294 1302 
L 294 0 
C 294 -116 301 -122 339 -122 
C 384 -122 397 -90 486 109 
C 493 128 493 141 614 386 
C 934 -39 1472 -128 1779 -128 
C 2477 -128 2970 457 2970 1141 
C 2970 1476 2848 1734 2778 1850 
C 2509 2263 2221 2340 1914 2417 
C 1869 2437 1856 2437 1498 2527 
C 1152 2617 1005 2662 845 2836 
C 666 3036 602 3243 602 3449 
C 602 3868 934 4326 1478 4326 
C 2157 4326 2579 3842 2675 3036 
C 2694 2920 2701 2914 2746 2914 
C 2803 2914 2803 2933 2803 3043 
L 2803 4351 
z
" transform="scale(0.015625)"/>
       <path id="CMR17-70" d="M 1408 -1114 
C 998 -1114 973 -1088 973 -834 
L 973 380 
C 1158 109 1427 -64 1766 -64 
C 2406 -64 3053 503 3053 1382 
C 3053 2196 2496 2816 1837 2816 
C 1453 2816 1139 2603 960 2345 
L 960 2816 
L 198 2745 
L 198 2577 
C 576 2577 634 2539 634 2228 
L 634 -834 
C 634 -1081 608 -1114 198 -1114 
L 198 -1280 
C 352 -1268 634 -1268 800 -1268 
C 966 -1268 1254 -1268 1408 -1280 
L 1408 -1114 
z
M 973 2015 
C 973 2106 973 2241 1222 2481 
C 1254 2506 1472 2700 1792 2700 
C 2259 2700 2643 2112 2643 1376 
C 2643 639 2234 38 1728 38 
C 1498 38 1248 148 1056 451 
C 973 594 973 632 973 736 
L 973 2015 
z
" transform="scale(0.015625)"/>
       <path id="CMSS17-2d" d="M 1664 1216 
L 1664 1587 
L 64 1587 
L 64 1216 
L 1664 1216 
z
" transform="scale(0.015625)"/>
      </defs>
      <use xlink:href="#CMR17-53" transform="scale(0.996264)"/>
      <use xlink:href="#CMR17-70" transform="translate(50.89537 0)scale(0.996264)"/>
      <use xlink:href="#CMR17-65" transform="translate(104.393178 0)scale(0.996264)"/>
      <use xlink:href="#CMR17-65" transform="translate(144.878839 0)scale(0.996264)"/>
      <use xlink:href="#CMR17-64" transform="translate(185.364499 0)scale(0.996264)"/>
      <use xlink:href="#CMSS17-2d" transform="translate(236.259869 0)scale(0.996264)"/>
      <use xlink:href="#CMR17-75" transform="translate(267.488982 0)scale(0.996264)"/>
      <use xlink:href="#CMR17-70" transform="translate(318.384352 0)scale(0.996264)"/>
     </g>
    </g>
   </g>
   <g id="LineCollection_1">
    <path d="M 42.135058 80.408909 
L 47.112968 80.408909 
" clip-path="url(#p12d86eaf07)" style="fill: none; stroke: #000000; stroke-width: 1.5"/>
    <path d="M 70.580258 59.645685 
L 75.558167 59.645685 
" clip-path="url(#p12d86eaf07)" style="fill: none; stroke: #000000; stroke-width: 1.5"/>
    <path d="M 99.025457 43.593909 
L 104.003367 43.593909 
" clip-path="url(#p12d86eaf07)" style="fill: none; stroke: #000000; stroke-width: 1.5"/>
    <path d="M 115.664832 29.131595 
L 120.642742 29.131595 
" clip-path="url(#p12d86eaf07)" style="fill: none; stroke: #000000; stroke-width: 1.5"/>
    <path d="M 127.470657 40.532344 
L 132.448567 40.532344 
" clip-path="url(#p12d86eaf07)" style="fill: none; stroke: #000000; stroke-width: 1.5"/>
    <path d="M 144.110032 46.8751 
L 149.087942 46.8751 
" clip-path="url(#p12d86eaf07)" style="fill: none; stroke: #000000; stroke-width: 1.5"/>
    <path d="M 155.915856 41.910376 
L 160.893766 41.910376 
" clip-path="url(#p12d86eaf07)" style="fill: none; stroke: #000000; stroke-width: 1.5"/>
    <path d="M 172.555232 46.797118 
L 177.533142 46.797118 
" clip-path="url(#p12d86eaf07)" style="fill: none; stroke: #000000; stroke-width: 1.5"/>
    <path d="M 184.361056 11.524091 
L 189.338966 11.524091 
" clip-path="url(#p12d86eaf07)" style="fill: none; stroke: #000000; stroke-width: 1.5"/>
   </g>
   <g id="LineCollection_2">
    <path d="M 42.135058 80.408909 
L 47.112968 80.408909 
" clip-path="url(#p12d86eaf07)" style="fill: none; stroke: #000000; stroke-width: 1.5"/>
    <path d="M 70.580258 94.661322 
L 75.558167 94.661322 
" clip-path="url(#p12d86eaf07)" style="fill: none; stroke: #000000; stroke-width: 1.5"/>
    <path d="M 99.025457 96.560923 
L 104.003367 96.560923 
" clip-path="url(#p12d86eaf07)" style="fill: none; stroke: #000000; stroke-width: 1.5"/>
    <path d="M 115.664832 97.33902 
L 120.642742 97.33902 
" clip-path="url(#p12d86eaf07)" style="fill: none; stroke: #000000; stroke-width: 1.5"/>
    <path d="M 127.470657 97.004961 
L 132.448567 97.004961 
" clip-path="url(#p12d86eaf07)" style="fill: none; stroke: #000000; stroke-width: 1.5"/>
    <path d="M 144.110032 97.515763 
L 149.087942 97.515763 
" clip-path="url(#p12d86eaf07)" style="fill: none; stroke: #000000; stroke-width: 1.5"/>
    <path d="M 155.915856 97.856142 
L 160.893766 97.856142 
" clip-path="url(#p12d86eaf07)" style="fill: none; stroke: #000000; stroke-width: 1.5"/>
    <path d="M 172.555232 97.888211 
L 177.533142 97.888211 
" clip-path="url(#p12d86eaf07)" style="fill: none; stroke: #000000; stroke-width: 1.5"/>
    <path d="M 184.361056 98.005909 
L 189.338966 98.005909 
" clip-path="url(#p12d86eaf07)" style="fill: none; stroke: #000000; stroke-width: 1.5"/>
   </g>
   <g id="LineCollection_3">
    <path d="M 44.624013 80.408909 
L 44.624013 80.408909 
" clip-path="url(#p12d86eaf07)" style="fill: none; stroke: #000000; stroke-width: 1.5"/>
    <path d="M 73.069212 94.661322 
L 73.069212 59.645685 
" clip-path="url(#p12d86eaf07)" style="fill: none; stroke: #000000; stroke-width: 1.5"/>
    <path d="M 101.514412 96.560923 
L 101.514412 43.593909 
" clip-path="url(#p12d86eaf07)" style="fill: none; stroke: #000000; stroke-width: 1.5"/>
    <path d="M 118.153787 97.33902 
L 118.153787 29.131595 
" clip-path="url(#p12d86eaf07)" style="fill: none; stroke: #000000; stroke-width: 1.5"/>
    <path d="M 129.959612 97.004961 
L 129.959612 40.532344 
" clip-path="url(#p12d86eaf07)" style="fill: none; stroke: #000000; stroke-width: 1.5"/>
    <path d="M 146.598987 97.515763 
L 146.598987 46.8751 
" clip-path="url(#p12d86eaf07)" style="fill: none; stroke: #000000; stroke-width: 1.5"/>
    <path d="M 158.404811 97.856142 
L 158.404811 41.910376 
" clip-path="url(#p12d86eaf07)" style="fill: none; stroke: #000000; stroke-width: 1.5"/>
    <path d="M 175.044187 97.888211 
L 175.044187 46.797118 
" clip-path="url(#p12d86eaf07)" style="fill: none; stroke: #000000; stroke-width: 1.5"/>
    <path d="M 186.850011 98.005909 
L 186.850011 11.524091 
" clip-path="url(#p12d86eaf07)" style="fill: none; stroke: #000000; stroke-width: 1.5"/>
   </g>
   <g id="LineCollection_4">
    <path d="M 42.135058 80.408909 
L 47.112968 80.408909 
" clip-path="url(#p12d86eaf07)" style="fill: none; stroke: #000000; stroke-width: 1.5"/>
    <path d="M 70.580258 70.391868 
L 75.558167 70.391868 
" clip-path="url(#p12d86eaf07)" style="fill: none; stroke: #000000; stroke-width: 1.5"/>
    <path d="M 99.025457 63.086242 
L 104.003367 63.086242 
" clip-path="url(#p12d86eaf07)" style="fill: none; stroke: #000000; stroke-width: 1.5"/>
    <path d="M 115.664832 80.948496 
L 120.642742 80.948496 
" clip-path="url(#p12d86eaf07)" style="fill: none; stroke: #000000; stroke-width: 1.5"/>
    <path d="M 127.470657 74.642514 
L 132.448567 74.642514 
" clip-path="url(#p12d86eaf07)" style="fill: none; stroke: #000000; stroke-width: 1.5"/>
    <path d="M 144.110032 92.981601 
L 149.087942 92.981601 
" clip-path="url(#p12d86eaf07)" style="fill: none; stroke: #000000; stroke-width: 1.5"/>
    <path d="M 155.915856 87.976345 
L 160.893766 87.976345 
" clip-path="url(#p12d86eaf07)" style="fill: none; stroke: #000000; stroke-width: 1.5"/>
    <path d="M 172.555232 94.020686 
L 177.533142 94.020686 
" clip-path="url(#p12d86eaf07)" style="fill: none; stroke: #000000; stroke-width: 1.5"/>
    <path d="M 184.361056 94.319741 
L 189.338966 94.319741 
" clip-path="url(#p12d86eaf07)" style="fill: none; stroke: #000000; stroke-width: 1.5"/>
   </g>
   <g id="line2d_13">
    <path d="M 32.037012 80.408909 
L 199.437012 80.408909 
" clip-path="url(#p12d86eaf07)" style="fill: none; stroke-dasharray: 3.7,1.6; stroke-dashoffset: 0; stroke: #000000"/>
   </g>
   <g id="patch_3">
    <path d="M 32.037012 102.33 
L 32.037012 7.2 
" style="fill: none; stroke: #000000; stroke-width: 0.8; stroke-linejoin: miter; stroke-linecap: square"/>
   </g>
   <g id="patch_4">
    <path d="M 199.437012 102.33 
L 199.437012 7.2 
" style="fill: none; stroke: #000000; stroke-width: 0.8; stroke-linejoin: miter; stroke-linecap: square"/>
   </g>
   <g id="patch_5">
    <path d="M 32.037012 102.33 
L 199.437012 102.33 
" style="fill: none; stroke: #000000; stroke-width: 0.8; stroke-linejoin: miter; stroke-linecap: square"/>
   </g>
   <g id="patch_6">
    <path d="M 32.037012 7.2 
L 199.437012 7.2 
" style="fill: none; stroke: #000000; stroke-width: 0.8; stroke-linejoin: miter; stroke-linecap: square"/>
   </g>
  </g>
 </g>
 <defs>
  <clipPath id="p12d86eaf07">
   <rect x="32.037012" y="7.2" width="167.4" height="95.13"/>
  </clipPath>
 </defs>
</svg>
