<?xml version="1.0" encoding="UTF-8" standalone="no"?>
<svg
   xmlns:dc="http://purl.org/dc/elements/1.1/"
   xmlns:cc="http://creativecommons.org/ns#"
   xmlns:rdf="http://www.w3.org/1999/02/22-rdf-syntax-ns#"
   xmlns:svg="http://www.w3.org/2000/svg"
   xmlns="http://www.w3.org/2000/svg"
   viewBox="0 0 405.44 139.84"
   height="139.84"
   width="405.44"
   xml:space="preserve"
   id="svg2"
   version="1.1"><metadata
     id="metadata8"><rdf:RDF><cc:Work
         rdf:about=""><dc:format>image/svg+xml</dc:format><dc:type
           rdf:resource="http://purl.org/dc/dcmitype/StillImage" /></cc:Work></rdf:RDF></metadata><defs
     id="defs6"><clipPath
       id="clipPath18"
       clipPathUnits="userSpaceOnUse"><path
         style="clip-rule:evenodd"
         id="path16"
         d="M 0,0 H 1266.6668 V 428.21121 H 0 Z" /></clipPath></defs><g
     transform="matrix(0.31999998,0,0,0.31999998,0,7.4959999e-6)"
     id="g10"><g
       id="g12"><g
         clip-path="url(#clipPath18)"
         id="g14"><g
           transform="matrix(2.9944839,0,0,2.9944839,1.497242,1.497242)"
           id="g20"><path
             id="path22"
             style="fill:none;stroke:#000000;stroke-width:1;stroke-linecap:butt;stroke-linejoin:miter;stroke-miterlimit:10;stroke-dasharray:none;stroke-opacity:1"
             d="m 276,21 v 10 h -75 v 3.630001" /><path
             id="path24"
             style="fill:#000000;fill-opacity:1;fill-rule:nonzero;stroke:none"
             d="m 201,39.880001 -3.5,-7 3.5,1.75 3.5,-1.75 z" /><path
             id="path26"
             style="fill:none;stroke:#000000;stroke-width:1;stroke-linecap:butt;stroke-linejoin:miter;stroke-miterlimit:10;stroke-dasharray:none;stroke-opacity:1"
             d="m 201,39.880001 -3.5,-7 3.5,1.75 3.5,-1.75 z" /></g><g
           transform="scale(2.9944839)"
           id="g28"><path
             id="path30"
             style="fill:#ffffff;fill-opacity:1;fill-rule:nonzero;stroke:none"
             d="m 231,25 h 15 v 13 h -15 z" /><text
             id="text34"
             style="font-variant:normal;font-weight:normal;font-size:11px;font-family:ArialMT;-inkscape-font-specification:ArialMT;writing-mode:lr-tb;fill:#000000;fill-opacity:1;fill-rule:nonzero;stroke:none"
             transform="translate(231.46875,35)"><tspan
               id="tspan32"
               y="0"
               x="0 7.9438477">No</tspan></text>
</g><g
           transform="matrix(2.9944839,0,0,2.9944839,1.497242,1.497242)"
           id="g36"><path
             id="path38"
             style="fill:none;stroke:#000000;stroke-width:1;stroke-linecap:butt;stroke-linejoin:miter;stroke-miterlimit:10;stroke-dasharray:none;stroke-opacity:1"
             d="m 276,21 v 10 h 70 v 3.630001" /><path
             id="path40"
             style="fill:#000000;fill-opacity:1;fill-rule:nonzero;stroke:none"
             d="m 346,39.880001 -3.5,-7 3.5,1.75 3.5,-1.75 z" /><path
             id="path42"
             style="fill:none;stroke:#000000;stroke-width:1;stroke-linecap:butt;stroke-linejoin:miter;stroke-miterlimit:10;stroke-dasharray:none;stroke-opacity:1"
             d="m 346,39.880001 -3.5,-7 3.5,1.75 3.5,-1.75 z" /></g><g
           transform="scale(2.9944839)"
           id="g44"><path
             id="path46"
             style="fill:#ffffff;fill-opacity:1;fill-rule:nonzero;stroke:none"
             d="m 303,25 h 17 v 13 h -17 z" /><text
             id="text50"
             style="font-variant:normal;font-weight:normal;font-size:11px;font-family:ArialMT;-inkscape-font-specification:ArialMT;writing-mode:lr-tb;fill:#000000;fill-opacity:1;fill-rule:nonzero;stroke:none"
             transform="translate(302.53125,35)"><tspan
               id="tspan48"
               y="0"
               x="0 6.3271484 12.444824">Yes</tspan></text>
</g><g
           transform="matrix(2.9944839,0,0,2.9944839,1.497242,1.497242)"
           id="g52"><path
             id="path54"
             style="fill:#ffffff;fill-opacity:1;fill-rule:nonzero;stroke:none"
             d="m 219,1 h 114 c 0.3978,0 0.78049,0.07612 1.14801,0.2283612 0.36755,0.1522409 0.69199,0.3690137 0.9733,0.6503183 0.28128,0.2813046 0.49804,0.6057277 0.6503,0.9732697 C 335.92386,3.2194915 335.99997,3.602175 336,4 v 14 c -3e-5,0.397823 -0.0761,0.780506 -0.22839,1.148046 -0.15226,0.367545 -0.36902,0.691968 -0.6503,0.973273 -0.28131,0.281303 -0.60575,0.498075 -0.9733,0.650316 C 333.78049,20.923878 333.3978,20.999998 333,21 H 219 c -0.39784,-2e-6 -0.78055,-0.07612 -1.14809,-0.228365 -0.36753,-0.152241 -0.69195,-0.369013 -0.97325,-0.650316 -0.28132,-0.281305 -0.49811,-0.605728 -0.65034,-0.973273 C 216.07608,18.780506 215.99998,18.397823 216,18 V 4 c -2e-5,-0.397825 0.0761,-0.7805085 0.22832,-1.1480508 0.15223,-0.367542 0.36902,-0.6919651 0.65034,-0.9732697 0.2813,-0.2813046 0.60572,-0.4980774 0.97325,-0.6503183 C 218.21945,1.0761204 218.60216,1 219,1 Z" /><path
             id="path56"
             style="fill:none;stroke:#000000;stroke-width:1;stroke-linecap:butt;stroke-linejoin:miter;stroke-miterlimit:10;stroke-dasharray:none;stroke-opacity:1"
             d="m 219,1 h 114 c 0.3978,0 0.78049,0.07612 1.14801,0.2283612 0.36755,0.1522409 0.69199,0.3690137 0.9733,0.6503183 0.28128,0.2813046 0.49804,0.6057277 0.6503,0.9732697 C 335.92386,3.2194915 335.99997,3.602175 336,4 v 14 c -3e-5,0.397823 -0.0761,0.780506 -0.22839,1.148046 -0.15226,0.367545 -0.36902,0.691968 -0.6503,0.973273 -0.28131,0.281303 -0.60575,0.498075 -0.9733,0.650316 C 333.78049,20.923878 333.3978,20.999998 333,21 H 219 c -0.39784,-2e-6 -0.78055,-0.07612 -1.14809,-0.228365 -0.36753,-0.152241 -0.69195,-0.369013 -0.97325,-0.650316 -0.28132,-0.281305 -0.49811,-0.605728 -0.65034,-0.973273 C 216.07608,18.780506 215.99998,18.397823 216,18 V 4 c -2e-5,-0.397825 0.0761,-0.7805085 0.22832,-1.1480508 0.15223,-0.367542 0.36902,-0.6919651 0.65034,-0.9732697 0.2813,-0.2813046 0.60572,-0.4980774 0.97325,-0.6503183 C 218.21945,1.0761204 218.60216,1 219,1 Z" /></g><g
           transform="scale(2.9944839)"
           id="g58"><text
             id="text62"
             style="font-variant:normal;font-weight:normal;font-size:12px;font-family:ArialMT;-inkscape-font-specification:ArialMT;writing-mode:lr-tb;fill:#000000;fill-opacity:1;fill-rule:nonzero;stroke:none"
             transform="translate(247.64063,15)"><tspan
               id="tspan60"
               y="0"
               x="0 9.3339844 13.330078 15.996094 22.669922 26.003906 32.677734 36.673828 43.347656 50.021484">Grid graph</tspan></text>
</g><g
           transform="matrix(2.9944839,0,0,2.9944839,1.497242,1.497242)"
           id="g64"><path
             id="path66"
             style="fill:#f8cecc;fill-opacity:1;fill-rule:nonzero;stroke:none"
             d="m 304,41 h 84 c 0.3978,0 0.78046,0.07612 1.14801,0.228359 0.36752,0.152241 0.69196,0.369011 0.9733,0.650318 0.28128,0.281308 0.49804,0.605729 0.6503,0.973267 C 390.92386,43.21949 390.99997,43.602177 391,44 v 14 c -3e-5,0.397823 -0.0761,0.780502 -0.22839,1.148045 -0.15226,0.367542 -0.36902,0.691967 -0.6503,0.973274 -0.28134,0.281299 -0.60578,0.498073 -0.9733,0.650314 C 388.78046,60.923874 388.3978,60.999996 388,61 h -84 c -0.39786,-4e-6 -0.78055,-0.07613 -1.1481,-0.228367 -0.36752,-0.152241 -0.69196,-0.369015 -0.97327,-0.650314 -0.28134,-0.281307 -0.49811,-0.605732 -0.65033,-0.973274 C 301.07608,58.780502 300.99997,58.397823 301,58 V 44 c -3e-5,-0.397823 0.0761,-0.78051 0.2283,-1.148056 0.15222,-0.367538 0.36899,-0.691959 0.65033,-0.973267 0.28131,-0.281307 0.60575,-0.498077 0.97327,-0.650318 C 303.21945,41.076118 303.60214,41 304,41 Z" /><path
             id="path68"
             style="fill:none;stroke:#b85450;stroke-width:1;stroke-linecap:butt;stroke-linejoin:miter;stroke-miterlimit:10;stroke-dasharray:none;stroke-opacity:1"
             d="m 304,41 h 84 c 0.3978,0 0.78046,0.07612 1.14801,0.228359 0.36752,0.152241 0.69196,0.369011 0.9733,0.650318 0.28128,0.281308 0.49804,0.605729 0.6503,0.973267 C 390.92386,43.21949 390.99997,43.602177 391,44 v 14 c -3e-5,0.397823 -0.0761,0.780502 -0.22839,1.148045 -0.15226,0.367542 -0.36902,0.691967 -0.6503,0.973274 -0.28134,0.281299 -0.60578,0.498073 -0.9733,0.650314 C 388.78046,60.923874 388.3978,60.999996 388,61 h -84 c -0.39786,-4e-6 -0.78055,-0.07613 -1.1481,-0.228367 -0.36752,-0.152241 -0.69196,-0.369015 -0.97327,-0.650314 -0.28134,-0.281307 -0.49811,-0.605732 -0.65033,-0.973274 C 301.07608,58.780502 300.99997,58.397823 301,58 V 44 c -3e-5,-0.397823 0.0761,-0.78051 0.2283,-1.148056 0.15222,-0.367538 0.36899,-0.691959 0.65033,-0.973267 0.28131,-0.281307 0.60575,-0.498077 0.97327,-0.650318 C 303.21945,41.076118 303.60214,41 304,41 Z" /></g><g
           transform="scale(2.9944839)"
           id="g70"><text
             id="text74"
             style="font-variant:normal;font-weight:normal;font-size:12px;font-family:ArialMT;-inkscape-font-specification:ArialMT;writing-mode:lr-tb;fill:#000000;fill-opacity:1;fill-rule:nonzero;stroke:none"
             transform="translate(325.32813,55)"><tspan
               id="tspan72"
               y="0"
               x="0 9.3339844 13.330078 15.996094 22.669922 31.335938 38.009766">GridCut</tspan></text>
</g><g
           transform="matrix(2.9944839,0,0,2.9944839,1.497242,1.497242)"
           id="g76"><path
             id="path78"
             style="fill:none;stroke:#000000;stroke-width:1;stroke-linecap:butt;stroke-linejoin:miter;stroke-miterlimit:10;stroke-dasharray:none;stroke-opacity:1"
             d="m 201,61 v 10 h 120 v 3.629997" /><path
             id="path80"
             style="fill:#000000;fill-opacity:1;fill-rule:nonzero;stroke:none"
             d="m 321,79.879997 -3.5,-7 3.5,1.75 3.5,-1.75 z" /><path
             id="path82"
             style="fill:none;stroke:#000000;stroke-width:1;stroke-linecap:butt;stroke-linejoin:miter;stroke-miterlimit:10;stroke-dasharray:none;stroke-opacity:1"
             d="m 321,79.879997 -3.5,-7 3.5,1.75 3.5,-1.75 z" /></g><g
           transform="scale(2.9944839)"
           id="g84"><path
             id="path86"
             style="fill:#ffffff;fill-opacity:1;fill-rule:nonzero;stroke:none"
             d="m 253,65 h 17 v 13 h -17 z" /><text
             id="text90"
             style="font-variant:normal;font-weight:normal;font-size:11px;font-family:ArialMT;-inkscape-font-specification:ArialMT;writing-mode:lr-tb;fill:#000000;fill-opacity:1;fill-rule:nonzero;stroke:none"
             transform="translate(252.53125,75)"><tspan
               id="tspan88"
               y="0"
               x="0 6.3271484 12.444824">Yes</tspan></text>
</g><g
           transform="matrix(2.9944839,0,0,2.9944839,1.497242,1.497242)"
           id="g92"><path
             id="path94"
             style="fill:none;stroke:#000000;stroke-width:1;stroke-linecap:butt;stroke-linejoin:miter;stroke-miterlimit:10;stroke-dasharray:none;stroke-opacity:1"
             d="M 201,61 V 71 H 101 v 3.629997" /><path
             id="path96"
             style="fill:#000000;fill-opacity:1;fill-rule:nonzero;stroke:none"
             d="m 101,79.879997 -3.5,-7 3.5,1.75 3.5,-1.75 z" /><path
             id="path98"
             style="fill:none;stroke:#000000;stroke-width:1;stroke-linecap:butt;stroke-linejoin:miter;stroke-miterlimit:10;stroke-dasharray:none;stroke-opacity:1"
             d="m 101,79.879997 -3.5,-7 3.5,1.75 3.5,-1.75 z" /></g><g
           transform="scale(2.9944839)"
           id="g100"><path
             id="path102"
             style="fill:#ffffff;fill-opacity:1;fill-rule:nonzero;stroke:none"
             d="m 159,66 h 15 v 13 h -15 z" /><text
             id="text106"
             style="font-variant:normal;font-weight:normal;font-size:11px;font-family:ArialMT;-inkscape-font-specification:ArialMT;writing-mode:lr-tb;fill:#000000;fill-opacity:1;fill-rule:nonzero;stroke:none"
             transform="translate(159.46875,76)"><tspan
               id="tspan104"
               y="0"
               x="0 7.9438477">No</tspan></text>
</g><g
           transform="matrix(2.9944839,0,0,2.9944839,1.497242,1.497242)"
           id="g108"><path
             id="path110"
             style="fill:#ffffff;fill-opacity:1;fill-rule:nonzero;stroke:none"
             d="m 134,41 h 134 c 0.3978,0 0.78046,0.07612 1.14798,0.228359 0.36755,0.152241 0.69199,0.369011 0.9733,0.650318 0.28128,0.281308 0.49807,0.605729 0.65033,0.973267 C 270.92386,43.21949 270.99997,43.602177 271,44 v 14 c -3e-5,0.397823 -0.0761,0.780502 -0.22839,1.148045 -0.15226,0.367542 -0.36905,0.691967 -0.65033,0.973274 -0.28131,0.281299 -0.60575,0.498073 -0.97327,0.650314 C 268.78049,60.923874 268.3978,60.999996 268,61 H 134 c -0.39784,-4e-6 -0.78053,-0.07613 -1.14807,-0.228367 -0.36754,-0.152241 -0.69197,-0.369015 -0.97327,-0.650314 -0.28131,-0.281307 -0.49809,-0.605732 -0.65033,-0.973274 C 131.0761,58.780502 130.99998,58.397823 131,58 V 44 c -2e-5,-0.397823 0.0761,-0.78051 0.22833,-1.148056 0.15224,-0.367538 0.36902,-0.691959 0.65033,-0.973267 0.2813,-0.281307 0.60573,-0.498077 0.97327,-0.650318 C 133.21947,41.076118 133.60216,41 134,41 Z" /><path
             id="path112"
             style="fill:none;stroke:#000000;stroke-width:1;stroke-linecap:butt;stroke-linejoin:miter;stroke-miterlimit:10;stroke-dasharray:none;stroke-opacity:1"
             d="m 134,41 h 134 c 0.3978,0 0.78046,0.07612 1.14798,0.228359 0.36755,0.152241 0.69199,0.369011 0.9733,0.650318 0.28128,0.281308 0.49807,0.605729 0.65033,0.973267 C 270.92386,43.21949 270.99997,43.602177 271,44 v 14 c -3e-5,0.397823 -0.0761,0.780502 -0.22839,1.148045 -0.15226,0.367542 -0.36905,0.691967 -0.65033,0.973274 -0.28131,0.281299 -0.60575,0.498073 -0.97327,0.650314 C 268.78049,60.923874 268.3978,60.999996 268,61 H 134 c -0.39784,-4e-6 -0.78053,-0.07613 -1.14807,-0.228367 -0.36754,-0.152241 -0.69197,-0.369015 -0.97327,-0.650314 -0.28131,-0.281307 -0.49809,-0.605732 -0.65033,-0.973274 C 131.0761,58.780502 130.99998,58.397823 131,58 V 44 c -2e-5,-0.397823 0.0761,-0.78051 0.22833,-1.148056 0.15224,-0.367538 0.36902,-0.691959 0.65033,-0.973267 0.2813,-0.281307 0.60573,-0.498077 0.97327,-0.650318 C 133.21947,41.076118 133.60216,41 134,41 Z" /></g><g
           transform="scale(2.9944839)"
           id="g114"><text
             id="text118"
             style="font-variant:normal;font-weight:normal;font-size:12px;font-family:ArialMT;-inkscape-font-specification:ArialMT;writing-mode:lr-tb;fill:#000000;fill-opacity:1;fill-rule:nonzero;stroke:none"
             transform="translate(143.32813,55)"><tspan
               id="tspan116"
               y="0"
               x="0 8.0039062 10.669922 17.34375 23.34375 26.677734 32.677734 39.351562 46.025391 49.359375 52.693359 58.693359 62.027344 68.701172 72.035156 75.369141 81.955078 85.289062 91.962891 95.296875 101.9707 108.64453">Sink cap. std. ≤ 2.151</tspan></text>
</g><g
           transform="matrix(2.9944839,0,0,2.9944839,1.497242,1.497242)"
           id="g120"><path
             id="path122"
             style="fill:#f8cecc;fill-opacity:1;fill-rule:nonzero;stroke:none"
             d="m 4,121 h 84 c 0.397812,0 0.780495,0.0761 1.148041,0.22835 0.367531,0.15223 0.691955,0.36901 0.973266,0.65032 0.281304,0.2813 0.498078,0.60572 0.650322,0.97327 C 90.923866,123.21948 90.999992,123.60217 91,124 v 14 c -8e-6,0.39781 -0.07613,0.78049 -0.228378,1.14803 -0.152245,0.36753 -0.369011,0.69195 -0.650315,0.97328 -0.281311,0.28129 -0.605735,0.49806 -0.973266,0.6503 C 88.780495,140.92386 88.397812,140.99998 88,141 H 4 c -0.397825,-2e-5 -0.7805085,-0.0761 -1.1480508,-0.22839 -0.367542,-0.15224 -0.6919651,-0.36901 -0.9732697,-0.6503 C 1.5973748,139.83998 1.3806021,139.51556 1.2283612,139.14803 1.0761204,138.78049 0.99999994,138.39781 1,138 v -14 c -6e-8,-0.39783 0.07612,-0.78052 0.2283612,-1.14806 0.1522409,-0.36755 0.3690136,-0.69197 0.6503183,-0.97327 0.2813046,-0.28131 0.6057277,-0.49809 0.9732697,-0.65032 C 3.2194915,121.07612 3.602175,121 4,121 Z" /><path
             id="path124"
             style="fill:none;stroke:#b85450;stroke-width:1;stroke-linecap:butt;stroke-linejoin:miter;stroke-miterlimit:10;stroke-dasharray:none;stroke-opacity:1"
             d="m 4,121 h 84 c 0.397812,0 0.780495,0.0761 1.148041,0.22835 0.367531,0.15223 0.691955,0.36901 0.973266,0.65032 0.281304,0.2813 0.498078,0.60572 0.650322,0.97327 C 90.923866,123.21948 90.999992,123.60217 91,124 v 14 c -8e-6,0.39781 -0.07613,0.78049 -0.228378,1.14803 -0.152245,0.36753 -0.369011,0.69195 -0.650315,0.97328 -0.281311,0.28129 -0.605735,0.49806 -0.973266,0.6503 C 88.780495,140.92386 88.397812,140.99998 88,141 H 4 c -0.397825,-2e-5 -0.7805085,-0.0761 -1.1480508,-0.22839 -0.367542,-0.15224 -0.6919651,-0.36901 -0.9732697,-0.6503 C 1.5973748,139.83998 1.3806021,139.51556 1.2283612,139.14803 1.0761204,138.78049 0.99999994,138.39781 1,138 v -14 c -6e-8,-0.39783 0.07612,-0.78052 0.2283612,-1.14806 0.1522409,-0.36755 0.3690136,-0.69197 0.6503183,-0.97327 0.2813046,-0.28131 0.6057277,-0.49809 0.9732697,-0.65032 C 3.2194915,121.07612 3.602175,121 4,121 Z" /></g><g
           transform="scale(2.9944839)"
           id="g126"><text
             id="text130"
             style="font-variant:normal;font-weight:normal;font-size:12px;font-family:ArialMT;-inkscape-font-specification:ArialMT;writing-mode:lr-tb;fill:#000000;fill-opacity:1;fill-rule:nonzero;stroke:none"
             transform="translate(14.328125,135)"><tspan
               id="tspan128"
               y="0"
               x="0 8.0039062 11.337891 19.341797 26.671875 34.675781 38.671875 42.005859 46.001953 54.667969">EIBFS-I-NR</tspan></text>
</g><g
           transform="matrix(2.9944839,0,0,2.9944839,1.497242,1.497242)"
           id="g132"><path
             id="path134"
             style="fill:none;stroke:#000000;stroke-width:1;stroke-linecap:butt;stroke-linejoin:miter;stroke-miterlimit:10;stroke-dasharray:none;stroke-opacity:1"
             d="m 321,101 v 10 h 55 v 3.63" /><path
             id="path136"
             style="fill:#000000;fill-opacity:1;fill-rule:nonzero;stroke:none"
             d="m 376,119.88 -3.5,-7 3.5,1.75 3.5,-1.75 z" /><path
             id="path138"
             style="fill:none;stroke:#000000;stroke-width:1;stroke-linecap:butt;stroke-linejoin:miter;stroke-miterlimit:10;stroke-dasharray:none;stroke-opacity:1"
             d="m 376,119.88 -3.5,-7 3.5,1.75 3.5,-1.75 z" /></g><g
           transform="scale(2.9944839)"
           id="g140"><path
             id="path142"
             style="fill:#ffffff;fill-opacity:1;fill-rule:nonzero;stroke:none"
             d="m 343,105 h 17 v 13 h -17 z" /><text
             id="text146"
             style="font-variant:normal;font-weight:normal;font-size:11px;font-family:ArialMT;-inkscape-font-specification:ArialMT;writing-mode:lr-tb;fill:#000000;fill-opacity:1;fill-rule:nonzero;stroke:none"
             transform="translate(342.53125,115)"><tspan
               id="tspan144"
               y="0"
               x="0 6.3271484 12.444824">Yes</tspan></text>
</g><g
           transform="matrix(2.9944839,0,0,2.9944839,1.497242,1.497242)"
           id="g148"><path
             id="path150"
             style="fill:none;stroke:#000000;stroke-width:1;stroke-linecap:butt;stroke-linejoin:miter;stroke-miterlimit:10;stroke-dasharray:none;stroke-opacity:1"
             d="m 321,101 v 10 h -55 v 3.63" /><path
             id="path152"
             style="fill:#000000;fill-opacity:1;fill-rule:nonzero;stroke:none"
             d="m 266,119.88 -3.5,-7 3.5,1.75 3.5,-1.75 z" /><path
             id="path154"
             style="fill:none;stroke:#000000;stroke-width:1;stroke-linecap:butt;stroke-linejoin:miter;stroke-miterlimit:10;stroke-dasharray:none;stroke-opacity:1"
             d="m 266,119.88 -3.5,-7 3.5,1.75 3.5,-1.75 z" /></g><g
           transform="scale(2.9944839)"
           id="g156"><path
             id="path158"
             style="fill:#ffffff;fill-opacity:1;fill-rule:nonzero;stroke:none"
             d="m 289,106 h 15 v 13 h -15 z" /><text
             id="text162"
             style="font-variant:normal;font-weight:normal;font-size:11px;font-family:ArialMT;-inkscape-font-specification:ArialMT;writing-mode:lr-tb;fill:#000000;fill-opacity:1;fill-rule:nonzero;stroke:none"
             transform="translate(289.46875,116)"><tspan
               id="tspan160"
               y="0"
               x="0 7.9438477">No</tspan></text>
</g><g
           transform="matrix(2.9944839,0,0,2.9944839,1.497242,1.497242)"
           id="g164"><path
             id="path166"
             style="fill:#ffffff;fill-opacity:1;fill-rule:nonzero;stroke:none"
             d="m 254,81 h 134 c 0.3978,0 0.78046,0.07612 1.14801,0.228355 0.36752,0.152245 0.69196,0.369019 0.9733,0.650322 0.28128,0.281304 0.49804,0.605729 0.6503,0.973267 C 390.92386,83.219482 390.99997,83.602165 391,84 v 14 c -3e-5,0.39782 -0.0761,0.780502 -0.22839,1.148041 -0.15226,0.367546 -0.36902,0.691971 -0.6503,0.973269 -0.28134,0.2813 -0.60578,0.49807 -0.9733,0.65031 C 388.78046,100.92387 388.3978,100.99999 388,101 H 254 c -0.39784,-1e-5 -0.78055,-0.0761 -1.14809,-0.22838 -0.36753,-0.15224 -0.69195,-0.36901 -0.97325,-0.65031 -0.28132,-0.281298 -0.49811,-0.605723 -0.65034,-0.973269 C 251.07608,98.780502 250.99998,98.39782 251,98 V 84 c -2e-5,-0.397835 0.0761,-0.780518 0.22832,-1.148056 0.15223,-0.367538 0.36902,-0.691963 0.65034,-0.973267 0.2813,-0.281303 0.60572,-0.498077 0.97325,-0.650322 C 253.21945,81.076118 253.60216,81 254,81 Z" /><path
             id="path168"
             style="fill:none;stroke:#000000;stroke-width:1;stroke-linecap:butt;stroke-linejoin:miter;stroke-miterlimit:10;stroke-dasharray:none;stroke-opacity:1"
             d="m 254,81 h 134 c 0.3978,0 0.78046,0.07612 1.14801,0.228355 0.36752,0.152245 0.69196,0.369019 0.9733,0.650322 0.28128,0.281304 0.49804,0.605729 0.6503,0.973267 C 390.92386,83.219482 390.99997,83.602165 391,84 v 14 c -3e-5,0.39782 -0.0761,0.780502 -0.22839,1.148041 -0.15226,0.367546 -0.36902,0.691971 -0.6503,0.973269 -0.28134,0.2813 -0.60578,0.49807 -0.9733,0.65031 C 388.78046,100.92387 388.3978,100.99999 388,101 H 254 c -0.39784,-1e-5 -0.78055,-0.0761 -1.14809,-0.22838 -0.36753,-0.15224 -0.69195,-0.36901 -0.97325,-0.65031 -0.28132,-0.281298 -0.49811,-0.605723 -0.65034,-0.973269 C 251.07608,98.780502 250.99998,98.39782 251,98 V 84 c -2e-5,-0.397835 0.0761,-0.780518 0.22832,-1.148056 0.15223,-0.367538 0.36902,-0.691963 0.65034,-0.973267 0.2813,-0.281303 0.60572,-0.498077 0.97325,-0.650322 C 253.21945,81.076118 253.60216,81 254,81 Z" /></g><g
           transform="scale(2.9944839)"
           id="g170"><text
             id="text174"
             style="font-variant:normal;font-weight:normal;font-size:12px;font-family:ArialMT;-inkscape-font-specification:ArialMT;writing-mode:lr-tb;fill:#000000;fill-opacity:1;fill-rule:nonzero;stroke:none"
             transform="translate(270.34375,95)"><tspan
               id="tspan172"
               y="0"
               x="0 8.6660156 15.339844 25.335938 28.669922 32.003906 38.677734 42.673828 48.673828 54.673828 58.007812 64.59375 67.927734 74.601562 81.275391 87.949219 94.623047">Num. arcs ≤ 29289</tspan></text>
</g><g
           transform="matrix(2.9944839,0,0,2.9944839,1.497242,1.497242)"
           id="g176"><path
             id="path178"
             style="fill:#f8cecc;fill-opacity:1;fill-rule:nonzero;stroke:none"
             d="m 334,121 h 84 c 0.3978,0 0.78049,0.0761 1.14804,0.22835 0.36752,0.15223 0.69193,0.36901 0.97327,0.65032 0.28128,0.2813 0.49804,0.60572 0.65027,0.97327 0.15225,0.36754 0.22839,0.75023 0.22842,1.14806 v 14 c -3e-5,0.39781 -0.0762,0.78049 -0.22842,1.14803 -0.15223,0.36753 -0.36899,0.69195 -0.65027,0.97328 -0.28134,0.28129 -0.60578,0.49806 -0.9733,0.6503 C 418.78049,140.92386 418.3978,140.99998 418,141 h -84 c -0.39783,-2e-5 -0.78052,-0.0761 -1.14807,-0.22839 -0.36755,-0.15224 -0.69199,-0.36901 -0.97327,-0.6503 -0.28131,-0.28133 -0.49808,-0.60575 -0.65033,-0.97328 C 331.07608,138.78049 330.99997,138.39781 331,138 v -14 c -3e-5,-0.39783 0.0761,-0.78052 0.22833,-1.14806 0.15225,-0.36755 0.36902,-0.69197 0.65033,-0.97327 0.28128,-0.28131 0.60572,-0.49809 0.97327,-0.65032 C 333.21948,121.07612 333.60217,121 334,121 Z" /><path
             id="path180"
             style="fill:none;stroke:#b85450;stroke-width:1;stroke-linecap:butt;stroke-linejoin:miter;stroke-miterlimit:10;stroke-dasharray:none;stroke-opacity:1"
             d="m 334,121 h 84 c 0.3978,0 0.78049,0.0761 1.14804,0.22835 0.36752,0.15223 0.69193,0.36901 0.97327,0.65032 0.28128,0.2813 0.49804,0.60572 0.65027,0.97327 0.15225,0.36754 0.22839,0.75023 0.22842,1.14806 v 14 c -3e-5,0.39781 -0.0762,0.78049 -0.22842,1.14803 -0.15223,0.36753 -0.36899,0.69195 -0.65027,0.97328 -0.28134,0.28129 -0.60578,0.49806 -0.9733,0.6503 C 418.78049,140.92386 418.3978,140.99998 418,141 h -84 c -0.39783,-2e-5 -0.78052,-0.0761 -1.14807,-0.22839 -0.36755,-0.15224 -0.69199,-0.36901 -0.97327,-0.6503 -0.28131,-0.28133 -0.49808,-0.60575 -0.65033,-0.97328 C 331.07608,138.78049 330.99997,138.39781 331,138 v -14 c -3e-5,-0.39783 0.0761,-0.78052 0.22833,-1.14806 0.15225,-0.36755 0.36902,-0.69197 0.65033,-0.97327 0.28128,-0.28131 0.60572,-0.49809 0.97327,-0.65032 C 333.21948,121.07612 333.60217,121 334,121 Z" /></g><g
           transform="scale(2.9944839)"
           id="g182"><text
             id="text186"
             style="font-variant:normal;font-weight:normal;font-size:12px;font-family:ArialMT;-inkscape-font-specification:ArialMT;writing-mode:lr-tb;fill:#000000;fill-opacity:1;fill-rule:nonzero;stroke:none"
             transform="translate(352.32813,135)"><tspan
               id="tspan184"
               y="0"
               x="0 8.6660156 16.669922 24 27.996094 36.662109 40.658203">HPF-H-L</tspan></text>
</g><g
           transform="matrix(2.9944839,0,0,2.9944839,1.497242,1.497242)"
           id="g188"><path
             id="path190"
             style="fill:#f8cecc;fill-opacity:1;fill-rule:nonzero;stroke:none"
             d="m 224,121 h 84 c 0.3978,0 0.78049,0.0761 1.14804,0.22835 0.36752,0.15223 0.69193,0.36901 0.97327,0.65032 0.28131,0.2813 0.49807,0.60572 0.6503,0.97327 0.15225,0.36754 0.22836,0.75023 0.22839,1.14806 v 14 c -3e-5,0.39781 -0.0761,0.78049 -0.22839,1.14803 -0.15223,0.36753 -0.36899,0.69195 -0.6503,0.97328 -0.28134,0.28129 -0.60575,0.49806 -0.97327,0.6503 C 308.78049,140.92386 308.3978,140.99998 308,141 h -84 c -0.39784,-2e-5 -0.78053,-0.0761 -1.14807,-0.22839 -0.36754,-0.15224 -0.69197,-0.36901 -0.97327,-0.6503 -0.28131,-0.28133 -0.49809,-0.60575 -0.65033,-0.97328 C 221.0761,138.78049 220.99998,138.39781 221,138 v -14 c -2e-5,-0.39783 0.0761,-0.78052 0.22833,-1.14806 0.15224,-0.36755 0.36902,-0.69197 0.65033,-0.97327 0.2813,-0.28131 0.60573,-0.49809 0.97327,-0.65032 C 223.21947,121.07612 223.60216,121 224,121 Z" /><path
             id="path192"
             style="fill:none;stroke:#b85450;stroke-width:1;stroke-linecap:butt;stroke-linejoin:miter;stroke-miterlimit:10;stroke-dasharray:none;stroke-opacity:1"
             d="m 224,121 h 84 c 0.3978,0 0.78049,0.0761 1.14804,0.22835 0.36752,0.15223 0.69193,0.36901 0.97327,0.65032 0.28131,0.2813 0.49807,0.60572 0.6503,0.97327 0.15225,0.36754 0.22836,0.75023 0.22839,1.14806 v 14 c -3e-5,0.39781 -0.0761,0.78049 -0.22839,1.14803 -0.15223,0.36753 -0.36899,0.69195 -0.6503,0.97328 -0.28134,0.28129 -0.60575,0.49806 -0.97327,0.6503 C 308.78049,140.92386 308.3978,140.99998 308,141 h -84 c -0.39784,-2e-5 -0.78053,-0.0761 -1.14807,-0.22839 -0.36754,-0.15224 -0.69197,-0.36901 -0.97327,-0.6503 -0.28131,-0.28133 -0.49809,-0.60575 -0.65033,-0.97328 C 221.0761,138.78049 220.99998,138.39781 221,138 v -14 c -2e-5,-0.39783 0.0761,-0.78052 0.22833,-1.14806 0.15224,-0.36755 0.36902,-0.69197 0.65033,-0.97327 0.2813,-0.28131 0.60573,-0.49809 0.97327,-0.65032 C 223.21947,121.07612 223.60216,121 224,121 Z" /></g><g
           transform="scale(2.9944839)"
           id="g194"><text
             id="text198"
             style="font-variant:normal;font-weight:normal;font-size:12px;font-family:ArialMT;-inkscape-font-specification:ArialMT;writing-mode:lr-tb;fill:#000000;fill-opacity:1;fill-rule:nonzero;stroke:none"
             transform="translate(243.32813,135)"><tspan
               id="tspan196"
               y="0"
               x="0 8.6660156 16.669922 24 27.996094 34.669922 38.666016">HPF-L-L</tspan></text>
</g><g
           transform="matrix(2.9944839,0,0,2.9944839,1.497242,1.497242)"
           id="g200"><path
             id="path202"
             style="fill:#f8cecc;fill-opacity:1;fill-rule:nonzero;stroke:none"
             d="m 114,121 h 84 c 0.39781,0 0.7805,0.0761 1.14804,0.22835 0.36754,0.15223 0.69196,0.36901 0.97328,0.65032 0.2813,0.2813 0.49806,0.60572 0.65032,0.97327 0.15223,0.36754 0.22834,0.75023 0.22836,1.14806 v 14 c -2e-5,0.39781 -0.0761,0.78049 -0.22836,1.14803 -0.15226,0.36753 -0.36902,0.69195 -0.65032,0.97328 -0.28132,0.28129 -0.60574,0.49806 -0.97328,0.6503 C 198.7805,140.92386 198.39781,140.99998 198,141 h -84 c -0.39783,-2e-5 -0.78052,-0.0761 -1.14806,-0.22839 -0.36755,-0.15224 -0.69197,-0.36901 -0.97326,-0.6503 -0.28131,-0.28133 -0.49809,-0.60575 -0.65033,-0.97328 C 111.07611,138.78049 110.99999,138.39781 111,138 v -14 c -1e-5,-0.39783 0.0761,-0.78052 0.22835,-1.14806 0.15224,-0.36755 0.36902,-0.69197 0.65033,-0.97327 0.28129,-0.28131 0.60571,-0.49809 0.97326,-0.65032 C 113.21948,121.07612 113.60217,121 114,121 Z" /><path
             id="path204"
             style="fill:none;stroke:#b85450;stroke-width:1;stroke-linecap:butt;stroke-linejoin:miter;stroke-miterlimit:10;stroke-dasharray:none;stroke-opacity:1"
             d="m 114,121 h 84 c 0.39781,0 0.7805,0.0761 1.14804,0.22835 0.36754,0.15223 0.69196,0.36901 0.97328,0.65032 0.2813,0.2813 0.49806,0.60572 0.65032,0.97327 0.15223,0.36754 0.22834,0.75023 0.22836,1.14806 v 14 c -2e-5,0.39781 -0.0761,0.78049 -0.22836,1.14803 -0.15226,0.36753 -0.36902,0.69195 -0.65032,0.97328 -0.28132,0.28129 -0.60574,0.49806 -0.97328,0.6503 C 198.7805,140.92386 198.39781,140.99998 198,141 h -84 c -0.39783,-2e-5 -0.78052,-0.0761 -1.14806,-0.22839 -0.36755,-0.15224 -0.69197,-0.36901 -0.97326,-0.6503 -0.28131,-0.28133 -0.49809,-0.60575 -0.65033,-0.97328 C 111.07611,138.78049 110.99999,138.39781 111,138 v -14 c -1e-5,-0.39783 0.0761,-0.78052 0.22835,-1.14806 0.15224,-0.36755 0.36902,-0.69197 0.65033,-0.97327 0.28129,-0.28131 0.60571,-0.49809 0.97326,-0.65032 C 113.21948,121.07612 113.60217,121 114,121 Z" /></g><g
           transform="scale(2.9944839)"
           id="g206"><text
             id="text210"
             style="font-variant:normal;font-weight:normal;font-size:12px;font-family:ArialMT;-inkscape-font-specification:ArialMT;writing-mode:lr-tb;fill:#000000;fill-opacity:1;fill-rule:nonzero;stroke:none"
             transform="translate(134.98437,135)"><tspan
               id="tspan208"
               y="0"
               x="0 8.0039062 11.337891 19.341797 26.671875 34.675781 38.671875">EIBFS-I</tspan></text>
</g><g
           transform="matrix(2.9944839,0,0,2.9944839,1.497242,1.497242)"
           id="g212"><path
             id="path214"
             style="fill:none;stroke:#000000;stroke-width:1;stroke-linecap:butt;stroke-linejoin:miter;stroke-miterlimit:10;stroke-dasharray:none;stroke-opacity:1"
             d="m 101,101 v 10 h 55 v 3.63" /><path
             id="path216"
             style="fill:#000000;fill-opacity:1;fill-rule:nonzero;stroke:none"
             d="m 156,119.88 -3.5,-7 3.5,1.75 3.5,-1.75 z" /><path
             id="path218"
             style="fill:none;stroke:#000000;stroke-width:1;stroke-linecap:butt;stroke-linejoin:miter;stroke-miterlimit:10;stroke-dasharray:none;stroke-opacity:1"
             d="m 156,119.88 -3.5,-7 3.5,1.75 3.5,-1.75 z" /></g><g
           transform="scale(2.9944839)"
           id="g220"><path
             id="path222"
             style="fill:#ffffff;fill-opacity:1;fill-rule:nonzero;stroke:none"
             d="m 124,106 h 17 v 13 h -17 z" /><text
             id="text226"
             style="font-variant:normal;font-weight:normal;font-size:11px;font-family:ArialMT;-inkscape-font-specification:ArialMT;writing-mode:lr-tb;fill:#000000;fill-opacity:1;fill-rule:nonzero;stroke:none"
             transform="translate(123.53125,116)"><tspan
               id="tspan224"
               y="0"
               x="0 6.3271484 12.444824">Yes</tspan></text>
</g><g
           transform="matrix(2.9944839,0,0,2.9944839,1.497242,1.497242)"
           id="g228"><path
             id="path230"
             style="fill:none;stroke:#000000;stroke-width:1;stroke-linecap:butt;stroke-linejoin:miter;stroke-miterlimit:10;stroke-dasharray:none;stroke-opacity:1"
             d="m 101,101 v 10 H 46 v 3.63" /><path
             id="path232"
             style="fill:#000000;fill-opacity:1;fill-rule:nonzero;stroke:none"
             d="m 46,119.88 -3.5,-7 3.5,1.75 3.5,-1.75 z" /><path
             id="path234"
             style="fill:none;stroke:#000000;stroke-width:1;stroke-linecap:butt;stroke-linejoin:miter;stroke-miterlimit:10;stroke-dasharray:none;stroke-opacity:1"
             d="m 46,119.88 -3.5,-7 3.5,1.75 3.5,-1.75 z" /></g><g
           transform="scale(2.9944839)"
           id="g236"><path
             id="path238"
             style="fill:#ffffff;fill-opacity:1;fill-rule:nonzero;stroke:none"
             d="m 71,106 h 15 v 13 H 71 Z" /><text
             id="text242"
             style="font-variant:normal;font-weight:normal;font-size:11px;font-family:ArialMT;-inkscape-font-specification:ArialMT;writing-mode:lr-tb;fill:#000000;fill-opacity:1;fill-rule:nonzero;stroke:none"
             transform="translate(71.46875,116)"><tspan
               id="tspan240"
               y="0"
               x="0 7.9438477">No</tspan></text>
</g><g
           transform="matrix(2.9944839,0,0,2.9944839,1.497242,1.497242)"
           id="g244"><path
             id="path246"
             style="fill:#ffffff;fill-opacity:1;fill-rule:nonzero;stroke:none"
             d="m 19,81 h 164 c 0.39781,0 0.7805,0.07612 1.14804,0.228355 0.36752,0.152245 0.69194,0.369019 0.97327,0.650322 0.28129,0.281304 0.49806,0.605729 0.6503,0.973267 C 185.92386,83.219482 185.99998,83.602165 186,84 v 14 c -2e-5,0.39782 -0.0761,0.780502 -0.22839,1.148041 -0.15224,0.367546 -0.36901,0.691971 -0.6503,0.973269 -0.28133,0.2813 -0.60575,0.49807 -0.97328,0.65031 C 183.78049,100.92387 183.39781,100.99999 183,101 H 19 c -0.397825,-1e-5 -0.780508,-0.0761 -1.148052,-0.22838 -0.367542,-0.15224 -0.691965,-0.36901 -0.973269,-0.65031 C 16.597374,99.840012 16.3806,99.515587 16.228359,99.148041 16.076118,98.780502 15.999999,98.39782 16,98 V 84 c -10e-7,-0.397835 0.07612,-0.780518 0.228359,-1.148056 0.152241,-0.367538 0.369015,-0.691963 0.65032,-0.973267 0.281304,-0.281303 0.605727,-0.498077 0.973269,-0.650322 C 18.219492,81.076118 18.602175,81 19,81 Z" /><path
             id="path248"
             style="fill:none;stroke:#000000;stroke-width:1;stroke-linecap:butt;stroke-linejoin:miter;stroke-miterlimit:10;stroke-dasharray:none;stroke-opacity:1"
             d="m 19,81 h 164 c 0.39781,0 0.7805,0.07612 1.14804,0.228355 0.36752,0.152245 0.69194,0.369019 0.97327,0.650322 0.28129,0.281304 0.49806,0.605729 0.6503,0.973267 C 185.92386,83.219482 185.99998,83.602165 186,84 v 14 c -2e-5,0.39782 -0.0761,0.780502 -0.22839,1.148041 -0.15224,0.367546 -0.36901,0.691971 -0.6503,0.973269 -0.28133,0.2813 -0.60575,0.49807 -0.97328,0.65031 C 183.78049,100.92387 183.39781,100.99999 183,101 H 19 c -0.397825,-1e-5 -0.780508,-0.0761 -1.148052,-0.22838 -0.367542,-0.15224 -0.691965,-0.36901 -0.973269,-0.65031 C 16.597374,99.840012 16.3806,99.515587 16.228359,99.148041 16.076118,98.780502 15.999999,98.39782 16,98 V 84 c -10e-7,-0.397835 0.07612,-0.780518 0.228359,-1.148056 0.152241,-0.367538 0.369015,-0.691963 0.65032,-0.973267 0.281304,-0.281303 0.605727,-0.498077 0.973269,-0.650322 C 18.219492,81.076118 18.602175,81 19,81 Z" /></g><g
           transform="scale(2.9944839)"
           id="g250"><text
             id="text254"
             style="font-variant:normal;font-weight:normal;font-size:12px;font-family:ArialMT;-inkscape-font-specification:ArialMT;writing-mode:lr-tb;fill:#000000;fill-opacity:1;fill-rule:nonzero;stroke:none"
             transform="translate(27.65625,95)"><tspan
               id="tspan252"
               y="0"
               x="0 8.0039062 10.669922 17.34375 23.34375 26.677734 33.351562 40.025391 50.021484 53.355469 56.689453 63.363281 70.037109 76.710938 82.710938 89.384766 93.380859 100.05469 103.38867 109.97461 113.30859 119.98242 126.65625 133.33008 140.00391">Sink num. nonzero ≤ 43630</tspan></text>
</g></g></g></g></svg>